$MeshFormat
2.2 0 8
$EndMeshFormat
$PhysicalNames
1
3 1 "cube"
$EndPhysicalNames
$Nodes
216
1 0.05 -0.05 0.05
2 0.05 0.05 0.05
3 0.05 -0.030000000000000002 0.05
4 0.05 -0.010000000000000002 0.05
5 0.05 0.009999999999999995 0.05
6 0.05 0.03 0.05
7 -0.05 0.05 0.05
8 0.030000000000000002 0.05 0.05
9 0.010000000000000002 0.05 0.05
10 -0.009999999999999995 0.05 0.05
11 -0.03 0.05 0.05
12 -0.05 -0.05 0.05
13 -0.05 0.030000000000000002 0.05
14 -0.05 0.010000000000000002 0.05
15 -0.05 -0.009999999999999995 0.05
16 -0.05 -0.03 0.05
17 -0.030000000000000002 -0.05 0.05
18 -0.010000000000000002 -0.05 0.05
19 0.009999999999999995 -0.05 0.05
20 0.03 -0.05 0.05
21 0.03 -0.030000000000000006 0.05
22 0.03000000000000001 -0.009999999999999998 0.05
23 0.030000000000000013 0.009999999999999993 0.05
24 0.030000000000000006 0.030000000000000006 0.05
25 0.009999999999999998 -0.03 0.05
26 0.009999999999999997 -0.009999999999999993 0.05
27 0.009999999999999995 0.009999999999999995 0.05
28 0.009999999999999995 0.030000000000000002 0.05
29 -0.009999999999999997 -0.03 0.05
30 -0.010000000000000005 -0.009999999999999993 0.05
31 -0.009999999999999992 0.009999999999999995 0.05
32 -0.009999999999999992 0.03000000000000001 0.05
33 -0.030000000000000013 -0.030000000000000013 0.05
34 -0.03000000000000001 -0.010000000000000002 0.05
35 -0.03000000000000001 0.010000000000000005 0.05
36 -0.030000000000000006 0.030000000000000013 0.05
37 0.05 0.05 -0.05
38 0.05 -0.05 -0.05
39 0.05 0.030000000000000002 -0.05
40 0.05 0.010000000000000002 -0.05
41 0.05 -0.009999999999999995 -0.05
42 0.05 -0.03 -0.05
43 -0.05 -0.05 -0.05
44 0.030000000000000002 -0.05 -0.05
45 0.010000000000000002 -0.05 -0.05
46 -0.009999999999999995 -0.05 -0.05
47 -0.03 -0.05 -0.05
48 -0.05 0.05 -0.05
49 -0.05 -0.030000000000000002 -0.05
50 -0.05 -0.010000000000000002 -0.05
51 -0.05 0.009999999999999995 -0.05
52 -0.05 0.03 -0.05
53 -0.030000000000000002 0.05 -0.05
54 -0.010000000000000002 0.05 -0.05
55 0.009999999999999995 0.05 -0.05
56 0.03 0.05 -0.05
57 0.03 0.030000000000000006 -0.05
58 0.03000000000000001 0.009999999999999998 -0.05
59 0.030000000000000013 -0.009999999999999993 -0.05
60 0.030000000000000006 -0.030000000000000006 -0.05
61 0.009999999999999998 0.03 -0.05
62 0.009999999999999997 0.009999999999999993 -0.05
63 0.009999999999999995 -0.009999999999999995 -0.05
64 0.009999999999999995 -0.030000000000000002 -0.05
65 -0.009999999999999997 0.03 -0.05
66 -0.010000000000000005 0.009999999999999993 -0.05
67 -0.009999999999999992 -0.009999999999999995 -0.05
68 -0.009999999999999992 -0.03000000000000001 -0.05
69 -0.030000000000000013 0.030000000000000013 -0.05
70 -0.03000000000000001 0.010000000000000002 -0.05
71 -0.03000000000000001 -0.010000000000000005 -0.05
72 -0.030000000000000006 -0.030000000000000013 -0.05
73 -0.05 -0.05 0.030000000000000002
74 -0.05 -0.05 0.010000000000000002
75 -0.05 -0.05 -0.009999999999999995
76 -0.05 -0.05 -0.03
77 0.05 -0.05 0.030000000000000002
78 0.05 -0.05 0.010000000000000002
79 0.05 -0.05 -0.009999999999999995
80 0.05 -0.05 -0.03
81 -0.029999999999999995 -0.05 0.029999999999999995
82 -0.03000000000000001 -0.05 0.009999999999999998
83 -0.030000000000000013 -0.05 -0.009999999999999993
84 -0.030000000000000006 -0.05 -0.030000000000000013
85 -0.009999999999999998 -0.05 0.03
86 -0.009999999999999997 -0.05 0.01
87 -0.009999999999999995 -0.05 -0.009999999999999988
88 -0.010000000000000002 -0.05 -0.03000000000000001
89 0.009999999999999992 -0.05 0.029999999999999995
90 0.01 -0.05 0.01
91 0.009999999999999998 -0.05 -0.009999999999999995
92 0.010000000000000005 -0.05 -0.03000000000000001
93 0.030000000000000006 -0.05 0.030000000000000006
94 0.030000000000000002 -0.05 0.009999999999999998
95 0.03000000000000001 -0.05 -0.009999999999999992
96 0.030000000000000013 -0.05 -0.030000000000000013
97 -0.05 0.05 0.030000000000000002
98 -0.05 0.05 0.010000000000000002
99 -0.05 0.05 -0.009999999999999995
100 -0.05 0.05 -0.03
101 -0.05 0.029999999999999995 0.029999999999999995
102 -0.05 0.03000000000000001 0.009999999999999998
103 -0.05 0.030000000000000013 -0.009999999999999993
104 -0.05 0.030000000000000006 -0.030000000000000013
105 -0.05 0.009999999999999998 0.03
106 -0.05 0.009999999999999997 0.01
107 -0.05 0.009999999999999995 -0.009999999999999988
108 -0.05 0.010000000000000002 -0.03000000000000001
109 -0.05 -0.009999999999999992 0.029999999999999995
110 -0.05 -0.01 0.01
111 -0.05 -0.009999999999999998 -0.009999999999999995
112 -0.05 -0.010000000000000005 -0.03000000000000001
113 -0.05 -0.030000000000000006 0.030000000000000006
114 -0.05 -0.030000000000000002 0.009999999999999998
115 -0.05 -0.03000000000000001 -0.009999999999999992
116 -0.05 -0.030000000000000013 -0.030000000000000013
117 0.05 0.05 0.030000000000000002
118 0.05 0.05 0.010000000000000002
119 0.05 0.05 -0.009999999999999995
120 0.05 0.05 -0.03
121 0.029999999999999995 0.05 0.029999999999999995
122 0.03000000000000001 0.05 0.009999999999999998
123 0.030000000000000013 0.05 -0.009999999999999993
124 0.030000000000000006 0.05 -0.030000000000000013
125 0.009999999999999998 0.05 0.03
126 0.009999999999999997 0.05 0.01
127 0.009999999999999995 0.05 -0.009999999999999988
128 0.010000000000000002 0.05 -0.03000000000000001
129 -0.009999999999999992 0.05 0.029999999999999995
130 -0.01 0.05 0.01
131 -0.009999999999999998 0.05 -0.009999999999999995
132 -0.010000000000000005 0.05 -0.03000000000000001
133 -0.030000000000000006 0.05 0.030000000000000006
134 -0.030000000000000002 0.05 0.009999999999999998
135 -0.03000000000000001 0.05 -0.009999999999999992
136 -0.030000000000000013 0.05 -0.030000000000000013
137 0.05 -0.029999999999999995 0.029999999999999995
138 0.05 -0.03000000000000001 0.009999999999999998
139 0.05 -0.030000000000000013 -0.009999999999999993
140 0.05 -0.030000000000000006 -0.030000000000000013
141 0.05 -0.009999999999999998 0.03
142 0.05 -0.009999999999999997 0.01
143 0.05 -0.009999999999999995 -0.009999999999999988
144 0.05 -0.010000000000000002 -0.03000000000000001
145 0.05 0.009999999999999992 0.029999999999999995
146 0.05 0.01 0.01
147 0.05 0.009999999999999998 -0.009999999999999995
148 0.05 0.010000000000000005 -0.03000000000000001
149 0.05 0.030000000000000006 0.030000000000000006
150 0.05 0.030000000000000002 0.009999999999999998
151 0.05 0.03000000000000001 -0.009999999999999992
152 0.05 0.030000000000000013 -0.030000000000000013
153 -0.02999999999999999 -0.030000000000000013 0.03
154 -0.03000000000000001 -0.030000000000000013 0.00999999999999999
155 -0.030000000000000027 -0.030000000000000027 -0.009999999999999988
156 -0.03000000000000002 -0.03000000000000002 -0.030000000000000013
157 -0.030000000000000016 -0.01 0.029999999999999992
158 -0.03000000000000003 -0.010000000000000005 0.009999999999999998
159 -0.03000000000000002 -0.010000000000000002 -0.009999999999999992
160 -0.030000000000000023 -0.010000000000000009 -0.030000000000000016
161 -0.030000000000000013 0.009999999999999998 0.030000000000000002
162 -0.030000000000000027 0.010000000000000002 0.009999999999999998
163 -0.030000000000000027 0.010000000000000002 -0.009999999999999992
164 -0.030000000000000027 0.010000000000000009 -0.03000000000000002
165 -0.03000000000000001 0.030000000000000002 0.029999999999999995
166 -0.03000000000000002 0.030000000000000013 0.009999999999999995
167 -0.030000000000000027 0.03000000000000002 -0.009999999999999992
168 -0.03000000000000002 0.030000000000000027 -0.030000000000000027
169 -0.009999999999999993 -0.030000000000000013 0.030000000000000006
170 -0.009999999999999988 -0.03000000000000001 0.009999999999999992
171 -0.009999999999999992 -0.03000000000000002 -0.009999999999999988
172 -0.009999999999999995 -0.03000000000000002 -0.03000000000000002
173 -0.01 -0.009999999999999985 0.02999999999999999
174 -0.009999999999999988 -0.009999999999999992 0.009999999999999992
175 -0.009999999999999986 -0.009999999999999995 -0.00999999999999999
176 -0.009999999999999995 -0.009999999999999995 -0.030000000000000016
177 -0.00999999999999999 0.009999999999999983 0.03
178 -0.01 0.009999999999999993 0.01
179 -0.009999999999999993 0.00999999999999999 -0.009999999999999986
180 -0.010000000000000005 0.009999999999999998 -0.03000000000000001
181 -0.00999999999999999 0.030000000000000006 0.029999999999999992
182 -0.009999999999999995 0.030000000000000016 0.009999999999999998
183 -0.00999999999999999 0.030000000000000027 -0.009999999999999983
184 -0.009999999999999997 0.030000000000000006 -0.030000000000000027
185 0.009999999999999988 -0.030000000000000006 0.03
186 0.009999999999999988 -0.03 0.009999999999999995
187 0.009999999999999998 -0.030000000000000013 -0.009999999999999985
188 0.009999999999999998 -0.030000000000000016 -0.030000000000000023
189 0.009999999999999992 -0.00999999999999999 0.030000000000000006
190 0.009999999999999998 -0.009999999999999988 0.009999999999999998
191 0.009999999999999981 -0.009999999999999993 -0.009999999999999988
192 0.01 -0.009999999999999998 -0.030000000000000016
193 0.009999999999999988 0.009999999999999988 0.02999999999999999
194 0.009999999999999995 0.009999999999999998 0.01
195 0.009999999999999985 0.009999999999999992 -0.009999999999999978
196 0.009999999999999997 0.01 -0.030000000000000013
197 0.009999999999999988 0.03000000000000001 0.029999999999999995
198 0.00999999999999999 0.030000000000000006 0.009999999999999997
199 0.009999999999999992 0.030000000000000016 -0.009999999999999985
200 0.009999999999999998 0.030000000000000016 -0.030000000000000016
201 0.030000000000000006 -0.03000000000000001 0.02999999999999999
202 0.030000000000000006 -0.030000000000000006 0.00999999999999999
203 0.030000000000000006 -0.030000000000000027 -0.009999999999999988
204 0.030000000000000006 -0.030000000000000027 -0.030000000000000027
205 0.030000000000000016 -0.009999999999999992 0.029999999999999992
206 0.03000000000000002 -0.009999999999999995 0.009999999999999995
207 0.030000000000000013 -0.009999999999999997 -0.009999999999999988
208 0.030000000000000027 -0.01 -0.03000000000000002
209 0.030000000000000023 0.009999999999999988 0.029999999999999995
210 0.030000000000000002 0.009999999999999988 0.009999999999999995
211 0.030000000000000006 0.009999999999999997 -0.009999999999999983
212 0.030000000000000027 0.01 -0.03000000000000002
213 0.030000000000000006 0.030000000000000013 0.030000000000000006
214 0.030000000000000013 0.030000000000000006 0.00999999999999999
215 0.030000000000000023 0.030000000000000013 -0.009999999999999988
216 0.030000000000000002 0.03000000000000001 -0.030000000000000016
$EndNodes
$Elements
125
1 5 2 1 1 12 73 113 16 17 81 153 33
2 5 2 1 1 73 74 114 113 81 82 154 153
3 5 2 1 1 74 75 115 114 82 83 155 154
4 5 2 1 1 75 76 116 115 83 84 156 155
5 5 2 1 1 76 43 49 116 84 47 72 156
6 5 2 1 1 16 113 109 15 33 153 157 34
7 5 2 1 1 113 114 110 109 153 154 158 157
8 5 2 1 1 114 115 111 110 154 155 159 158
9 5 2 1 1 115 116 112 111 155 156 160 159
10 5 2 1 1 116 49 50 112 156 72 71 160
11 5 2 1 1 15 109 105 14 34 157 161 35
12 5 2 1 1 109 110 106 105 157 158 162 161
13 5 2 1 1 110 111 107 106 158 159 163 162
14 5 2 1 1 111 112 108 107 159 160 164 163
15 5 2 1 1 112 50 51 108 160 71 70 164
16 5 2 1 1 14 105 101 13 35 161 165 36
17 5 2 1 1 105 106 102 101 161 162 166 165
18 5 2 1 1 106 107 103 102 162 163 167 166
19 5 2 1 1 107 108 104 103 163 164 168 167
20 5 2 1 1 108 51 52 104 164 70 69 168
21 5 2 1 1 13 101 97 7 36 165 133 11
22 5 2 1 1 101 102 98 97 165 166 134 133
23 5 2 1 1 102 103 99 98 166 167 135 134
24 5 2 1 1 103 104 100 99 167 168 136 135
25 5 2 1 1 104 52 48 100 168 69 53 136
26 5 2 1 1 17 81 153 33 18 85 169 29
27 5 2 1 1 81 82 154 153 85 86 170 169
28 5 2 1 1 82 83 155 154 86 87 171 170
29 5 2 1 1 83 84 156 155 87 88 172 171
30 5 2 1 1 84 47 72 156 88 46 68 172
31 5 2 1 1 33 153 157 34 29 169 173 30
32 5 2 1 1 153 154 158 157 169 170 174 173
33 5 2 1 1 154 155 159 158 170 171 175 174
34 5 2 1 1 155 156 160 159 171 172 176 175
35 5 2 1 1 156 72 71 160 172 68 67 176
36 5 2 1 1 34 157 161 35 30 173 177 31
37 5 2 1 1 157 158 162 161 173 174 178 177
38 5 2 1 1 158 159 163 162 174 175 179 178
39 5 2 1 1 159 160 164 163 175 176 180 179
40 5 2 1 1 160 71 70 164 176 67 66 180
41 5 2 1 1 35 161 165 36 31 177 181 32
42 5 2 1 1 161 162 166 165 177 178 182 181
43 5 2 1 1 162 163 167 166 178 179 183 182
44 5 2 1 1 163 164 168 167 179 180 184 183
45 5 2 1 1 164 70 69 168 180 66 65 184
46 5 2 1 1 36 165 133 11 32 181 129 10
47 5 2 1 1 165 166 134 133 181 182 130 129
48 5 2 1 1 166 167 135 134 182 183 131 130
49 5 2 1 1 167 168 136 135 183 184 132 131
50 5 2 1 1 168 69 53 136 184 65 54 132
51 5 2 1 1 18 85 169 29 19 89 185 25
52 5 2 1 1 85 86 170 169 89 90 186 185
53 5 2 1 1 86 87 171 170 90 91 187 186
54 5 2 1 1 87 88 172 171 91 92 188 187
55 5 2 1 1 88 46 68 172 92 45 64 188
56 5 2 1 1 29 169 173 30 25 185 189 26
57 5 2 1 1 169 170 174 173 185 186 190 189
58 5 2 1 1 170 171 175 174 186 187 191 190
59 5 2 1 1 171 172 176 175 187 188 192 191
60 5 2 1 1 172 68 67 176 188 64 63 192
61 5 2 1 1 30 173 177 31 26 189 193 27
62 5 2 1 1 173 174 178 177 189 190 194 193
63 5 2 1 1 174 175 179 178 190 191 195 194
64 5 2 1 1 175 176 180 179 191 192 196 195
65 5 2 1 1 176 67 66 180 192 63 62 196
66 5 2 1 1 31 177 181 32 27 193 197 28
67 5 2 1 1 177 178 182 181 193 194 198 197
68 5 2 1 1 178 179 183 182 194 195 199 198
69 5 2 1 1 179 180 184 183 195 196 200 199
70 5 2 1 1 180 66 65 184 196 62 61 200
71 5 2 1 1 32 181 129 10 28 197 125 9
72 5 2 1 1 181 182 130 129 197 198 126 125
73 5 2 1 1 182 183 131 130 198 199 127 126
74 5 2 1 1 183 184 132 131 199 200 128 127
75 5 2 1 1 184 65 54 132 200 61 55 128
76 5 2 1 1 19 89 185 25 20 93 201 21
77 5 2 1 1 89 90 186 185 93 94 202 201
78 5 2 1 1 90 91 187 186 94 95 203 202
79 5 2 1 1 91 92 188 187 95 96 204 203
80 5 2 1 1 92 45 64 188 96 44 60 204
81 5 2 1 1 25 185 189 26 21 201 205 22
82 5 2 1 1 185 186 190 189 201 202 206 205
83 5 2 1 1 186 187 191 190 202 203 207 206
84 5 2 1 1 187 188 192 191 203 204 208 207
85 5 2 1 1 188 64 63 192 204 60 59 208
86 5 2 1 1 26 189 193 27 22 205 209 23
87 5 2 1 1 189 190 194 193 205 206 210 209
88 5 2 1 1 190 191 195 194 206 207 211 210
89 5 2 1 1 191 192 196 195 207 208 212 211
90 5 2 1 1 192 63 62 196 208 59 58 212
91 5 2 1 1 27 193 197 28 23 209 213 24
92 5 2 1 1 193 194 198 197 209 210 214 213
93 5 2 1 1 194 195 199 198 210 211 215 214
94 5 2 1 1 195 196 200 199 211 212 216 215
95 5 2 1 1 196 62 61 200 212 58 57 216
96 5 2 1 1 28 197 125 9 24 213 121 8
97 5 2 1 1 197 198 126 125 213 214 122 121
98 5 2 1 1 198 199 127 126 214 215 123 122
99 5 2 1 1 199 200 128 127 215 216 124 123
100 5 2 1 1 200 61 55 128 216 57 56 124
101 5 2 1 1 20 93 201 21 1 77 137 3
102 5 2 1 1 93 94 202 201 77 78 138 137
103 5 2 1 1 94 95 203 202 78 79 139 138
104 5 2 1 1 95 96 204 203 79 80 140 139
105 5 2 1 1 96 44 60 204 80 38 42 140
106 5 2 1 1 21 201 205 22 3 137 141 4
107 5 2 1 1 201 202 206 205 137 138 142 141
108 5 2 1 1 202 203 207 206 138 139 143 142
109 5 2 1 1 203 204 208 207 139 140 144 143
110 5 2 1 1 204 60 59 208 140 42 41 144
111 5 2 1 1 22 205 209 23 4 141 145 5
112 5 2 1 1 205 206 210 209 141 142 146 145
113 5 2 1 1 206 207 211 210 142 143 147 146
114 5 2 1 1 207 208 212 211 143 144 148 147
115 5 2 1 1 208 59 58 212 144 41 40 148
116 5 2 1 1 23 209 213 24 5 145 149 6
117 5 2 1 1 209 210 214 213 145 146 150 149
118 5 2 1 1 210 211 215 214 146 147 151 150
119 5 2 1 1 211 212 216 215 147 148 152 151
120 5 2 1 1 212 58 57 216 148 40 39 152
121 5 2 1 1 24 213 121 8 6 149 117 2
122 5 2 1 1 213 214 122 121 149 150 118 117
123 5 2 1 1 214 215 123 122 150 151 119 118
124 5 2 1 1 215 216 124 123 151 152 120 119
125 5 2 1 1 216 57 56 124 152 39 37 120
$EndElements
