$$$$$$$$$$$$$$$$$$$$$$$$$$$$$$$$$$$$$$$$$$$$$$$$$$$$$$$$$$$$$$$$$$$$$$$$$$$$$$$$$$$$$$$$$$$$$$$$
$
$                         CUBIT NX Nastran Translator
$
$            File: S:\Radia\01_GitHub\examples\ngsolve_integration\mesh_magnetization_import\cube_hex.bdf
$      Time Stamp: 22-Nov-25 at 23:18:08
$
$
$                        PLEASE CHECK YOUR MODEL FOR UNITS CONSISTENCY.
$
$       It should be noted that load ID's from CUBIT may NOT correspond to Nastran SID's
$ The SID's for the load and restraint sets start at one and increment by one:i.e.,1,2,3,4...
$
$$$$$$$$$$$$$$$$$$$$$$$$$$$$$$$$$$$$$$$$$$$$$$$$$$$$$$$$$$$$$$$$$$$$$$$$$$$$$$$$$$$$$$$$$$$$$$$$
$
$
$ -------------------------
$ Executive Control Section
$ -------------------------
$
SOL 101
CEND
$
$
$ --------------------
$ Case Control Section
$ --------------------
$
ECHO = SORT
$
$
$ Name: Initial
$
$
$ Name: Default Set
$
SUBCASE = 1
$
LABEL = Default Set
$
$ -----------------
$ Bulk Data Section
$ -----------------
$
BEGIN BULK
$
$ Params
$
$
$ Node cards
$
GRID*                  1               0         0.05000        -0.05000
*                0.05000
GRID*                  2               0         0.05000         0.05000
*                0.05000
GRID*                  3               0         0.05000        -0.03000
*                0.05000
GRID*                  4               0         0.05000        -0.01000
*                0.05000
GRID*                  5               0         0.05000         0.01000
*                0.05000
GRID*                  6               0         0.05000         0.03000
*                0.05000
GRID*                  7               0        -0.05000         0.05000
*                0.05000
GRID*                  8               0         0.03000         0.05000
*                0.05000
GRID*                  9               0         0.01000         0.05000
*                0.05000
GRID*                 10               0        -0.01000         0.05000
*                0.05000
GRID*                 11               0        -0.03000         0.05000
*                0.05000
GRID*                 12               0        -0.05000        -0.05000
*                0.05000
GRID*                 13               0        -0.05000         0.03000
*                0.05000
GRID*                 14               0        -0.05000         0.01000
*                0.05000
GRID*                 15               0        -0.05000        -0.01000
*                0.05000
GRID*                 16               0        -0.05000        -0.03000
*                0.05000
GRID*                 17               0        -0.03000        -0.05000
*                0.05000
GRID*                 18               0        -0.01000        -0.05000
*                0.05000
GRID*                 19               0         0.01000        -0.05000
*                0.05000
GRID*                 20               0         0.03000        -0.05000
*                0.05000
GRID*                 21               0         0.03000        -0.03000
*                0.05000
GRID*                 22               0         0.03000        -0.01000
*                0.05000
GRID*                 23               0         0.03000         0.01000
*                0.05000
GRID*                 24               0         0.03000         0.03000
*                0.05000
GRID*                 25               0         0.01000        -0.03000
*                0.05000
GRID*                 26               0         0.01000        -0.01000
*                0.05000
GRID*                 27               0         0.01000         0.01000
*                0.05000
GRID*                 28               0         0.01000         0.03000
*                0.05000
GRID*                 29               0        -0.01000        -0.03000
*                0.05000
GRID*                 30               0        -0.01000        -0.01000
*                0.05000
GRID*                 31               0        -0.01000         0.01000
*                0.05000
GRID*                 32               0        -0.01000         0.03000
*                0.05000
GRID*                 33               0        -0.03000        -0.03000
*                0.05000
GRID*                 34               0        -0.03000        -0.01000
*                0.05000
GRID*                 35               0        -0.03000         0.01000
*                0.05000
GRID*                 36               0        -0.03000         0.03000
*                0.05000
GRID*                 37               0         0.05000         0.05000
*               -0.05000
GRID*                 38               0         0.05000        -0.05000
*               -0.05000
GRID*                 39               0         0.05000         0.03000
*               -0.05000
GRID*                 40               0         0.05000         0.01000
*               -0.05000
GRID*                 41               0         0.05000        -0.01000
*               -0.05000
GRID*                 42               0         0.05000        -0.03000
*               -0.05000
GRID*                 43               0        -0.05000        -0.05000
*               -0.05000
GRID*                 44               0         0.03000        -0.05000
*               -0.05000
GRID*                 45               0         0.01000        -0.05000
*               -0.05000
GRID*                 46               0        -0.01000        -0.05000
*               -0.05000
GRID*                 47               0        -0.03000        -0.05000
*               -0.05000
GRID*                 48               0        -0.05000         0.05000
*               -0.05000
GRID*                 49               0        -0.05000        -0.03000
*               -0.05000
GRID*                 50               0        -0.05000        -0.01000
*               -0.05000
GRID*                 51               0        -0.05000         0.01000
*               -0.05000
GRID*                 52               0        -0.05000         0.03000
*               -0.05000
GRID*                 53               0        -0.03000         0.05000
*               -0.05000
GRID*                 54               0        -0.01000         0.05000
*               -0.05000
GRID*                 55               0         0.01000         0.05000
*               -0.05000
GRID*                 56               0         0.03000         0.05000
*               -0.05000
GRID*                 57               0         0.03000         0.03000
*               -0.05000
GRID*                 58               0         0.03000         0.01000
*               -0.05000
GRID*                 59               0         0.03000        -0.01000
*               -0.05000
GRID*                 60               0         0.03000        -0.03000
*               -0.05000
GRID*                 61               0         0.01000         0.03000
*               -0.05000
GRID*                 62               0         0.01000         0.01000
*               -0.05000
GRID*                 63               0         0.01000        -0.01000
*               -0.05000
GRID*                 64               0         0.01000        -0.03000
*               -0.05000
GRID*                 65               0        -0.01000         0.03000
*               -0.05000
GRID*                 66               0        -0.01000         0.01000
*               -0.05000
GRID*                 67               0        -0.01000        -0.01000
*               -0.05000
GRID*                 68               0        -0.01000        -0.03000
*               -0.05000
GRID*                 69               0        -0.03000         0.03000
*               -0.05000
GRID*                 70               0        -0.03000         0.01000
*               -0.05000
GRID*                 71               0        -0.03000        -0.01000
*               -0.05000
GRID*                 72               0        -0.03000        -0.03000
*               -0.05000
GRID*                 73               0        -0.05000        -0.05000
*                0.03000
GRID*                 74               0        -0.05000        -0.05000
*                0.01000
GRID*                 75               0        -0.05000        -0.05000
*               -0.01000
GRID*                 76               0        -0.05000        -0.05000
*               -0.03000
GRID*                 77               0         0.05000        -0.05000
*                0.03000
GRID*                 78               0         0.05000        -0.05000
*                0.01000
GRID*                 79               0         0.05000        -0.05000
*               -0.01000
GRID*                 80               0         0.05000        -0.05000
*               -0.03000
GRID*                 81               0        -0.03000        -0.05000
*                0.03000
GRID*                 82               0        -0.03000        -0.05000
*                0.01000
GRID*                 83               0        -0.03000        -0.05000
*               -0.01000
GRID*                 84               0        -0.03000        -0.05000
*               -0.03000
GRID*                 85               0        -0.01000        -0.05000
*                0.03000
GRID*                 86               0        -0.01000        -0.05000
*                0.01000
GRID*                 87               0        -0.01000        -0.05000
*               -0.01000
GRID*                 88               0        -0.01000        -0.05000
*               -0.03000
GRID*                 89               0         0.01000        -0.05000
*                0.03000
GRID*                 90               0         0.01000        -0.05000
*                0.01000
GRID*                 91               0         0.01000        -0.05000
*               -0.01000
GRID*                 92               0         0.01000        -0.05000
*               -0.03000
GRID*                 93               0         0.03000        -0.05000
*                0.03000
GRID*                 94               0         0.03000        -0.05000
*                0.01000
GRID*                 95               0         0.03000        -0.05000
*               -0.01000
GRID*                 96               0         0.03000        -0.05000
*               -0.03000
GRID*                 97               0        -0.05000         0.05000
*                0.03000
GRID*                 98               0        -0.05000         0.05000
*                0.01000
GRID*                 99               0        -0.05000         0.05000
*               -0.01000
GRID*                100               0        -0.05000         0.05000
*               -0.03000
GRID*                101               0        -0.05000         0.03000
*                0.03000
GRID*                102               0        -0.05000         0.03000
*                0.01000
GRID*                103               0        -0.05000         0.03000
*               -0.01000
GRID*                104               0        -0.05000         0.03000
*               -0.03000
GRID*                105               0        -0.05000         0.01000
*                0.03000
GRID*                106               0        -0.05000         0.01000
*                0.01000
GRID*                107               0        -0.05000         0.01000
*               -0.01000
GRID*                108               0        -0.05000         0.01000
*               -0.03000
GRID*                109               0        -0.05000        -0.01000
*                0.03000
GRID*                110               0        -0.05000        -0.01000
*                0.01000
GRID*                111               0        -0.05000        -0.01000
*               -0.01000
GRID*                112               0        -0.05000        -0.01000
*               -0.03000
GRID*                113               0        -0.05000        -0.03000
*                0.03000
GRID*                114               0        -0.05000        -0.03000
*                0.01000
GRID*                115               0        -0.05000        -0.03000
*               -0.01000
GRID*                116               0        -0.05000        -0.03000
*               -0.03000
GRID*                117               0         0.05000         0.05000
*                0.03000
GRID*                118               0         0.05000         0.05000
*                0.01000
GRID*                119               0         0.05000         0.05000
*               -0.01000
GRID*                120               0         0.05000         0.05000
*               -0.03000
GRID*                121               0         0.03000         0.05000
*                0.03000
GRID*                122               0         0.03000         0.05000
*                0.01000
GRID*                123               0         0.03000         0.05000
*               -0.01000
GRID*                124               0         0.03000         0.05000
*               -0.03000
GRID*                125               0         0.01000         0.05000
*                0.03000
GRID*                126               0         0.01000         0.05000
*                0.01000
GRID*                127               0         0.01000         0.05000
*               -0.01000
GRID*                128               0         0.01000         0.05000
*               -0.03000
GRID*                129               0        -0.01000         0.05000
*                0.03000
GRID*                130               0        -0.01000         0.05000
*                0.01000
GRID*                131               0        -0.01000         0.05000
*               -0.01000
GRID*                132               0        -0.01000         0.05000
*               -0.03000
GRID*                133               0        -0.03000         0.05000
*                0.03000
GRID*                134               0        -0.03000         0.05000
*                0.01000
GRID*                135               0        -0.03000         0.05000
*               -0.01000
GRID*                136               0        -0.03000         0.05000
*               -0.03000
GRID*                137               0         0.05000        -0.03000
*                0.03000
GRID*                138               0         0.05000        -0.03000
*                0.01000
GRID*                139               0         0.05000        -0.03000
*               -0.01000
GRID*                140               0         0.05000        -0.03000
*               -0.03000
GRID*                141               0         0.05000        -0.01000
*                0.03000
GRID*                142               0         0.05000        -0.01000
*                0.01000
GRID*                143               0         0.05000        -0.01000
*               -0.01000
GRID*                144               0         0.05000        -0.01000
*               -0.03000
GRID*                145               0         0.05000         0.01000
*                0.03000
GRID*                146               0         0.05000         0.01000
*                0.01000
GRID*                147               0         0.05000         0.01000
*               -0.01000
GRID*                148               0         0.05000         0.01000
*               -0.03000
GRID*                149               0         0.05000         0.03000
*                0.03000
GRID*                150               0         0.05000         0.03000
*                0.01000
GRID*                151               0         0.05000         0.03000
*               -0.01000
GRID*                152               0         0.05000         0.03000
*               -0.03000
GRID*                153               0        -0.03000        -0.03000
*                0.03000
GRID*                154               0        -0.03000        -0.03000
*                0.01000
GRID*                155               0        -0.03000        -0.03000
*               -0.01000
GRID*                156               0        -0.03000        -0.03000
*               -0.03000
GRID*                157               0        -0.03000        -0.01000
*                0.03000
GRID*                158               0        -0.03000        -0.01000
*                0.01000
GRID*                159               0        -0.03000        -0.01000
*               -0.01000
GRID*                160               0        -0.03000        -0.01000
*               -0.03000
GRID*                161               0        -0.03000         0.01000
*                0.03000
GRID*                162               0        -0.03000         0.01000
*                0.01000
GRID*                163               0        -0.03000         0.01000
*               -0.01000
GRID*                164               0        -0.03000         0.01000
*               -0.03000
GRID*                165               0        -0.03000         0.03000
*                0.03000
GRID*                166               0        -0.03000         0.03000
*                0.01000
GRID*                167               0        -0.03000         0.03000
*               -0.01000
GRID*                168               0        -0.03000         0.03000
*               -0.03000
GRID*                169               0        -0.01000        -0.03000
*                0.03000
GRID*                170               0        -0.01000        -0.03000
*                0.01000
GRID*                171               0        -0.01000        -0.03000
*               -0.01000
GRID*                172               0        -0.01000        -0.03000
*               -0.03000
GRID*                173               0        -0.01000        -0.01000
*                0.03000
GRID*                174               0        -0.01000        -0.01000
*                0.01000
GRID*                175               0        -0.01000        -0.01000
*               -0.01000
GRID*                176               0        -0.01000        -0.01000
*               -0.03000
GRID*                177               0        -0.01000         0.01000
*                0.03000
GRID*                178               0        -0.01000         0.01000
*                0.01000
GRID*                179               0        -0.01000         0.01000
*               -0.01000
GRID*                180               0        -0.01000         0.01000
*               -0.03000
GRID*                181               0        -0.01000         0.03000
*                0.03000
GRID*                182               0        -0.01000         0.03000
*                0.01000
GRID*                183               0        -0.01000         0.03000
*               -0.01000
GRID*                184               0        -0.01000         0.03000
*               -0.03000
GRID*                185               0         0.01000        -0.03000
*                0.03000
GRID*                186               0         0.01000        -0.03000
*                0.01000
GRID*                187               0         0.01000        -0.03000
*               -0.01000
GRID*                188               0         0.01000        -0.03000
*               -0.03000
GRID*                189               0         0.01000        -0.01000
*                0.03000
GRID*                190               0         0.01000        -0.01000
*                0.01000
GRID*                191               0         0.01000        -0.01000
*               -0.01000
GRID*                192               0         0.01000        -0.01000
*               -0.03000
GRID*                193               0         0.01000         0.01000
*                0.03000
GRID*                194               0         0.01000         0.01000
*                0.01000
GRID*                195               0         0.01000         0.01000
*               -0.01000
GRID*                196               0         0.01000         0.01000
*               -0.03000
GRID*                197               0         0.01000         0.03000
*                0.03000
GRID*                198               0         0.01000         0.03000
*                0.01000
GRID*                199               0         0.01000         0.03000
*               -0.01000
GRID*                200               0         0.01000         0.03000
*               -0.03000
GRID*                201               0         0.03000        -0.03000
*                0.03000
GRID*                202               0         0.03000        -0.03000
*                0.01000
GRID*                203               0         0.03000        -0.03000
*               -0.01000
GRID*                204               0         0.03000        -0.03000
*               -0.03000
GRID*                205               0         0.03000        -0.01000
*                0.03000
GRID*                206               0         0.03000        -0.01000
*                0.01000
GRID*                207               0         0.03000        -0.01000
*               -0.01000
GRID*                208               0         0.03000        -0.01000
*               -0.03000
GRID*                209               0         0.03000         0.01000
*                0.03000
GRID*                210               0         0.03000         0.01000
*                0.01000
GRID*                211               0         0.03000         0.01000
*               -0.01000
GRID*                212               0         0.03000         0.01000
*               -0.03000
GRID*                213               0         0.03000         0.03000
*                0.03000
GRID*                214               0         0.03000         0.03000
*                0.01000
GRID*                215               0         0.03000         0.03000
*               -0.01000
GRID*                216               0         0.03000         0.03000
*               -0.03000
$
$ Element cards
$
$
$ Name: cube
$
CHEXA          1       1      12      73     113      16      17      81+
+            153      33
CHEXA          2       1      73      74     114     113      81      82+
+            154     153
CHEXA          3       1      74      75     115     114      82      83+
+            155     154
CHEXA          4       1      75      76     116     115      83      84+
+            156     155
CHEXA          5       1      76      43      49     116      84      47+
+             72     156
CHEXA          6       1      16     113     109      15      33     153+
+            157      34
CHEXA          7       1     113     114     110     109     153     154+
+            158     157
CHEXA          8       1     114     115     111     110     154     155+
+            159     158
CHEXA          9       1     115     116     112     111     155     156+
+            160     159
CHEXA         10       1     116      49      50     112     156      72+
+             71     160
CHEXA         11       1      15     109     105      14      34     157+
+            161      35
CHEXA         12       1     109     110     106     105     157     158+
+            162     161
CHEXA         13       1     110     111     107     106     158     159+
+            163     162
CHEXA         14       1     111     112     108     107     159     160+
+            164     163
CHEXA         15       1     112      50      51     108     160      71+
+             70     164
CHEXA         16       1      14     105     101      13      35     161+
+            165      36
CHEXA         17       1     105     106     102     101     161     162+
+            166     165
CHEXA         18       1     106     107     103     102     162     163+
+            167     166
CHEXA         19       1     107     108     104     103     163     164+
+            168     167
CHEXA         20       1     108      51      52     104     164      70+
+             69     168
CHEXA         21       1      13     101      97       7      36     165+
+            133      11
CHEXA         22       1     101     102      98      97     165     166+
+            134     133
CHEXA         23       1     102     103      99      98     166     167+
+            135     134
CHEXA         24       1     103     104     100      99     167     168+
+            136     135
CHEXA         25       1     104      52      48     100     168      69+
+             53     136
CHEXA         26       1      17      81     153      33      18      85+
+            169      29
CHEXA         27       1      81      82     154     153      85      86+
+            170     169
CHEXA         28       1      82      83     155     154      86      87+
+            171     170
CHEXA         29       1      83      84     156     155      87      88+
+            172     171
CHEXA         30       1      84      47      72     156      88      46+
+             68     172
CHEXA         31       1      33     153     157      34      29     169+
+            173      30
CHEXA         32       1     153     154     158     157     169     170+
+            174     173
CHEXA         33       1     154     155     159     158     170     171+
+            175     174
CHEXA         34       1     155     156     160     159     171     172+
+            176     175
CHEXA         35       1     156      72      71     160     172      68+
+             67     176
CHEXA         36       1      34     157     161      35      30     173+
+            177      31
CHEXA         37       1     157     158     162     161     173     174+
+            178     177
CHEXA         38       1     158     159     163     162     174     175+
+            179     178
CHEXA         39       1     159     160     164     163     175     176+
+            180     179
CHEXA         40       1     160      71      70     164     176      67+
+             66     180
CHEXA         41       1      35     161     165      36      31     177+
+            181      32
CHEXA         42       1     161     162     166     165     177     178+
+            182     181
CHEXA         43       1     162     163     167     166     178     179+
+            183     182
CHEXA         44       1     163     164     168     167     179     180+
+            184     183
CHEXA         45       1     164      70      69     168     180      66+
+             65     184
CHEXA         46       1      36     165     133      11      32     181+
+            129      10
CHEXA         47       1     165     166     134     133     181     182+
+            130     129
CHEXA         48       1     166     167     135     134     182     183+
+            131     130
CHEXA         49       1     167     168     136     135     183     184+
+            132     131
CHEXA         50       1     168      69      53     136     184      65+
+             54     132
CHEXA         51       1      18      85     169      29      19      89+
+            185      25
CHEXA         52       1      85      86     170     169      89      90+
+            186     185
CHEXA         53       1      86      87     171     170      90      91+
+            187     186
CHEXA         54       1      87      88     172     171      91      92+
+            188     187
CHEXA         55       1      88      46      68     172      92      45+
+             64     188
CHEXA         56       1      29     169     173      30      25     185+
+            189      26
CHEXA         57       1     169     170     174     173     185     186+
+            190     189
CHEXA         58       1     170     171     175     174     186     187+
+            191     190
CHEXA         59       1     171     172     176     175     187     188+
+            192     191
CHEXA         60       1     172      68      67     176     188      64+
+             63     192
CHEXA         61       1      30     173     177      31      26     189+
+            193      27
CHEXA         62       1     173     174     178     177     189     190+
+            194     193
CHEXA         63       1     174     175     179     178     190     191+
+            195     194
CHEXA         64       1     175     176     180     179     191     192+
+            196     195
CHEXA         65       1     176      67      66     180     192      63+
+             62     196
CHEXA         66       1      31     177     181      32      27     193+
+            197      28
CHEXA         67       1     177     178     182     181     193     194+
+            198     197
CHEXA         68       1     178     179     183     182     194     195+
+            199     198
CHEXA         69       1     179     180     184     183     195     196+
+            200     199
CHEXA         70       1     180      66      65     184     196      62+
+             61     200
CHEXA         71       1      32     181     129      10      28     197+
+            125       9
CHEXA         72       1     181     182     130     129     197     198+
+            126     125
CHEXA         73       1     182     183     131     130     198     199+
+            127     126
CHEXA         74       1     183     184     132     131     199     200+
+            128     127
CHEXA         75       1     184      65      54     132     200      61+
+             55     128
CHEXA         76       1      19      89     185      25      20      93+
+            201      21
CHEXA         77       1      89      90     186     185      93      94+
+            202     201
CHEXA         78       1      90      91     187     186      94      95+
+            203     202
CHEXA         79       1      91      92     188     187      95      96+
+            204     203
CHEXA         80       1      92      45      64     188      96      44+
+             60     204
CHEXA         81       1      25     185     189      26      21     201+
+            205      22
CHEXA         82       1     185     186     190     189     201     202+
+            206     205
CHEXA         83       1     186     187     191     190     202     203+
+            207     206
CHEXA         84       1     187     188     192     191     203     204+
+            208     207
CHEXA         85       1     188      64      63     192     204      60+
+             59     208
CHEXA         86       1      26     189     193      27      22     205+
+            209      23
CHEXA         87       1     189     190     194     193     205     206+
+            210     209
CHEXA         88       1     190     191     195     194     206     207+
+            211     210
CHEXA         89       1     191     192     196     195     207     208+
+            212     211
CHEXA         90       1     192      63      62     196     208      59+
+             58     212
CHEXA         91       1      27     193     197      28      23     209+
+            213      24
CHEXA         92       1     193     194     198     197     209     210+
+            214     213
CHEXA         93       1     194     195     199     198     210     211+
+            215     214
CHEXA         94       1     195     196     200     199     211     212+
+            216     215
CHEXA         95       1     196      62      61     200     212      58+
+             57     216
CHEXA         96       1      28     197     125       9      24     213+
+            121       8
CHEXA         97       1     197     198     126     125     213     214+
+            122     121
CHEXA         98       1     198     199     127     126     214     215+
+            123     122
CHEXA         99       1     199     200     128     127     215     216+
+            124     123
CHEXA        100       1     200      61      55     128     216      57+
+             56     124
CHEXA        101       1      20      93     201      21       1      77+
+            137       3
CHEXA        102       1      93      94     202     201      77      78+
+            138     137
CHEXA        103       1      94      95     203     202      78      79+
+            139     138
CHEXA        104       1      95      96     204     203      79      80+
+            140     139
CHEXA        105       1      96      44      60     204      80      38+
+             42     140
CHEXA        106       1      21     201     205      22       3     137+
+            141       4
CHEXA        107       1     201     202     206     205     137     138+
+            142     141
CHEXA        108       1     202     203     207     206     138     139+
+            143     142
CHEXA        109       1     203     204     208     207     139     140+
+            144     143
CHEXA        110       1     204      60      59     208     140      42+
+             41     144
CHEXA        111       1      22     205     209      23       4     141+
+            145       5
CHEXA        112       1     205     206     210     209     141     142+
+            146     145
CHEXA        113       1     206     207     211     210     142     143+
+            147     146
CHEXA        114       1     207     208     212     211     143     144+
+            148     147
CHEXA        115       1     208      59      58     212     144      41+
+             40     148
CHEXA        116       1      23     209     213      24       5     145+
+            149       6
CHEXA        117       1     209     210     214     213     145     146+
+            150     149
CHEXA        118       1     210     211     215     214     146     147+
+            151     150
CHEXA        119       1     211     212     216     215     147     148+
+            152     151
CHEXA        120       1     212      58      57     216     148      40+
+             39     152
CHEXA        121       1      24     213     121       8       6     149+
+            117       2
CHEXA        122       1     213     214     122     121     149     150+
+            118     117
CHEXA        123       1     214     215     123     122     150     151+
+            119     118
CHEXA        124       1     215     216     124     123     151     152+
+            120     119
CHEXA        125       1     216      57      56     124     152      39+
+             37     120
$
$ Property cards
$
$
$ Name: cube
PSOLID    1       1      
$
ENDDATA
