$MeshFormat
2.2 0 8
$EndMeshFormat
$PhysicalNames
2
3 1 "solid"
2 2 "boundary"
$EndPhysicalNames
$Nodes
133
1 1.0 -1.0 1.0
2 1.0 1.0 1.0
3 -1.0 1.0 1.0
4 -1.0 -1.0 1.0
5 1.0 1.0 -1.0
6 1.0 -1.0 -1.0
7 -1.0 -1.0 -1.0
8 -1.0 1.0 -1.0
9 1.0 -0.5 1.0
10 1.0 0.0 1.0
11 1.0 0.5 1.0
12 0.5 1.0 1.0
13 0.0 1.0 1.0
14 -0.5 1.0 1.0
15 -1.0 0.5 1.0
16 -1.0 0.0 1.0
17 -1.0 -0.5 1.0
18 -0.5 -1.0 1.0
19 0.0 -1.0 1.0
20 0.5 -1.0 1.0
21 -0.27482749219021296 0.5334135721989912 1.0
22 0.5445724396075895 0.1973851359991574 1.0
23 0.5502501973488116 -0.3049161759421868 1.0
24 0.27773425776743155 0.5306337600799873 1.0
25 -0.5452272832192719 0.19648831143329426 1.0
26 -0.5498844819953552 -0.3057050206326184 1.0
27 -0.22883987719276266 -0.5705709153128224 1.0
28 0.22965961844091742 -0.5693948903282615 1.0
29 2.2101577287880758e-05 -0.042733800711918235 1.0
30 1.0 0.5 -1.0
31 1.0 0.0 -1.0
32 1.0 -0.5 -1.0
33 0.5 -1.0 -1.0
34 0.0 -1.0 -1.0
35 -0.5 -1.0 -1.0
36 -1.0 -0.5 -1.0
37 -1.0 0.0 -1.0
38 -1.0 0.5 -1.0
39 -0.5 1.0 -1.0
40 0.0 1.0 -1.0
41 0.5 1.0 -1.0
42 0.5412248579891528 -0.28688609457511394 -1.0
43 0.5534883423933818 0.21568293302204022 -1.0
44 0.22080736135639611 -0.5350815064830774 -1.0
45 -0.22442905590465423 -0.5340802351517744 -1.0
46 -0.5418913686484246 -0.2866191989013156 -1.0
47 -0.5535142509985373 0.2157817302062761 -1.0
48 -0.2885415445995745 0.5604183711598423 -1.0
49 0.2872640421653876 0.561010771467203 -1.0
50 -0.00027822792760545667 0.03635874164301578 -1.0
51 -1.0 -1.0 0.5
52 -1.0 -1.0 0.0
53 -1.0 -1.0 -0.5
54 1.0 -1.0 -0.5
55 1.0 -1.0 0.0
56 1.0 -1.0 0.5
57 0.5439457531936704 -1.0 -0.27125225033612943
58 -0.5457045351981828 -1.0 -0.21249365198618309
59 -0.559497284504433 -1.0 0.23930263728741874
60 -0.29245931494957156 -1.0 -0.5306697524905697
61 0.20015585532644709 -1.0 -0.5318959150904929
62 0.5505407579107722 -1.0 0.28869432842165565
63 0.21378923325123722 -1.0 0.5676830225691822
64 -0.3017716724511581 -1.0 0.5608104154606801
65 -0.003619682488522624 -1.0 0.04016403110030442
66 -1.0 1.0 0.5
67 -1.0 1.0 0.0
68 -1.0 1.0 -0.5
69 -1.0 -0.2928440880759029 -0.5299136410958498
70 -1.0 0.5440144658475385 -0.27130804964794075
71 -1.0 0.5513757526474956 0.2878678267655872
72 -1.0 0.20025016202075374 -0.5319880841779896
73 -1.0 -0.5464306284087015 -0.19484012191725864
74 -1.0 -0.5499083006278072 0.3058709822736969
75 -1.0 -0.22859514906456213 0.5704239188908595
76 -1.0 0.2338638976130043 0.568624678567865
77 -1.0 -0.0011994118738170023 0.04083490490078079
78 1.0 1.0 0.5
79 1.0 1.0 0.0
80 1.0 1.0 -0.5
81 -0.2923014769412673 1.0 -0.5305454416137407
82 0.5439418339226934 1.0 -0.2712407719485248
83 0.5503538250007347 1.0 0.28889239200653427
84 0.20023145323665226 1.0 -0.5319151626063898
85 -0.5471385930717152 1.0 -0.21072269106372765
86 -0.5594701676138587 1.0 0.2396771146672496
87 -0.3006626775606016 1.0 0.5607942237391481
88 0.21163703309012583 1.0 0.5675496336886658
89 -0.003765937306107414 1.0 0.04001951928322667
90 1.0 0.5444097046979777 -0.27090659862472943
91 1.0 -0.5413661309184392 -0.2870025987195257
92 1.0 -0.5541540441240029 0.2146630759371786
93 1.0 -0.22103484341215363 -0.5351194202815368
94 1.0 0.22333703628104562 -0.5350612448694112
95 1.0 0.5506195258321007 0.288731636874048
96 1.0 0.2135244886554739 0.5674188155698974
97 1.0 -0.30356505564225644 0.558906519441162
98 1.0 -0.001210552050871616 0.03694139696746124
99 0.6018841337378746 0.5918241718116772 0.6251706581451404
100 0.2686080357942169 0.23024965379694518 0.5587364980345066
101 0.7067137945637949 -0.030754507364950445 0.5681427533737766
102 0.2622045486788842 -0.32089444452846205 0.5477445629046107
103 -0.1746687208262192 0.22529374797399804 0.5448185533266279
104 0.001528791458001777 0.7046989870482392 0.5458498067511277
105 -0.5789133925392158 0.5652772261573511 0.5797546572608501
106 0.5969503470444124 -0.6166044506788637 0.6077991491742161
107 -0.2275686827388128 -0.31539789399293383 0.6262508305311814
108 0.02123633936795377 -0.6689398045100594 0.5162698589016381
109 -0.648127980897764 -0.6171038582369284 0.6345682429684447
110 0.4071804681653721 -0.624349796116975 0.05457601675563151
111 -0.5035471551554482 -0.5792717625734234 0.12892462560008733
112 -0.02677952272768236 -0.5486278493549368 -0.35196059113745726
113 0.5576852741052352 -0.5780953081111466 -0.5712329885364502
114 -0.5766992473173151 -0.5735474847160069 -0.5319704626049369
115 0.5617015794401921 0.5434089519219847 -0.5372137683205098
116 0.3815050058846068 -0.006804906148292211 -0.5504390883198766
117 -0.0037871826659197083 0.4393926336828038 -0.5620055633782881
118 -0.3618116235021702 0.010887732279106555 -0.5553516767486055
119 -0.5686899142289663 0.5702177549003111 -0.5630914949396573
120 -0.5350708298866498 0.37444412720765374 0.019165456976196982
121 -0.5669768926611316 0.0013549131436785267 0.42133637035034477
122 -0.22440148835449758 0.6002349552725352 0.2601100029539496
123 0.18171838687164232 0.5251553350853002 0.22401510561882843
124 -0.19141961784512285 0.6046959380251691 -0.16454734439836738
125 0.6763591973864544 0.46231291630126625 0.07855456052073517
126 0.2412221636570253 0.5362874122249215 -0.26252855599909
127 0.5465162269734809 -0.25108715027783335 -0.27248667928625947
128 0.5695190326988779 -0.21423633999031244 0.25460011604760746
129 0.02287361711992153 0.05282129610122688 0.06988239348891634
130 0.5123307487638122 0.16121685825111065 -0.0308740672329173
131 -0.5368126158144446 -0.15903659766351286 -0.1487372059790939
132 -0.11011012289262423 -0.40651138134508313 0.17577687405206843
133 -0.0010751113437663662 -0.2643739474001201 -0.7304598804820168
$EndNodes
$Elements
622
1 4 2 1 1 109 18 17 4
2 4 2 1 1 99 24 11 12
3 4 2 1 1 24 88 13 12
4 4 2 1 1 103 29 21 25
5 4 2 1 1 104 24 13 21
6 4 2 1 1 102 29 28 23
7 4 2 1 1 106 28 20 23
8 4 2 1 1 108 19 27 64
9 4 2 1 1 100 21 29 24
10 4 2 1 1 102 29 23 22
11 4 2 1 1 107 64 27 109
12 4 2 1 1 10 96 22 11
13 4 2 1 1 116 115 94 43
14 4 2 1 1 105 15 25 21
15 4 2 1 1 115 94 43 30
16 4 2 1 1 14 87 13 21
17 4 2 1 1 113 33 42 32
18 4 2 1 1 45 60 35 34
19 4 2 1 1 61 45 60 112
20 4 2 1 1 114 36 46 35
21 4 2 1 1 118 47 46 37
22 4 2 1 1 47 72 38 37
23 4 2 1 1 39 81 48 40
24 4 2 1 1 117 49 48 40
25 4 2 1 1 119 39 48 38
26 4 2 1 1 31 93 42 32
27 4 2 1 1 112 61 65 60
28 4 2 1 1 111 59 58 65
29 4 2 1 1 106 63 20 28
30 4 2 1 1 107 27 28 29
31 4 2 1 1 111 59 52 58
32 4 2 1 1 119 70 68 38
33 4 2 1 1 112 65 58 60
34 4 2 1 1 114 53 35 60
35 4 2 1 1 118 69 37 46
36 4 2 1 1 59 51 74 52
37 4 2 1 1 109 18 26 17
38 4 2 1 1 109 75 74 17
39 4 2 1 1 105 14 21 87
40 4 2 1 1 122 89 86 87
41 4 2 1 1 49 84 41 40
42 4 2 1 1 85 70 67 68
43 4 2 1 1 90 82 79 80
44 4 2 1 1 91 55 57 54
45 4 2 1 1 113 93 32 42
46 4 2 1 1 31 94 30 43
47 4 2 1 1 117 81 40 48
48 4 2 1 1 86 71 66 67
49 4 2 1 1 99 2 12 11
50 4 2 1 1 104 87 21 13
51 4 2 1 1 105 104 87 21
52 4 2 1 1 110 57 62 65
53 4 2 1 1 115 49 41 30
54 4 2 1 1 115 82 80 41
55 4 2 1 1 99 24 12 88
56 4 2 1 1 95 83 78 79
57 4 2 1 1 16 15 25 76
58 4 2 1 1 105 71 15 66
59 4 2 1 1 105 71 76 15
60 4 2 1 1 105 66 14 87
61 4 2 1 1 101 10 22 23
62 4 2 1 1 106 9 23 20
63 4 2 1 1 106 1 20 56
64 4 2 1 1 97 9 10 23
65 4 2 1 1 83 89 104 88
66 4 2 1 1 99 96 11 22
67 4 2 1 1 109 27 18 64
68 4 2 1 1 111 59 65 64
69 4 2 1 1 121 16 25 76
70 4 2 1 1 109 51 64 18
71 4 2 1 1 19 27 64 18
72 4 2 1 1 108 63 64 65
73 4 2 1 1 113 57 33 54
74 4 2 1 1 116 31 42 43
75 4 2 1 1 116 31 94 93
76 4 2 1 1 36 69 46 37
77 4 2 1 1 114 53 69 36
78 4 2 1 1 73 53 58 52
79 4 2 1 1 114 45 35 46
80 4 2 1 1 119 39 81 48
81 4 2 1 1 119 47 38 48
82 4 2 1 1 116 50 49 43
83 4 2 1 1 114 118 46 69
84 4 2 1 1 113 33 44 42
85 4 2 1 1 113 127 91 93
86 4 2 1 1 61 33 34 44
87 4 2 1 1 55 92 62 56
88 4 2 1 1 114 53 60 58
89 4 2 1 1 109 51 17 74
90 4 2 1 1 109 59 51 74
91 4 2 1 1 113 61 44 33
92 4 2 1 1 61 45 44 34
93 4 2 1 1 133 44 45 50
94 4 2 1 1 110 55 92 62
95 4 2 1 1 63 19 20 28
96 4 2 1 1 108 19 28 27
97 4 2 1 1 110 63 65 62
98 4 2 1 1 114 73 53 58
99 4 2 1 1 111 59 74 52
100 4 2 1 1 131 72 69 77
101 4 2 1 1 120 86 67 71
102 4 2 1 1 119 117 48 81
103 4 2 1 1 119 47 72 38
104 4 2 1 1 119 118 72 47
105 4 2 1 1 120 71 67 70
106 4 2 1 1 120 77 71 70
107 4 2 1 1 105 103 21 25
108 4 2 1 1 121 77 76 71
109 4 2 1 1 75 26 16 17
110 4 2 1 1 121 26 25 16
111 4 2 1 1 107 26 29 25
112 4 2 1 1 121 105 76 25
113 4 2 1 1 121 109 26 75
114 4 2 1 1 109 111 59 74
115 4 2 1 1 114 111 73 58
116 4 2 1 1 124 89 84 81
117 4 2 1 1 119 85 81 68
118 4 2 1 1 120 77 70 72
119 4 2 1 1 124 89 85 86
120 4 2 1 1 125 95 79 83
121 4 2 1 1 115 49 84 41
122 4 2 1 1 115 90 30 80
123 4 2 1 1 115 90 94 30
124 4 2 1 1 99 95 11 96
125 4 2 1 1 125 83 79 82
126 4 2 1 1 126 89 83 82
127 4 2 1 1 99 95 78 11
128 4 2 1 1 100 24 29 22
129 4 2 1 1 99 83 12 78
130 4 2 1 1 105 86 66 87
131 4 2 1 1 29 21 100 103
132 4 2 1 1 127 98 93 94
133 4 2 1 1 126 89 82 84
134 4 2 1 1 115 90 80 82
135 4 2 1 1 110 91 55 57
136 4 2 1 1 110 61 57 65
137 4 2 1 1 113 91 54 32
138 4 2 1 1 101 102 23 22
139 4 2 1 1 123 122 104 89
140 4 2 1 1 126 125 82 83
141 4 2 1 1 125 98 94 90
142 4 2 1 1 106 92 56 62
143 4 2 1 1 106 97 9 56
144 4 2 1 1 101 10 96 22
145 4 2 1 1 106 62 56 20
146 4 2 1 1 125 95 98 90
147 4 2 1 1 99 95 83 78
148 4 2 1 1 125 115 82 90
149 4 2 1 1 125 95 96 98
150 4 2 1 1 99 83 88 12
151 4 2 1 1 99 24 22 11
152 4 2 1 1 99 78 2 11
153 4 2 1 1 99 78 12 2
154 4 2 1 1 121 77 75 76
155 4 2 1 1 100 99 24 22
156 4 2 1 1 104 99 88 24
157 4 2 1 1 104 89 87 88
158 4 2 1 1 132 108 102 107
159 4 2 1 1 121 77 74 75
160 4 2 1 1 101 99 22 96
161 4 2 1 1 107 27 29 26
162 4 2 1 1 124 89 81 85
163 4 2 1 1 128 97 92 98
164 4 2 1 1 108 107 27 28
165 4 2 1 1 122 105 87 86
166 4 2 1 1 104 88 87 13
167 4 2 1 1 104 89 83 123
168 4 2 1 1 104 24 88 13
169 4 2 1 1 106 110 92 62
170 4 2 1 1 106 63 62 20
171 4 2 1 1 100 102 22 29
172 4 2 1 1 107 102 103 29
173 4 2 1 1 127 98 92 91
174 4 2 1 1 101 97 98 96
175 4 2 1 1 127 98 91 93
176 4 2 1 1 100 101 22 102
177 4 2 1 1 116 50 42 44
178 4 2 1 1 108 107 28 102
179 4 2 1 1 107 102 29 28
180 4 2 1 1 107 103 25 29
181 4 2 1 1 121 107 25 26
182 4 2 1 1 129 107 102 103
183 4 2 1 1 111 77 73 74
184 4 2 1 1 131 69 73 77
185 4 2 1 1 118 50 45 46
186 4 2 1 1 105 15 76 25
187 4 2 1 1 121 105 25 103
188 4 2 1 1 105 104 21 103
189 4 2 1 1 105 14 15 21
190 4 2 1 1 122 105 103 104
191 4 2 1 1 105 86 71 66
192 4 2 1 1 120 119 85 124
193 4 2 1 1 14 66 15 3
194 4 2 1 1 15 66 14 105
195 4 2 1 1 115 49 30 43
196 4 2 1 1 117 50 48 49
197 4 2 1 1 116 50 43 42
198 4 2 1 1 115 82 41 84
199 4 2 1 1 41 80 30 5
200 4 2 1 1 30 80 41 115
201 4 2 1 1 112 61 45 44
202 4 2 1 1 60 45 61 34
203 4 2 1 1 114 112 60 45
204 4 2 1 1 129 100 103 102
205 4 2 1 1 118 50 46 47
206 4 2 1 1 111 73 52 74
207 4 2 1 1 111 73 58 52
208 4 2 1 1 111 112 65 58
209 4 2 1 1 108 111 65 64
210 4 2 1 1 109 111 64 59
211 4 2 1 1 132 111 112 65
212 4 2 1 1 132 129 110 112
213 4 2 1 1 121 109 75 74
214 4 2 1 1 114 112 58 60
215 4 2 1 1 131 114 112 111
216 4 2 1 1 113 116 42 44
217 4 2 1 1 45 44 133 112
218 4 2 1 1 116 115 43 49
219 4 2 1 1 116 31 93 42
220 4 2 1 1 133 45 118 50
221 4 2 1 1 113 110 91 127
222 4 2 1 1 125 94 130 115
223 4 2 1 1 116 31 43 94
224 4 2 1 1 117 115 84 126
225 4 2 1 1 126 117 115 116
226 4 2 1 1 118 50 47 48
227 4 2 1 1 118 47 37 72
228 4 2 1 1 118 72 37 69
229 4 2 1 1 114 118 45 46
230 4 2 1 1 118 45 133 112
231 4 2 1 1 119 118 47 48
232 4 2 1 1 117 116 50 49
233 4 2 1 1 121 120 105 103
234 4 2 1 1 111 73 131 114
235 4 2 1 1 109 107 26 27
236 4 2 1 1 109 27 26 18
237 4 2 1 1 109 59 64 51
238 4 2 1 1 109 111 107 64
239 4 2 1 1 109 75 17 26
240 4 2 1 1 121 109 111 107
241 4 2 1 1 109 51 4 17
242 4 2 1 1 109 51 18 4
243 4 2 1 1 120 105 86 71
244 4 2 1 1 122 104 89 87
245 4 2 1 1 122 105 104 87
246 4 2 1 1 86 105 120 122
247 4 2 1 1 126 115 84 82
248 4 2 1 1 117 116 49 115
249 4 2 1 1 118 116 50 117
250 4 2 1 1 124 123 89 122
251 4 2 1 1 117 84 40 81
252 4 2 1 1 119 117 118 48
253 4 2 1 1 129 124 117 118
254 4 2 1 1 118 116 112 133
255 4 2 1 1 117 49 40 84
256 4 2 1 1 117 118 48 50
257 4 2 1 1 124 119 117 118
258 4 2 1 1 110 55 62 57
259 4 2 1 1 110 91 92 55
260 4 2 1 1 128 106 92 97
261 4 2 1 1 110 112 61 65
262 4 2 1 1 113 61 110 112
263 4 2 1 1 106 110 62 63
264 4 2 1 1 108 110 63 65
265 4 2 1 1 129 127 112 116
266 4 2 1 1 132 108 107 111
267 4 2 1 1 101 97 96 10
268 4 2 1 1 106 101 23 97
269 4 2 1 1 101 97 10 23
270 4 2 1 1 125 99 96 95
271 4 2 1 1 100 99 104 24
272 4 2 1 1 128 106 102 110
273 4 2 1 1 123 122 103 104
274 4 2 1 1 106 101 102 23
275 4 2 1 1 106 97 23 9
276 4 2 1 1 106 102 28 23
277 4 2 1 1 106 97 56 92
278 4 2 1 1 108 106 28 63
279 4 2 1 1 108 106 110 102
280 4 2 1 1 128 106 110 92
281 4 2 1 1 106 1 9 20
282 4 2 1 1 106 1 56 9
283 4 2 1 1 129 123 122 103
284 4 2 1 1 100 125 99 101
285 4 2 1 1 100 101 99 22
286 4 2 1 1 126 125 115 82
287 4 2 1 1 100 102 29 103
288 4 2 1 1 99 104 83 123
289 4 2 1 1 83 104 99 88
290 4 2 1 1 125 99 95 83
291 4 2 1 1 127 116 94 93
292 4 2 1 1 130 94 116 115
293 4 2 1 1 127 110 91 92
294 4 2 1 1 128 127 98 92
295 4 2 1 1 113 116 93 42
296 4 2 1 1 129 110 102 132
297 4 2 1 1 128 100 102 101
298 4 2 1 1 113 116 44 112
299 4 2 1 1 110 61 113 57
300 4 2 1 1 113 112 44 61
301 4 2 1 1 119 70 38 72
302 4 2 1 1 69 72 131 118
303 4 2 1 1 119 39 68 81
304 4 2 1 1 119 85 68 70
305 4 2 1 1 68 39 38 8
306 4 2 1 1 38 39 68 119
307 4 2 1 1 114 111 58 112
308 4 2 1 1 114 45 60 35
309 4 2 1 1 114 36 69 46
310 4 2 1 1 114 118 112 45
311 4 2 1 1 114 73 69 53
312 4 2 1 1 131 73 111 77
313 4 2 1 1 36 53 35 114
314 4 2 1 1 35 53 36 7
315 4 2 1 1 113 61 33 57
316 4 2 1 1 113 127 116 112
317 4 2 1 1 113 127 93 116
318 4 2 1 1 113 91 57 54
319 4 2 1 1 113 91 32 93
320 4 2 1 1 91 110 113 57
321 4 2 1 1 113 127 112 110
322 4 2 1 1 54 33 32 6
323 4 2 1 1 32 33 54 113
324 4 2 1 1 108 63 19 64
325 4 2 1 1 27 64 107 108
326 4 2 1 1 108 63 28 19
327 4 2 1 1 108 111 64 107
328 4 2 1 1 132 108 111 65
329 4 2 1 1 108 106 102 28
330 4 2 1 1 108 106 63 110
331 4 2 1 1 120 72 118 131
332 4 2 1 1 120 122 105 103
333 4 2 1 1 120 119 72 70
334 4 2 1 1 131 121 120 77
335 4 2 1 1 129 107 121 132
336 4 2 1 1 131 132 111 112
337 4 2 1 1 124 119 85 81
338 4 2 1 1 124 119 81 117
339 4 2 1 1 121 105 71 76
340 4 2 1 1 120 85 70 67
341 4 2 1 1 124 120 86 85
342 4 2 1 1 120 86 85 67
343 4 2 1 1 121 77 111 74
344 4 2 1 1 121 109 107 26
345 4 2 1 1 121 107 103 25
346 4 2 1 1 121 109 74 111
347 4 2 1 1 121 75 26 16
348 4 2 1 1 121 75 16 76
349 4 2 1 1 121 120 77 71
350 4 2 1 1 121 120 71 105
351 4 2 1 1 125 95 90 79
352 4 2 1 1 125 123 99 83
353 4 2 1 1 125 90 82 79
354 4 2 1 1 125 101 96 99
355 4 2 1 1 125 115 90 94
356 4 2 1 1 130 94 125 98
357 4 2 1 1 125 101 98 96
358 4 2 1 1 104 99 100 123
359 4 2 1 1 100 123 103 104
360 4 2 1 1 100 125 123 99
361 4 2 1 1 100 104 21 24
362 4 2 1 1 100 104 103 21
363 4 2 1 1 129 127 110 112
364 4 2 1 1 130 125 101 98
365 4 2 1 1 130 128 127 98
366 4 2 1 1 129 100 123 103
367 4 2 1 1 124 117 81 84
368 4 2 1 1 126 124 89 84
369 4 2 1 1 124 122 89 86
370 4 2 1 1 124 120 122 86
371 4 2 1 1 126 124 123 89
372 4 2 1 1 129 120 103 122
373 4 2 1 1 85 119 120 70
374 4 2 1 1 124 120 119 118
375 4 2 1 1 126 125 83 123
376 4 2 1 1 126 123 83 89
377 4 2 1 1 130 126 115 116
378 4 2 1 1 126 124 84 117
379 4 2 1 1 84 115 117 49
380 4 2 1 1 129 124 122 123
381 4 2 1 1 129 117 116 118
382 4 2 1 1 129 120 118 131
383 4 2 1 1 128 127 92 110
384 4 2 1 1 128 101 97 98
385 4 2 1 1 128 106 97 101
386 4 2 1 1 128 106 101 102
387 4 2 1 1 130 100 101 125
388 4 2 1 1 130 100 125 123
389 4 2 1 1 132 129 107 102
390 4 2 1 1 130 129 116 127
391 4 2 1 1 132 121 111 107
392 4 2 1 1 129 121 103 120
393 4 2 1 1 129 124 120 122
394 4 2 1 1 129 128 100 102
395 4 2 1 1 129 126 124 123
396 4 2 1 1 129 126 117 124
397 4 2 1 1 129 126 116 117
398 4 2 1 1 130 126 123 125
399 4 2 1 1 130 129 128 100
400 4 2 1 1 128 129 127 110
401 4 2 1 1 127 129 128 130
402 4 2 1 1 130 128 98 101
403 4 2 1 1 130 129 123 126
404 4 2 1 1 130 128 101 100
405 4 2 1 1 130 129 100 123
406 4 2 1 1 130 127 94 98
407 4 2 1 1 116 94 130 127
408 4 2 1 1 130 126 125 115
409 4 2 1 1 116 126 129 130
410 4 2 1 1 132 108 110 102
411 4 2 1 1 132 108 65 110
412 4 2 1 1 121 107 129 103
413 4 2 1 1 131 129 120 121
414 4 2 1 1 132 110 65 112
415 4 2 1 1 131 129 112 118
416 4 2 1 1 102 110 129 128
417 4 2 1 1 133 116 44 50
418 4 2 1 1 133 116 112 44
419 4 2 1 1 112 116 118 129
420 4 2 1 1 50 116 118 133
421 4 2 1 1 131 120 72 77
422 4 2 1 1 131 114 118 112
423 4 2 1 1 73 69 131 114
424 4 2 1 1 131 114 69 118
425 4 2 1 1 111 77 121 131
426 4 2 1 1 118 72 120 119
427 4 2 1 1 111 121 132 131
428 4 2 1 1 131 132 129 121
429 4 2 1 1 131 132 112 129
430 4 2 1 1 118 120 129 124
431 2 2 2 2 11 2 12
432 2 2 2 2 15 21 14
433 2 2 2 2 11 22 10
434 2 2 2 2 23 9 10
435 2 2 2 2 13 24 12
436 2 2 2 2 20 1 9
437 2 2 2 2 3 15 14
438 2 2 2 2 16 25 15
439 2 2 2 2 26 25 16
440 2 2 2 2 4 18 17
441 2 2 2 2 26 18 27
442 2 2 2 2 20 28 19
443 2 2 2 2 29 23 22
444 2 2 2 2 11 12 24
445 2 2 2 2 21 13 14
446 2 2 2 2 24 13 21
447 2 2 2 2 20 23 28
448 2 2 2 2 23 10 22
449 2 2 2 2 28 27 19
450 2 2 2 2 24 29 22
451 2 2 2 2 11 24 22
452 2 2 2 2 15 25 21
453 2 2 2 2 29 24 21
454 2 2 2 2 26 17 18
455 2 2 2 2 26 16 17
456 2 2 2 2 27 18 19
457 2 2 2 2 29 25 26
458 2 2 2 2 23 29 28
459 2 2 2 2 29 26 27
460 2 2 2 2 29 21 25
461 2 2 2 2 29 27 28
462 2 2 2 2 20 9 23
463 2 2 2 2 44 42 33
464 2 2 2 2 32 6 33
465 2 2 2 2 30 31 43
466 2 2 2 2 5 30 41
467 2 2 2 2 42 32 33
468 2 2 2 2 36 35 7
469 2 2 2 2 34 35 45
470 2 2 2 2 45 35 46
471 2 2 2 2 39 38 8
472 2 2 2 2 37 38 47
473 2 2 2 2 39 48 38
474 2 2 2 2 49 40 41
475 2 2 2 2 31 32 42
476 2 2 2 2 49 41 30
477 2 2 2 2 31 42 43
478 2 2 2 2 42 44 50
479 2 2 2 2 33 34 44
480 2 2 2 2 45 46 50
481 2 2 2 2 35 36 46
482 2 2 2 2 44 34 45
483 2 2 2 2 40 49 48
484 2 2 2 2 36 37 46
485 2 2 2 2 39 40 48
486 2 2 2 2 46 37 47
487 2 2 2 2 50 46 47
488 2 2 2 2 50 47 48
489 2 2 2 2 48 47 38
490 2 2 2 2 43 49 30
491 2 2 2 2 50 49 43
492 2 2 2 2 43 42 50
493 2 2 2 2 48 49 50
494 2 2 2 2 44 45 50
495 2 2 2 2 54 57 33
496 2 2 2 2 58 53 60
497 2 2 2 2 35 53 7
498 2 2 2 2 51 52 59
499 2 2 2 2 65 58 60
500 2 2 2 2 4 51 18
501 2 2 2 2 54 33 6
502 2 2 2 2 60 34 61
503 2 2 2 2 34 33 61
504 2 2 2 2 53 35 60
505 2 2 2 2 20 56 1
506 2 2 2 2 55 56 62
507 2 2 2 2 63 20 19
508 2 2 2 2 18 51 64
509 2 2 2 2 54 55 57
510 2 2 2 2 62 56 20
511 2 2 2 2 52 53 58
512 2 2 2 2 19 18 64
513 2 2 2 2 52 58 59
514 2 2 2 2 57 62 65
515 2 2 2 2 35 34 60
516 2 2 2 2 57 65 61
517 2 2 2 2 65 60 61
518 2 2 2 2 57 61 33
519 2 2 2 2 57 55 62
520 2 2 2 2 19 64 63
521 2 2 2 2 65 62 63
522 2 2 2 2 63 62 20
523 2 2 2 2 59 65 64
524 2 2 2 2 51 59 64
525 2 2 2 2 63 64 65
526 2 2 2 2 59 58 65
527 2 2 2 2 73 69 53
528 2 2 2 2 70 68 38
529 2 2 2 2 38 68 8
530 2 2 2 2 66 67 71
531 2 2 2 2 69 72 37
532 2 2 2 2 3 66 15
533 2 2 2 2 53 36 7
534 2 2 2 2 73 53 52
535 2 2 2 2 17 75 74
536 2 2 2 2 17 51 4
537 2 2 2 2 77 70 72
538 2 2 2 2 51 17 74
539 2 2 2 2 76 15 71
540 2 2 2 2 75 16 76
541 2 2 2 2 67 68 70
542 2 2 2 2 37 36 69
543 2 2 2 2 38 37 72
544 2 2 2 2 16 15 76
545 2 2 2 2 67 70 71
546 2 2 2 2 69 36 53
547 2 2 2 2 72 70 38
548 2 2 2 2 73 77 69
549 2 2 2 2 71 70 77
550 2 2 2 2 52 51 74
551 2 2 2 2 73 52 74
552 2 2 2 2 17 16 75
553 2 2 2 2 73 74 77
554 2 2 2 2 15 66 71
555 2 2 2 2 74 75 77
556 2 2 2 2 72 69 77
557 2 2 2 2 76 71 77
558 2 2 2 2 75 76 77
559 2 2 2 2 85 81 68
560 2 2 2 2 82 80 41
561 2 2 2 2 41 80 5
562 2 2 2 2 78 79 83
563 2 2 2 2 81 84 40
564 2 2 2 2 2 78 12
565 2 2 2 2 68 39 8
566 2 2 2 2 85 68 67
567 2 2 2 2 86 66 87
568 2 2 2 2 14 66 3
569 2 2 2 2 89 82 84
570 2 2 2 2 66 14 87
571 2 2 2 2 88 12 83
572 2 2 2 2 87 13 88
573 2 2 2 2 79 80 82
574 2 2 2 2 40 39 81
575 2 2 2 2 41 40 84
576 2 2 2 2 13 12 88
577 2 2 2 2 79 82 83
578 2 2 2 2 81 39 68
579 2 2 2 2 84 82 41
580 2 2 2 2 85 89 81
581 2 2 2 2 83 82 89
582 2 2 2 2 67 66 86
583 2 2 2 2 85 67 86
584 2 2 2 2 14 13 87
585 2 2 2 2 85 86 89
586 2 2 2 2 12 78 83
587 2 2 2 2 86 87 89
588 2 2 2 2 84 81 89
589 2 2 2 2 88 83 89
590 2 2 2 2 87 88 89
591 2 2 2 2 80 90 30
592 2 2 2 2 32 93 91
593 2 2 2 2 32 54 6
594 2 2 2 2 56 55 92
595 2 2 2 2 98 91 93
596 2 2 2 2 1 56 9
597 2 2 2 2 80 30 5
598 2 2 2 2 93 31 94
599 2 2 2 2 31 30 94
600 2 2 2 2 54 32 91
601 2 2 2 2 11 78 2
602 2 2 2 2 79 78 95
603 2 2 2 2 96 11 10
604 2 2 2 2 9 56 97
605 2 2 2 2 80 79 90
606 2 2 2 2 95 78 11
607 2 2 2 2 55 54 91
608 2 2 2 2 10 9 97
609 2 2 2 2 55 91 92
610 2 2 2 2 90 95 98
611 2 2 2 2 32 31 93
612 2 2 2 2 90 98 94
613 2 2 2 2 98 93 94
614 2 2 2 2 90 94 30
615 2 2 2 2 90 79 95
616 2 2 2 2 10 97 96
617 2 2 2 2 98 95 96
618 2 2 2 2 96 95 11
619 2 2 2 2 92 98 97
620 2 2 2 2 56 92 97
621 2 2 2 2 96 97 98
622 2 2 2 2 92 91 98
$EndElements
