$MeshFormat
4.1 0 8
$EndMeshFormat
$PhysicalNames
2
3 1 "solid"
2 2 "boundary"
$EndPhysicalNames
$Entities
0 0 6 1
1 -1.0 -1.0 1.0 1.0 1.0 1.0 1 2 4 1 2 3 4
2 -1.0 -1.0 -1.0 1.0 1.0 -1.0 1 2 4 5 6 7 8
3 -1.0 -1.0 -1.0 1.0 -1.0 1.0 1 2 4 9 6 10 4
4 -1.0 -1.0 -1.0 -1.0 1.0 1.0 1 2 4 11 7 9 3
5 -1.0 1.0 -1.0 1.0 1.0 1.0 1 2 4 12 8 11 2
6 1.0 -1.0 -1.0 1.0 1.0 1.0 1 2 4 10 5 12 1
1 0 0 0 0 0 0 1 1 0
$EndEntities
$Nodes
1 133 1 133
3 1 0 133
1
2
3
4
5
6
7
8
9
10
11
12
13
14
15
16
17
18
19
20
21
22
23
24
25
26
27
28
29
30
31
32
33
34
35
36
37
38
39
40
41
42
43
44
45
46
47
48
49
50
51
52
53
54
55
56
57
58
59
60
61
62
63
64
65
66
67
68
69
70
71
72
73
74
75
76
77
78
79
80
81
82
83
84
85
86
87
88
89
90
91
92
93
94
95
96
97
98
99
100
101
102
103
104
105
106
107
108
109
110
111
112
113
114
115
116
117
118
119
120
121
122
123
124
125
126
127
128
129
130
131
132
133
1.0 -1.0 1.0
1.0 1.0 1.0
-1.0 1.0 1.0
-1.0 -1.0 1.0
1.0 1.0 -1.0
1.0 -1.0 -1.0
-1.0 -1.0 -1.0
-1.0 1.0 -1.0
1.0 -0.5 1.0
1.0 0.0 1.0
1.0 0.5 1.0
0.5 1.0 1.0
0.0 1.0 1.0
-0.5 1.0 1.0
-1.0 0.5 1.0
-1.0 0.0 1.0
-1.0 -0.5 1.0
-0.5 -1.0 1.0
0.0 -1.0 1.0
0.5 -1.0 1.0
-0.27482749219021296 0.5334135721989912 1.0
0.5445724396075895 0.1973851359991574 1.0
0.5502501973488116 -0.3049161759421868 1.0
0.27773425776743155 0.5306337600799873 1.0
-0.5452272832192719 0.19648831143329426 1.0
-0.5498844819953552 -0.3057050206326184 1.0
-0.22883987719276266 -0.5705709153128224 1.0
0.22965961844091742 -0.5693948903282615 1.0
2.2101577287880758e-05 -0.042733800711918235 1.0
1.0 0.5 -1.0
1.0 0.0 -1.0
1.0 -0.5 -1.0
0.5 -1.0 -1.0
0.0 -1.0 -1.0
-0.5 -1.0 -1.0
-1.0 -0.5 -1.0
-1.0 0.0 -1.0
-1.0 0.5 -1.0
-0.5 1.0 -1.0
0.0 1.0 -1.0
0.5 1.0 -1.0
0.5412248579891528 -0.28688609457511394 -1.0
0.5534883423933818 0.21568293302204022 -1.0
0.22080736135639611 -0.5350815064830774 -1.0
-0.22442905590465423 -0.5340802351517744 -1.0
-0.5418913686484246 -0.2866191989013156 -1.0
-0.5535142509985373 0.2157817302062761 -1.0
-0.2885415445995745 0.5604183711598423 -1.0
0.2872640421653876 0.561010771467203 -1.0
-0.00027822792760545667 0.03635874164301578 -1.0
-1.0 -1.0 0.5
-1.0 -1.0 0.0
-1.0 -1.0 -0.5
1.0 -1.0 -0.5
1.0 -1.0 0.0
1.0 -1.0 0.5
0.5439457531936704 -1.0 -0.27125225033612943
-0.5457045351981828 -1.0 -0.21249365198618309
-0.559497284504433 -1.0 0.23930263728741874
-0.29245931494957156 -1.0 -0.5306697524905697
0.20015585532644709 -1.0 -0.5318959150904929
0.5505407579107722 -1.0 0.28869432842165565
0.21378923325123722 -1.0 0.5676830225691822
-0.3017716724511581 -1.0 0.5608104154606801
-0.003619682488522624 -1.0 0.04016403110030442
-1.0 1.0 0.5
-1.0 1.0 0.0
-1.0 1.0 -0.5
-1.0 -0.2928440880759029 -0.5299136410958498
-1.0 0.5440144658475385 -0.27130804964794075
-1.0 0.5513757526474956 0.2878678267655872
-1.0 0.20025016202075374 -0.5319880841779896
-1.0 -0.5464306284087015 -0.19484012191725864
-1.0 -0.5499083006278072 0.3058709822736969
-1.0 -0.22859514906456213 0.5704239188908595
-1.0 0.2338638976130043 0.568624678567865
-1.0 -0.0011994118738170023 0.04083490490078079
1.0 1.0 0.5
1.0 1.0 0.0
1.0 1.0 -0.5
-0.2923014769412673 1.0 -0.5305454416137407
0.5439418339226934 1.0 -0.2712407719485248
0.5503538250007347 1.0 0.28889239200653427
0.20023145323665226 1.0 -0.5319151626063898
-0.5471385930717152 1.0 -0.21072269106372765
-0.5594701676138587 1.0 0.2396771146672496
-0.3006626775606016 1.0 0.5607942237391481
0.21163703309012583 1.0 0.5675496336886658
-0.003765937306107414 1.0 0.04001951928322667
1.0 0.5444097046979777 -0.27090659862472943
1.0 -0.5413661309184392 -0.2870025987195257
1.0 -0.5541540441240029 0.2146630759371786
1.0 -0.22103484341215363 -0.5351194202815368
1.0 0.22333703628104562 -0.5350612448694112
1.0 0.5506195258321007 0.288731636874048
1.0 0.2135244886554739 0.5674188155698974
1.0 -0.30356505564225644 0.558906519441162
1.0 -0.001210552050871616 0.03694139696746124
0.6018841337378746 0.5918241718116772 0.6251706581451404
0.2686080357942169 0.23024965379694518 0.5587364980345066
0.7067137945637949 -0.030754507364950445 0.5681427533737766
0.2622045486788842 -0.32089444452846205 0.5477445629046107
-0.1746687208262192 0.22529374797399804 0.5448185533266279
0.001528791458001777 0.7046989870482392 0.5458498067511277
-0.5789133925392158 0.5652772261573511 0.5797546572608501
0.5969503470444124 -0.6166044506788637 0.6077991491742161
-0.2275686827388128 -0.31539789399293383 0.6262508305311814
0.02123633936795377 -0.6689398045100594 0.5162698589016381
-0.648127980897764 -0.6171038582369284 0.6345682429684447
0.4071804681653721 -0.624349796116975 0.05457601675563151
-0.5035471551554482 -0.5792717625734234 0.12892462560008733
-0.02677952272768236 -0.5486278493549368 -0.35196059113745726
0.5576852741052352 -0.5780953081111466 -0.5712329885364502
-0.5766992473173151 -0.5735474847160069 -0.5319704626049369
0.5617015794401921 0.5434089519219847 -0.5372137683205098
0.3815050058846068 -0.006804906148292211 -0.5504390883198766
-0.0037871826659197083 0.4393926336828038 -0.5620055633782881
-0.3618116235021702 0.010887732279106555 -0.5553516767486055
-0.5686899142289663 0.5702177549003111 -0.5630914949396573
-0.5350708298866498 0.37444412720765374 0.019165456976196982
-0.5669768926611316 0.0013549131436785267 0.42133637035034477
-0.22440148835449758 0.6002349552725352 0.2601100029539496
0.18171838687164232 0.5251553350853002 0.22401510561882843
-0.19141961784512285 0.6046959380251691 -0.16454734439836738
0.6763591973864544 0.46231291630126625 0.07855456052073517
0.2412221636570253 0.5362874122249215 -0.26252855599909
0.5465162269734809 -0.25108715027783335 -0.27248667928625947
0.5695190326988779 -0.21423633999031244 0.25460011604760746
0.02287361711992153 0.05282129610122688 0.06988239348891634
0.5123307487638122 0.16121685825111065 -0.0308740672329173
-0.5368126158144446 -0.15903659766351286 -0.1487372059790939
-0.11011012289262423 -0.40651138134508313 0.17577687405206843
-0.0010751113437663662 -0.2643739474001201 -0.7304598804820168
$EndNodes
$Elements
2 622 1 622
3 1 4 430
1 109 18 17 4
2 99 24 11 12
3 24 88 13 12
4 103 29 21 25
5 104 24 13 21
6 102 29 28 23
7 106 28 20 23
8 108 19 27 64
9 100 21 29 24
10 102 29 23 22
11 107 64 27 109
12 10 96 22 11
13 116 115 94 43
14 105 15 25 21
15 115 94 43 30
16 14 87 13 21
17 113 33 42 32
18 45 60 35 34
19 61 45 60 112
20 114 36 46 35
21 118 47 46 37
22 47 72 38 37
23 39 81 48 40
24 117 49 48 40
25 119 39 48 38
26 31 93 42 32
27 112 61 65 60
28 111 59 58 65
29 106 63 20 28
30 107 27 28 29
31 111 59 52 58
32 119 70 68 38
33 112 65 58 60
34 114 53 35 60
35 118 69 37 46
36 59 51 74 52
37 109 18 26 17
38 109 75 74 17
39 105 14 21 87
40 122 89 86 87
41 49 84 41 40
42 85 70 67 68
43 90 82 79 80
44 91 55 57 54
45 113 93 32 42
46 31 94 30 43
47 117 81 40 48
48 86 71 66 67
49 99 2 12 11
50 104 87 21 13
51 105 104 87 21
52 110 57 62 65
53 115 49 41 30
54 115 82 80 41
55 99 24 12 88
56 95 83 78 79
57 16 15 25 76
58 105 71 15 66
59 105 71 76 15
60 105 66 14 87
61 101 10 22 23
62 106 9 23 20
63 106 1 20 56
64 97 9 10 23
65 83 89 104 88
66 99 96 11 22
67 109 27 18 64
68 111 59 65 64
69 121 16 25 76
70 109 51 64 18
71 19 27 64 18
72 108 63 64 65
73 113 57 33 54
74 116 31 42 43
75 116 31 94 93
76 36 69 46 37
77 114 53 69 36
78 73 53 58 52
79 114 45 35 46
80 119 39 81 48
81 119 47 38 48
82 116 50 49 43
83 114 118 46 69
84 113 33 44 42
85 113 127 91 93
86 61 33 34 44
87 55 92 62 56
88 114 53 60 58
89 109 51 17 74
90 109 59 51 74
91 113 61 44 33
92 61 45 44 34
93 133 44 45 50
94 110 55 92 62
95 63 19 20 28
96 108 19 28 27
97 110 63 65 62
98 114 73 53 58
99 111 59 74 52
100 131 72 69 77
101 120 86 67 71
102 119 117 48 81
103 119 47 72 38
104 119 118 72 47
105 120 71 67 70
106 120 77 71 70
107 105 103 21 25
108 121 77 76 71
109 75 26 16 17
110 121 26 25 16
111 107 26 29 25
112 121 105 76 25
113 121 109 26 75
114 109 111 59 74
115 114 111 73 58
116 124 89 84 81
117 119 85 81 68
118 120 77 70 72
119 124 89 85 86
120 125 95 79 83
121 115 49 84 41
122 115 90 30 80
123 115 90 94 30
124 99 95 11 96
125 125 83 79 82
126 126 89 83 82
127 99 95 78 11
128 100 24 29 22
129 99 83 12 78
130 105 86 66 87
131 29 21 100 103
132 127 98 93 94
133 126 89 82 84
134 115 90 80 82
135 110 91 55 57
136 110 61 57 65
137 113 91 54 32
138 101 102 23 22
139 123 122 104 89
140 126 125 82 83
141 125 98 94 90
142 106 92 56 62
143 106 97 9 56
144 101 10 96 22
145 106 62 56 20
146 125 95 98 90
147 99 95 83 78
148 125 115 82 90
149 125 95 96 98
150 99 83 88 12
151 99 24 22 11
152 99 78 2 11
153 99 78 12 2
154 121 77 75 76
155 100 99 24 22
156 104 99 88 24
157 104 89 87 88
158 132 108 102 107
159 121 77 74 75
160 101 99 22 96
161 107 27 29 26
162 124 89 81 85
163 128 97 92 98
164 108 107 27 28
165 122 105 87 86
166 104 88 87 13
167 104 89 83 123
168 104 24 88 13
169 106 110 92 62
170 106 63 62 20
171 100 102 22 29
172 107 102 103 29
173 127 98 92 91
174 101 97 98 96
175 127 98 91 93
176 100 101 22 102
177 116 50 42 44
178 108 107 28 102
179 107 102 29 28
180 107 103 25 29
181 121 107 25 26
182 129 107 102 103
183 111 77 73 74
184 131 69 73 77
185 118 50 45 46
186 105 15 76 25
187 121 105 25 103
188 105 104 21 103
189 105 14 15 21
190 122 105 103 104
191 105 86 71 66
192 120 119 85 124
193 14 66 15 3
194 15 66 14 105
195 115 49 30 43
196 117 50 48 49
197 116 50 43 42
198 115 82 41 84
199 41 80 30 5
200 30 80 41 115
201 112 61 45 44
202 60 45 61 34
203 114 112 60 45
204 129 100 103 102
205 118 50 46 47
206 111 73 52 74
207 111 73 58 52
208 111 112 65 58
209 108 111 65 64
210 109 111 64 59
211 132 111 112 65
212 132 129 110 112
213 121 109 75 74
214 114 112 58 60
215 131 114 112 111
216 113 116 42 44
217 45 44 133 112
218 116 115 43 49
219 116 31 93 42
220 133 45 118 50
221 113 110 91 127
222 125 94 130 115
223 116 31 43 94
224 117 115 84 126
225 126 117 115 116
226 118 50 47 48
227 118 47 37 72
228 118 72 37 69
229 114 118 45 46
230 118 45 133 112
231 119 118 47 48
232 117 116 50 49
233 121 120 105 103
234 111 73 131 114
235 109 107 26 27
236 109 27 26 18
237 109 59 64 51
238 109 111 107 64
239 109 75 17 26
240 121 109 111 107
241 109 51 4 17
242 109 51 18 4
243 120 105 86 71
244 122 104 89 87
245 122 105 104 87
246 86 105 120 122
247 126 115 84 82
248 117 116 49 115
249 118 116 50 117
250 124 123 89 122
251 117 84 40 81
252 119 117 118 48
253 129 124 117 118
254 118 116 112 133
255 117 49 40 84
256 117 118 48 50
257 124 119 117 118
258 110 55 62 57
259 110 91 92 55
260 128 106 92 97
261 110 112 61 65
262 113 61 110 112
263 106 110 62 63
264 108 110 63 65
265 129 127 112 116
266 132 108 107 111
267 101 97 96 10
268 106 101 23 97
269 101 97 10 23
270 125 99 96 95
271 100 99 104 24
272 128 106 102 110
273 123 122 103 104
274 106 101 102 23
275 106 97 23 9
276 106 102 28 23
277 106 97 56 92
278 108 106 28 63
279 108 106 110 102
280 128 106 110 92
281 106 1 9 20
282 106 1 56 9
283 129 123 122 103
284 100 125 99 101
285 100 101 99 22
286 126 125 115 82
287 100 102 29 103
288 99 104 83 123
289 83 104 99 88
290 125 99 95 83
291 127 116 94 93
292 130 94 116 115
293 127 110 91 92
294 128 127 98 92
295 113 116 93 42
296 129 110 102 132
297 128 100 102 101
298 113 116 44 112
299 110 61 113 57
300 113 112 44 61
301 119 70 38 72
302 69 72 131 118
303 119 39 68 81
304 119 85 68 70
305 68 39 38 8
306 38 39 68 119
307 114 111 58 112
308 114 45 60 35
309 114 36 69 46
310 114 118 112 45
311 114 73 69 53
312 131 73 111 77
313 36 53 35 114
314 35 53 36 7
315 113 61 33 57
316 113 127 116 112
317 113 127 93 116
318 113 91 57 54
319 113 91 32 93
320 91 110 113 57
321 113 127 112 110
322 54 33 32 6
323 32 33 54 113
324 108 63 19 64
325 27 64 107 108
326 108 63 28 19
327 108 111 64 107
328 132 108 111 65
329 108 106 102 28
330 108 106 63 110
331 120 72 118 131
332 120 122 105 103
333 120 119 72 70
334 131 121 120 77
335 129 107 121 132
336 131 132 111 112
337 124 119 85 81
338 124 119 81 117
339 121 105 71 76
340 120 85 70 67
341 124 120 86 85
342 120 86 85 67
343 121 77 111 74
344 121 109 107 26
345 121 107 103 25
346 121 109 74 111
347 121 75 26 16
348 121 75 16 76
349 121 120 77 71
350 121 120 71 105
351 125 95 90 79
352 125 123 99 83
353 125 90 82 79
354 125 101 96 99
355 125 115 90 94
356 130 94 125 98
357 125 101 98 96
358 104 99 100 123
359 100 123 103 104
360 100 125 123 99
361 100 104 21 24
362 100 104 103 21
363 129 127 110 112
364 130 125 101 98
365 130 128 127 98
366 129 100 123 103
367 124 117 81 84
368 126 124 89 84
369 124 122 89 86
370 124 120 122 86
371 126 124 123 89
372 129 120 103 122
373 85 119 120 70
374 124 120 119 118
375 126 125 83 123
376 126 123 83 89
377 130 126 115 116
378 126 124 84 117
379 84 115 117 49
380 129 124 122 123
381 129 117 116 118
382 129 120 118 131
383 128 127 92 110
384 128 101 97 98
385 128 106 97 101
386 128 106 101 102
387 130 100 101 125
388 130 100 125 123
389 132 129 107 102
390 130 129 116 127
391 132 121 111 107
392 129 121 103 120
393 129 124 120 122
394 129 128 100 102
395 129 126 124 123
396 129 126 117 124
397 129 126 116 117
398 130 126 123 125
399 130 129 128 100
400 128 129 127 110
401 127 129 128 130
402 130 128 98 101
403 130 129 123 126
404 130 128 101 100
405 130 129 100 123
406 130 127 94 98
407 116 94 130 127
408 130 126 125 115
409 116 126 129 130
410 132 108 110 102
411 132 108 65 110
412 121 107 129 103
413 131 129 120 121
414 132 110 65 112
415 131 129 112 118
416 102 110 129 128
417 133 116 44 50
418 133 116 112 44
419 112 116 118 129
420 50 116 118 133
421 131 120 72 77
422 131 114 118 112
423 73 69 131 114
424 131 114 69 118
425 111 77 121 131
426 118 72 120 119
427 111 121 132 131
428 131 132 129 121
429 131 132 112 129
430 118 120 129 124
2 2 2 192
431 11 2 12
432 15 21 14
433 11 22 10
434 23 9 10
435 13 24 12
436 20 1 9
437 3 15 14
438 16 25 15
439 26 25 16
440 4 18 17
441 26 18 27
442 20 28 19
443 29 23 22
444 11 12 24
445 21 13 14
446 24 13 21
447 20 23 28
448 23 10 22
449 28 27 19
450 24 29 22
451 11 24 22
452 15 25 21
453 29 24 21
454 26 17 18
455 26 16 17
456 27 18 19
457 29 25 26
458 23 29 28
459 29 26 27
460 29 21 25
461 29 27 28
462 20 9 23
463 44 42 33
464 32 6 33
465 30 31 43
466 5 30 41
467 42 32 33
468 36 35 7
469 34 35 45
470 45 35 46
471 39 38 8
472 37 38 47
473 39 48 38
474 49 40 41
475 31 32 42
476 49 41 30
477 31 42 43
478 42 44 50
479 33 34 44
480 45 46 50
481 35 36 46
482 44 34 45
483 40 49 48
484 36 37 46
485 39 40 48
486 46 37 47
487 50 46 47
488 50 47 48
489 48 47 38
490 43 49 30
491 50 49 43
492 43 42 50
493 48 49 50
494 44 45 50
495 54 57 33
496 58 53 60
497 35 53 7
498 51 52 59
499 65 58 60
500 4 51 18
501 54 33 6
502 60 34 61
503 34 33 61
504 53 35 60
505 20 56 1
506 55 56 62
507 63 20 19
508 18 51 64
509 54 55 57
510 62 56 20
511 52 53 58
512 19 18 64
513 52 58 59
514 57 62 65
515 35 34 60
516 57 65 61
517 65 60 61
518 57 61 33
519 57 55 62
520 19 64 63
521 65 62 63
522 63 62 20
523 59 65 64
524 51 59 64
525 63 64 65
526 59 58 65
527 73 69 53
528 70 68 38
529 38 68 8
530 66 67 71
531 69 72 37
532 3 66 15
533 53 36 7
534 73 53 52
535 17 75 74
536 17 51 4
537 77 70 72
538 51 17 74
539 76 15 71
540 75 16 76
541 67 68 70
542 37 36 69
543 38 37 72
544 16 15 76
545 67 70 71
546 69 36 53
547 72 70 38
548 73 77 69
549 71 70 77
550 52 51 74
551 73 52 74
552 17 16 75
553 73 74 77
554 15 66 71
555 74 75 77
556 72 69 77
557 76 71 77
558 75 76 77
559 85 81 68
560 82 80 41
561 41 80 5
562 78 79 83
563 81 84 40
564 2 78 12
565 68 39 8
566 85 68 67
567 86 66 87
568 14 66 3
569 89 82 84
570 66 14 87
571 88 12 83
572 87 13 88
573 79 80 82
574 40 39 81
575 41 40 84
576 13 12 88
577 79 82 83
578 81 39 68
579 84 82 41
580 85 89 81
581 83 82 89
582 67 66 86
583 85 67 86
584 14 13 87
585 85 86 89
586 12 78 83
587 86 87 89
588 84 81 89
589 88 83 89
590 87 88 89
591 80 90 30
592 32 93 91
593 32 54 6
594 56 55 92
595 98 91 93
596 1 56 9
597 80 30 5
598 93 31 94
599 31 30 94
600 54 32 91
601 11 78 2
602 79 78 95
603 96 11 10
604 9 56 97
605 80 79 90
606 95 78 11
607 55 54 91
608 10 9 97
609 55 91 92
610 90 95 98
611 32 31 93
612 90 98 94
613 98 93 94
614 90 94 30
615 90 79 95
616 10 97 96
617 98 95 96
618 96 95 11
619 92 98 97
620 56 92 97
621 96 97 98
622 92 91 98
$EndElements
