$MeshFormat
2.2 0 8
$EndMeshFormat
$PhysicalNames
2
3 1 "solid"
2 2 "boundary"
$EndPhysicalNames
$Nodes
791
1 1.0 -1.0 1.0
2 1.0 1.0 1.0
3 -1.0 1.0 1.0
4 -1.0 -1.0 1.0
5 1.0 1.0 -1.0
6 1.0 -1.0 -1.0
7 -1.0 -1.0 -1.0
8 -1.0 1.0 -1.0
9 1.0 -0.5 1.0
10 1.0 0.0 1.0
11 1.0 0.5 1.0
12 0.5 1.0 1.0
13 0.0 1.0 1.0
14 -0.5 1.0 1.0
15 -1.0 0.5 1.0
16 -1.0 0.0 1.0
17 -1.0 -0.5 1.0
18 -0.5 -1.0 1.0
19 0.0 -1.0 1.0
20 0.5 -1.0 1.0
21 -0.27482749219021296 0.5334135721989912 1.0
22 0.5445724396075895 0.1973851359991574 1.0
23 0.5502501973488116 -0.3049161759421868 1.0
24 0.27773425776743155 0.5306337600799873 1.0
25 -0.5452272832192719 0.19648831143329426 1.0
26 -0.5498844819953552 -0.3057050206326184 1.0
27 -0.22883987719276266 -0.5705709153128224 1.0
28 0.22965961844091742 -0.5693948903282615 1.0
29 2.2101577287880758e-05 -0.042733800711918235 1.0
30 1.0 0.5 -1.0
31 1.0 0.0 -1.0
32 1.0 -0.5 -1.0
33 0.5 -1.0 -1.0
34 0.0 -1.0 -1.0
35 -0.5 -1.0 -1.0
36 -1.0 -0.5 -1.0
37 -1.0 0.0 -1.0
38 -1.0 0.5 -1.0
39 -0.5 1.0 -1.0
40 0.0 1.0 -1.0
41 0.5 1.0 -1.0
42 0.5412248579891528 -0.28688609457511394 -1.0
43 0.5534883423933818 0.21568293302204022 -1.0
44 0.22080736135639611 -0.5350815064830774 -1.0
45 -0.22442905590465423 -0.5340802351517744 -1.0
46 -0.5418913686484246 -0.2866191989013156 -1.0
47 -0.5535142509985373 0.2157817302062761 -1.0
48 -0.2885415445995745 0.5604183711598423 -1.0
49 0.2872640421653876 0.561010771467203 -1.0
50 -0.00027822792760545667 0.03635874164301578 -1.0
51 -1.0 -1.0 0.5
52 -1.0 -1.0 0.0
53 -1.0 -1.0 -0.5
54 1.0 -1.0 -0.5
55 1.0 -1.0 0.0
56 1.0 -1.0 0.5
57 0.5439457531936704 -1.0 -0.27125225033612943
58 -0.5457045351981828 -1.0 -0.21249365198618309
59 -0.559497284504433 -1.0 0.23930263728741874
60 -0.29245931494957156 -1.0 -0.5306697524905697
61 0.20015585532644709 -1.0 -0.5318959150904929
62 0.5505407579107722 -1.0 0.28869432842165565
63 0.21378923325123722 -1.0 0.5676830225691822
64 -0.3017716724511581 -1.0 0.5608104154606801
65 -0.003619682488522624 -1.0 0.04016403110030442
66 -1.0 1.0 0.5
67 -1.0 1.0 0.0
68 -1.0 1.0 -0.5
69 -1.0 -0.2928440880759029 -0.5299136410958498
70 -1.0 0.5440144658475385 -0.27130804964794075
71 -1.0 0.5513757526474956 0.2878678267655872
72 -1.0 0.20025016202075374 -0.5319880841779896
73 -1.0 -0.5464306284087015 -0.19484012191725864
74 -1.0 -0.5499083006278072 0.3058709822736969
75 -1.0 -0.22859514906456213 0.5704239188908595
76 -1.0 0.2338638976130043 0.568624678567865
77 -1.0 -0.0011994118738170023 0.04083490490078079
78 1.0 1.0 0.5
79 1.0 1.0 0.0
80 1.0 1.0 -0.5
81 -0.2923014769412673 1.0 -0.5305454416137407
82 0.5439418339226934 1.0 -0.2712407719485248
83 0.5503538250007347 1.0 0.28889239200653427
84 0.20023145323665226 1.0 -0.5319151626063898
85 -0.5471385930717152 1.0 -0.21072269106372765
86 -0.5594701676138587 1.0 0.2396771146672496
87 -0.3006626775606016 1.0 0.5607942237391481
88 0.21163703309012583 1.0 0.5675496336886658
89 -0.003765937306107414 1.0 0.04001951928322667
90 1.0 0.5444097046979777 -0.27090659862472943
91 1.0 -0.5413661309184392 -0.2870025987195257
92 1.0 -0.5541540441240029 0.2146630759371786
93 1.0 -0.22103484341215363 -0.5351194202815368
94 1.0 0.22333703628104562 -0.5350612448694112
95 1.0 0.5506195258321007 0.288731636874048
96 1.0 0.2135244886554739 0.5674188155698974
97 1.0 -0.30356505564225644 0.558906519441162
98 1.0 -0.001210552050871616 0.03694139696746124
99 0.6018841337378746 0.5918241718116772 0.6251706581451404
100 0.2686080357942169 0.23024965379694518 0.5587364980345066
101 0.7067137945637949 -0.030754507364950445 0.5681427533737766
102 0.2622045486788842 -0.32089444452846205 0.5477445629046107
103 -0.1746687208262192 0.22529374797399804 0.5448185533266279
104 0.001528791458001777 0.7046989870482392 0.5458498067511277
105 -0.5789133925392158 0.5652772261573511 0.5797546572608501
106 0.5969503470444124 -0.6166044506788637 0.6077991491742161
107 -0.2275686827388128 -0.31539789399293383 0.6262508305311814
108 0.02123633936795377 -0.6689398045100594 0.5162698589016381
109 -0.648127980897764 -0.6171038582369284 0.6345682429684447
110 0.4071804681653721 -0.624349796116975 0.05457601675563151
111 -0.5035471551554482 -0.5792717625734234 0.12892462560008733
112 -0.02677952272768236 -0.5486278493549368 -0.35196059113745726
113 0.5576852741052352 -0.5780953081111466 -0.5712329885364502
114 -0.5766992473173151 -0.5735474847160069 -0.5319704626049369
115 0.5617015794401921 0.5434089519219847 -0.5372137683205098
116 0.3815050058846068 -0.006804906148292211 -0.5504390883198766
117 -0.0037871826659197083 0.4393926336828038 -0.5620055633782881
118 -0.3618116235021702 0.010887732279106555 -0.5553516767486055
119 -0.5686899142289663 0.5702177549003111 -0.5630914949396573
120 -0.5350708298866498 0.37444412720765374 0.019165456976196982
121 -0.5669768926611316 0.0013549131436785267 0.42133637035034477
122 -0.22440148835449758 0.6002349552725352 0.2601100029539496
123 0.18171838687164232 0.5251553350853002 0.22401510561882843
124 -0.19141961784512285 0.6046959380251691 -0.16454734439836738
125 0.6763591973864544 0.46231291630126625 0.07855456052073517
126 0.2412221636570253 0.5362874122249215 -0.26252855599909
127 0.5465162269734809 -0.25108715027783335 -0.27248667928625947
128 0.5695190326988779 -0.21423633999031244 0.25460011604760746
129 0.02287361711992153 0.05282129610122688 0.06988239348891634
130 0.5123307487638122 0.16121685825111065 -0.0308740672329173
131 -0.5368126158144446 -0.15903659766351286 -0.1487372059790939
132 -0.11011012289262423 -0.40651138134508313 0.17577687405206843
133 -0.0010751113437663662 -0.2643739474001201 -0.7304598804820168
134 -0.574063990448882 -0.8085519291184642 0.8172841214842224
135 -0.75 -0.75 1.0
136 -0.824063990448882 -0.5585519291184642 0.8172841214842224
137 -0.824063990448882 -0.8085519291184642 0.8172841214842224
138 -0.75 -1.0 1.0
139 -1.0 -0.75 1.0
140 0.4398091957526531 0.5612289659458323 0.8125853290725702
141 0.6388671288837158 0.5153168800399937 1.0
142 0.8009420668689373 0.5459120859058386 0.8125853290725702
143 0.5509420668689373 0.7959120859058386 0.8125853290725702
144 0.3888671288837158 0.7653168800399937 1.0
145 0.75 0.75 1.0
146 0.2446856454287787 0.7653168800399937 0.7837748168443329
147 0.10581851654506291 1.0 0.7837748168443329
148 0.13886712888371577 0.7653168800399937 1.0
149 0.3558185165450629 1.0 0.7837748168443329
150 0.25 1.0 1.0
151 -0.08732330962446566 0.0912799736310399 0.7724092766633139
152 -0.13740269530646254 0.2453398857435365 1.0
153 -0.22474810650821608 0.3793536600864946 0.7724092766633139
154 -0.3599480020227456 0.21089102970364615 0.7724092766633139
155 -0.27260259082099203 0.07687725536068801 1.0
156 -0.41002738770474245 0.36495094181614274 1.0
157 0.13963152461271666 0.6176663735641132 0.7729249033755639
158 0.0007643957290008885 0.8523494935241196 0.7729249033755639
159 -0.1366493503661056 0.6190562796236152 0.7729249033755639
160 0.001453382788609292 0.5320236661394893 1.0
161 -0.13741374609510648 0.7667067860994956 1.0
162 0.13111332512808604 -0.18181412262019014 0.7738722814523054
163 0.11484086000910265 -0.3060643455200899 1.0
164 0.24593208355990082 -0.4451446674283618 0.7738722814523054
165 0.4062273730138479 -0.3129053102353244 0.7738722814523054
166 0.27513614946304976 -0.1738249883270525 1.0
167 0.38995490789486453 -0.43715553313522415 1.0
168 0.4133049827426649 -0.5929996705035626 0.803899574587108
169 0.3648298092204587 -0.7846974451641308 1.0
170 0.5484751735222062 -0.8083022253394319 0.803899574587108
171 0.573600272196612 -0.46076031331052525 0.803899574587108
172 0.5251250986744058 -0.6524580879710934 1.0
173 0.010618169683976886 -0.8344699022550297 0.7581349294508191
174 -0.11441993859638133 -0.7852854576564112 1.0
175 -0.10380176891240445 -0.6197553599114409 0.7581349294508191
176 -0.14026766654160217 -0.8344699022550297 0.5385401371811591
177 -0.15088583622557905 -1.0 0.7804052077303401
178 -0.2653057748219604 -0.7852854576564112 0.7804052077303401
179 -0.0031097281979980407 0.3818316129979682 0.7793682490172533
180 0.13431506868575238 0.09375792654251347 0.7793682490172533
181 0.2731711467808242 0.38044170693846624 0.7793682490172533
182 0.13887817967235971 0.24394997968403453 1.0
183 0.40338849414323685 -0.06175465426465232 0.7738722814523054
184 0.2722972705924387 0.07732566764361959 1.0
185 0.5474113184782006 -0.053765519971514686 1.0
186 -0.26467017759498546 -0.6576989469964669 0.5935306229959307
187 -0.22820427996578774 -0.44298440465287814 0.8131254152655907
188 -0.4378483318182884 -0.4662508761149311 0.630409536749813
189 -0.47494982667446106 -0.8085519291184642 0.5976893292145624
190 -0.43848392904526334 -0.5938373867748754 0.8172841214842224
191 1.0 0.10676224432773695 0.7837094077849487
192 0.7722862198037947 0.20545481232731566 0.7837094077849487
193 0.7722862198037947 0.0986925679995787 1.0
194 1.0 0.25 1.0
195 1.0 0.35676224432773695 0.7837094077849487
196 0.7722862198037947 0.3486925679995787 1.0
197 0.4716032926623994 0.26830202288684624 -0.5438264283201932
198 0.780850789720096 0.38337299410151515 -0.5361375065949605
199 0.6907525029423034 0.1082660650663767 -0.5427501665946439
200 0.4674966741389943 0.104439013436874 -0.7752195441599383
201 0.557594960916787 0.37954594247201245 -0.7686068841602549
202 0.7767441711966909 0.21950998465154292 -0.7675306224347056
203 -0.7894566962696079 0.5326386130786755 0.789877328630425
204 -0.772613641609636 0.34824415571664713 1.0
205 -0.5620703378792439 0.3808827687953227 0.789877328630425
206 -0.4268704423647144 0.5493453991781712 0.789877328630425
207 -0.6374137460951065 0.5167067860994956 1.0
208 0.780850789720096 0.5217044759609923 -0.7686068841602549
209 1.0 0.3616685181405228 -0.7675306224347056
210 0.7767441711966909 0.3578414665110201 -1.0
211 -0.4003313387803008 1.0 0.7803971118695741
212 -0.1503313387803008 1.0 0.7803971118695741
213 -0.25 1.0 1.0
214 -0.3874137460951065 0.7667067860994956 1.0
215 -0.2877450848754073 0.7667067860994956 0.7803971118695741
216 0.5288426370526176 -0.7890476540555733 -0.7856164942682251
217 0.5206124289945764 -0.643443047287557 -1.0
218 0.549455066047194 -0.4324907013431303 -0.7856164942682251
219 0.7788426370526176 -0.5390476540555733 -0.7856164942682251
220 0.75 -0.75 -1.0
221 0.7706124289945764 -0.39344304728755697 -1.0
222 -0.2584441854271129 -0.7670401175758872 -0.7653348762452848
223 -0.3962296574747858 -1.0 -0.7653348762452848
224 -0.3622145279523271 -0.7670401175758872 -1.0
225 -0.11221452795232711 -0.7670401175758872 -1.0
226 -0.14622965747478578 -1.0 -0.7653348762452848
227 -0.25 -1.0 -1.0
228 -0.012136600289103572 -0.7670401175758872 -0.7659479575452465
229 -0.046151729811562237 -1.0 -0.5312828337905313
230 0.08668816629938236 -0.7743139246774684 -0.4419282531139751
231 -0.1256042893161683 -0.5413540422533556 -0.6759802955687286
232 -0.15961941883862696 -0.7743139246774684 -0.4413151718140135
233 -0.7883496236586576 -0.5367737423580035 -0.7659852313024684
234 -0.7709456843242123 -0.3933095994506578 -1.0
235 -0.5592953079828699 -0.43008334180866126 -0.7659852313024684
236 -0.5383496236586576 -0.7867737423580035 -0.7659852313024684
237 -0.75 -0.75 -1.0
238 -0.5209456843242123 -0.6433095994506578 -1.0
239 -0.4576629372503538 0.11333473124269133 -0.7776758383743028
240 -0.547702809823481 -0.03541873434751974 -1.0
241 -0.4518514960752974 -0.13786573331110452 -0.7776758383743028
242 -0.6809058117510851 0.005443866139553277 -0.7776758383743028
243 -0.7767571254992687 0.10789086510313806 -1.0
244 -0.7709456843242123 -0.1433095994506578 -1.0
245 -0.7767571254992687 0.20801594611351493 -0.7659940420889948
246 -1.0 0.35012508101037687 -0.7659940420889948
247 -0.7767571254992687 0.35789086510313806 -1.0
248 -1.0 0.10012508101037687 -0.7659940420889948
249 -1.0 0.25 -1.0
250 -0.39615073847063365 1.0 -0.7652727208068704
251 -0.2904215107704209 0.7802091855799211 -0.7652727208068704
252 -0.39427077229978724 0.7802091855799211 -1.0
253 -0.25 1.0 -1.0
254 -0.14615073847063365 1.0 -0.7652727208068704
255 -0.14427077229978724 0.7802091855799211 -1.0
256 0.14173842974973394 0.5002017025750034 -0.781002781689144
257 -0.0006387512170934473 0.5607145713135226 -1.0
258 -0.1461643636327471 0.49990550242132303 -0.781002781689144
259 -0.0018935913329598542 0.7196963168414019 -0.781002781689144
260 0.1436320210826938 0.7805053857336015 -1.0
261 -0.5343449571144832 0.7851088774501556 -0.7815457474698286
262 -0.4286157294142704 0.5653180630300767 -0.7815457474698286
263 -0.7843449571144832 0.5351088774501556 -0.7815457474698286
264 -0.75 0.75 -1.0
265 -0.6442707722997872 0.5302091855799211 -1.0
266 1.0 -0.11051742170607681 -0.7675597101407684
267 0.7706124289945764 -0.2539604689936338 -0.7675597101407684
268 0.7706124289945764 -0.14344304728755697 -1.0
269 1.0 -0.25 -1.0
270 1.0 -0.3605174217060768 -0.7675597101407684
271 0.09826808641896223 -1.0 -0.24586594199509426
272 -0.015199602608102492 -0.7743139246774684 -0.15589828001857642
273 -0.1480394987190471 -1.0 -0.24525286069513264
274 -0.5315222198299406 -0.7896358812867117 0.18411363144375303
275 -0.5526009098513079 -1.0 0.013404492650617827
276 -0.5246258451768155 -0.7896358812867117 -0.04178451319304788
277 -0.25358341882198543 -0.7896358812867117 0.08454432835019587
278 -0.28155848349647783 -1.0 0.13973333419386158
279 -0.27466210884335274 -1.0 -0.08616481044293933
280 0.4053697901478248 -0.8083022253394319 0.5877410858716992
281 0.3568946166256186 -1.0 0.7838415112845911
282 0.22172442584607732 -0.7846974451641308 0.7838415112845911
283 0.00040987062407737973 -0.569982902820542 1.0
284 0.0010454678510523063 -0.4423963921605977 0.8131254152655907
285 -0.11377329058076247 -0.17906584735242603 0.8131254152655907
286 -0.11440888780773739 -0.30665235801237034 1.0
287 -0.7797486422522165 -1.0 0.11965131864370937
288 -0.7517735775777241 -0.7896358812867117 0.06446231280004366
289 -0.7728522675990914 -1.0 -0.10624682599309154
290 -0.7843449571144832 0.5571161103739248 -0.417199772293799
291 -1.0 0.7720072329237693 -0.3856540248239704
292 -0.7843449571144832 0.7851088774501556 -0.5315457474698286
293 -1.0 0.5220072329237693 -0.6356540248239704
294 -1.0 0.75 -0.75
295 -0.2862420289629326 -0.7743139246774684 -0.28222712156182017
296 -0.4190819250738772 -1.0 -0.3715817022383764
297 -0.7883496236586576 -0.7867737423580035 -0.5159852313024684
298 -0.75 -1.0 -0.75
299 -0.43457928113344335 -0.7867737423580035 -0.5313201075477533
300 -0.6462296574747858 -1.0 -0.5153348762452848
301 -0.6809058117510851 -0.14097817789839817 -0.5426326589222277
302 -1.0 -0.14642204403795145 -0.7649568205479249
303 -0.7709456843242123 -0.28973164348860925 -0.7649568205479249
304 -0.7797486422522165 -1.0 0.36965131864370937
305 -1.0 -0.7749541503139036 0.40293549113684846
306 -0.7797486422522165 -0.7749541503139036 0.2725868097805578
307 -1.0 -1.0 0.25
308 -1.0 -0.7749541503139036 0.15293549113684846
309 -0.5249422409976776 -0.6528525103163092 1.0
310 -0.5990062314465596 -0.4614044394347734 0.8172841214842224
311 -0.7749422409976776 -0.4028525103163092 1.0
312 -0.824063990448882 -0.42284950365074525 0.6024960809296521
313 -1.0 -0.38925172484618464 0.4381474505822782
314 -0.824063990448882 -0.5835060794323678 0.4702196126210708
315 -1.0 -0.36429757453228107 0.7852119594454298
316 -1.0 -0.5249541503139036 0.6529354911368485
317 -0.5394566962696079 0.7826386130786755 0.789877328630425
318 -0.4397880350499087 0.7826386130786755 0.5702744404999991
319 -0.1140837128303025 0.8001174776362676 0.15006476111858813
320 -0.28161805245998306 1.0 0.13984831697523814
321 -0.39193582798417814 0.8001174776362676 0.2498935588105996
322 -0.2625320829575496 0.8001174776362676 0.41045211334654885
323 -0.1522143074333545 1.0 0.3004068715111874
324 -0.43006642258723016 1.0 0.40023566920319886
325 0.24374774770101992 0.7805053857336015 -0.7659575813031949
326 0.35011572661832613 1.0 -0.7659575813031949
327 0.3936320210826938 0.7805053857336015 -1.0
328 0.10011572661832613 1.0 -0.7659575813031949
329 0.25 1.0 -1.0
330 -0.7735692965358576 0.7720072329237693 -0.2410153703558342
331 -1.0 0.7720072329237693 -0.13565402482397038
332 -0.7735692965358576 1.0 -0.10536134553186383
333 -0.7735692965358576 1.0 -0.3553613455318638
334 -1.0 1.0 -0.25
335 0.7719709169613467 0.7722048523489888 -0.2710736852866271
336 0.7719709169613467 1.0 -0.1356203859742624
337 1.0 0.7722048523489888 -0.13545329931236472
338 1.0 0.7722048523489888 -0.3854532993123647
339 0.7719709169613467 1.0 -0.3856203859742624
340 1.0 1.0 -0.25
341 1.0 -0.7706830654592196 -0.14350129935976286
342 0.7719728765968352 -1.0 -0.13562612516806472
343 0.7719728765968352 -0.7706830654592196 -0.2791274245278276
344 1.0 -0.7706830654592196 -0.39350129935976286
345 1.0 -1.0 -0.25
346 0.7719728765968352 -1.0 -0.3856261251680647
347 0.7788426370526176 -0.3995650757616501 -0.5531762044089935
348 1.0 0.11166851814052281 -0.7675306224347056
349 1.0 0.25 -1.0
350 0.7767441711966909 0.10784146651102011 -1.0
351 -0.1480443298035935 0.7196963168414019 -0.5462755024960144
352 -0.7797350838069294 0.7756878763237478 0.2637724707164184
353 -1.0 0.7756878763237478 0.3939339133827936
354 -0.7797350838069294 1.0 0.3698385573336248
355 -0.7797350838069294 1.0 0.1198385573336248
356 -1.0 0.7756878763237478 0.1439339133827936
357 -1.0 1.0 0.25
358 0.8009420668689373 0.7959120859058386 0.8125853290725702
359 0.75 1.0 1.0
360 1.0 0.75 1.0
361 -0.14956694305129992 0.8523494935241196 0.5533220152451379
362 -0.288692300540607 0.6349881066027951 0.5628022320059889
363 0.4755631106795213 -0.8121748980584875 -0.10833811679024896
364 0.5472432555522213 -1.0 0.008721039042763112
365 0.47886061303807215 -0.8121748980584875 0.17163517258864358
366 0.20178039283842475 -0.8121748980584875 0.047370023927967964
367 0.2701630353525739 -1.0 -0.1155441096179125
368 0.2734605377111248 -1.0 0.16442917976098004
369 0.4244828108027898 0.5522098616945939 -0.7686068841602549
370 0.530850789720096 0.7717044759609923 -0.7686068841602549
371 0.6436320210826938 0.5305053857336015 -1.0
372 0.75 0.75 -1.0
373 0.5528217066814427 0.7717044759609923 -0.4042272701345173
374 0.780850789720096 0.7717044759609923 -0.5186068841602549
375 0.5219709169613467 1.0 -0.6356203859742624
376 0.75 1.0 -0.75
377 0.40676058341400023 0.7959120859058386 0.5963601459169031
378 0.7751769125003674 0.7753097629160504 0.28881201444029114
379 0.7751769125003674 1.0 0.39444619600326714
380 1.0 0.7753097629160504 0.394365818437024
381 1.0 0.7753097629160504 0.144365818437024
382 0.7751769125003674 1.0 0.14444619600326714
383 1.0 1.0 0.25
384 -1.0 0.25 1.0
385 -0.772613641609636 0.09824415571664713 1.0
386 -1.0 0.11693194880650215 0.7843123392839325
387 -1.0 0.36693194880650215 0.7843123392839325
388 -0.772613641609636 0.21517610452314928 0.7843123392839325
389 -0.7894566962696079 0.5583264894024234 0.43381124201321863
390 -1.0 0.5256878763237478 0.6439339133827936
391 -0.7894566962696079 0.7826386130786755 0.539877328630425
392 -1.0 0.75 0.75
393 -1.0 0.39261982513024996 0.4282462526667261
394 -0.7894566962696079 0.3995705618851777 0.5741896679143575
395 -0.75 1.0 0.75
396 -0.6503313387803008 1.0 0.5303971118695741
397 0.8533568972818975 -0.015377253682475223 0.7840713766868883
398 0.6256431170856922 0.08331531431710348 0.7840713766868883
399 0.6284819959563033 -0.16783534165356861 0.7840713766868883
400 0.7751250986744058 -0.1524580879710934 1.0
401 0.7984751735222062 -0.5583022253394319 0.803899574587108
402 0.7751250986744058 -0.4024580879710934 1.0
403 0.75 -0.75 1.0
404 0.7984751735222062 -0.8083022253394319 0.803899574587108
405 0.75 -1.0 1.0
406 0.7984751735222062 -0.8083022253394319 0.553899574587108
407 1.0 -1.0 0.75
408 0.75 -1.0 0.75
409 1.0 -0.4017825278211282 0.779453259720581
410 1.0 -0.25 1.0
411 1.0 -0.15178252782112822 0.779453259720581
412 0.7751250986744058 -0.3042406157922216 0.779453259720581
413 0.27329394384731365 1.0 0.16445595564488047
414 -0.0011185729240528186 0.8523494935241196 0.2929346630171772
415 0.27594130822936824 0.8523494935241196 0.417371099378831
416 0.38099542904543027 1.0 0.42822101284760006
417 0.1039355478920092 1.0 0.30378457648594626
418 0.1065829122740638 0.8523494935241196 0.5566997202198968
419 0.8009420668689373 0.4026743302335756 0.5962947368575189
420 0.5732282866727321 0.3946046539054173 0.8125853290725702
421 -0.36441993859638133 -0.7852854576564112 1.0
422 -0.40088583622557905 -1.0 0.7804052077303401
423 -0.40265941380330317 -0.7896358812867117 0.3448675205303837
424 -0.43063447847779557 -1.0 0.4000565263740494
425 -0.15269567746984036 -1.0 0.30048722328049227
426 -0.7834884463305658 0.0006774565718392633 0.7106681851751724
427 -0.5561020879402018 0.0989216122884864 0.7106681851751724
428 -0.7834884463305658 0.11760940537834141 0.4949805244591049
429 -0.824063990448882 -0.8085519291184642 0.5672841214842224
430 -0.650885836225579 -1.0 0.5304052077303401
431 -0.75 -1.0 0.75
432 -0.25 -1.0 1.0
433 0.1175127863095955 -0.8344699022550297 0.5419764407354102
434 -0.04399121959996044 -1.0 0.5642467190149312
435 0.008808328439715574 -0.8344699022550297 0.27821694500097127
436 0.1050847753813573 -1.0 0.30392352683474333
437 0.5508155136494528 -0.7890476540555733 -0.4212426194362898
438 0.5219728765968352 -1.0 -0.6356261251680647
439 0.7788426370526176 -0.7890476540555733 -0.5356164942682251
440 0.75 -1.0 -0.75
441 0.6907525029423034 -0.0034024530741461056 -0.7752195441599383
442 0.4613649319368798 -0.14684550036170307 -0.7752195441599383
443 0.5473566001912673 -0.035601580776536856 -1.0
444 0.6907525029423034 -0.11391987478022292 -0.5427792543007067
445 1.0 0.0011510964344459973 -0.535090332575474
446 -1.0 -0.39642204403795145 -0.7649568205479249
447 -1.0 -0.25 -1.0
448 -1.0 -0.6464220440379514 -0.5149568205479249
449 -0.7883496236586576 -0.4331957863959549 -0.5309420518503933
450 -1.0 -0.75 -0.75
451 -1.0 -0.7732153142043507 -0.3474200609586293
452 -0.7728522675990914 -1.0 -0.35624682599309154
453 -0.7728522675990914 -0.7732153142043507 -0.20366688695172086
454 -1.0 -0.7732153142043507 -0.09742006095862932
455 -1.0 -1.0 -0.25
456 -0.4005641516109847 -0.5538138599338907 -0.7659852313024684
457 -0.3831602122765394 -0.410349717026545 -1.0
458 -0.4304956955851168 0.7851088774501556 -0.546818468276699
459 -0.5611020826137518 0.3929997425532936 -0.7815457474698286
460 -0.4210278977990559 0.3881000506830592 -1.0
461 0.19061338897850066 0.014776917747361784 -0.7752195441599383
462 0.14349290711889107 0.2986847565551094 -1.0
463 0.3343845240249972 0.2771029326594554 -0.7752195441599383
464 0.2766050572328882 0.126020837332528 -1.0
465 0.4203761922793847 0.3883468522446216 -1.0
466 -0.4692554354097427 -0.2813298762184502 -0.5436610696767712
467 0.36040368067819806 -0.7675407532415387 -1.0
468 0.38924631773081564 -0.556588407297112 -0.7856164942682251
469 0.38101610967277444 -0.41098380052909567 -1.0
470 0.552100750539358 -0.41459122919449 -0.42185983391135484
471 0.7732581134867405 -0.3962266405981363 -0.2797446390028926
472 0.7788426370526176 -0.5597307195147929 -0.42911779362798796
473 0.7732581134867405 -0.2360609968449935 -0.40380304978389814
474 1.0 -0.3812004871652964 -0.41106100950053126
475 0.35007792766322354 -1.0 -0.7659479575452465
476 0.25 -1.0 -1.0
477 0.10007792766322354 -1.0 -0.7659479575452465
478 0.2104816083414216 -0.7675407532415387 -0.7659479575452465
479 0.11040368067819806 -0.7675407532415387 -1.0
480 1.0 -0.7770770220620015 0.1073315379685893
481 0.7752703789553861 -0.7770770220620015 0.2516787021794171
482 0.7752703789553861 -1.0 0.14434716421082783
483 1.0 -1.0 0.25
484 1.0 -0.7770770220620015 0.3573315379685893
485 0.7752703789553861 -1.0 0.3943471642108278
486 -0.561201891257749 -0.7867737423580035 -0.37223205729555997
487 -1.0 -0.75 0.75
488 -0.6038126327010985 -0.8085519291184642 0.43693544012793173
489 0.3789205647158411 -0.7890476540555733 -0.5515644518134716
490 -0.001810847274129057 -0.5345808708174259 -1.0
491 0.10986612500631487 -0.39972772694159875 -0.8652299402410084
492 -0.1127520836242103 -0.39922709127594724 -0.8652299402410084
493 -0.0006766696356859114 -0.11400760287855216 -0.8652299402410084
494 0.11026456671439533 -0.2493613824200308 -1.0
495 -0.11235364191612984 -0.2488607467543793 -1.0
496 0.7035902340826861 -0.8121748980584875 0.027288008377815753
497 0.7035902340826861 -0.589251920120489 0.13461954634640505
498 0.10689461662561861 -1.0 0.7838415112845911
499 0.25 -1.0 1.0
500 0.11482980922045871 -0.7846974451641308 1.0
501 0.1254479789044356 -0.6191673474191605 0.7581349294508191
502 0.31048485070830467 -0.8121748980584875 0.3111295196624069
503 0.3821649955810047 -1.0 0.42818867549541895
504 -0.7883496236586576 -0.5599890565623542 -0.36340529226109775
505 -0.7517735775777241 -0.5645900316006153 0.21739780393689212
506 -0.7684063079072223 0.020606782178620442 -0.34036264507854175
507 -1.0 -0.04629696302757458 -0.5309508626369197
508 -0.7684063079072223 -0.22594034286970788 -0.33932542353747186
509 -0.7684063079072223 -0.08011800476866493 -0.053951150539156556
510 -1.0 0.09952537507346837 -0.2455765896386044
511 -1.0 -0.14702174997485995 -0.24453936809753452
512 -0.5472704987502542 0.6872220636038269 0.1294212858217233
513 -0.7675354149433249 0.6872220636038269 0.009582728488098491
514 -0.7675354149433249 0.4629099399275747 0.1535166418708921
515 -0.286238548447443 0.5048051942915575 -0.5625485291589727
516 -0.7843449571144832 0.38523395846053243 -0.5475397895588234
517 -0.46525076886556826 0.29055274358970884 -0.5592215858441314
518 -0.6809058117510851 0.10556894714993015 -0.5436698804632976
519 -0.7675354149433249 0.45922929652759614 -0.12607129633587189
520 -1.0 0.5476951092475171 0.008279888558823223
521 -0.7675354149433249 0.18662235766691837 0.030000180938488885
522 -1.0 0.2750881703868393 0.164351365833184
523 -1.0 0.27140752698686077 -0.11523657237357998
524 -0.3767910566827175 0.39528548706567457 0.562286605293739
525 -0.7834884463305658 7.775063493076217e-05 0.23108563762556278
526 -1.0 0.11633224286959365 0.3047297917343229
527 -0.7834884463305658 0.27636533289558707 0.354602098557966
528 -0.7749422409976776 -0.26715008484859026 0.7852119594454298
529 -0.7749422409976776 -0.1528525103163092 1.0
530 -1.0 -0.11429757453228107 0.7852119594454298
531 -1.0 -0.25 1.0
532 -0.5584306873282434 -0.15217505374446993 0.7106681851751724
533 -0.5475558826073136 -0.05460835459966207 1.0
534 -0.388726582367084 -0.3105514573127761 0.8131254152655907
535 -0.27493119020903367 -0.17421941067226832 1.0
536 -0.3863979829790424 -0.059454791279819785 0.8131254152655907
537 -0.5729451426001737 0.2833160696505148 0.5005455138055974
538 -0.6075524367794478 -0.3078744725466249 0.5279523066593947
539 -0.7834884463305658 -0.1136201179604418 0.49588014462060215
540 -0.5758375680266061 -0.5981878104051759 0.381746434284266
541 -0.5401232012363817 -0.5764096236447152 -0.20152291850242476
542 -0.7517735775777241 -0.5628511954910624 -0.032957748158585654
543 -0.09759277757561513 0.8023479690125845 -0.062263912557570356
544 0.09823275796527242 1.0 -0.24594782166158158
545 0.004405917695764705 0.8023479690125845 -0.3482312535023786
546 -0.24186054739319507 0.8023479690125845 -0.34754639300605406
547 -0.14803370712368735 1.0 -0.24526296116525703
548 -0.04603501185230752 1.0 -0.5312303021100653
549 -0.5579142536503408 0.7851088774501556 -0.38690709300169246
550 -0.41972003500649124 1.0 -0.3706340663387342
551 -0.6461507384706336 1.0 -0.5152727208068704
552 -0.7675354149433249 0.28734714461420374 -0.2564113136008963
553 -1.0 0.37213231393414614 -0.4016480669129652
554 -0.2754522651889113 1.0 -0.08535158589025049
555 -0.369279105458419 0.8023479690125845 -0.18763501773104752
556 -0.3754448927294908 0.8023479690125845 0.03756488513444112
557 -0.553304380342787 1.0 0.01447721180176098
558 0.8381795986932272 0.5064662210666835 0.1836430986973916
559 0.8381795986932272 0.7311564581506331 0.039277280260367586
560 0.6133565111935946 0.7311564581506331 0.18372347626363472
561 0.38096651633842216 0.7717044759609923 -0.5345644654634498
562 0.780850789720096 0.5439093283099812 -0.4040601834726196
563 1.0 0.5222048523489888 -0.6354532993123647
564 1.0 0.75 -0.75
565 1.0 0.38387337048951164 -0.4029839217470703
566 0.8009420668689373 0.571221848821889 0.4569511475095942
567 1.0 0.5253097629160504 0.644365818437024
568 1.0 0.3820720072437873 0.4280752262219727
569 0.6101505156545739 0.7311564581506331 -0.09634310571389482
570 0.547147829461714 1.0 0.008825810029004733
571 0.11872811317545895 0.7681437061124607 -0.11125451835793165
572 0.39578799432888 0.7681437061124607 0.013181918003722148
573 0.39258199878985933 0.7681437061124607 -0.2668846639738074
574 0.27008794830829297 1.0 -0.11561062633264907
575 0.8009420668689373 0.7959120859058386 0.5625853290725702
576 1.0 0.75 0.75
577 0.4065902377009032 0.2138173948980513 0.7793682490172533
578 0.4111533486875105 0.36400944803957236 1.0
579 0.5761189793693047 0.7959120859058386 0.45703152507583733
580 0.5251769125003674 1.0 0.6444461960032671
581 0.75 1.0 0.75
582 -0.5691917800765373 0.7826386130786755 0.40971588596404984
583 0.04696965748399884 0.2277717008854716 0.5517775256805673
584 0.7732581134867405 -0.12614885116435248 -0.11777264115939912
585 1.0 -0.11112269773151262 -0.24908901165703778
586 0.7732581134867405 -0.013875056998393864 -0.40377396207783534
587 1.0 0.111063242115087 -0.24905992395097498
588 0.22072680844683878 0.7681437061124607 -0.3972218593027399
589 0.3720866435796728 1.0 -0.4015779672774573
590 0.7035902340826861 -0.5828579635177071 -0.1162132909819471
591 0.3036681617459096 -0.8121748980584875 -0.23865994916743072
592 0.37205080426005877 -1.0 -0.4015740827133112
593 1.0 -0.5206830654592196 -0.6435012993597629
594 1.0 -0.75 -0.75
595 0.48445917162133956 -0.17582447594670625 0.5579436581391937
596 -0.02134155074142763 0.5626951451789177 0.242062554286389
597 -0.1114363484482479 0.6524669711603872 0.40297990485253865
598 0.09162358916482205 0.6149271610667697 0.38493245618497807
599 0.08897622478276745 0.7625776675426501 0.13201731245102755
600 0.4587906805217399 0.49930016426309387 -0.0919869977391774
601 0.8381795986932272 0.23055118212519732 0.057747978744098205
602 0.8381795986932272 0.34282497629115594 -0.22825334217433801
603 0.8381795986932272 0.503361310499622 -0.09617601905199713
604 1.0 0.271599576323553 -0.1169826008286341
605 0.7984751735222062 -0.5853792474014333 0.41123111255569733
606 0.5737455524775923 -0.8083022253394319 0.44824673879793586
607 0.7984751735222062 -0.4600847531605601 0.583352834307689
608 1.0 -0.6517825278211282 0.529453259720581
609 1.0 -0.75 0.75
610 0.8533568972818975 0.09138499064526173 0.567780784471837
611 0.5252703789553861 -1.0 0.6443471642108278
612 1.0 0.27470448689061455 0.16283651692075463
613 1.0 0.5475146152650392 0.00891251912465929
614 0.6190303884133233 0.5028609341116255 -0.22932960389988732
615 0.8381795986932272 0.3379187024783701 0.3229866880453163
616 1.0 0.10615696830230115 0.3021801062686793
617 1.0 1.0 0.75
618 -1.0 -0.11489728046918957 0.30562941189582016
619 -1.0 0.002634374274221085 0.5695242987293623
620 0.43524608476604576 0.4110369128043112 0.5919535780898235
621 0.3017064625979382 0.6482615794299582 0.585510232448134
622 -0.04451282223523789 1.0 0.564171928713907
623 -0.04443689176233523 -0.5377255929275713 0.3460233664768533
624 0.141720444023419 -0.49491712451926073 0.5320072109031244
625 0.07604721289312999 -0.3637029129367726 0.36176071847833957
626 -0.16883940281571852 -0.3609546376690085 0.4010138522916249
627 -0.10316617168542952 -0.4921688492514966 0.5712603447164097
628 0.0173179329700357 -0.31814616926069794 0.586997696717896
629 -1.0 -0.2755538562508121 0.17335294358723885
630 -0.7834884463305658 -0.2742766937420643 0.36360367631202084
631 0.6542989641508348 0.2805348322233634 0.5966567057594585
632 -0.38936217959405894 -0.4381379679727204 1.0
633 0.784759516349439 -0.25890069781628444 0.4067533177443847
634 1.0 -0.4288595498831297 0.3867847976891703
635 0.784759516349439 -0.3841951920571577 0.23463159599239303
636 0.784759516349439 -0.10772344602059203 0.14577075650753435
637 1.0 -0.15238780384656403 0.2979239582043116
638 1.0 -0.2776822980874373 0.12580223645231992
639 -0.4016574404468567 0.5827560907149432 0.41993233010739983
640 0.3660361059361885 0.7625776675426501 0.25645374881268135
641 0.5020654076048923 -0.6204771233979194 0.3311875829649238
642 0.26540629223655055 -0.04532239536575844 0.5532405304695587
643 0.0437679139263325 -0.04780034827723201 0.5462815581156193
644 -0.201118701782516 -0.0450520730094679 0.5855346919289046
645 0.7732581134867405 -0.40262059720091814 -0.028911801674540438
646 1.0 -0.2712883414846554 -0.12503060087603224
647 1.0 -0.5477600875212211 -0.03616976139117356
648 0.8533568972818975 -0.16715978150360344 0.5635246364074693
649 0.8533568972818975 -0.01598252970791103 0.30254207517061893
650 1.0 -0.04502028349339127 0.5631626675055297
651 0.4876609151790059 0.09974757321599736 0.5634396257041416
652 0.27047331503077365 -0.12526367646604908 -1.0
653 0.30115618362050145 -0.2709432063156848 -0.7752195441599383
654 -0.3972727876999722 -0.15702149042462765 0.5237936004407631
655 -0.10234753280944564 -0.13128829894585348 0.34806661201004885
656 0.14253908289940287 -0.1340365742136176 0.3088134781967635
657 -0.07589755185314884 0.13905752203761246 0.3073504734077721
658 -0.7517735775777241 -0.2902355872236202 0.08487976525043406
659 -1.0 -0.27381502014125925 -0.07700260850823892
660 -1.0 -0.5481694645182543 0.05551543017821914
661 -1.0 -0.4196373582423022 -0.3623768815065542
662 -0.7684063079072223 -0.3527336130361072 -0.17178866394817627
663 -0.18104492571488784 0.023623236961061167 -0.7776758383743028
664 -0.2931203397034122 -0.2615962514363339 -0.7776758383743028
665 -0.271084798288015 -0.1251302286291499 -1.0
666 -0.3708228067436754 0.11332433055883828 0.4830774618384863
667 -0.08656996468410871 0.4649963675111186 0.5453341800388778
668 -0.75 0.75 1.0
669 -0.1995351045903584 0.41276435162326663 0.40246427814028873
670 -0.551880372057808 0.47233094105398243 -0.27196301898173014
671 -0.5411047114791825 0.6872220636038269 -0.09577861704376534
672 -0.3632452238658863 0.4895700326164114 -0.0726909437110852
673 -0.3800547660370446 0.5874568464627401 -0.3638194196690123
674 -0.75 1.0 1.0
675 -1.0 1.0 0.75
676 -1.0 0.75 1.0
677 -0.0020327052967625825 0.23787568766290978 -0.781002781689144
678 -0.14440988626358997 0.29838855640142903 -1.0
679 0.75 1.0 -1.0
680 1.0 1.0 -0.75
681 1.0 0.75 -1.0
682 0.09701391931435688 -0.5418546779190071 -0.6759802955687286
683 -0.30173938502249875 -0.5610876670354719 -0.44196552687119706
684 0.1457408264570692 0.14153547494908603 0.3143094457617115
685 -0.2768962394630714 0.12607023592464595 -1.0
686 -0.2651633389415653 -0.5639498059641801 -0.11151798276868496
687 -0.24115540789374723 -0.6241057835417414 0.3225972422508627
688 -0.30682863902403623 -0.49289157195925326 0.15235074982607788
689 -0.0684448228101533 -0.47756961535000997 -0.08809185854269441
690 -0.05686490269057343 -0.7032556906725416 0.10797045257618643
691 -0.04361825288635135 -0.17684504262192813 0.12282963377049239
692 0.21502704264264683 -0.2857642500078741 0.06222920512227392
693 0.14853517263637395 -0.5154305887310291 0.11517644540384997
694 -0.0019529528038804145 -0.24790327662685496 -0.14103909882427046
695 0.19020047271884488 -0.5864888227359559 -0.14869228719091288
696 -0.5567559315658799 -0.3662920411897599 -0.3403538342920154
697 -0.2817960692710635 -0.35383222350922483 -0.2503488985582756
698 -0.5201798854849464 -0.3691541801184681 -0.009906290189503286
699 0.469595139994921 -0.2924501071297194 -0.5608360384281634
700 -0.013927317035724363 -0.40650089837752845 -0.541210235809737
701 -0.1814433674229683 -0.12674310756050677 -0.6429057786153112
702 0.48243287113530364 -0.6012225521140608 -0.25832848589040935
703 0.4768483475694265 -0.4377184731974042 -0.10895533126531398
704 0.7561653743819061 0.19227694726607814 -0.28296765605116425
705 0.5943449730751333 0.31176488727618845 0.023840246643908936
706 0.5370161641020021 0.35231290508654767 -0.28404391777671356
707 0.2789571983871362 0.49140079280239424 -0.549609665849399
708 0.09822213528536627 0.7196963168414019 -0.546960362992339
709 0.1187174904955528 0.48784002295386264 -0.41226705968868904
710 0.4014618715486087 0.5398481820734531 -0.3998711621597999
711 0.31136358477081605 0.26474125303831464 -0.4064838221594833
712 0.18885891160934354 0.2162938637672558 -0.5562223258490824
713 -0.32517658405087235 0.2856530517194744 -0.7776758383743028
714 -0.1942955731149263 -0.2688700585379151 -0.4536561339430314
715 -0.5510238612738907 0.18789952017566613 0.22025091366327088
716 -0.5569921112129328 0.4698606766825024 0.2994600571185235
717 -0.3548697753564345 0.2998689375908259 0.28199200515141243
718 -0.3655579189471305 -0.4473348282831786 0.37758772806563434
719 -0.5352620239082899 -0.28895842471487243 0.27513049797521605
720 -1.0 -1.0 0.75
721 -0.3797361591205737 0.4873395412400945 0.1396377299650733
722 0.009846691191218282 0.0020414130654071716 -0.5528953825342411
723 -0.18279940308404496 0.22514018298095517 -0.5586786200634468
724 -0.004850615486740262 0.5649256365552346 0.029733880610230523
725 -0.2079105530998102 0.6024654466488522 0.04778132927779111
726 -0.08427300036260066 0.328758617063198 -0.04733247545472552
727 -0.09760340025552128 0.5220442858539864 -0.36327645388832774
728 0.00954321722700091 0.24610696489201533 -0.24606158494468588
729 -0.16946900319112435 0.031854514190166716 -0.2427346416298446
730 -0.27661562067364653 0.3077918351521378 -0.35994951057348645
731 0.1773627415784622 -0.2777163777516145 -0.45119983972866695
732 0.1902149472704202 -0.13558942677420616 -0.6404494844009467
733 0.5832346898716452 -0.4154203953345881 0.43119963261091176
734 0.2654528756887764 -0.5633615787330417 -0.46159678983695374
735 0.21420840376666295 -0.6466448003135172 0.2854229378286348
736 0.2846949220467012 -0.09913292708830324 -0.10130214289867157
737 0.25986835212289927 -0.3998574998163851 -0.31222363521185836
738 0.20218931150226416 0.023008194976467333 -0.24027834741548015
739 0.46401061642904384 -0.12894602821306278 -0.41146288380306806
740 0.6518320708041037 -0.3236794790219071 0.5879709512739963
741 0.6391216655621645 0.5270685440564717 0.3518626093329378
742 0.13506841362610933 0.4674743204225922 0.5522931523928172
743 0.4295774478616483 -0.4687494476036629 0.5777718560394134
744 0.41586179068888107 -0.26756539225938725 0.4011723394761091
745 0.48834975043212503 -0.41929306805364375 0.15458806640161948
746 0.33469250842212817 -0.47262212032271855 0.3011602898301211
747 0.00352483302271156 0.3752245415296491 0.38441682947272815
748 0.3090933432061831 -0.6427721275944616 0.5620345040379271
749 1.0 -0.75 1.0
750 0.10229600199578193 0.28898831559326355 0.14694874955387238
751 -0.10076393561728803 0.32652812568688105 0.16499619822143297
752 0.47248361659033566 0.3462812850491057 0.3186455292776209
753 0.6915364959751247 0.2157792044681579 0.3233486569472559
754 0.3918012603047585 0.5584897534484887 0.4245928818819844
755 0.4469178773242095 0.07720597605140922 -0.290656577776397
756 0.5580176298361794 -0.2326617451340729 -0.008943281619326005
757 0.4190635342465474 0.008006656903316367 0.40666830704105705
758 0.6381164136313364 -0.12249542367763144 0.41137143471069204
759 -0.4493121196583074 -0.07407443269220315 -0.3520444413638497
760 -0.75 1.0 -0.75
761 -1.0 1.0 -0.75
762 -0.75 1.0 -1.0
763 -1.0 0.75 -1.0
764 -0.75 -1.0 -1.0
765 -1.0 -1.0 -0.75
766 -1.0 -0.75 -1.0
767 1.0 -1.0 -0.75
768 0.75 -1.0 -1.0
769 1.0 -0.75 -1.0
770 -0.44844122669441 0.19266592974338015 -0.2680931098862043
771 -0.5359417228505472 0.10770376477207044 -0.06478587450144846
772 -0.5518947542377881 -0.07884084225991717 0.13629958218562543
773 -0.27205163777060504 0.027088104622452702 0.24560938191963055
774 -0.3385435077768779 -0.2025782341007023 0.2985566222012066
775 -0.3234613693535344 -0.282773989504298 0.013519834036487266
776 0.4290387921290484 0.49373412569328323 0.1512848330697818
777 0.7561653743819061 0.08000315310011952 0.003033664867271968
778 0.2251632113329296 0.3777024944411227 0.39137580182666754
779 0.6095222716638036 0.0652311754430801 0.26863434307042966
780 0.5409248907313451 -0.026509740869600895 0.11186302440734508
781 0.5294234878686466 -0.04493514601336135 -0.15168037325958839
782 0.024901272905951233 0.5704916751250453 -0.21353795019872868
783 0.21147027526433382 0.5307213736551109 -0.019256725190130775
784 -0.2560986063833641 0.2136327116544403 0.04452392523255666
785 0.3767764562104188 0.34875213523801607 -0.14670131161600364
786 -0.25696949934726154 -0.05310765078114299 -0.03942740624508878
787 0.39046939227901456 0.1957332560240279 0.26393121540079467
788 0.3470245678177273 0.34318609666820543 0.09657051919295556
789 0.2676021829418669 0.10701907717616876 0.01950416312799952
790 0.29619632490939973 -0.08070752194454278 0.1622412547682619
791 0.13204789038847342 0.2945543541630742 -0.09632308125508682
$EndNodes
$Elements
622
1 11 2 1 1 109 18 17 4 134 135 136 137 139 138
2 11 2 1 1 99 24 11 12 140 141 142 143 145 144
3 11 2 1 1 24 88 13 12 146 147 148 144 150 149
4 11 2 1 1 103 29 21 25 151 152 153 154 156 155
5 11 2 1 1 104 24 13 21 157 148 158 159 161 160
6 11 2 1 1 102 29 28 23 162 163 164 165 167 166
7 11 2 1 1 106 28 20 23 168 169 170 171 172 167
8 11 2 1 1 108 19 27 64 173 174 175 176 178 177
9 11 2 1 1 100 21 29 24 179 152 180 181 182 160
10 11 2 1 1 102 29 23 22 162 166 165 183 185 184
11 11 2 1 1 107 64 27 109 186 178 187 188 190 189
12 11 2 1 1 10 96 22 11 191 192 193 194 196 195
13 11 2 1 1 116 115 94 43 197 198 199 200 202 201
14 11 2 1 1 105 15 25 21 203 204 205 206 156 207
15 11 2 1 1 115 94 43 30 198 202 201 208 210 209
16 11 2 1 1 14 87 13 21 211 212 213 214 161 215
17 11 2 1 1 113 33 42 32 216 217 218 219 221 220
18 11 2 1 1 45 60 35 34 222 223 224 225 227 226
19 11 2 1 1 61 45 60 112 228 222 229 230 232 231
20 11 2 1 1 114 36 46 35 233 234 235 236 238 237
21 11 2 1 1 118 47 46 37 239 240 241 242 244 243
22 11 2 1 1 47 72 38 37 245 246 247 243 249 248
23 11 2 1 1 39 81 48 40 250 251 252 253 255 254
24 11 2 1 1 117 49 48 40 256 257 258 259 255 260
25 11 2 1 1 119 39 48 38 261 252 262 263 265 264
26 11 2 1 1 31 93 42 32 266 267 268 269 221 270
27 11 2 1 1 112 61 65 60 230 271 272 232 273 229
28 11 2 1 1 111 59 58 65 274 275 276 277 279 278
29 11 2 1 1 106 63 20 28 280 281 170 168 169 282
30 11 2 1 1 107 27 28 29 187 283 284 285 163 286
31 11 2 1 1 111 59 52 58 274 287 288 276 289 275
32 11 2 1 1 119 70 68 38 290 291 292 263 294 293
33 11 2 1 1 112 65 58 60 272 279 295 232 296 273
34 11 2 1 1 114 53 35 60 297 298 236 299 223 300
35 11 2 1 1 118 69 37 46 301 302 242 241 244 303
36 11 2 1 1 59 51 74 52 304 305 306 287 308 307
37 11 2 1 1 109 18 26 17 134 309 310 136 311 135
38 11 2 1 1 109 75 74 17 312 313 314 136 316 315
39 11 2 1 1 105 14 21 87 317 214 206 318 215 211
40 11 2 1 1 122 89 86 87 319 320 321 322 324 323
41 11 2 1 1 49 84 41 40 325 326 327 260 329 328
42 11 2 1 1 85 70 67 68 330 331 332 333 334 291
43 11 2 1 1 90 82 79 80 335 336 337 338 340 339
44 11 2 1 1 91 55 57 54 341 342 343 344 346 345
45 11 2 1 1 113 93 32 42 347 270 219 218 221 267
46 11 2 1 1 31 94 30 43 348 209 349 350 210 202
47 11 2 1 1 117 81 40 48 351 254 259 258 255 251
48 11 2 1 1 86 71 66 67 352 353 354 355 357 356
49 11 2 1 1 99 2 12 11 358 359 143 142 145 360
50 11 2 1 1 104 87 21 13 361 215 159 158 161 212
51 11 2 1 1 105 104 87 21 362 361 318 206 215 159
52 11 2 1 1 110 57 62 65 363 364 365 366 368 367
53 11 2 1 1 115 49 41 30 369 327 370 208 372 371
54 11 2 1 1 115 82 80 41 373 339 374 370 376 375
55 11 2 1 1 99 24 12 88 140 144 143 377 149 146
56 11 2 1 1 95 83 78 79 378 379 380 381 383 382
57 11 2 1 1 16 15 25 76 384 204 385 386 388 387
58 11 2 1 1 105 71 15 66 389 390 203 391 392 353
59 11 2 1 1 105 71 76 15 389 393 394 203 387 390
60 11 2 1 1 105 66 14 87 391 395 317 318 211 396
61 11 2 1 1 101 10 22 23 397 193 398 399 185 400
62 11 2 1 1 106 9 23 20 401 402 171 170 172 403
63 11 2 1 1 106 1 20 56 404 405 170 406 408 407
64 11 2 1 1 97 9 10 23 409 410 411 412 400 402
65 11 2 1 1 83 89 104 88 413 414 415 416 418 417
66 11 2 1 1 99 96 11 22 419 195 142 420 196 192
67 11 2 1 1 109 27 18 64 190 421 134 189 422 178
68 11 2 1 1 111 59 65 64 274 278 277 423 425 424
69 11 2 1 1 121 16 25 76 426 385 427 428 388 386
70 11 2 1 1 109 51 64 18 429 430 189 134 422 431
71 11 2 1 1 19 27 64 18 174 178 177 432 422 421
72 11 2 1 1 108 63 64 65 433 434 176 435 425 436
73 11 2 1 1 113 57 33 54 437 438 216 439 440 346
74 11 2 1 1 116 31 42 43 441 268 442 200 443 350
75 11 2 1 1 116 31 94 93 441 348 199 444 445 266
76 11 2 1 1 36 69 46 37 446 303 234 447 244 302
77 11 2 1 1 114 53 69 36 297 448 449 233 446 450
78 11 2 1 1 73 53 58 52 451 452 453 454 289 455
79 11 2 1 1 114 45 35 46 456 224 236 235 238 457
80 11 2 1 1 119 39 81 48 261 250 458 262 251 252
81 11 2 1 1 119 47 38 48 459 247 263 262 265 460
82 11 2 1 1 116 50 49 43 461 462 463 200 465 464
83 11 2 1 1 114 118 46 69 466 241 235 449 303 301
84 11 2 1 1 113 33 44 42 216 467 468 218 469 217
85 11 2 1 1 113 127 91 93 470 471 472 347 474 473
86 11 2 1 1 61 33 34 44 475 476 477 478 479 467
87 11 2 1 1 55 92 62 56 480 481 482 483 485 484
88 11 2 1 1 114 53 60 58 297 300 299 486 296 452
89 11 2 1 1 109 51 17 74 429 487 136 314 316 305
90 11 2 1 1 109 59 51 74 488 304 429 314 305 306
91 11 2 1 1 113 61 44 33 489 478 468 216 467 475
92 11 2 1 1 61 45 44 34 228 490 478 477 479 225
93 11 2 1 1 133 44 45 50 491 490 492 493 495 494
94 11 2 1 1 110 55 92 62 496 480 497 365 481 482
95 11 2 1 1 63 19 20 28 498 499 281 282 169 500
96 11 2 1 1 108 19 28 27 173 500 501 175 283 174
97 11 2 1 1 110 63 65 62 502 436 366 365 368 503
98 11 2 1 1 114 73 53 58 504 451 297 486 452 453
99 11 2 1 1 111 59 74 52 274 306 505 288 308 287
100 11 2 1 1 131 72 69 77 506 507 508 509 511 510
101 11 2 1 1 120 86 67 71 512 355 513 514 356 352
102 11 2 1 1 119 117 48 81 515 258 262 458 251 351
103 11 2 1 1 119 47 72 38 459 245 516 263 246 247
104 11 2 1 1 119 118 72 47 517 518 516 459 245 239
105 11 2 1 1 120 71 67 70 514 356 513 519 331 520
106 11 2 1 1 120 77 71 70 521 522 514 519 520 523
107 11 2 1 1 105 103 21 25 524 153 206 205 156 154
108 11 2 1 1 121 77 76 71 525 526 428 527 393 522
109 11 2 1 1 75 26 16 17 528 529 530 315 531 311
110 11 2 1 1 121 26 25 16 532 533 427 426 385 529
111 11 2 1 1 107 26 29 25 534 535 285 536 155 533
112 11 2 1 1 121 105 76 25 537 394 428 427 388 205
113 11 2 1 1 121 109 26 75 538 310 532 539 528 312
114 11 2 1 1 109 111 59 74 540 274 488 314 306 505
115 11 2 1 1 114 111 73 58 541 542 504 486 453 276
116 11 2 1 1 124 89 84 81 543 544 545 546 548 547
117 11 2 1 1 119 85 81 68 549 550 458 292 551 333
118 11 2 1 1 120 77 70 72 521 523 519 552 553 510
119 11 2 1 1 124 89 85 86 543 554 555 556 557 320
120 11 2 1 1 125 95 79 83 558 381 559 560 382 378
121 11 2 1 1 115 49 84 41 369 325 561 370 326 327
122 11 2 1 1 115 90 30 80 562 563 208 374 564 338
123 11 2 1 1 115 90 94 30 562 565 198 208 209 563
124 11 2 1 1 99 95 11 96 566 567 142 419 195 568
125 11 2 1 1 125 83 79 82 560 382 559 569 336 570
126 11 2 1 1 126 89 83 82 571 413 572 573 570 574
127 11 2 1 1 99 95 78 11 566 380 575 142 576 567
128 11 2 1 1 100 24 29 22 181 182 180 577 184 578
129 11 2 1 1 99 83 12 78 579 580 143 575 581 379
130 11 2 1 1 105 86 66 87 582 354 391 318 396 324
131 11 2 1 1 29 21 100 103 152 179 180 151 583 153
132 11 2 1 1 127 98 93 94 584 585 473 586 445 587
133 11 2 1 1 126 89 82 84 571 574 573 588 589 544
134 11 2 1 1 115 90 80 82 562 338 374 373 339 335
135 11 2 1 1 110 91 55 57 590 341 496 363 342 343
136 11 2 1 1 110 61 57 65 591 592 363 366 367 271
137 11 2 1 1 113 91 54 32 472 344 439 219 594 593
138 11 2 1 1 101 102 23 22 595 165 399 398 185 183
139 11 2 1 1 123 122 104 89 596 597 598 599 414 319
140 11 2 1 1 126 125 82 83 600 569 573 572 570 560
141 11 2 1 1 125 98 94 90 601 587 602 603 565 604
142 11 2 1 1 106 92 56 62 605 484 406 606 485 481
143 11 2 1 1 106 97 9 56 607 409 401 406 609 608
144 11 2 1 1 101 10 96 22 397 191 610 398 192 193
145 11 2 1 1 106 62 56 20 606 485 406 170 408 611
146 11 2 1 1 125 95 98 90 558 612 601 603 604 613
147 11 2 1 1 99 95 83 78 566 378 579 575 379 380
148 11 2 1 1 125 115 82 90 614 373 569 603 335 562
149 11 2 1 1 125 95 96 98 558 568 615 601 616 612
150 11 2 1 1 99 83 88 12 579 416 377 143 149 580
151 11 2 1 1 99 24 22 11 140 578 420 142 196 141
152 11 2 1 1 99 78 2 11 575 617 358 142 360 576
153 11 2 1 1 99 78 12 2 575 581 143 358 359 617
154 11 2 1 1 121 77 75 76 525 618 539 428 619 526
155 11 2 1 1 100 99 24 22 620 140 181 577 578 420
156 11 2 1 1 104 99 88 24 621 377 418 157 146 140
157 11 2 1 1 104 89 87 88 414 323 361 418 622 417
158 11 2 1 1 132 108 102 107 623 624 625 626 628 627
159 11 2 1 1 121 77 74 75 525 629 630 539 313 618
160 11 2 1 1 101 99 22 96 631 420 398 610 192 419
161 11 2 1 1 107 27 29 26 187 286 285 534 535 632
162 11 2 1 1 124 89 81 85 543 547 546 555 550 554
163 11 2 1 1 128 97 92 98 633 634 635 636 638 637
164 11 2 1 1 108 107 27 28 627 187 175 501 283 284
165 11 2 1 1 122 105 87 86 639 318 322 321 324 582
166 11 2 1 1 104 88 87 13 418 622 361 158 212 147
167 11 2 1 1 104 89 83 123 414 413 415 598 640 599
168 11 2 1 1 104 24 88 13 157 146 418 158 147 148
169 11 2 1 1 106 110 92 62 641 497 605 606 481 365
170 11 2 1 1 106 63 62 20 280 503 606 170 611 281
171 11 2 1 1 100 102 22 29 642 183 577 180 184 162
172 11 2 1 1 107 102 103 29 628 643 644 285 151 162
173 11 2 1 1 127 98 92 91 584 638 645 471 647 646
174 11 2 1 1 101 97 98 96 648 637 649 610 616 650
175 11 2 1 1 127 98 91 93 584 646 471 473 474 585
176 11 2 1 1 100 101 22 102 651 398 577 642 183 595
177 11 2 1 1 116 50 42 44 461 652 442 653 469 494
178 11 2 1 1 108 107 28 102 627 284 501 624 164 628
179 11 2 1 1 107 102 29 28 628 162 285 284 163 164
180 11 2 1 1 107 103 25 29 644 154 536 285 155 151
181 11 2 1 1 121 107 25 26 654 536 427 532 533 534
182 11 2 1 1 129 107 102 103 655 628 656 657 643 644
183 11 2 1 1 111 77 73 74 658 659 542 505 660 629
184 11 2 1 1 131 69 73 77 508 661 662 509 659 511
185 11 2 1 1 118 50 45 46 663 495 664 241 457 665
186 11 2 1 1 105 15 76 25 203 387 394 205 388 204
187 11 2 1 1 121 105 25 103 537 205 427 666 154 524
188 11 2 1 1 105 104 21 103 362 159 206 524 153 667
189 11 2 1 1 105 14 15 21 317 668 203 206 207 214
190 11 2 1 1 122 105 103 104 639 524 669 597 667 362
191 11 2 1 1 105 86 71 66 582 352 389 391 353 354
192 11 2 1 1 120 119 85 124 670 549 671 672 555 673
193 11 2 1 1 14 66 15 3 395 392 668 674 676 675
194 11 2 1 1 15 66 14 105 392 395 668 203 317 391
195 11 2 1 1 115 49 30 43 369 371 208 201 210 465
196 11 2 1 1 117 50 48 49 677 678 258 256 257 462
197 11 2 1 1 116 50 43 42 461 464 200 442 443 652
198 11 2 1 1 115 82 41 84 373 375 370 561 326 589
199 11 2 1 1 41 80 30 5 376 564 372 679 681 680
200 11 2 1 1 30 80 41 115 564 376 372 208 370 374
201 11 2 1 1 112 61 45 44 230 228 231 682 490 478
202 11 2 1 1 60 45 61 34 222 228 229 226 477 225
203 11 2 1 1 114 112 60 45 683 232 299 456 222 231
204 11 2 1 1 129 100 103 102 684 583 657 656 643 642
205 11 2 1 1 118 50 46 47 663 665 241 239 240 685
206 11 2 1 1 111 73 52 74 542 454 288 505 308 660
207 11 2 1 1 111 73 58 52 542 453 276 288 289 454
208 11 2 1 1 111 112 65 58 686 272 277 276 279 295
209 11 2 1 1 108 111 65 64 687 277 435 176 425 423
210 11 2 1 1 109 111 64 59 540 423 189 488 424 274
211 11 2 1 1 132 111 112 65 688 686 689 690 272 277
212 11 2 1 1 132 129 110 112 691 692 693 689 695 694
213 11 2 1 1 121 109 75 74 538 312 539 630 313 314
214 11 2 1 1 114 112 58 60 683 295 486 299 296 232
215 11 2 1 1 131 114 112 111 696 683 697 698 686 541
216 11 2 1 1 113 116 42 44 699 442 218 468 469 653
217 11 2 1 1 45 44 133 112 490 491 492 231 700 682
218 11 2 1 1 116 115 43 49 197 201 200 463 465 369
219 11 2 1 1 116 31 93 42 441 266 444 442 267 268
220 11 2 1 1 133 45 118 50 492 664 701 493 663 495
221 11 2 1 1 113 110 91 127 702 590 472 470 471 703
222 11 2 1 1 125 94 130 115 602 704 705 614 706 198
223 11 2 1 1 116 31 43 94 441 350 200 199 202 348
224 11 2 1 1 117 115 84 126 707 561 708 709 588 710
225 11 2 1 1 126 117 115 116 709 707 710 711 197 712
226 11 2 1 1 118 50 47 48 663 685 239 713 460 678
227 11 2 1 1 118 47 37 72 239 243 242 518 248 245
228 11 2 1 1 118 72 37 69 518 248 242 301 302 507
229 11 2 1 1 114 118 45 46 466 664 456 235 457 241
230 11 2 1 1 118 45 133 112 664 492 701 714 700 231
231 11 2 1 1 119 118 47 48 517 239 459 262 460 713
232 11 2 1 1 117 116 50 49 712 461 677 256 462 463
233 11 2 1 1 121 120 105 103 715 716 537 666 524 717
234 11 2 1 1 111 73 131 114 542 662 698 541 696 504
235 11 2 1 1 109 107 26 27 188 534 310 190 632 187
236 11 2 1 1 109 27 26 18 190 632 310 134 309 421
237 11 2 1 1 109 59 64 51 488 424 189 429 430 304
238 11 2 1 1 109 111 107 64 540 718 188 189 186 423
239 11 2 1 1 109 75 17 26 312 315 136 310 311 528
240 11 2 1 1 121 109 111 107 538 540 719 654 718 188
241 11 2 1 1 109 51 4 17 429 720 137 136 139 487
242 11 2 1 1 109 51 18 4 429 431 134 137 138 720
243 11 2 1 1 120 105 86 71 716 582 512 514 352 389
244 11 2 1 1 122 104 89 87 597 414 319 322 323 361
245 11 2 1 1 122 105 104 87 639 362 597 322 361 318
246 11 2 1 1 86 105 120 122 582 716 512 321 721 639
247 11 2 1 1 126 115 84 82 710 561 588 573 589 373
248 11 2 1 1 117 116 49 115 712 463 256 707 369 197
249 11 2 1 1 118 116 50 117 722 461 663 723 677 712
250 11 2 1 1 124 123 89 122 724 599 543 725 319 596
251 11 2 1 1 117 84 40 81 708 328 259 351 254 548
252 11 2 1 1 119 117 118 48 515 723 517 262 713 258
253 11 2 1 1 129 124 117 118 726 727 728 729 723 730
254 11 2 1 1 118 116 112 133 722 731 714 701 700 732
255 11 2 1 1 117 49 40 84 256 260 259 708 328 325
256 11 2 1 1 117 118 48 50 723 713 258 677 678 663
257 11 2 1 1 124 119 117 118 673 515 727 730 723 517
258 11 2 1 1 110 55 62 57 496 482 365 363 364 342
259 11 2 1 1 110 91 92 55 590 647 497 496 480 341
260 11 2 1 1 128 106 92 97 733 605 635 633 634 607
261 11 2 1 1 110 112 61 65 695 230 591 366 271 272
262 11 2 1 1 113 61 110 112 489 591 702 734 695 230
263 11 2 1 1 106 110 62 63 641 365 606 280 503 502
264 11 2 1 1 108 110 63 65 735 502 433 435 436 366
265 11 2 1 1 129 127 112 116 736 737 694 738 731 739
266 11 2 1 1 132 108 107 111 623 627 626 688 718 687
267 11 2 1 1 101 97 96 10 648 650 610 397 191 411
268 11 2 1 1 106 101 23 97 740 399 171 607 412 648
269 11 2 1 1 101 97 10 23 648 411 397 399 400 412
270 11 2 1 1 125 99 96 95 741 419 615 558 568 566
271 11 2 1 1 100 99 104 24 620 621 742 181 157 140
272 11 2 1 1 128 106 102 110 733 743 744 745 746 641
273 11 2 1 1 123 122 103 104 596 669 747 598 667 597
274 11 2 1 1 106 101 102 23 740 595 743 171 165 399
275 11 2 1 1 106 97 23 9 607 412 171 401 402 409
276 11 2 1 1 106 102 28 23 743 164 168 171 167 165
277 11 2 1 1 106 97 56 92 607 608 406 605 484 634
278 11 2 1 1 108 106 28 63 748 168 501 433 282 280
279 11 2 1 1 108 106 110 102 748 641 735 624 746 743
280 11 2 1 1 128 106 110 92 733 641 745 635 497 605
281 11 2 1 1 106 1 9 20 404 749 401 170 403 405
282 11 2 1 1 106 1 56 9 404 407 406 401 609 749
283 11 2 1 1 129 123 122 103 750 596 751 657 669 747
284 11 2 1 1 100 125 99 101 752 741 620 651 631 753
285 11 2 1 1 100 101 99 22 651 631 620 577 420 398
286 11 2 1 1 126 125 115 82 600 614 710 573 373 569
287 11 2 1 1 100 102 29 103 642 162 180 583 151 643
288 11 2 1 1 99 104 83 123 621 415 579 754 640 598
289 11 2 1 1 83 104 99 88 415 621 579 416 377 418
290 11 2 1 1 125 99 95 83 741 566 558 560 378 579
291 11 2 1 1 127 116 94 93 739 199 586 473 445 444
292 11 2 1 1 130 94 116 115 704 199 755 706 197 198
293 11 2 1 1 127 110 91 92 703 590 471 645 647 497
294 11 2 1 1 128 127 98 92 756 584 636 635 638 645
295 11 2 1 1 113 116 93 42 699 444 347 218 267 442
296 11 2 1 1 129 110 102 132 692 746 656 691 625 693
297 11 2 1 1 128 100 102 101 757 642 744 758 595 651
298 11 2 1 1 113 116 44 112 699 653 468 734 682 731
299 11 2 1 1 110 61 113 57 591 489 702 363 437 592
300 11 2 1 1 113 112 44 61 734 682 468 489 478 230
301 11 2 1 1 119 70 38 72 290 293 263 516 246 553
302 11 2 1 1 69 72 131 118 507 506 508 301 759 518
303 11 2 1 1 119 39 68 81 261 760 292 458 551 250
304 11 2 1 1 119 85 68 70 549 333 292 290 291 330
305 11 2 1 1 68 39 38 8 760 264 294 761 763 762
306 11 2 1 1 38 39 68 119 264 760 294 263 292 261
307 11 2 1 1 114 111 58 112 541 276 486 683 295 686
308 11 2 1 1 114 45 60 35 456 222 299 236 223 224
309 11 2 1 1 114 36 69 46 233 446 449 235 303 234
310 11 2 1 1 114 118 112 45 466 714 683 456 231 664
311 11 2 1 1 114 73 69 53 504 661 449 297 448 451
312 11 2 1 1 131 73 111 77 662 542 698 509 658 659
313 11 2 1 1 36 53 35 114 450 298 237 233 236 297
314 11 2 1 1 35 53 36 7 298 450 237 764 766 765
315 11 2 1 1 113 61 33 57 489 475 216 437 438 592
316 11 2 1 1 113 127 116 112 470 739 699 734 731 737
317 11 2 1 1 113 127 93 116 470 473 347 699 444 739
318 11 2 1 1 113 91 57 54 472 343 437 439 346 344
319 11 2 1 1 113 91 32 93 472 593 219 347 270 474
320 11 2 1 1 91 110 113 57 590 702 472 343 437 363
321 11 2 1 1 113 127 112 110 470 737 734 702 695 703
322 11 2 1 1 54 33 32 6 440 220 594 767 769 768
323 11 2 1 1 32 33 54 113 220 440 594 219 439 216
324 11 2 1 1 108 63 19 64 433 498 173 176 177 434
325 11 2 1 1 27 64 107 108 178 186 187 175 627 176
326 11 2 1 1 108 63 28 19 433 282 501 173 500 498
327 11 2 1 1 108 111 64 107 687 423 176 627 186 718
328 11 2 1 1 132 108 111 65 623 687 688 690 277 435
329 11 2 1 1 108 106 102 28 748 743 624 501 164 168
330 11 2 1 1 108 106 63 110 748 280 433 735 502 641
331 11 2 1 1 120 72 118 131 552 518 770 771 759 506
332 11 2 1 1 120 122 105 103 721 639 716 717 524 669
333 11 2 1 1 120 119 72 70 670 516 552 519 553 290
334 11 2 1 1 131 121 120 77 772 715 771 509 521 525
335 11 2 1 1 129 107 121 132 655 654 773 691 774 626
336 11 2 1 1 131 132 111 112 775 688 698 697 686 689
337 11 2 1 1 124 119 85 81 673 549 555 546 550 458
338 11 2 1 1 124 119 81 117 673 458 546 727 351 515
339 11 2 1 1 121 105 71 76 537 389 527 428 393 394
340 11 2 1 1 120 85 70 67 671 330 519 513 331 332
341 11 2 1 1 124 120 86 85 672 512 556 555 557 671
342 11 2 1 1 120 86 85 67 512 557 671 513 332 355
343 11 2 1 1 121 77 111 74 525 658 719 630 505 629
344 11 2 1 1 121 109 107 26 538 188 654 532 534 310
345 11 2 1 1 121 107 103 25 654 644 666 427 154 536
346 11 2 1 1 121 109 74 111 538 314 630 719 505 540
347 11 2 1 1 121 75 26 16 539 528 532 426 529 530
348 11 2 1 1 121 75 16 76 539 530 426 428 386 619
349 11 2 1 1 121 120 77 71 715 521 525 527 522 514
350 11 2 1 1 121 120 71 105 715 514 527 537 389 716
351 11 2 1 1 125 95 90 79 558 613 603 559 337 381
352 11 2 1 1 125 123 99 83 776 754 741 560 579 640
353 11 2 1 1 125 90 82 79 603 335 569 559 336 337
354 11 2 1 1 125 101 96 99 753 610 615 741 419 631
355 11 2 1 1 125 115 90 94 614 562 603 602 565 198
356 11 2 1 1 130 94 125 98 704 602 705 777 601 587
357 11 2 1 1 125 101 98 96 753 649 601 615 616 610
358 11 2 1 1 104 99 100 123 621 620 742 598 778 754
359 11 2 1 1 100 123 103 104 778 747 583 742 667 598
360 11 2 1 1 100 125 123 99 752 776 778 620 754 741
361 11 2 1 1 100 104 21 24 742 159 179 181 160 157
362 11 2 1 1 100 104 103 21 742 667 583 179 153 159
363 11 2 1 1 129 127 110 112 736 703 692 694 695 737
364 11 2 1 1 130 125 101 98 705 753 779 777 649 601
365 11 2 1 1 130 128 127 98 780 756 781 777 584 636
366 11 2 1 1 129 100 123 103 684 778 750 657 747 583
367 11 2 1 1 124 117 81 84 727 351 546 545 548 708
368 11 2 1 1 126 124 89 84 782 543 571 588 544 545
369 11 2 1 1 124 122 89 86 725 319 543 556 320 321
370 11 2 1 1 124 120 122 86 672 721 725 556 321 512
371 11 2 1 1 126 124 123 89 782 724 783 571 599 543
372 11 2 1 1 129 120 103 122 784 717 657 751 669 721
373 11 2 1 1 85 119 120 70 549 670 671 330 519 290
374 11 2 1 1 124 120 119 118 672 670 673 730 517 770
375 11 2 1 1 126 125 83 123 600 560 572 783 640 776
376 11 2 1 1 126 123 83 89 783 640 572 571 413 599
377 11 2 1 1 130 126 115 116 785 710 706 755 197 711
378 11 2 1 1 126 124 84 117 782 545 588 709 708 727
379 11 2 1 1 84 115 117 49 561 707 708 325 256 369
380 11 2 1 1 129 124 122 123 726 725 751 750 596 724
381 11 2 1 1 129 117 116 118 728 712 738 729 722 723
382 11 2 1 1 129 120 118 131 784 770 729 786 759 771
383 11 2 1 1 128 127 92 110 756 645 635 745 497 703
384 11 2 1 1 128 101 97 98 758 648 633 636 637 649
385 11 2 1 1 128 106 97 101 733 607 633 758 648 740
386 11 2 1 1 128 106 101 102 733 740 758 744 595 743
387 11 2 1 1 130 100 101 125 787 651 779 705 753 752
388 11 2 1 1 130 100 125 123 787 752 705 788 776 778
389 11 2 1 1 132 129 107 102 691 655 626 625 628 656
390 11 2 1 1 130 129 116 127 789 738 755 781 739 736
391 11 2 1 1 132 121 111 107 774 719 688 626 718 654
392 11 2 1 1 129 121 103 120 773 666 657 784 717 715
393 11 2 1 1 129 124 120 122 726 672 784 751 721 725
394 11 2 1 1 129 128 100 102 790 757 684 656 642 744
395 11 2 1 1 129 126 124 123 791 782 726 750 724 783
396 11 2 1 1 129 126 117 124 791 709 728 726 727 782
397 11 2 1 1 129 126 116 117 791 711 738 728 712 709
398 11 2 1 1 130 126 123 125 785 783 788 705 776 600
399 11 2 1 1 130 129 128 100 789 790 780 787 757 684
400 11 2 1 1 128 129 127 110 790 736 756 745 703 692
401 11 2 1 1 127 129 128 130 736 790 756 781 780 789
402 11 2 1 1 130 128 98 101 780 636 777 779 649 758
403 11 2 1 1 130 129 123 126 789 750 788 785 783 791
404 11 2 1 1 130 128 101 100 780 758 779 787 651 757
405 11 2 1 1 130 129 100 123 789 684 787 788 778 750
406 11 2 1 1 130 127 94 98 781 586 704 777 587 584
407 11 2 1 1 116 94 130 127 199 704 755 739 781 586
408 11 2 1 1 130 126 125 115 785 600 705 706 614 710
409 11 2 1 1 116 126 129 130 711 791 738 755 789 785
410 11 2 1 1 132 108 110 102 623 735 693 625 746 624
411 11 2 1 1 132 108 65 110 623 435 690 693 366 735
412 11 2 1 1 121 107 129 103 654 655 773 666 657 644
413 11 2 1 1 131 129 120 121 786 784 771 772 715 773
414 11 2 1 1 132 110 65 112 693 366 690 689 272 695
415 11 2 1 1 131 129 112 118 786 694 697 759 714 729
416 11 2 1 1 102 110 129 128 746 692 656 744 790 745
417 11 2 1 1 133 116 44 50 732 653 491 493 494 461
418 11 2 1 1 133 116 112 44 732 731 700 491 682 653
419 11 2 1 1 112 116 118 129 731 722 714 694 729 738
420 11 2 1 1 50 116 118 133 461 722 663 493 701 732
421 11 2 1 1 131 120 72 77 771 552 506 509 510 521
422 11 2 1 1 131 114 118 112 696 466 759 697 714 683
423 11 2 1 1 73 69 131 114 661 508 662 504 696 449
424 11 2 1 1 131 114 69 118 696 449 508 759 301 466
425 11 2 1 1 111 77 121 131 658 525 719 698 772 509
426 11 2 1 1 118 72 120 119 518 552 770 517 670 516
427 11 2 1 1 111 121 132 131 719 774 688 698 775 772
428 11 2 1 1 131 132 129 121 775 691 786 772 773 774
429 11 2 1 1 131 132 112 129 775 689 697 786 694 691
430 11 2 1 1 118 120 129 124 770 784 729 730 726 672
431 9 2 2 2 11 2 12 360 359 145
432 9 2 2 2 15 21 14 207 214 668
433 9 2 2 2 11 22 10 196 193 194
434 9 2 2 2 23 9 10 402 410 400
435 9 2 2 2 13 24 12 148 144 150
436 9 2 2 2 20 1 9 405 749 403
437 9 2 2 2 3 15 14 676 668 674
438 9 2 2 2 16 25 15 385 204 384
439 9 2 2 2 26 25 16 533 385 529
440 9 2 2 2 4 18 17 138 135 139
441 9 2 2 2 26 18 27 309 421 632
442 9 2 2 2 20 28 19 169 500 499
443 9 2 2 2 29 23 22 166 185 184
444 9 2 2 2 11 12 24 145 144 141
445 9 2 2 2 21 13 14 161 213 214
446 9 2 2 2 24 13 21 148 161 160
447 9 2 2 2 20 23 28 172 167 169
448 9 2 2 2 23 10 22 400 193 185
449 9 2 2 2 28 27 19 283 174 500
450 9 2 2 2 24 29 22 182 184 578
451 9 2 2 2 11 24 22 141 578 196
452 9 2 2 2 15 25 21 204 156 207
453 9 2 2 2 29 24 21 182 160 152
454 9 2 2 2 26 17 18 311 135 309
455 9 2 2 2 26 16 17 529 531 311
456 9 2 2 2 27 18 19 421 432 174
457 9 2 2 2 29 25 26 155 533 535
458 9 2 2 2 23 29 28 166 163 167
459 9 2 2 2 29 26 27 535 632 286
460 9 2 2 2 29 21 25 152 156 155
461 9 2 2 2 29 27 28 286 283 163
462 9 2 2 2 20 9 23 403 402 172
463 9 2 2 2 44 42 33 469 217 467
464 9 2 2 2 32 6 33 769 768 220
465 9 2 2 2 30 31 43 349 350 210
466 9 2 2 2 5 30 41 681 372 679
467 9 2 2 2 42 32 33 221 220 217
468 9 2 2 2 36 35 7 237 764 766
469 9 2 2 2 34 35 45 227 224 225
470 9 2 2 2 45 35 46 224 238 457
471 9 2 2 2 39 38 8 264 763 762
472 9 2 2 2 37 38 47 249 247 243
473 9 2 2 2 39 48 38 252 265 264
474 9 2 2 2 49 40 41 260 329 327
475 9 2 2 2 31 32 42 269 221 268
476 9 2 2 2 49 41 30 327 372 371
477 9 2 2 2 31 42 43 268 443 350
478 9 2 2 2 42 44 50 469 494 652
479 9 2 2 2 33 34 44 476 479 467
480 9 2 2 2 45 46 50 457 665 495
481 9 2 2 2 35 36 46 237 234 238
482 9 2 2 2 44 34 45 479 225 490
483 9 2 2 2 40 49 48 260 257 255
484 9 2 2 2 36 37 46 447 244 234
485 9 2 2 2 39 40 48 253 255 252
486 9 2 2 2 46 37 47 244 243 240
487 9 2 2 2 50 46 47 665 240 685
488 9 2 2 2 50 47 48 685 460 678
489 9 2 2 2 48 47 38 460 247 265
490 9 2 2 2 43 49 30 465 371 210
491 9 2 2 2 50 49 43 462 465 464
492 9 2 2 2 43 42 50 443 652 464
493 9 2 2 2 48 49 50 257 462 678
494 9 2 2 2 44 45 50 490 495 494
495 9 2 2 2 54 57 33 346 438 440
496 9 2 2 2 58 53 60 452 300 296
497 9 2 2 2 35 53 7 298 765 764
498 9 2 2 2 51 52 59 307 287 304
499 9 2 2 2 65 58 60 279 296 273
500 9 2 2 2 4 51 18 720 431 138
501 9 2 2 2 54 33 6 440 768 767
502 9 2 2 2 60 34 61 226 477 229
503 9 2 2 2 34 33 61 476 475 477
504 9 2 2 2 53 35 60 298 223 300
505 9 2 2 2 20 56 1 408 407 405
506 9 2 2 2 55 56 62 483 485 482
507 9 2 2 2 63 20 19 281 499 498
508 9 2 2 2 18 51 64 431 430 422
509 9 2 2 2 54 55 57 345 342 346
510 9 2 2 2 62 56 20 485 408 611
511 9 2 2 2 52 53 58 455 452 289
512 9 2 2 2 19 18 64 432 422 177
513 9 2 2 2 52 58 59 289 275 287
514 9 2 2 2 57 62 65 364 368 367
515 9 2 2 2 35 34 60 227 226 223
516 9 2 2 2 57 65 61 367 271 592
517 9 2 2 2 65 60 61 273 229 271
518 9 2 2 2 57 61 33 592 475 438
519 9 2 2 2 57 55 62 342 482 364
520 9 2 2 2 19 64 63 177 434 498
521 9 2 2 2 65 62 63 368 503 436
522 9 2 2 2 63 62 20 503 611 281
523 9 2 2 2 59 65 64 278 425 424
524 9 2 2 2 51 59 64 304 424 430
525 9 2 2 2 63 64 65 434 425 436
526 9 2 2 2 59 58 65 275 279 278
527 9 2 2 2 73 69 53 661 448 451
528 9 2 2 2 70 68 38 291 294 293
529 9 2 2 2 38 68 8 294 761 763
530 9 2 2 2 66 67 71 357 356 353
531 9 2 2 2 69 72 37 507 248 302
532 9 2 2 2 3 66 15 675 392 676
533 9 2 2 2 53 36 7 450 766 765
534 9 2 2 2 73 53 52 451 455 454
535 9 2 2 2 17 75 74 315 313 316
536 9 2 2 2 17 51 4 487 720 139
537 9 2 2 2 77 70 72 523 553 510
538 9 2 2 2 51 17 74 487 316 305
539 9 2 2 2 76 15 71 387 390 393
540 9 2 2 2 75 16 76 530 386 619
541 9 2 2 2 67 68 70 334 291 331
542 9 2 2 2 37 36 69 447 446 302
543 9 2 2 2 38 37 72 249 248 246
544 9 2 2 2 16 15 76 384 387 386
545 9 2 2 2 67 70 71 331 520 356
546 9 2 2 2 69 36 53 446 450 448
547 9 2 2 2 72 70 38 553 293 246
548 9 2 2 2 73 77 69 659 511 661
549 9 2 2 2 71 70 77 520 523 522
550 9 2 2 2 52 51 74 307 305 308
551 9 2 2 2 73 52 74 454 308 660
552 9 2 2 2 17 16 75 531 530 315
553 9 2 2 2 73 74 77 660 629 659
554 9 2 2 2 15 66 71 392 353 390
555 9 2 2 2 74 75 77 313 618 629
556 9 2 2 2 72 69 77 507 511 510
557 9 2 2 2 76 71 77 393 522 526
558 9 2 2 2 75 76 77 619 526 618
559 9 2 2 2 85 81 68 550 551 333
560 9 2 2 2 82 80 41 339 376 375
561 9 2 2 2 41 80 5 376 680 679
562 9 2 2 2 78 79 83 383 382 379
563 9 2 2 2 81 84 40 548 328 254
564 9 2 2 2 2 78 12 617 581 359
565 9 2 2 2 68 39 8 760 762 761
566 9 2 2 2 85 68 67 333 334 332
567 9 2 2 2 86 66 87 354 396 324
568 9 2 2 2 14 66 3 395 675 674
569 9 2 2 2 89 82 84 574 589 544
570 9 2 2 2 66 14 87 395 211 396
571 9 2 2 2 88 12 83 149 580 416
572 9 2 2 2 87 13 88 212 147 622
573 9 2 2 2 79 80 82 340 339 336
574 9 2 2 2 40 39 81 253 250 254
575 9 2 2 2 41 40 84 329 328 326
576 9 2 2 2 13 12 88 150 149 147
577 9 2 2 2 79 82 83 336 570 382
578 9 2 2 2 81 39 68 250 760 551
579 9 2 2 2 84 82 41 589 375 326
580 9 2 2 2 85 89 81 554 547 550
581 9 2 2 2 83 82 89 570 574 413
582 9 2 2 2 67 66 86 357 354 355
583 9 2 2 2 85 67 86 332 355 557
584 9 2 2 2 14 13 87 213 212 211
585 9 2 2 2 85 86 89 557 320 554
586 9 2 2 2 12 78 83 581 379 580
587 9 2 2 2 86 87 89 324 323 320
588 9 2 2 2 84 81 89 548 547 544
589 9 2 2 2 88 83 89 416 413 417
590 9 2 2 2 87 88 89 622 417 323
591 9 2 2 2 80 90 30 338 563 564
592 9 2 2 2 32 93 91 270 474 593
593 9 2 2 2 32 54 6 594 767 769
594 9 2 2 2 56 55 92 483 480 484
595 9 2 2 2 98 91 93 646 474 585
596 9 2 2 2 1 56 9 407 609 749
597 9 2 2 2 80 30 5 564 681 680
598 9 2 2 2 93 31 94 266 348 445
599 9 2 2 2 31 30 94 349 209 348
600 9 2 2 2 54 32 91 594 593 344
601 9 2 2 2 11 78 2 576 617 360
602 9 2 2 2 79 78 95 383 380 381
603 9 2 2 2 96 11 10 195 194 191
604 9 2 2 2 9 56 97 609 608 409
605 9 2 2 2 80 79 90 340 337 338
606 9 2 2 2 95 78 11 380 576 567
607 9 2 2 2 55 54 91 345 344 341
608 9 2 2 2 10 9 97 410 409 411
609 9 2 2 2 55 91 92 341 647 480
610 9 2 2 2 90 95 98 613 612 604
611 9 2 2 2 32 31 93 269 266 270
612 9 2 2 2 90 98 94 604 587 565
613 9 2 2 2 98 93 94 585 445 587
614 9 2 2 2 90 94 30 565 209 563
615 9 2 2 2 90 79 95 337 381 613
616 9 2 2 2 10 97 96 411 650 191
617 9 2 2 2 98 95 96 612 568 616
618 9 2 2 2 96 95 11 568 567 195
619 9 2 2 2 92 98 97 638 637 634
620 9 2 2 2 56 92 97 484 634 608
621 9 2 2 2 96 97 98 650 637 616
622 9 2 2 2 92 91 98 647 646 638
$EndElements
