ISO-10303-21;
HEADER;
FILE_DESCRIPTION(('Open CASCADE Model'),'2;1');
FILE_NAME('Open CASCADE Shape Model','2026-03-30T20:23:41',('Author'),(
    'Open CASCADE'),'Open CASCADE STEP processor 7.8','Open CASCADE 7.8'
  ,'Unknown');
FILE_SCHEMA(('AUTOMOTIVE_DESIGN { 1 0 10303 214 1 1 1 1 }'));
ENDSEC;
DATA;
#1 = APPLICATION_PROTOCOL_DEFINITION('international standard',
  'automotive_design',2000,#2);
#2 = APPLICATION_CONTEXT(
  'core data for automotive mechanical design processes');
#3 = SHAPE_DEFINITION_REPRESENTATION(#4,#10);
#4 = PRODUCT_DEFINITION_SHAPE('','',#5);
#5 = PRODUCT_DEFINITION('design','',#6,#9);
#6 = PRODUCT_DEFINITION_FORMATION('','',#7);
#7 = PRODUCT('Open CASCADE STEP translator 7.8 1',
  'Open CASCADE STEP translator 7.8 1','',(#8));
#8 = PRODUCT_CONTEXT('',#2,'mechanical');
#9 = PRODUCT_DEFINITION_CONTEXT('part definition',#2,'design');
#10 = GEOMETRICALLY_BOUNDED_WIREFRAME_SHAPE_REPRESENTATION('',(#11,#15),
  #72);
#11 = AXIS2_PLACEMENT_3D('',#12,#13,#14);
#12 = CARTESIAN_POINT('',(0.,0.,0.));
#13 = DIRECTION('',(0.,0.,1.));
#14 = DIRECTION('',(1.,0.,-0.));
#15 = GEOMETRIC_CURVE_SET('',(#16,#23,#30,#37,#44,#51,#58,#65));
#16 = TRIMMED_CURVE('',#17,(#21,PARAMETER_VALUE(0.)),(#22,
    PARAMETER_VALUE(0.105)),.T.,.PARAMETER.);
#17 = LINE('',#18,#19);
#18 = CARTESIAN_POINT('',(3.625E-02,0.,1.75E-02));
#19 = VECTOR('',#20,1.);
#20 = DIRECTION('',(0.,1.,0.));
#21 = CARTESIAN_POINT('',(3.625E-02,-7.372571519631E-18,1.75E-02));
#22 = CARTESIAN_POINT('',(3.625E-02,0.105,1.75E-02));
#23 = TRIMMED_CURVE('',#24,(#28,PARAMETER_VALUE(0.)),(#29,
    PARAMETER_VALUE(7.071067811865E-03)),.T.,.PARAMETER.);
#24 = LINE('',#25,#26);
#25 = CARTESIAN_POINT('',(3.625E-02,0.105,1.75E-02));
#26 = VECTOR('',#27,1.);
#27 = DIRECTION('',(-0.707106781187,0.707106781187,0.));
#28 = CARTESIAN_POINT('',(3.625E-02,0.105,1.75E-02));
#29 = CARTESIAN_POINT('',(3.125E-02,0.11,1.75E-02));
#30 = TRIMMED_CURVE('',#31,(#35,PARAMETER_VALUE(0.)),(#36,
    PARAMETER_VALUE(7.25E-02)),.T.,.PARAMETER.);
#31 = LINE('',#32,#33);
#32 = CARTESIAN_POINT('',(3.125E-02,0.11,1.75E-02));
#33 = VECTOR('',#34,1.);
#34 = DIRECTION('',(-1.,0.,0.));
#35 = CARTESIAN_POINT('',(3.125E-02,0.11,1.75E-02));
#36 = CARTESIAN_POINT('',(-4.125E-02,0.11,1.75E-02));
#37 = TRIMMED_CURVE('',#38,(#42,PARAMETER_VALUE(0.)),(#43,
    PARAMETER_VALUE(7.071067811865E-03)),.T.,.PARAMETER.);
#38 = LINE('',#39,#40);
#39 = CARTESIAN_POINT('',(-4.125E-02,0.11,1.75E-02));
#40 = VECTOR('',#41,1.);
#41 = DIRECTION('',(-0.707106781187,-0.707106781187,0.));
#42 = CARTESIAN_POINT('',(-4.125E-02,0.11,1.75E-02));
#43 = CARTESIAN_POINT('',(-4.625E-02,0.105,1.75E-02));
#44 = TRIMMED_CURVE('',#45,(#49,PARAMETER_VALUE(0.)),(#50,
    PARAMETER_VALUE(0.105)),.T.,.PARAMETER.);
#45 = LINE('',#46,#47);
#46 = CARTESIAN_POINT('',(-4.625E-02,0.105,1.75E-02));
#47 = VECTOR('',#48,1.);
#48 = DIRECTION('',(-1.321694076935E-16,-1.,0.));
#49 = CARTESIAN_POINT('',(-4.625E-02,0.105,1.75E-02));
#50 = CARTESIAN_POINT('',(-4.625E-02,0.,1.75E-02));
#51 = TRIMMED_CURVE('',#52,(#56,PARAMETER_VALUE(0.)),(#57,
    PARAMETER_VALUE(7.071067811865E-03)),.T.,.PARAMETER.);
#52 = LINE('',#53,#54);
#53 = CARTESIAN_POINT('',(-4.625E-02,0.,1.75E-02));
#54 = VECTOR('',#55,1.);
#55 = DIRECTION('',(0.707106781187,-0.707106781187,0.));
#56 = CARTESIAN_POINT('',(-4.625E-02,0.,1.75E-02));
#57 = CARTESIAN_POINT('',(-4.125E-02,-5.E-03,1.75E-02));
#58 = TRIMMED_CURVE('',#59,(#63,PARAMETER_VALUE(0.)),(#64,
    PARAMETER_VALUE(7.25E-02)),.T.,.PARAMETER.);
#59 = LINE('',#60,#61);
#60 = CARTESIAN_POINT('',(-4.125E-02,-5.E-03,1.75E-02));
#61 = VECTOR('',#62,1.);
#62 = DIRECTION('',(1.,-1.794541526873E-16,0.));
#63 = CARTESIAN_POINT('',(-4.125E-02,-5.E-03,1.75E-02));
#64 = CARTESIAN_POINT('',(3.125E-02,-5.E-03,1.75E-02));
#65 = TRIMMED_CURVE('',#66,(#70,PARAMETER_VALUE(0.)),(#71,
    PARAMETER_VALUE(7.071067811865E-03)),.T.,.PARAMETER.);
#66 = LINE('',#67,#68);
#67 = CARTESIAN_POINT('',(3.125E-02,-5.E-03,1.75E-02));
#68 = VECTOR('',#69,1.);
#69 = DIRECTION('',(0.707106781187,0.707106781187,0.));
#70 = CARTESIAN_POINT('',(3.125E-02,-5.E-03,1.75E-02));
#71 = CARTESIAN_POINT('',(3.625E-02,-7.372571519631E-18,1.75E-02));
#72 = ( GEOMETRIC_REPRESENTATION_CONTEXT(3) 
GLOBAL_UNCERTAINTY_ASSIGNED_CONTEXT((#76)) GLOBAL_UNIT_ASSIGNED_CONTEXT(
(#73,#74,#75)) REPRESENTATION_CONTEXT('Context #1',
  '3D Context with UNIT and UNCERTAINTY') );
#73 = ( LENGTH_UNIT() NAMED_UNIT(*) SI_UNIT(.MILLI.,.METRE.) );
#74 = ( NAMED_UNIT(*) PLANE_ANGLE_UNIT() SI_UNIT($,.RADIAN.) );
#75 = ( NAMED_UNIT(*) SI_UNIT($,.STERADIAN.) SOLID_ANGLE_UNIT() );
#76 = UNCERTAINTY_MEASURE_WITH_UNIT(LENGTH_MEASURE(1.E-07),#73,
  'distance_accuracy_value','confusion accuracy');
#77 = PRODUCT_RELATED_PRODUCT_CATEGORY('part',$,(#7));
ENDSEC;
END-ISO-10303-21;
