ISO-10303-21;
HEADER;
FILE_DESCRIPTION(('STEP AP214'),'1');
FILE_NAME('york.step','2026-03-30T10:18:53',('Cubit 2025.3'),(' '),'Spatial InterOp 3D',' ',' ');
FILE_SCHEMA(('AUTOMOTIVE_DESIGN { 1 0 10303 214 1 1 1 1 }'));
ENDSEC;
DATA;
#1=PRODUCT_DEFINITION_CONTEXT('',#9,'design');
#2=APPLICATION_PROTOCOL_DEFINITION('INTERNATIONAL STANDARD','automotive_design',1994,#9);
#3=PRODUCT_CATEGORY_RELATIONSHIP('NONE','NONE',#10,#11);
#4=SHAPE_DEFINITION_REPRESENTATION(#12,#13);
#5= (GEOMETRIC_REPRESENTATION_CONTEXT(3)GLOBAL_UNCERTAINTY_ASSIGNED_CONTEXT((#16))GLOBAL_UNIT_ASSIGNED_CONTEXT((#18,#19,#20))REPRESENTATION_CONTEXT('NONE','WORKSPACE'));
#9=APPLICATION_CONTEXT(' ');
#10=PRODUCT_CATEGORY('part','NONE');
#11=PRODUCT_RELATED_PRODUCT_CATEGORY('detail',' ',(#22));
#12=PRODUCT_DEFINITION_SHAPE('NONE','NONE',#23);
#13=ADVANCED_BREP_SHAPE_REPRESENTATION('1',(#24,#25),#5);
#16=UNCERTAINTY_MEASURE_WITH_UNIT(LENGTH_MEASURE(1.0E-06),#18,'','');
#18= (CONVERSION_BASED_UNIT('MILLIMETRE',#28)LENGTH_UNIT()NAMED_UNIT(#31));
#19= (NAMED_UNIT(#33)PLANE_ANGLE_UNIT()SI_UNIT($,.RADIAN.));
#20= (NAMED_UNIT(#33)SOLID_ANGLE_UNIT()SI_UNIT($,.STERADIAN.));
#22=PRODUCT('1','1','PART-1-DESC',(#39));
#23=PRODUCT_DEFINITION('','NONE',#40,#1);
#24=MANIFOLD_SOLID_BREP('1',#41);
#25=AXIS2_PLACEMENT_3D('',#42,#43,#44);
#28=LENGTH_MEASURE_WITH_UNIT(LENGTH_MEASURE(1.0),#45);
#31=DIMENSIONAL_EXPONENTS(1.0,0.0,0.0,0.0,0.0,0.0,0.0);
#33=DIMENSIONAL_EXPONENTS(0.0,0.0,0.0,0.0,0.0,0.0,0.0);
#39=PRODUCT_CONTEXT('',#9,'mechanical');
#40=PRODUCT_DEFINITION_FORMATION_WITH_SPECIFIED_SOURCE(' ','NONE',#22,.NOT_KNOWN.);
#41=CLOSED_SHELL('',(#46,#47,#48,#49,#50,#51,#52,#53,#54,#55,#56,#57,#58));
#42=CARTESIAN_POINT('',(0.0,0.0,0.0));
#43=DIRECTION('',(0.0,0.0,1.0));
#44=DIRECTION('',(1.0,0.0,0.0));
#45= (NAMED_UNIT(#31)LENGTH_UNIT()SI_UNIT(.MILLI.,.METRE.));
#46=ADVANCED_FACE('',(#60),#61,.F.);
#47=ADVANCED_FACE('',(#62),#63,.F.);
#48=ADVANCED_FACE('',(#64),#65,.F.);
#49=ADVANCED_FACE('',(#66),#67,.F.);
#50=ADVANCED_FACE('',(#68),#69,.T.);
#51=ADVANCED_FACE('',(#70),#71,.T.);
#52=ADVANCED_FACE('',(#72),#73,.T.);
#53=ADVANCED_FACE('',(#74),#75,.F.);
#54=ADVANCED_FACE('',(#76),#77,.F.);
#55=ADVANCED_FACE('',(#78),#79,.T.);
#56=ADVANCED_FACE('',(#80),#81,.F.);
#57=ADVANCED_FACE('',(#82),#83,.F.);
#58=ADVANCED_FACE('',(#84),#85,.F.);
#60=FACE_OUTER_BOUND('',#86,.T.);
#61=PLANE('',#87);
#62=FACE_OUTER_BOUND('',#88,.T.);
#63=PLANE('',#89);
#64=FACE_OUTER_BOUND('',#90,.T.);
#65=PLANE('',#91);
#66=FACE_OUTER_BOUND('',#92,.T.);
#67=PLANE('',#93);
#68=FACE_OUTER_BOUND('',#94,.T.);
#69=PLANE('',#95);
#70=FACE_OUTER_BOUND('',#96,.T.);
#71=PLANE('',#97);
#72=FACE_OUTER_BOUND('',#98,.T.);
#73=PLANE('',#99);
#74=FACE_OUTER_BOUND('',#100,.T.);
#75=PLANE('',#101);
#76=FACE_OUTER_BOUND('',#102,.T.);
#77=PLANE('',#103);
#78=FACE_OUTER_BOUND('',#104,.T.);
#79=PLANE('',#105);
#80=FACE_OUTER_BOUND('',#106,.T.);
#81=PLANE('',#107);
#82=FACE_OUTER_BOUND('',#108,.T.);
#83=PLANE('',#109);
#84=FACE_OUTER_BOUND('',#110,.T.);
#85=PLANE('',#111);
#86=EDGE_LOOP('',(#112,#113,#114,#115));
#87=AXIS2_PLACEMENT_3D('',#116,#117,#118);
#88=EDGE_LOOP('',(#119,#120,#121,#122));
#89=AXIS2_PLACEMENT_3D('',#123,#124,#125);
#90=EDGE_LOOP('',(#126,#127,#128,#129));
#91=AXIS2_PLACEMENT_3D('',#130,#131,#132);
#92=EDGE_LOOP('',(#133,#134,#135,#136));
#93=AXIS2_PLACEMENT_3D('',#137,#138,#139);
#94=EDGE_LOOP('',(#140,#141,#142,#143));
#95=AXIS2_PLACEMENT_3D('',#144,#145,#146);
#96=EDGE_LOOP('',(#147,#148,#149,#150));
#97=AXIS2_PLACEMENT_3D('',#151,#152,#153);
#98=EDGE_LOOP('',(#154,#155,#156,#157));
#99=AXIS2_PLACEMENT_3D('',#158,#159,#160);
#100=EDGE_LOOP('',(#161,#162,#163,#164));
#101=AXIS2_PLACEMENT_3D('',#165,#166,#167);
#102=EDGE_LOOP('',(#168,#169,#170,#171));
#103=AXIS2_PLACEMENT_3D('',#172,#173,#174);
#104=EDGE_LOOP('',(#175,#176,#177,#178));
#105=AXIS2_PLACEMENT_3D('',#179,#180,#181);
#106=EDGE_LOOP('',(#182,#183,#184,#185,#186,#187,#188,#189,#190,#191));
#107=AXIS2_PLACEMENT_3D('',#192,#193,#194);
#108=EDGE_LOOP('',(#195,#196,#197,#198));
#109=AXIS2_PLACEMENT_3D('',#199,#200,#201);
#110=EDGE_LOOP('',(#202,#203,#204,#205,#206,#207,#208,#209));
#111=AXIS2_PLACEMENT_3D('',#210,#211,#212);
#112=ORIENTED_EDGE('',*,*,#213,.F.);
#113=ORIENTED_EDGE('',*,*,#214,.T.);
#114=ORIENTED_EDGE('',*,*,#215,.F.);
#115=ORIENTED_EDGE('',*,*,#216,.F.);
#116=CARTESIAN_POINT('',(0.0125,0.1,0.0525));
#117=DIRECTION('',(0.0,1.0,0.0));
#118=DIRECTION('',(0.0,0.0,1.0));
#119=ORIENTED_EDGE('',*,*,#217,.T.);
#120=ORIENTED_EDGE('',*,*,#215,.T.);
#121=ORIENTED_EDGE('',*,*,#218,.T.);
#122=ORIENTED_EDGE('',*,*,#219,.T.);
#123=CARTESIAN_POINT('',(0.0125,0.13125,0.0));
#124=DIRECTION('',(0.0,0.0,1.0));
#125=DIRECTION('',(1.0,0.0,0.0));
#126=ORIENTED_EDGE('',*,*,#220,.T.);
#127=ORIENTED_EDGE('',*,*,#219,.F.);
#128=ORIENTED_EDGE('',*,*,#221,.F.);
#129=ORIENTED_EDGE('',*,*,#222,.F.);
#130=CARTESIAN_POINT('',(0.0125,0.1625,0.0525));
#131=DIRECTION('',(0.0,-1.0,0.0));
#132=DIRECTION('',(0.0,0.0,-1.0));
#133=ORIENTED_EDGE('',*,*,#223,.T.);
#134=ORIENTED_EDGE('',*,*,#224,.F.);
#135=ORIENTED_EDGE('',*,*,#225,.T.);
#136=ORIENTED_EDGE('',*,*,#213,.T.);
#137=CARTESIAN_POINT('',(0.0125,0.06,0.055));
#138=DIRECTION('',(0.0,0.0,1.0));
#139=DIRECTION('',(1.0,0.0,0.0));
#140=ORIENTED_EDGE('',*,*,#226,.T.);
#141=ORIENTED_EDGE('',*,*,#227,.T.);
#142=ORIENTED_EDGE('',*,*,#228,.T.);
#143=ORIENTED_EDGE('',*,*,#229,.T.);
#144=CARTESIAN_POINT('',(0.0125,-0.016,0.009));
#145=DIRECTION('',(-0.0,-0.707106781186547,-0.707106781186547));
#146=DIRECTION('',(-1.0,0.0,0.0));
#147=ORIENTED_EDGE('',*,*,#230,.T.);
#148=ORIENTED_EDGE('',*,*,#231,.T.);
#149=ORIENTED_EDGE('',*,*,#232,.T.);
#150=ORIENTED_EDGE('',*,*,#228,.F.);
#151=CARTESIAN_POINT('',(0.021,0.0,0.009));
#152=DIRECTION('',(0.707106781186548,0.0,-0.707106781186548));
#153=DIRECTION('',(-0.707106781186547,0.0,-0.707106781186547));
#154=ORIENTED_EDGE('',*,*,#233,.T.);
#155=ORIENTED_EDGE('',*,*,#234,.T.);
#156=ORIENTED_EDGE('',*,*,#231,.F.);
#157=ORIENTED_EDGE('',*,*,#235,.T.);
#158=CARTESIAN_POINT('',(0.0125,0.016,0.009));
#159=DIRECTION('',(0.0,0.707106781186547,-0.707106781186547));
#160=DIRECTION('',(-1.0,0.0,0.0));
#161=ORIENTED_EDGE('',*,*,#235,.F.);
#162=ORIENTED_EDGE('',*,*,#230,.F.);
#163=ORIENTED_EDGE('',*,*,#227,.F.);
#164=ORIENTED_EDGE('',*,*,#236,.T.);
#165=CARTESIAN_POINT('',(0.0125,0.0,0.005));
#166=DIRECTION('',(0.0,0.0,1.0));
#167=DIRECTION('',(1.0,0.0,0.0));
#168=ORIENTED_EDGE('',*,*,#229,.F.);
#169=ORIENTED_EDGE('',*,*,#237,.F.);
#170=ORIENTED_EDGE('',*,*,#238,.F.);
#171=ORIENTED_EDGE('',*,*,#239,.T.);
#172=CARTESIAN_POINT('',(0.0125,-0.02,0.055));
#173=DIRECTION('',(0.0,1.0,0.0));
#174=DIRECTION('',(0.0,0.0,1.0));
#175=ORIENTED_EDGE('',*,*,#240,.T.);
#176=ORIENTED_EDGE('',*,*,#222,.T.);
#177=ORIENTED_EDGE('',*,*,#241,.T.);
#178=ORIENTED_EDGE('',*,*,#238,.T.);
#179=CARTESIAN_POINT('',(0.0125,0.0,0.105));
#180=DIRECTION('',(0.0,0.0,1.0));
#181=DIRECTION('',(1.0,0.0,0.0));
#182=ORIENTED_EDGE('',*,*,#233,.F.);
#183=ORIENTED_EDGE('',*,*,#236,.F.);
#184=ORIENTED_EDGE('',*,*,#226,.F.);
#185=ORIENTED_EDGE('',*,*,#239,.F.);
#186=ORIENTED_EDGE('',*,*,#241,.F.);
#187=ORIENTED_EDGE('',*,*,#221,.T.);
#188=ORIENTED_EDGE('',*,*,#218,.F.);
#189=ORIENTED_EDGE('',*,*,#214,.F.);
#190=ORIENTED_EDGE('',*,*,#225,.F.);
#191=ORIENTED_EDGE('',*,*,#242,.T.);
#192=CARTESIAN_POINT('',(0.0,0.0,0.055));
#193=DIRECTION('',(1.0,0.0,0.0));
#194=DIRECTION('',(0.0,0.0,-1.0));
#195=ORIENTED_EDGE('',*,*,#224,.T.);
#196=ORIENTED_EDGE('',*,*,#243,.T.);
#197=ORIENTED_EDGE('',*,*,#234,.F.);
#198=ORIENTED_EDGE('',*,*,#242,.F.);
#199=CARTESIAN_POINT('',(0.0125,0.02,0.055));
#200=DIRECTION('',(0.0,-1.0,0.0));
#201=DIRECTION('',(0.0,0.0,-1.0));
#202=ORIENTED_EDGE('',*,*,#232,.F.);
#203=ORIENTED_EDGE('',*,*,#243,.F.);
#204=ORIENTED_EDGE('',*,*,#223,.F.);
#205=ORIENTED_EDGE('',*,*,#216,.T.);
#206=ORIENTED_EDGE('',*,*,#217,.F.);
#207=ORIENTED_EDGE('',*,*,#220,.F.);
#208=ORIENTED_EDGE('',*,*,#240,.F.);
#209=ORIENTED_EDGE('',*,*,#237,.T.);
#210=CARTESIAN_POINT('',(0.025,0.0,0.055));
#211=DIRECTION('',(-1.0,0.0,0.0));
#212=DIRECTION('',(0.0,0.0,1.0));
#213=EDGE_CURVE('',#244,#245,#246,.T.);
#214=EDGE_CURVE('',#244,#247,#248,.T.);
#215=EDGE_CURVE('',#249,#247,#250,.T.);
#216=EDGE_CURVE('',#245,#249,#251,.T.);
#217=EDGE_CURVE('',#252,#249,#253,.T.);
#218=EDGE_CURVE('',#247,#254,#255,.T.);
#219=EDGE_CURVE('',#254,#252,#256,.T.);
#220=EDGE_CURVE('',#257,#252,#258,.T.);
#221=EDGE_CURVE('',#259,#254,#260,.T.);
#222=EDGE_CURVE('',#257,#259,#261,.T.);
#223=EDGE_CURVE('',#245,#262,#263,.T.);
#224=EDGE_CURVE('',#264,#262,#265,.T.);
#225=EDGE_CURVE('',#264,#244,#266,.T.);
#226=EDGE_CURVE('',#267,#268,#269,.T.);
#227=EDGE_CURVE('',#268,#270,#271,.T.);
#228=EDGE_CURVE('',#270,#272,#273,.T.);
#229=EDGE_CURVE('',#272,#267,#274,.T.);
#230=EDGE_CURVE('',#270,#275,#276,.T.);
#231=EDGE_CURVE('',#275,#277,#278,.T.);
#232=EDGE_CURVE('',#277,#272,#279,.T.);
#233=EDGE_CURVE('',#280,#281,#282,.T.);
#234=EDGE_CURVE('',#281,#277,#283,.T.);
#235=EDGE_CURVE('',#275,#280,#284,.T.);
#236=EDGE_CURVE('',#268,#280,#285,.T.);
#237=EDGE_CURVE('',#286,#272,#287,.T.);
#238=EDGE_CURVE('',#288,#286,#289,.T.);
#239=EDGE_CURVE('',#288,#267,#290,.T.);
#240=EDGE_CURVE('',#286,#257,#291,.T.);
#241=EDGE_CURVE('',#259,#288,#292,.T.);
#242=EDGE_CURVE('',#264,#281,#293,.T.);
#243=EDGE_CURVE('',#262,#277,#294,.T.);
#244=VERTEX_POINT('',#295);
#245=VERTEX_POINT('',#296);
#246=LINE('',#297,#298);
#247=VERTEX_POINT('',#299);
#248=LINE('',#300,#301);
#249=VERTEX_POINT('',#302);
#250=LINE('',#303,#304);
#251=LINE('',#305,#306);
#252=VERTEX_POINT('',#307);
#253=LINE('',#308,#309);
#254=VERTEX_POINT('',#310);
#255=LINE('',#311,#312);
#256=LINE('',#313,#314);
#257=VERTEX_POINT('',#315);
#258=LINE('',#316,#317);
#259=VERTEX_POINT('',#318);
#260=LINE('',#319,#320);
#261=LINE('',#321,#322);
#262=VERTEX_POINT('',#323);
#263=LINE('',#324,#325);
#264=VERTEX_POINT('',#326);
#265=LINE('',#327,#328);
#266=LINE('',#329,#330);
#267=VERTEX_POINT('',#331);
#268=VERTEX_POINT('',#332);
#269=LINE('',#333,#334);
#270=VERTEX_POINT('',#335);
#271=LINE('',#336,#337);
#272=VERTEX_POINT('',#338);
#273=LINE('',#339,#340);
#274=LINE('',#341,#342);
#275=VERTEX_POINT('',#343);
#276=LINE('',#344,#345);
#277=VERTEX_POINT('',#346);
#278=LINE('',#347,#348);
#279=LINE('',#349,#350);
#280=VERTEX_POINT('',#351);
#281=VERTEX_POINT('',#352);
#282=LINE('',#353,#354);
#283=LINE('',#355,#356);
#284=LINE('',#357,#358);
#285=LINE('',#359,#360);
#286=VERTEX_POINT('',#361);
#287=LINE('',#362,#363);
#288=VERTEX_POINT('',#364);
#289=LINE('',#365,#366);
#290=LINE('',#367,#368);
#291=LINE('',#369,#370);
#292=LINE('',#371,#372);
#293=LINE('',#373,#374);
#294=LINE('',#375,#376);
#295=CARTESIAN_POINT('',(0.0,0.1,0.055));
#296=CARTESIAN_POINT('',(0.025,0.1,0.055));
#297=CARTESIAN_POINT('',(0.0125,0.1,0.055));
#298=VECTOR('',#377,0.001);
#299=CARTESIAN_POINT('',(0.0,0.1,0.0));
#300=CARTESIAN_POINT('',(0.0,0.1,0.0525));
#301=VECTOR('',#378,0.001);
#302=CARTESIAN_POINT('',(0.025,0.1,0.0));
#303=CARTESIAN_POINT('',(0.0125,0.1,0.0));
#304=VECTOR('',#379,0.001);
#305=CARTESIAN_POINT('',(0.025,0.1,0.0525));
#306=VECTOR('',#380,0.001);
#307=CARTESIAN_POINT('',(0.025,0.1625,0.0));
#308=CARTESIAN_POINT('',(0.025,0.13125,0.0));
#309=VECTOR('',#381,0.001);
#310=CARTESIAN_POINT('',(0.0,0.1625,0.0));
#311=CARTESIAN_POINT('',(0.0,0.13125,0.0));
#312=VECTOR('',#382,0.001);
#313=CARTESIAN_POINT('',(0.0125,0.1625,0.0));
#314=VECTOR('',#383,0.001);
#315=CARTESIAN_POINT('',(0.025,0.1625,0.105));
#316=CARTESIAN_POINT('',(0.025,0.1625,0.0525));
#317=VECTOR('',#384,0.001);
#318=CARTESIAN_POINT('',(0.0,0.1625,0.105));
#319=CARTESIAN_POINT('',(0.0,0.1625,0.0525));
#320=VECTOR('',#385,0.001);
#321=CARTESIAN_POINT('',(0.0125,0.1625,0.105));
#322=VECTOR('',#386,0.001);
#323=CARTESIAN_POINT('',(0.025,0.02,0.055));
#324=CARTESIAN_POINT('',(0.025,0.06,0.055));
#325=VECTOR('',#387,0.001);
#326=CARTESIAN_POINT('',(0.0,0.02,0.055));
#327=CARTESIAN_POINT('',(0.0125,0.02,0.055));
#328=VECTOR('',#388,0.001);
#329=CARTESIAN_POINT('',(0.0,0.06,0.055));
#330=VECTOR('',#389,0.001);
#331=CARTESIAN_POINT('',(0.0,-0.02,0.013));
#332=CARTESIAN_POINT('',(0.0,-0.012,0.005));
#333=CARTESIAN_POINT('',(0.0,-0.0235,0.0165));
#334=VECTOR('',#390,0.001);
#335=CARTESIAN_POINT('',(0.017,-0.012,0.005));
#336=CARTESIAN_POINT('',(0.0125,-0.012,0.005));
#337=VECTOR('',#391,0.001);
#338=CARTESIAN_POINT('',(0.025,-0.02,0.013));
#339=CARTESIAN_POINT('',(0.017,-0.012,0.005));
#340=VECTOR('',#392,0.001);
#341=CARTESIAN_POINT('',(0.0125,-0.02,0.013));
#342=VECTOR('',#393,0.001);
#343=CARTESIAN_POINT('',(0.017,0.012,0.005));
#344=CARTESIAN_POINT('',(0.017,0.0,0.005));
#345=VECTOR('',#394,0.001);
#346=CARTESIAN_POINT('',(0.025,0.02,0.013));
#347=CARTESIAN_POINT('',(0.017,0.012,0.005));
#348=VECTOR('',#395,0.001);
#349=CARTESIAN_POINT('',(0.025,0.0,0.013));
#350=VECTOR('',#396,0.001);
#351=CARTESIAN_POINT('',(0.0,0.012,0.005));
#352=CARTESIAN_POINT('',(0.0,0.02,0.013));
#353=CARTESIAN_POINT('',(0.0,0.0235,0.0165));
#354=VECTOR('',#397,0.001);
#355=CARTESIAN_POINT('',(0.0125,0.02,0.013));
#356=VECTOR('',#398,0.001);
#357=CARTESIAN_POINT('',(0.0125,0.012,0.005));
#358=VECTOR('',#399,0.001);
#359=CARTESIAN_POINT('',(0.0,0.0,0.005));
#360=VECTOR('',#400,0.001);
#361=CARTESIAN_POINT('',(0.025,-0.02,0.105));
#362=CARTESIAN_POINT('',(0.025,-0.02,0.055));
#363=VECTOR('',#401,0.001);
#364=CARTESIAN_POINT('',(0.0,-0.02,0.105));
#365=CARTESIAN_POINT('',(0.0125,-0.02,0.105));
#366=VECTOR('',#402,0.001);
#367=CARTESIAN_POINT('',(0.0,-0.02,0.055));
#368=VECTOR('',#403,0.001);
#369=CARTESIAN_POINT('',(0.025,0.0,0.105));
#370=VECTOR('',#404,0.001);
#371=CARTESIAN_POINT('',(0.0,0.13125,0.105));
#372=VECTOR('',#405,0.001);
#373=CARTESIAN_POINT('',(0.0,0.02,0.055));
#374=VECTOR('',#406,0.001);
#375=CARTESIAN_POINT('',(0.025,0.02,0.055));
#376=VECTOR('',#407,0.001);
#377=DIRECTION('',(1.0,0.0,0.0));
#378=DIRECTION('',(0.0,0.0,-1.0));
#379=DIRECTION('',(-1.0,0.0,0.0));
#380=DIRECTION('',(0.0,0.0,-1.0));
#381=DIRECTION('',(0.0,-1.0,0.0));
#382=DIRECTION('',(0.0,1.0,0.0));
#383=DIRECTION('',(1.0,0.0,0.0));
#384=DIRECTION('',(0.0,0.0,-1.0));
#385=DIRECTION('',(0.0,0.0,-1.0));
#386=DIRECTION('',(-1.0,0.0,0.0));
#387=DIRECTION('',(0.0,-1.0,0.0));
#388=DIRECTION('',(1.0,0.0,0.0));
#389=DIRECTION('',(0.0,1.0,0.0));
#390=DIRECTION('',(0.0,0.707106781186547,-0.707106781186547));
#391=DIRECTION('',(1.0,0.0,0.0));
#392=DIRECTION('',(0.577350269189626,-0.577350269189626,0.577350269189626));
#393=DIRECTION('',(-1.0,0.0,0.0));
#394=DIRECTION('',(0.0,1.0,0.0));
#395=DIRECTION('',(0.577350269189626,0.577350269189626,0.577350269189626));
#396=DIRECTION('',(0.0,-1.0,0.0));
#397=DIRECTION('',(0.0,0.707106781186547,0.707106781186547));
#398=DIRECTION('',(1.0,0.0,0.0));
#399=DIRECTION('',(-1.0,-0.0,-0.0));
#400=DIRECTION('',(0.0,1.0,0.0));
#401=DIRECTION('',(0.0,0.0,-1.0));
#402=DIRECTION('',(1.0,0.0,0.0));
#403=DIRECTION('',(0.0,0.0,-1.0));
#404=DIRECTION('',(0.0,1.0,0.0));
#405=DIRECTION('',(0.0,-1.0,0.0));
#406=DIRECTION('',(0.0,0.0,-1.0));
#407=DIRECTION('',(0.0,0.0,-1.0));
ENDSEC;
END-ISO-10303-21;
