$MeshFormat
2.2 0 8
$EndMeshFormat
$PhysicalNames
2
3 1 "air_hex"
2 2 "outer"
$EndPhysicalNames
$Nodes
81
1 0.5 -0.5 0.5
2 0.5 0.5 0.5
3 0.5 0.0 0.5
4 -0.5 0.5 0.5
5 0.0 0.5 0.5
6 -0.5 -0.5 0.5
7 -0.5 0.0 0.5
8 0.0 -0.5 0.5
9 0.0 0.0 0.5
10 0.5 0.5 -0.5
11 0.5 -0.5 -0.5
12 0.5 0.0 -0.5
13 -0.5 -0.5 -0.5
14 0.0 -0.5 -0.5
15 -0.5 0.5 -0.5
16 -0.5 0.0 -0.5
17 0.0 0.5 -0.5
18 0.0 0.0 -0.5
19 -0.5 -0.5 0.0
20 0.5 -0.5 0.0
21 0.0 -0.5 0.0
22 -0.5 0.5 0.0
23 -0.5 0.0 0.0
24 0.5 0.5 0.0
25 0.0 0.5 0.0
26 0.5 0.0 0.0
27 0.0 0.0 0.0
28 -0.5 -0.5 0.25
29 -0.5 -0.25 0.0
30 -0.5 0.0 0.25
31 -0.5 -0.25 0.5
32 -0.25 -0.5 0.5
33 -0.25 -0.5 0.0
34 -0.25 0.0 0.0
35 -0.25 0.0 0.5
36 0.0 -0.5 0.25
37 0.0 -0.25 0.0
38 0.0 0.0 0.25
39 0.0 -0.25 0.5
40 -0.5 -0.5 -0.25
41 -0.5 -0.25 -0.5
42 -0.5 0.0 -0.25
43 -0.25 -0.5 -0.5
44 -0.25 0.0 -0.5
45 0.0 -0.5 -0.25
46 0.0 -0.25 -0.5
47 0.0 0.0 -0.25
48 -0.5 0.25 0.0
49 -0.5 0.5 0.25
50 -0.5 0.25 0.5
51 -0.25 0.5 0.0
52 -0.25 0.5 0.5
53 0.0 0.25 0.0
54 0.0 0.5 0.25
55 0.0 0.25 0.5
56 -0.5 0.25 -0.5
57 -0.5 0.5 -0.25
58 -0.25 0.5 -0.5
59 0.0 0.25 -0.5
60 0.0 0.5 -0.25
61 0.25 -0.5 0.5
62 0.25 -0.5 0.0
63 0.25 0.0 0.0
64 0.25 0.0 0.5
65 0.5 -0.5 0.25
66 0.5 -0.25 0.0
67 0.5 0.0 0.25
68 0.5 -0.25 0.5
69 0.25 -0.5 -0.5
70 0.25 0.0 -0.5
71 0.5 -0.5 -0.25
72 0.5 -0.25 -0.5
73 0.5 0.0 -0.25
74 0.25 0.5 0.0
75 0.25 0.5 0.5
76 0.5 0.25 0.0
77 0.5 0.5 0.25
78 0.5 0.25 0.5
79 0.25 0.5 -0.5
80 0.5 0.25 -0.5
81 0.5 0.5 -0.25
$EndNodes
$Elements
32
1 17 2 1 1 6 19 23 7 8 21 27 9 28 31 32 29 33 30 34 35 36 39 37 38
2 17 2 1 1 19 13 16 23 21 14 18 27 40 29 33 41 43 42 44 34 45 37 46 47
3 17 2 1 1 7 23 22 4 9 27 25 5 30 50 35 48 34 49 51 52 38 55 53 54
4 17 2 1 1 23 16 15 22 27 18 17 25 42 48 34 56 44 57 58 51 47 53 59 60
5 17 2 1 1 8 21 27 9 1 20 26 3 36 39 61 37 62 38 63 64 65 68 66 67
6 17 2 1 1 21 14 18 27 20 11 12 26 45 37 62 46 69 47 70 63 71 66 72 73
7 17 2 1 1 9 27 25 5 3 26 24 2 38 55 64 53 63 54 74 75 67 78 76 77
8 17 2 1 1 27 18 17 25 26 12 10 24 47 53 63 59 70 60 79 74 73 76 80 81
9 16 2 2 2 1 3 9 8 68 64 39 61
10 16 2 2 2 3 2 5 9 78 75 55 64
11 16 2 2 2 8 9 7 6 39 35 31 32
12 16 2 2 2 9 5 4 7 55 52 50 35
13 16 2 2 2 10 12 18 17 80 70 59 79
14 16 2 2 2 12 11 14 18 72 69 46 70
15 16 2 2 2 17 18 16 15 59 44 56 58
16 16 2 2 2 18 14 13 16 46 43 41 44
17 16 2 2 2 6 19 21 8 28 33 36 32
18 16 2 2 2 19 13 14 21 40 43 45 33
19 16 2 2 2 8 21 20 1 36 62 65 61
20 16 2 2 2 21 14 11 20 45 69 71 62
21 16 2 2 2 4 22 23 7 49 48 30 50
22 16 2 2 2 22 15 16 23 57 56 42 48
23 16 2 2 2 7 23 19 6 30 29 28 31
24 16 2 2 2 23 16 13 19 42 41 40 29
25 16 2 2 2 2 24 25 5 77 74 54 75
26 16 2 2 2 24 10 17 25 81 79 60 74
27 16 2 2 2 5 25 22 4 54 51 49 52
28 16 2 2 2 25 17 15 22 60 58 57 51
29 16 2 2 2 1 20 26 3 65 66 67 68
30 16 2 2 2 20 11 12 26 71 72 73 66
31 16 2 2 2 3 26 24 2 67 76 77 78
32 16 2 2 2 26 12 10 24 73 80 81 76
$EndElements
