$MeshFormat
2.2 0 8
$EndMeshFormat
$PhysicalNames
1
3 1 "work_wedge"
$EndPhysicalNames
$Nodes
15
1 1.0 -1.7320508075688772 0.5
2 1.0 1.7320508075688772 0.5
3 -2.0 2.449293598294706e-16 0.5
4 1.0 1.7320508075688772 -0.5
5 1.0 -1.7320508075688772 -0.5
6 -2.0 2.449293598294706e-16 -0.5
7 -0.5 -0.8660254037844385 -0.5
8 1.0 0.0 -0.5
9 -0.5 0.8660254037844387 -0.5
10 -2.0 2.449293598294706e-16 0.0
11 1.0 -1.7320508075688772 0.0
12 1.0 1.7320508075688772 0.0
13 -0.5 -0.8660254037844385 0.5
14 1.0 0.0 0.5
15 -0.5 0.8660254037844387 0.5
$EndNodes
$Elements
1
1 18 2 1 1 6 5 4 3 1 2 7 9 10 8 11 12 13 15 14
$EndElements
