$MeshFormat
4.1 0 8
$EndMeshFormat
$PhysicalNames
2
0 1 "conductor"
1 1 "conductor"
$EndPhysicalNames
$Entities
1 1 0 0
1 -50 -50 0 1 1
1 -50 -50 0 50 50 0 1 1 0
$EndEntities
$Nodes
1 36 1 36
1 1 0 36
1
2
3
4
5
6
7
8
9
10
11
12
13
14
15
16
17
18
19
20
21
22
23
24
25
26
27
28
29
30
31
32
33
34
35
36
50.0 0.0 0.0
49.240387650610394 8.682408883346518 0.0
46.98463103929541 17.101007166283438 0.0
43.30127018922193 25.0 0.0
38.3022221559489 32.13938048432696 0.0
32.13938048432696 38.3022221559489 0.0
24.999999999999993 43.30127018922193 0.0
17.101007166283427 46.98463103929542 0.0
8.68240888334651 49.24038765061041 0.0
3.0616169978683823e-15 50.0 0.0
-8.682408883346515 49.240387650610394 0.0
-17.101007166283445 46.98463103929541 0.0
-25.00000000000001 43.30127018922193 0.0
-32.13938048432696 38.3022221559489 0.0
-38.302222155948904 32.13938048432695 0.0
-43.30127018922193 24.999999999999993 0.0
-46.98463103929542 17.101007166283424 0.0
-49.24038765061041 8.68240888334649 0.0
-50.0 6.1232339957367645e-15 0.0
-49.240387650610394 -8.682408883346524 0.0
-46.98463103929542 -17.101007166283434 0.0
-43.30127018922193 -25.0 0.0
-38.30222215594888 -32.13938048432697 0.0
-32.13938048432697 -38.3022221559489 0.0
-24.99999999999998 -43.30127018922194 0.0
-17.101007166283427 -46.98463103929542 0.0
-8.682408883346515 -49.240387650610394 0.0
3.5224069991401107e-14 -50.0 0.0
8.68240888334654 -49.240387650610394 0.0
17.10100716628345 -46.98463103929541 0.0
25.0 -43.30127018922193 0.0
32.139380484327 -38.302222155948876 0.0
38.30222215594892 -32.13938048432694 0.0
43.30127018922194 -24.999999999999982 0.0
46.98463103929543 -17.101007166283388 0.0
49.240387650610394 -8.682408883346518 0.0
$EndNodes
$Elements
2 72 1 72
0 1 15 36
37 1
38 2
39 3
40 4
41 5
42 6
43 7
44 8
45 9
46 10
47 11
48 12
49 13
50 14
51 15
52 16
53 17
54 18
55 19
56 20
57 21
58 22
59 23
60 24
61 25
62 26
63 27
64 28
65 29
66 30
67 31
68 32
69 33
70 34
71 35
72 36
1 1 1 36
1 1 2
2 2 3
3 3 4
4 4 5
5 5 6
6 6 7
7 7 8
8 8 9
9 9 10
10 10 11
11 11 12
12 12 13
13 13 14
14 14 15
15 15 16
16 16 17
17 17 18
18 18 19
19 19 20
20 20 21
21 21 22
22 22 23
23 23 24
24 24 25
25 25 26
26 26 27
27 27 28
28 28 29
29 29 30
30 30 31
31 31 32
32 32 33
33 33 34
34 34 35
35 35 36
36 36 1
$EndElements
