$MeshFormat
4.1 0 8
$EndMeshFormat
$Entities
8 12 6 1
1 0.02 0.005 0.005 0
2 0.02 0.005 -0.005 0
3 0.02 0.015 0.005 0
4 0.02 0.015 -0.005 0
5 0.08 0.005 0.005 0
6 0.08 0.005 -0.005 0
7 0.08 0.015 0.005 0
8 0.08 0.015 -0.005 0
1 0.02 0.005 -0.005 0.02 0.005 0.005 0 0
2 0.02 0.005 0.005 0.02 0.015 0.005 0 0
3 0.02 0.015 -0.005 0.02 0.015 0.005 0 0
4 0.02 0.005 -0.005 0.02 0.015 -0.005 0 0
5 0.08 0.005 -0.005 0.08 0.005 0.005 0 0
6 0.08 0.005 0.005 0.08 0.015 0.005 0 0
7 0.08 0.015 -0.005 0.08 0.015 0.005 0 0
8 0.08 0.005 -0.005 0.08 0.015 -0.005 0 0
9 0.02 0.005 -0.005 0.08 0.005 -0.005 0 0
10 0.02 0.005 0.005 0.08 0.005 0.005 0 0
11 0.02 0.015 -0.005 0.08 0.015 -0.005 0 0
12 0.02 0.015 0.005 0.08 0.015 0.005 0 0
1 0.02 0.005 -0.005 0.02 0.015 0.005 0 0
2 0.08 0.005 -0.005 0.08 0.015 0.005 0 0
3 0.02 0.005 -0.005 0.08 0.005 0.005 0 0
4 0.02 0.015 -0.005 0.08 0.015 0.005 0 0
5 0.02 0.005 -0.005 0.08 0.015 -0.005 0 0
6 0.02 0.005 0.005 0.08 0.015 0.005 0 0
1 0.02 0.005 -0.005 0.08 0.015 0.005 0 0
$EndEntities
$Nodes
1 63 1 63
3 1 0 63
1
2
3
4
5
6
7
8
9
10
11
12
13
14
15
16
17
18
19
20
21
22
23
24
25
26
27
28
29
30
31
32
33
34
35
36
37
38
39
40
41
42
43
44
45
46
47
48
49
50
51
52
53
54
55
56
57
58
59
60
61
62
63
0.02 0.005 0.005
0.02 0.005 -0.005
0.02 0.015 0.005
0.02 0.015 -0.005
0.08 0.005 0.005
0.08 0.005 -0.005
0.08 0.015 0.005
0.08 0.015 -0.005
0.02 0.005 -8.673617379884035e-19
0.02 0.009999999999999998 0.005
0.02 0.015 -8.673617379884035e-19
0.02 0.009999999999999998 -0.005
0.08 0.005 -8.673617379884035e-19
0.08 0.009999999999999998 0.005
0.08 0.015 -8.673617379884035e-19
0.08 0.009999999999999998 -0.005
0.03000000000000003 0.005 -0.005
0.04000000000000006 0.005 -0.005
0.0500000000000001 0.005 -0.005
0.06000000000000007 0.005 -0.005
0.07000000000000003 0.005 -0.005
0.03000000000000003 0.005 0.005
0.04000000000000006 0.005 0.005
0.0500000000000001 0.005 0.005
0.06000000000000007 0.005 0.005
0.07000000000000003 0.005 0.005
0.03000000000000003 0.015 -0.005
0.04000000000000006 0.015 -0.005
0.0500000000000001 0.015 -0.005
0.06000000000000007 0.015 -0.005
0.07000000000000003 0.015 -0.005
0.03000000000000003 0.015 0.005
0.04000000000000006 0.015 0.005
0.0500000000000001 0.015 0.005
0.06000000000000007 0.015 0.005
0.07000000000000003 0.015 0.005
0.02 0.009999999999999998 -8.673617379884035e-19
0.08 0.009999999999999998 -8.673617379884035e-19
0.03000000000000003 0.005 -8.673617379884035e-19
0.04000000000000006 0.005 -8.673617379884035e-19
0.0500000000000001 0.005 -8.673617379884035e-19
0.06000000000000007 0.005 -8.673617379884035e-19
0.07000000000000003 0.005 0
0.03000000000000003 0.015 -8.673617379884035e-19
0.04000000000000006 0.015 -8.673617379884035e-19
0.0500000000000001 0.015 -8.673617379884035e-19
0.06000000000000007 0.015 -8.673617379884035e-19
0.07000000000000003 0.015 0
0.03000000000000003 0.009999999999999998 -0.005
0.04000000000000006 0.009999999999999997 -0.005
0.0500000000000001 0.009999999999999998 -0.005
0.06000000000000007 0.009999999999999998 -0.005
0.07000000000000003 0.009999999999999998 -0.005
0.03000000000000003 0.009999999999999998 0.005
0.04000000000000006 0.009999999999999997 0.005
0.0500000000000001 0.009999999999999998 0.005
0.06000000000000007 0.009999999999999998 0.005
0.07000000000000003 0.009999999999999998 0.005
0.03000000000000003 0.01 -6.505213034913027e-19
0.04000000000000006 0.01 -9.215718466126788e-19
0.0500000000000001 0.01 -8.673617379884035e-19
0.06000000000000008 0.01 -1.301042606982605e-18
0.07000000000000006 0.009999999999999998 4.336808689942018e-19
$EndNodes
$Elements
27 128 1 128
0 1 15 1
1 1
0 2 15 1
2 2
0 3 15 1
3 3
0 4 15 1
4 4
0 5 15 1
5 5
0 6 15 1
6 6
0 7 15 1
7 7
0 8 15 1
8 8
1 1 1 2
9 2 9
10 9 1
1 2 1 2
11 1 10
12 10 3
1 3 1 2
13 4 11
14 11 3
1 4 1 2
15 2 12
16 12 4
1 5 1 2
17 6 13
18 13 5
1 6 1 2
19 5 14
20 14 7
1 7 1 2
21 8 15
22 15 7
1 8 1 2
23 6 16
24 16 8
1 9 1 6
25 2 17
26 17 18
27 18 19
28 19 20
29 20 21
30 21 6
1 10 1 6
31 1 22
32 22 23
33 23 24
34 24 25
35 25 26
36 26 5
1 11 1 6
37 4 27
38 27 28
39 28 29
40 29 30
41 30 31
42 31 8
1 12 1 6
43 3 32
44 32 33
45 33 34
46 34 35
47 35 36
48 36 7
2 1 3 4
49 2 9 37 12
50 12 37 11 4
51 9 1 10 37
52 37 10 3 11
2 2 3 4
53 6 16 38 13
54 16 8 15 38
55 13 38 14 5
56 38 15 7 14
2 3 3 12
57 2 17 39 9
58 9 39 22 1
59 17 18 40 39
60 39 40 23 22
61 18 19 41 40
62 40 41 24 23
63 19 20 42 41
64 41 42 25 24
65 20 21 43 42
66 42 43 26 25
67 21 6 13 43
68 43 13 5 26
2 4 3 12
69 4 11 44 27
70 11 3 32 44
71 27 44 45 28
72 44 32 33 45
73 28 45 46 29
74 45 33 34 46
75 29 46 47 30
76 46 34 35 47
77 30 47 48 31
78 47 35 36 48
79 31 48 15 8
80 48 36 7 15
2 5 3 12
81 2 12 49 17
82 17 49 50 18
83 18 50 51 19
84 19 51 52 20
85 20 52 53 21
86 21 53 16 6
87 12 4 27 49
88 49 27 28 50
89 50 28 29 51
90 51 29 30 52
91 52 30 31 53
92 53 31 8 16
2 6 3 12
93 1 22 54 10
94 22 23 55 54
95 23 24 56 55
96 24 25 57 56
97 25 26 58 57
98 26 5 14 58
99 10 54 32 3
100 54 55 33 32
101 55 56 34 33
102 56 57 35 34
103 57 58 36 35
104 58 14 7 36
3 1 5 24
105 37 9 2 12 59 39 17 49
106 59 39 17 49 60 40 18 50
107 60 40 18 50 61 41 19 51
108 61 41 19 51 62 42 20 52
109 62 42 20 52 63 43 21 53
110 63 43 21 53 38 13 6 16
111 11 37 12 4 44 59 49 27
112 44 59 49 27 45 60 50 28
113 45 60 50 28 46 61 51 29
114 46 61 51 29 47 62 52 30
115 47 62 52 30 48 63 53 31
116 48 63 53 31 15 38 16 8
117 10 1 9 37 54 22 39 59
118 54 22 39 59 55 23 40 60
119 55 23 40 60 56 24 41 61
120 56 24 41 61 57 25 42 62
121 57 25 42 62 58 26 43 63
122 58 26 43 63 14 5 13 38
123 3 10 37 11 32 54 59 44
124 32 54 59 44 33 55 60 45
125 33 55 60 45 34 56 61 46
126 34 56 61 46 35 57 62 47
127 35 57 62 47 36 58 63 48
128 36 58 63 48 7 14 38 15
$EndElements
