# vtk DataFile Version 3.0
Unstructured Grid circle_2d.vtk
ASCII
DATASET UNSTRUCTURED_GRID
POINTS 120 float
1.0 0.0 0.0
0.9795299409338731 0.20129852163908885 0.0
0.9189578110390857 0.39435585646754645 0.0
0.8207634404277901 0.5712682162147107 0.0
0.6889669181658455 0.7247927880939882 0.0
0.5289640093542982 0.8486442581010172 0.0
0.3473052518724056 0.9377521325072233 0.0
0.15142777658748802 0.9884683244686041 0.0
-0.05064916965627447 0.9987165071295907 0.0
-0.25065253294551526 0.9680771186883808 0.0
-0.4403941520965603 0.8978045393063858 0.0
-0.6121059829360069 0.7907757366370978 0.0
-0.758758122941561 0.6513724824324398 0.0
-0.8743466162769427 0.4853019622926128 0.0
-0.9541392564490132 0.29936312281729704 0.0
-0.9948693233973969 0.10116832193332859 0.0
-0.9948693233974388 -0.10116832193291525 0.0
-0.9541392564491329 -0.2993631228169159 0.0
-0.8743466162771303 -0.48530196229227485 0.0
-0.7587581229418052 -0.6513724824321552 0.0
-0.6121059829362918 -0.7907757366368773 0.0
-0.4403941520968512 -0.897804539306243 0.0
-0.25065253294579903 -0.9680771186883073 0.0
-0.05064916965653728 -0.9987165071295774 0.0
0.15142777658726236 -0.9884683244686387 0.0
0.34730525187222405 -0.9377521325072904 0.0
0.528964009354163 -0.8486442581011013 0.0
0.6889669181657536 -0.7247927880940754 0.0
0.8207634404277353 -0.5712682162147893 0.0
0.9189578110390602 -0.39435585646760585 0.0
0.9795299409338669 -0.20129852163912 0.0
0.8174484375166697 0.08312612427815758 0.0
0.8174484375166418 -0.08312612427816779 0.0
0.7839817790894821 0.24597563955098245 0.0
0.7184188791281407 0.3987547967422991 0.0
0.5029451038232828 0.6497513212232229 0.0
0.36185572889963025 0.7376928963173692 0.0
0.6234438974967365 0.535208833601045 0.0
0.2059519790865103 0.7954332366523378 0.0
0.04161656005132919 0.8206084778373142 0.0
-0.2853679781661922 0.770516325843253 0.0
-0.4346303541093244 0.6972997198164137 0.0
-0.5660989586528313 0.5955355728416536 0.0
-0.6743914751726958 0.4693901146406154 0.0
-0.7550743654901468 0.32402770787646507 0.0
-0.804844491147374 0.16539950365020228 0.0
-0.12442264173174511 0.8121879286374525 0.0
-0.8216641019755333 1.7053025658242404e-13 0.0
-0.804844491147428 -0.16539950364987144 0.0
-0.7550743654902643 -0.32402770787616353 0.0
-0.6743914751728659 -0.4693901146403523 0.0
-0.5660989586530416 -0.5955355728414358 0.0
-0.4346303541095451 -0.697299719816237 0.0
-0.2853679781664211 -0.7705163258431391 0.0
-0.12442264173196671 -0.8121879286373908 0.0
0.04161656005112535 -0.8206084778372928 0.0
0.20595197908633445 -0.79543323665235 0.0
0.36185572889948636 -0.737692896317405 0.0
0.5029451038231718 -0.6497513212232706 0.0
0.6234438974966556 -0.5352088336010967 0.0
0.718418879128083 -0.3987547967423426 0.0
0.7839817790894426 -0.24597563955101065 0.0
0.5855035603219463 -0.25125891755172325 0.0
0.5260925381532151 -0.3664227100027302 0.0
0.4389672842012473 -0.46179294082701383 0.0
0.33836280401778973 -0.54320072105456 0.0
0.22128146462047438 -0.5974773758085201 0.0
0.09648041502429328 -0.6297905735754832 0.0
-0.032136018094933494 -0.6417544170329357 0.0
-0.1614096973865502 -0.6218074909892177 0.0
-0.280591970825548 -0.5720252576690241 0.0
-0.3899961925274116 -0.5038331668257341 0.0
-0.4855583238783865 -0.41714357821687353 0.0
-0.5570799721099817 -0.30920419932671184 0.0
-0.6079191057925748 -0.1907353834664538 0.0
-0.6338698567800922 -0.06445800140143643 0.0
-0.6486415860455883 0.06555390866121646 0.0
-0.6079191057925206 0.19073538346670116 0.0
-0.5606203709649558 0.31093752505673633 0.0
-0.4834339921621551 0.4150140506756208 0.0
-0.3899961925272397 0.5038331668259199 0.0
-0.16146468099833866 0.621943162638178 0.0
-0.28059197082539145 0.5720252576691607 0.0
-0.032129979456586355 0.6417106476535928 0.0
0.09648041502444693 0.6297905735755176 0.0
0.22128146462060805 0.5974773758085319 0.0
0.4389672842013379 0.46179294082699673 0.0
0.33831735758475245 0.5430960935241851 0.0
0.5251961904313442 0.3657566295671466 0.0
0.5855035603220107 0.2512589175517066 0.0
0.6378070950602996 -0.1313120892276043 0.0
0.6371388219554479 2.5757174171303632e-14 0.0
0.6385865161043403 0.13145864902418047 0.0
0.4572678317781884 0.0827278581421873 0.0
-0.46430777606837603 0.06353984525513434 0.0
0.4600317731261807 -0.08464203252809188 0.0
0.3865255545523345 0.23205883420103746 0.0
0.2694329526772936 0.3609910257504043 0.0
0.11281975356645191 0.42608224736807365 0.0
-0.06925194012847724 0.45691450205138384 0.0
-0.23527445366743516 0.3763668096321706 0.0
-0.3788884354304989 0.24152367719220091 0.0
-0.42638060211262285 -0.10494576916634824 0.0
-0.36778311151610543 -0.26756463078699433 0.0
-0.22266787857752468 -0.36966380524202824 0.0
-0.0681799469609512 -0.456132537758154 0.0
0.11245743053994106 -0.42487701564595204 0.0
0.26946925426494417 -0.3601703097277924 0.0
0.38677445362258656 -0.2328511959748596 0.0
0.17893548015375949 -0.1938652607680531 0.0
-0.0044277850833363 -0.23870399817710597 0.0
-0.19897142277218105 -0.16082546041895185 0.0
-0.1724636987413053 0.19596314013859972 0.0
0.00035428394992065293 0.24900535253103273 0.0
0.17981481933146481 0.19694491413266046 0.0
0.27609509710193736 -0.067670774305856 0.0
-0.277140861736038 0.04812493901483528 0.0
0.26916588981223466 0.07079367281367066 0.0
0.08245345033554763 0.0038261338319927063 0.0
-0.0809571138338474 0.011560140025563825 0.0
CELLS 238 921
3 31 0 1 
3 33 1 2 
3 34 2 3 
3 35 4 5 
3 36 5 6 
3 37 3 4 
3 38 6 7 
3 39 7 8 
3 40 46 9 
3 41 40 10 
3 42 41 11 
3 43 42 12 
3 44 43 13 
3 45 44 14 
3 46 8 9 
3 47 15 16 
3 49 48 17 
3 50 49 18 
3 51 50 19 
3 52 51 20 
3 53 52 21 
3 54 53 22 
3 55 54 23 
3 56 55 24 
3 57 56 25 
3 58 57 26 
3 59 58 27 
3 60 59 28 
3 61 60 29 
3 32 30 0 
3 48 16 17 
3 32 0 31 
3 92 31 33 
3 33 31 1 
3 90 61 32 
3 34 33 2 
3 37 34 3 
3 57 66 56 
3 36 35 5 
3 37 4 35 
3 38 36 6 
3 39 38 7 
3 40 9 10 
3 84 38 39 
3 41 10 11 
3 42 11 12 
3 82 40 41 
3 43 12 13 
3 76 45 47 
3 44 13 14 
3 79 42 43 
3 45 14 15 
3 46 39 8 
3 53 70 52 
3 47 45 15 
3 48 47 16 
3 80 41 42 
3 78 43 44 
3 77 44 45 
3 87 35 36 
3 83 39 46 
3 49 17 18 
3 86 37 35 
3 49 74 48 
3 50 18 19 
3 88 34 37 
3 50 73 49 
3 51 19 20 
3 51 72 50 
3 52 20 21 
3 52 71 51 
3 53 21 22 
3 81 46 40 
3 54 22 23 
3 54 69 53 
3 55 23 24 
3 55 68 54 
3 89 33 34 
3 56 24 25 
3 56 67 55 
3 57 25 26 
3 85 36 38 
3 58 26 27 
3 58 65 57 
3 59 27 28 
3 59 64 58 
3 61 30 32 
3 60 28 29 
3 60 63 59 
3 61 29 30 
3 61 62 60 
3 91 32 31 
3 75 47 48 
3 63 60 62 
3 64 59 63 
3 108 63 62 
3 65 58 64 
3 64 108 107 
3 66 57 65 
3 98 85 84 
3 67 56 66 
3 68 55 67 
3 106 67 66 
3 69 54 68 
3 105 68 67 
3 70 53 69 
3 105 69 68 
3 71 52 70 
3 100 80 79 
3 72 51 71 
3 73 50 72 
3 101 79 78 
3 74 49 73 
3 76 94 77 
3 75 48 74 
3 103 71 104 
3 76 47 75 
3 107 65 64 
3 102 74 73 
3 70 105 104 
3 77 45 76 
3 102 75 74 
3 78 44 77 
3 101 77 94 
3 79 43 78 
3 103 73 72 
3 80 42 79 
3 104 71 70 
3 81 40 82 
3 82 41 80 
3 82 99 81 
3 83 46 81 
3 84 39 83 
3 99 84 83 
3 85 38 84 
3 66 107 106 
3 86 35 87 
3 87 85 97 
3 87 36 85 
3 87 97 86 
3 96 93 89 
3 86 96 88 
3 88 37 86 
3 90 95 62 
3 89 34 88 
3 90 62 61 
3 92 33 89 
3 90 91 95 
3 91 90 32 
3 92 93 91 
3 92 91 31 
3 92 89 93 
3 76 75 94 
3 99 83 81 
3 115 93 117 
3 95 91 93 
3 116 94 102 
3 112 100 101 
3 96 89 88 
3 86 97 96 
3 100 82 80 
3 114 96 97 
3 98 97 85 
3 99 113 98 
3 99 98 84 
3 100 99 82 
3 98 114 97 
3 101 78 77 
3 101 100 79 
3 108 115 109 
3 102 94 75 
3 113 100 112 
3 103 102 73 
3 103 72 71 
3 104 111 103 
3 105 110 104 
3 70 69 105 
3 106 105 67 
3 106 110 105 
3 64 63 108 
3 66 65 107 
3 109 106 107 
3 108 62 95 
3 108 109 107 
3 117 93 96 
3 111 102 103 
3 109 110 106 
3 110 119 111 
3 111 104 110 
3 116 101 94 
3 118 110 109 
3 116 102 111 
3 113 99 100 
3 113 118 114 
3 119 113 112 
3 98 113 114 
3 118 109 115 
3 115 108 95 
3 117 118 115 
3 116 119 112 
3 116 112 101 
3 117 96 114 
3 115 95 93 
3 117 114 118 
3 119 116 111 
3 119 110 118 
3 119 118 113 
2 0 1 
2 1 2 
2 2 3 
2 3 4 
2 4 5 
2 5 6 
2 6 7 
2 7 8 
2 8 9 
2 9 10 
2 10 11 
2 11 12 
2 12 13 
2 13 14 
2 14 15 
2 15 16 
2 16 17 
2 17 18 
2 18 19 
2 19 20 
2 20 21 
2 21 22 
2 22 23 
2 23 24 
2 24 25 
2 25 26 
2 26 27 
2 27 28 
2 28 29 
2 29 30 
2 30 0 
CELL_TYPES 238
5
5
5
5
5
5
5
5
5
5
5
5
5
5
5
5
5
5
5
5
5
5
5
5
5
5
5
5
5
5
5
5
5
5
5
5
5
5
5
5
5
5
5
5
5
5
5
5
5
5
5
5
5
5
5
5
5
5
5
5
5
5
5
5
5
5
5
5
5
5
5
5
5
5
5
5
5
5
5
5
5
5
5
5
5
5
5
5
5
5
5
5
5
5
5
5
5
5
5
5
5
5
5
5
5
5
5
5
5
5
5
5
5
5
5
5
5
5
5
5
5
5
5
5
5
5
5
5
5
5
5
5
5
5
5
5
5
5
5
5
5
5
5
5
5
5
5
5
5
5
5
5
5
5
5
5
5
5
5
5
5
5
5
5
5
5
5
5
5
5
5
5
5
5
5
5
5
5
5
5
5
5
5
5
5
5
5
5
5
5
5
5
5
5
5
5
5
5
5
5
5
5
5
5
5
5
5
3
3
3
3
3
3
3
3
3
3
3
3
3
3
3
3
3
3
3
3
3
3
3
3
3
3
3
3
3
3
3
CELL_DATA 238
SCALARS scalars float
LOOKUP_TABLE default
5
5
5
5
5
5
5
5
5
5
5
5
5
5
5
5
5
5
5
5
5
5
5
5
5
5
5
5
5
5
5
5
5
5
5
5
5
5
5
5
5
5
5
5
5
5
5
5
5
5
5
5
5
5
5
5
5
5
5
5
5
5
5
5
5
5
5
5
5
5
5
5
5
5
5
5
5
5
5
5
5
5
5
5
5
5
5
5
5
5
5
5
5
5
5
5
5
5
5
5
5
5
5
5
5
5
5
5
5
5
5
5
5
5
5
5
5
5
5
5
5
5
5
5
5
5
5
5
5
5
5
5
5
5
5
5
5
5
5
5
5
5
5
5
5
5
5
5
5
5
5
5
5
5
5
5
5
5
5
5
5
5
5
5
5
5
5
5
5
5
5
5
5
5
5
5
5
5
5
5
5
5
5
5
5
5
5
5
5
5
5
5
5
5
5
5
5
5
5
5
5
5
5
5
5
5
5
0
0
0
0
0
0
0
0
0
0
0
0
0
0
0
0
0
0
0
0
0
0
0
0
0
0
0
0
0
0
0
