# vtk DataFile Version 3.0
Unstructured Grid mixed_elements.vtk
ASCII
DATASET UNSTRUCTURED_GRID
POINTS 171 float
0.5 -0.5 1.0
0.5 0.5 1.0
0.5 -0.16666666666666669 1.0
0.5 0.16666666666666663 1.0
-0.5 0.5 1.0
0.16666666666666669 0.5 1.0
-0.16666666666666663 0.5 1.0
-0.5 -0.5 1.0
-0.5 0.16666666666666669 1.0
-0.5 -0.16666666666666663 1.0
-0.16666666666666669 -0.5 1.0
0.16666666666666663 -0.5 1.0
0.16666666666666666 -0.16666666666666666 1.0
0.16666666666666666 0.16666666666666669 1.0
-0.1666666666666666 -0.16666666666666669 1.0
-0.1666666666666667 0.1666666666666666 1.0
0.5 0.5 0.0
0.5 -0.5 0.0
0.5 0.16666666666666669 0.0
0.5 -0.16666666666666663 0.0
-0.5 -0.5 0.0
0.16666666666666669 -0.5 0.0
-0.16666666666666663 -0.5 0.0
-0.5 0.5 0.0
-0.5 -0.16666666666666669 0.0
-0.5 0.16666666666666663 0.0
-0.16666666666666669 0.5 0.0
0.16666666666666663 0.5 0.0
0.16666666666666666 0.16666666666666666 0.0
0.16666666666666666 -0.16666666666666669 0.0
-0.1666666666666666 0.16666666666666669 0.0
-0.1666666666666667 -0.1666666666666666 0.0
-0.5 -0.5 0.6666666666666667
-0.5 -0.5 0.33333333333333337
0.5 -0.5 0.6666666666666667
0.5 -0.5 0.33333333333333337
-0.16666666666666663 -0.5 0.6666666666666667
-0.16666666666666663 -0.5 0.33333333333333337
0.16666666666666666 -0.5 0.6666666666666667
0.1666666666666666 -0.5 0.33333333333333326
-0.5 0.5 0.6666666666666667
-0.5 0.5 0.33333333333333337
-0.5 0.16666666666666663 0.6666666666666667
-0.5 0.16666666666666663 0.33333333333333337
-0.5 -0.16666666666666666 0.6666666666666667
-0.5 -0.1666666666666666 0.33333333333333326
0.5 0.5 0.6666666666666667
0.5 0.5 0.33333333333333337
0.16666666666666663 0.5 0.6666666666666667
0.16666666666666663 0.5 0.33333333333333337
-0.16666666666666666 0.5 0.6666666666666667
-0.1666666666666666 0.5 0.33333333333333326
0.5 -0.16666666666666663 0.6666666666666667
0.5 -0.16666666666666663 0.33333333333333337
0.5 0.16666666666666666 0.6666666666666667
0.5 0.1666666666666666 0.33333333333333326
-0.1666666666666666 -0.1666666666666666 0.6666666666666669
-0.16666666666666669 -0.16666666666666657 0.33333333333333326
-0.16666666666666666 0.1666666666666666 0.6666666666666667
-0.16666666666666663 0.16666666666666663 0.33333333333333326
0.16666666666666666 -0.16666666666666666 0.6666666666666667
0.16666666666666663 -0.16666666666666657 0.33333333333333326
0.16666666666666666 0.16666666666666669 0.6666666666666667
0.16666666666666666 0.16666666666666663 0.33333333333333326
0.5 -0.5 2.0
0.5 0.5 2.0
-0.5 0.5 2.0
-0.5 -0.5 2.0
0.5 0.5 1.0
0.5 -0.5 1.0
-0.5 -0.5 1.0
-0.5 0.5 1.0
0.5 -0.16666666666666674 2.0
0.5 0.16666666666666674 2.0
0.16666666666666674 0.5 2.0
-0.16666666666666674 0.5 2.0
-0.5 0.16666666666666674 2.0
-0.5 -0.16666666666666674 2.0
-0.16666666666666674 -0.5 2.0
0.16666666666666674 -0.5 2.0
0.28832761240402904 0.2607432175791189 2.0
-0.015432435405746459 0.261236174405578 2.0
0.2627930448726612 -0.026391572988821776 2.0
0.27414976471163444 -0.30324282891606935 2.0
-0.3000520708959702 0.2721318490447133 2.0
-0.23789601879729483 -0.0067754727329023545 2.0
-0.27359922207544973 -0.29827343693376873 2.0
0.00033959525304361193 -0.23987884251163993 2.0
0.0458251118888664 0.04499901913393023 2.0
0.5 0.16666666666666674 1.0
0.5 -0.16666666666666674 1.0
0.16666666666666674 -0.5 1.0
-0.16666666666666674 -0.5 1.0
-0.5 -0.16666666666666674 1.0
-0.5 0.16666666666666674 1.0
-0.16666666666666674 0.5 1.0
0.16666666666666674 0.5 1.0
0.2619078129531105 0.012942296004990972 1.0
0.2624234654037776 -0.2883304060060715 1.0
0.2738230472388332 0.2999943229907567 1.0
-0.015879877850554003 -0.2600113095241531 1.0
-0.2781103950673445 -0.29692362204464573 1.0
-0.24108936134319858 0.0007702992839742073 1.0
-0.27318857220087334 0.29661648746444347 1.0
0.000622666128022864 0.2367280781530512 1.0
0.04291573451231101 -0.04405876115186147 1.0
-0.5 -0.5 1.6666666666666667
-0.5 -0.5 1.3333333333333333
0.5 -0.5 1.3333333333333333
0.5 -0.5 1.6666666666666667
0.0035455768782661767 -0.5 1.2375118765275748
-0.29058394089247375 -0.5 1.2393951721600005
-0.262065842047685 -0.5 1.5267380735855924
-0.27247857548242616 -0.5 1.802810891652803
0.2753072189476413 -0.5 1.2019441784892244
0.23741110234334917 -0.5 1.4925182704543627
0.29729938549820223 -0.5 1.7713792989326282
0.006226224768513422 -0.5 1.7382499229766935
-0.045802471805326705 -0.5 1.4556297327824943
-0.5 0.5 1.6666666666666667
-0.5 0.5 1.3333333333333333
-0.5 -0.0035455768782663988 1.2375118765275752
-0.5 0.2905839408924735 1.239395172160001
-0.5 0.2620658420476847 1.5267380735855927
-0.5 0.27247857548242593 1.8028108916528027
-0.5 -0.2753072189476412 1.2019441784892244
-0.5 -0.23741110234334928 1.4925182704543631
-0.5 -0.29729938549820234 1.771379298932628
-0.5 -0.006226224768513644 1.7382499229766937
-0.5 0.04580247180532648 1.4556297327824943
0.5 0.5 1.6666666666666667
0.5 0.5 1.3333333333333333
-0.0035455768782663988 0.5 1.2375118765275752
0.2905839408924735 0.5 1.239395172160001
0.2620658420476847 0.5 1.5267380735855927
0.27247857548242593 0.5 1.8028108916528027
-0.2753072189476412 0.5 1.2019441784892244
-0.23741110234334928 0.5 1.4925182704543631
-0.29729938549820234 0.5 1.771379298932628
-0.006226224768513644 0.5 1.7382499229766937
0.04580247180532648 0.5 1.4556297327824943
0.5 0.0035455768782661767 1.2375118765275748
0.5 -0.29058394089247375 1.2393951721600007
0.5 -0.262065842047685 1.5267380735855924
0.5 -0.27247857548242616 1.802810891652803
0.5 0.2753072189476413 1.2019441784892244
0.5 0.23741110234334917 1.4925182704543627
0.5 0.29729938549820223 1.7713792989326282
0.5 0.006226224768513422 1.7382499229766935
0.5 -0.045802471805326705 1.4556297327824943
-0.1616311472381997 0.34002248648704625 1.7567928814627554
-0.10466366945571326 0.10298687814158636 1.7918197953646304
0.1533803545289576 0.19824741223607756 1.746212429483144
-0.17250178677660988 -0.18417577978405197 1.7555149352567427
0.1037136204670901 -0.10275990172091465 1.7635733487306062
0.3352962650555029 -0.18795629691046045 1.2809840324464536
0.10444266921361445 -0.19471348960739765 1.2343292385275204
0.06799998476084168 0.08559033216882583 1.2174016885181411
-0.1745161000595552 -0.18841812105935718 1.2365880785037744
-0.17337441279610433 0.18025778445388152 1.2452945910793571
0.14703746001117435 0.34557413371460277 1.2495803188772148
0.0015127112054096337 0.2693246285865787 1.4966628759033747
0.04428709702217337 -0.26237683143265067 1.5447361450216304
0.25844082172613225 0.06653990857833025 1.3922043756551612
0.2587978684573664 -0.10320317703847426 1.5747123404945438
-0.25844082172613203 -0.06653990857833092 1.3922043756551608
-0.2754801776087292 0.11030308715805415 1.5849754577936346
-0.02029135168088958 -0.019468294227625194 1.500166796518364
-0.17606003863921527 -0.2813663258123009 1.5337434631829556
-0.3094387461778967 0.11495258457588342 1.8201672544765897
0.25059649269248396 -0.2539737125507886 1.747373283858616
CELLS 521 2545
4 150 75 84 81
4 135 74 80 65
4 148 73 80 82
4 147 73 65 80
4 148 73 82 72
4 144 83 72 82
4 144 64 72 83
4 139 75 81 74
4 117 79 83 87
4 151 85 81 84
4 151 88 81 85
4 169 85 76 128
4 124 76 84 66
4 127 77 67 86
4 128 77 85 76
4 152 88 80 81
4 152 88 82 80
4 170 82 87 83
4 154 87 82 88
4 153 87 85 86
4 153 87 88 85
4 153 78 87 86
4 113 78 86 67
4 116 79 64 83
4 117 79 87 78
4 153 77 86 85
4 152 81 80 74
4 155 90 98 97
4 142 69 98 90
4 141 89 90 97
4 145 99 89 97
4 145 131 68 133
4 138 75 66 84
4 145 99 68 89
4 142 115 114 108
4 156 91 100 98
4 158 102 105 100
4 161 140 139 134
4 156 105 98 100
4 158 102 101 93
4 125 70 93 101
4 158 92 101 100
4 121 94 102 93
4 159 103 102 94
4 122 103 94 71
4 160 104 96 99
4 136 95 103 71
4 110 91 92 100
4 111 92 70 101
4 114 91 98 69
4 158 102 100 101
4 156 105 97 98
4 158 111 101 92
4 125 107 70 111
4 126 112 107 111
4 158 156 110 100
4 127 113 86 67
4 156 114 91 98
4 155 142 98 90
4 142 114 69 108
4 143 109 115 108
4 153 117 113 112
4 156 155 114 98
4 143 116 115 109
4 144 116 109 64
4 144 143 109 116
4 153 117 87 78
4 117 116 83 79
4 118 117 168 112
4 162 117 118 115
4 126 112 106 107
4 158 118 112 111
4 159 104 102 103
4 159 104 105 102
4 159 122 103 94
4 159 104 103 95
4 137 123 120 122
4 136 122 71 103
4 159 136 95 103
4 137 123 119 120
4 132 104 95 96
4 76 85 169 84
4 138 124 66 119
4 153 128 77 85
4 125 111 70 101
4 158 121 102 93
4 158 126 125 111
4 126 125 111 107
4 153 127 113 86
4 127 113 106 112
4 162 158 156 118
4 127 113 67 106
4 169 153 85 128
4 127 126 112 106
4 153 127 126 112
4 166 128 124 123
4 168 117 118 162
4 124 76 169 84
4 159 158 121 102
4 133 96 68 99
4 157 104 99 97
4 159 129 123 122
4 159 136 103 122
4 157 104 97 105
4 160 133 99 96
4 146 134 131 133
4 146 134 130 131
4 160 140 133 132
4 147 135 80 65
4 150 139 75 81
4 136 120 71 122
4 159 160 104 132
4 159 137 136 122
4 137 136 122 120
4 150 138 124 84
4 138 124 119 123
4 159 137 132 136
4 138 124 84 66
4 150 138 137 123
4 138 137 123 119
4 152 139 81 74
4 152 139 135 134
4 166 129 128 123
4 161 160 140 134
4 161 166 150 137
4 163 97 99 145
4 155 142 114 98
4 160 140 134 133
4 164 148 149 146
4 142 114 98 69
4 155 143 115 142
4 170 144 82 83
4 143 142 108 115
4 170 117 115 116
4 144 116 64 83
4 145 133 68 99
4 145 141 97 89
4 160 146 145 133
4 170 148 143 164
4 152 147 135 80
4 147 135 130 134
4 146 145 133 131
4 163 149 141 146
4 163 145 141 97
4 147 135 65 130
4 147 146 134 130
4 152 148 147 80
4 155 149 142 141
4 148 144 72 82
4 148 147 80 73
4 164 148 143 149
4 152 147 146 134
4 152 150 81 139
4 169 76 124 128
4 150 138 84 75
4 150 139 138 75
4 150 138 123 124
4 150 139 137 138
4 161 140 137 139
4 151 150 84 81
4 117 87 170 154
4 152 148 80 82
4 169 150 124 84
4 166 129 126 128
4 152 148 146 147
4 170 117 116 83
4 153 154 87 117
4 153 128 126 127
4 166 150 137 123
4 161 152 139 150
4 152 147 134 135
4 153 127 112 113
4 161 140 132 137
4 152 135 74 80
4 152 151 88 81
4 152 139 74 135
4 154 152 88 82
4 152 151 81 150
4 161 152 150 151
4 170 148 82 144
4 170 144 116 143
4 170 143 116 115
4 154 152 151 88
4 154 152 82 148
4 170 144 83 116
4 153 151 85 88
4 156 118 115 162
4 162 153 117 154
4 167 153 154 151
4 153 128 127 77
4 153 117 78 113
4 153 127 86 77
4 153 113 78 86
4 153 154 151 88
4 153 154 88 87
4 165 129 121 126
4 156 115 110 114
4 155 142 115 114
4 155 149 143 142
4 155 141 90 97
4 155 142 90 141
4 167 154 152 151
4 163 146 141 145
4 160 145 99 133
4 164 155 143 115
4 115 156 164 155
4 156 155 98 97
4 158 118 111 110
4 156 155 115 114
4 163 97 156 157
4 156 110 100 91
4 158 126 111 112
4 158 125 101 111
4 156 114 110 91
4 160 146 133 134
4 160 132 96 104
4 160 133 96 132
4 157 156 105 97
4 157 159 104 105
4 163 152 146 134
4 163 155 97 141
4 163 155 141 149
4 158 125 121 93
4 158 125 93 101
4 159 129 122 121
4 158 156 100 105
4 158 156 118 110
4 168 153 126 112
4 167 162 158 156
4 158 110 92 100
4 158 111 92 110
4 115 118 156 110
4 115 117 170 162
4 164 156 115 162
4 168 153 117 162
4 164 155 149 143
4 167 166 153 151
4 117 153 168 112
4 159 137 122 123
4 165 159 121 129
4 161 160 132 140
4 161 166 151 150
4 167 161 166 151
4 157 158 105 156
4 159 136 132 95
4 159 121 94 102
4 159 122 94 121
4 159 158 102 105
4 159 132 104 95
4 166 159 129 123
4 121 158 159 165
4 167 157 156 158
4 166 153 128 126
4 168 158 112 126
4 158 118 168 112
4 126 158 121 165
4 121 158 126 125
4 161 157 159 160
4 157 159 105 158
4 157 159 160 104
4 158 159 167 157
4 167 159 158 165
4 157 160 99 104
4 163 160 146 145
4 160 99 163 157
4 166 150 123 124
4 166 159 123 137
4 166 165 129 159
4 169 151 150 84
4 161 166 137 159
4 166 165 126 129
4 169 151 84 85
4 166 165 153 126
4 169 153 151 85
4 168 167 153 162
4 163 161 160 157
4 167 164 152 154
4 167 166 159 165
4 161 152 134 139
4 163 160 134 146
4 161 159 132 160
4 167 164 154 162
4 161 159 137 132
4 161 150 139 137
4 164 152 148 146
4 164 154 148 152
4 163 161 152 134
4 99 97 163 157
4 163 99 160 145
4 156 97 163 155
4 163 161 134 160
4 167 163 157 161
4 167 163 156 157
4 164 163 146 149
4 167 163 161 152
4 164 163 149 155
4 143 148 170 144
4 170 164 162 154
4 164 163 152 146
4 164 163 155 156
4 167 164 162 156
4 167 161 157 159
4 168 167 162 158
4 167 153 165 168
4 167 161 159 166
4 167 164 156 163
4 167 164 163 152
4 167 162 154 153
4 167 161 151 152
4 169 166 128 124
4 169 166 153 128
4 169 166 151 153
4 169 166 150 151
4 169 166 124 150
4 168 165 126 153
4 168 165 158 126
4 168 167 158 165
4 165 153 167 166
4 170 162 117 154
4 170 164 115 162
4 170 87 117 83
4 170 164 154 148
4 170 164 143 115
4 87 82 170 154
4 170 154 82 148
4 168 118 158 162
8 7 32 44 9 10 36 56 14
8 32 33 45 44 36 37 57 56
8 33 20 24 45 37 22 31 57
8 9 44 42 8 14 56 58 15
8 44 45 43 42 56 57 59 58
8 45 24 25 43 57 31 30 59
8 8 42 40 4 15 58 50 6
8 42 43 41 40 58 59 51 50
8 43 25 23 41 59 30 26 51
8 10 36 56 14 11 38 60 12
8 36 37 57 56 38 39 61 60
8 37 22 31 57 39 21 29 61
8 14 56 58 15 12 60 62 13
8 56 57 59 58 60 61 63 62
8 57 31 30 59 61 29 28 63
8 15 58 50 6 13 62 48 5
8 58 59 51 50 62 63 49 48
8 59 30 26 51 63 28 27 49
8 11 38 60 12 0 34 52 2
8 38 39 61 60 34 35 53 52
8 39 21 29 61 35 17 19 53
8 12 60 62 13 2 52 54 3
8 60 61 63 62 52 53 55 54
8 61 29 28 63 53 19 18 55
8 13 62 48 5 3 54 46 1
8 62 63 49 48 54 55 47 46
8 63 28 27 49 55 18 16 47
3 80 65 74 
3 74 81 80 
3 82 72 73 
3 83 64 72 
3 66 84 75 
3 84 81 75 
3 85 84 76 
3 67 86 77 
3 86 85 77 
3 88 81 85 
3 80 73 65 
3 82 83 72 
3 81 74 75 
3 80 88 82 
3 87 78 79 
3 82 73 80 
3 83 79 64 
3 84 66 76 
3 84 85 81 
3 85 76 77 
3 87 83 82 
3 86 67 78 
3 87 79 83 
3 86 87 85 
3 80 81 88 
3 87 86 78 
3 88 87 82 
3 88 85 87 
3 98 97 90 
3 90 69 98 
3 68 89 99 
3 100 105 98 
3 93 101 70 
3 100 92 101 
3 102 93 94 
3 105 97 98 
3 94 71 103 
3 89 97 99 
3 89 90 97 
3 95 96 104 
3 91 92 100 
3 69 91 98 
3 96 68 99 
3 97 105 104 
3 98 91 100 
3 94 103 102 
3 93 102 101 
3 92 70 101 
3 100 101 102 
3 71 95 103 
3 96 99 104 
3 99 97 104 
3 102 103 104 
3 103 95 104 
3 100 102 105 
3 102 104 105 
3 91 110 92 
3 92 111 70 
3 106 107 112 
3 67 106 113 
3 108 114 69 
3 110 91 114 
3 115 108 109 
3 79 116 64 
3 110 115 118 
3 106 112 113 
3 111 92 110 
3 79 78 117 
3 107 70 111 
3 110 118 111 
3 107 111 112 
3 109 116 115 
3 78 67 113 
3 112 118 117 
3 108 115 114 
3 91 69 114 
3 110 114 115 
3 79 117 116 
3 109 64 116 
3 117 115 116 
3 113 112 117 
3 78 113 117 
3 118 112 111 
3 115 117 118 
3 93 121 94 
3 94 122 71 
3 119 120 123 
3 66 119 124 
3 107 125 70 
3 121 93 125 
3 126 107 106 
3 77 127 67 
3 126 106 127 
3 119 123 124 
3 122 94 121 
3 77 76 128 
3 120 71 122 
3 121 129 122 
3 121 126 129 
3 120 122 123 
3 76 66 124 
3 123 128 124 
3 107 126 125 
3 93 70 125 
3 121 125 126 
3 77 128 127 
3 128 126 127 
3 106 67 127 
3 129 123 122 
3 76 124 128 
3 128 123 129 
3 126 128 129 
3 95 132 96 
3 96 133 68 
3 130 131 134 
3 65 130 135 
3 120 136 71 
3 132 95 136 
3 137 120 119 
3 75 138 66 
3 137 119 138 
3 130 134 135 
3 133 96 132 
3 75 74 139 
3 131 68 133 
3 132 140 133 
3 132 137 140 
3 131 133 134 
3 74 65 135 
3 134 139 135 
3 120 137 136 
3 95 71 136 
3 132 136 137 
3 75 139 138 
3 139 137 138 
3 119 66 138 
3 140 134 133 
3 74 135 139 
3 139 134 140 
3 137 139 140 
3 89 141 90 
3 90 142 69 
3 109 108 143 
3 64 109 144 
3 131 145 68 
3 141 89 145 
3 146 131 130 
3 73 147 65 
3 141 146 149 
3 109 143 144 
3 142 90 141 
3 73 72 148 
3 108 69 142 
3 141 149 142 
3 108 142 143 
3 130 147 146 
3 72 64 144 
3 143 149 148 
3 131 146 145 
3 89 68 145 
3 141 145 146 
3 73 148 147 
3 130 65 147 
3 148 146 147 
3 144 143 148 
3 72 144 148 
3 149 143 142 
3 146 148 149 
CELL_TYPES 521
10
10
10
10
10
10
10
10
10
10
10
10
10
10
10
10
10
10
10
10
10
10
10
10
10
10
10
10
10
10
10
10
10
10
10
10
10
10
10
10
10
10
10
10
10
10
10
10
10
10
10
10
10
10
10
10
10
10
10
10
10
10
10
10
10
10
10
10
10
10
10
10
10
10
10
10
10
10
10
10
10
10
10
10
10
10
10
10
10
10
10
10
10
10
10
10
10
10
10
10
10
10
10
10
10
10
10
10
10
10
10
10
10
10
10
10
10
10
10
10
10
10
10
10
10
10
10
10
10
10
10
10
10
10
10
10
10
10
10
10
10
10
10
10
10
10
10
10
10
10
10
10
10
10
10
10
10
10
10
10
10
10
10
10
10
10
10
10
10
10
10
10
10
10
10
10
10
10
10
10
10
10
10
10
10
10
10
10
10
10
10
10
10
10
10
10
10
10
10
10
10
10
10
10
10
10
10
10
10
10
10
10
10
10
10
10
10
10
10
10
10
10
10
10
10
10
10
10
10
10
10
10
10
10
10
10
10
10
10
10
10
10
10
10
10
10
10
10
10
10
10
10
10
10
10
10
10
10
10
10
10
10
10
10
10
10
10
10
10
10
10
10
10
10
10
10
10
10
10
10
10
10
10
10
10
10
10
10
10
10
10
10
10
10
10
10
10
10
10
10
10
10
10
10
10
10
10
10
10
10
10
10
10
10
10
10
10
10
10
10
10
10
10
10
10
10
12
12
12
12
12
12
12
12
12
12
12
12
12
12
12
12
12
12
12
12
12
12
12
12
12
12
12
5
5
5
5
5
5
5
5
5
5
5
5
5
5
5
5
5
5
5
5
5
5
5
5
5
5
5
5
5
5
5
5
5
5
5
5
5
5
5
5
5
5
5
5
5
5
5
5
5
5
5
5
5
5
5
5
5
5
5
5
5
5
5
5
5
5
5
5
5
5
5
5
5
5
5
5
5
5
5
5
5
5
5
5
5
5
5
5
5
5
5
5
5
5
5
5
5
5
5
5
5
5
5
5
5
5
5
5
5
5
5
5
5
5
5
5
5
5
5
5
5
5
5
5
5
5
5
5
5
5
5
5
5
5
5
5
5
5
5
5
5
5
5
5
5
5
5
5
5
5
5
5
5
5
5
5
5
5
5
5
5
5
5
5
5
5
5
5
CELL_DATA 521
SCALARS scalars float
LOOKUP_TABLE default
1
1
1
1
1
1
1
1
1
1
1
1
1
1
1
1
1
1
1
1
1
1
1
1
1
1
1
1
1
1
1
1
1
1
1
1
1
1
1
1
1
1
1
1
1
1
1
1
1
1
1
1
1
1
1
1
1
1
1
1
1
1
1
1
1
1
1
1
1
1
1
1
1
1
1
1
1
1
1
1
1
1
1
1
1
1
1
1
1
1
1
1
1
1
1
1
1
1
1
1
1
1
1
1
1
1
1
1
1
1
1
1
1
1
1
1
1
1
1
1
1
1
1
1
1
1
1
1
1
1
1
1
1
1
1
1
1
1
1
1
1
1
1
1
1
1
1
1
1
1
1
1
1
1
1
1
1
1
1
1
1
1
1
1
1
1
1
1
1
1
1
1
1
1
1
1
1
1
1
1
1
1
1
1
1
1
1
1
1
1
1
1
1
1
1
1
1
1
1
1
1
1
1
1
1
1
1
1
1
1
1
1
1
1
1
1
1
1
1
1
1
1
1
1
1
1
1
1
1
1
1
1
1
1
1
1
1
1
1
1
1
1
1
1
1
1
1
1
1
1
1
1
1
1
1
1
1
1
1
1
1
1
1
1
1
1
1
1
1
1
1
1
1
1
1
1
1
1
1
1
1
1
1
1
1
1
1
1
1
1
1
1
1
1
1
1
1
1
1
1
1
1
1
1
1
1
1
1
1
1
1
1
1
1
1
1
1
1
1
1
1
1
1
1
1
1
2
2
2
2
2
2
2
2
2
2
2
2
2
2
2
2
2
2
2
2
2
2
2
2
2
2
2
5
5
5
5
5
5
5
5
5
5
5
5
5
5
5
5
5
5
5
5
5
5
5
5
5
5
5
5
5
5
5
5
5
5
5
5
5
5
5
5
5
5
5
5
5
5
5
5
5
5
5
5
5
5
5
5
5
5
5
5
5
5
5
5
5
5
5
5
5
5
5
5
5
5
5
5
5
5
5
5
5
5
5
5
5
5
5
5
5
5
5
5
5
5
5
5
5
5
5
5
5
5
5
5
5
5
5
5
5
5
5
5
5
5
5
5
5
5
5
5
5
5
5
5
5
5
5
5
5
5
5
5
5
5
5
5
5
5
5
5
5
5
5
5
5
5
5
5
5
5
5
5
5
5
5
5
5
5
5
5
5
5
5
5
5
5
5
5
