# vtk DataFile Version 3.0
Unstructured Grid sphere_2nd_order.vtk
ASCII
DATASET UNSTRUCTURED_GRID
POINTS 860 float
-6.123233995736765e-17 -7.498798913309285e-33 -1.0
-6.123233995736765e-17 -7.498798913309285e-33 1.0
-0.38268343353749945 -4.686520419684175e-17 -0.9238795320256588
-0.7071067817847687 -8.659560569681027e-17 -0.7071067805883262
-0.923879532673167 -1.1314261124859462e-16 -0.38268343197427623
-1.0 -1.224646799147353e-16 8.659739592076221e-15
-0.9238795326731579 -1.131426112485935e-16 0.3826834319742983
-0.7071067817847574 -8.659560569680889e-17 0.7071067805883375
-0.38268343353749334 -4.6865204196841e-17 0.9238795320256612
0.2800495123527559 6.835830424208142e-05 -0.9599855550778489
-0.09999191406927799 -0.3470649436065556 -0.9324953308409325
-0.10197167096224868 -0.3436793632517643 0.9335342916015612
0.27989949633488265 -0.00011245065066226179 0.9600293012748777
-0.09970455363604978 0.34719282068352175 -0.9324784969370907
-0.5143883081944427 0.33750876317716366 -0.788347958183111
-0.9196657266647993 -0.34364854021481694 -0.19005428699803623
-0.9196657266647984 0.34364854021481933 -0.19005428699803623
-0.9196657266647928 0.34364854021482294 0.19005428699805543
-0.7775655294793742 0.34277095752207776 0.5271621363915073
-0.5143883081944421 -0.3375087631771646 -0.788347958183111
-0.7775655294793814 -0.34277095752208675 -0.5271621363914909
-0.7775655294793811 0.3427709575220874 -0.5271621363914909
-0.9196657266647935 -0.3436485402148213 0.19005428699805543
-0.09967724363566145 0.34431610188267936 0.9335474648273183
-0.7775655294793747 -0.3427709575220764 0.5271621363915073
-0.5143883081944413 -0.33750876317715295 0.7883479581831165
-0.5143883081944409 0.33750876317715334 0.7883479581831165
-0.4995429775945226 -0.6628795249031465 0.5577163696720555
-0.23436989769178795 0.6207150223460011 0.7481868831314433
-0.6929876157546595 -0.6546861088694426 0.30191764318115033
-0.5227947372618058 -0.6502462004399034 -0.5512400035418583
-0.4953632338871883 0.6656564786571066 0.5581368281475856
-0.6929876157546572 0.6546861088694449 0.30191764318115033
-0.760057980502598 0.6498552656355969 6.217248937900877e-15
-0.696931694432082 0.6500445118333803 -0.3028668782341992
-0.7600579805025991 -0.6498552656355956 4.440892098500626e-15
-0.6949967307186427 -0.6523748310546739 -0.3023022065694916
-0.5227947372618047 0.6502462004399044 -0.5512400035418583
-0.2367481555966016 0.6206858590158106 -0.7474619557137423
0.23864439403433982 0.356872613781795 0.9031560168257378
-0.23382415500959258 -0.6202220811444711 0.748766208235168
0.23938164892278876 -0.3595647786452608 0.9018922308772768
-0.23674815559659998 -0.6206858590158112 -0.7474619557137423
0.24196434035287542 0.36410993704632927 -0.8993760124340187
0.2377924110047852 -0.3609292756974342 -0.9017676126436658
-0.19932354094400362 0.8789166680405434 -0.4333308397357075
-0.4632986899228453 -0.8804977972756773 -0.10038900790651939
-0.46829678663389246 0.8775694358367111 -0.10281052919621897
-0.36802529157757635 0.887466281212848 0.2774184284965183
-0.19506695953101272 -0.882759729643268 -0.42741565369025747
-0.36877764189169787 -0.8891534404483945 0.27094134084628296
0.5672357886416575 -0.17724953420198597 -0.8042550358619185
0.5660053608894222 0.1742951116212262 -0.8057661853846805
0.5637081802845859 -0.1778223528731587 0.8066054167304448
0.5694292406327515 0.1745117134083864 0.8033031817412881
0.8142498099074114 7.23199109404692e-16 0.5805146398375707
0.8154367824861745 -0.006307498901611472 -0.5788117735725502
-0.031277441357329204 -0.9990166216210269 0.03142469390540996
-0.08639155999028642 0.9960873540929046 0.018614010278315864
0.1425746991745096 0.674555449210487 0.7243254800818042
0.5259114883998891 0.5042157028986585 0.6849698032172111
0.14162389341273565 -0.6783819530856734 0.7209303701067704
0.5219890510685234 -0.5348020979778015 0.6644653087732451
0.13518845198773674 0.6941800292730925 -0.7069923404164768
0.5385085893591985 0.5229456677644622 -0.6607089584323393
0.5209972033171192 -0.5096267892170043 -0.6847207093758063
0.1349070080658652 -0.6942167825153418 -0.7070100126934293
-0.07736967404640992 -0.8767149450328803 0.4747471313172371
-0.051299126976671196 0.873136137435961 0.48476972376051064
0.49483627591040574 -0.757972646440225 -0.4249876789878998
0.45747292297934794 0.794991889602929 -0.3983797437198531
0.32742543761614085 -0.8646161617347287 0.38109247653159506
0.4476888074484724 0.7706495021983043 0.45351303889399897
0.23310646128463702 0.9393529915007073 0.25154986596304474
0.1391778437092316 0.9228398028004899 -0.35916044630165156
0.16482434508936977 -0.9219638029839731 -0.3504506830542493
0.6126094998441186 0.7857417436098482 0.08555415273202274
0.4240984174530497 -0.90530925078119 -0.02357313648667274
0.31441861573804686 0.9475449651310981 -0.05744104048567132
0.8157638725140771 0.4006658598644389 0.4171284850497817
0.8173485347713797 -0.34951420569622627 0.45801876896434546
0.8356717450227344 0.32341621773710544 -0.44390841924352253
0.815837482940844 -0.38675126497556916 -0.4299216910886735
0.6715961401620039 -0.6747724281431333 0.3060078344378091
0.7284160778066454 -0.6774008373081785 -0.10265536131620803
0.9108009039255511 -0.4110334325227225 0.038642344092811115
0.745120478850436 0.6151761809362565 -0.25759219399348854
0.9721390297745119 -0.06459240693576809 -0.22532981994248868
0.9742710677028074 -0.03661388218297696 0.22238549923212741
0.9639669855703016 0.2658298236568998 -0.010107204610923536
0.8413238609369266 0.5338744523239738 0.08457085889335722
-0.05952879476997275 -0.1293605836557079 0.6349986204123876
-0.27316731065606037 -0.36280292946669457 0.46278052296031724
-0.3524240048534222 0.07431284016725259 0.528453804624561
0.130918847084184 0.19217852435590155 0.6363135392041204
0.2398589624919354 -0.12432258237632787 0.5930160385790622
-0.603144736088213 -0.11965773837897409 0.40940480334908314
-0.271605600420902 0.36323157797914307 0.46236735646260874
0.11301401887554485 -0.47780390728734545 0.4099549133307563
0.2410778338032964 0.4927562820730924 0.3853313371228455
0.43474955316092023 -0.30816566935912215 0.2962897169298784
0.4729209909015406 0.09901654255048165 0.4052445722595661
-0.532484854785098 -0.3726887602855271 0.10398494686282511
-0.19716080820875348 -0.5753836652070552 0.05983468865028119
0.21211564753467949 -0.5752240226789578 0.07629637816381862
-0.6280699585680201 0.07639148474522672 0.12714155195645116
-0.13489123986455942 0.6066743410100046 0.21273748255917324
-0.4986519785340424 0.42538896160405093 0.16754342066124428
-0.617807889543994 -0.062380550819066904 -0.11474214284992579
0.5866803317678104 0.1261574928698428 0.1156041158608061
-0.30061645141771365 -0.4970573199400832 -0.27965063179828054
0.23753309672962208 0.5929291704620199 0.05382914473939859
-0.11373859624584615 0.5632402277085458 -0.17076234282237968
0.5172360110833605 -0.32710786936929814 -0.09685211437312802
-0.5584140279631336 -0.36246553459603037 -0.26912583993839645
0.06126222234119094 -0.6050770026639545 -0.31573499108002334
0.4931242872753132 0.4070502709399242 -0.01417651573748735
-0.5398356379808158 0.3108293498958341 -0.23095706711569708
-0.44408524150131656 -0.15800976090487273 -0.4706796438435994
-0.2047787285416689 0.48545445208523175 -0.46863704195639544
0.5525854120783094 -0.08153987402333307 -0.27032891711314644
0.3920183622150972 -0.44835322753722817 -0.35463013232960616
-0.19225497452376494 -0.2941968991258803 -0.5358989222557256
-0.44169407578471453 0.1513551300929672 -0.445010423817942
0.37014460590359244 0.44444539190607424 -0.27881002705550584
0.11408860924846254 -0.16707749727947352 -0.6117367449840518
0.17872617334447094 0.3633191372147948 -0.5593026468607527
-0.11370079139191702 0.09086795565144401 -0.6870065143163773
0.26728384010702566 0.08219212349630478 -0.12424140094645075
0.41419017830852667 0.12696849905444196 -0.5258606295645607
0.10765805504430048 0.10310354480525774 0.22079570965960382
0.08835042415762207 -0.27788923893950557 -0.21071671747828802
-0.19156438130101794 0.1994590668345868 0.01973790028270095
-0.05991879733478722 0.1418942509622978 -0.2845685070400723
0.041181105885498503 -0.19015496197374304 0.13712325430488637
-0.28428585333521683 -0.1325854792476462 -0.15381763825687989
-0.2996124894063761 -0.055350493118342836 0.2165363292482505
0.7022300772500731 -0.14772186581235625 0.2752490140612882
-0.08075023286611072 -0.2365199734537361 0.7842664560069744
-0.05185475643844208 -0.17476824206339445 0.9832431773476897
-0.029764397384986405 -0.06468029182785395 0.8174993102061938
-0.22110611415373305 -0.06468029182785398 0.7794390762190244
-0.24852499548643084 -0.17623442197949576 0.9524582694942717
-0.1950903226384368 -2.38916739163786e-17 0.9807852802794456
-0.10670267251398341 0.21903038816748288 -0.809742505626734
0.09332236801351018 0.179695821679209 -0.9792856311104462
0.08317436048041943 0.045468156977843045 -0.8234960346971131
-0.05685039569595854 0.045433977825722005 -0.8435032571581886
-0.05071572761453014 0.17660313276944836 -0.9829746937070889
0.14144688497457678 3.452628471285273e-05 -0.9899458457607287
-0.24819211246470824 0.045433977825721984 -0.805443023171018
-0.24748241105682162 0.17812242147204146 -0.952378527260269
-0.19509032263844003 -2.3891673916378998e-17 -0.980785280279445
-0.31404454979317986 0.21418835941430384 -0.7376772362497441
-0.3147262121892819 0.35091359851689324 -0.8819337037084544
-0.45716795701157725 0.17200206467022416 -0.8725896795350268
-0.808903944771997 -0.031190275409533515 -0.057371071424958564
-0.9807852804444942 -1.2011155543471887e-16 -0.1950903218086813
-0.7708437111085805 -0.031190275409533508 -0.248712787412101
-0.7687368081043966 -0.20301454551694192 -0.152398214923981
-0.9797106018270908 -0.1753826791166377 -0.09699511602895282
-0.9401950221729047 -0.1752583210259688 -0.2920921792729987
-0.5744004287847416 0.07567756504648356 -0.5760586022031341
-0.6231511736153658 0.17218160236968238 -0.762912911561471
-0.4780411919895786 0.24443194663506543 -0.6166791910005265
-0.412188754661107 0.07567756504648357 -0.6844449779218004
-0.5555702338988895 -6.803773086458212e-17 -0.8314696117150242
-0.6108253854903489 -0.25039035921347974 -0.49892089011754515
-0.8682394768943993 -0.1749144203792612 -0.4642899485295014
-0.6839823870872418 -0.07900488045243642 -0.4266815379089378
-0.5755960116430426 -0.07900488045243641 -0.5888932122159628
-0.7571347862731376 -0.17480208507636802 -0.6294371664178121
-0.8314696126550618 -1.0182565997263107e-16 -0.5555702324920239
-0.47923677484787935 -0.24775926204101867 -0.6295138010133552
-0.6231511736153654 -0.172181602369683 -0.7629129115614711
-0.413384337519408 -0.0790048804524364 -0.6972795879346291
-0.45716795701157703 -0.17200206467022472 -0.8725896795350268
-0.6976867095116877 -0.20257575417057683 -0.32095213962070834
-0.8631789189393166 -0.3490996514767672 -0.36476237091776936
-0.6573750220627746 -0.34614154419690013 -0.6693609726813717
-0.6096298026320478 0.2470630438075273 -0.48608628010471644
-0.7571347862731374 0.17480208507636827 -0.6294371664178122
-0.6827868042289408 0.07567756504648354 -0.4138469278961091
-0.8682394768943992 0.17491442037926144 -0.46428994852950145
-0.6573750220627748 0.34614154419689996 -0.6693609726813717
-0.7738678426164067 -0.13362852773479728 0.1585979194772533
-0.9401950221728977 -0.17525832102597116 0.29209217927301995
-0.775974745620589 0.038195742372613306 0.25491249196537474
-0.81403497928401 0.0381957423726133 0.06357077597822991
-0.9797106018270887 -0.17538267911664007 0.09699511602897154
-0.9807852804444902 -1.201115554347184e-16 0.19509032180870153
-0.7687368081043937 -0.2030145455169441 0.03765607207406482
-0.9367391247069262 -0.35002830206042174 9.781714776916523e-15
0.11018535078245495 -0.06473651715318508 0.7975139608436327
0.1413695375135889 -5.67957309155219e-05 0.9899568933228553
0.09206049916357763 -0.17787912559446717 0.9797366386797529
-0.0796030192028171 0.10747775911348573 0.784273042619853
-0.2474047779985377 0.17660114677429817 0.9526819567838456
-0.05068781883352909 0.17509144070525012 0.9832465267742668
0.015620801724261273 0.26824731311929045 0.7849305020157193
0.06545942354209197 0.09608926217795077 0.8181567696020602
0.20540917170953332 0.09603303685261964 0.798171420239499
0.09323323159948886 0.17806468542074222 0.9795920234115467
-0.4334061565239317 -0.13159796150495018 0.6584008814038388
-0.45716795701157303 -0.1720020646702186 0.8725896795350301
-0.36755371919545776 0.037156420083626275 0.7261666683251111
-0.5297653933190898 0.037156420083626254 0.6177802926064493
-0.6231511736153582 -0.17218160236967678 0.7629129115614784
-0.5555702338988802 -6.803773086458098e-17 0.8314696117150305
-0.6903551327837938 -0.23121434795052526 0.46828346987029523
-0.7571347862731276 -0.1748020850763626 0.6294371664178258
-0.6551257589364852 -0.059828869189487086 0.5582557919687103
-0.7635121343806854 -0.0598288691894871 0.39604411766169073
-0.8682394768943901 -0.17491442037925573 0.4642899485295205
-0.8314696126550508 -1.0182565997262973e-16 0.5555702324920404
-0.7614052313765032 -0.23165313929689768 0.2997295451735693
-0.8631789189393103 -0.3490996514767641 0.36476237091778746
-0.5587665221413272 -0.22858325077806352 0.5988763807660998
-0.65737502206277 -0.34614154419688853 0.6693609726813822
-0.286958551482207 -0.23343467341643043 0.7116732892977521
-0.3158207143739242 -0.349038432063943 0.8822864893642475
-0.39299695430767145 0.35037017057814823 0.6253576573228626
-0.31472397488837583 0.3494523199841247 0.8825145300153273
-0.1856414220282817 0.3537738399309112 0.6979574106449635
-0.25298774905634497 0.49197330016257207 0.605277119797026
-0.3821104661014008 0.48900610963232105 0.7841330349105518
-0.169781512110386 0.49048299845955806 0.8547518156562359
-0.43340615652393155 0.20591080167220296 0.6584008814038388
-0.45716795701157287 0.17200206467021875 0.8725896795350301
-0.2260506242445418 0.20931447102496598 0.7310006347259397
-0.6231511736153581 0.17218160236967686 0.7629129115614786
-0.14612344429652147 -0.32063092136621796 -0.734197126548329
-0.3148637334271383 -0.35083719383052403 -0.8819150144982493
-0.35332164135910354 -0.31585283115152246 -0.6621234402194183
-0.2874692040306322 -0.1470984495629402 -0.7298892271406922
-0.24762165657813673 -0.17805093361856666 -0.9523557004770098
-0.1068463527305975 -0.1280984939775558 -0.8097509225786549
-0.050861674870835115 -0.17653731789303678 -0.9829789750653196
0.007048347589592274 -0.25707122044301456 -0.7721160379124922
0.05704430462423124 -0.08353874863973676 -0.8058683724920259
0.1970690608006092 -0.08350456948761571 -0.7858611500309504
0.09317645756140053 -0.17956427783441503 -0.9793236532843029
-0.6903551327837936 0.11155660957155183 0.46828346987029523
-0.86823947689439 0.1749144203792563 0.46428994852952055
-0.7571347862731274 0.17480208507636316 0.6294371664178258
-0.5649947671663982 0.20854189884466517 0.5278079705080342
-0.6573750220627695 0.3461415441968894 0.6693609726813822
-0.7738678426164065 0.21002001248002483 0.1585979194772533
-0.9797106018270885 0.1753826791166408 0.09699511602897154
-0.9401950221728976 0.1752583210259719 0.29209217927302
-0.7028177440236971 0.20958122113365224 0.32715184417397924
-0.8631789189393096 0.3490996514767656 0.36476237091778746
-0.7738678426164092 0.21002001248002303 -0.03145636752079253
-0.9797106018270906 0.17538267911663885 -0.09699511602895285
-0.9367391247069254 0.3500283020604238 9.781714776916523e-15
-0.729750682322807 0.3272389450553267 -0.21050567705686665
-0.863178918939316 0.3490996514767687 -0.3647623709177693
-0.6587005837300984 0.32680015370896076 -0.379059601753594
-0.7318575853269914 0.155414674947917 -0.30682024954498666
-0.9401950221729044 0.17525832102596997 -0.29209217927299874
-0.7687368081043962 0.1406339946978762 -0.152398214923981
-0.5958197971443497 0.5400375352367479 0.2347305319211973
-0.8230223806499695 0.509503027068402 0.25107932283920154
-0.7091588525994177 0.38451875090943693 0.17879885382964986
-0.6381087540067083 0.38407995956306434 0.3473527785263758
-0.7499679318110615 0.5086934910012577 0.4228226974371083
-0.6293549795183202 0.5376221136198239 0.08377171033062525
-0.8566627613985908 0.5066891121130132 -0.09692810169949413
-0.7091588525994204 0.3845187509094351 -0.011255433168395973
-0.8566627613985879 0.5066891121130149 0.09692810169951024
-0.7353706955529657 0.6602143115249848 0.15279726103414815
-0.21450156506018248 -0.45744137907084576 -0.6416804389847339
-0.38326007617686864 -0.48890948795172223 -0.7836320734883723
-0.17112614110519186 -0.49179612206096446 -0.8537285389140057
-0.6183836662064489 0.4804369308646072 -0.26691197267494815
-0.751593166377205 0.5060662781457718 -0.4230893928932435
-0.8245602086231053 0.5068421733273881 -0.25141892071240574
-0.6499468092417069 0.4803423077657155 -0.11547853355784543
-0.7373702711503093 0.6578683897835435 -0.15327839034686827
-0.5313151876213102 0.4805377751678693 -0.3910985353287777
-0.6635898191449777 0.5067488550009748 -0.5503218602620987
-0.6170010116093562 0.6577546112079453 -0.43205164402848406
-0.4822444065232596 0.4008006652664358 -0.49812521367990015
-0.5288788064519077 0.5036745138799895 -0.6830806629921257
-0.38348441715404513 0.5144440283181249 0.5102520923050972
-0.6517010799056793 0.5162843892586624 0.5556402899876696
-0.5245855649501381 0.3530012677506104 0.49476474642705803
-0.5153564713943769 0.5119949588701864 0.6872182109661044
-0.3698114749771243 0.6519026224356264 0.6620139302437652
-0.49700760621061535 0.5455227201305788 0.36284012440441493
-0.3851287894774722 0.394310269791597 0.3149553885619265
-0.25349573283282645 -0.4915125053055828 0.6057733655977426
-0.17065052557612134 -0.48985209275231933 0.8549405390708564
-0.18756949080915453 -0.35324114635922943 0.6981574072809392
-0.3937778094252508 -0.35015584632192376 0.6255642405717169
-0.3818310036117007 -0.48875332537395194 0.7844267152620348
-0.6462714176438485 -0.5112720129605614 0.051992473431414776
-0.8566627613985889 -0.5066891121130135 0.09692810169950934
-0.7260752907249457 -0.3581686502501742 0.14701961693044027
-0.7260752907249486 -0.358168650250172 -0.04303467006760556
-0.8566627613985919 -0.5066891121130113 -0.09692810169949502
-0.6127362352698787 -0.5136874345774849 0.20295129502198772
-0.7499679318110629 -0.5086934910012557 0.4228226974371082
-0.6550251921322363 -0.35772985890380177 0.3155735416271662
-0.8230223806499708 -0.5095030270683998 0.2510793228392014
-0.7353706955529676 -0.6602143115249829 0.15279726103414726
-0.3863551441252915 -0.5128412271849205 0.5102484463161864
-0.6534853988947109 -0.5145826709447164 0.5551229667333376
-0.5253664200677175 -0.3527869434943855 0.4949713296759123
-0.48307746320535994 -0.5087445191680686 0.3823490830707338
-0.6040876006202669 -0.6674252776443041 0.43545570330203803
-0.5173709693004367 -0.5104604873476944 0.686845958699533
-0.37178058613420145 -0.6504685660948882 0.6623215535494595
-0.6137407927518703 -0.5125317956701005 -0.09915862985333324
-0.8238060547996062 -0.5081743742920676 -0.2512018896990503
-0.5454494413741158 -0.36757714744077874 -0.08257044653778567
-0.6267053793408881 -0.5074201828253522 -0.285714023253944
-0.7390398773139664 -0.35305703740542366 -0.22959006346821634
-0.6679897787212574 -0.35261824605905856 -0.3981439881649437
-0.7508026384158252 -0.5073864133740288 -0.4229118414885954
-0.49789177235397164 -0.6265932787806022 0.001797969478152861
-0.5983494296734996 -0.7944195223756841 0.104286060802908
-0.6235888218605473 -0.7800759063991058 -0.05117188198794227
-0.2829692250502257 -0.7322685528277249 0.16538801474828208
-0.5419036653984447 -0.7879447029722549 0.2923757214368109
-0.4450742119817065 -0.6150348870382489 0.18087616591571576
-0.3302297490657994 -0.7279407312413663 -0.0202771596281191
-0.4238944866690375 -0.9015343596691415 0.0868864920890714
-0.442568167401822 -0.7910446554053611 0.42235266112243963
-0.34835189290163804 -0.6191315950551008 0.30877552916116835
-0.3575248558927854 -0.4722215497828919 -0.5435694628987919
-0.5288788064519078 -0.5036745138799894 -0.6830806629921256
-0.38565910027784117 -0.6453177551558341 -0.6594179655222634
-0.4834399893815612 -0.4041279806723881 -0.5109598236927289
-0.6635898191449785 -0.5067488550009739 -0.5503218602620986
-0.41170559433975973 -0.5736517601899933 -0.4154453176700694
-0.5098846523880666 -0.7915100635025074 -0.3369413311443957
-0.38195757067027947 -0.6887775586078803 -0.19001981985239996
-0.49780659106817815 -0.5747160754973786 -0.29097641918388606
-0.6159918767481505 -0.6589009653784493 -0.4317447458900212
-0.5900533274239717 -0.7808686616083959 -0.2051370374013717
-0.5406043826124697 -0.5063558675179669 -0.4101829217401274
-0.1614523636987866 0.618183857707552 0.4735685401115597
-0.2821306435966727 0.7941657999905046 0.5382406358397415
-0.14590568420896827 0.7629856818649094 0.6297335790512144
-0.06451545062319619 0.5188935135948151 0.5933464182722065
0.04642442941754102 0.7871843155215155 0.614967987581613
-0.046756184177919984 0.6597502451821271 0.7500289815888741
-0.5121892574746846 0.7895645734380089 -0.33800880003216827
-0.5040662123073542 0.5941993928662725 -0.16688379815595802
-0.37230718326124235 0.3981419009905329 -0.34979705453604626
-0.3637867329017368 0.567850326262568 -0.5099385227491269
-0.3365377575877807 0.6815119439609714 -0.2857237855763072
-0.6258283269593542 0.778199972070926 -0.05238042233569338
-0.5933981471523023 0.7779446699433378 -0.20659314960318922
-0.48347438258396747 0.651479198720381 0.032366445732512655
-0.6008046563781191 0.7927311037048049 0.10301049506400844
-0.22076344206913523 0.5530701555505212 -0.6080494988350689
-0.3832600761768697 0.4889094879517214 -0.7836320734883723
-0.3595835183680558 0.4114816076311977 -0.6284925000697532
-0.3856591002778413 0.6453177551558342 -0.6594179655222633
-0.24784170547436318 -0.6899085247916756 -0.353533142744269
-0.36713627836769314 -0.7840258010712267 -0.5005142319264667
-0.2686823035071568 -0.5588715894779472 -0.5135562937560114
-0.22072934749075826 -0.7685107633958245 -0.6005578753967609
-0.33680067281260095 -0.9020311462191575 -0.27000947769204714
-0.20205113474283626 0.6821855600628876 -0.4509839408460515
-0.2227281005395799 0.7659374021870614 -0.603102055344671
-0.36902501635980495 0.781450033310159 -0.5031464823887742
-0.3416554803507079 0.8988838097945833 -0.2743709701034396
0.0641317744804792 0.22748894634888664 -0.793191263375198
0.26561722182812847 0.1853054790782928 -0.9461021989678868
0.07220397009767217 0.36102179143393504 -0.9297579538847552
-0.17526849235123515 -0.6197589372497874 0.4687638271387772
-0.1589162409716446 -0.7644354834830827 0.624807186216218
-0.2971582305405441 -0.7930198222120879 0.531804990199153
-0.1372652411275817 -0.7260493051199677 0.26729090998375915
-0.23516405943240692 -0.4690932973368749 0.2613076058052992
0.04104754932138145 -0.40387126837069065 0.677964495259579
-0.06577170862166236 -0.520592441276184 0.5918554465335438
-0.16634805271301656 -0.24608175656120124 0.5488895716863524
0.026742612052786052 -0.3035822454715267 0.522476766871572
0.12731895614414024 -0.5780929301865094 0.5654426417187634
-0.08007664589025776 -0.42030341837702 0.43636771814553676
-0.15224164108885935 0.41632363638437675 -0.7005577694467431
0.018266463768511463 0.5360797521374839 -0.8439696888215877
-0.03479513827696608 0.5898172406791622 -0.5878146911864361
-0.013026277598598979 0.4243867946500133 -0.5139698444085741
0.03951080985421058 0.3552559789491583 -0.7458905718989217
0.15695731266610385 0.5287495832439437 -0.6331474936386148
-0.05172856317293773 0.6697156524623461 -0.7408138096708223
-0.03299153013461191 0.809211742568419 -0.5865900737557359
-0.028673983228949873 -0.49420684082061106 -0.6214544674745774
-0.051870532867134465 -0.6697165373557874 -0.7408030827502364
0.017973931535436388 -0.536041130413265 -0.8440005001719065
0.09808461520352807 -0.6496468925896481 -0.5113725018867263
-0.030953604879645165 -0.811388750705982 -0.5836867049819967
-0.06690236859491089 -0.7439183661536113 -0.3715753223851404
-0.08774296662770452 -0.6128814308398829 -0.5315984733968828
-0.2514582657210679 0.7470703111114263 0.24507795552784578
-0.4396934546604475 0.7909508774527471 0.425518948327205
-0.31512723687587385 0.6361654098335556 0.3854371553533794
-0.0930951834206153 0.7399052392229828 0.34875360315984194
-0.21352776355481706 0.8965313736305754 0.3881203296496486
-0.4333386350558094 0.6564276214084495 0.2224809245788813
-0.3167716091993009 0.5160316513070278 0.19014045161020876
-0.4264910655839858 0.9000981599913211 0.08904309831353767
-0.5414731912622482 0.787016039390263 0.29565611254756863
-0.11421912478304135 -0.787200143414041 0.04562969127784557
-0.25431739185552044 -0.9664704273766774 -0.03546233503519332
-0.1961138838698831 -0.7290716974251616 -0.18379048251998814
-0.11689741814028111 -0.971858796227748 -0.20451277179405936
-0.05583492384805051 -0.9639586729414543 0.260127157636093
-0.20477565041709 -0.9664950371788165 0.154771690256894
-0.22669016460022476 -0.897248466294967 0.37888884782327986
0.43115464865030456 -0.09016146928547185 -0.8977619831578508
0.49071298347509207 -0.025140517573772003 -0.6650578327132396
0.3471198453306413 0.06351842867934203 -0.7429230923212048
0.34066219894506 -0.17216351574072974 -0.7079958904229852
0.2641393937784946 -0.020054499112515778 -0.5687986872743063
0.17594051012662387 -0.2640033864884539 -0.7567521788138588
0.26342090047994804 -0.1835662651478728 -0.9470548323566034
0.4103752319982243 -0.2743447422910147 -0.8696707028178425
0.06991468233508978 -0.3592090887806067 -0.9306346048430553
0.1847816205592619 0.2745255690688483 0.7697347780149291
0.0705093942876428 0.3557703491867995 0.9319098046252612
0.263671588774303 0.18140705304074792 0.9474010631091281
0.35017404385846773 0.18334511888214397 0.7198083604727042
0.41197398245354705 0.2709115952980282 0.8699910030077562
0.4322344740550524 0.08875405992126036 0.8973829039411468
-0.10006507811806628 0.7796637909007251 -0.07607416627203191
-0.1471651439887129 0.9657705735341774 -0.21361090723614182
-0.15653106859492488 0.7210784478745446 -0.3020465912790436
-0.29101769143986933 0.7204048317726284 -0.13678643600929932
-0.28360442341575 0.9579746119076497 -0.04304850705202166
-0.11064139992742292 0.8013808475514546 0.11567574641874455
-0.23183615425165158 0.9609587092321777 0.1510309793804944
-0.07094866165112945 0.9631653960928354 0.25938139327878745
-0.30159401324922597 0.7421218884233578 0.054963476681477136
0.6039279225779706 -0.41755224625639864 -0.39227591170913984
0.6828189430228043 -0.457845627289853 -0.569329142606262
0.4565077827661082 -0.47899000837711625 -0.5196754208527062
0.47962707542837735 -0.31280138086960707 -0.5794425840957623
0.7138181692789389 -0.29108654343391077 -0.6369711496127293
0.5529585720170724 -0.34901914733025247 -0.756586050908754
0.6228260444450029 -0.5022543533387382 -0.09975373784466803
0.7921043759660843 -0.5458427024798007 -0.2731783331908442
0.6665367470121022 -0.3569295671724336 -0.26338690273090076
0.7140184575044558 -0.3690706509460103 -0.02910488514015845
0.8326350584019844 -0.5528667296197113 -0.032515208741900406
0.8891649507987477 -0.4108342526696944 -0.20149666772528615
0.40178357138826065 -0.1510724676247433 0.6998107276547535
0.575573706818148 -0.0016816292476995644 0.817748176483867
0.40464410156234343 0.02509456551602926 0.6981596101601751
0.259879229413409 -0.062217516513495066 0.7765226699269699
0.4291442075837936 -0.0905156417800738 0.898689138518108
0.08992642707640801 -0.24446268115048436 0.7684454256448322
0.26410973710093205 -0.18293415683983869 0.9469852908201762
0.06973935969747311 -0.35691582878341865 0.9315296629054987
0.643585400404476 0.049508271275241184 0.4928796060485684
0.7042764821067191 0.088824424679766 0.7043471149452468
0.521175115767146 0.13676412797943402 0.6042738770004271
0.5183145855930633 -0.03940290516133853 0.6059249944950055
0.7018631737504575 -0.0905738504654547 0.7065298740639326
0.31809954816190944 0.579155513408862 -0.4788411952903029
0.5075591404578501 0.67163019143184 -0.5397190054972294
0.35861738135183474 0.4431324024896285 -0.610005802646546
0.30440046765410256 0.764862782813194 -0.5677369802639426
0.3453326913055253 0.6238906612603669 -0.7010747286187007
0.684011097282242 -0.04392368646247227 -0.4245703453428483
0.8332057206203959 -0.20076256797732234 -0.5152306458515427
0.6842114475095766 -0.23414556949945112 -0.35012530410091
0.5599106003599834 -0.12939470411265952 -0.5372919764875325
0.7039122339924959 -0.09344803964079082 -0.7041129388975796
0.6148134803973506 0.060330500076415244 -0.5523362015685555
0.483387795193418 0.022714312515554447 -0.39809477333885357
0.26977054257541017 -0.7199200922068432 0.22869442734770684
0.1278188676239991 -0.8901013399893631 0.43747221812185844
0.06737298674413478 -0.725969483855919 0.27552175474052787
0.09041910308867514 -0.7871203221499923 0.05386053603461429
0.15331904449926223 -0.9648229981333306 0.21356463393278508
0.22021972824584285 -0.671210034511037 0.3955236949311757
0.2401341358167103 -0.789952131594447 0.5641907714638296
0.017822172414567468 -0.6772594261601128 0.4423510223239967
0.03273805656228131 -0.7923347402320899 0.6092075829090372
0.437292849527724 -0.7204440312978964 0.5382707139712869
0.31750153497203415 -0.5063030026325734 0.5372101110520007
0.33902315759308477 -0.6197852093657055 0.7077637973696613
0.11304328371528036 -0.7635204028239637 -0.3330928370671363
0.06842014340779307 -0.984176738374682 -0.16344672409757785
0.014992390491930869 -0.8020468121424906 -0.14215514858730668
-0.015387071954827148 -0.9182212374095463 -0.3957688683900473
0.15335386014595032 -0.826898917548003 -0.5410367582117477
0.7597893060107264 -0.24861803575429126 0.36663389151281683
0.7098999910310626 -0.27106505773268513 0.6500505651181863
0.6329691287673296 -0.1627721093427575 0.5409272153958665
0.5684898152054967 -0.2279437675857392 0.2857693654955833
0.6260490439661499 -0.3288399375276742 0.3771542429471119
0.4992288667227531 -0.24299401111614044 0.5514475668301616
0.47836930211472184 -0.42148388366846185 0.4803775128515617
0.6838509531415546 -0.4515221207406537 0.5731279511324235
0.5532779131108121 -0.36315775486243584 0.749666589856464
0.7582399435787422 -0.07386093290617776 0.42788182694942944
0.8301579675351614 -0.1778329841849444 0.5284062629017255
0.8382505724764402 -0.0921678739976666 0.2488172566467078
0.9121312926444705 -0.01867278604480946 0.40947262672864004
0.9164389752320391 -0.19751002315203908 0.3480364857743093
0.8065154905878121 -0.2793776491675394 0.15694567907704965
0.9642318193043243 -0.22897575857144453 0.13351816590900462
0.8851713009734629 -0.38955829125644525 0.2543936037841865
0.3443833206258844 0.6317028921356984 0.41942218800842224
0.30183398909713066 0.7390122727428943 0.6022932041465313
0.191826266488903 0.5836558656417897 0.5548284086023249
0.38349466110159275 0.49848599248587544 0.5351505701700283
0.4949522015743334 0.6481071777237153 0.5787740529254236
0.3419159413909146 0.6029154463464442 0.7208234552091327
0.20498108935743217 0.8500346696243146 0.4852049190213582
0.0948893534133126 0.6829462097545267 0.4350505304416781
0.5284208531586867 0.44671107096876567 0.4012299110863136
0.6545149145530812 0.6067843982395386 0.4510243016519773
0.6852489014505446 0.46216030709833233 0.5628870167303532
0.7012221021409437 0.26341167636714086 0.2663663004552939
0.8347779560269765 0.2051927730143688 0.5109223914001979
0.7004650708376109 0.06307874643492176 0.3480593778491884
0.7804756997353088 0.04477180534343292 0.16899480754646676
0.9248959205664812 0.18810257915465456 0.33043146919572924
0.6443424317078088 0.24984120120746028 0.4111865286546739
0.49941623965071485 0.30161612272457006 0.5451071877383886
0.7163579976856898 0.2974553156472128 0.6311509758726247
0.5564050234538704 0.34477613584462313 0.7560045410097401
0.5528668935597159 0.5963960072748862 0.035688818497267696
0.5412800267787052 0.7945344149047158 0.27519265277704114
0.4704065473618928 0.5888498865691143 0.2196682615782558
0.6544440798946951 0.40385806540218155 0.2014759846561472
0.7425254540439398 0.6167419958246135 0.2613144861715736
0.27597585623383447 0.770237067796559 -0.001805947873136364
0.4715728774507052 0.8817111228333443 0.014300948389015236
0.42507129828687035 0.689335457035934 0.06969164873571067
0.347503009854485 0.6939605300324745 -0.17227529949022724
0.39390302941357175 0.8892318564406906 -0.23260934828560495
0.5532040570405418 0.8171971058887364 -0.16172248267003103
0.3181070324938646 -0.7402666367300739 0.026361620838572943
0.3842493936560217 -0.9049516685175771 0.18279737723018064
0.2020232102160575 -0.9793724099561428 0.004037963681813365
0.702643196733871 0.4327601013807279 -0.5648107937500387
0.6249309616656306 0.2251923583957737 -0.4848845244040416
0.4763493838338626 0.32495708340945206 -0.59328479399845
0.5624272658504057 0.3550405362476664 -0.7467407771435858
0.7215080306755877 0.25619503919668335 -0.6432653135073
0.49009776959897444 0.1506318053378341 -0.6658134074746206
0.8390158321643711 0.16113976227943866 -0.5196983840556498
0.7037138454062299 0.0855737675981638 -0.7053112462470964
0.15895200852685126 0.6430794700076423 -0.45923154658120213
0.30287211647880735 0.8720064558370972 -0.38454287412208343
0.14025484865873283 0.8266134557436309 -0.5450126349097684
-0.03280044241621864 0.7041471274428608 -0.4138987441290235
-0.03054227809661723 0.9149407143790185 -0.4024309362117681
0.18835547021942683 0.7578844866312549 -0.15266565078112648
0.23034860788804815 0.9498322099626705 -0.21156155549028213
0.0270750885002256 0.984254221702826 -0.17467274155651574
0.07557076836966783 0.7945082622774622 0.036221577508857225
0.11649797445503814 0.9929928162797335 -0.019836551230416506
0.012719623731692734 0.7430400152545178 -0.2649613945620156
0.44342731906275146 -0.6031629369887266 -0.389808905658753
0.6760067225195441 -0.5904147041321579 -0.4409369436245056
0.5602172200108713 -0.5628770324227033 -0.22864274682290708
0.6246410395815606 -0.7329584793783268 -0.26943540817397815
0.516365256365366 -0.644342129833599 -0.5640834528154778
0.5874372294498439 -0.8067081437965244 -0.06433873008272363
0.4080583898340735 -0.6768312391592091 -0.18910163440813946
0.47065145376231066 -0.851884305378131 -0.22973972081867516
0.32361192809485056 -0.7462498338941854 -0.5817099839332603
0.2634626851404812 -0.571285005026285 -0.5308200725115177
0.33574961200854325 -0.6162332930838683 -0.7124105042257055
0.2780492491257983 -0.6815248245520897 -0.37036133503396157
0.24268031989712033 -0.7551931267225722 -0.16965406378334805
0.33581743851162 -0.8552154507160308 -0.394757116272868
0.301096485447868 -0.9342235169635754 -0.19122585286291688
0.23531977900712955 0.7661410809813636 0.15268950535122167
0.43356788008160874 0.8843934626036426 0.1728209960203881
0.2773267009140693 0.955731905686792 0.09831798112456971
0.3454120933141869 0.8675964244290433 0.35772465683853955
0.34261095208904724 0.6817893363301621 0.2536710918166988
0.07486581513379091 0.987618284423514 0.13785947191509235
0.2370921475439667 0.7160546367868998 0.3184406015429451
0.09253345397547069 0.922492373764229 0.3747604304648605
0.0491076107100388 0.773013666255356 0.232143674261109
0.5576325423770142 0.5298107864211654 -0.2682011105244972
0.8033581421150074 0.4769923802851381 -0.35650240482701073
0.6029081754631634 0.3839308048215898 -0.3613592231495142
0.4543265976313955 0.4836955298352682 -0.4697594927439226
0.6596778798091671 0.5848993503727392 -0.4719299151611704
0.4138087644414702 0.6197186407545017 -0.33859488538767946
0.6116996348349438 0.7172825765485199 -0.33366039939242564
0.6932610801797031 0.7153129774358686 -0.08784315010234844
0.4913770528738555 0.6150935677579612 -0.09662793716174155
0.4316344465894528 0.4257478314229992 -0.1464932713964966
0.6191223830628746 0.5111132259380904 -0.13588435486548794
0.6727752285432357 -0.35959955094092233 0.16746603051134473
0.553172846661462 -0.49146904875112774 0.30114877568384374
0.7588506630191167 -0.5220345687091386 0.3893912945972346
0.609930627701537 -0.6181012929694113 0.49591876453825673
0.5944160756226822 -0.5009401487562157 0.10457786003234054
0.7153953357438381 -0.6909500037256424 0.10391152942525629
0.811566929216537 -0.5568792809354806 0.1767613811521695
0.38108749538853054 -0.5863909155469254 0.3386910967307367
0.5098198146786006 -0.7855794339851274 0.35064042759026565
0.4706672142682051 -0.616208560075244 -0.06021262542990038
0.5637901770969956 -0.8130318101857691 0.14532691366360762
0.36467582930902 -0.45116594602412796 -0.010277868104654697
0.4418558938483417 -0.6249982254110455 0.19115210630081386
0.66722407410612 0.470462361631949 0.035197171577934935
0.8067415383178032 0.5843173014224072 -0.08798512153233752
0.737718751594625 0.6695668721194933 0.08632060765417479
0.8422354002455927 0.4749917086420348 0.2549949162129832
0.775323658669056 0.19599365826337128 0.05274845562494128
0.915718880506705 0.3429297628932697 0.2094232785664303
0.9872575955393662 0.1167530370465546 0.1081257064265247
0.7285456364228073 0.336440047298412 -0.012141860174205443
0.9241635582620643 0.30259390901587807 -0.23314940233011644
0.6643980161490238 0.3652332443385148 -0.22904246749050494
0.8803632544214369 0.45381253418258205 -0.13789388704101133
0.913658944497048 0.4047308865029109 0.037686106871206056
0.7140020963523686 0.3300159725969083 0.10008748737708166
0.7623622209264107 -0.07306614047955058 -0.24782936852781756
0.911376565008933 -0.0361475648743588 -0.409983060999076
0.6941285785505219 0.12093817185688618 -0.3571186681783345
0.929462698585182 0.1330709391708832 -0.3440802480336965
0.7111760383952724 0.22478685530347411 -0.16415215169135822
0.7794096807711612 0.03078254296703735 -0.05486285204084129
0.5696328719230599 0.02230880942325486 -0.07736240062617017
0.8371845535122926 -0.10615713637406217 0.024959597059399763
0.9986497834036936 -0.05192617878345345 -0.0015106504243294773
0.9650983108032546 -0.2437813793315025 -0.09568641270282131
0.7446875204289363 -0.1958501381525331 -0.16109096715780835
0.9136221859122577 -0.23062808107197308 -0.33482113079966674
0.21034525684867317 0.363714537130562 -0.7293393296473857
0.1923988234476596 0.5398707063063013 -0.8194646503713822
0.39880976642361937 0.4532718882253391 -0.7971796319210457
0.19402596922721135 -0.5285713677439429 0.8264177106444045
0.09016508386098132 -0.1268415830160179 0.6140073294957249
0.2396203057073621 -0.24194368051079435 0.7474541347281695
0.1907414279523355 -0.40135226773100063 0.6569732043429163
0.19408902100809597 0.5251281128166791 0.8285951466510724
0.1367467731293468 0.4333669867831943 0.6803195096429623
0.02203935656487466 0.5234639939894244 0.8517627097724142
0.4091489050071852 -0.27378177188810865 0.8704255941280846
0.3809240067802294 -0.3295623401770647 0.6287406736761536
0.3888872683970285 -0.45681806720260393 0.8000524645021568
0.32841516774203655 0.34819711362728 0.6606416712106657
0.38974678175444605 0.43895601085958635 0.8095770912286803
0.31754290628279086 -0.3383521432482389 -0.6482287271799291
0.386686134209978 -0.44364334065859284 -0.808488973269906
0.1859983404437402 0.342467403214497 0.5108224381634829
0.9874450851685946 0.10263430644727176 -0.12007665433578056
0.1901823839029549 -0.5384236799110006 -0.8209327632419634
0.12449780865716387 -0.43064713989740766 -0.6593733788387406
0.4117685291912646 0.274389317641636 -0.8689978024896382
0.3723657671169466 0.2688071244180105 -0.6825344161227166
0.2293878428486134 0.18169374775951844 -0.7596441009693008
0.43040259059544544 0.08870168062923148 -0.8982681235924379
-0.5012496347322251 -0.26023764775045155 -0.3699027418909979
-0.5881109587535638 -0.21242304270754864 -0.19193399139416112
-0.5309465655226553 -0.11019515586196982 -0.2927108933467626
-0.31817010801254075 -0.22610333001537652 -0.5032892830496625
-0.4213499406491752 -0.24752550692183828 -0.21147173909763817
-0.4510468714396054 -0.09748301503335655 -0.13427989055340284
-0.3641855474182667 -0.14529762007625946 -0.31224864105023964
-0.2776974335883158 0.1211115428722056 -0.5660084690671596
-0.44288965864301555 -0.0033273154059527688 -0.4578450338307707
-0.5297509826643543 0.044487289636950145 -0.2798762833339339
-0.3629899645599657 0.009384825422660503 -0.29941403103741093
-0.15923975996679296 0.2881612038683379 -0.5778217781363864
-0.2788930164466168 -0.03357090262671436 -0.5788430790799883
-0.5788217637624049 0.1242243995383836 -0.17284960498281143
-0.20597639981169746 -0.027523871744227657 0.5817262125184743
-0.6156073473281165 -0.021633126816873682 0.26827317765276715
-0.12608688592927608 -0.07615132408179126 -0.41023371464789893
-0.2520020194180519 -0.008057754971287467 -0.37762407544183585
-0.08680979436335212 0.1163811033068709 -0.4857875106782248
-0.15297788295784098 -0.10166447173721815 -0.6114527182860514
-0.11075257888461909 0.13324568226157707 0.5823836719143407
0.035695026157105625 0.03140897035009682 0.635656079808254
-0.47778437047081757 -0.022672449105860748 0.4689293039868221
-0.5633609685510312 0.2508902231746388 0.14734248630884772
-0.4902469817107211 0.07535216245623966 0.3277976782905061
-0.4255379916937323 0.24985090088565176 0.34799861264290266
-0.3127956577547413 -0.144245044649721 0.49561716379243914
-0.2863899000312182 -0.2090767112925187 0.3396584261042839
-0.17957064208817441 -0.09235553838702537 0.42576747483031907
-0.32601824712989913 0.009481173524454878 0.37249506693640577
-0.41604867209573704 -0.21401962670193497 0.1602606380555378
-0.46384122398719807 0.010520495813441944 0.17183894060235083
-0.580277406676559 -0.1481486377701502 0.11556324940963814
-0.5678147954366555 -0.2461732493322506 0.2566948751059541
-0.4513786127472945 -0.08750411574865846 0.3129705662986668
-0.622938924056007 0.007005466963079909 0.006199704553262686
-0.575146372164546 -0.217534655552297 -0.005378597993550338
-0.3120148026371621 0.21877220907319783 0.4954105805435849
-0.5839527982744179 0.19361041732053041 -0.05190775757962296
-0.4120607456580163 0.08912193532409396 -0.19238735268628848
-0.49076485688276517 0.23109223999440065 -0.33798374546681953
0.05940368800484186 0.2526066940885463 -0.4219355769504125
0.03251269097627696 0.2270935464331194 -0.623154580588565
-0.13234876293822806 0.31367435152376477 -0.37660277449823387
-0.039083182637651204 -0.23063719820267692 -0.5738178336198887
0.00019390892827275685 -0.038104770814014755 -0.6493716296502146
-0.4295152396904236 -0.4297614272680568 -0.2743882358683385
-0.4165506531014058 -0.43487304011280514 -0.08783284246772771
-0.2464357129707393 -0.39562710953298175 -0.40777477702700304
-0.3723508464595151 -0.32753354042247795 -0.37516513782093996
0.027084905956837657 -0.012591623158587861 -0.44815262601206207
0.014215813411417422 -0.06799749398860389 -0.24764261225918016
-0.05195227518307144 -0.28604306903269294 -0.3733078198670068
0.1012195167030423 -0.22248336810948954 -0.41122673123116993
-0.5192438082574291 0.3681091557499425 -0.0317068232272264
-0.32678711711333097 0.43703478880218993 -0.20085970496903838
-0.3061952873899443 0.49431459465629835 -0.0016094610805676979
-0.3232364021631917 0.31840479108909947 -0.4568237328871687
-0.2032484201427307 0.48495295949457384 0.337552419510891
-0.6021173465559324 0.6689953354986744 0.4357751049078633
-0.39913223397020925 0.18501923424285405 0.1920398749547474
-0.4028260827205792 -0.36774584487611084 0.2833827349115712
-0.43815602337213666 -0.24123033392283433 0.4360926631547002
-0.04695984395529421 -0.6614107351864823 0.7485523444861898
0.020385642239473378 -0.525452926823383 0.8505784192437665
-0.45871018947518505 -0.05886552196870487 0.05089709319916236
-0.36482283149692574 -0.47403621274629115 0.08190981775655315
-0.736382762779085 -0.6590403707706688 -0.15299090292007902
-0.24888862981323356 -0.5362204925735692 -0.10990797157399967
-0.065496376091287 -0.4496369508949174 -0.42581695666787445
0.08767541579482674 -0.386077249971714 -0.4637358680320376
-0.4083853540601574 -0.25263711976658665 -0.024916345697027387
-0.2508064365597509 0.1466246905276325 -0.36478946542900714
-0.17210232533500203 0.0046543858573258046 -0.2191930726484761
0.11928845106424224 0.14764103458057964 0.4285546244318621
-0.12238297490456085 0.08870819248625517 0.37462475714208243
0.024064630137163867 -0.013128519425225083 0.42789716503599573
-0.1709801638356941 0.49186126515520173 -0.8537202582899409
-0.36570000964091687 0.25514420836521046 -0.10560958341649807
-0.409817169934519 0.13792527578990676 0.07343972611957605
-0.3451081799175302 0.31242401421931887 0.09364066047197261
-0.042073394666604313 -0.5265937862472003 0.23489480099051874
-0.06794929293378127 -0.5902303339355048 -0.12795015121487108
-0.24072333077198516 -0.3539845722273507 -0.04699147480329935
-0.29245115237646524 -0.3148213995938647 -0.2167341350275802
-0.07034337666835899 0.2777050511675223 0.5493404478333646
-0.08197377268830075 0.2331675613922004 0.3415815330611063
0.17375850876811794 -0.010609518785535066 0.406905874119333
0.1853889047880597 0.03392797098978684 0.6146647888915913
0.30383885131660726 0.518687281184047 -0.11249044115805362
0.254661224806412 0.683642597353282 -0.3189852366785787
-0.15925866239375752 0.5243473398968888 -0.31969969238938756
-0.2998772176578015 0.22636180042906595 -0.2577627870778847
0.0748063232494065 -0.44148312080173 -0.2632258542791557
-0.05440519202556571 -0.4266364520732804 -0.07544101441400342
-0.10613301363004579 -0.38747327943979437 -0.24518367463828428
-0.11967711453826135 -0.5510671613020188 -0.29769281143915194
-0.015263883308802795 0.42799393002611774 0.4238493467927271
0.05132092843253133 0.5998017557360122 0.13328331364928592
0.06189725024188797 0.5780846990852828 -0.05846659904149054
-0.12431491805520278 0.5849572843592752 0.020987569868396783
-0.16322781058278868 0.4030667039222957 0.1162376914209371
-0.15265148877343204 0.3813496472715663 -0.07551222126983936
0.24018439318635965 -0.36312123323836687 -0.2826734249039471
0.4723018871467033 -0.2649465507802806 -0.3124795247213763
0.3204679181179657 -0.17971455648141932 -0.24052281729571723
0.3027932176204913 -0.30249855415440186 -0.15378441592570802
0.45462718664922885 -0.38773054845326316 -0.2257411233513671
0.5349107115808349 -0.2043238716963156 -0.18359051574313723
0.2530534857317799 -0.30771536240835085 -0.483183438656829
0.29028952297292054 0.1010600436778697 0.31302014095958497
0.3019199189928623 0.1455975334531916 0.5207790557318432
0.356389976696738 -0.012653019912923114 0.49913030541931414
0.2964581758264988 0.24514381813461839 -0.5425816382126567
0.14640739129646674 0.09812081996766064 -0.5855196959224023
0.6444552045089418 -0.010782186471256727 0.19542656496104716
0.17643649068374012 -0.30106324483183666 0.5014854759549092
0.07709756238052168 -0.33397943463054425 0.2735390838178213
-0.11599310238528093 -0.2764789457202188 0.2999518886326018
-0.07798985116162749 -0.3827693135903991 0.09847897147758378
0.007477419662963003 -0.5753038439430065 0.0680655334070499
0.32343260034779986 -0.44169484601903997 0.1862930475468485
0.47599278212214036 -0.31763676936421015 0.09971880127837518
0.27388178601823254 -0.3929847883232338 0.35312231513031733
0.3373042578264278 -0.216244125867725 0.44465287775447027
0.22664029227814408 -0.5267151151005913 -0.33518256170481475
0.1366889349379352 -0.5901505126714561 -0.11971930645810236
0.30206700487488836 -0.511788625108093 -0.13916687708289377
0.33333701066338595 -0.1243086856514033 -0.44103283104859914
0.15023303584615078 -0.4265566308092317 -0.0672101696572347
0.06476576502156028 -0.2340221004566243 -0.036796731586700826
0.126648376710089 -0.3826894923263504 0.1067098162343525
-0.2382704139294909 -0.21339118918676325 -0.3448582802563027
0.23930546526645924 0.5428427262675561 0.21958024093112205
0.053093296969368486 0.5497153115415485 0.2990344098410094
0.17436794442379844 0.2979299134391751 0.30306352339122467
-0.013616592410129469 0.3548889429076312 0.21676659610938853
0.23796532952320937 -0.2491603156664326 0.21670648561738237
0.14052003418871695 -0.15723877217503546 0.36506964644197426
0.4538352720312304 -0.10457456340432025 0.35076714459472225
0.5875755340758069 -0.0243526616309373 0.34024679316042716
0.5107149424643653 -0.09100408824463968 0.20594691639534224
0.5298006613346755 0.11258701771016222 0.2604243440601861
0.3569994123524185 0.29588641231178703 0.3952879546912058
0.2792085584844295 -0.2586314156715206 0.020135569965879174
0.4830226390884269 0.2530334067452029 0.19553402826103938
0.3671010605393048 0.4499032765065083 0.18557741069267908
0.16256483320511217 -0.5265139649831516 0.24312564574728746
0.42698208593741804 0.10417480818307379 -0.004318642542822326
0.5519581714255855 -0.10047518824972768 0.009376000743839041
0.39225992559519307 -0.12245787293649668 -0.11054675765978939
0.4099346260926675 0.0003261247364858555 -0.1972851590297986
0.30039117115980685 0.25507690787259096 0.10330959696105824
0.36532869200246765 0.49998972070097203 0.019826314500955622
0.0324937885493124 0.4632796824616703 -0.3650324948415662
0.12820300482887315 0.50384280980731 -0.22478618493894276
0.1551129042844026 0.293169821434186 -0.28168926704778907
-0.08682869679031668 0.3525672393354218 -0.227665424931226
0.08880714969741743 0.36741171071215883 -0.11536968115033686
0.38020406369116944 0.24462119721811448 -0.06920895834196905
0.5228548496768113 0.16275519845829556 -0.1422527164253169
0.31871422300530905 0.2633187577011895 -0.2015257140009783
0.4613650089909509 0.18145275894137058 -0.27456947208432614
0.6097330441667168 -0.2374148675908272 0.0891984498440801
0.34716919340605545 0.11463051883755027 0.16819991276020496
0.27120380410261036 -0.1025310622769322 0.2585427132947411
0.5399023095215618 0.2666038819048835 0.050713800061659375
0.022984357714302073 0.39619411864830334 0.03678352251104977
0.17259557588696128 0.3480163576336388 0.1373124271995012
0.2524084684183239 0.3375606469791623 -0.03520612810352608
0.2744353896240317 0.4038822645604345 -0.41905633695812927
0.39216739210605955 0.2857069454802581 -0.40233532831003327
0.575582179926118 -0.0015005746924741472 -0.8177425648864624
0.34073700920777616 0.10458031127537337 -0.3250510152555057
0.35101669663397295 -0.11298677293140869 0.08602415799171381
0.1906862246777441 -0.04244268689158437 -0.3679890729652513
-0.12574158931790258 0.1706766588984423 -0.13241530337868568
-0.24838664880756478 -0.315367079162699 0.13818550894926585
-0.009173844442237122 -0.15975777281472547 0.386060937358637
-0.23158499086095996 0.28134532240686494 0.24105262837265484
-0.404686135422506 0.06853925800775995 -0.04750212128361242
-0.245588435353697 0.07205428685812199 0.11813711476547573
-0.29194917137079646 -0.09396798618299451 0.03135934549568531
-0.23792511731811739 0.03343679379347031 -0.06703986898708947
-0.28560904491363903 0.15394054243040012 0.3394518428554296
0.17713569048686972 0.13443137500836988 -0.4052145683023165
0.10368252138611922 0.11204318722930129 -0.20440495399326153
0.03785972940300386 0.1408255951654458 -0.0522517503318749
-0.09796771458879738 -0.20523735909357588 -0.18226717786758395
-0.009368845724644359 -0.024130355505722623 -0.07372262636759297
0.15423247299626208 -0.05398141923871913 0.006440926679217807
0.17781713213232386 -0.0978485577216004 -0.16747905921236939
-0.12155237372485916 -0.16137022061069461 -0.00834719197599676
-0.07519163770775972 0.0046520524304218824 0.07843057729379366
-0.1292156917604388 -0.12275272754604294 0.17682979177656843
0.18747094757566307 0.09264783415078126 0.048277154356576535
-0.0959772171810378 0.023876525843457452 0.21866601945392716
0.07441958046489949 -0.04352570858424265 0.1789594819822451
-0.04195316312835873 0.15128130581992227 0.12026680497115239
CELLS 674 6702
10 91 11 1 8 138 139 140 141 142 143
10 127 13 9 0 144 145 146 147 148 149
10 127 2 13 0 150 151 144 147 152 148
10 127 14 13 2 153 154 144 150 155 151
10 108 5 4 15 156 157 158 159 160 161
10 123 3 14 2 162 163 164 165 166 155
10 118 20 4 3 167 168 169 170 171 172
10 118 19 3 2 173 174 170 175 176 166
10 108 20 15 4 177 178 159 158 168 161
10 118 20 3 19 167 171 170 173 179 174
10 123 21 3 4 180 181 162 182 183 172
10 123 21 14 3 180 184 164 162 181 163
10 105 22 6 5 185 186 187 188 189 190
10 108 22 5 15 191 189 156 159 192 160
10 91 12 1 11 193 194 140 138 195 139
10 91 23 8 1 196 197 141 140 198 143
10 94 23 1 12 199 198 200 201 202 194
10 93 25 8 7 203 204 205 206 207 208
10 96 24 7 6 209 210 211 212 213 214
10 96 24 6 22 209 213 212 215 216 186
10 96 25 7 24 217 207 211 209 218 210
10 91 25 11 8 219 220 138 141 204 142
10 97 26 23 28 221 222 223 224 225 226
10 93 26 8 23 227 228 205 229 222 197
10 93 26 7 8 227 230 206 205 228 208
10 122 10 19 2 231 232 233 234 235 176
10 127 10 2 0 236 235 150 147 237 152
10 125 10 0 9 238 237 239 240 241 149
10 96 18 6 7 242 243 212 211 244 214
10 93 18 7 26 245 244 206 227 246 230
10 105 17 5 6 247 248 188 187 249 190
10 105 17 6 18 247 249 187 250 251 243
10 105 16 5 17 252 253 188 247 254 248
10 117 16 21 4 255 256 257 258 259 183
10 108 16 4 5 260 259 158 156 253 157
10 107 32 17 18 261 262 263 264 265 251
10 107 33 16 17 266 267 268 263 269 254
10 107 33 17 32 266 269 263 261 270 262
10 122 42 19 10 271 272 233 231 273 232
10 117 34 21 16 274 275 257 255 276 256
10 117 34 16 33 274 276 255 277 278 267
10 117 37 21 34 279 280 257 274 281 275
10 123 37 14 21 282 283 164 180 280 184
10 97 31 18 26 284 285 286 221 287 246
10 97 31 26 28 284 287 221 224 288 225
10 107 31 18 97 289 285 264 290 284 286
10 92 40 11 25 291 292 293 294 295 220
10 102 35 22 15 296 297 298 299 300 192
10 102 29 24 22 301 302 303 298 304 216
10 102 29 22 35 301 304 298 296 305 297
10 92 27 24 29 306 307 308 309 310 302
10 92 27 25 24 306 311 294 308 307 218
10 92 27 40 25 306 312 291 294 311 295
10 102 36 15 114 313 314 299 315 316 317
10 114 36 15 20 316 314 317 318 319 178
10 102 46 29 35 320 321 301 296 322 305
10 103 50 29 46 323 324 325 326 327 321
10 103 50 27 29 323 328 329 325 324 310
10 122 30 19 42 330 331 233 271 332 272
10 118 30 20 19 333 334 167 173 331 179
10 110 30 46 36 335 336 337 338 339 340
10 114 30 36 20 341 339 316 318 334 319
10 97 68 31 28 342 343 284 224 344 288
10 97 68 28 59 342 344 224 345 346 347
10 117 37 47 119 279 348 349 350 351 352
10 117 33 47 34 277 353 349 274 278 354
10 107 47 33 32 355 353 266 261 356 270
10 119 38 14 37 357 358 359 351 360 283
10 110 49 30 42 361 362 335 363 364 332
10 110 49 46 30 361 365 337 335 362 336
10 119 45 38 37 366 367 357 351 368 360
10 119 45 37 47 366 368 351 352 369 348
10 127 43 9 13 370 371 146 144 372 145
10 92 67 40 27 373 374 291 306 375 312
10 103 27 67 92 329 375 376 377 306 373
10 91 61 92 98 378 379 380 381 382 383
10 119 13 63 126 384 385 386 387 388 389
10 119 63 38 45 386 390 357 366 391 367
10 122 66 42 10 392 393 271 231 394 273
10 115 66 49 42 395 396 397 398 393 364
10 106 48 31 68 399 400 401 402 403 343
10 107 48 31 106 404 400 289 405 399 401
10 107 48 47 32 404 406 355 261 407 356
10 103 57 46 49 408 409 326 410 411 365
10 103 57 67 50 408 412 376 323 413 414
10 103 57 50 46 408 413 323 326 409 327
10 9 51 129 125 415 416 417 240 418 419
10 125 44 9 51 420 421 240 418 422 415
10 125 44 10 9 420 423 238 240 421 241
10 94 39 23 12 424 425 199 201 426 202
10 94 39 12 54 424 426 201 427 428 429
10 112 58 45 47 430 431 432 433 434 369
10 106 58 48 68 435 436 399 402 437 403
10 106 58 47 48 435 434 438 399 436 406
10 121 82 65 51 439 440 441 442 443 444
10 113 84 82 85 445 446 447 448 449 450
10 95 53 54 12 451 452 453 454 455 429
10 91 41 12 11 456 457 193 138 458 195
10 101 55 54 53 459 460 461 462 463 452
10 126 70 64 63 464 465 466 389 467 468
10 120 56 82 51 469 470 471 472 473 443
10 51 56 129 120 473 474 416 472 469 475
10 104 71 67 57 476 477 478 479 480 412
10 98 71 61 67 481 482 382 483 477 484
10 98 71 62 61 481 485 486 382 482 487
10 115 75 57 49 488 489 490 397 491 411
10 115 75 49 66 488 491 397 395 492 396
10 137 80 53 100 493 494 495 496 497 498
10 100 80 53 62 497 494 498 499 500 501
10 137 55 80 88 502 503 493 504 505 506
10 137 88 80 85 504 506 493 507 508 509
10 99 72 59 60 510 511 512 513 514 515
10 99 72 68 59 510 516 517 512 511 346
10 99 79 72 60 518 519 510 513 520 514
10 109 79 55 88 521 522 523 524 525 505
10 101 79 60 54 526 520 527 461 528 529
10 101 79 54 55 526 528 461 459 522 460
10 116 76 72 79 530 531 532 533 534 519
10 111 78 76 70 535 536 537 538 539 540
10 104 77 71 57 541 542 476 479 543 480
10 64 81 129 52 544 545 546 547 548 549
10 129 81 56 52 545 550 474 549 548 551
10 126 74 70 63 552 553 464 389 554 467
10 119 74 63 45 555 554 386 366 556 391
10 111 74 78 70 557 558 535 538 553 539
10 111 74 58 78 557 559 560 535 558 561
10 112 74 45 58 562 556 432 430 559 431
10 121 69 82 84 563 564 439 565 566 446
10 121 69 65 82 563 567 441 439 564 440
10 121 84 77 69 565 568 569 563 566 570
10 121 69 66 65 563 571 572 441 567 573
10 115 69 77 75 574 570 575 488 576 577
10 115 69 75 66 574 576 488 395 571 492
10 111 73 76 78 578 579 537 535 580 536
10 111 73 72 76 578 581 582 537 579 531
10 111 73 78 58 578 580 535 560 583 561
10 99 73 68 72 584 585 517 510 581 516
10 106 73 58 68 586 583 435 402 585 437
10 124 86 81 64 587 588 589 590 591 544
10 124 86 64 70 587 591 590 592 593 465
10 124 86 76 116 587 594 595 596 597 530
10 100 80 85 137 497 509 598 496 493 507
10 100 83 80 62 599 600 497 499 601 500
10 113 83 84 85 602 603 445 448 604 449
10 100 83 62 71 599 601 499 605 606 485
10 113 77 83 104 607 608 602 609 541 610
10 104 83 71 77 610 606 476 541 608 542
10 116 90 86 76 611 612 597 530 613 594
10 116 90 76 79 611 613 530 533 614 534
10 109 89 79 88 615 616 521 524 617 525
10 116 89 81 86 618 619 620 597 621 588
10 116 89 86 90 618 621 597 611 622 612
10 109 89 90 79 615 622 623 521 616 614
10 120 87 56 81 624 625 469 626 627 550
10 109 81 87 120 628 627 629 630 626 624
10 137 87 88 85 631 632 504 507 633 508
10 113 87 85 82 634 633 448 447 635 450
10 126 43 13 63 636 372 388 389 637 385
10 126 43 63 64 636 637 389 466 638 468
10 91 41 61 95 456 639 378 640 641 642
10 94 39 59 23 424 643 644 199 425 645
10 95 41 53 12 641 646 451 454 457 455
10 95 41 61 62 641 639 642 647 648 487
10 94 39 54 60 424 428 427 649 650 529
10 120 87 82 56 624 635 471 469 625 470
10 125 44 51 65 420 422 418 651 652 444
10 94 59 60 99 644 515 649 653 512 513
10 109 87 89 88 629 654 615 524 632 617
10 95 41 62 53 641 648 647 451 646 501
10 125 44 66 10 420 655 656 238 423 394
10 125 44 65 66 420 652 651 656 655 573
10 126 43 52 9 636 657 658 659 371 660
10 126 43 64 52 636 638 466 658 657 547
10 114 118 20 108 661 167 318 662 663 177
10 122 118 2 19 664 175 234 233 173 176
10 118 108 4 20 663 158 169 167 177 168
10 135 114 108 118 665 662 666 667 661 663
10 123 127 2 14 668 150 165 164 153 155
10 123 118 108 4 669 663 670 182 169 158
10 135 123 118 108 671 669 667 666 670 663
10 13 119 14 127 384 359 154 144 672 153
10 123 118 2 127 669 175 165 668 673 150
10 117 108 16 4 674 260 255 258 158 259
10 123 118 4 3 669 169 182 162 170 172
10 123 118 3 2 669 170 162 165 175 166
10 93 91 8 25 675 141 205 203 219 204
10 105 96 6 22 676 212 187 185 215 186
10 133 122 118 127 677 664 678 679 680 673
10 94 93 91 23 681 675 682 199 229 196
10 93 96 7 18 683 211 206 245 242 244
10 107 105 93 18 684 685 686 264 250 245
10 93 91 23 8 675 196 229 205 141 197
10 92 93 25 91 687 203 294 380 675 219
10 93 96 25 7 683 217 203 206 211 207
10 136 92 91 93 688 380 689 690 687 675
10 102 136 105 96 691 692 693 694 695 676
10 105 108 5 16 696 156 188 252 260 253
10 105 96 18 6 676 242 250 187 212 243
10 105 93 18 96 685 245 250 676 683 242
10 105 108 22 5 696 191 185 188 156 189
10 105 102 22 108 693 298 185 696 697 191
10 107 105 18 17 684 250 264 263 247 251
10 107 105 17 16 684 247 263 268 252 254
10 97 107 93 18 290 686 698 286 264 245
10 117 105 16 108 699 252 255 674 696 260
10 135 117 123 108 700 701 671 666 674 670
10 133 126 127 119 702 703 679 704 387 672
10 125 122 127 10 705 680 706 238 231 236
10 122 118 19 30 664 173 233 330 333 331
10 122 127 10 2 680 236 231 234 150 235
10 122 118 127 2 664 673 680 234 175 150
10 110 114 36 102 707 316 338 708 315 313
10 110 122 30 118 709 330 335 710 664 333
10 133 122 125 131 677 705 711 712 713 714
10 117 107 33 16 715 266 277 255 268 267
10 47 33 117 107 353 277 349 355 266 715
10 117 123 4 21 701 182 258 257 180 183
10 117 123 21 37 701 180 257 279 282 280
10 117 123 108 4 701 670 674 258 182 158
10 117 107 16 105 715 268 255 699 684 252
10 112 117 107 47 716 715 717 433 349 355
10 119 117 37 123 350 279 351 718 701 282
10 106 97 31 107 719 284 401 405 290 289
10 97 93 23 26 698 229 223 221 227 222
10 97 93 26 18 698 227 221 286 245 246
10 18 31 107 32 285 289 264 265 720 261
10 136 107 105 93 721 684 692 690 686 685
10 114 102 108 15 315 697 662 317 299 159
10 102 108 15 22 697 159 299 298 191 192
10 22 102 105 96 298 693 185 215 694 676
10 102 96 22 24 694 215 298 303 209 216
10 92 102 24 96 722 303 308 723 694 209
10 92 40 61 11 291 724 379 293 292 725
10 67 27 103 50 375 329 376 414 328 323
10 92 91 25 11 380 219 294 293 138 220
10 92 96 24 25 723 209 308 294 217 218
10 92 93 96 25 687 683 723 294 203 217
10 136 92 93 96 688 687 690 695 723 683
10 105 136 102 108 692 691 693 696 726 697
10 92 102 29 24 722 301 309 308 303 302
10 103 29 92 102 325 309 377 727 301 722
10 114 108 20 15 662 177 318 317 159 178
10 114 118 30 20 661 333 341 318 167 334
10 15 36 102 35 314 313 299 300 728 296
10 103 110 46 102 729 337 326 727 708 320
10 115 122 66 42 730 392 395 398 271 393
10 115 125 66 122 731 656 395 730 705 392
10 110 122 42 30 709 271 363 335 330 332
10 110 114 118 30 707 661 710 335 341 333
10 135 114 102 108 665 315 732 666 662 697
10 136 92 96 102 688 723 695 691 722 694
10 110 114 30 36 707 341 335 338 316 339
10 46 102 36 35 320 313 340 322 296 728
10 36 102 46 110 313 320 340 338 708 337
10 123 118 133 135 669 678 733 671 667 734
10 136 105 96 93 692 676 695 690 685 683
10 130 94 93 91 735 681 736 737 682 675
10 14 119 13 38 359 384 154 358 357 738
10 126 119 13 127 387 384 388 703 672 144
10 119 123 14 127 718 164 359 672 668 153
10 132 117 105 107 739 699 740 741 715 684
10 119 123 37 14 718 282 351 359 164 283
10 47 37 117 34 348 279 349 354 281 274
10 98 103 67 92 742 376 483 383 377 373
10 103 110 49 46 729 361 410 326 337 365
10 115 103 49 57 743 410 397 490 408 411
10 103 102 46 29 727 320 326 325 301 321
10 92 29 103 27 309 325 377 306 310 329
10 135 103 102 110 744 727 732 745 729 708
10 125 122 10 66 705 231 238 656 392 394
10 126 127 43 9 703 370 636 659 146 371
10 125 127 9 0 706 146 240 239 147 149
10 125 127 0 10 706 147 239 238 236 237
10 94 97 93 23 746 698 681 199 223 229
10 59 97 23 28 345 223 645 347 224 226
10 23 97 59 94 223 345 645 199 746 644
10 94 91 12 1 682 193 201 200 140 194
10 94 91 1 23 682 140 200 199 196 198
10 130 94 97 93 735 746 747 736 681 698
10 95 91 41 12 640 456 641 454 193 457
10 130 95 94 91 748 749 735 737 640 682
10 124 111 70 74 750 538 592 751 557 553
10 112 119 45 74 752 366 432 562 555 556
10 106 107 48 47 405 404 399 438 355 406
10 112 119 47 45 752 352 433 432 366 369
10 47 117 119 112 349 350 352 433 716 752
10 133 119 123 117 704 718 733 753 350 701
10 133 119 127 123 704 672 679 733 718 668
10 131 115 103 110 754 743 755 756 757 729
10 99 97 59 68 758 345 512 517 342 346
10 111 106 58 112 759 435 560 760 761 430
10 106 97 68 31 719 342 402 401 284 343
10 99 94 59 97 653 644 512 758 746 345
10 106 112 47 58 761 433 438 435 430 434
10 106 112 107 47 761 717 405 438 433 355
10 132 106 112 107 762 761 763 741 405 717
10 31 48 107 32 400 404 289 720 407 261
10 131 121 120 113 764 765 766 767 768 769
10 121 125 51 65 770 418 442 441 651 444
10 130 101 94 95 771 772 735 748 773 749
10 95 94 91 12 749 682 640 454 201 193
10 67 92 61 98 373 379 484 483 383 382
10 61 41 91 11 639 456 378 725 458 138
10 95 94 12 54 749 201 454 453 427 429
10 101 95 54 94 773 453 461 772 749 427
10 9 129 126 125 417 774 659 240 419 775
10 126 129 9 52 774 417 659 658 549 660
10 120 113 82 87 769 447 471 624 634 635
10 137 109 88 87 776 524 504 631 629 632
10 121 120 113 82 765 769 768 439 471 447
10 98 95 61 62 777 642 382 486 647 487
10 92 61 91 11 379 378 380 293 725 138
10 134 98 92 103 778 383 779 780 742 377
10 91 61 98 95 378 382 381 640 642 777
10 104 103 57 67 781 408 479 478 376 412
10 61 92 67 40 379 373 484 724 291 374
10 100 104 113 83 782 609 783 599 610 602
10 100 98 62 95 784 486 499 785 777 647
10 115 77 121 104 575 569 786 787 541 788
10 121 125 65 66 770 651 441 572 656 573
10 131 121 125 120 764 770 714 766 765 789
10 131 103 104 134 755 781 790 791 780 792
10 115 110 42 49 757 363 398 397 361 364
10 115 110 122 42 757 709 730 398 363 271
10 104 115 57 103 787 490 479 781 743 408
10 115 103 110 49 743 729 757 397 410 361
10 135 110 118 122 745 710 667 793 709 664
10 111 99 73 106 794 584 578 759 795 586
10 99 106 68 73 795 402 517 584 586 585
10 101 60 94 54 527 649 772 461 529 427
10 60 59 94 39 515 644 649 650 643 424
10 99 106 97 68 795 719 758 517 402 342
10 130 99 106 97 796 795 797 747 758 719
10 134 100 95 98 798 785 799 778 784 777
10 137 100 101 109 496 800 801 776 802 803
10 100 101 95 53 800 773 785 498 462 451
10 101 95 53 54 773 451 462 461 453 452
10 130 101 99 94 771 804 796 735 772 653
10 134 100 104 113 798 782 792 805 783 609
10 116 101 79 99 806 526 533 807 804 518
10 94 60 101 99 649 527 772 653 513 804
10 101 99 60 79 804 513 527 526 518 520
10 121 77 115 69 569 575 786 563 570 574
10 77 113 121 104 607 768 569 541 609 788
10 83 77 113 84 608 607 602 603 568 445
10 100 104 83 71 782 610 599 605 476 606
10 104 98 103 67 808 742 781 478 483 376
10 77 115 57 104 575 490 543 541 787 479
10 57 115 77 75 490 575 543 489 488 577
10 104 98 67 71 808 483 478 476 481 477
10 128 109 113 120 809 810 811 812 630 769
10 134 104 98 103 792 808 778 780 781 742
10 121 115 125 66 786 731 770 572 395 656
10 121 120 51 125 765 472 442 770 789 418
10 121 115 66 69 786 395 572 563 574 571
10 133 126 125 127 702 775 711 679 703 706
10 131 121 104 115 764 788 790 754 786 787
10 121 120 82 51 765 471 439 442 472 443
10 121 113 84 82 768 445 565 439 447 446
10 77 84 121 113 568 565 569 607 445 768
10 130 101 116 99 771 806 813 796 804 807
10 116 111 72 76 814 582 532 530 537 531
10 111 99 72 73 794 510 582 578 584 581
10 126 112 74 119 815 562 552 387 752 555
10 111 112 58 74 760 430 560 557 562 559
10 111 106 73 58 759 586 578 560 435 583
10 124 111 74 112 750 557 751 816 760 562
10 126 119 74 63 387 555 552 389 386 554
10 111 76 124 70 537 595 750 538 540 592
10 56 81 129 120 550 545 474 469 626 475
10 87 81 109 89 627 628 629 654 619 615
10 133 124 112 111 817 816 818 819 750 760
10 128 116 120 124 820 821 812 822 596 823
10 137 109 113 100 776 810 824 496 802 783
10 100 113 85 83 783 448 598 599 602 604
10 130 109 101 100 825 803 771 826 802 800
10 100 95 62 53 785 647 499 498 451 501
10 137 100 113 85 496 783 824 507 598 448
10 137 53 55 101 495 463 502 801 462 459
10 100 98 71 62 784 481 605 499 486 485
10 100 104 71 98 782 476 605 784 808 481
10 109 116 101 79 827 806 803 521 533 526
10 124 76 111 116 595 537 750 596 530 814
10 116 111 99 72 814 794 807 532 582 510
10 116 124 86 81 596 587 597 620 589 588
10 120 81 116 109 626 620 821 630 628 827
10 76 86 124 70 594 587 595 540 593 592
10 132 111 112 106 828 760 763 762 759 761
10 130 111 106 99 829 759 797 796 794 795
10 116 99 79 72 807 518 533 532 510 519
10 109 113 87 137 810 634 629 776 824 631
10 109 116 89 81 827 618 615 628 620 619
10 137 55 109 101 502 523 776 801 459 803
10 109 101 55 79 803 459 523 521 526 522
10 109 116 79 90 827 533 521 623 611 614
10 109 116 90 89 827 611 623 615 618 622
10 128 116 124 111 820 596 822 830 814 750
10 134 100 98 104 798 784 778 792 782 808
10 130 116 111 99 813 814 829 796 807 794
10 116 101 130 109 806 771 813 827 803 825
10 126 127 13 43 703 144 388 636 370 372
10 64 70 126 124 465 464 466 590 592 831
10 129 81 64 124 545 544 546 832 589 590
10 126 125 127 9 775 706 703 659 240 146
10 70 74 126 124 553 552 464 592 751 831
10 63 13 119 38 385 384 386 390 738 357
10 129 51 9 52 416 415 417 549 833 660
10 64 129 126 52 546 774 466 547 549 658
10 126 124 74 112 831 751 552 815 816 562
10 131 121 115 125 764 786 754 714 770 731
10 133 126 112 124 702 815 818 817 831 816
10 116 81 120 124 620 626 821 596 589 823
10 129 128 120 124 834 812 475 832 822 823
10 131 121 113 104 764 768 767 790 788 609
10 128 109 100 113 809 802 835 811 810 783
10 133 126 119 112 702 387 704 818 815 752
10 128 120 125 129 812 789 836 834 475 419
10 120 116 128 109 821 820 812 630 827 809
10 131 115 122 125 754 730 713 714 731 705
10 130 100 101 95 826 800 771 748 785 773
10 130 99 97 94 796 758 747 735 653 746
10 133 112 117 132 818 716 753 837 763 739
10 136 103 92 102 838 377 688 691 727 722
10 134 98 91 92 778 381 839 779 383 380
10 132 106 107 97 762 405 741 840 719 290
10 131 115 110 122 754 757 756 713 730 709
10 134 98 95 91 778 777 799 839 381 640
10 132 112 117 107 763 716 739 741 717 715
10 135 110 114 118 745 707 665 667 710 661
10 136 108 132 135 726 841 842 843 666 844
10 135 110 102 114 745 708 732 665 707 315
10 136 97 107 93 845 290 721 690 698 686
10 124 133 129 128 817 846 832 822 847 834
10 133 118 123 127 678 669 733 679 673 668
10 129 133 124 126 846 817 832 774 702 831
10 133 128 124 111 847 822 817 819 830 750
10 133 135 117 123 734 700 753 733 671 701
10 132 133 135 117 837 734 844 739 753 700
10 132 133 111 128 837 819 828 848 847 830
10 118 122 133 135 664 677 678 667 793 734
10 131 133 122 135 712 677 713 849 734 793
10 134 131 133 128 791 712 850 851 852 847
10 134 128 100 113 851 835 798 805 811 783
10 131 128 113 120 852 811 767 766 812 769
10 131 135 110 103 849 745 756 755 744 729
10 134 131 103 135 791 755 780 853 849 744
10 131 135 122 110 849 793 713 756 745 709
10 125 122 133 127 705 677 711 706 680 679
10 125 120 128 131 789 812 836 714 766 852
10 134 133 135 132 850 734 853 854 837 844
10 108 117 132 135 674 739 841 666 700 844
10 136 132 134 135 842 854 855 843 844 853
10 130 100 128 109 826 835 856 825 802 809
10 130 128 116 109 856 820 813 825 809 827
10 130 128 111 116 856 830 829 813 820 814
10 132 133 112 111 837 818 763 828 819 760
10 132 134 133 128 854 850 837 848 851 847
10 136 135 103 102 843 744 838 691 732 727
10 104 103 131 115 781 755 790 787 743 754
10 136 130 93 91 857 736 690 689 737 675
10 134 130 91 95 858 737 839 799 748 640
10 134 130 95 100 858 748 799 798 826 785
10 134 131 113 104 791 767 805 792 790 609
10 134 131 128 113 791 852 851 805 767 811
10 128 100 130 134 835 826 856 851 798 858
10 132 130 106 97 859 797 762 840 747 719
10 136 130 97 93 857 747 845 690 736 698
10 132 130 111 106 859 829 828 762 797 759
10 117 112 133 119 716 818 753 350 752 704
10 132 130 128 111 859 856 848 828 829 830
10 132 117 108 105 739 674 841 740 699 696
10 135 133 134 131 734 850 853 849 712 791
10 132 134 128 130 854 851 848 859 858 856
10 136 132 130 134 842 859 857 855 854 858
10 136 135 102 108 843 732 691 726 666 697
10 136 134 103 135 855 780 838 843 853 744
10 132 108 136 105 841 726 842 740 696 692
10 136 134 92 103 855 779 688 838 780 377
10 136 132 105 107 842 740 692 721 741 684
10 136 134 91 92 855 839 689 688 779 380
10 136 134 130 91 855 858 857 689 839 737
10 136 132 97 130 842 840 845 857 859 747
10 136 132 107 97 842 741 721 845 840 290
10 129 56 51 52 474 473 416 549 551 833
10 129 120 125 51 475 789 419 416 472 418
10 129 125 133 126 419 711 846 774 775 702
10 126 129 64 124 774 546 466 831 832 590
10 129 124 120 81 832 823 475 545 589 626
10 133 125 129 128 711 419 846 847 836 834
10 125 128 133 131 836 847 711 714 852 712
10 137 109 55 88 776 523 502 504 524 505
10 85 80 100 83 509 497 598 604 600 599
10 137 101 100 53 801 800 496 495 462 498
10 137 113 87 85 824 634 631 507 448 633
10 87 113 109 120 634 810 629 624 769 630
10 137 53 80 55 495 494 493 502 463 503
6 1 8 11 143 142 139 
6 9 0 13 149 148 145 
6 13 2 14 151 155 154 
6 4 15 5 161 160 157 
6 9 13 43 145 372 371 
6 3 2 19 166 176 174 
6 4 3 20 172 171 168 
6 14 3 21 163 181 184 
6 6 5 22 190 189 186 
6 1 12 23 194 202 198 
6 7 6 24 214 213 210 
6 8 7 25 208 207 204 
6 23 28 26 226 225 222 
6 2 0 10 152 237 235 
6 6 7 18 214 244 243 
6 0 9 10 149 241 237 
6 1 11 12 139 195 194 
6 5 6 17 190 249 248 
6 0 2 13 152 151 148 
6 4 5 16 157 253 259 
6 2 3 14 166 163 155 
6 17 32 33 262 270 269 
6 19 10 42 232 273 272 
6 12 11 41 195 458 457 
6 39 12 54 426 429 428 
6 34 37 21 281 280 275 
6 21 4 16 183 259 256 
6 18 31 32 285 720 265 
6 16 5 17 253 248 254 
6 7 8 26 208 228 230 
6 17 6 18 249 243 251 
6 2 10 19 235 232 176 
6 15 4 20 161 168 178 
6 3 19 20 174 179 171 
6 10 9 44 241 421 423 
6 3 4 21 172 183 181 
6 16 33 34 267 278 276 
6 11 25 40 220 295 292 
6 15 35 22 300 297 192 
6 5 15 22 160 192 189 
6 8 1 23 143 198 197 
6 12 39 23 426 425 202 
6 22 29 24 304 302 216 
6 6 22 24 186 216 213 
6 7 24 25 210 218 207 
6 11 8 25 142 204 220 
6 8 23 26 197 222 228 
6 18 7 26 244 230 246 
6 25 24 27 218 307 311 
6 15 20 36 178 319 314 
6 18 26 31 246 287 285 
6 27 24 29 307 302 310 
6 29 35 46 305 322 321 
6 27 29 50 310 324 328 
6 20 19 30 179 331 334 
6 26 28 31 225 288 287 
6 59 28 23 347 226 645 
6 17 18 32 251 265 262 
6 28 68 31 344 343 288 
6 32 47 33 356 353 270 
6 16 17 33 254 269 267 
6 13 14 38 154 358 738 
6 21 16 34 256 276 275 
6 15 36 35 314 728 300 
6 29 22 35 304 297 305 
6 20 30 36 334 339 319 
6 30 42 49 332 364 362 
6 45 37 47 368 348 369 
6 14 21 37 184 280 283 
6 14 37 38 283 360 358 
6 34 33 47 278 353 354 
6 39 59 23 643 645 425 
6 9 43 52 371 657 660 
6 50 67 27 414 375 328 
6 25 27 40 311 312 295 
6 40 61 11 724 725 292 
6 38 45 63 367 391 390 
6 49 42 66 364 393 396 
6 30 19 42 331 272 332 
6 35 36 46 728 340 322 
6 38 63 13 390 385 738 
6 66 42 10 393 273 394 
6 32 31 48 720 400 407 
6 38 37 45 360 368 367 
6 67 50 57 414 413 412 
6 44 51 65 422 444 652 
6 49 46 30 365 336 362 
6 61 41 11 639 458 725 
6 39 54 60 428 529 650 
6 37 34 47 281 354 348 
6 45 47 58 369 434 431 
6 47 32 48 356 407 406 
6 46 36 30 340 339 336 
6 82 85 84 450 449 446 
6 46 49 57 365 411 409 
6 29 46 50 321 327 324 
6 44 9 51 421 415 422 
6 51 9 52 415 660 833 
6 53 55 54 463 460 452 
6 12 41 53 457 646 455 
6 64 63 70 468 467 465 
6 12 53 54 455 452 429 
6 51 52 56 833 551 473 
6 53 41 62 646 648 501 
6 48 68 58 403 437 436 
6 52 43 64 657 638 547 
6 50 46 57 327 409 413 
6 62 61 71 487 482 485 
6 49 66 75 396 492 491 
6 47 48 58 406 436 434 
6 55 80 88 503 506 505 
6 59 60 72 515 514 511 
6 68 48 31 403 400 343 
6 55 79 54 522 528 460 
6 59 39 60 643 650 515 
6 76 70 78 540 539 536 
6 67 40 27 374 312 375 
6 62 80 53 500 494 501 
6 41 61 62 639 487 648 
6 57 75 77 489 577 543 
6 63 43 13 637 372 385 
6 64 81 52 544 548 547 
6 45 58 74 431 559 556 
6 43 63 64 637 468 638 
6 79 60 54 520 529 528 
6 44 66 10 655 394 423 
6 56 82 51 470 443 473 
6 80 55 53 503 463 494 
6 65 69 66 567 571 573 
6 44 65 66 652 573 655 
6 61 40 67 724 374 484 
6 57 71 67 480 477 412 
6 28 59 68 347 346 344 
6 72 73 68 581 585 516 
6 57 49 75 411 491 489 
6 82 65 51 440 444 443 
6 63 45 74 391 556 554 
6 81 56 52 550 551 548 
6 61 67 71 484 477 482 
6 68 59 72 346 511 516 
6 72 76 73 531 579 581 
6 58 68 73 437 585 583 
6 70 63 74 467 554 553 
6 58 73 78 583 580 561 
6 69 77 75 570 577 576 
6 66 69 75 571 576 492 
6 81 64 86 544 591 588 
6 72 60 79 514 520 519 
6 78 73 76 580 579 536 
6 71 57 77 480 543 542 
6 69 82 84 564 446 566 
6 62 71 83 485 606 601 
6 74 58 78 559 561 558 
6 70 74 78 553 558 539 
6 76 72 79 531 519 534 
6 90 89 86 622 621 612 
6 71 77 83 542 608 606 
6 56 81 87 550 627 625 
6 64 70 86 465 593 591 
6 69 65 82 567 440 564 
6 80 62 83 500 601 600 
6 77 84 83 568 603 608 
6 77 69 84 570 566 568 
6 80 83 85 600 604 509 
6 83 84 85 603 449 604 
6 82 56 87 470 625 635 
6 79 55 88 522 505 525 
6 70 76 86 540 594 593 
6 76 79 90 534 614 613 
6 85 82 87 450 635 633 
6 88 85 87 508 633 632 
6 89 79 88 616 525 617 
6 80 85 88 509 508 506 
6 87 89 88 654 617 632 
6 87 81 89 627 619 654 
6 86 76 90 594 613 612 
6 79 89 90 616 622 614 
6 89 81 86 619 588 621 
CELL_TYPES 674
24
24
24
24
24
24
24
24
24
24
24
24
24
24
24
24
24
24
24
24
24
24
24
24
24
24
24
24
24
24
24
24
24
24
24
24
24
24
24
24
24
24
24
24
24
24
24
24
24
24
24
24
24
24
24
24
24
24
24
24
24
24
24
24
24
24
24
24
24
24
24
24
24
24
24
24
24
24
24
24
24
24
24
24
24
24
24
24
24
24
24
24
24
24
24
24
24
24
24
24
24
24
24
24
24
24
24
24
24
24
24
24
24
24
24
24
24
24
24
24
24
24
24
24
24
24
24
24
24
24
24
24
24
24
24
24
24
24
24
24
24
24
24
24
24
24
24
24
24
24
24
24
24
24
24
24
24
24
24
24
24
24
24
24
24
24
24
24
24
24
24
24
24
24
24
24
24
24
24
24
24
24
24
24
24
24
24
24
24
24
24
24
24
24
24
24
24
24
24
24
24
24
24
24
24
24
24
24
24
24
24
24
24
24
24
24
24
24
24
24
24
24
24
24
24
24
24
24
24
24
24
24
24
24
24
24
24
24
24
24
24
24
24
24
24
24
24
24
24
24
24
24
24
24
24
24
24
24
24
24
24
24
24
24
24
24
24
24
24
24
24
24
24
24
24
24
24
24
24
24
24
24
24
24
24
24
24
24
24
24
24
24
24
24
24
24
24
24
24
24
24
24
24
24
24
24
24
24
24
24
24
24
24
24
24
24
24
24
24
24
24
24
24
24
24
24
24
24
24
24
24
24
24
24
24
24
24
24
24
24
24
24
24
24
24
24
24
24
24
24
24
24
24
24
24
24
24
24
24
24
24
24
24
24
24
24
24
24
24
24
24
24
24
24
24
24
24
24
24
24
24
24
24
24
24
24
24
24
24
24
24
24
24
24
24
24
24
24
24
24
24
24
24
24
24
24
24
24
24
24
24
24
24
24
24
24
24
24
24
24
24
24
24
24
24
24
24
24
24
24
24
24
24
24
24
24
24
24
24
24
24
24
24
24
24
24
24
24
24
24
24
24
24
24
24
24
24
24
24
24
24
24
24
24
24
24
24
24
24
24
24
24
24
24
24
24
24
24
24
24
24
24
24
24
24
24
24
24
24
24
24
24
24
24
24
24
22
22
22
22
22
22
22
22
22
22
22
22
22
22
22
22
22
22
22
22
22
22
22
22
22
22
22
22
22
22
22
22
22
22
22
22
22
22
22
22
22
22
22
22
22
22
22
22
22
22
22
22
22
22
22
22
22
22
22
22
22
22
22
22
22
22
22
22
22
22
22
22
22
22
22
22
22
22
22
22
22
22
22
22
22
22
22
22
22
22
22
22
22
22
22
22
22
22
22
22
22
22
22
22
22
22
22
22
22
22
22
22
22
22
22
22
22
22
22
22
22
22
22
22
22
22
22
22
22
22
22
22
22
22
22
22
22
22
22
22
22
22
22
22
22
22
22
22
22
22
22
22
22
22
22
22
22
22
22
22
22
22
22
22
22
22
22
22
22
22
22
22
22
22
22
22
22
22
CELL_DATA 674
SCALARS scalars float
LOOKUP_TABLE default
1
1
1
1
1
1
1
1
1
1
1
1
1
1
1
1
1
1
1
1
1
1
1
1
1
1
1
1
1
1
1
1
1
1
1
1
1
1
1
1
1
1
1
1
1
1
1
1
1
1
1
1
1
1
1
1
1
1
1
1
1
1
1
1
1
1
1
1
1
1
1
1
1
1
1
1
1
1
1
1
1
1
1
1
1
1
1
1
1
1
1
1
1
1
1
1
1
1
1
1
1
1
1
1
1
1
1
1
1
1
1
1
1
1
1
1
1
1
1
1
1
1
1
1
1
1
1
1
1
1
1
1
1
1
1
1
1
1
1
1
1
1
1
1
1
1
1
1
1
1
1
1
1
1
1
1
1
1
1
1
1
1
1
1
1
1
1
1
1
1
1
1
1
1
1
1
1
1
1
1
1
1
1
1
1
1
1
1
1
1
1
1
1
1
1
1
1
1
1
1
1
1
1
1
1
1
1
1
1
1
1
1
1
1
1
1
1
1
1
1
1
1
1
1
1
1
1
1
1
1
1
1
1
1
1
1
1
1
1
1
1
1
1
1
1
1
1
1
1
1
1
1
1
1
1
1
1
1
1
1
1
1
1
1
1
1
1
1
1
1
1
1
1
1
1
1
1
1
1
1
1
1
1
1
1
1
1
1
1
1
1
1
1
1
1
1
1
1
1
1
1
1
1
1
1
1
1
1
1
1
1
1
1
1
1
1
1
1
1
1
1
1
1
1
1
1
1
1
1
1
1
1
1
1
1
1
1
1
1
1
1
1
1
1
1
1
1
1
1
1
1
1
1
1
1
1
1
1
1
1
1
1
1
1
1
1
1
1
1
1
1
1
1
1
1
1
1
1
1
1
1
1
1
1
1
1
1
1
1
1
1
1
1
1
1
1
1
1
1
1
1
1
1
1
1
1
1
1
1
1
1
1
1
1
1
1
1
1
1
1
1
1
1
1
1
1
1
1
1
1
1
1
1
1
1
1
1
1
1
1
1
1
1
1
1
1
1
1
1
1
1
1
1
1
1
1
1
1
1
1
1
1
1
1
1
1
1
1
1
1
1
1
1
1
1
1
1
1
1
1
1
1
1
1
1
1
1
1
1
1
1
1
1
1
1
1
5
5
5
5
5
5
5
5
5
5
5
5
5
5
5
5
5
5
5
5
5
5
5
5
5
5
5
5
5
5
5
5
5
5
5
5
5
5
5
5
5
5
5
5
5
5
5
5
5
5
5
5
5
5
5
5
5
5
5
5
5
5
5
5
5
5
5
5
5
5
5
5
5
5
5
5
5
5
5
5
5
5
5
5
5
5
5
5
5
5
5
5
5
5
5
5
5
5
5
5
5
5
5
5
5
5
5
5
5
5
5
5
5
5
5
5
5
5
5
5
5
5
5
5
5
5
5
5
5
5
5
5
5
5
5
5
5
5
5
5
5
5
5
5
5
5
5
5
5
5
5
5
5
5
5
5
5
5
5
5
5
5
5
5
5
5
5
5
5
5
5
5
5
5
5
5
5
5
