$$$$$$$$$$$$$$$$$$$$$$$$$$$$$$$$$$$$$$$$$$$$$$$$$$$$$$$$$$$$$$$$$$$$$$$$$$$$$$$$$$$$$$$$$$$$$$$$
$
$                         CUBIT NX Nastran Translator
$
$            File: York.bdf
$      Time Stamp: 23-Nov-25 at 02:23:53
$
$
$                        PLEASE CHECK YOUR MODEL FOR UNITS CONSISTENCY.
$
$       It should be noted that load ID's from CUBIT may NOT correspond to Nastran SID's
$ The SID's for the load and restraint sets start at one and increment by one:i.e.,1,2,3,4...
$
$$$$$$$$$$$$$$$$$$$$$$$$$$$$$$$$$$$$$$$$$$$$$$$$$$$$$$$$$$$$$$$$$$$$$$$$$$$$$$$$$$$$$$$$$$$$$$$$
$
$
$ -------------------------
$ Executive Control Section
$ -------------------------
$
SOL 101
CEND
$
$
$ --------------------
$ Case Control Section
$ --------------------
$
ECHO = SORT
$
$
$ Name: Initial
$
$
$ Name: Default Set
$
SUBCASE = 1
$
LABEL = Default Set
$
$ -----------------
$ Bulk Data Section
$ -----------------
$
BEGIN BULK
$
$ Params
$
$
$ Node cards
$
GRID*                  1               0       -25.00000       100.00000
*              -48.89613
GRID*                  2               0       -25.00000       162.50000
*              -92.65910
GRID*                  3               0       -25.00000       131.25000
*              -70.77761
GRID*                  4               0       -25.00000       100.00000
*              -55.00000
GRID*                  5               0       -25.00000       146.09669
*             -101.09669
GRID*                  6               0       -25.00000       123.04835
*              -78.04835
GRID*                  7               0       -25.00000        93.89613
*              -55.00000
GRID*                  8               0       -25.00000       128.90650
*             -105.00000
GRID*                  9               0       -25.00000       111.40132
*              -80.00000
GRID*                 10               0       -25.00000       100.00000
*                0.00000
GRID*                 11               0       -25.00000       100.00000
*              -32.59742
GRID*                 12               0       -25.00000       100.00000
*              -16.29871
GRID*                 13               0       -25.00000       162.50000
*                0.00000
GRID*                 14               0       -25.00000       162.50000
*              -30.88637
GRID*                 15               0       -25.00000       162.50000
*              -61.77273
GRID*                 16               0       -25.00000       150.00000
*             -105.00000
GRID*                 17               0        -0.00000       -20.00000
*              -25.00000
GRID*                 18               0       -25.00000       -20.00000
*              -25.00000
GRID*                 19               0       -25.00000       -20.00000
*             -105.00000
GRID*                 20               0        -0.00000       -20.00000
*             -105.00000
GRID*                 21               0        -0.00000       128.90650
*             -105.00000
GRID*                 22               0        -0.00000       150.00000
*             -105.00000
GRID*                 23               0       -25.00000       162.50000
*             -105.00000
GRID*                 24               0        -0.00000       162.50000
*             -105.00000
GRID*                 25               0        -0.00000       162.50000
*              -92.65910
GRID*                 26               0        -0.00000       162.50000
*                0.00000
GRID*                 27               0        -0.00000       100.00000
*                0.00000
GRID*                 28               0        -0.00000       100.00000
*              -48.89613
GRID*                 29               0        -0.00000       100.00000
*              -55.00000
GRID*                 30               0        -0.00000        93.89613
*              -55.00000
GRID*                 31               0       -25.00000        20.00000
*              -55.00000
GRID*                 32               0        -0.00000        20.00000
*              -55.00000
GRID*                 33               0       -25.00000        20.00000
*              -25.00000
GRID*                 34               0        -0.00000        20.00000
*              -25.00000
GRID*                 35               0        -0.00000       146.09669
*             -101.09669
GRID*                 36               0        -0.00000       123.04835
*              -78.04835
GRID*                 37               0        -0.00000       131.25000
*              -70.77761
GRID*                 38               0        -0.00000       111.40132
*              -80.00000
GRID*                 39               0       -25.00000       131.25000
*                0.00000
GRID*                 40               0       -25.00000       131.25000
*              -47.18508
GRID*                 41               0       -25.00000       131.25000
*              -23.59254
GRID*                 42               0        -0.00000       100.00000
*              -16.29871
GRID*                 43               0        -0.00000       100.00000
*              -32.59742
GRID*                 44               0        -0.00000       162.50000
*              -61.77273
GRID*                 45               0        -0.00000       162.50000
*              -30.88637
GRID*                 46               0        -0.00000       131.25000
*                0.00000
GRID*                 47               0        -0.00000       131.25000
*              -47.18508
GRID*                 48               0        -0.00000       131.25000
*              -23.59254
GRID*                 49               0       -25.00000        -0.00000
*              -25.00000
GRID*                 50               0       -25.00000        20.00000
*              -48.89613
GRID*                 51               0       -25.00000       -20.00000
*              -76.90443
GRID*                 52               0       -25.00000        -0.00000
*              -62.90028
GRID*                 53               0       -25.00000       -16.47222
*              -91.47222
GRID*                 54               0       -25.00000         1.76389
*              -73.23611
GRID*                 55               0       -25.00000        26.10387
*              -55.00000
GRID*                 56               0       -25.00000        -8.90650
*             -105.00000
GRID*                 57               0       -25.00000         8.59868
*              -80.00000
GRID*                 58               0       -25.00000       -20.00000
*              -95.00000
GRID*                 59               0        -0.00000       -20.00000
*              -95.00000
GRID*                 60               0        -0.00000       -16.47222
*              -91.47222
GRID*                 61               0        -0.00000       -20.00000
*              -76.90443
GRID*                 62               0        -0.00000        20.00000
*              -48.89613
GRID*                 63               0        -0.00000        -0.00000
*              -62.90028
GRID*                 64               0        -0.00000        -0.00000
*              -25.00000
GRID*                 65               0        -0.00000         1.76389
*              -73.23611
GRID*                 66               0        -0.00000        -8.90650
*             -105.00000
GRID*                 67               0        -0.00000        26.10387
*              -55.00000
GRID*                 68               0        -0.00000         8.59868
*              -80.00000
GRID*                 69               0        -0.00000        71.29871
*              -55.00000
GRID*                 70               0        -0.00000        48.70129
*              -55.00000
GRID*                 71               0       -25.00000        48.70129
*              -55.00000
GRID*                 72               0       -25.00000        71.29871
*              -55.00000
GRID*                 73               0        -0.00000        37.03117
*             -105.00000
GRID*                 74               0        -0.00000        82.96883
*             -105.00000
GRID*                 75               0        -0.00000        42.86623
*              -80.00000
GRID*                 76               0        -0.00000        77.13377
*              -80.00000
GRID*                 77               0       -25.00000        82.96883
*             -105.00000
GRID*                 78               0       -25.00000        37.03117
*             -105.00000
GRID*                 79               0       -25.00000        42.86623
*              -80.00000
GRID*                 80               0       -25.00000        77.13377
*              -80.00000
GRID*                 83               0        -0.00000        10.00000
*              -25.00000
GRID*                 84               0        -0.00000        -0.00000
*              -25.00000
GRID*                 85               0        -0.00000       -10.00000
*              -25.00000
GRID*                 87               0        -8.33333       -20.00000
*              -25.00000
GRID*                 88               0       -16.66667       -20.00000
*              -25.00000
GRID*                 90               0       -25.00000       -10.00000
*              -25.00000
GRID*                 91               0       -25.00000        -0.00000
*              -25.00000
GRID*                 92               0       -25.00000        10.00000
*              -25.00000
GRID*                 93               0       -16.66667        20.00000
*              -25.00000
GRID*                 94               0        -8.33333        20.00000
*              -25.00000
GRID*                 95               0        -8.33333        10.00000
*              -25.00000
GRID*                 96               0        -8.33333         0.00000
*              -25.00000
GRID*                 97               0        -8.33333       -10.00000
*              -25.00000
GRID*                 98               0       -16.66667        10.00000
*              -25.00000
GRID*                 99               0       -16.66667        -0.00000
*              -25.00000
GRID*                100               0       -16.66667       -10.00000
*              -25.00000
GRID*                101               0         0.00000       -20.00000
*              -13.00000
GRID*                102               0         0.00000       -20.00000
*              -19.00000
GRID*                103               0       -25.00000       -20.00000
*              -13.00000
GRID*                104               0       -16.66667       -20.00000
*              -13.00000
GRID*                105               0        -8.33333       -20.00000
*              -13.00000
GRID*                106               0       -25.00000       -20.00000
*              -19.00000
GRID*                107               0       -16.66667       -20.00000
*              -19.00000
GRID*                108               0        -8.33333       -20.00000
*              -19.00000
GRID*                109               0        -0.00000        20.00000
*              -13.00000
GRID*                110               0        -0.00000        20.00000
*              -19.00000
GRID*                111               0        -0.00000        10.00000
*              -13.00000
GRID*                112               0        -0.00000        -0.00000
*              -13.00000
GRID*                113               0        -0.00000       -10.00000
*              -13.00000
GRID*                114               0        -0.00000       -10.00000
*              -19.00000
GRID*                115               0        -0.00000        -0.00000
*              -19.00000
GRID*                116               0        -0.00000        10.00000
*              -19.00000
GRID*                117               0       -25.00000        20.00000
*              -13.00000
GRID*                118               0        -8.33333        20.00000
*              -13.00000
GRID*                119               0       -16.66667        20.00000
*              -13.00000
GRID*                120               0       -25.00000        10.00000
*              -13.00000
GRID*                121               0       -25.00000        -0.00000
*              -13.00000
GRID*                122               0       -25.00000       -10.00000
*              -13.00000
GRID*                123               0       -16.66667       -10.00000
*              -13.00000
GRID*                124               0        -8.33333       -10.00000
*              -13.00000
GRID*                125               0       -16.66667         0.00000
*              -13.00000
GRID*                126               0        -8.33333        -0.00000
*              -13.00000
GRID*                127               0       -16.66667        10.00000
*              -13.00000
GRID*                128               0        -8.33333        10.00000
*              -13.00000
GRID*                129               0       -25.00000        20.00000
*              -19.00000
GRID*                130               0       -25.00000        10.00000
*              -19.00000
GRID*                131               0       -25.00000        -0.00000
*              -19.00000
GRID*                132               0       -25.00000       -10.00000
*              -19.00000
GRID*                133               0        -8.33333        20.00000
*              -19.00000
GRID*                134               0       -16.66667        20.00000
*              -19.00000
GRID*                135               0       -16.66667        10.00000
*              -19.00000
GRID*                136               0       -16.66667        -0.00000
*              -19.00000
GRID*                137               0       -16.66667       -10.00000
*              -19.00000
GRID*                138               0        -8.33333        10.00000
*              -19.00000
GRID*                139               0        -8.33333        -0.00000
*              -19.00000
GRID*                140               0        -8.33333       -10.00000
*              -19.00000
GRID*                141               0         0.00000       -12.00000
*               -5.00000
GRID*                142               0         0.00000       -16.00000
*               -9.00000
GRID*                143               0       -17.00000       -12.00000
*               -5.00000
GRID*                144               0        -5.66667       -12.00000
*               -5.00000
GRID*                145               0       -11.33333       -12.00000
*               -5.00000
GRID*                146               0       -21.00000       -16.00000
*               -9.00000
GRID*                147               0        -7.00000       -16.00000
*               -9.00000
GRID*                148               0       -14.00000       -16.00000
*               -9.00000
GRID*                149               0       -17.00000        12.00000
*               -5.00000
GRID*                150               0       -17.00000        -6.00000
*               -5.00000
GRID*                151               0       -17.00000        -0.00000
*               -5.00000
GRID*                152               0       -17.00000         6.00000
*               -5.00000
GRID*                153               0       -21.00000        16.00000
*               -9.00000
GRID*                154               0       -21.00000         8.00000
*               -9.00000
GRID*                155               0       -21.00000        -0.00000
*               -9.00000
GRID*                156               0       -21.00000        -8.00000
*               -9.00000
GRID*                157               0        -0.00000        12.00000
*               -5.00000
GRID*                158               0        -0.00000        16.00000
*               -9.00000
GRID*                159               0       -11.33333        12.00000
*               -5.00000
GRID*                160               0        -5.66667        12.00000
*               -5.00000
GRID*                161               0        -7.00000        16.00000
*               -9.00000
GRID*                162               0       -14.00000        16.00000
*               -9.00000
GRID*                163               0        -0.00000         6.00000
*               -5.00000
GRID*                164               0        -0.00000        -0.00000
*               -5.00000
GRID*                165               0         0.00000        -6.00000
*               -5.00000
GRID*                166               0        -0.00000        -8.00000
*               -9.00000
GRID*                167               0        -0.00000        -0.00000
*               -9.00000
GRID*                168               0        -0.00000         8.00000
*               -9.00000
GRID*                169               0       -11.33333        -6.00000
*               -5.00000
GRID*                170               0        -5.66667        -6.00000
*               -5.00000
GRID*                171               0       -11.33333        -0.00000
*               -5.00000
GRID*                172               0        -5.66667        -0.00000
*               -5.00000
GRID*                173               0       -11.33333         6.00000
*               -5.00000
GRID*                174               0        -5.66667         6.00000
*               -5.00000
GRID*                175               0       -14.00000        -8.00000
*               -9.00000
GRID*                176               0       -14.00000        -0.00000
*               -9.00000
GRID*                177               0       -14.00000         8.00000
*               -9.00000
GRID*                178               0        -7.00000        -8.00000
*               -9.00000
GRID*                179               0        -7.00000        -0.00000
*               -9.00000
GRID*                180               0        -7.00000         8.00000
*               -9.00000
GRID*                181               0       -25.00000        20.00000
*               48.89613
GRID*                182               0       -25.00000       -20.00000
*               76.90443
GRID*                183               0         0.00000        20.00000
*               48.89613
GRID*                184               0         0.00000       -20.00000
*               76.90443
GRID*                185               0         0.00000        20.00000
*               25.00000
GRID*                186               0         0.00000       -20.00000
*               25.00000
GRID*                187               0       -25.00000        20.00000
*               25.00000
GRID*                188               0       -25.00000       -20.00000
*               25.00000
GRID*                189               0       -25.00000        -0.00000
*               62.90028
GRID*                190               0         0.00000         0.00000
*               62.90028
GRID*                191               0         0.00000         0.00000
*               25.00000
GRID*                192               0       -25.00000        -0.00000
*               25.00000
GRID*                193               0       -25.00000       -20.00000
*               13.00000
GRID*                194               0         0.00000       -20.00000
*               13.00000
GRID*                195               0        -0.00000        20.00000
*               13.00000
GRID*                196               0       -25.00000        20.00000
*               13.00000
GRID*                197               0         0.00000       -12.00000
*                5.00000
GRID*                198               0       -17.00000       -12.00000
*                5.00000
GRID*                199               0       -17.00000        12.00000
*                5.00000
GRID*                200               0        -0.00000        12.00000
*                5.00000
GRID*                201               0       -16.66667       -20.00000
*               13.00000
GRID*                202               0        -8.33333       -20.00000
*               13.00000
GRID*                203               0         0.00000        10.00000
*               13.00000
GRID*                204               0         0.00000         0.00000
*               13.00000
GRID*                205               0         0.00000       -10.00000
*               13.00000
GRID*                206               0        -8.33333        20.00000
*               13.00000
GRID*                207               0       -16.66667        20.00000
*               13.00000
GRID*                208               0       -25.00000        10.00000
*               13.00000
GRID*                209               0       -25.00000        -0.00000
*               13.00000
GRID*                210               0       -25.00000       -10.00000
*               13.00000
GRID*                211               0         0.00000       -16.00000
*                9.00000
GRID*                212               0        -5.66667       -12.00000
*                5.00000
GRID*                213               0       -11.33333       -12.00000
*                5.00000
GRID*                214               0       -21.00000       -16.00000
*                9.00000
GRID*                215               0       -17.00000        -6.00000
*                5.00000
GRID*                216               0       -17.00000        -0.00000
*                5.00000
GRID*                217               0       -17.00000         6.00000
*                5.00000
GRID*                218               0       -21.00000        16.00000
*                9.00000
GRID*                219               0        -0.00000        16.00000
*                9.00000
GRID*                220               0       -11.33333        12.00000
*                5.00000
GRID*                221               0        -5.66667        12.00000
*                5.00000
GRID*                222               0        -0.00000         6.00000
*                5.00000
GRID*                223               0         0.00000         0.00000
*                5.00000
GRID*                224               0         0.00000        -6.00000
*                5.00000
GRID*                225               0       -16.66667       -10.00000
*               13.00000
GRID*                226               0        -8.33333       -10.00000
*               13.00000
GRID*                227               0       -16.66667         0.00000
*               13.00000
GRID*                228               0        -8.33333        -0.00000
*               13.00000
GRID*                229               0       -16.66667        10.00000
*               13.00000
GRID*                230               0        -8.33333        10.00000
*               13.00000
GRID*                231               0        -7.00000       -16.00000
*                9.00000
GRID*                232               0       -14.00000       -16.00000
*                9.00000
GRID*                233               0       -21.00000         8.00000
*                9.00000
GRID*                234               0       -21.00000        -0.00000
*                9.00000
GRID*                235               0       -21.00000        -8.00000
*                9.00000
GRID*                236               0        -7.00000        16.00000
*                9.00000
GRID*                237               0       -14.00000        16.00000
*                9.00000
GRID*                238               0         0.00000        -8.00000
*                9.00000
GRID*                239               0         0.00000         0.00000
*                9.00000
GRID*                240               0         0.00000         8.00000
*                9.00000
GRID*                241               0       -11.33333        -6.00000
*                5.00000
GRID*                242               0        -5.66667        -6.00000
*                5.00000
GRID*                243               0       -11.33333        -0.00000
*                5.00000
GRID*                244               0        -5.66667        -0.00000
*                5.00000
GRID*                245               0       -11.33333         6.00000
*                5.00000
GRID*                246               0        -5.66667         6.00000
*                5.00000
GRID*                247               0       -14.00000        -8.00000
*                9.00000
GRID*                248               0       -14.00000        -0.00000
*                9.00000
GRID*                249               0       -14.00000         8.00000
*                9.00000
GRID*                250               0        -7.00000        -8.00000
*                9.00000
GRID*                251               0        -7.00000        -0.00000
*                9.00000
GRID*                252               0        -7.00000         8.00000
*                9.00000
GRID*                257               0         0.00000        10.00000
*               25.00000
GRID*                258               0         0.00000         0.00000
*               25.00000
GRID*                259               0         0.00000       -10.00000
*               25.00000
GRID*                260               0        -8.33333       -20.00000
*               25.00000
GRID*                261               0       -16.66667       -20.00000
*               25.00000
GRID*                262               0       -25.00000       -10.00000
*               25.00000
GRID*                263               0       -25.00000        -0.00000
*               25.00000
GRID*                264               0       -25.00000        10.00000
*               25.00000
GRID*                265               0       -16.66667        20.00000
*               25.00000
GRID*                266               0        -8.33333        20.00000
*               25.00000
GRID*                267               0         0.00000       -20.00000
*               19.00000
GRID*                268               0       -25.00000       -20.00000
*               19.00000
GRID*                269               0        -0.00000        20.00000
*               19.00000
GRID*                270               0       -25.00000        20.00000
*               19.00000
GRID*                271               0        -8.33333        10.00000
*               25.00000
GRID*                272               0        -8.33333         0.00000
*               25.00000
GRID*                273               0        -8.33333       -10.00000
*               25.00000
GRID*                274               0       -16.66667        10.00000
*               25.00000
GRID*                275               0       -16.66667        -0.00000
*               25.00000
GRID*                276               0       -16.66667       -10.00000
*               25.00000
GRID*                277               0       -16.66667       -20.00000
*               19.00000
GRID*                278               0        -8.33333       -20.00000
*               19.00000
GRID*                279               0         0.00000       -10.00000
*               19.00000
GRID*                280               0         0.00000         0.00000
*               19.00000
GRID*                281               0         0.00000        10.00000
*               19.00000
GRID*                282               0       -25.00000        10.00000
*               19.00000
GRID*                283               0       -25.00000        -0.00000
*               19.00000
GRID*                284               0       -25.00000       -10.00000
*               19.00000
GRID*                285               0        -8.33333        20.00000
*               19.00000
GRID*                286               0       -16.66667        20.00000
*               19.00000
GRID*                287               0       -16.66667        10.00000
*               19.00000
GRID*                288               0       -16.66667        -0.00000
*               19.00000
GRID*                289               0       -16.66667       -10.00000
*               19.00000
GRID*                290               0        -8.33333        10.00000
*               19.00000
GRID*                291               0        -8.33333        -0.00000
*               19.00000
GRID*                292               0        -8.33333       -10.00000
*               19.00000
GRID*                293               0       -25.00000       100.00000
*               48.89613
GRID*                294               0       -25.00000       162.50000
*               92.65910
GRID*                295               0        -0.00000       162.50000
*               92.65910
GRID*                296               0        -0.00000       100.00000
*               48.89613
GRID*                301               0       -25.00000       131.25000
*               70.77761
GRID*                302               0        -0.00000       131.25000
*               70.77761
GRID*                303               0       -25.00000       100.00000
*               32.59742
GRID*                304               0       -25.00000       100.00000
*               16.29871
GRID*                306               0       -25.00000       162.50000
*               30.88637
GRID*                307               0       -25.00000       162.50000
*               61.77273
GRID*                308               0        -0.00000       100.00000
*               16.29871
GRID*                309               0        -0.00000       100.00000
*               32.59742
GRID*                310               0        -0.00000       162.50000
*               61.77273
GRID*                311               0        -0.00000       162.50000
*               30.88637
GRID*                313               0       -25.00000       131.25000
*               47.18508
GRID*                314               0       -25.00000       131.25000
*               23.59254
GRID*                315               0        -0.00000       131.25000
*               47.18508
GRID*                316               0        -0.00000       131.25000
*               23.59254
GRID*                317               0        -0.00000       146.09669
*              101.09669
GRID*                318               0       -25.00000       146.09669
*              101.09669
GRID*                319               0        -0.00000       150.00000
*              105.00000
GRID*                320               0        -0.00000       162.50000
*              105.00000
GRID*                321               0       -25.00000       150.00000
*              105.00000
GRID*                322               0       -25.00000       162.50000
*              105.00000
GRID*                323               0        -0.00000       128.90650
*              105.00000
GRID*                324               0       -25.00000       128.90650
*              105.00000
GRID*                325               0       -25.00000       100.00000
*               55.00000
GRID*                326               0        -0.00000       100.00000
*               55.00000
GRID*                327               0       -25.00000       123.04835
*               78.04835
GRID*                328               0        -0.00000       123.04835
*               78.04835
GRID*                329               0       -25.00000        93.89613
*               55.00000
GRID*                330               0        -0.00000        93.89613
*               55.00000
GRID*                331               0       -25.00000       111.40132
*               80.00000
GRID*                332               0        -0.00000       111.40132
*               80.00000
GRID*                333               0         0.00000        26.10387
*               55.00000
GRID*                334               0       -25.00000        26.10387
*               55.00000
GRID*                335               0       -25.00000        -8.90650
*              105.00000
GRID*                336               0         0.00000        -8.90650
*              105.00000
GRID*                337               0       -25.00000         8.59868
*               80.00000
GRID*                338               0         0.00000         8.59868
*               80.00000
GRID*                339               0        -0.00000        71.29871
*               55.00000
GRID*                340               0         0.00000        48.70129
*               55.00000
GRID*                341               0       -25.00000        48.70129
*               55.00000
GRID*                342               0       -25.00000        71.29871
*               55.00000
GRID*                343               0         0.00000        37.03117
*              105.00000
GRID*                344               0         0.00000        82.96883
*              105.00000
GRID*                345               0       -25.00000        82.96883
*              105.00000
GRID*                346               0       -25.00000        37.03117
*              105.00000
GRID*                347               0         0.00000        42.86623
*               80.00000
GRID*                348               0         0.00000        77.13377
*               80.00000
GRID*                349               0       -25.00000        42.86623
*               80.00000
GRID*                350               0       -25.00000        77.13377
*               80.00000
GRID*                351               0         0.00000       -16.47222
*               91.47222
GRID*                352               0       -25.00000       -16.47222
*               91.47222
GRID*                353               0         0.00000       -20.00000
*               95.00000
GRID*                354               0         0.00000       -20.00000
*              105.00000
GRID*                355               0       -25.00000       -20.00000
*               95.00000
GRID*                356               0       -25.00000       -20.00000
*              105.00000
GRID*                357               0       -25.00000        20.00000
*               55.00000
GRID*                358               0         0.00000        20.00000
*               55.00000
GRID*                359               0       -25.00000         1.76389
*               73.23611
GRID*                360               0         0.00000         1.76389
*               73.23611
GRID*                361               0        25.00000        20.00000
*              -48.89613
GRID*                362               0        25.00000       -20.00000
*              -76.90443
GRID*                367               0        25.00000        20.00000
*              -25.00000
GRID*                368               0        25.00000       -20.00000
*              -25.00000
GRID*                369               0        25.00000         0.00000
*              -62.90028
GRID*                372               0        25.00000         0.00000
*              -25.00000
GRID*                373               0        25.00000       -20.00000
*              -13.00000
GRID*                376               0        25.00000        20.00000
*              -13.00000
GRID*                378               0        17.00000       -12.00000
*               -5.00000
GRID*                379               0        17.00000        12.00000
*               -5.00000
GRID*                381               0        16.66667       -20.00000
*              -13.00000
GRID*                382               0         8.33333       -20.00000
*              -13.00000
GRID*                386               0         8.33333        20.00000
*              -13.00000
GRID*                387               0        16.66667        20.00000
*              -13.00000
GRID*                388               0        25.00000        10.00000
*              -13.00000
GRID*                389               0        25.00000         0.00000
*              -13.00000
GRID*                390               0        25.00000       -10.00000
*              -13.00000
GRID*                392               0         5.66667       -12.00000
*               -5.00000
GRID*                393               0        11.33333       -12.00000
*               -5.00000
GRID*                394               0        21.00000       -16.00000
*               -9.00000
GRID*                395               0        17.00000        -6.00000
*               -5.00000
GRID*                396               0        17.00000         0.00000
*               -5.00000
GRID*                397               0        17.00000         6.00000
*               -5.00000
GRID*                398               0        21.00000        16.00000
*               -9.00000
GRID*                400               0        11.33333        12.00000
*               -5.00000
GRID*                401               0         5.66667        12.00000
*               -5.00000
GRID*                405               0        16.66667       -10.00000
*              -13.00000
GRID*                406               0         8.33333       -10.00000
*              -13.00000
GRID*                407               0        16.66667         0.00000
*              -13.00000
GRID*                408               0         8.33333         0.00000
*              -13.00000
GRID*                409               0        16.66667        10.00000
*              -13.00000
GRID*                410               0         8.33333        10.00000
*              -13.00000
GRID*                411               0         7.00000       -16.00000
*               -9.00000
GRID*                412               0        14.00000       -16.00000
*               -9.00000
GRID*                413               0        21.00000         8.00000
*               -9.00000
GRID*                414               0        21.00000         0.00000
*               -9.00000
GRID*                415               0        21.00000        -8.00000
*               -9.00000
GRID*                416               0         7.00000        16.00000
*               -9.00000
GRID*                417               0        14.00000        16.00000
*               -9.00000
GRID*                421               0        11.33333        -6.00000
*               -5.00000
GRID*                422               0         5.66667        -6.00000
*               -5.00000
GRID*                423               0        11.33333         0.00000
*               -5.00000
GRID*                424               0         5.66667         0.00000
*               -5.00000
GRID*                425               0        11.33333         6.00000
*               -5.00000
GRID*                426               0         5.66667         6.00000
*               -5.00000
GRID*                427               0        14.00000        -8.00000
*               -9.00000
GRID*                428               0        14.00000         0.00000
*               -9.00000
GRID*                429               0        14.00000         8.00000
*               -9.00000
GRID*                430               0         7.00000        -8.00000
*               -9.00000
GRID*                431               0         7.00000         0.00000
*               -9.00000
GRID*                432               0         7.00000         8.00000
*               -9.00000
GRID*                440               0         8.33333       -20.00000
*              -25.00000
GRID*                441               0        16.66667       -20.00000
*              -25.00000
GRID*                442               0        25.00000       -10.00000
*              -25.00000
GRID*                443               0        25.00000         0.00000
*              -25.00000
GRID*                444               0        25.00000        10.00000
*              -25.00000
GRID*                445               0        16.66667        20.00000
*              -25.00000
GRID*                446               0         8.33333        20.00000
*              -25.00000
GRID*                448               0        25.00000       -20.00000
*              -19.00000
GRID*                450               0        25.00000        20.00000
*              -19.00000
GRID*                451               0         8.33333        10.00000
*              -25.00000
GRID*                452               0         8.33333         0.00000
*              -25.00000
GRID*                453               0         8.33333       -10.00000
*              -25.00000
GRID*                454               0        16.66667        10.00000
*              -25.00000
GRID*                455               0        16.66667         0.00000
*              -25.00000
GRID*                456               0        16.66667       -10.00000
*              -25.00000
GRID*                457               0        16.66667       -20.00000
*              -19.00000
GRID*                458               0         8.33333       -20.00000
*              -19.00000
GRID*                462               0        25.00000        10.00000
*              -19.00000
GRID*                463               0        25.00000         0.00000
*              -19.00000
GRID*                464               0        25.00000       -10.00000
*              -19.00000
GRID*                465               0         8.33333        20.00000
*              -19.00000
GRID*                466               0        16.66667        20.00000
*              -19.00000
GRID*                467               0        16.66667        10.00000
*              -19.00000
GRID*                468               0        16.66667         0.00000
*              -19.00000
GRID*                469               0        16.66667       -10.00000
*              -19.00000
GRID*                470               0         8.33333        10.00000
*              -19.00000
GRID*                471               0         8.33333         0.00000
*              -19.00000
GRID*                472               0         8.33333       -10.00000
*              -19.00000
GRID*                473               0        25.00000       100.00000
*              -48.89613
GRID*                474               0        25.00000       162.50000
*              -92.65910
GRID*                477               0        25.00000       100.00000
*               -0.00000
GRID*                478               0        25.00000       162.50000
*               -0.00000
GRID*                481               0        25.00000       131.25000
*              -70.77761
GRID*                483               0        25.00000       100.00000
*              -32.59742
GRID*                484               0        25.00000       100.00000
*              -16.29871
GRID*                485               0        25.00000       131.25000
*               -0.00000
GRID*                486               0        25.00000       162.50000
*              -30.88637
GRID*                487               0        25.00000       162.50000
*              -61.77273
GRID*                493               0        25.00000       131.25000
*              -47.18508
GRID*                494               0        25.00000       131.25000
*              -23.59254
GRID*                498               0        25.00000       146.09669
*             -101.09669
GRID*                501               0        25.00000       150.00000
*             -105.00000
GRID*                502               0        25.00000       162.50000
*             -105.00000
GRID*                504               0        25.00000       128.90650
*             -105.00000
GRID*                505               0        25.00000       100.00000
*              -55.00000
GRID*                507               0        25.00000       123.04835
*              -78.04835
GRID*                509               0        25.00000        93.89613
*              -55.00000
GRID*                511               0        25.00000       111.40132
*              -80.00000
GRID*                514               0        25.00000        26.10387
*              -55.00000
GRID*                515               0        25.00000        -8.90650
*             -105.00000
GRID*                517               0        25.00000         8.59868
*              -80.00000
GRID*                521               0        25.00000        48.70129
*              -55.00000
GRID*                522               0        25.00000        71.29871
*              -55.00000
GRID*                525               0        25.00000        82.96883
*             -105.00000
GRID*                526               0        25.00000        37.03117
*             -105.00000
GRID*                529               0        25.00000        42.86623
*              -80.00000
GRID*                530               0        25.00000        77.13377
*              -80.00000
GRID*                532               0        25.00000       -16.47222
*              -91.47222
GRID*                535               0        25.00000       -20.00000
*              -95.00000
GRID*                536               0        25.00000       -20.00000
*             -105.00000
GRID*                537               0        25.00000        20.00000
*              -55.00000
GRID*                539               0        25.00000         1.76389
*              -73.23611
GRID*                541               0        25.00000       -20.00000
*               76.90443
GRID*                544               0        25.00000        20.00000
*               48.89613
GRID*                547               0        25.00000        20.00000
*               25.00000
GRID*                548               0        25.00000       -20.00000
*               25.00000
GRID*                550               0        25.00000         0.00000
*               62.90028
GRID*                552               0        25.00000         0.00000
*               25.00000
GRID*                553               0        25.00000       -20.00000
*               13.00000
GRID*                555               0        25.00000        20.00000
*               13.00000
GRID*                558               0        17.00000       -12.00000
*                5.00000
GRID*                559               0        17.00000        12.00000
*                5.00000
GRID*                561               0        16.66667       -20.00000
*               13.00000
GRID*                562               0         8.33333       -20.00000
*               13.00000
GRID*                563               0        25.00000        10.00000
*               13.00000
GRID*                564               0        25.00000         0.00000
*               13.00000
GRID*                565               0        25.00000       -10.00000
*               13.00000
GRID*                566               0         8.33333        20.00000
*               13.00000
GRID*                567               0        16.66667        20.00000
*               13.00000
GRID*                572               0        21.00000       -16.00000
*                9.00000
GRID*                573               0         5.66667       -12.00000
*                5.00000
GRID*                574               0        11.33333       -12.00000
*                5.00000
GRID*                575               0        21.00000        16.00000
*                9.00000
GRID*                576               0        17.00000        -6.00000
*                5.00000
GRID*                577               0        17.00000         0.00000
*                5.00000
GRID*                578               0        17.00000         6.00000
*                5.00000
GRID*                580               0        11.33333        12.00000
*                5.00000
GRID*                581               0         5.66667        12.00000
*                5.00000
GRID*                585               0        16.66667       -10.00000
*               13.00000
GRID*                586               0         8.33333       -10.00000
*               13.00000
GRID*                587               0        16.66667         0.00000
*               13.00000
GRID*                588               0         8.33333         0.00000
*               13.00000
GRID*                589               0        16.66667        10.00000
*               13.00000
GRID*                590               0         8.33333        10.00000
*               13.00000
GRID*                591               0         7.00000       -16.00000
*                9.00000
GRID*                592               0        14.00000       -16.00000
*                9.00000
GRID*                593               0        21.00000         8.00000
*                9.00000
GRID*                594               0        21.00000         0.00000
*                9.00000
GRID*                595               0        21.00000        -8.00000
*                9.00000
GRID*                596               0         7.00000        16.00000
*                9.00000
GRID*                597               0        14.00000        16.00000
*                9.00000
GRID*                601               0        11.33333        -6.00000
*                5.00000
GRID*                602               0         5.66667        -6.00000
*                5.00000
GRID*                603               0        11.33333         0.00000
*                5.00000
GRID*                604               0         5.66667         0.00000
*                5.00000
GRID*                605               0        11.33333         6.00000
*                5.00000
GRID*                606               0         5.66667         6.00000
*                5.00000
GRID*                607               0        14.00000        -8.00000
*                9.00000
GRID*                608               0        14.00000         0.00000
*                9.00000
GRID*                609               0        14.00000         8.00000
*                9.00000
GRID*                610               0         7.00000        -8.00000
*                9.00000
GRID*                611               0         7.00000         0.00000
*                9.00000
GRID*                612               0         7.00000         8.00000
*                9.00000
GRID*                620               0        16.66667        20.00000
*               25.00000
GRID*                621               0         8.33333        20.00000
*               25.00000
GRID*                622               0        25.00000       -10.00000
*               25.00000
GRID*                623               0        25.00000         0.00000
*               25.00000
GRID*                624               0        25.00000        10.00000
*               25.00000
GRID*                625               0         8.33333       -20.00000
*               25.00000
GRID*                626               0        16.66667       -20.00000
*               25.00000
GRID*                627               0        25.00000       -20.00000
*               19.00000
GRID*                630               0        25.00000        20.00000
*               19.00000
GRID*                631               0         8.33333        10.00000
*               25.00000
GRID*                632               0         8.33333         0.00000
*               25.00000
GRID*                633               0         8.33333       -10.00000
*               25.00000
GRID*                634               0        16.66667        10.00000
*               25.00000
GRID*                635               0        16.66667         0.00000
*               25.00000
GRID*                636               0        16.66667       -10.00000
*               25.00000
GRID*                637               0        16.66667       -20.00000
*               19.00000
GRID*                638               0         8.33333       -20.00000
*               19.00000
GRID*                642               0        25.00000        10.00000
*               19.00000
GRID*                643               0        25.00000         0.00000
*               19.00000
GRID*                644               0        25.00000       -10.00000
*               19.00000
GRID*                645               0         8.33333        20.00000
*               19.00000
GRID*                646               0        16.66667        20.00000
*               19.00000
GRID*                647               0        16.66667        10.00000
*               19.00000
GRID*                648               0        16.66667         0.00000
*               19.00000
GRID*                649               0        16.66667       -10.00000
*               19.00000
GRID*                650               0         8.33333        10.00000
*               19.00000
GRID*                651               0         8.33333         0.00000
*               19.00000
GRID*                652               0         8.33333       -10.00000
*               19.00000
GRID*                655               0        25.00000       162.50000
*               92.65910
GRID*                656               0        25.00000       100.00000
*               48.89613
GRID*                662               0        25.00000       131.25000
*               70.77761
GRID*                663               0        25.00000       162.50000
*               30.88637
GRID*                664               0        25.00000       162.50000
*               61.77273
GRID*                666               0        25.00000       100.00000
*               32.59742
GRID*                667               0        25.00000       100.00000
*               16.29871
GRID*                673               0        25.00000       131.25000
*               47.18508
GRID*                674               0        25.00000       131.25000
*               23.59254
GRID*                678               0        25.00000       146.09669
*              101.09669
GRID*                681               0        25.00000       150.00000
*              105.00000
GRID*                682               0        25.00000       162.50000
*              105.00000
GRID*                683               0        25.00000       128.90650
*              105.00000
GRID*                685               0        25.00000       100.00000
*               55.00000
GRID*                687               0        25.00000       123.04835
*               78.04835
GRID*                689               0        25.00000        93.89613
*               55.00000
GRID*                691               0        25.00000       111.40132
*               80.00000
GRID*                693               0        25.00000        -8.90650
*              105.00000
GRID*                695               0        25.00000        26.10387
*               55.00000
GRID*                697               0        25.00000         8.59868
*               80.00000
GRID*                699               0        25.00000        48.70129
*               55.00000
GRID*                700               0        25.00000        71.29871
*               55.00000
GRID*                705               0        25.00000        82.96883
*              105.00000
GRID*                706               0        25.00000        37.03117
*              105.00000
GRID*                709               0        25.00000        42.86623
*               80.00000
GRID*                710               0        25.00000        77.13377
*               80.00000
GRID*                712               0        25.00000       -16.47222
*               91.47222
GRID*                715               0        25.00000       -20.00000
*               95.00000
GRID*                716               0        25.00000       -20.00000
*              105.00000
GRID*                717               0        25.00000        20.00000
*               55.00000
GRID*                719               0        25.00000         1.76389
*               73.23611
$
$ Element cards
$
$
$ Name: yoke_hex
$
CHEXA          1       1      33      34      64      49      50      62+
+             63      52
CHEXA          2       1      49      64      17      18      52      63+
+             61      51
CHEXA          3       1     143     150     169     145     146     156+
+            175     148
CHEXA          4       1     150     151     171     169     156     155+
+            176     175
CHEXA          5       1     151     152     173     171     155     154+
+            177     176
CHEXA          6       1     152     149     159     173     154     153+
+            162     177
CHEXA          7       1     145     169     170     144     148     175+
+            178     147
CHEXA          8       1     169     171     172     170     175     176+
+            179     178
CHEXA          9       1     171     173     174     172     176     177+
+            180     179
CHEXA         10       1     173     159     160     174     177     162+
+            161     180
CHEXA         11       1     144     170     165     141     147     178+
+            166     142
CHEXA         12       1     170     172     164     165     178     179+
+            167     166
CHEXA         13       1     172     174     163     164     179     180+
+            168     167
CHEXA         14       1     174     160     157     163     180     161+
+            158     168
CHEXA         15       1     146     156     175     148     103     122+
+            123     104
CHEXA         16       1     156     155     176     175     122     121+
+            125     123
CHEXA         17       1     155     154     177     176     121     120+
+            127     125
CHEXA         18       1     154     153     162     177     120     117+
+            119     127
CHEXA         19       1     148     175     178     147     104     123+
+            124     105
CHEXA         20       1     175     176     179     178     123     125+
+            126     124
CHEXA         21       1     176     177     180     179     125     127+
+            128     126
CHEXA         22       1     177     162     161     180     127     119+
+            118     128
CHEXA         23       1     147     178     166     142     105     124+
+            113     101
CHEXA         24       1     178     179     167     166     124     126+
+            112     113
CHEXA         25       1     179     180     168     167     126     128+
+            111     112
CHEXA         26       1     180     161     158     168     128     118+
+            109     111
CHEXA         27       1      33     129     130      92      93     134+
+            135      98
CHEXA         28       1     129     117     120     130     134     119+
+            127     135
CHEXA         29       1      92     130     131      91      98     135+
+            136      99
CHEXA         30       1     130     120     121     131     135     127+
+            125     136
CHEXA         31       1      91     131     132      90      99     136+
+            137     100
CHEXA         32       1     131     121     122     132     136     125+
+            123     137
CHEXA         33       1      90     132     106      18     100     137+
+            107      88
CHEXA         34       1     132     122     103     106     137     123+
+            104     107
CHEXA         35       1      93     134     135      98      94     133+
+            138      95
CHEXA         36       1     134     119     127     135     133     118+
+            128     138
CHEXA         37       1      98     135     136      99      95     138+
+            139      96
CHEXA         38       1     135     127     125     136     138     128+
+            126     139
CHEXA         39       1      99     136     137     100      96     139+
+            140      97
CHEXA         40       1     136     125     123     137     139     126+
+            124     140
CHEXA         41       1     100     137     107      88      97     140+
+            108      87
CHEXA         42       1     137     123     104     107     140     124+
+            105     108
CHEXA         43       1      94     133     138      95      34     110+
+            116      83
CHEXA         44       1     133     118     128     138     110     109+
+            111     116
CHEXA         45       1      95     138     139      96      83     116+
+            115      84
CHEXA         46       1     138     128     126     139     116     111+
+            112     115
CHEXA         47       1      96     139     140      97      84     115+
+            114      85
CHEXA         48       1     139     126     124     140     115     112+
+            113     114
CHEXA         49       1      97     140     108      87      85     114+
+            102      17
CHEXA         50       1     140     124     105     108     114     113+
+            101     102
CHEXA         51       1      28      43      47      37       1      11+
+             40       3
CHEXA         52       1      43      42      48      47      11      12+
+             41      40
CHEXA         53       1      42      27      46      48      12      10+
+             39      41
CHEXA         54       1      37      47      44      25       3      40+
+             15       2
CHEXA         55       1      47      48      45      44      40      41+
+             14      15
CHEXA         56       1      48      46      26      45      41      39+
+             13      14
CHEXA         57       1      35      22      16       5      25      24+
+             23       2
CHEXA         58       1      28      29       4       1      37      36+
+              6       3
CHEXA         59       1      37      36       6       3      25      35+
+              5       2
CHEXA         60       1      29      30       7       4      36      38+
+              9       6
CHEXA         61       1      36      38       9       6      35      21+
+              8       5
CHEXA         62       1      30       7       9      38      69      72+
+             80      76
CHEXA         63       1      38       9       8      21      76      80+
+             77      74
CHEXA         64       1      69      72      80      76      70      71+
+             79      75
CHEXA         65       1      76      80      77      74      75      79+
+             78      73
CHEXA         66       1      70      71      79      75      67      55+
+             57      68
CHEXA         67       1      75      79      78      73      68      57+
+             56      66
CHEXA         68       1      20      19      58      59      66      56+
+             53      60
CHEXA         69       1      56      57      54      53      66      68+
+             65      60
CHEXA         70       1      57      55      31      54      68      67+
+             32      65
CHEXA         71       1      53      54      52      51      60      65+
+             63      61
CHEXA         72       1      54      31      50      52      65      32+
+             62      63
CHEXA         73       1     187     192     191     185     181     189+
+            190     183
CHEXA         74       1     192     188     186     191     189     182+
+            184     190
CHEXA         75       1     198     213     241     215     214     232+
+            247     235
CHEXA         76       1     215     241     243     216     235     247+
+            248     234
CHEXA         77       1     216     243     245     217     234     248+
+            249     233
CHEXA         78       1     217     245     220     199     233     249+
+            237     218
CHEXA         79       1     213     212     242     241     232     231+
+            250     247
CHEXA         80       1     241     242     244     243     247     250+
+            251     248
CHEXA         81       1     243     244     246     245     248     251+
+            252     249
CHEXA         82       1     245     246     221     220     249     252+
+            236     237
CHEXA         83       1     212     197     224     242     231     211+
+            238     250
CHEXA         84       1     242     224     223     244     250     238+
+            239     251
CHEXA         85       1     244     223     222     246     251     239+
+            240     252
CHEXA         86       1     246     222     200     221     252     240+
+            219     236
CHEXA         87       1     214     232     247     235     193     201+
+            225     210
CHEXA         88       1     235     247     248     234     210     225+
+            227     209
CHEXA         89       1     234     248     249     233     209     227+
+            229     208
CHEXA         90       1     233     249     237     218     208     229+
+            207     196
CHEXA         91       1     232     231     250     247     201     202+
+            226     225
CHEXA         92       1     247     250     251     248     225     226+
+            228     227
CHEXA         93       1     248     251     252     249     227     228+
+            230     229
CHEXA         94       1     249     252     236     237     229     230+
+            206     207
CHEXA         95       1     231     211     238     250     202     194+
+            205     226
CHEXA         96       1     250     238     239     251     226     205+
+            204     228
CHEXA         97       1     251     239     240     252     228     204+
+            203     230
CHEXA         98       1     252     240     219     236     230     203+
+            195     206
CHEXA         99       1     187     264     282     270     265     274+
+            287     286
CHEXA        100       1     270     282     208     196     286     287+
+            229     207
CHEXA        101       1     264     263     283     282     274     275+
+            288     287
CHEXA        102       1     282     283     209     208     287     288+
+            227     229
CHEXA        103       1     263     262     284     283     275     276+
+            289     288
CHEXA        104       1     283     284     210     209     288     289+
+            225     227
CHEXA        105       1     262     188     268     284     276     261+
+            277     289
CHEXA        106       1     284     268     193     210     289     277+
+            201     225
CHEXA        107       1     265     274     287     286     266     271+
+            290     285
CHEXA        108       1     286     287     229     207     285     290+
+            230     206
CHEXA        109       1     274     275     288     287     271     272+
+            291     290
CHEXA        110       1     287     288     227     229     290     291+
+            228     230
CHEXA        111       1     275     276     289     288     272     273+
+            292     291
CHEXA        112       1     288     289     225     227     291     292+
+            226     228
CHEXA        113       1     276     261     277     289     273     260+
+            278     292
CHEXA        114       1     289     277     201     225     292     278+
+            202     226
CHEXA        115       1     266     271     290     285     185     257+
+            281     269
CHEXA        116       1     285     290     230     206     269     281+
+            203     195
CHEXA        117       1     271     272     291     290     257     258+
+            280     281
CHEXA        118       1     290     291     228     230     281     280+
+            204     203
CHEXA        119       1     272     273     292     291     258     259+
+            279     280
CHEXA        120       1     291     292     226     228     280     279+
+            205     204
CHEXA        121       1     273     260     278     292     259     186+
+            267     279
CHEXA        122       1     292     278     202     226     279     267+
+            194     205
CHEXA        123       1     296     302     315     309     293     301+
+            313     303
CHEXA        124       1     309     315     316     308     303     313+
+            314     304
CHEXA        125       1     308     316      46      27     304     314+
+             39      10
CHEXA        126       1     302     295     310     315     301     294+
+            307     313
CHEXA        127       1     315     310     311     316     313     307+
+            306     314
CHEXA        128       1     316     311      26      46     314     306+
+             13      39
CHEXA        129       1     317     318     321     319     295     294+
+            322     320
CHEXA        130       1     296     293     325     326     302     301+
+            327     328
CHEXA        131       1     302     301     327     328     295     294+
+            318     317
CHEXA        132       1     326     325     329     330     328     327+
+            331     332
CHEXA        133       1     328     327     331     332     317     318+
+            324     323
CHEXA        134       1     330     332     331     329     339     348+
+            350     342
CHEXA        135       1     332     323     324     331     348     344+
+            345     350
CHEXA        136       1     339     348     350     342     340     347+
+            349     341
CHEXA        137       1     348     344     345     350     347     343+
+            346     349
CHEXA        138       1     340     347     349     341     333     338+
+            337     334
CHEXA        139       1     347     343     346     349     338     336+
+            335     337
CHEXA        140       1     354     353     355     356     336     351+
+            352     335
CHEXA        141       1     335     352     359     337     336     351+
+            360     338
CHEXA        142       1     337     359     357     334     338     360+
+            358     333
CHEXA        143       1     352     182     189     359     351     184+
+            190     360
CHEXA        144       1     359     189     181     357     360     190+
+            183     358
CHEXA        145       1     367     372      64      34     361     369+
+             63      62
CHEXA        146       1     372     368      17      64     369     362+
+             61      63
CHEXA        147       1     378     393     421     395     394     412+
+            427     415
CHEXA        148       1     395     421     423     396     415     427+
+            428     414
CHEXA        149       1     396     423     425     397     414     428+
+            429     413
CHEXA        150       1     397     425     400     379     413     429+
+            417     398
CHEXA        151       1     393     392     422     421     412     411+
+            430     427
CHEXA        152       1     421     422     424     423     427     430+
+            431     428
CHEXA        153       1     423     424     426     425     428     431+
+            432     429
CHEXA        154       1     425     426     401     400     429     432+
+            416     417
CHEXA        155       1     392     141     165     422     411     142+
+            166     430
CHEXA        156       1     422     165     164     424     430     166+
+            167     431
CHEXA        157       1     424     164     163     426     431     167+
+            168     432
CHEXA        158       1     426     163     157     401     432     168+
+            158     416
CHEXA        159       1     394     412     427     415     373     381+
+            405     390
CHEXA        160       1     415     427     428     414     390     405+
+            407     389
CHEXA        161       1     414     428     429     413     389     407+
+            409     388
CHEXA        162       1     413     429     417     398     388     409+
+            387     376
CHEXA        163       1     412     411     430     427     381     382+
+            406     405
CHEXA        164       1     427     430     431     428     405     406+
+            408     407
CHEXA        165       1     428     431     432     429     407     408+
+            410     409
CHEXA        166       1     429     432     416     417     409     410+
+            386     387
CHEXA        167       1     411     142     166     430     382     101+
+            113     406
CHEXA        168       1     430     166     167     431     406     113+
+            112     408
CHEXA        169       1     431     167     168     432     408     112+
+            111     410
CHEXA        170       1     432     168     158     416     410     111+
+            109     386
CHEXA        171       1     367     444     462     450     445     454+
+            467     466
CHEXA        172       1     450     462     388     376     466     467+
+            409     387
CHEXA        173       1     444     443     463     462     454     455+
+            468     467
CHEXA        174       1     462     463     389     388     467     468+
+            407     409
CHEXA        175       1     443     442     464     463     455     456+
+            469     468
CHEXA        176       1     463     464     390     389     468     469+
+            405     407
CHEXA        177       1     442     368     448     464     456     441+
+            457     469
CHEXA        178       1     464     448     373     390     469     457+
+            381     405
CHEXA        179       1     445     454     467     466     446     451+
+            470     465
CHEXA        180       1     466     467     409     387     465     470+
+            410     386
CHEXA        181       1     454     455     468     467     451     452+
+            471     470
CHEXA        182       1     467     468     407     409     470     471+
+            408     410
CHEXA        183       1     455     456     469     468     452     453+
+            472     471
CHEXA        184       1     468     469     405     407     471     472+
+            406     408
CHEXA        185       1     456     441     457     469     453     440+
+            458     472
CHEXA        186       1     469     457     381     405     472     458+
+            382     406
CHEXA        187       1     446     451     470     465      34      83+
+            116     110
CHEXA        188       1     465     470     410     386     110     116+
+            111     109
CHEXA        189       1     451     452     471     470      83      84+
+            115     116
CHEXA        190       1     470     471     408     410     116     115+
+            112     111
CHEXA        191       1     452     453     472     471      84      85+
+            114     115
CHEXA        192       1     471     472     406     408     115     114+
+            113     112
CHEXA        193       1     453     440     458     472      85      17+
+            102     114
CHEXA        194       1     472     458     382     406     114     102+
+            101     113
CHEXA        195       1      28      37      47      43     473     481+
+            493     483
CHEXA        196       1      43      47      48      42     483     493+
+            494     484
CHEXA        197       1      42      48      46      27     484     494+
+            485     477
CHEXA        198       1      37      25      44      47     481     474+
+            487     493
CHEXA        199       1      47      44      45      48     493     487+
+            486     494
CHEXA        200       1      48      45      26      46     494     486+
+            478     485
CHEXA        201       1      35     498     501      22      25     474+
+            502      24
CHEXA        202       1      28     473     505      29      37     481+
+            507      36
CHEXA        203       1      37     481     507      36      25     474+
+            498      35
CHEXA        204       1      29     505     509      30      36     507+
+            511      38
CHEXA        205       1      36     507     511      38      35     498+
+            504      21
CHEXA        206       1      30      38     511     509      69      76+
+            530     522
CHEXA        207       1      38      21     504     511      76      74+
+            525     530
CHEXA        208       1      69      76     530     522      70      75+
+            529     521
CHEXA        209       1      76      74     525     530      75      73+
+            526     529
CHEXA        210       1      70      75     529     521      67      68+
+            517     514
CHEXA        211       1      75      73     526     529      68      66+
+            515     517
CHEXA        212       1      20      59     535     536      66      60+
+            532     515
CHEXA        213       1     515     532     539     517      66      60+
+             65      68
CHEXA        214       1     517     539     537     514      68      65+
+             32      67
CHEXA        215       1     532     362     369     539      60      61+
+             63      65
CHEXA        216       1     539     369     361     537      65      63+
+             62      32
CHEXA        217       1     547     185     191     552     544     183+
+            190     550
CHEXA        218       1     552     191     186     548     550     190+
+            184     541
CHEXA        219       1     558     576     601     574     572     595+
+            607     592
CHEXA        220       1     576     577     603     601     595     594+
+            608     607
CHEXA        221       1     577     578     605     603     594     593+
+            609     608
CHEXA        222       1     578     559     580     605     593     575+
+            597     609
CHEXA        223       1     574     601     602     573     592     607+
+            610     591
CHEXA        224       1     601     603     604     602     607     608+
+            611     610
CHEXA        225       1     603     605     606     604     608     609+
+            612     611
CHEXA        226       1     605     580     581     606     609     597+
+            596     612
CHEXA        227       1     573     602     224     197     591     610+
+            238     211
CHEXA        228       1     602     604     223     224     610     611+
+            239     238
CHEXA        229       1     604     606     222     223     611     612+
+            240     239
CHEXA        230       1     606     581     200     222     612     596+
+            219     240
CHEXA        231       1     572     595     607     592     553     565+
+            585     561
CHEXA        232       1     595     594     608     607     565     564+
+            587     585
CHEXA        233       1     594     593     609     608     564     563+
+            589     587
CHEXA        234       1     593     575     597     609     563     555+
+            567     589
CHEXA        235       1     592     607     610     591     561     585+
+            586     562
CHEXA        236       1     607     608     611     610     585     587+
+            588     586
CHEXA        237       1     608     609     612     611     587     589+
+            590     588
CHEXA        238       1     609     597     596     612     589     567+
+            566     590
CHEXA        239       1     591     610     238     211     562     586+
+            205     194
CHEXA        240       1     610     611     239     238     586     588+
+            204     205
CHEXA        241       1     611     612     240     239     588     590+
+            203     204
CHEXA        242       1     612     596     219     240     590     566+
+            195     203
CHEXA        243       1     547     630     642     624     620     646+
+            647     634
CHEXA        244       1     630     555     563     642     646     567+
+            589     647
CHEXA        245       1     624     642     643     623     634     647+
+            648     635
CHEXA        246       1     642     563     564     643     647     589+
+            587     648
CHEXA        247       1     623     643     644     622     635     648+
+            649     636
CHEXA        248       1     643     564     565     644     648     587+
+            585     649
CHEXA        249       1     622     644     627     548     636     649+
+            637     626
CHEXA        250       1     644     565     553     627     649     585+
+            561     637
CHEXA        251       1     620     646     647     634     621     645+
+            650     631
CHEXA        252       1     646     567     589     647     645     566+
+            590     650
CHEXA        253       1     634     647     648     635     631     650+
+            651     632
CHEXA        254       1     647     589     587     648     650     590+
+            588     651
CHEXA        255       1     635     648     649     636     632     651+
+            652     633
CHEXA        256       1     648     587     585     649     651     588+
+            586     652
CHEXA        257       1     636     649     637     626     633     652+
+            638     625
CHEXA        258       1     649     585     561     637     652     586+
+            562     638
CHEXA        259       1     621     645     650     631     185     269+
+            281     257
CHEXA        260       1     645     566     590     650     269     195+
+            203     281
CHEXA        261       1     631     650     651     632     257     281+
+            280     258
CHEXA        262       1     650     590     588     651     281     203+
+            204     280
CHEXA        263       1     632     651     652     633     258     280+
+            279     259
CHEXA        264       1     651     588     586     652     280     204+
+            205     279
CHEXA        265       1     633     652     638     625     259     279+
+            267     186
CHEXA        266       1     652     586     562     638     279     205+
+            194     267
CHEXA        267       1     296     309     315     302     656     666+
+            673     662
CHEXA        268       1     309     308     316     315     666     667+
+            674     673
CHEXA        269       1     308      27      46     316     667     477+
+            485     674
CHEXA        270       1     302     315     310     295     662     673+
+            664     655
CHEXA        271       1     315     316     311     310     673     674+
+            663     664
CHEXA        272       1     316      46      26     311     674     485+
+            478     663
CHEXA        273       1     317     319     681     678     295     320+
+            682     655
CHEXA        274       1     296     326     685     656     302     328+
+            687     662
CHEXA        275       1     302     328     687     662     295     317+
+            678     655
CHEXA        276       1     326     330     689     685     328     332+
+            691     687
CHEXA        277       1     328     332     691     687     317     323+
+            683     678
CHEXA        278       1     330     689     691     332     339     700+
+            710     348
CHEXA        279       1     332     691     683     323     348     710+
+            705     344
CHEXA        280       1     339     700     710     348     340     699+
+            709     347
CHEXA        281       1     348     710     705     344     347     709+
+            706     343
CHEXA        282       1     340     699     709     347     333     695+
+            697     338
CHEXA        283       1     347     709     706     343     338     697+
+            693     336
CHEXA        284       1     354     716     715     353     336     693+
+            712     351
CHEXA        285       1     693     697     719     712     336     338+
+            360     351
CHEXA        286       1     697     695     717     719     338     333+
+            358     360
CHEXA        287       1     712     719     550     541     351     360+
+            190     184
CHEXA        288       1     719     717     544     550     360     358+
+            183     190
$
$ Name: yoke_wedge
$
CPENTA       289       2       5       8      16      35      21      22
CPENTA       290       2      58      53      51      59      60      61
CPENTA       291       2     318     321     324     317     319     323
CPENTA       292       2     355     182     352     353     184     351
CPENTA       293       2     498     501     504      35      22      21
CPENTA       294       2     535     362     532      59      61      60
CPENTA       295       2     678     683     681     317     323     319
CPENTA       296       2     715     712     541     353     351     184
$
$ Property cards
$
$
$ Name: yoke_hex
PSOLID    1       1      
$
$
$ Name: yoke_wedge
PSOLID    2       2      
$
ENDDATA
