$MeshFormat
2.2 0 8
$EndMeshFormat
$PhysicalNames
2
3 1 "yoke_hex"
3 2 "yoke_wedge"
$EndPhysicalNames
$Nodes
569
1 -25.00000000000001 100.0 -48.89612705619272
2 -25.000000000000018 162.5 -92.65909819429969
3 -25.00000000000001 131.25 -70.7776126252462
4 -25.00000000000001 100.0 -55.0
5 -25.000000000000018 146.09669426150134 -101.09669426150137
6 -25.00000000000001 123.04834713075067 -78.04834713075068
7 -25.00000000000001 93.89612705619271 -55.0
8 -25.000000000000014 128.9065039666783 -105.0
9 -25.00000000000001 111.40131551143551 -80.0
10 -25.000000000000007 100.0 1.5308084989341915e-15
11 -25.00000000000001 100.0 -32.597418037461814
12 -25.000000000000007 100.0 -16.298709018730904
13 -25.00000000000001 162.5 1.5308084989341915e-15
14 -25.000000000000014 162.5 -30.886366064766563
15 -25.000000000000014 162.5 -61.772732129533125
16 -25.000000000000018 150.0 -105.0
17 -3.0616169978683826e-16 -20.0 -25.0
18 -25.0 -20.0 -25.0
19 -25.000000000000007 -20.0 -105.0
20 -5.204748896376251e-15 -20.0 -105.0
21 -1.432264256912701e-14 128.9065039666783 -105.0
22 -1.5614246689128753e-14 150.0 -105.0
23 -25.000000000000018 162.5 -105.0
24 -1.6379650938595848e-14 162.5 -105.0
25 -1.5623988643848715e-14 162.5 -92.65909819429969
26 -9.950255243072245e-15 162.5 0.0
27 -6.123233995736766e-15 100.0 0.0
28 -9.117258270240202e-15 100.0 -48.89612705619272
29 -9.491012693391987e-15 100.0 -55.0
30 -9.117258270240202e-15 93.89612705619271 -55.0
31 -25.000000000000004 20.0 -55.0
32 -4.592425496802574e-15 20.0 -55.0
33 -25.0 20.0 -25.0
34 -2.7554552980815448e-15 20.0 -25.0
35 -1.5136229601254165e-14 146.09669426150134 -101.09669426150137
36 -1.2313621147323076e-14 123.04834713075067 -78.04834713075068
37 -1.2370623457044458e-14 131.25 -70.7776126252462
38 -1.1719950419683607e-14 111.40131551143551 -80.0
39 -25.000000000000007 131.25 1.5308084989341915e-15
40 -25.00000000000001 131.25 -47.185075083497466
41 -25.000000000000007 131.25 -23.59253754174873
42 -7.121242087237912e-15 100.0 -16.298709018730904
43 -8.119250178739057e-15 100.0 -32.597418037461814
44 -1.3732744176923225e-14 162.5 -61.772732129533125
45 -1.1841499709997736e-14 162.5 -30.886366064766563
46 -8.036744619404505e-15 131.25 0.0
47 -1.092599717783114e-14 131.25 -47.185075083497466
48 -9.481370898617823e-15 131.25 -23.59253754174874
49 -25.0 -1.5308084989341915e-15 -25.0
50 -25.000000000000004 20.0 -48.896127056192725
51 -25.000000000000004 -20.0 -76.90442858458096
52 -25.000000000000004 -1.5308084989341917e-15 -62.90027782038683
53 -25.000000000000007 -16.472223955976915 -91.47222395597689
54 -25.000000000000004 1.763888022011541 -73.23611197798844
55 -25.000000000000004 26.103872943807275 -55.0
56 -25.000000000000007 -8.906503966678288 -105.0
57 -25.000000000000004 8.598684488564485 -80.0
58 -25.000000000000007 -20.0 -95.0
59 -4.592425496802574e-15 -20.0 -95.0
60 -4.592425496802573e-15 -16.472223955976915 -91.47222395597689
61 -3.484391316170811e-15 -20.0 -76.90442858458096
62 -4.218671073650789e-15 20.0 -48.896127056192725
63 -3.8515311949108e-15 -2.3583826748318457e-31 -62.90027782038683
64 -1.5308084989341915e-15 -9.373498641636611e-32 -25.0
65 -4.5924254968025736e-15 1.7638880220115425 -73.23611197798844
66 -5.884029616804315e-15 -8.906503966678287 -105.0
67 -4.96617991995436e-15 26.103872943807275 -55.0
68 -5.425104768379338e-15 8.598684488564487 -80.0
69 -7.733565486811587e-15 71.2987090187309 -55.0
70 -6.3498727033829735e-15 48.70129098126908 -55.0
71 -25.000000000000007 48.701290981269096 -55.0
72 -25.000000000000007 71.2987090187309 -55.0
73 -8.696900600911882e-15 37.03116534444058 -105.0
74 -1.1509771585019446e-14 82.96883465555943 -105.0
75 -7.523386652147426e-15 42.86622816285481 -80.0
76 -9.621668535915515e-15 77.13377183714516 -79.99999999999999
77 -25.00000000000001 82.96883465555943 -105.0
78 -25.00000000000001 37.03116534444058 -105.0
79 -25.000000000000007 42.86622816285484 -80.0
80 -25.000000000000007 77.13377183714518 -79.99999999999999
83 -2.1431318985078682e-15 10.0 -25.0
84 -1.5308084989341915e-15 -9.373498641636611e-32 -25.0
85 -9.184850993605148e-16 -10.0 -25.0
87 -8.333333333333334 -20.0 -25.0
88 -16.666666666666668 -20.0 -25.0
90 -25.0 -10.000000000000002 -25.0
91 -25.0 -1.5308084989341915e-15 -25.0
92 -25.0 9.999999999999998 -25.0
93 -16.666666666666664 20.0 -25.0
94 -8.333333333333336 20.0 -25.0
95 -8.333333333333334 10.0 -25.0
96 -8.333333333333334 2.7911439930759278e-14 -25.0
97 -8.333333333333336 -10.0 -25.0
98 -16.666666666666664 9.999999999999998 -25.0
99 -16.666666666666668 -1.0205389992894611e-15 -25.0
100 -16.666666666666668 -10.000000000000002 -25.0
101 4.286263797015737e-16 -20.0 -13.0
102 6.123233995736777e-17 -20.0 -19.0
103 -25.0 -20.0 -12.999999999999998
104 -16.666666666666664 -20.0 -12.999999999999998
105 -8.33333333333333 -20.0 -13.0
106 -25.0 -20.0 -19.0
107 -16.666666666666664 -20.0 -19.0
108 -8.333333333333332 -20.0 -19.0
109 -2.0206672185931327e-15 20.0 -13.0
110 -2.3880612583373385e-15 20.0 -19.0
111 -1.4083438190194562e-15 10.0 -13.0
112 -7.960204194457795e-16 -4.874219293651037e-32 -13.0
113 -1.8369701987210292e-16 -10.0 -13.0
114 -5.510910596163089e-16 -10.0 -19.0
115 -1.1634144591899855e-15 -7.123858967643823e-32 -19.0
116 -1.775737858763662e-15 10.0 -19.0
117 -25.0 20.0 -12.999999999999998
118 -8.333333333333336 20.0 -13.0
119 -16.666666666666668 20.0 -12.999999999999998
120 -25.0 9.999999999999998 -12.999999999999998
121 -25.0 -1.5308084989341915e-15 -12.999999999999998
122 -25.0 -10.000000000000002 -12.999999999999998
123 -16.666666666666664 -10.000000000000002 -12.999999999999998
124 -8.333333333333332 -10.0 -13.0
125 -16.666666666666664 2.7401170431114548e-14 -12.999999999999998
126 -8.333333333333332 -5.102694996447305e-16 -13.0
127 -16.666666666666668 9.999999999999998 -12.999999999999998
128 -8.333333333333334 9.999999999999986 -13.0
129 -25.0 20.0 -19.0
130 -25.0 9.999999999999998 -19.0
131 -25.0 -1.5308084989341915e-15 -19.0
132 -25.0 -10.000000000000002 -19.0
133 -8.333333333333337 20.0 -19.0
134 -16.666666666666668 20.0 -19.0
135 -16.666666666666668 10.000000000000012 -19.0
136 -16.666666666666668 -1.0205389992894611e-15 -19.0
137 -16.666666666666664 -10.00000000000003 -19.0
138 -8.333333333333337 10.000000000000014 -19.0
139 -8.333333333333334 -5.102694996447306e-16 -19.0
140 -8.333333333333334 -10.0 -19.0
141 4.2862637970157356e-16 -12.0 -5.0
142 4.286263797015736e-16 -16.0 -9.0
143 -17.0 -12.000000000000002 -4.999999999999999
144 -5.666666666666666 -12.0 -5.0
145 -11.333333333333334 -12.0 -4.999999999999999
146 -21.0 -16.0 -8.999999999999998
147 -6.999999999999999 -16.0 -9.0
148 -13.999999999999998 -16.0 -9.0
149 -17.0 11.999999999999998 -4.999999999999999
150 -17.0 -6.000000000000001 -4.999999999999999
151 -17.0 -1.0409497792752501e-15 -4.999999999999999
152 -17.0 5.999999999999999 -4.999999999999999
153 -21.0 15.999999999999998 -8.999999999999998
154 -21.0 7.999999999999999 -8.999999999999998
155 -21.0 -1.2858791391047208e-15 -8.999999999999998
156 -21.0 -8.000000000000002 -8.999999999999998
157 -1.0409497792752501e-15 12.0 -5.0
158 -1.5308084989341915e-15 16.0 -9.0
159 -11.333333333333332 12.0 -4.999999999999999
160 -5.666666666666667 12.0 -5.0
161 -7.0000000000000036 16.0 -9.0
162 -14.000000000000002 16.0 -9.0
163 -6.735557395310443e-16 6.0 -5.0
164 -3.061616997868383e-16 -1.8746997283273223e-32 -5.0
165 6.123233995736762e-17 -6.0 -5.0
166 -6.123233995736767e-17 -8.0 -9.0
167 -5.51091059616309e-16 -3.3744595109891796e-32 -9.0
168 -1.0409497792752503e-15 8.0 -9.0
169 -11.333333333333334 -6.000000000000001 -4.999999999999999
170 -5.666666666666667 -6.0 -5.0
171 -11.333333333333332 -6.939665195168334e-16 -4.999999999999999
172 -5.666666666666667 -3.4698325975841675e-16 -5.0
173 -11.333333333333332 5.999999999999999 -4.999999999999999
174 -5.666666666666666 6.0 -5.0
175 -14.0 -8.000000000000028 -9.000000000000007
176 -14.0 -8.572527594031472e-16 -9.0
177 -14.0 7.999999999999999 -9.0
178 -6.999999999999999 -8.0 -9.0
179 -7.000000000000001 -4.2862637970157366e-16 -8.999999999999993
180 -7.0000000000000036 8.0 -8.999999999999993
181 -24.999999999999996 20.0 48.896127056192725
182 -24.999999999999996 -20.0 76.90442858458096
183 1.7693774753560826e-15 20.0 48.896127056192725
184 5.933684914465517e-15 -20.0 76.90442858458096
185 3.0616169978683826e-16 20.0 25.0
186 2.7554552980815448e-15 -20.0 25.0
187 -25.0 20.0 25.0
188 -25.0 -20.0 25.0
189 -24.999999999999996 -1.5308084989341913e-15 62.90027782038683
190 3.8515311949108e-15 2.3583826748318457e-31 62.90027782038683
191 1.5308084989341915e-15 9.373498641636611e-32 25.0
192 -25.0 -1.5308084989341915e-15 25.0
193 -25.0 -20.0 13.000000000000002
194 2.0206672185931327e-15 -20.0 13.0
195 -4.286263797015737e-16 20.0 13.0
196 -25.0 20.0 13.000000000000002
197 1.0409497792752501e-15 -12.0 5.0
198 -17.0 -12.000000000000002 5.000000000000001
199 -17.0 11.999999999999998 5.000000000000001
200 -4.2862637970157356e-16 12.0 5.0
201 -16.666666666666664 -20.0 13.000000000000002
202 -8.33333333333333 -20.0 13.0
203 1.8369701987210292e-16 10.0 13.0
204 7.960204194457795e-16 4.874219293651037e-32 13.0
205 1.4083438190194562e-15 -10.0 13.0
206 -8.333333333333336 20.0 13.0
207 -16.666666666666668 20.0 13.000000000000002
208 -25.0 9.999999999999998 13.000000000000002
209 -25.0 -1.5308084989341915e-15 13.000000000000002
210 -25.0 -10.000000000000002 13.000000000000002
211 1.5308084989341915e-15 -16.0 9.0
212 -5.666666666666666 -12.0 5.0
213 -11.333333333333334 -12.0 5.000000000000001
214 -21.0 -16.0 9.000000000000002
215 -17.0 -6.000000000000001 5.000000000000001
216 -17.0 -1.0409497792752501e-15 5.000000000000001
217 -17.0 5.999999999999999 5.000000000000001
218 -21.0 15.999999999999998 9.000000000000002
219 -4.286263797015736e-16 16.0 9.0
220 -11.333333333333332 12.0 5.000000000000001
221 -5.666666666666667 12.0 5.0
222 -6.123233995736762e-17 6.0 5.0
223 3.061616997868383e-16 1.8746997283273223e-32 5.0
224 6.735557395310443e-16 -6.0 5.0
225 -16.666666666666664 -10.000000000000002 13.000000000000002
226 -8.333333333333332 -10.0 13.0
227 -16.666666666666664 2.7401170431114548e-14 13.000000000000002
228 -8.333333333333332 -5.102694996447305e-16 13.0
229 -16.666666666666668 9.999999999999998 13.000000000000002
230 -8.333333333333334 9.999999999999986 13.0
231 -6.999999999999997 -16.0 9.0
232 -13.999999999999998 -16.0 9.0
233 -21.0 7.999999999999999 9.000000000000002
234 -21.0 -1.2858791391047208e-15 9.000000000000002
235 -21.0 -8.000000000000002 9.000000000000002
236 -7.000000000000002 16.0 9.0
237 -14.000000000000002 16.0 9.0
238 1.0409497792752503e-15 -8.0 9.0
239 5.51091059616309e-16 3.3744595109891796e-32 9.0
240 6.123233995736767e-17 8.0 9.0
241 -11.333333333333334 -6.000000000000001 5.000000000000001
242 -5.666666666666667 -6.0 5.0
243 -11.333333333333332 -6.939665195168334e-16 5.000000000000001
244 -5.666666666666667 -3.4698325975841675e-16 5.0
245 -11.333333333333332 5.999999999999999 5.000000000000001
246 -5.666666666666666 6.0 5.0
247 -14.0 -8.000000000000028 9.000000000000007
248 -14.0 -8.572527594031472e-16 9.0
249 -14.0 7.999999999999999 9.0
250 -6.999999999999997 -8.0 9.0
251 -6.999999999999999 -4.2862637970157356e-16 8.999999999999993
252 -7.000000000000002 8.0 8.999999999999993
257 9.184850993605148e-16 10.0 25.0
258 1.5308084989341915e-15 9.373498641636611e-32 25.0
259 2.1431318985078682e-15 -10.0 25.0
260 -8.33333333333333 -20.0 25.0
261 -16.666666666666668 -20.0 25.0
262 -25.0 -10.000000000000002 25.0
263 -25.0 -1.5308084989341915e-15 25.0
264 -25.0 9.999999999999998 25.0
265 -16.666666666666664 20.0 25.0
266 -8.333333333333332 20.0 25.0
267 2.3880612583373385e-15 -20.0 19.0
268 -25.0 -20.0 19.0
269 -6.123233995736777e-17 20.0 19.0
270 -25.0 20.0 19.0
271 -8.33333333333333 10.0 25.0
272 -8.33333333333333 2.7911439930759278e-14 25.0
273 -8.333333333333332 -10.0 25.0
274 -16.666666666666664 9.999999999999998 25.0
275 -16.666666666666668 -1.0205389992894611e-15 25.0
276 -16.666666666666668 -10.000000000000002 25.0
277 -16.666666666666664 -20.0 19.0
278 -8.333333333333329 -20.0 19.0
279 1.775737858763662e-15 -10.0 19.0
280 1.1634144591899855e-15 7.123858967643823e-32 19.0
281 5.510910596163089e-16 10.0 19.0
282 -25.0 9.999999999999998 19.0
283 -25.0 -1.5308084989341915e-15 19.0
284 -25.0 -10.000000000000002 19.0
285 -8.333333333333334 20.0 19.0
286 -16.666666666666668 20.0 19.0
287 -16.666666666666668 10.000000000000012 19.0
288 -16.666666666666668 -1.0205389992894611e-15 19.0
289 -16.666666666666664 -10.00000000000003 19.0
290 -8.333333333333334 10.000000000000014 19.0
291 -8.33333333333333 -5.102694996447303e-16 19.0
292 -8.33333333333333 -10.0 19.0
293 -25.000000000000004 100.0 48.896127056192725
294 -25.000000000000004 162.5 92.6590981942997
295 -4.276521842295774e-15 162.5 92.6590981942997
296 -3.1292097212333303e-15 100.0 48.896127056192725
301 -25.000000000000004 131.25 70.7776126252462
302 -3.702865781764552e-15 131.25 70.7776126252462
303 -25.000000000000004 100.0 32.59741803746181
304 -25.000000000000007 100.0 16.298709018730904
306 -25.000000000000007 162.5 30.886366064766563
307 -25.000000000000007 162.5 61.772732129533125
308 -5.125225904235621e-15 100.0 16.298709018730904
309 -4.127217812734476e-15 100.0 32.59741803746181
310 -6.1677663092212644e-15 162.5 61.772732129533125
311 -8.059010776146754e-15 162.5 30.886366064766563
313 -25.000000000000004 131.25 47.185075083497466
314 -25.000000000000007 131.25 23.592537541748726
315 -5.1474920609778696e-15 131.25 47.185075083497466
316 -6.592118340191187e-15 131.25 23.59253754174874
317 -2.7554552980815424e-15 146.09669426150134 101.09669426150137
318 -25.000000000000004 146.09669426150134 101.09669426150137
319 -2.7554552980815448e-15 150.0 105.0
320 -3.520859547548641e-15 162.5 105.0
321 -25.000000000000004 150.0 105.0
322 -25.000000000000004 162.5 105.0
323 -1.463851178079803e-15 128.9065039666783 105.0
324 -25.0 128.9065039666783 105.0
325 -25.000000000000004 100.0 55.0
326 -2.7554552980815448e-15 100.0 55.0
327 -25.000000000000004 123.04834713075067 78.0483471307507
328 -2.7554552980815424e-15 123.04834713075067 78.0483471307507
329 -25.000000000000004 93.89612705619271 55.0
330 -2.381700874929758e-15 93.89612705619271 55.0
331 -25.000000000000004 111.40131551143551 80.0
332 -1.9227760265047813e-15 111.40131551143551 80.0
333 1.7693774753560826e-15 26.103872943807275 55.0
334 -24.999999999999996 26.103872943807275 55.0
335 -24.999999999999993 -8.906503966678288 105.0
336 6.9747617742428926e-15 -8.906503966678287 105.0
337 -24.999999999999996 8.598684488564485 80.0
338 4.372069624799488e-15 8.598684488564487 80.0
339 -9.980080915011449e-16 71.2987090187309 55.0
340 3.8568469192746914e-16 48.70129098126908 55.0
341 -25.0 48.701290981269096 55.0
342 -25.0 71.2987090187309 55.0
343 4.161890790135326e-15 37.03116534444058 105.0
344 1.3490198060277611e-15 82.96883465555943 105.0
345 -24.999999999999996 82.96883465555943 105.0
346 -24.999999999999996 37.03116534444058 105.0
347 2.2737877410313996e-15 42.86622816285481 80.0
348 1.755058572633093e-16 77.13377183714516 80.0
349 -25.0 42.86622816285484 80.0
350 -25.0 77.13377183714518 80.0
351 6.6096911310551205e-15 -16.472223955976915 91.47222395597689
352 -24.999999999999993 -16.472223955976915 91.47222395597689
353 7.0417190950972805e-15 -20.0 95.0
354 7.654042494670958e-15 -20.0 105.0
355 -24.999999999999993 -20.0 95.0
356 -24.999999999999993 -20.0 105.0
357 -24.999999999999996 20.0 55.0
358 2.1431318985078682e-15 20.0 55.0
359 -24.999999999999996 1.763888022011541 73.23611197798844
360 4.376411514781495e-15 1.7638880220115425 73.23611197798844
361 24.999999999999996 20.0 -48.896127056192725
362 24.999999999999996 -20.0 -76.90442858458096
367 25.0 20.0 -25.0
368 25.0 -20.0 -25.0
369 24.999999999999996 1.5308084989341913e-15 -62.90027782038683
372 25.0 1.5308084989341915e-15 -25.0
373 25.0 -20.0 -13.000000000000002
376 25.0 20.0 -13.000000000000002
378 17.0 -11.999999999999998 -5.000000000000001
379 17.0 12.000000000000002 -5.000000000000001
381 16.666666666666664 -20.0 -13.000000000000002
382 8.333333333333334 -20.0 -13.0
386 8.333333333333334 20.0 -13.0
387 16.666666666666668 20.0 -13.000000000000002
388 25.0 10.000000000000002 -13.000000000000002
389 25.0 1.5308084989341915e-15 -13.000000000000002
390 25.0 -9.999999999999998 -13.000000000000002
392 5.666666666666669 -12.0 -5.0
393 11.333333333333336 -12.0 -5.000000000000001
394 21.0 -15.999999999999998 -9.000000000000002
395 17.0 -5.999999999999999 -5.000000000000001
396 17.0 1.0409497792752501e-15 -5.000000000000001
397 17.0 6.000000000000001 -5.000000000000001
398 21.0 16.0 -9.000000000000002
400 11.333333333333332 12.0 -5.000000000000001
401 5.666666666666663 12.0 -5.0
405 16.666666666666664 -9.999999999999998 -13.000000000000002
406 8.333333333333332 -10.0 -13.0
407 16.666666666666664 2.944224842969347e-14 -13.000000000000002
408 8.333333333333332 5.102694996447305e-16 -13.0
409 16.666666666666668 10.000000000000002 -13.000000000000002
410 8.333333333333336 9.999999999999986 -13.0
411 7.0 -16.0 -9.0
412 14.000000000000002 -16.0 -9.0
413 21.0 8.000000000000002 -9.000000000000002
414 21.0 1.2858791391047208e-15 -9.000000000000002
415 21.0 -7.999999999999999 -9.000000000000002
416 6.999999999999998 16.0 -9.0
417 13.999999999999998 16.0 -9.0
421 11.333333333333336 -5.999999999999999 -5.000000000000001
422 5.666666666666668 -6.0 -5.0
423 11.333333333333332 6.939665195168334e-16 -5.000000000000001
424 5.666666666666668 3.469832597584168e-16 -5.0
425 11.333333333333332 6.000000000000001 -5.000000000000001
426 5.666666666666664 6.0 -5.0
427 14.0 -8.000000000000028 -9.000000000000007
428 14.0 8.572527594031472e-16 -9.0
429 14.0 8.0 -9.0
430 7.0 -8.0 -9.0
431 6.999999999999999 4.2862637970157356e-16 -8.999999999999993
432 6.999999999999998 8.0 -8.999999999999993
440 8.333333333333336 -20.0 -25.0
441 16.666666666666668 -20.0 -25.0
442 25.0 -9.999999999999998 -25.0
443 25.0 1.5308084989341915e-15 -25.0
444 25.0 10.000000000000002 -25.0
445 16.666666666666664 20.0 -25.0
446 8.333333333333329 20.0 -25.0
448 25.0 -20.0 -19.0
450 25.0 20.0 -19.0
451 8.33333333333333 10.0 -25.0
452 8.33333333333333 2.893197893004874e-14 -25.0
453 8.333333333333334 -10.0 -25.0
454 16.666666666666664 10.000000000000002 -25.0
455 16.666666666666668 1.0205389992894611e-15 -25.0
456 16.666666666666668 -9.999999999999998 -25.0
457 16.666666666666664 -20.0 -19.0
458 8.333333333333332 -20.0 -19.0
462 25.0 10.000000000000002 -19.0
463 25.0 1.5308084989341915e-15 -19.0
464 25.0 -9.999999999999998 -19.0
465 8.333333333333332 20.0 -19.0
466 16.666666666666668 20.0 -19.0
467 16.666666666666668 10.000000000000016 -19.0
468 16.666666666666668 1.0205389992894611e-15 -19.0
469 16.666666666666664 -10.000000000000027 -19.0
470 8.333333333333334 10.000000000000014 -19.0
471 8.33333333333333 5.102694996447303e-16 -19.0
472 8.33333333333333 -10.0 -19.0
473 24.99999999999999 100.0 -48.89612705619272
474 24.999999999999982 162.5 -92.65909819429969
477 24.999999999999993 100.0 -1.5308084989341915e-15
478 24.99999999999999 162.5 -1.5308084989341915e-15
481 24.99999999999999 131.25 -70.7776126252462
483 24.99999999999999 100.0 -32.597418037461814
484 24.999999999999993 100.0 -16.298709018730904
485 24.999999999999993 131.25 -1.5308084989341915e-15
486 24.999999999999986 162.5 -30.886366064766563
487 24.999999999999986 162.5 -61.772732129533125
493 24.99999999999999 131.25 -47.185075083497466
494 24.999999999999993 131.25 -23.59253754174873
498 24.999999999999982 146.09669426150134 -101.09669426150137
501 24.999999999999982 150.0 -105.0
502 24.999999999999982 162.5 -105.0
504 24.999999999999986 128.9065039666783 -105.0
505 24.99999999999999 100.0 -55.0
507 24.99999999999999 123.04834713075067 -78.04834713075068
509 24.99999999999999 93.89612705619271 -55.0
511 24.99999999999999 111.40131551143551 -80.0
514 24.999999999999996 26.103872943807275 -55.0
515 24.999999999999993 -8.906503966678285 -105.0
517 24.999999999999996 8.598684488564489 -80.0
521 24.999999999999993 48.701290981269096 -55.0
522 24.999999999999993 71.2987090187309 -55.0
525 24.99999999999999 82.96883465555943 -105.0
526 24.99999999999999 37.03116534444058 -105.0
529 24.999999999999993 42.86622816285484 -80.0
530 24.999999999999993 77.13377183714518 -79.99999999999999
532 24.999999999999993 -16.472223955976915 -91.47222395597689
535 24.999999999999993 -20.0 -95.0
536 24.999999999999993 -20.0 -105.0
537 24.999999999999996 20.0 -55.0
539 24.999999999999996 1.763888022011544 -73.23611197798844
541 25.000000000000004 -20.0 76.90442858458096
544 25.000000000000004 20.0 48.896127056192725
547 25.0 20.0 25.0
548 25.0 -20.0 25.0
550 25.000000000000004 1.5308084989341917e-15 62.90027782038683
552 25.0 1.5308084989341915e-15 25.0
553 25.0 -20.0 12.999999999999998
555 25.0 20.0 12.999999999999998
558 17.0 -11.999999999999998 4.999999999999999
559 17.0 12.000000000000002 4.999999999999999
561 16.666666666666664 -20.0 12.999999999999998
562 8.333333333333334 -20.0 13.0
563 25.0 10.000000000000002 12.999999999999998
564 25.0 1.5308084989341915e-15 12.999999999999998
565 25.0 -9.999999999999998 12.999999999999998
566 8.333333333333334 20.0 13.0
567 16.666666666666668 20.0 12.999999999999998
572 21.0 -15.999999999999998 8.999999999999998
573 5.666666666666669 -12.0 5.0
574 11.333333333333336 -12.0 4.999999999999999
575 21.0 16.0 8.999999999999998
576 17.0 -5.999999999999999 4.999999999999999
577 17.0 1.0409497792752501e-15 4.999999999999999
578 17.0 6.000000000000001 4.999999999999999
580 11.333333333333332 12.0 4.999999999999999
581 5.666666666666663 12.0 5.0
585 16.666666666666664 -9.999999999999998 12.999999999999998
586 8.333333333333332 -10.0 13.0
587 16.666666666666664 2.944224842969347e-14 12.999999999999998
588 8.333333333333332 5.102694996447305e-16 13.0
589 16.666666666666668 10.000000000000002 12.999999999999998
590 8.333333333333336 9.999999999999986 13.0
591 7.000000000000002 -16.0 9.0
592 14.000000000000002 -16.0 9.0
593 21.0 8.000000000000002 8.999999999999998
594 21.0 1.2858791391047208e-15 8.999999999999998
595 21.0 -7.999999999999999 8.999999999999998
596 7.0 16.0 9.0
597 13.999999999999998 16.0 9.0
601 11.333333333333336 -5.999999999999999 4.999999999999999
602 5.666666666666668 -6.0 5.0
603 11.333333333333332 6.939665195168334e-16 4.999999999999999
604 5.666666666666668 3.469832597584168e-16 5.0
605 11.333333333333332 6.000000000000001 4.999999999999999
606 5.666666666666664 6.0 5.0
607 14.0 -8.000000000000028 9.000000000000007
608 14.0 8.572527594031472e-16 9.0
609 14.0 8.0 9.0
610 7.000000000000002 -8.0 9.0
611 7.000000000000001 4.2862637970157366e-16 8.999999999999993
612 7.0 8.0 8.999999999999993
620 16.666666666666664 20.0 25.0
621 8.333333333333332 20.0 25.0
622 25.0 -9.999999999999998 25.0
623 25.0 1.5308084989341915e-15 25.0
624 25.0 10.000000000000002 25.0
625 8.33333333333334 -20.0 25.0
626 16.666666666666668 -20.0 25.0
627 25.0 -20.0 19.0
630 25.0 20.0 19.0
631 8.333333333333334 10.0 25.0
632 8.333333333333334 2.893197893004874e-14 25.0
633 8.333333333333337 -10.0 25.0
634 16.666666666666664 10.000000000000002 25.0
635 16.666666666666668 1.0205389992894611e-15 25.0
636 16.666666666666668 -9.999999999999998 25.0
637 16.666666666666664 -20.0 19.0
638 8.333333333333336 -20.0 19.0
642 25.0 10.000000000000002 19.0
643 25.0 1.5308084989341915e-15 19.0
644 25.0 -9.999999999999998 19.0
645 8.333333333333336 20.0 19.0
646 16.666666666666668 20.0 19.0
647 16.666666666666668 10.000000000000016 19.0
648 16.666666666666668 1.0205389992894611e-15 19.0
649 16.666666666666664 -10.000000000000027 19.0
650 8.333333333333337 10.000000000000014 19.0
651 8.333333333333334 5.102694996447306e-16 19.0
652 8.333333333333334 -10.0 19.0
655 24.999999999999996 162.5 92.6590981942997
656 24.999999999999996 100.0 48.896127056192725
662 24.999999999999996 131.25 70.7776126252462
663 24.999999999999993 162.5 30.886366064766563
664 24.999999999999993 162.5 61.772732129533125
666 24.999999999999996 100.0 32.59741803746181
667 24.999999999999993 100.0 16.298709018730904
673 24.999999999999996 131.25 47.185075083497466
674 24.999999999999993 131.25 23.592537541748726
678 24.999999999999996 146.09669426150134 101.09669426150137
681 24.999999999999996 150.0 105.0
682 24.999999999999996 162.5 105.0
683 25.0 128.9065039666783 105.0
685 24.999999999999996 100.0 55.0
687 24.999999999999996 123.04834713075067 78.0483471307507
689 24.999999999999996 93.89612705619271 55.0
691 24.999999999999996 111.40131551143551 80.0
693 25.000000000000007 -8.906503966678285 105.0
695 25.000000000000004 26.103872943807275 55.0
697 25.000000000000004 8.598684488564489 80.0
699 25.0 48.701290981269096 55.0
700 25.0 71.2987090187309 55.0
705 25.000000000000004 82.96883465555943 105.0
706 25.000000000000004 37.03116534444058 105.0
709 25.0 42.86622816285484 80.0
710 25.0 77.13377183714518 80.0
712 25.000000000000007 -16.472223955976915 91.47222395597689
715 25.000000000000007 -20.0 95.0
716 25.000000000000007 -20.0 105.0
717 25.000000000000004 20.0 55.0
719 25.000000000000004 1.763888022011544 73.23611197798844
$EndNodes
$Elements
296
1 5 2 1 1 33 34 64 49 50 62 63 52
2 5 2 1 1 49 64 17 18 52 63 61 51
3 5 2 1 1 143 150 169 145 146 156 175 148
4 5 2 1 1 150 151 171 169 156 155 176 175
5 5 2 1 1 151 152 173 171 155 154 177 176
6 5 2 1 1 152 149 159 173 154 153 162 177
7 5 2 1 1 145 169 170 144 148 175 178 147
8 5 2 1 1 169 171 172 170 175 176 179 178
9 5 2 1 1 171 173 174 172 176 177 180 179
10 5 2 1 1 173 159 160 174 177 162 161 180
11 5 2 1 1 144 170 165 141 147 178 166 142
12 5 2 1 1 170 172 164 165 178 179 167 166
13 5 2 1 1 172 174 163 164 179 180 168 167
14 5 2 1 1 174 160 157 163 180 161 158 168
15 5 2 1 1 146 156 175 148 103 122 123 104
16 5 2 1 1 156 155 176 175 122 121 125 123
17 5 2 1 1 155 154 177 176 121 120 127 125
18 5 2 1 1 154 153 162 177 120 117 119 127
19 5 2 1 1 148 175 178 147 104 123 124 105
20 5 2 1 1 175 176 179 178 123 125 126 124
21 5 2 1 1 176 177 180 179 125 127 128 126
22 5 2 1 1 177 162 161 180 127 119 118 128
23 5 2 1 1 147 178 166 142 105 124 113 101
24 5 2 1 1 178 179 167 166 124 126 112 113
25 5 2 1 1 179 180 168 167 126 128 111 112
26 5 2 1 1 180 161 158 168 128 118 109 111
27 5 2 1 1 33 129 130 92 93 134 135 98
28 5 2 1 1 129 117 120 130 134 119 127 135
29 5 2 1 1 92 130 131 91 98 135 136 99
30 5 2 1 1 130 120 121 131 135 127 125 136
31 5 2 1 1 91 131 132 90 99 136 137 100
32 5 2 1 1 131 121 122 132 136 125 123 137
33 5 2 1 1 90 132 106 18 100 137 107 88
34 5 2 1 1 132 122 103 106 137 123 104 107
35 5 2 1 1 93 134 135 98 94 133 138 95
36 5 2 1 1 134 119 127 135 133 118 128 138
37 5 2 1 1 98 135 136 99 95 138 139 96
38 5 2 1 1 135 127 125 136 138 128 126 139
39 5 2 1 1 99 136 137 100 96 139 140 97
40 5 2 1 1 136 125 123 137 139 126 124 140
41 5 2 1 1 100 137 107 88 97 140 108 87
42 5 2 1 1 137 123 104 107 140 124 105 108
43 5 2 1 1 94 133 138 95 34 110 116 83
44 5 2 1 1 133 118 128 138 110 109 111 116
45 5 2 1 1 95 138 139 96 83 116 115 84
46 5 2 1 1 138 128 126 139 116 111 112 115
47 5 2 1 1 96 139 140 97 84 115 114 85
48 5 2 1 1 139 126 124 140 115 112 113 114
49 5 2 1 1 97 140 108 87 85 114 102 17
50 5 2 1 1 140 124 105 108 114 113 101 102
51 5 2 1 1 28 43 47 37 1 11 40 3
52 5 2 1 1 43 42 48 47 11 12 41 40
53 5 2 1 1 42 27 46 48 12 10 39 41
54 5 2 1 1 37 47 44 25 3 40 15 2
55 5 2 1 1 47 48 45 44 40 41 14 15
56 5 2 1 1 48 46 26 45 41 39 13 14
57 5 2 1 1 35 22 16 5 25 24 23 2
58 5 2 1 1 28 29 4 1 37 36 6 3
59 5 2 1 1 37 36 6 3 25 35 5 2
60 5 2 1 1 29 30 7 4 36 38 9 6
61 5 2 1 1 36 38 9 6 35 21 8 5
62 5 2 1 1 30 7 9 38 69 72 80 76
63 5 2 1 1 38 9 8 21 76 80 77 74
64 5 2 1 1 69 72 80 76 70 71 79 75
65 5 2 1 1 76 80 77 74 75 79 78 73
66 5 2 1 1 70 71 79 75 67 55 57 68
67 5 2 1 1 75 79 78 73 68 57 56 66
68 5 2 1 1 20 19 58 59 66 56 53 60
69 5 2 1 1 56 57 54 53 66 68 65 60
70 5 2 1 1 57 55 31 54 68 67 32 65
71 5 2 1 1 53 54 52 51 60 65 63 61
72 5 2 1 1 54 31 50 52 65 32 62 63
73 5 2 1 1 187 192 191 185 181 189 190 183
74 5 2 1 1 192 188 186 191 189 182 184 190
75 5 2 1 1 198 213 241 215 214 232 247 235
76 5 2 1 1 215 241 243 216 235 247 248 234
77 5 2 1 1 216 243 245 217 234 248 249 233
78 5 2 1 1 217 245 220 199 233 249 237 218
79 5 2 1 1 213 212 242 241 232 231 250 247
80 5 2 1 1 241 242 244 243 247 250 251 248
81 5 2 1 1 243 244 246 245 248 251 252 249
82 5 2 1 1 245 246 221 220 249 252 236 237
83 5 2 1 1 212 197 224 242 231 211 238 250
84 5 2 1 1 242 224 223 244 250 238 239 251
85 5 2 1 1 244 223 222 246 251 239 240 252
86 5 2 1 1 246 222 200 221 252 240 219 236
87 5 2 1 1 214 232 247 235 193 201 225 210
88 5 2 1 1 235 247 248 234 210 225 227 209
89 5 2 1 1 234 248 249 233 209 227 229 208
90 5 2 1 1 233 249 237 218 208 229 207 196
91 5 2 1 1 232 231 250 247 201 202 226 225
92 5 2 1 1 247 250 251 248 225 226 228 227
93 5 2 1 1 248 251 252 249 227 228 230 229
94 5 2 1 1 249 252 236 237 229 230 206 207
95 5 2 1 1 231 211 238 250 202 194 205 226
96 5 2 1 1 250 238 239 251 226 205 204 228
97 5 2 1 1 251 239 240 252 228 204 203 230
98 5 2 1 1 252 240 219 236 230 203 195 206
99 5 2 1 1 187 264 282 270 265 274 287 286
100 5 2 1 1 270 282 208 196 286 287 229 207
101 5 2 1 1 264 263 283 282 274 275 288 287
102 5 2 1 1 282 283 209 208 287 288 227 229
103 5 2 1 1 263 262 284 283 275 276 289 288
104 5 2 1 1 283 284 210 209 288 289 225 227
105 5 2 1 1 262 188 268 284 276 261 277 289
106 5 2 1 1 284 268 193 210 289 277 201 225
107 5 2 1 1 265 274 287 286 266 271 290 285
108 5 2 1 1 286 287 229 207 285 290 230 206
109 5 2 1 1 274 275 288 287 271 272 291 290
110 5 2 1 1 287 288 227 229 290 291 228 230
111 5 2 1 1 275 276 289 288 272 273 292 291
112 5 2 1 1 288 289 225 227 291 292 226 228
113 5 2 1 1 276 261 277 289 273 260 278 292
114 5 2 1 1 289 277 201 225 292 278 202 226
115 5 2 1 1 266 271 290 285 185 257 281 269
116 5 2 1 1 285 290 230 206 269 281 203 195
117 5 2 1 1 271 272 291 290 257 258 280 281
118 5 2 1 1 290 291 228 230 281 280 204 203
119 5 2 1 1 272 273 292 291 258 259 279 280
120 5 2 1 1 291 292 226 228 280 279 205 204
121 5 2 1 1 273 260 278 292 259 186 267 279
122 5 2 1 1 292 278 202 226 279 267 194 205
123 5 2 1 1 296 302 315 309 293 301 313 303
124 5 2 1 1 309 315 316 308 303 313 314 304
125 5 2 1 1 308 316 46 27 304 314 39 10
126 5 2 1 1 302 295 310 315 301 294 307 313
127 5 2 1 1 315 310 311 316 313 307 306 314
128 5 2 1 1 316 311 26 46 314 306 13 39
129 5 2 1 1 317 318 321 319 295 294 322 320
130 5 2 1 1 296 293 325 326 302 301 327 328
131 5 2 1 1 302 301 327 328 295 294 318 317
132 5 2 1 1 326 325 329 330 328 327 331 332
133 5 2 1 1 328 327 331 332 317 318 324 323
134 5 2 1 1 330 332 331 329 339 348 350 342
135 5 2 1 1 332 323 324 331 348 344 345 350
136 5 2 1 1 339 348 350 342 340 347 349 341
137 5 2 1 1 348 344 345 350 347 343 346 349
138 5 2 1 1 340 347 349 341 333 338 337 334
139 5 2 1 1 347 343 346 349 338 336 335 337
140 5 2 1 1 354 353 355 356 336 351 352 335
141 5 2 1 1 335 352 359 337 336 351 360 338
142 5 2 1 1 337 359 357 334 338 360 358 333
143 5 2 1 1 352 182 189 359 351 184 190 360
144 5 2 1 1 359 189 181 357 360 190 183 358
145 5 2 1 1 367 372 64 34 361 369 63 62
146 5 2 1 1 372 368 17 64 369 362 61 63
147 5 2 1 1 378 393 421 395 394 412 427 415
148 5 2 1 1 395 421 423 396 415 427 428 414
149 5 2 1 1 396 423 425 397 414 428 429 413
150 5 2 1 1 397 425 400 379 413 429 417 398
151 5 2 1 1 393 392 422 421 412 411 430 427
152 5 2 1 1 421 422 424 423 427 430 431 428
153 5 2 1 1 423 424 426 425 428 431 432 429
154 5 2 1 1 425 426 401 400 429 432 416 417
155 5 2 1 1 392 141 165 422 411 142 166 430
156 5 2 1 1 422 165 164 424 430 166 167 431
157 5 2 1 1 424 164 163 426 431 167 168 432
158 5 2 1 1 426 163 157 401 432 168 158 416
159 5 2 1 1 394 412 427 415 373 381 405 390
160 5 2 1 1 415 427 428 414 390 405 407 389
161 5 2 1 1 414 428 429 413 389 407 409 388
162 5 2 1 1 413 429 417 398 388 409 387 376
163 5 2 1 1 412 411 430 427 381 382 406 405
164 5 2 1 1 427 430 431 428 405 406 408 407
165 5 2 1 1 428 431 432 429 407 408 410 409
166 5 2 1 1 429 432 416 417 409 410 386 387
167 5 2 1 1 411 142 166 430 382 101 113 406
168 5 2 1 1 430 166 167 431 406 113 112 408
169 5 2 1 1 431 167 168 432 408 112 111 410
170 5 2 1 1 432 168 158 416 410 111 109 386
171 5 2 1 1 367 444 462 450 445 454 467 466
172 5 2 1 1 450 462 388 376 466 467 409 387
173 5 2 1 1 444 443 463 462 454 455 468 467
174 5 2 1 1 462 463 389 388 467 468 407 409
175 5 2 1 1 443 442 464 463 455 456 469 468
176 5 2 1 1 463 464 390 389 468 469 405 407
177 5 2 1 1 442 368 448 464 456 441 457 469
178 5 2 1 1 464 448 373 390 469 457 381 405
179 5 2 1 1 445 454 467 466 446 451 470 465
180 5 2 1 1 466 467 409 387 465 470 410 386
181 5 2 1 1 454 455 468 467 451 452 471 470
182 5 2 1 1 467 468 407 409 470 471 408 410
183 5 2 1 1 455 456 469 468 452 453 472 471
184 5 2 1 1 468 469 405 407 471 472 406 408
185 5 2 1 1 456 441 457 469 453 440 458 472
186 5 2 1 1 469 457 381 405 472 458 382 406
187 5 2 1 1 446 451 470 465 34 83 116 110
188 5 2 1 1 465 470 410 386 110 116 111 109
189 5 2 1 1 451 452 471 470 83 84 115 116
190 5 2 1 1 470 471 408 410 116 115 112 111
191 5 2 1 1 452 453 472 471 84 85 114 115
192 5 2 1 1 471 472 406 408 115 114 113 112
193 5 2 1 1 453 440 458 472 85 17 102 114
194 5 2 1 1 472 458 382 406 114 102 101 113
195 5 2 1 1 28 37 47 43 473 481 493 483
196 5 2 1 1 43 47 48 42 483 493 494 484
197 5 2 1 1 42 48 46 27 484 494 485 477
198 5 2 1 1 37 25 44 47 481 474 487 493
199 5 2 1 1 47 44 45 48 493 487 486 494
200 5 2 1 1 48 45 26 46 494 486 478 485
201 5 2 1 1 35 498 501 22 25 474 502 24
202 5 2 1 1 28 473 505 29 37 481 507 36
203 5 2 1 1 37 481 507 36 25 474 498 35
204 5 2 1 1 29 505 509 30 36 507 511 38
205 5 2 1 1 36 507 511 38 35 498 504 21
206 5 2 1 1 30 38 511 509 69 76 530 522
207 5 2 1 1 38 21 504 511 76 74 525 530
208 5 2 1 1 69 76 530 522 70 75 529 521
209 5 2 1 1 76 74 525 530 75 73 526 529
210 5 2 1 1 70 75 529 521 67 68 517 514
211 5 2 1 1 75 73 526 529 68 66 515 517
212 5 2 1 1 20 59 535 536 66 60 532 515
213 5 2 1 1 515 532 539 517 66 60 65 68
214 5 2 1 1 517 539 537 514 68 65 32 67
215 5 2 1 1 532 362 369 539 60 61 63 65
216 5 2 1 1 539 369 361 537 65 63 62 32
217 5 2 1 1 547 185 191 552 544 183 190 550
218 5 2 1 1 552 191 186 548 550 190 184 541
219 5 2 1 1 558 576 601 574 572 595 607 592
220 5 2 1 1 576 577 603 601 595 594 608 607
221 5 2 1 1 577 578 605 603 594 593 609 608
222 5 2 1 1 578 559 580 605 593 575 597 609
223 5 2 1 1 574 601 602 573 592 607 610 591
224 5 2 1 1 601 603 604 602 607 608 611 610
225 5 2 1 1 603 605 606 604 608 609 612 611
226 5 2 1 1 605 580 581 606 609 597 596 612
227 5 2 1 1 573 602 224 197 591 610 238 211
228 5 2 1 1 602 604 223 224 610 611 239 238
229 5 2 1 1 604 606 222 223 611 612 240 239
230 5 2 1 1 606 581 200 222 612 596 219 240
231 5 2 1 1 572 595 607 592 553 565 585 561
232 5 2 1 1 595 594 608 607 565 564 587 585
233 5 2 1 1 594 593 609 608 564 563 589 587
234 5 2 1 1 593 575 597 609 563 555 567 589
235 5 2 1 1 592 607 610 591 561 585 586 562
236 5 2 1 1 607 608 611 610 585 587 588 586
237 5 2 1 1 608 609 612 611 587 589 590 588
238 5 2 1 1 609 597 596 612 589 567 566 590
239 5 2 1 1 591 610 238 211 562 586 205 194
240 5 2 1 1 610 611 239 238 586 588 204 205
241 5 2 1 1 611 612 240 239 588 590 203 204
242 5 2 1 1 612 596 219 240 590 566 195 203
243 5 2 1 1 547 630 642 624 620 646 647 634
244 5 2 1 1 630 555 563 642 646 567 589 647
245 5 2 1 1 624 642 643 623 634 647 648 635
246 5 2 1 1 642 563 564 643 647 589 587 648
247 5 2 1 1 623 643 644 622 635 648 649 636
248 5 2 1 1 643 564 565 644 648 587 585 649
249 5 2 1 1 622 644 627 548 636 649 637 626
250 5 2 1 1 644 565 553 627 649 585 561 637
251 5 2 1 1 620 646 647 634 621 645 650 631
252 5 2 1 1 646 567 589 647 645 566 590 650
253 5 2 1 1 634 647 648 635 631 650 651 632
254 5 2 1 1 647 589 587 648 650 590 588 651
255 5 2 1 1 635 648 649 636 632 651 652 633
256 5 2 1 1 648 587 585 649 651 588 586 652
257 5 2 1 1 636 649 637 626 633 652 638 625
258 5 2 1 1 649 585 561 637 652 586 562 638
259 5 2 1 1 621 645 650 631 185 269 281 257
260 5 2 1 1 645 566 590 650 269 195 203 281
261 5 2 1 1 631 650 651 632 257 281 280 258
262 5 2 1 1 650 590 588 651 281 203 204 280
263 5 2 1 1 632 651 652 633 258 280 279 259
264 5 2 1 1 651 588 586 652 280 204 205 279
265 5 2 1 1 633 652 638 625 259 279 267 186
266 5 2 1 1 652 586 562 638 279 205 194 267
267 5 2 1 1 296 309 315 302 656 666 673 662
268 5 2 1 1 309 308 316 315 666 667 674 673
269 5 2 1 1 308 27 46 316 667 477 485 674
270 5 2 1 1 302 315 310 295 662 673 664 655
271 5 2 1 1 315 316 311 310 673 674 663 664
272 5 2 1 1 316 46 26 311 674 485 478 663
273 5 2 1 1 317 319 681 678 295 320 682 655
274 5 2 1 1 296 326 685 656 302 328 687 662
275 5 2 1 1 302 328 687 662 295 317 678 655
276 5 2 1 1 326 330 689 685 328 332 691 687
277 5 2 1 1 328 332 691 687 317 323 683 678
278 5 2 1 1 330 689 691 332 339 700 710 348
279 5 2 1 1 332 691 683 323 348 710 705 344
280 5 2 1 1 339 700 710 348 340 699 709 347
281 5 2 1 1 348 710 705 344 347 709 706 343
282 5 2 1 1 340 699 709 347 333 695 697 338
283 5 2 1 1 347 709 706 343 338 697 693 336
284 5 2 1 1 354 716 715 353 336 693 712 351
285 5 2 1 1 693 697 719 712 336 338 360 351
286 5 2 1 1 697 695 717 719 338 333 358 360
287 5 2 1 1 712 719 550 541 351 360 190 184
288 5 2 1 1 719 717 544 550 360 358 183 190
289 6 2 2 2 5 8 16 35 21 22
290 6 2 2 2 58 53 51 59 60 61
291 6 2 2 2 318 321 324 317 319 323
292 6 2 2 2 355 182 352 353 184 351
293 6 2 2 2 498 501 504 35 22 21
294 6 2 2 2 535 362 532 59 61 60
295 6 2 2 2 678 683 681 317 323 319
296 6 2 2 2 715 712 541 353 351 184
$EndElements
