<?xml version="1.0"?>
<VTKFile type="UnstructuredGrid" version="1.0" byte_order="LittleEndian">
  <UnstructuredGrid>
    <Piece NumberOfPoints="171" NumberOfCells="521">
      <Points>
        <DataArray type="Float64" NumberOfComponents="3" format="ascii">
          0.5 -0.5 1.0
          0.5 0.5 1.0
          0.5 -0.16666666666666669 1.0
          0.5 0.16666666666666663 1.0
          -0.5 0.5 1.0
          0.16666666666666669 0.5 1.0
          -0.16666666666666663 0.5 1.0
          -0.5 -0.5 1.0
          -0.5 0.16666666666666669 1.0
          -0.5 -0.16666666666666663 1.0
          -0.16666666666666669 -0.5 1.0
          0.16666666666666663 -0.5 1.0
          0.16666666666666666 -0.16666666666666666 1.0
          0.16666666666666666 0.16666666666666669 1.0
          -0.1666666666666666 -0.16666666666666669 1.0
          -0.1666666666666667 0.1666666666666666 1.0
          0.5 0.5 0.0
          0.5 -0.5 0.0
          0.5 0.16666666666666669 0.0
          0.5 -0.16666666666666663 0.0
          -0.5 -0.5 0.0
          0.16666666666666669 -0.5 0.0
          -0.16666666666666663 -0.5 0.0
          -0.5 0.5 0.0
          -0.5 -0.16666666666666669 0.0
          -0.5 0.16666666666666663 0.0
          -0.16666666666666669 0.5 0.0
          0.16666666666666663 0.5 0.0
          0.16666666666666666 0.16666666666666666 0.0
          0.16666666666666666 -0.16666666666666669 0.0
          -0.1666666666666666 0.16666666666666669 0.0
          -0.1666666666666667 -0.1666666666666666 0.0
          -0.5 -0.5 0.6666666666666667
          -0.5 -0.5 0.33333333333333337
          0.5 -0.5 0.6666666666666667
          0.5 -0.5 0.33333333333333337
          -0.16666666666666663 -0.5 0.6666666666666667
          -0.16666666666666663 -0.5 0.33333333333333337
          0.16666666666666666 -0.5 0.6666666666666667
          0.1666666666666666 -0.5 0.33333333333333326
          -0.5 0.5 0.6666666666666667
          -0.5 0.5 0.33333333333333337
          -0.5 0.16666666666666663 0.6666666666666667
          -0.5 0.16666666666666663 0.33333333333333337
          -0.5 -0.16666666666666666 0.6666666666666667
          -0.5 -0.1666666666666666 0.33333333333333326
          0.5 0.5 0.6666666666666667
          0.5 0.5 0.33333333333333337
          0.16666666666666663 0.5 0.6666666666666667
          0.16666666666666663 0.5 0.33333333333333337
          -0.16666666666666666 0.5 0.6666666666666667
          -0.1666666666666666 0.5 0.33333333333333326
          0.5 -0.16666666666666663 0.6666666666666667
          0.5 -0.16666666666666663 0.33333333333333337
          0.5 0.16666666666666666 0.6666666666666667
          0.5 0.1666666666666666 0.33333333333333326
          -0.1666666666666666 -0.1666666666666666 0.6666666666666669
          -0.16666666666666669 -0.16666666666666657 0.33333333333333326
          -0.16666666666666666 0.1666666666666666 0.6666666666666667
          -0.16666666666666663 0.16666666666666663 0.33333333333333326
          0.16666666666666666 -0.16666666666666666 0.6666666666666667
          0.16666666666666663 -0.16666666666666657 0.33333333333333326
          0.16666666666666666 0.16666666666666669 0.6666666666666667
          0.16666666666666666 0.16666666666666663 0.33333333333333326
          0.5 -0.5 2.0
          0.5 0.5 2.0
          -0.5 0.5 2.0
          -0.5 -0.5 2.0
          0.5 0.5 1.0
          0.5 -0.5 1.0
          -0.5 -0.5 1.0
          -0.5 0.5 1.0
          0.5 -0.16666666666666674 2.0
          0.5 0.16666666666666674 2.0
          0.16666666666666674 0.5 2.0
          -0.16666666666666674 0.5 2.0
          -0.5 0.16666666666666674 2.0
          -0.5 -0.16666666666666674 2.0
          -0.16666666666666674 -0.5 2.0
          0.16666666666666674 -0.5 2.0
          0.28832761240402904 0.2607432175791189 2.0
          -0.015432435405746459 0.261236174405578 2.0
          0.2627930448726612 -0.026391572988821776 2.0
          0.27414976471163444 -0.30324282891606935 2.0
          -0.3000520708959702 0.2721318490447133 2.0
          -0.23789601879729483 -0.0067754727329023545 2.0
          -0.27359922207544973 -0.29827343693376873 2.0
          0.00033959525304361193 -0.23987884251163993 2.0
          0.0458251118888664 0.04499901913393023 2.0
          0.5 0.16666666666666674 1.0
          0.5 -0.16666666666666674 1.0
          0.16666666666666674 -0.5 1.0
          -0.16666666666666674 -0.5 1.0
          -0.5 -0.16666666666666674 1.0
          -0.5 0.16666666666666674 1.0
          -0.16666666666666674 0.5 1.0
          0.16666666666666674 0.5 1.0
          0.2619078129531105 0.012942296004990972 1.0
          0.2624234654037776 -0.2883304060060715 1.0
          0.2738230472388332 0.2999943229907567 1.0
          -0.015879877850554003 -0.2600113095241531 1.0
          -0.2781103950673445 -0.29692362204464573 1.0
          -0.24108936134319858 0.0007702992839742073 1.0
          -0.27318857220087334 0.29661648746444347 1.0
          0.000622666128022864 0.2367280781530512 1.0
          0.04291573451231101 -0.04405876115186147 1.0
          -0.5 -0.5 1.6666666666666667
          -0.5 -0.5 1.3333333333333333
          0.5 -0.5 1.3333333333333333
          0.5 -0.5 1.6666666666666667
          0.0035455768782661767 -0.5 1.2375118765275748
          -0.29058394089247375 -0.5 1.2393951721600005
          -0.262065842047685 -0.5 1.5267380735855924
          -0.27247857548242616 -0.5 1.802810891652803
          0.2753072189476413 -0.5 1.2019441784892244
          0.23741110234334917 -0.5 1.4925182704543627
          0.29729938549820223 -0.5 1.7713792989326282
          0.006226224768513422 -0.5 1.7382499229766935
          -0.045802471805326705 -0.5 1.4556297327824943
          -0.5 0.5 1.6666666666666667
          -0.5 0.5 1.3333333333333333
          -0.5 -0.0035455768782663988 1.2375118765275752
          -0.5 0.2905839408924735 1.239395172160001
          -0.5 0.2620658420476847 1.5267380735855927
          -0.5 0.27247857548242593 1.8028108916528027
          -0.5 -0.2753072189476412 1.2019441784892244
          -0.5 -0.23741110234334928 1.4925182704543631
          -0.5 -0.29729938549820234 1.771379298932628
          -0.5 -0.006226224768513644 1.7382499229766937
          -0.5 0.04580247180532648 1.4556297327824943
          0.5 0.5 1.6666666666666667
          0.5 0.5 1.3333333333333333
          -0.0035455768782663988 0.5 1.2375118765275752
          0.2905839408924735 0.5 1.239395172160001
          0.2620658420476847 0.5 1.5267380735855927
          0.27247857548242593 0.5 1.8028108916528027
          -0.2753072189476412 0.5 1.2019441784892244
          -0.23741110234334928 0.5 1.4925182704543631
          -0.29729938549820234 0.5 1.771379298932628
          -0.006226224768513644 0.5 1.7382499229766937
          0.04580247180532648 0.5 1.4556297327824943
          0.5 0.0035455768782661767 1.2375118765275748
          0.5 -0.29058394089247375 1.2393951721600007
          0.5 -0.262065842047685 1.5267380735855924
          0.5 -0.27247857548242616 1.802810891652803
          0.5 0.2753072189476413 1.2019441784892244
          0.5 0.23741110234334917 1.4925182704543627
          0.5 0.29729938549820223 1.7713792989326282
          0.5 0.006226224768513422 1.7382499229766935
          0.5 -0.045802471805326705 1.4556297327824943
          -0.1616311472381997 0.34002248648704625 1.7567928814627554
          -0.10466366945571326 0.10298687814158636 1.7918197953646304
          0.1533803545289576 0.19824741223607756 1.746212429483144
          -0.17250178677660988 -0.18417577978405197 1.7555149352567427
          0.1037136204670901 -0.10275990172091465 1.7635733487306062
          0.3352962650555029 -0.18795629691046045 1.2809840324464536
          0.10444266921361445 -0.19471348960739765 1.2343292385275204
          0.06799998476084168 0.08559033216882583 1.2174016885181411
          -0.1745161000595552 -0.18841812105935718 1.2365880785037744
          -0.17337441279610433 0.18025778445388152 1.2452945910793571
          0.14703746001117435 0.34557413371460277 1.2495803188772148
          0.0015127112054096337 0.2693246285865787 1.4966628759033747
          0.04428709702217337 -0.26237683143265067 1.5447361450216304
          0.25844082172613225 0.06653990857833025 1.3922043756551612
          0.2587978684573664 -0.10320317703847426 1.5747123404945438
          -0.25844082172613203 -0.06653990857833092 1.3922043756551608
          -0.2754801776087292 0.11030308715805415 1.5849754577936346
          -0.02029135168088958 -0.019468294227625194 1.500166796518364
          -0.17606003863921527 -0.2813663258123009 1.5337434631829556
          -0.3094387461778967 0.11495258457588342 1.8201672544765897
          0.25059649269248396 -0.2539737125507886 1.747373283858616
        </DataArray>
      </Points>
      <Cells>
        <DataArray type="Int64" Name="connectivity" format="ascii">
          150 75 84 81 135 74 80 65 148 73 80 82 147 73 65 80 148 73 82 72 
          144 83 72 82 144 64 72 83 139 75 81 74 117 79 83 87 151 85 81 84 
          151 88 81 85 169 85 76 128 124 76 84 66 127 77 67 86 128 77 85 76 
          152 88 80 81 152 88 82 80 170 82 87 83 154 87 82 88 153 87 85 86 
          153 87 88 85 153 78 87 86 113 78 86 67 116 79 64 83 117 79 87 78 
          153 77 86 85 152 81 80 74 155 90 98 97 142 69 98 90 141 89 90 97 
          145 99 89 97 145 131 68 133 138 75 66 84 145 99 68 89 142 115 114 108 
          156 91 100 98 158 102 105 100 161 140 139 134 156 105 98 100 158 102 101 93 
          125 70 93 101 158 92 101 100 121 94 102 93 159 103 102 94 122 103 94 71 
          160 104 96 99 136 95 103 71 110 91 92 100 111 92 70 101 114 91 98 69 
          158 102 100 101 156 105 97 98 158 111 101 92 125 107 70 111 126 112 107 111 
          158 156 110 100 127 113 86 67 156 114 91 98 155 142 98 90 142 114 69 108 
          143 109 115 108 153 117 113 112 156 155 114 98 143 116 115 109 144 116 109 64 
          144 143 109 116 153 117 87 78 117 116 83 79 118 117 168 112 162 117 118 115 
          126 112 106 107 158 118 112 111 159 104 102 103 159 104 105 102 159 122 103 94 
          159 104 103 95 137 123 120 122 136 122 71 103 159 136 95 103 137 123 119 120 
          132 104 95 96 76 85 169 84 138 124 66 119 153 128 77 85 125 111 70 101 
          158 121 102 93 158 126 125 111 126 125 111 107 153 127 113 86 127 113 106 112 
          162 158 156 118 127 113 67 106 169 153 85 128 127 126 112 106 153 127 126 112 
          166 128 124 123 168 117 118 162 124 76 169 84 159 158 121 102 133 96 68 99 
          157 104 99 97 159 129 123 122 159 136 103 122 157 104 97 105 160 133 99 96 
          146 134 131 133 146 134 130 131 160 140 133 132 147 135 80 65 150 139 75 81 
          136 120 71 122 159 160 104 132 159 137 136 122 137 136 122 120 150 138 124 84 
          138 124 119 123 159 137 132 136 138 124 84 66 150 138 137 123 138 137 123 119 
          152 139 81 74 152 139 135 134 166 129 128 123 161 160 140 134 161 166 150 137 
          163 97 99 145 155 142 114 98 160 140 134 133 164 148 149 146 142 114 98 69 
          155 143 115 142 170 144 82 83 143 142 108 115 170 117 115 116 144 116 64 83 
          145 133 68 99 145 141 97 89 160 146 145 133 170 148 143 164 152 147 135 80 
          147 135 130 134 146 145 133 131 163 149 141 146 163 145 141 97 147 135 65 130 
          147 146 134 130 152 148 147 80 155 149 142 141 148 144 72 82 148 147 80 73 
          164 148 143 149 152 147 146 134 152 150 81 139 169 76 124 128 150 138 84 75 
          150 139 138 75 150 138 123 124 150 139 137 138 161 140 137 139 151 150 84 81 
          117 87 170 154 152 148 80 82 169 150 124 84 166 129 126 128 152 148 146 147 
          170 117 116 83 153 154 87 117 153 128 126 127 166 150 137 123 161 152 139 150 
          152 147 134 135 153 127 112 113 161 140 132 137 152 135 74 80 152 151 88 81 
          152 139 74 135 154 152 88 82 152 151 81 150 161 152 150 151 170 148 82 144 
          170 144 116 143 170 143 116 115 154 152 151 88 154 152 82 148 170 144 83 116 
          153 151 85 88 156 118 115 162 162 153 117 154 167 153 154 151 153 128 127 77 
          153 117 78 113 153 127 86 77 153 113 78 86 153 154 151 88 153 154 88 87 
          165 129 121 126 156 115 110 114 155 142 115 114 155 149 143 142 155 141 90 97 
          155 142 90 141 167 154 152 151 163 146 141 145 160 145 99 133 164 155 143 115 
          115 156 164 155 156 155 98 97 158 118 111 110 156 155 115 114 163 97 156 157 
          156 110 100 91 158 126 111 112 158 125 101 111 156 114 110 91 160 146 133 134 
          160 132 96 104 160 133 96 132 157 156 105 97 157 159 104 105 163 152 146 134 
          163 155 97 141 163 155 141 149 158 125 121 93 158 125 93 101 159 129 122 121 
          158 156 100 105 158 156 118 110 168 153 126 112 167 162 158 156 158 110 92 100 
          158 111 92 110 115 118 156 110 115 117 170 162 164 156 115 162 168 153 117 162 
          164 155 149 143 167 166 153 151 117 153 168 112 159 137 122 123 165 159 121 129 
          161 160 132 140 161 166 151 150 167 161 166 151 157 158 105 156 159 136 132 95 
          159 121 94 102 159 122 94 121 159 158 102 105 159 132 104 95 166 159 129 123 
          121 158 159 165 167 157 156 158 166 153 128 126 168 158 112 126 158 118 168 112 
          126 158 121 165 121 158 126 125 161 157 159 160 157 159 105 158 157 159 160 104 
          158 159 167 157 167 159 158 165 157 160 99 104 163 160 146 145 160 99 163 157 
          166 150 123 124 166 159 123 137 166 165 129 159 169 151 150 84 161 166 137 159 
          166 165 126 129 169 151 84 85 166 165 153 126 169 153 151 85 168 167 153 162 
          163 161 160 157 167 164 152 154 167 166 159 165 161 152 134 139 163 160 134 146 
          161 159 132 160 167 164 154 162 161 159 137 132 161 150 139 137 164 152 148 146 
          164 154 148 152 163 161 152 134 99 97 163 157 163 99 160 145 156 97 163 155 
          163 161 134 160 167 163 157 161 167 163 156 157 164 163 146 149 167 163 161 152 
          164 163 149 155 143 148 170 144 170 164 162 154 164 163 152 146 164 163 155 156 
          167 164 162 156 167 161 157 159 168 167 162 158 167 153 165 168 167 161 159 166 
          167 164 156 163 167 164 163 152 167 162 154 153 167 161 151 152 169 166 128 124 
          169 166 153 128 169 166 151 153 169 166 150 151 169 166 124 150 168 165 126 153 
          168 165 158 126 168 167 158 165 165 153 167 166 170 162 117 154 170 164 115 162 
          170 87 117 83 170 164 154 148 170 164 143 115 87 82 170 154 170 154 82 148 
          168 118 158 162 7 32 44 9 10 36 56 14 32 33 45 44 36 37 57 56 
          33 20 24 45 37 22 31 57 9 44 42 8 14 56 58 15 44 45 43 42 
          56 57 59 58 45 24 25 43 57 31 30 59 8 42 40 4 15 58 50 6 
          42 43 41 40 58 59 51 50 43 25 23 41 59 30 26 51 10 36 56 14 
          11 38 60 12 36 37 57 56 38 39 61 60 37 22 31 57 39 21 29 61 
          14 56 58 15 12 60 62 13 56 57 59 58 60 61 63 62 57 31 30 59 
          61 29 28 63 15 58 50 6 13 62 48 5 58 59 51 50 62 63 49 48 
          59 30 26 51 63 28 27 49 11 38 60 12 0 34 52 2 38 39 61 60 
          34 35 53 52 39 21 29 61 35 17 19 53 12 60 62 13 2 52 54 3 
          60 61 63 62 52 53 55 54 61 29 28 63 53 19 18 55 13 62 48 5 
          3 54 46 1 62 63 49 48 54 55 47 46 63 28 27 49 55 18 16 47 
          80 65 74 74 81 80 82 72 73 83 64 72 66 84 75 84 81 75 85 84 
          76 67 86 77 86 85 77 88 81 85 80 73 65 82 83 72 81 74 75 80 
          88 82 87 78 79 82 73 80 83 79 64 84 66 76 84 85 81 85 76 77 
          87 83 82 86 67 78 87 79 83 86 87 85 80 81 88 87 86 78 88 87 
          82 88 85 87 98 97 90 90 69 98 68 89 99 100 105 98 93 101 70 100 
          92 101 102 93 94 105 97 98 94 71 103 89 97 99 89 90 97 95 96 104 
          91 92 100 69 91 98 96 68 99 97 105 104 98 91 100 94 103 102 93 102 
          101 92 70 101 100 101 102 71 95 103 96 99 104 99 97 104 102 103 104 103 
          95 104 100 102 105 102 104 105 91 110 92 92 111 70 106 107 112 67 106 113 
          108 114 69 110 91 114 115 108 109 79 116 64 110 115 118 106 112 113 111 92 
          110 79 78 117 107 70 111 110 118 111 107 111 112 109 116 115 78 67 113 112 
          118 117 108 115 114 91 69 114 110 114 115 79 117 116 109 64 116 117 115 116 
          113 112 117 78 113 117 118 112 111 115 117 118 93 121 94 94 122 71 119 120 
          123 66 119 124 107 125 70 121 93 125 126 107 106 77 127 67 126 106 127 119 
          123 124 122 94 121 77 76 128 120 71 122 121 129 122 121 126 129 120 122 123 
          76 66 124 123 128 124 107 126 125 93 70 125 121 125 126 77 128 127 128 126 
          127 106 67 127 129 123 122 76 124 128 128 123 129 126 128 129 95 132 96 96 
          133 68 130 131 134 65 130 135 120 136 71 132 95 136 137 120 119 75 138 66 
          137 119 138 130 134 135 133 96 132 75 74 139 131 68 133 132 140 133 132 137 
          140 131 133 134 74 65 135 134 139 135 120 137 136 95 71 136 132 136 137 75 
          139 138 139 137 138 119 66 138 140 134 133 74 135 139 139 134 140 137 139 140 
          89 141 90 90 142 69 109 108 143 64 109 144 131 145 68 141 89 145 146 131 
          130 73 147 65 141 146 149 109 143 144 142 90 141 73 72 148 108 69 142 141 
          149 142 108 142 143 130 147 146 72 64 144 143 149 148 131 146 145 89 68 145 
          141 145 146 73 148 147 130 65 147 148 146 147 144 143 148 72 144 148 149 143 
          142 146 148 149 
        </DataArray>
        <DataArray type="Int64" Name="offsets" format="ascii">
          4 8 12 16 20 24 28 32 36 40 44 48 52 56 60 64 68 72 76 80 
          84 88 92 96 100 104 108 112 116 120 124 128 132 136 140 144 148 152 156 160 
          164 168 172 176 180 184 188 192 196 200 204 208 212 216 220 224 228 232 236 240 
          244 248 252 256 260 264 268 272 276 280 284 288 292 296 300 304 308 312 316 320 
          324 328 332 336 340 344 348 352 356 360 364 368 372 376 380 384 388 392 396 400 
          404 408 412 416 420 424 428 432 436 440 444 448 452 456 460 464 468 472 476 480 
          484 488 492 496 500 504 508 512 516 520 524 528 532 536 540 544 548 552 556 560 
          564 568 572 576 580 584 588 592 596 600 604 608 612 616 620 624 628 632 636 640 
          644 648 652 656 660 664 668 672 676 680 684 688 692 696 700 704 708 712 716 720 
          724 728 732 736 740 744 748 752 756 760 764 768 772 776 780 784 788 792 796 800 
          804 808 812 816 820 824 828 832 836 840 844 848 852 856 860 864 868 872 876 880 
          884 888 892 896 900 904 908 912 916 920 924 928 932 936 940 944 948 952 956 960 
          964 968 972 976 980 984 988 992 996 1000 1004 1008 1012 1016 1020 1024 1028 1032 1036 1040 
          1044 1048 1052 1056 1060 1064 1068 1072 1076 1080 1084 1088 1092 1096 1100 1104 1108 1112 1116 1120 
          1124 1128 1132 1136 1140 1144 1148 1152 1156 1160 1164 1168 1172 1176 1180 1184 1188 1192 1196 1200 
          1204 1208 1212 1216 1220 1224 1228 1232 1236 1240 1244 1248 1252 1256 1260 1264 1268 1272 1276 1280 
          1284 1288 1292 1296 1300 1304 1312 1320 1328 1336 1344 1352 1360 1368 1376 1384 1392 1400 1408 1416 
          1424 1432 1440 1448 1456 1464 1472 1480 1488 1496 1504 1512 1520 1523 1526 1529 1532 1535 1538 1541 
          1544 1547 1550 1553 1556 1559 1562 1565 1568 1571 1574 1577 1580 1583 1586 1589 1592 1595 1598 1601 
          1604 1607 1610 1613 1616 1619 1622 1625 1628 1631 1634 1637 1640 1643 1646 1649 1652 1655 1658 1661 
          1664 1667 1670 1673 1676 1679 1682 1685 1688 1691 1694 1697 1700 1703 1706 1709 1712 1715 1718 1721 
          1724 1727 1730 1733 1736 1739 1742 1745 1748 1751 1754 1757 1760 1763 1766 1769 1772 1775 1778 1781 
          1784 1787 1790 1793 1796 1799 1802 1805 1808 1811 1814 1817 1820 1823 1826 1829 1832 1835 1838 1841 
          1844 1847 1850 1853 1856 1859 1862 1865 1868 1871 1874 1877 1880 1883 1886 1889 1892 1895 1898 1901 
          1904 1907 1910 1913 1916 1919 1922 1925 1928 1931 1934 1937 1940 1943 1946 1949 1952 1955 1958 1961 
          1964 1967 1970 1973 1976 1979 1982 1985 1988 1991 1994 1997 2000 2003 2006 2009 2012 2015 2018 2021 
          2024 
        </DataArray>
        <DataArray type="UInt8" Name="types" format="ascii">
          10 10 10 10 10 10 10 10 10 10 10 10 10 10 10 10 10 10 10 10 
          10 10 10 10 10 10 10 10 10 10 10 10 10 10 10 10 10 10 10 10 
          10 10 10 10 10 10 10 10 10 10 10 10 10 10 10 10 10 10 10 10 
          10 10 10 10 10 10 10 10 10 10 10 10 10 10 10 10 10 10 10 10 
          10 10 10 10 10 10 10 10 10 10 10 10 10 10 10 10 10 10 10 10 
          10 10 10 10 10 10 10 10 10 10 10 10 10 10 10 10 10 10 10 10 
          10 10 10 10 10 10 10 10 10 10 10 10 10 10 10 10 10 10 10 10 
          10 10 10 10 10 10 10 10 10 10 10 10 10 10 10 10 10 10 10 10 
          10 10 10 10 10 10 10 10 10 10 10 10 10 10 10 10 10 10 10 10 
          10 10 10 10 10 10 10 10 10 10 10 10 10 10 10 10 10 10 10 10 
          10 10 10 10 10 10 10 10 10 10 10 10 10 10 10 10 10 10 10 10 
          10 10 10 10 10 10 10 10 10 10 10 10 10 10 10 10 10 10 10 10 
          10 10 10 10 10 10 10 10 10 10 10 10 10 10 10 10 10 10 10 10 
          10 10 10 10 10 10 10 10 10 10 10 10 10 10 10 10 10 10 10 10 
          10 10 10 10 10 10 10 10 10 10 10 10 10 10 10 10 10 10 10 10 
          10 10 10 10 10 10 10 10 10 10 10 10 10 10 10 10 10 10 10 10 
          10 10 10 10 10 10 12 12 12 12 12 12 12 12 12 12 12 12 12 12 
          12 12 12 12 12 12 12 12 12 12 12 12 12 5 5 5 5 5 5 5 
          5 5 5 5 5 5 5 5 5 5 5 5 5 5 5 5 5 5 5 5 
          5 5 5 5 5 5 5 5 5 5 5 5 5 5 5 5 5 5 5 5 
          5 5 5 5 5 5 5 5 5 5 5 5 5 5 5 5 5 5 5 5 
          5 5 5 5 5 5 5 5 5 5 5 5 5 5 5 5 5 5 5 5 
          5 5 5 5 5 5 5 5 5 5 5 5 5 5 5 5 5 5 5 5 
          5 5 5 5 5 5 5 5 5 5 5 5 5 5 5 5 5 5 5 5 
          5 5 5 5 5 5 5 5 5 5 5 5 5 5 5 5 5 5 5 5 
          5 5 5 5 5 5 5 5 5 5 5 5 5 5 5 5 5 5 5 5 
          5 
        </DataArray>
      </Cells>
      <CellData Scalars="BlockID">
        <DataArray type="Int32" Name="BlockID" format="ascii">
          2 2 2 2 2 2 2 2 2 2 2 2 2 2 2 2 2 2 2 2 
          2 2 2 2 2 2 2 2 2 2 2 2 2 2 2 2 2 2 2 2 
          2 2 2 2 2 2 2 2 2 2 2 2 2 2 2 2 2 2 2 2 
          2 2 2 2 2 2 2 2 2 2 2 2 2 2 2 2 2 2 2 2 
          2 2 2 2 2 2 2 2 2 2 2 2 2 2 2 2 2 2 2 2 
          2 2 2 2 2 2 2 2 2 2 2 2 2 2 2 2 2 2 2 2 
          2 2 2 2 2 2 2 2 2 2 2 2 2 2 2 2 2 2 2 2 
          2 2 2 2 2 2 2 2 2 2 2 2 2 2 2 2 2 2 2 2 
          2 2 2 2 2 2 2 2 2 2 2 2 2 2 2 2 2 2 2 2 
          2 2 2 2 2 2 2 2 2 2 2 2 2 2 2 2 2 2 2 2 
          2 2 2 2 2 2 2 2 2 2 2 2 2 2 2 2 2 2 2 2 
          2 2 2 2 2 2 2 2 2 2 2 2 2 2 2 2 2 2 2 2 
          2 2 2 2 2 2 2 2 2 2 2 2 2 2 2 2 2 2 2 2 
          2 2 2 2 2 2 2 2 2 2 2 2 2 2 2 2 2 2 2 2 
          2 2 2 2 2 2 2 2 2 2 2 2 2 2 2 2 2 2 2 2 
          2 2 2 2 2 2 2 2 2 2 2 2 2 2 2 2 2 2 2 2 
          2 2 2 2 2 2 1 1 1 1 1 1 1 1 1 1 1 1 1 1 
          1 1 1 1 1 1 1 1 1 1 1 1 1 4 4 4 4 4 4 4 
          4 4 4 4 4 4 4 4 4 4 4 4 4 4 4 4 4 4 4 4 
          4 4 4 4 4 4 4 4 4 4 4 4 4 4 4 4 4 4 4 4 
          4 4 4 4 4 4 4 4 4 4 4 4 4 4 4 4 4 4 4 4 
          4 4 4 4 4 4 4 4 4 4 4 4 4 4 4 4 4 4 4 4 
          4 4 4 4 4 4 4 4 4 4 4 4 4 4 4 4 4 4 4 4 
          4 4 4 4 4 4 4 4 4 4 4 4 4 4 4 4 4 4 4 4 
          4 4 4 4 4 4 4 4 4 4 4 4 4 4 4 4 4 4 4 4 
          4 4 4 4 4 4 4 4 4 4 4 4 4 4 4 4 4 4 4 4 
          4 
        </DataArray>
      </CellData>
      <PointData Scalars="NodeID">
        <DataArray type="Int32" Name="NodeID" format="ascii">
          1 2 3 4 5 6 7 8 9 10 11 12 13 14 15 16 17 18 19 20 
          21 22 23 24 25 26 27 28 29 30 31 32 33 34 35 36 37 38 39 40 
          41 42 43 44 45 46 47 48 49 50 51 52 53 54 55 56 57 58 59 60 
          61 62 63 64 65 66 67 68 69 70 71 72 73 74 75 76 77 78 79 80 
          81 82 83 84 85 86 87 88 89 90 91 92 93 94 95 96 97 98 99 100 
          101 102 103 104 105 106 107 108 109 110 111 112 113 114 115 116 117 118 119 120 
          121 122 123 124 125 126 127 128 129 130 131 132 133 134 135 136 137 138 139 140 
          141 142 143 144 145 146 147 148 149 150 151 152 153 154 155 156 157 158 159 160 
          161 162 163 164 165 166 167 168 169 170 171 
        </DataArray>
      </PointData>
    </Piece>
  </UnstructuredGrid>
</VTKFile>
