# vtk DataFile Version 3.0
Unstructured Grid sphere_1st_order.vtk
ASCII
DATASET UNSTRUCTURED_GRID
POINTS 329 float
-6.123233995736765e-17 -7.498798913309285e-33 -1.0
-6.123233995736765e-17 -7.498798913309285e-33 1.0
-0.3090169956623031 -3.7843667461997095e-17 -0.9510565158768662
-0.5877852531137944 -7.19829328811825e-17 -0.8090169937782226
-0.8090169947727663 -9.90760073104279e-17 -0.5877852517449222
-0.9510565163997282 -1.1647083186171592e-16 -0.30901699405309946
-1.0 -1.224646799147353e-16 1.9317880628477724e-14
-0.9510565163997162 -1.1647083186171444e-16 0.30901699405313654
-0.8090169947727408 -9.907600731042478e-17 0.5877852517449573
-0.587785253113764 -7.198293288117878e-17 0.8090169937782445
-0.3090169956622829 -3.7843667461994624e-17 0.9510565158768729
0.20605232544926172 -3.437714769266085e-07 -0.9785409747051133
-0.09686732155666453 -0.24396726220782738 -0.9649335194640378
-0.09852470072471987 -0.24310642130206112 0.964982979781928
0.20611149132143508 0.00019319913968837972 0.9785284951493984
-0.09686209418928168 0.2439259150988916 -0.9649444971874988
-0.42317660563433906 0.2550133164652757 -0.8694192135380838
-0.6805406158331747 0.2529911924840774 -0.6876481125742202
-0.8596544436754563 0.2539410326509124 -0.44329244230556186
-0.954538744913478 0.25521932587437807 -0.154009350882438
-0.9545387449134716 0.25521932587437807 0.15400935088247747
-0.6805406158331502 0.2529911924840642 0.6876481125742493
-0.4235375760480378 -0.25480878387114714 0.8693034023500998
-0.4231753408731092 -0.25501885243781935 -0.8694182053409196
-0.6805406158331744 -0.2529911924840781 -0.6876481125742202
-0.8596544436754565 -0.25394103265091156 -0.44329244230556186
-0.9545387449134778 -0.2552193258743789 -0.154009350882438
-0.9545387449134718 -0.2552193258743773 0.15400935088247747
-0.8596544436754384 -0.2539410326509096 0.4432924423055976
-0.09677223071443794 0.2437382395895287 0.9650009357116442
-0.8596544436754379 0.25394103265091195 0.4432924423055976
-0.6805406158331505 -0.25299119248406365 0.6876481125742493
-0.42319483694467264 0.2549774133130408 0.8694208697078547
-0.24480158593254336 0.4765183081674705 0.844394745072542
-0.6971194225239603 -0.4956882472322813 0.5179938921412575
-0.8225873938609686 -0.49682859484160646 0.2766068090426089
-0.8664504362082242 -0.4992630985708617 1.9539925233402755e-14
-0.8225873938609779 -0.49682859484161124 -0.27660680904257307
-0.6971194225239803 -0.49568824723229626 -0.5179938921412164
-0.5003113890780431 -0.4924456262637222 -0.7121697965601526
-0.5003113890780323 -0.4924456262636873 0.7121697965601843
-0.5003113890780311 0.49244562626368854 0.7121697965601843
-0.6971194225239578 0.4956882472322849 0.5179938921412575
-0.8225873938609677 0.49682859484160796 0.2766068090426089
-0.8664504362082242 0.4992630985708617 1.865174681370263e-14
-0.8225873938609783 0.49682859484161057 -0.27660680904257307
-0.697119422523978 0.4956882472322993 -0.5179938921412164
-0.5003113890780444 0.49244562626372096 -0.7121697965601526
-0.2463582438810094 0.4781177621909655 -0.8430367851697624
0.16418853414561332 0.2763190699840423 0.9469371134443241
-0.24643704275452896 -0.4781259429442935 0.843009114210536
0.1638214605004491 -0.2764135462296293 0.9469731150039373
-0.2463616609762906 -0.47816906172726453 -0.8430066906068245
0.16414702238864018 0.2763106931179666 -0.9469467545272079
0.16411113132154295 -0.27631849360903227 -0.9469506991739318
-0.2778585103488893 0.6919752072014956 -0.6663069569238664
-0.4844272547801426 0.7085624085435547 -0.5130979906656539
-0.618633153014231 0.712148744442266 -0.33186923295324455
-0.6922615703641479 0.7117615380352227 -0.11903541981569102
-0.6922615703641428 0.7117615380352224 0.11903541981572188
-0.6186331530142103 0.7121487444422648 0.33186923295328563
-0.4838220685042029 0.709201376173287 0.5127861289682374
-0.27784196811833967 -0.6922911933683411 0.6659855436394737
-0.27746153702173904 -0.6904983528553585 -0.668002335458171
-0.48266952628140336 -0.7095068438330797 -0.5134492837207072
-0.6186331530142305 -0.7121487444422653 -0.3318692329532471
-0.6922615703641476 -0.7117615380352237 -0.1190354198156875
-0.6922615703641452 -0.7117615380352198 0.11903541981572452
-0.48270116976648586 -0.7088680755112274 0.5143011104664996
-0.622311545526689 -0.7082626557515757 0.33330519163659733
-0.2766707469215062 0.6878306665466232 0.6710754592114985
-0.011389005008272944 -0.48144954352494235 -0.876399810363139
0.4058697770742223 -0.1376007424021149 -0.903513010281594
0.40615039268534314 0.13676223442828536 -0.9035142222210584
-0.011525237958598888 0.48109367919960366 -0.8765934295465523
0.40586123039501004 -0.1377641333493624 0.9034919508356163
-0.01172175233769471 -0.480735706779135 0.8767871923960222
-0.01103144253184516 0.48141382038437347 0.8764240074407983
0.4062073089870416 0.13667347363032994 0.9035020662573636
0.6352298853892426 0.0 0.7723231141875593
0.6352298853891842 -1.1283949515025146e-15 -0.7723231141876072
-0.0087624975391265 0.7160120782936138 0.6980328949086401
-0.40796120790746054 -0.8727478939552737 0.26810215672261883
-0.4902785113161592 -0.871565731370491 -0.0003965378062056816
-0.39110165553143195 -0.8859482229980857 -0.2492694149050521
-0.009178628933600465 -0.7164906883315166 -0.6975362688098221
-0.21597868226384603 -0.8611755929892458 -0.46014107276702976
-0.2201604033074455 -0.8705269743015492 0.4401274631614034
-0.010419914001453048 -0.7150154358070855 0.6990310092905789
-0.21361618791923223 0.8585581050426673 0.46609666864760924
-0.3930141709987451 0.8789783005640049 0.2700685256222627
-0.4909734291282401 0.8711745454619666 -5.682598591999785e-05
-0.39282384407744664 0.8837212147807451 -0.2544135257227135
-0.2154395615554165 0.8604017128832375 -0.46183837842301556
-0.008483986787613274 0.715771423522846 -0.698283102499456
0.42839429869535495 0.3993955111275899 0.810531646844493
0.2340831866765513 0.5437387928161709 0.8059486254732147
0.23287352980015888 -0.5450657927825897 0.8054025084743042
0.42718007194477203 -0.40029305942187937 0.8107297038544541
0.23292801162457372 0.5447768756290403 -0.8055822100695145
0.42676263442510226 0.3998848559718543 -0.8111508835123806
0.428304471677952 -0.39955706369734606 -0.8104994956138005
0.23401404514577914 -0.5438901149508957 -0.8058665953699846
0.501353883353181 -0.6079959423060498 -0.6156177529815585
0.4997833600729877 0.6083853715612048 -0.616509393816906
0.5006157576693816 -0.6085157436150909 0.6157048423925895
0.5014445249772707 0.6074247699322526 0.6161075695388503
0.2790184565785594 0.7472040409563506 -0.6031872197477486
0.05473078259881736 0.8882112657483027 -0.4561636645261422
-0.1024469419349273 0.973600608324761 -0.20397666424823335
-0.2297696206037594 0.9727342083386876 0.031529056048523435
0.2814605804121322 -0.7480505761242325 0.6009993986970945
0.06368761962004794 -0.8711553215613539 0.4868596233232594
0.27638436776818714 -0.7460853391085378 -0.6057791247812006
0.05473078259881801 -0.8882112657483001 -0.456163664526147
-0.10621286593083998 -0.9762883302173452 -0.18862641223377247
-0.2172069837318506 -0.9733061323149139 0.07413702864489724
0.2765676598491167 0.7455887561040858 0.6063066355374522
0.058764967438638925 0.8868016559147016 0.45839884562341426
0.6231811588035254 -0.24228671474030702 -0.7436009623263302
0.6229620441413722 0.242390031049051 -0.743750875231245
0.6230085260525308 -0.2424067027749237 0.743706505898424
0.6228521988924781 0.24382247929177675 0.743374560317217
0.10115464363148616 -0.9937473049088192 0.047265548322696
0.10467520976612861 0.9943875093708483 0.015381211514631277
0.32423764166702895 0.8701218491552115 0.3711575397980198
0.19395687148402535 -0.9630818057044668 -0.1866927088162605
0.31699789675668016 -0.8751981328177851 -0.3654320207153492
0.28802702558982685 -0.899641861695928 0.3281538560098938
0.18371198602432506 0.9620112351856062 -0.20195120590791799
0.3190519006707364 0.8733071258031914 -0.3681583201555536
0.5169228264364565 0.7589231253768923 0.3960132337146254
0.5090596961887208 -0.778453392957499 0.3672445244101056
0.5275170758411831 0.7651072206138687 -0.36923796616882165
0.514214867087011 -0.7598355390095093 -0.397785148195374
0.8144124467582633 0.13899236138964502 0.563394613073775
0.8146888828288632 -0.13626100108427103 0.5636621007115616
0.8158451803114966 0.13468246334980163 -0.5623675629235125
0.8165431816469423 -0.13428192452167012 -0.5614495500511554
-0.07906519890548659 0.9698934479838119 0.23033756506507586
-0.0032795665457972223 -0.9622760339540326 0.2720552865153867
0.4438106125665915 0.889761128153222 -0.10657051656425465
0.49923537530902834 -0.8552202190913485 -0.13914890189074158
0.38507569108077805 -0.9193354421411813 0.08086443570408039
0.9499318932568868 -1.6874180155512995e-15 -0.31245703412371206
0.9363400429064864 0.0007689104623128242 0.3510936240186937
0.5069989115099368 0.8515768141641906 0.13330053752969984
0.22794019144082203 0.9533077631901495 0.19811001430345432
0.7010670904887055 -0.43955407124524093 -0.5615132706227295
0.6985481127333348 0.43278794152245925 -0.5698465862576068
0.7032418618407207 -0.4310824236960219 0.5653484126935884
0.7023018221267089 0.4387297008914857 0.5606143060903563
0.7040831452570954 0.7081771918990869 -0.05245940753381856
0.6737471878878958 -0.7358411226394059 0.06784223644552773
0.7246371637322733 0.6198853787098861 0.3010699224428566
0.7286839194273532 -0.5973583007944969 0.3349370180196596
0.7278960308423429 0.5976961626063438 -0.3360456300707001
0.7202757490966638 -0.6277080855166539 -0.29527174710807835
0.9013748858128142 0.2986479342445137 0.3135804946061226
0.9022174503527258 -0.2946318028194781 0.31495360459339194
0.8833125460459349 0.3093048339871689 -0.35226334704311435
0.8828914495835666 -0.3192345748195663 -0.3443718549649476
0.8734425423151558 0.4704072520126784 -0.1257582702167831
0.8651593253191369 -0.48916879420737447 -0.11051349504490005
0.8761330170474995 -0.46816781873233754 0.11493402430373195
0.8809526831587992 0.4609607859470993 0.10694635970590297
0.9789067998420729 -0.19660950950183076 -0.05555337970277911
0.9796571427278236 0.1926012580075371 -0.05636167240484252
0.9908842103616613 -1.7601639441296536e-15 0.13471630063190826
-0.5347636257743913 -0.03269176048120492 -0.5062836958798069
-0.3153711286501335 -0.02009058616293835 -0.653062702589573
-0.3940022021655847 -0.2504103293257023 -0.5651366939044009
-0.604361395243163 0.16938684963786388 -0.4280520806522352
-0.4205067843767787 0.12625183043059174 -0.5864207567718562
-0.6509992364407298 -0.06425878705668131 -0.33330269741129914
-0.6249588069916125 -0.25484901969314233 -0.4345112415599188
-0.19380544960053925 0.1555286558425446 -0.7103256008998189
-0.09371481002222737 -0.05456161925723757 -0.735027976706812
-0.19081860068911105 -0.2471294885077553 -0.6674262244529956
-0.45898328588459547 -0.45941719422170113 -0.4119015901587417
-0.4568940714400993 0.2722313624521737 -0.3914609706808734
-0.7308664480183866 0.1820731196867622 -0.24919557581812857
-0.30861963483899935 0.30746964543371513 -0.6260948611148751
-0.6509111890510391 -0.24517571335144117 -0.20836337195047028
-0.7488364110476091 -0.029848031339134717 -0.12127254190058379
-0.14463288859408818 -0.472451310700166 -0.5542460124794806
-0.5641334644127189 0.4289443471377212 -0.3045386982326366
-0.5337458753982367 -0.45676595797930863 -0.1712673177841264
-0.08469896122046627 0.30469439402513965 -0.6686195478678849
0.01770354427487897 -0.25777067614388915 -0.6946363791873087
-0.3176840331949249 0.47955049010134276 -0.4774197073048101
-0.6421917378745552 0.2907628826005304 -0.13542817082295544
-0.7221988138513367 0.12724211455543166 1.4654943925052066e-14
-0.678256661682735 -0.25271198337218737 0.0034017883694090756
-0.7496516531545057 -0.031983366347392295 0.11728199566071762
0.09268000285972855 0.10699760325840835 -0.6893739889296064
0.19740252679448433 -0.10460296629376264 -0.7103924015952088
-0.2722536408751024 -0.607534496383157 -0.31249622228941076
-0.04239432732401749 -0.6162893217575212 -0.3978321565835876
-0.3664971709169538 0.5929159850769858 -0.24836850396191545
-0.40167099097489567 -0.6171860729383956 -0.08267488143662316
0.1675177828552874 -0.4524778835308698 -0.5434545717789114
-0.6445250281397152 0.3100779662047817 0.10211612625182198
-0.5781029438177225 0.4946633146263517 0.006232056476023207
-0.6869071468856176 0.1270894267044902 0.22557852343619889
-0.10146499218116967 0.5588561853617193 -0.45226528367459773
-0.5819042542305022 -0.4669483230507079 0.1241127849210022
-0.6840730727960076 -0.22502240830253406 0.19812758324548918
-0.7080282614390341 -0.02462621814510646 0.3493471791190248
0.20490415675124396 0.305570163546272 -0.6483711647193644
0.13123274539971153 0.4985301943928895 -0.5255094677792584
0.3675357800367758 -0.00020756559609402814 -0.656216843182984
-0.16761057423872394 -0.7299418131682822 -0.10426819059351544
0.17112758822049257 -0.6372354533802538 -0.35744126666349096
-0.17109870565994267 0.6767634863345737 -0.23013551989682313
-0.312090815527974 0.6887270970149935 -0.030998673314281078
0.4196574748194517 -0.2693158219266789 -0.5653778564862932
0.08303256589219377 -0.7341233215119494 -0.09449977071991889
-0.5986676522933454 0.11925948664943675 0.43192457794280514
0.040613786210797365 0.7183796669937532 -0.21673618405136263
0.20510666563881363 0.6429034308748003 -0.3772440797460037
-0.4368420645314246 -0.6004787656090178 0.204317696447343
-0.5559971833364736 -0.23736589423314447 0.37346117086049446
-0.5157898049790477 -0.0638104458173574 0.5168731102428241
-0.21877441691623467 -0.6675256918605705 0.19336022036344636
0.44305804281447214 0.2635200543537537 -0.5418644750401942
0.41530197748754416 -0.506820466307679 -0.3285081451358578
0.3162588287974972 -0.7246484357626835 -0.14319097420679494
-0.5878259684007894 0.43173135573500243 0.309409333635033
0.4004812262981705 0.4298495380072884 -0.37422610196995754
0.5514379092277544 0.002448667483171185 -0.4648692400387362
0.5972295504136786 -0.23971128778572215 -0.397625597017329
0.09603787123197138 -0.7234434283250017 0.16968198004293278
-0.04867954300782884 0.7349186803896979 0.07098716254497228
-0.4946202155681454 0.2726218380369869 0.40830074069685995
-0.3797008007018574 0.5721622126278074 0.279887933423391
-0.13289142282025734 0.7038660780686636 0.21224602937529324
-0.4241481288655722 0.15848967041844597 0.5912799158513136
-0.43541917900303906 -0.4469361761772088 0.4475705360712272
-0.4398073746644231 -0.2671021551942747 0.6220773894784863
-0.3213435268785032 -0.036074877592155996 0.6553498906059354
-0.2544703418550589 -0.5328213019699062 0.43977919249044195
0.5959003019812799 0.21708974644460888 -0.3720227909341278
0.4902161647677121 -0.5675742488799358 -0.12893665245751773
0.636607217967911 -0.359999070648664 -0.19495569132791157
0.21066382099804448 0.6892597187534979 -0.045613804473829234
0.4289907194884557 0.6184746847061544 -0.17003882365364875
-0.03233691410979889 -0.6176281236690877 0.4006426843289379
0.6114513814819627 0.37522432301561537 -0.16754130137590684
0.681494426826315 -0.12555791831592256 -0.17975894244830348
0.378998738846712 -0.6068601582177524 0.13252693193932785
0.26384801554980264 -0.6051551056363134 0.3258530863521214
-0.30364676233159305 0.31763267908047865 0.6196659688019404
-0.31745789507186295 0.4793409413354479 0.4790055383364642
-0.06795282888434162 0.5855576489586527 0.44262653244089956
-0.20537593005020494 0.12526036273599894 0.6933003924052388
-0.14452221087545247 -0.25862080466063553 0.6680249809122811
-0.09413645955899108 -0.05434771691795781 0.7350097819324137
0.7185644490236496 0.1653991323149011 -0.19395745869955006
0.16100542772061122 0.6844950947973905 0.265706117071999
0.46769242933751753 0.5430084544847786 0.09403464899017022
-0.012819780457357322 -0.4327680117620418 0.6468926324789974
0.1852602213998189 -0.5080984935222834 0.5170779314481622
0.7112127187466224 -0.00048265589736118386 0.024038199931951
0.5657519902129797 -0.43095913342463676 0.1298204147569222
0.7123391128757035 -0.22922486933848818 0.08343383736341936
-0.046269201602747945 0.3445210334464477 0.6413740080347514
0.16107518409154364 0.4763787883759809 0.5191764305232502
0.6723981175167437 0.24526683261189408 0.08318638411068546
0.4560663201352506 -0.4578697803520333 0.3693468207066317
0.10493846792451755 0.11532263366158624 0.7111627864297483
0.42328281847272287 0.5269007661036476 0.3429935124562373
0.19736824592777058 -0.10457213100894203 0.7102789729778816
0.5638317423318027 0.3275880298844629 0.2910268910887539
0.7035559678406216 0.01573503544040422 0.28093847139177486
0.5926947442949131 -0.191528274520941 0.42689004270383313
0.4416861545228805 -0.2609180931940758 0.5403341042930148
0.20512912989963894 0.3052050777929929 0.6480790569851202
0.398544169753809 0.3624395042207862 0.49892400762424227
0.3749180942402113 0.054714665932837026 0.648147231534792
0.5321628436571437 0.1670394308163905 0.4609882363169491
-0.3992846661083669 0.302152744017969 0.21971170411359253
-0.5043593379137223 0.06523469827002293 0.16543664542288994
-0.16057338358739548 0.39410979410303604 0.21970258738838488
-0.15157107107997625 0.26871677234178826 0.40795763246253225
-0.34827561623184344 0.3200663452052419 -0.07781789973896602
-0.3387282029091785 0.0517904679015202 0.3733185047172256
-0.5044091063833465 -0.09145995754072 -0.011477880952313502
-0.2097970677549612 0.32561413420387986 -0.2410087688128666
-0.4902717721112544 0.07192112014241081 -0.18204726275270078
-0.11781155639787988 0.45047061558595924 -0.0357113922144201
0.07572976667004383 0.46282947198743773 0.09345376942263162
-0.04233000703165546 0.028813152241125017 0.46502180119889625
0.16132722455804194 0.19524714745845495 0.419393330161971
-0.19396163524175636 -0.12325998889120449 0.3926348123172132
-0.4032665356129863 -0.18091921515950826 -0.2867088946094114
-0.3516600672015948 -0.2533266167687951 0.2056969190439375
-0.1315298027823899 0.21344694986419954 -0.44379596714500247
-0.3275034170658211 0.05531398954615696 -0.3377159719246836
0.09492496092059799 0.4488273739877364 -0.2453065808670778
0.2868780755967144 0.3054319111656443 0.1649630629332104
0.3290468150057082 0.3482146429686326 -0.10751056988429708
0.26224517075547293 -0.05965142068356233 0.44183205276805504
-0.3467464355983676 -0.32955421841359556 -0.04934290632160154
-0.05886910372734544 -0.35374065844377567 0.33878424744304514
0.22968860168445104 -0.30312203779486735 0.6509077286089102
-0.21236012802268966 -0.32864849929610784 -0.31493061724644544
0.412115830779054 0.11720571136255753 0.1717851081633297
0.20058013145470133 0.19789323081883703 -0.4316852190668712
-0.05470819202442634 -0.040111477788912886 -0.47171650054800907
0.41912309501233125 0.1251454537789316 -0.28261037800036437
0.3976024299499352 0.05671626680281072 -0.04396139836506574
0.004472134126767724 -0.4730014359004642 0.08054820779294536
0.2037812873900653 -0.34497288571008067 0.27934381528277097
-0.0052221117945245865 -0.2683202695185214 -0.39379402252985685
-0.025444315392064265 -0.446981432336901 -0.13018277579638715
0.3798817353727548 -0.17110843568221368 0.19192655274967407
0.1419280938641081 -0.38402287386872347 -0.24698750508544975
0.21029178750357458 -0.08738334295602757 -0.47791858480611227
0.3840580878364519 -0.24213945003972093 -0.0541449128234186
0.2178043490542838 -0.4115087664506203 -0.04260798671623034
0.33680270906216414 -0.18731717631887568 -0.2872411142015401
-0.1423522898646663 -0.07473285327072965 -0.09310531047879378
-0.22591698849520414 0.11072967524373745 0.1074061971047855
0.0893460310572376 0.08373743727866545 -0.17894056637059075
0.036665211947126686 -0.20715703682675635 -0.0027984917980883317
0.05940382318623483 -0.25239684314960975 0.4768204500009441
0.07933385731738873 0.042732486596829045 0.20062789851956975
0.062236728165713906 0.39668949186336455 0.33466708552517677
CELLS 1720 8266
4 169 24 4 3
4 175 25 4 24
4 256 50 13 22
4 76 50 256 261
4 237 32 41 21
4 193 36 27 26
4 206 66 67 36
4 255 33 32 29
4 252 33 41 32
4 183 37 26 25
4 183 37 36 26
4 175 38 25 24
4 175 38 37 25
4 256 50 76 13
4 266 77 33 29
4 266 77 29 49
4 253 70 41 33
4 186 57 46 45
4 186 56 46 57
4 209 100 73 53
4 235 59 60 90
4 277 96 49 95
4 277 96 77 49
4 305 98 51 97
4 261 97 51 76
4 215 110 91 90
4 209 99 100 53
4 278 151 95 122
4 216 148 101 119
4 217 116 115 123
4 280 135 151 122
4 280 158 151 135
4 259 147 125 146
4 259 147 118 125
4 245 141 147 146
4 275 159 136 150
4 230 138 137 144
4 268 167 165 158
4 248 165 258 162
4 256 10 22 13
4 257 10 13 1
4 257 10 1 29
4 255 10 29 32
4 195 11 53 73
4 177 15 0 2
4 177 11 15 195
4 195 15 53 11
4 170 16 2 3
4 176 16 15 2
4 176 16 48 15
4 169 17 3 4
4 173 17 16 3
4 186 18 45 46
4 172 18 46 17
4 172 18 17 4
4 239 9 31 22
4 240 9 22 10
4 237 9 32 21
4 240 9 10 32
4 171 23 24 3
4 170 23 3 2
4 183 5 25 26
4 174 5 4 25
4 174 5 18 4
4 193 6 26 27
4 184 6 5 26
4 207 7 27 28
4 194 7 6 27
4 223 8 9 21
4 223 8 31 9
4 223 8 28 31
4 208 8 7 28
4 270 14 49 29
4 257 14 1 13
4 257 14 13 51
4 194 20 6 7
4 202 20 43 44
4 178 12 23 2
4 177 12 2 0
4 177 12 0 11
4 171 39 38 24
4 171 39 24 23
4 179 64 65 38
4 179 64 38 39
4 179 64 39 63
4 19 45 181 18
4 191 19 44 45
4 181 19 18 5
4 192 19 20 44
4 184 19 5 6
4 192 19 6 20
4 190 47 46 56
4 180 47 17 46
4 190 47 56 55
4 173 47 16 17
4 190 47 55 48
4 182 47 48 16
4 218 30 8 21
4 208 30 7 8
4 204 30 20 7
4 20 43 204 202
4 261 88 76 50
4 261 97 88 262
4 247 88 87 112
4 234 30 21 42
4 228 42 60 43
4 234 42 21 41
4 228 42 43 30
4 185 52 63 39
4 185 52 85 63
4 171 52 39 23
4 178 52 23 12
4 187 66 36 37
4 187 66 37 65
4 206 35 36 67
4 207 35 28 27
4 207 35 27 36
4 222 34 31 28
4 222 34 28 35
4 239 40 50 22
4 239 40 22 31
4 239 40 31 34
4 270 78 49 14
4 277 78 95 49
4 78 278 122 279
4 222 35 238 34
4 206 69 35 67
4 221 69 67 82
4 253 33 254 70
4 267 81 77 96
4 266 81 33 77
4 209 74 99 53
4 188 74 15 48
4 188 74 53 15
4 190 48 205 188
4 188 94 74 48
4 210 94 99 74
4 203 58 45 44
4 186 58 57 45
4 238 68 34 69
4 238 68 40 34
4 221 68 69 82
4 241 68 82 87
4 205 93 94 55
4 205 93 108 94
4 190 93 55 56
4 201 71 102 85
4 185 71 85 52
4 178 71 52 12
4 279 75 78 14
4 272 75 14 51
4 272 75 51 98
4 228 59 43 60
4 235 59 90 91
4 203 59 44 43
4 215 58 59 91
4 203 59 58 44
4 235 61 90 60
4 228 61 60 42
4 253 61 41 70
4 253 61 42 41
4 215 58 92 199
4 215 92 91 110
4 199 92 57 58
4 199 92 56 57
4 199 92 93 56
4 241 62 68 87
4 247 62 87 88
4 238 62 40 68
4 261 62 88 50
4 238 62 50 40
4 197 86 64 63
4 198 86 63 85
4 200 84 66 65
4 197 84 65 64
4 212 84 86 115
4 197 84 64 86
4 200 83 66 84
4 221 83 82 67
4 200 83 67 66
4 216 72 119 101
4 211 72 11 73
4 177 54 12 11
4 211 80 119 72
4 211 80 72 73
4 280 79 136 135
4 279 79 78 75
4 280 79 135 122
4 279 79 122 78
4 275 121 150 136
4 276 121 98 150
4 276 79 75 121
4 276 121 75 98
4 242 120 149 137
4 225 120 100 149
4 225 120 73 100
4 230 120 137 80
4 211 120 80 73
4 253 89 61 70
4 254 89 70 81
4 254 89 81 118
4 235 89 90 61
4 212 116 84 115
4 212 116 83 84
4 224 116 82 83
4 224 116 87 82
4 198 114 86 85
4 198 114 115 86
4 201 113 85 102
4 213 113 114 85
4 259 117 125 118
4 254 117 118 81
4 267 117 81 96
4 236 139 110 90
4 259 139 118 147
4 236 139 90 89
4 236 139 89 118
4 219 109 129 108
4 219 109 108 93
4 215 109 92 110
4 214 109 93 92
4 278 106 96 95
4 278 106 95 151
4 267 106 117 96
4 251 111 128 132
4 251 111 112 128
4 262 111 88 112
4 262 111 97 88
4 210 107 99 94
4 220 107 94 108
4 251 105 111 132
4 276 105 150 98
4 262 105 97 111
4 305 97 105 98
4 216 103 101 148
4 201 103 102 101
4 201 103 113 102
4 229 104 156 149
4 210 104 99 107
4 225 104 149 100
4 209 104 100 99
4 229 133 156 104
4 220 133 104 107
4 259 131 146 125
4 259 131 117 271
4 271 131 117 106
4 245 124 147 141
4 245 124 141 129
4 219 124 129 109
4 233 124 139 147
4 233 124 109 110
4 233 124 110 139
4 226 134 113 103
4 227 127 134 142
4 213 127 114 113
4 213 127 113 134
4 232 140 116 123
4 232 140 123 128
4 224 140 87 116
4 232 140 128 112
4 247 140 112 87
4 227 126 127 142
4 213 126 114 127
4 217 126 123 115
4 217 126 115 114
4 273 154 151 158
4 273 154 158 165
4 271 154 106 151
4 271 154 131 106
4 271 146 154 260
4 274 145 135 136
4 274 145 158 135
4 275 155 159 150
4 250 155 132 153
4 269 155 150 105
4 269 155 105 132
4 220 130 133 107
4 246 130 141 133
4 245 141 130 129
4 220 130 107 108
4 219 130 108 129
4 250 143 142 153
4 250 143 153 132
4 227 143 126 142
4 250 143 132 128
4 217 143 123 126
4 232 143 128 123
4 230 138 80 137
4 230 138 119 80
4 231 138 148 119
4 258 160 144 137
4 258 160 167 144
4 242 160 137 149
4 258 160 162 167
4 248 160 149 156
4 248 160 156 162
4 226 157 103 148
4 243 157 163 153
4 226 157 134 103
4 243 157 153 142
4 243 157 142 134
4 249 161 138 144
4 244 161 163 157
4 231 161 148 138
4 244 161 157 148
4 260 152 154 165
4 248 165 152 260
4 248 152 162 156
4 246 152 156 133
4 260 152 146 154
4 246 152 133 141
4 246 152 141 146
4 274 168 158 145
4 268 168 167 158
4 264 164 153 163
4 264 164 159 155
4 264 164 155 153
4 244 166 161 249
4 249 166 161 144
4 265 166 164 163
4 189 54 71 12
4 196 54 11 72
4 189 54 102 71
4 196 54 72 101
4 189 54 101 102
4 263 166 144 167
4 265 166 159 164
4 263 166 167 168
4 265 166 168 159
4 184 174 183 5
4 187 183 36 193
4 184 183 26 5
4 183 193 26 36
4 174 175 25 4
4 171 175 169 24
4 175 183 25 37
4 175 169 24 4
4 174 175 4 169
4 29 257 14 1
4 255 252 32 33
4 254 33 253 266
4 172 173 169 17
4 270 277 266 49
4 277 266 49 77
4 267 266 77 81
4 267 254 266 81
4 284 255 266 252
4 78 277 278 279
4 308 188 209 195
4 293 266 277 267
4 284 253 252 266
4 267 254 117 259
4 254 81 33 266
4 306 185 179 171
4 316 275 280 302
4 159 168 274 145
4 279 275 280 79
4 275 280 79 136
4 274 280 136 135
4 260 245 259 146
4 274 273 280 158
4 257 256 13 10
4 76 256 51 261
4 14 257 29 270
4 255 257 29 10
4 270 255 29 266
4 240 237 9 32
4 255 266 252 33
4 255 266 33 29
4 240 256 10 22
4 211 195 209 73
4 195 209 73 53
4 188 209 53 74
4 188 182 48 176
4 188 176 15 195
4 173 169 17 3
4 182 173 47 16
4 180 172 46 17
4 170 176 2 16
4 284 237 255 252
4 298 172 173 169
4 170 173 3 169
4 186 181 18 172
4 172 169 4 17
4 174 183 5 25
4 183 174 295 175
4 186 172 46 180
4 174 175 183 25
4 285 203 191 202
4 223 208 28 8
4 237 255 252 32
4 240 239 256 22
4 240 255 32 10
4 240 10 257 255
4 223 240 286 237
4 240 286 237 255
4 223 239 9 31
4 234 237 252 41
4 240 237 32 255
4 237 252 41 32
4 171 169 3 24
4 309 177 176 195
4 318 201 196 216
4 170 173 176 16
4 287 184 183 193
4 170 173 16 3
4 174 172 4 18
4 181 174 18 172
4 174 172 169 4
4 170 298 173 169
4 289 174 181 172
4 194 184 193 6
4 181 184 19 5
4 184 193 6 26
4 184 183 193 26
4 287 207 194 193
4 289 174 172 169
4 289 295 174 169
4 218 208 8 30
4 194 193 27 6
4 207 194 193 27
4 192 184 6 19
4 287 194 184 193
4 204 218 30 208
4 223 240 237 9
4 240 294 256 239
4 223 218 21 237
4 223 237 21 9
4 207 194 27 7
4 223 286 218 237
4 204 194 7 20
4 222 207 28 208
4 192 282 204 194
4 270 266 29 49
4 270 277 49 78
4 272 257 51 14
4 270 255 257 29
4 240 292 257 256
4 204 208 7 194
4 204 208 30 7
4 192 194 20 6
4 192 194 6 184
4 196 177 11 54
4 15 11 177 0
4 170 178 23 2
4 177 176 195 15
4 177 176 15 2
4 178 185 171 52
4 178 171 23 52
4 179 171 38 175
4 171 175 24 38
4 170 171 3 23
4 170 171 169 3
4 295 179 183 175
4 289 287 183 295
4 179 183 37 187
4 179 171 39 38
4 38 37 179 175
4 185 171 52 39
4 186 181 191 45
4 204 282 192 202
4 181 184 5 174
4 192 202 44 20
4 186 203 58 45
4 181 174 5 18
4 203 191 202 44
4 181 45 19 191
4 19 181 192 184
4 186 45 18 181
4 289 186 181 191
4 298 180 173 172
4 289 192 191 181
4 204 192 194 20
4 287 192 184 194
4 192 191 44 202
4 192 181 19 191
4 192 191 19 44
4 186 190 46 56
4 182 173 16 176
4 180 173 17 47
4 182 176 16 48
4 180 172 17 173
4 186 46 172 18
4 289 186 285 180
4 297 188 182 190
4 186 190 180 46
4 186 199 56 57
4 190 180 46 47
4 210 188 94 74
4 182 190 47 180
4 182 180 47 173
4 182 190 48 47
4 188 182 190 48
4 210 205 94 188
4 297 180 190 182
4 282 208 204 194
4 223 218 208 8
4 223 218 282 208
4 204 228 43 30
4 223 218 8 21
4 204 43 20 30
4 43 228 204 202
4 204 192 20 202
4 228 204 281 234
4 238 239 40 50
4 51 256 76 13
4 256 13 51 257
4 272 256 51 257
4 296 238 206 221
4 241 238 221 68
4 262 247 88 261
4 241 238 68 62
4 247 261 62 88
4 203 228 59 43
4 30 204 234 218
4 253 234 252 41
4 21 30 234 218
4 234 204 30 228
4 234 228 30 42
4 234 218 237 21
4 253 228 42 61
4 284 253 234 252
4 203 228 281 235
4 234 237 41 21
4 281 204 228 202
4 286 234 218 237
4 170 309 171 178
4 197 179 63 64
4 185 179 171 39
4 185 179 39 63
4 170 178 171 23
4 178 185 52 71
4 178 177 12 2
4 189 177 54 12
4 201 189 102 71
4 170 2 177 178
4 206 187 36 193
4 197 179 64 65
4 187 183 37 36
4 37 179 65 38
4 37 183 179 175
4 65 179 37 187
4 303 187 193 183
4 295 187 183 179
4 207 208 282 194
4 207 206 35 36
4 206 187 66 36
4 200 206 66 67
4 207 206 36 193
4 207 193 36 27
4 238 35 222 206
4 303 193 296 287
4 207 208 7 28
4 207 208 194 7
4 223 239 31 222
4 304 241 261 256
4 282 208 207 222
4 238 69 35 206
4 222 207 206 35
4 222 207 35 28
4 239 256 22 50
4 241 256 50 261
4 239 222 34 31
4 240 239 22 9
4 238 239 222 34
4 223 240 9 239
4 241 247 261 62
4 221 206 67 69
4 224 241 82 87
4 200 206 187 66
4 294 222 238 239
4 35 69 238 34
4 188 195 53 209
4 188 195 15 53
4 188 176 48 15
4 205 48 190 55
4 205 94 48 55
4 238 239 34 40
4 304 224 247 241
4 296 222 207 206
4 69 206 238 221
4 238 221 68 69
4 62 50 241 238
4 238 239 50 256
4 229 209 104 225
4 48 94 205 188
4 205 190 93 55
4 297 188 176 182
4 199 205 93 214
4 297 180 173 298
4 201 189 101 102
4 196 216 101 72
4 189 178 71 185
4 189 178 12 71
4 189 178 177 12
4 196 177 195 11
4 170 309 177 176
4 305 262 97 261
4 292 272 257 256
4 51 256 272 261
4 75 79 276 279
4 305 261 97 51
4 279 270 14 78
4 279 270 78 277
4 293 279 277 270
4 272 270 257 14
4 186 199 57 58
4 186 203 45 191
4 235 228 60 59
4 203 191 44 45
4 203 228 43 202
4 203 202 43 44
4 235 228 61 60
4 253 235 228 61
4 215 59 235 91
4 235 203 228 59
4 281 228 203 202
4 235 59 215 203
4 253 266 33 252
4 253 252 33 41
4 253 235 61 89
4 228 281 253 234
4 254 235 89 236
4 253 234 41 42
4 253 234 42 228
4 215 235 90 91
4 214 199 92 93
4 214 219 93 109
4 59 58 215 203
4 236 215 235 90
4 186 285 288 199
4 186 199 58 203
4 186 199 190 56
4 199 190 56 93
4 92 58 215 91
4 199 215 58 203
4 186 285 203 191
4 186 203 285 199
4 241 247 62 87
4 241 221 82 68
4 241 50 62 261
4 50 256 241 238
4 296 238 222 206
4 294 238 256 239
4 303 200 221 206
4 200 197 84 65
4 197 187 179 65
4 198 197 63 86
4 197 185 63 179
4 306 178 185 171
4 303 200 187 197
4 295 179 175 171
4 170 298 169 171
4 314 189 185 178
4 295 171 175 169
4 200 221 67 83
4 200 197 65 187
4 224 221 83 82
4 200 187 65 66
4 200 221 206 67
4 212 200 197 84
4 303 206 193 187
4 201 196 216 101
4 211 196 72 216
4 211 195 73 11
4 308 211 195 209
4 196 189 54 101
4 309 177 196 189
4 196 189 177 54
4 211 216 72 119
4 230 211 80 119
4 225 209 100 73
4 211 196 11 72
4 211 196 195 11
4 279 280 122 79
4 302 279 275 280
4 279 272 75 14
4 293 278 279 280
4 122 278 78 95
4 278 277 78 95
4 279 272 14 270
4 276 272 98 75
4 302 276 279 272
4 51 98 305 272
4 276 275 121 150
4 269 275 150 155
4 326 272 256 261
4 276 279 272 75
4 276 279 79 275
4 121 275 79 136
4 79 275 121 276
4 225 209 104 100
4 230 211 120 80
4 225 211 73 120
4 225 211 209 73
4 318 211 196 195
4 318 211 216 196
4 254 253 70 89
4 254 259 118 117
4 236 259 139 118
4 33 81 254 70
4 283 254 235 253
4 236 235 89 90
4 290 233 215 236
4 284 234 237 252
4 212 197 86 84
4 198 212 197 86
4 212 200 84 83
4 224 241 221 82
4 224 200 83 221
4 315 212 200 197
4 223 240 239 294
4 315 198 212 197
4 224 212 116 83
4 224 241 87 247
4 224 247 87 140
4 224 212 83 200
4 217 232 116 123
4 232 212 312 217
4 296 221 241 238
4 241 294 256 304
4 223 294 239 222
4 201 198 185 85
4 198 212 86 115
4 198 197 185 63
4 306 198 197 185
4 198 185 85 63
4 201 216 103 101
4 201 196 101 189
4 201 189 71 185
4 213 198 85 114
4 201 185 71 85
4 319 244 243 226
4 278 267 96 106
4 271 267 117 259
4 267 254 81 117
4 267 277 96 77
4 267 277 77 266
4 292 270 266 255
4 284 267 254 266
4 236 215 90 110
4 236 254 259 118
4 290 235 236 215
4 283 236 235 254
4 236 254 118 89
4 89 235 254 253
4 291 259 236 254
4 233 215 110 109
4 233 245 219 124
4 214 219 205 93
4 299 214 219 205
4 220 219 130 108
4 219 205 93 108
4 299 220 205 219
4 233 214 215 109
4 93 205 199 190
4 214 199 215 92
4 214 215 109 92
4 288 214 205 199
4 290 214 199 215
4 297 182 176 173
4 282 192 202 191
4 289 181 184 192
4 271 267 106 117
4 273 278 280 151
4 278 267 277 96
4 278 277 95 96
4 278 280 151 122
4 278 279 280 122
4 302 279 270 272
4 262 251 111 112
4 304 262 261 247
4 232 247 140 112
4 232 224 140 247
4 269 262 105 276
4 316 269 275 276
4 305 276 272 98
4 262 251 105 111
4 276 105 305 262
4 88 97 261 76
4 262 251 112 247
4 262 247 112 88
4 210 209 99 104
4 220 210 94 107
4 210 209 74 99
4 210 188 74 209
4 297 188 195 176
4 229 225 104 149
4 248 258 160 162
4 104 209 229 210
4 220 210 107 104
4 242 229 149 225
4 246 220 133 229
4 233 245 124 147
4 245 219 124 129
4 245 259 146 147
4 245 130 219 129
4 233 236 259 139
4 233 236 110 215
4 290 233 219 214
4 299 220 229 210
4 328 254 259 291
4 300 278 267 293
4 233 236 139 110
4 233 219 109 124
4 233 214 109 219
4 236 259 291 233
4 233 259 147 139
4 233 245 147 259
4 217 198 115 212
4 217 143 250 232
4 226 201 216 103
4 217 198 114 115
4 226 201 103 113
4 213 201 113 85
4 213 201 85 198
4 320 250 217 227
4 232 224 212 116
4 232 224 116 140
4 312 232 247 224
4 250 232 143 128
4 232 251 112 128
4 232 251 247 112
4 227 213 127 126
4 217 232 123 143
4 227 213 134 127
4 217 227 126 213
4 315 217 198 213
4 317 213 198 201
4 243 213 134 227
4 217 232 212 116
4 250 143 217 227
4 217 212 115 116
4 217 227 143 126
4 312 212 232 224
4 312 250 251 232
4 217 213 126 114
4 217 213 114 198
4 273 280 158 151
4 273 268 165 158
4 260 273 165 154
4 274 273 158 268
4 271 278 151 106
4 300 273 278 280
4 271 259 131 146
4 291 260 245 259
4 277 266 293 270
4 170 297 176 173
4 271 273 151 278
4 117 131 259 125
4 271 278 106 267
4 260 271 273 154
4 271 273 154 151
4 274 280 135 158
4 159 274 136 145
4 274 275 136 280
4 274 268 158 168
4 269 276 150 275
4 269 276 105 150
4 264 269 155 275
4 250 269 251 132
4 305 302 272 276
4 269 262 251 105
4 269 251 132 105
4 313 262 247 251
4 321 226 201 216
4 299 220 210 205
4 220 219 108 205
4 220 210 205 94
4 246 220 245 130
4 219 130 245 220
4 220 229 104 133
4 220 229 210 104
4 220 205 108 94
4 250 227 142 143
4 250 269 132 155
4 250 251 128 132
4 243 250 227 142
4 250 232 128 251
4 264 250 155 269
4 313 250 269 251
4 315 217 212 198
4 242 258 137 160
4 242 230 120 137
4 230 225 120 211
4 248 310 242 258
4 308 211 230 318
4 231 230 138 119
4 230 211 119 216
4 308 229 225 209
4 258 230 137 144
4 258 167 165 268
4 165 167 258 162
4 249 258 144 230
4 263 268 168 167
4 242 258 230 137
4 263 274 168 268
4 300 260 273 268
4 321 231 216 230
4 318 201 189 196
4 242 225 149 120
4 242 230 225 120
4 310 242 258 230
4 248 229 156 149
4 310 242 230 225
4 242 310 248 229
4 258 165 248 268
4 260 248 165 268
4 248 242 160 258
4 246 229 133 156
4 246 260 248 152
4 248 242 229 149
4 248 242 149 160
4 243 227 134 142
4 243 250 142 153
4 226 216 148 103
4 231 244 148 161
4 320 243 213 226
4 226 213 113 134
4 226 213 201 113
4 244 243 157 163
4 249 265 244 166
4 243 226 157 134
4 313 264 269 250
4 320 217 213 227
4 134 213 243 226
4 249 263 166 144
4 244 243 226 157
4 264 244 163 243
4 244 226 148 157
4 231 226 216 148
4 264 275 316 269
4 163 244 264 265
4 231 230 119 216
4 231 216 119 148
4 249 230 144 138
4 231 244 226 148
4 310 249 230 258
4 321 231 244 226
4 249 231 161 244
4 321 249 244 231
4 246 245 146 141
4 260 271 146 259
4 154 146 271 131
4 300 259 260 291
4 152 165 248 162
4 300 260 271 273
4 311 248 268 258
4 260 273 268 165
4 246 248 229 156
4 246 220 130 133
4 246 248 156 152
4 301 260 268 248
4 246 260 152 146
4 246 260 146 245
4 299 245 220 219
4 130 141 245 246
4 220 245 299 246
4 301 246 245 260
4 249 263 144 258
4 275 159 265 274
4 263 258 268 167
4 263 258 167 144
4 307 274 268 273
4 136 274 159 275
4 265 319 249 244
4 264 275 155 159
4 264 319 244 243
4 264 265 164 163
4 265 244 166 163
4 265 263 168 166
4 274 265 168 159
4 316 265 274 275
4 264 250 153 155
4 264 243 153 250
4 264 265 159 164
4 316 275 264 265
4 264 243 163 153
4 264 265 275 159
4 320 264 250 243
4 244 319 264 265
4 249 231 138 161
4 249 265 166 263
4 249 231 230 138
4 161 166 244 163
4 321 230 249 231
4 311 249 258 263
4 282 234 204 218
4 204 208 282 218
4 223 282 218 286
4 292 270 255 257
4 253 281 228 235
4 285 215 203 235
4 290 233 214 215
4 292 272 270 257
4 316 319 263 265
4 285 199 203 215
4 241 296 304 224
4 313 269 276 262
4 284 254 253 266
4 315 200 312 303
4 307 274 273 280
4 241 221 296 224
4 304 241 247 261
4 293 278 277 279
4 293 278 267 277
4 300 271 278 273
4 313 269 262 251
4 302 276 275 279
4 300 271 259 267
4 303 200 206 187
4 249 319 265 263
4 291 233 259 245
4 299 245 290 291
4 311 263 258 268
4 186 288 190 199
4 289 186 172 181
4 289 181 174 184
4 301 246 260 248
4 288 199 205 190
4 297 210 188 205
4 301 246 248 229
4 306 197 187 179
4 309 189 178 177
4 196 177 309 195
4 209 188 308 210
4 314 201 198 185
4 321 231 226 216
4 308 229 209 210
4 306 197 179 185
4 310 242 225 229
4 308 225 211 209
4 317 226 213 201
4 320 243 250 227
4 320 243 227 213
4 307 263 268 274
4 312 250 217 320
4 314 201 185 189
4 318 230 216 211
4 312 232 251 247
4 316 319 265 264
4 313 320 264 250
4 316 265 263 274
4 299 246 229 220
4 311 319 249 263
4 300 311 268 307
4 244 249 321 319
4 303 224 221 200
4 283 281 253 235
4 236 235 290 283
4 323 285 281 283
4 325 311 316 319
4 284 283 281 253
4 282 285 191 202
4 285 283 235 281
4 285 281 235 203
4 289 186 191 285
4 285 281 203 202
4 282 285 202 281
4 289 180 288 298
4 297 190 205 188
4 296 193 303 206
4 289 323 285 282
4 289 287 192 184
4 234 286 282 281
4 282 281 202 204
4 289 282 191 192
4 282 286 234 218
4 289 282 285 191
4 289 298 295 169
4 308 310 225 229
4 297 308 195 188
4 310 230 308 225
4 324 318 308 310
4 301 308 229 310
4 318 309 195 196
4 324 301 310 308
4 186 190 288 180
4 297 299 210 205
4 297 308 188 210
4 290 288 199 214
4 289 298 172 180
4 284 293 267 266
4 302 293 279 280
4 323 286 281 282
4 300 259 328 267
4 280 316 307 274
4 303 315 200 197
4 174 169 295 175
4 289 183 174 295
4 289 174 183 184
4 306 309 178 171
4 170 298 171 309
4 301 310 229 248
4 290 245 299 219
4 311 310 248 258
4 299 301 308 229
4 289 323 282 287
4 263 319 316 311
4 311 310 258 249
4 307 316 263 274
4 311 301 268 248
4 311 301 248 310
4 289 322 295 298
4 267 278 300 271
4 300 293 280 278
4 300 301 260 268
4 291 301 245 260
4 327 324 291 300
4 307 300 293 280
4 328 327 284 283
4 320 319 243 226
4 315 320 312 217
4 217 250 312 232
4 317 319 226 321
4 320 319 264 243
4 320 316 264 319
4 313 312 250 251
4 302 313 316 276
4 304 313 247 312
4 313 312 251 247
4 313 316 276 269
4 313 320 250 312
4 327 307 302 316
4 313 316 269 264
4 313 320 316 264
4 325 313 312 320
4 299 288 214 205
4 324 291 300 301
4 324 300 311 301
4 290 288 285 199
4 291 236 290 283
4 290 285 215 199
4 290 285 235 215
4 290 285 283 235
4 323 290 285 283
4 317 320 213 226
4 315 213 320 217
4 318 309 196 189
4 308 309 324 297
4 315 312 212 217
4 312 200 315 212
4 314 315 198 317
4 325 304 312 313
4 325 317 319 320
4 315 317 213 198
4 320 213 315 317
4 325 313 320 316
4 325 320 319 316
4 324 314 309 318
4 321 318 216 201
4 314 318 189 309
4 230 211 308 225
4 308 230 310 318
4 249 230 321 310
4 249 310 321 311
4 314 318 201 189
4 318 308 211 195
4 318 308 195 309
4 325 303 315 312
4 325 327 294 304
4 296 282 207 222
4 294 296 241 238
4 304 312 247 224
4 327 307 316 311
4 304 313 262 247
4 326 304 262 261
4 302 293 270 279
4 305 313 276 262
4 327 307 300 293
4 302 316 275 276
4 292 302 293 270
4 326 256 304 261
4 326 304 313 262
4 280 275 316 274
4 307 316 280 302
4 314 309 189 178
4 325 321 311 319
4 325 321 319 317
4 314 317 198 201
4 306 315 197 198
4 321 314 201 317
4 306 295 309 171
4 306 295 171 179
4 299 308 210 229
4 299 301 229 246
4 297 299 308 210
4 299 290 219 214
4 299 290 214 288
4 299 245 301 246
4 288 290 324 299
4 324 311 310 301
4 287 282 194 207
4 323 282 296 286
4 256 294 241 238
4 286 296 222 282
4 303 296 224 312
4 322 287 295 303
4 296 304 224 312
4 322 306 303 295
4 200 224 312 303
4 325 296 312 304
4 306 187 295 179
4 303 296 206 221
4 312 224 200 212
4 303 296 221 224
4 287 303 193 183
4 303 295 187 183
4 306 303 197 315
4 306 314 315 198
4 306 314 198 185
4 295 187 306 303
4 306 303 187 197
4 322 309 295 298
4 306 314 185 178
4 306 314 178 309
4 289 287 282 192
4 287 303 183 295
4 193 207 296 287
4 289 183 287 184
4 287 282 192 194
4 287 296 282 207
4 296 207 193 206
4 322 287 303 296
4 325 294 296 304
4 204 234 282 281
4 238 222 294 296
4 223 282 222 208
4 296 282 323 287
4 327 302 313 316
4 326 327 313 304
4 284 286 234 281
4 223 222 282 286
4 289 298 169 172
4 306 325 314 322
4 190 180 297 288
4 298 295 169 171
4 170 297 309 176
4 298 295 171 309
4 324 290 288 323
4 289 295 322 287
4 323 290 288 285
4 322 306 309 314
4 297 308 309 195
4 297 309 176 195
4 205 190 297 288
4 173 180 297 182
4 297 298 288 180
4 297 299 205 288
4 322 297 309 298
4 322 297 298 288
4 170 297 298 309
4 324 309 308 318
4 321 310 324 311
4 170 297 173 298
4 324 299 301 308
4 292 302 270 272
4 292 293 266 270
4 240 292 286 255
4 284 292 255 286
4 326 305 272 261
4 240 294 286 292
4 284 292 293 266
4 323 284 283 281
4 307 311 263 316
4 327 300 311 324
4 307 311 268 263
4 323 294 292 286
4 307 300 273 268
4 268 311 300 301
4 327 292 302 293
4 307 300 280 273
4 307 302 280 293
4 290 233 245 219
4 245 233 290 291
4 260 259 300 271
4 291 300 301 260
4 259 254 328 267
4 328 327 283 291
4 328 300 267 293
4 301 245 299 291
4 291 283 254 236
4 290 236 291 233
4 321 318 230 216
4 321 317 201 226
4 321 314 318 201
4 321 319 226 244
4 226 319 317 320
4 321 318 310 230
4 321 311 319 249
4 324 310 321 318
4 325 314 317 315
4 284 281 234 253
4 284 292 266 255
4 284 292 323 327
4 284 283 253 254
4 284 286 237 234
4 284 286 255 237
4 328 284 293 267
4 328 284 267 254
4 241 296 294 304
4 294 286 296 222
4 240 294 292 256
4 304 256 326 294
4 223 240 294 286
4 326 327 292 302
4 223 294 222 286
4 305 105 276 98
4 105 97 305 262
4 305 302 276 313
4 305 272 261 51
4 326 292 272 302
4 326 305 313 302
4 323 294 286 296
4 325 321 317 314
4 295 309 322 306
4 306 303 325 322
4 325 315 317 320
4 325 315 320 312
4 325 303 312 296
4 324 321 314 318
4 324 290 327 291
4 289 323 288 285
4 324 297 288 299
4 323 284 281 286
4 323 282 281 285
4 327 307 293 302
4 327 284 292 293
4 324 297 299 308
4 324 291 301 299
4 324 322 297 309
4 324 322 288 297
4 324 322 309 314
4 325 324 314 322
4 323 324 322 288
4 311 300 327 307
4 326 327 294 292
4 292 294 323 327
4 323 327 322 324
4 325 327 324 322
4 328 327 300 293
4 290 283 327 291
4 314 325 306 315
4 325 327 313 316
4 325 327 304 313
4 322 294 296 325
4 325 322 303 296
4 325 327 311 324
4 325 303 306 315
4 325 327 316 311
4 311 321 325 324
4 325 324 321 314
4 323 327 283 284
4 323 292 284 286
4 327 283 290 323
4 289 288 323 322
4 289 323 287 322
4 290 291 324 299
4 327 290 324 323
4 323 322 296 287
4 296 294 322 323
4 322 327 294 325
4 294 327 322 323
4 326 305 261 262
4 326 327 304 294
4 326 294 256 292
4 326 327 302 313
4 326 305 302 272
4 326 305 262 313
4 326 292 256 272
4 328 291 283 254
4 328 259 300 291
4 328 284 254 283
4 328 327 293 284
4 328 327 291 300
4 168 265 274 263
4 186 288 285 180
4 170 2 176 177
4 170 309 178 177
4 289 186 180 172
4 240 10 256 257
4 240 292 255 257
4 223 222 28 208
4 223 222 31 28
4 289 180 285 288
4 289 298 288 322
3 1 10 13 
3 11 0 15 
3 15 2 16 
3 16 3 17 
3 17 4 18 
3 11 15 53 
3 9 22 10 
3 3 2 23 
3 4 3 24 
3 5 4 25 
3 6 5 26 
3 7 6 27 
3 8 7 28 
3 1 14 29 
3 43 44 20 
3 9 8 31 
3 2 0 12 
3 8 9 21 
3 0 11 12 
3 39 63 64 
3 1 13 14 
3 13 22 50 
3 6 7 20 
3 0 2 15 
3 5 6 19 
3 2 3 16 
3 17 46 47 
3 3 4 17 
3 18 45 46 
3 4 5 18 
3 7 8 30 
3 76 50 88 
3 18 5 19 
3 21 41 42 
3 19 6 20 
3 9 10 32 
3 20 7 30 
3 13 10 22 
3 2 12 23 
3 12 52 23 
3 3 23 24 
3 4 24 25 
3 5 25 26 
3 36 66 67 
3 6 26 27 
3 31 8 28 
3 26 36 27 
3 27 35 28 
3 7 27 28 
3 10 1 29 
3 42 43 30 
3 21 9 32 
3 8 21 30 
3 29 14 49 
3 22 9 31 
3 28 34 31 
3 29 33 32 
3 10 29 32 
3 21 32 41 
3 22 31 40 
3 26 25 37 
3 49 14 78 
3 34 28 35 
3 25 24 38 
3 35 27 36 
3 36 26 37 
3 24 23 39 
3 37 25 38 
3 12 11 54 
3 38 24 39 
3 14 13 51 
3 34 35 69 
3 31 34 40 
3 33 77 81 
3 32 33 41 
3 18 19 45 
3 41 33 70 
3 30 21 42 
3 20 30 43 
3 74 48 94 
3 19 20 44 
3 19 44 45 
3 15 16 48 
3 45 57 46 
3 17 18 46 
3 45 44 58 
3 16 17 47 
3 16 47 48 
3 47 46 56 
3 33 29 77 
3 22 40 50 
3 40 34 68 
3 13 50 76 
3 55 56 93 
3 11 53 73 
3 39 23 52 
3 15 48 74 
3 39 52 63 
3 52 12 71 
3 36 37 66 
3 48 47 55 
3 73 53 100 
3 55 47 56 
3 75 51 98 
3 44 43 59 
3 56 46 57 
3 43 42 60 
3 42 41 61 
3 57 45 58 
3 91 92 58 
3 58 44 59 
3 59 43 60 
3 58 59 91 
3 60 42 61 
3 91 59 90 
3 50 40 62 
3 63 85 86 
3 37 38 65 
3 52 71 85 
3 38 39 64 
3 64 63 86 
3 38 64 65 
3 65 84 66 
3 37 65 66 
3 62 68 87 
3 66 83 67 
3 35 36 67 
3 34 69 68 
3 62 40 68 
3 35 67 69 
3 69 67 82 
3 61 41 70 
3 60 61 90 
3 54 72 101 
3 12 54 71 
3 54 11 72 
3 63 52 85 
3 72 11 73 
3 53 15 74 
3 55 93 94 
3 14 51 75 
3 72 73 80 
3 51 13 76 
3 62 87 88 
3 49 78 95 
3 29 49 77 
3 14 75 78 
3 70 33 81 
3 75 79 78 
3 95 78 122 
3 75 98 121 
3 101 72 119 
3 73 100 120 
3 77 49 96 
3 61 70 89 
3 80 120 137 
3 68 69 82 
3 65 64 84 
3 83 84 116 
3 67 83 82 
3 84 83 66 
3 71 54 102 
3 114 115 86 
3 85 113 114 
3 84 64 86 
3 68 82 87 
3 82 116 87 
3 50 62 88 
3 51 76 97 
3 56 57 92 
3 70 81 89 
3 81 117 118 
3 61 89 90 
3 89 139 90 
3 59 60 90 
3 91 90 110 
3 92 57 58 
3 56 92 93 
3 92 109 93 
3 48 55 94 
3 53 74 99 
3 81 77 96 
3 95 106 96 
3 49 95 96 
3 76 88 97 
3 88 87 112 
3 51 97 98 
3 97 88 111 
3 74 94 99 
3 94 93 108 
3 53 99 100 
3 99 94 107 
3 122 151 95 
3 85 71 102 
3 105 150 98 
3 101 103 102 
3 54 101 102 
3 85 102 113 
3 119 148 101 
3 100 99 104 
3 104 149 100 
3 148 103 101 
3 98 97 105 
3 104 107 133 
3 81 96 117 
3 104 99 107 
3 89 118 139 
3 107 94 108 
3 125 131 146 
3 109 92 110 
3 108 93 109 
3 124 129 109 
3 92 91 110 
3 105 97 111 
3 134 142 127 
3 111 88 112 
3 105 111 132 
3 82 83 116 
3 102 103 113 
3 103 134 113 
3 86 85 114 
3 140 116 123 
3 114 126 115 
3 84 86 115 
3 112 87 140 
3 84 115 116 
3 96 106 117 
3 109 110 124 
3 89 81 118 
3 117 106 131 
3 72 80 119 
3 80 73 120 
3 79 121 136 
3 154 131 106 
3 79 75 121 
3 135 145 158 
3 132 155 105 
3 78 79 122 
3 149 120 100 
3 114 113 127 
3 111 112 128 
3 116 115 123 
3 118 117 125 
3 110 139 124 
3 107 108 130 
3 139 147 124 
3 128 123 143 
3 123 115 126 
3 126 114 127 
3 112 140 128 
3 147 125 146 
3 108 109 129 
3 108 129 130 
3 129 141 130 
3 125 117 131 
3 122 79 135 
3 128 143 132 
3 111 128 132 
3 141 133 130 
3 119 80 138 
3 107 130 133 
3 142 126 127 
3 127 113 134 
3 151 106 95 
3 132 153 155 
3 137 149 160 
3 150 121 98 
3 135 79 136 
3 145 135 136 
3 133 156 104 
3 80 137 138 
3 157 134 103 
3 137 144 138 
3 139 110 90 
3 124 147 141 
3 87 116 140 
3 123 128 140 
3 147 146 141 
3 123 126 143 
3 148 138 161 
3 142 153 143 
3 126 142 143 
3 136 150 159 
3 142 134 157 
3 146 131 154 
3 156 133 152 
3 160 149 156 
3 153 157 163 
3 145 159 168 
3 147 118 125 
3 139 118 147 
3 141 129 124 
3 119 138 148 
3 161 157 148 
3 137 120 149 
3 141 146 152 
3 136 121 150 
3 155 159 150 
3 122 135 151 
3 158 165 154 
3 156 149 104 
3 151 154 106 
3 132 143 153 
3 148 157 103 
3 152 146 154 
3 151 158 154 
3 155 150 105 
3 133 141 152 
3 153 142 157 
3 159 155 164 
3 151 135 158 
3 145 136 159 
3 157 161 163 
3 144 137 160 
3 145 168 158 
3 156 152 162 
3 138 144 161 
3 164 166 159 
3 152 154 165 
3 160 156 162 
3 144 160 167 
3 163 164 153 
3 161 144 166 
3 163 166 164 
3 164 155 153 
3 162 152 165 
3 167 162 165 
3 144 167 166 
3 163 161 166 
3 166 168 159 
3 160 162 167 
3 168 167 158 
3 167 165 158 
3 166 167 168 
CELL_TYPES 1720
10
10
10
10
10
10
10
10
10
10
10
10
10
10
10
10
10
10
10
10
10
10
10
10
10
10
10
10
10
10
10
10
10
10
10
10
10
10
10
10
10
10
10
10
10
10
10
10
10
10
10
10
10
10
10
10
10
10
10
10
10
10
10
10
10
10
10
10
10
10
10
10
10
10
10
10
10
10
10
10
10
10
10
10
10
10
10
10
10
10
10
10
10
10
10
10
10
10
10
10
10
10
10
10
10
10
10
10
10
10
10
10
10
10
10
10
10
10
10
10
10
10
10
10
10
10
10
10
10
10
10
10
10
10
10
10
10
10
10
10
10
10
10
10
10
10
10
10
10
10
10
10
10
10
10
10
10
10
10
10
10
10
10
10
10
10
10
10
10
10
10
10
10
10
10
10
10
10
10
10
10
10
10
10
10
10
10
10
10
10
10
10
10
10
10
10
10
10
10
10
10
10
10
10
10
10
10
10
10
10
10
10
10
10
10
10
10
10
10
10
10
10
10
10
10
10
10
10
10
10
10
10
10
10
10
10
10
10
10
10
10
10
10
10
10
10
10
10
10
10
10
10
10
10
10
10
10
10
10
10
10
10
10
10
10
10
10
10
10
10
10
10
10
10
10
10
10
10
10
10
10
10
10
10
10
10
10
10
10
10
10
10
10
10
10
10
10
10
10
10
10
10
10
10
10
10
10
10
10
10
10
10
10
10
10
10
10
10
10
10
10
10
10
10
10
10
10
10
10
10
10
10
10
10
10
10
10
10
10
10
10
10
10
10
10
10
10
10
10
10
10
10
10
10
10
10
10
10
10
10
10
10
10
10
10
10
10
10
10
10
10
10
10
10
10
10
10
10
10
10
10
10
10
10
10
10
10
10
10
10
10
10
10
10
10
10
10
10
10
10
10
10
10
10
10
10
10
10
10
10
10
10
10
10
10
10
10
10
10
10
10
10
10
10
10
10
10
10
10
10
10
10
10
10
10
10
10
10
10
10
10
10
10
10
10
10
10
10
10
10
10
10
10
10
10
10
10
10
10
10
10
10
10
10
10
10
10
10
10
10
10
10
10
10
10
10
10
10
10
10
10
10
10
10
10
10
10
10
10
10
10
10
10
10
10
10
10
10
10
10
10
10
10
10
10
10
10
10
10
10
10
10
10
10
10
10
10
10
10
10
10
10
10
10
10
10
10
10
10
10
10
10
10
10
10
10
10
10
10
10
10
10
10
10
10
10
10
10
10
10
10
10
10
10
10
10
10
10
10
10
10
10
10
10
10
10
10
10
10
10
10
10
10
10
10
10
10
10
10
10
10
10
10
10
10
10
10
10
10
10
10
10
10
10
10
10
10
10
10
10
10
10
10
10
10
10
10
10
10
10
10
10
10
10
10
10
10
10
10
10
10
10
10
10
10
10
10
10
10
10
10
10
10
10
10
10
10
10
10
10
10
10
10
10
10
10
10
10
10
10
10
10
10
10
10
10
10
10
10
10
10
10
10
10
10
10
10
10
10
10
10
10
10
10
10
10
10
10
10
10
10
10
10
10
10
10
10
10
10
10
10
10
10
10
10
10
10
10
10
10
10
10
10
10
10
10
10
10
10
10
10
10
10
10
10
10
10
10
10
10
10
10
10
10
10
10
10
10
10
10
10
10
10
10
10
10
10
10
10
10
10
10
10
10
10
10
10
10
10
10
10
10
10
10
10
10
10
10
10
10
10
10
10
10
10
10
10
10
10
10
10
10
10
10
10
10
10
10
10
10
10
10
10
10
10
10
10
10
10
10
10
10
10
10
10
10
10
10
10
10
10
10
10
10
10
10
10
10
10
10
10
10
10
10
10
10
10
10
10
10
10
10
10
10
10
10
10
10
10
10
10
10
10
10
10
10
10
10
10
10
10
10
10
10
10
10
10
10
10
10
10
10
10
10
10
10
10
10
10
10
10
10
10
10
10
10
10
10
10
10
10
10
10
10
10
10
10
10
10
10
10
10
10
10
10
10
10
10
10
10
10
10
10
10
10
10
10
10
10
10
10
10
10
10
10
10
10
10
10
10
10
10
10
10
10
10
10
10
10
10
10
10
10
10
10
10
10
10
10
10
10
10
10
10
10
10
10
10
10
10
10
10
10
10
10
10
10
10
10
10
10
10
10
10
10
10
10
10
10
10
10
10
10
10
10
10
10
10
10
10
10
10
10
10
10
10
10
10
10
10
10
10
10
10
10
10
10
10
10
10
10
10
10
10
10
10
10
10
10
10
10
10
10
10
10
10
10
10
10
10
10
10
10
10
10
10
10
10
10
10
10
10
10
10
10
10
10
10
10
10
10
10
10
10
10
10
10
10
10
10
10
10
10
10
10
10
10
10
10
10
10
10
10
10
10
10
10
10
10
10
10
10
10
10
10
10
10
10
10
10
10
10
10
10
10
10
10
10
10
10
10
10
10
10
10
10
10
10
10
10
10
10
10
10
10
10
10
10
10
10
10
10
10
10
10
10
10
10
10
10
10
10
10
10
10
10
10
10
10
10
10
10
10
10
10
10
10
10
10
10
10
10
10
10
10
10
10
10
10
10
10
10
10
10
10
10
10
10
10
10
10
10
10
10
10
10
10
10
10
10
10
10
10
10
10
10
10
10
10
10
10
10
10
10
10
10
10
10
10
10
10
10
10
10
10
10
10
10
10
10
10
10
10
10
10
10
10
10
10
10
10
10
10
10
10
10
10
10
10
10
10
10
10
10
10
10
10
10
10
10
10
10
10
10
10
10
10
10
10
10
10
10
10
10
10
10
10
10
10
10
10
10
10
10
10
10
10
10
10
10
10
10
10
10
10
10
10
10
10
10
10
10
10
10
10
10
10
10
10
10
10
10
10
10
10
10
10
10
10
10
10
10
10
10
10
10
10
10
10
10
10
10
10
10
10
10
10
10
10
10
10
10
10
10
10
10
10
10
10
10
10
10
10
10
10
10
10
10
10
10
10
10
10
10
10
10
10
10
10
10
10
10
10
10
10
10
10
10
10
10
10
10
10
10
10
10
10
10
10
10
10
10
10
10
10
10
10
10
10
10
10
10
10
10
10
10
10
10
10
10
10
10
10
10
10
10
10
10
10
10
10
10
10
10
10
10
5
5
5
5
5
5
5
5
5
5
5
5
5
5
5
5
5
5
5
5
5
5
5
5
5
5
5
5
5
5
5
5
5
5
5
5
5
5
5
5
5
5
5
5
5
5
5
5
5
5
5
5
5
5
5
5
5
5
5
5
5
5
5
5
5
5
5
5
5
5
5
5
5
5
5
5
5
5
5
5
5
5
5
5
5
5
5
5
5
5
5
5
5
5
5
5
5
5
5
5
5
5
5
5
5
5
5
5
5
5
5
5
5
5
5
5
5
5
5
5
5
5
5
5
5
5
5
5
5
5
5
5
5
5
5
5
5
5
5
5
5
5
5
5
5
5
5
5
5
5
5
5
5
5
5
5
5
5
5
5
5
5
5
5
5
5
5
5
5
5
5
5
5
5
5
5
5
5
5
5
5
5
5
5
5
5
5
5
5
5
5
5
5
5
5
5
5
5
5
5
5
5
5
5
5
5
5
5
5
5
5
5
5
5
5
5
5
5
5
5
5
5
5
5
5
5
5
5
5
5
5
5
5
5
5
5
5
5
5
5
5
5
5
5
5
5
5
5
5
5
5
5
5
5
5
5
5
5
5
5
5
5
5
5
5
5
5
5
5
5
5
5
5
5
5
5
5
5
5
5
5
5
5
5
5
5
5
5
5
5
5
5
5
5
5
5
5
5
5
5
5
5
5
5
5
5
5
5
5
5
5
5
5
5
5
5
5
5
5
5
5
5
5
5
5
5
5
5
5
5
5
5
5
5
CELL_DATA 1720
SCALARS scalars float
LOOKUP_TABLE default
1
1
1
1
1
1
1
1
1
1
1
1
1
1
1
1
1
1
1
1
1
1
1
1
1
1
1
1
1
1
1
1
1
1
1
1
1
1
1
1
1
1
1
1
1
1
1
1
1
1
1
1
1
1
1
1
1
1
1
1
1
1
1
1
1
1
1
1
1
1
1
1
1
1
1
1
1
1
1
1
1
1
1
1
1
1
1
1
1
1
1
1
1
1
1
1
1
1
1
1
1
1
1
1
1
1
1
1
1
1
1
1
1
1
1
1
1
1
1
1
1
1
1
1
1
1
1
1
1
1
1
1
1
1
1
1
1
1
1
1
1
1
1
1
1
1
1
1
1
1
1
1
1
1
1
1
1
1
1
1
1
1
1
1
1
1
1
1
1
1
1
1
1
1
1
1
1
1
1
1
1
1
1
1
1
1
1
1
1
1
1
1
1
1
1
1
1
1
1
1
1
1
1
1
1
1
1
1
1
1
1
1
1
1
1
1
1
1
1
1
1
1
1
1
1
1
1
1
1
1
1
1
1
1
1
1
1
1
1
1
1
1
1
1
1
1
1
1
1
1
1
1
1
1
1
1
1
1
1
1
1
1
1
1
1
1
1
1
1
1
1
1
1
1
1
1
1
1
1
1
1
1
1
1
1
1
1
1
1
1
1
1
1
1
1
1
1
1
1
1
1
1
1
1
1
1
1
1
1
1
1
1
1
1
1
1
1
1
1
1
1
1
1
1
1
1
1
1
1
1
1
1
1
1
1
1
1
1
1
1
1
1
1
1
1
1
1
1
1
1
1
1
1
1
1
1
1
1
1
1
1
1
1
1
1
1
1
1
1
1
1
1
1
1
1
1
1
1
1
1
1
1
1
1
1
1
1
1
1
1
1
1
1
1
1
1
1
1
1
1
1
1
1
1
1
1
1
1
1
1
1
1
1
1
1
1
1
1
1
1
1
1
1
1
1
1
1
1
1
1
1
1
1
1
1
1
1
1
1
1
1
1
1
1
1
1
1
1
1
1
1
1
1
1
1
1
1
1
1
1
1
1
1
1
1
1
1
1
1
1
1
1
1
1
1
1
1
1
1
1
1
1
1
1
1
1
1
1
1
1
1
1
1
1
1
1
1
1
1
1
1
1
1
1
1
1
1
1
1
1
1
1
1
1
1
1
1
1
1
1
1
1
1
1
1
1
1
1
1
1
1
1
1
1
1
1
1
1
1
1
1
1
1
1
1
1
1
1
1
1
1
1
1
1
1
1
1
1
1
1
1
1
1
1
1
1
1
1
1
1
1
1
1
1
1
1
1
1
1
1
1
1
1
1
1
1
1
1
1
1
1
1
1
1
1
1
1
1
1
1
1
1
1
1
1
1
1
1
1
1
1
1
1
1
1
1
1
1
1
1
1
1
1
1
1
1
1
1
1
1
1
1
1
1
1
1
1
1
1
1
1
1
1
1
1
1
1
1
1
1
1
1
1
1
1
1
1
1
1
1
1
1
1
1
1
1
1
1
1
1
1
1
1
1
1
1
1
1
1
1
1
1
1
1
1
1
1
1
1
1
1
1
1
1
1
1
1
1
1
1
1
1
1
1
1
1
1
1
1
1
1
1
1
1
1
1
1
1
1
1
1
1
1
1
1
1
1
1
1
1
1
1
1
1
1
1
1
1
1
1
1
1
1
1
1
1
1
1
1
1
1
1
1
1
1
1
1
1
1
1
1
1
1
1
1
1
1
1
1
1
1
1
1
1
1
1
1
1
1
1
1
1
1
1
1
1
1
1
1
1
1
1
1
1
1
1
1
1
1
1
1
1
1
1
1
1
1
1
1
1
1
1
1
1
1
1
1
1
1
1
1
1
1
1
1
1
1
1
1
1
1
1
1
1
1
1
1
1
1
1
1
1
1
1
1
1
1
1
1
1
1
1
1
1
1
1
1
1
1
1
1
1
1
1
1
1
1
1
1
1
1
1
1
1
1
1
1
1
1
1
1
1
1
1
1
1
1
1
1
1
1
1
1
1
1
1
1
1
1
1
1
1
1
1
1
1
1
1
1
1
1
1
1
1
1
1
1
1
1
1
1
1
1
1
1
1
1
1
1
1
1
1
1
1
1
1
1
1
1
1
1
1
1
1
1
1
1
1
1
1
1
1
1
1
1
1
1
1
1
1
1
1
1
1
1
1
1
1
1
1
1
1
1
1
1
1
1
1
1
1
1
1
1
1
1
1
1
1
1
1
1
1
1
1
1
1
1
1
1
1
1
1
1
1
1
1
1
1
1
1
1
1
1
1
1
1
1
1
1
1
1
1
1
1
1
1
1
1
1
1
1
1
1
1
1
1
1
1
1
1
1
1
1
1
1
1
1
1
1
1
1
1
1
1
1
1
1
1
1
1
1
1
1
1
1
1
1
1
1
1
1
1
1
1
1
1
1
1
1
1
1
1
1
1
1
1
1
1
1
1
1
1
1
1
1
1
1
1
1
1
1
1
1
1
1
1
1
1
1
1
1
1
1
1
1
1
1
1
1
1
1
1
1
1
1
1
1
1
1
1
1
1
1
1
1
1
1
1
1
1
1
1
1
1
1
1
1
1
1
1
1
1
1
1
1
1
1
1
1
1
1
1
1
1
1
1
1
1
1
1
1
1
1
1
1
1
1
1
1
1
1
1
1
1
1
1
1
1
1
1
1
1
1
1
1
1
1
1
1
1
1
1
1
1
1
1
1
1
1
1
1
1
1
1
1
1
1
1
1
1
1
1
1
1
1
1
1
1
1
1
1
1
1
1
1
1
1
1
1
1
1
1
1
1
1
1
1
1
1
1
1
1
1
1
1
1
1
1
1
1
1
1
1
1
1
1
1
1
1
1
1
1
1
1
1
1
1
1
1
1
1
1
1
1
1
1
1
1
1
1
1
1
1
1
1
1
1
1
1
1
1
1
1
1
1
1
1
1
1
1
1
1
1
1
1
1
1
1
1
1
1
1
1
1
1
1
1
1
1
1
1
1
1
1
1
1
1
1
1
1
1
1
1
1
1
1
1
1
1
1
1
1
1
1
1
1
1
1
1
1
1
1
1
1
1
1
1
1
1
1
1
1
1
1
1
1
1
1
1
1
1
1
1
1
1
1
5
5
5
5
5
5
5
5
5
5
5
5
5
5
5
5
5
5
5
5
5
5
5
5
5
5
5
5
5
5
5
5
5
5
5
5
5
5
5
5
5
5
5
5
5
5
5
5
5
5
5
5
5
5
5
5
5
5
5
5
5
5
5
5
5
5
5
5
5
5
5
5
5
5
5
5
5
5
5
5
5
5
5
5
5
5
5
5
5
5
5
5
5
5
5
5
5
5
5
5
5
5
5
5
5
5
5
5
5
5
5
5
5
5
5
5
5
5
5
5
5
5
5
5
5
5
5
5
5
5
5
5
5
5
5
5
5
5
5
5
5
5
5
5
5
5
5
5
5
5
5
5
5
5
5
5
5
5
5
5
5
5
5
5
5
5
5
5
5
5
5
5
5
5
5
5
5
5
5
5
5
5
5
5
5
5
5
5
5
5
5
5
5
5
5
5
5
5
5
5
5
5
5
5
5
5
5
5
5
5
5
5
5
5
5
5
5
5
5
5
5
5
5
5
5
5
5
5
5
5
5
5
5
5
5
5
5
5
5
5
5
5
5
5
5
5
5
5
5
5
5
5
5
5
5
5
5
5
5
5
5
5
5
5
5
5
5
5
5
5
5
5
5
5
5
5
5
5
5
5
5
5
5
5
5
5
5
5
5
5
5
5
5
5
5
5
5
5
5
5
5
5
5
5
5
5
5
5
5
5
5
5
5
5
5
5
5
5
5
5
5
5
5
5
5
5
5
5
5
5
5
5
5
5
