<?xml version="1.0"?>
<VTKFile type="UnstructuredGrid" version="1.0" byte_order="LittleEndian">
  <UnstructuredGrid>
    <Piece NumberOfPoints="329" NumberOfCells="1720">
      <Points>
        <DataArray type="Float64" NumberOfComponents="3" format="ascii">
          -6.123233995736765e-17 -7.498798913309285e-33 -1.0
          -6.123233995736765e-17 -7.498798913309285e-33 1.0
          -0.3090169956623031 -3.7843667461997095e-17 -0.9510565158768662
          -0.5877852531137944 -7.19829328811825e-17 -0.8090169937782226
          -0.8090169947727663 -9.90760073104279e-17 -0.5877852517449222
          -0.9510565163997282 -1.1647083186171592e-16 -0.30901699405309946
          -1.0 -1.224646799147353e-16 1.9317880628477724e-14
          -0.9510565163997162 -1.1647083186171444e-16 0.30901699405313654
          -0.8090169947727408 -9.907600731042478e-17 0.5877852517449573
          -0.587785253113764 -7.198293288117878e-17 0.8090169937782445
          -0.3090169956622829 -3.7843667461994624e-17 0.9510565158768729
          0.20605232544926172 -3.437714769266085e-07 -0.9785409747051133
          -0.09686732155666453 -0.24396726220782738 -0.9649335194640378
          -0.09852470072471987 -0.24310642130206112 0.964982979781928
          0.20611149132143508 0.00019319913968837972 0.9785284951493984
          -0.09686209418928168 0.2439259150988916 -0.9649444971874988
          -0.42317660563433906 0.2550133164652757 -0.8694192135380838
          -0.6805406158331747 0.2529911924840774 -0.6876481125742202
          -0.8596544436754563 0.2539410326509124 -0.44329244230556186
          -0.954538744913478 0.25521932587437807 -0.154009350882438
          -0.9545387449134716 0.25521932587437807 0.15400935088247747
          -0.6805406158331502 0.2529911924840642 0.6876481125742493
          -0.4235375760480378 -0.25480878387114714 0.8693034023500998
          -0.4231753408731092 -0.25501885243781935 -0.8694182053409196
          -0.6805406158331744 -0.2529911924840781 -0.6876481125742202
          -0.8596544436754565 -0.25394103265091156 -0.44329244230556186
          -0.9545387449134778 -0.2552193258743789 -0.154009350882438
          -0.9545387449134718 -0.2552193258743773 0.15400935088247747
          -0.8596544436754384 -0.2539410326509096 0.4432924423055976
          -0.09677223071443794 0.2437382395895287 0.9650009357116442
          -0.8596544436754379 0.25394103265091195 0.4432924423055976
          -0.6805406158331505 -0.25299119248406365 0.6876481125742493
          -0.42319483694467264 0.2549774133130408 0.8694208697078547
          -0.24480158593254336 0.4765183081674705 0.844394745072542
          -0.6971194225239603 -0.4956882472322813 0.5179938921412575
          -0.8225873938609686 -0.49682859484160646 0.2766068090426089
          -0.8664504362082242 -0.4992630985708617 1.9539925233402755e-14
          -0.8225873938609779 -0.49682859484161124 -0.27660680904257307
          -0.6971194225239803 -0.49568824723229626 -0.5179938921412164
          -0.5003113890780431 -0.4924456262637222 -0.7121697965601526
          -0.5003113890780323 -0.4924456262636873 0.7121697965601843
          -0.5003113890780311 0.49244562626368854 0.7121697965601843
          -0.6971194225239578 0.4956882472322849 0.5179938921412575
          -0.8225873938609677 0.49682859484160796 0.2766068090426089
          -0.8664504362082242 0.4992630985708617 1.865174681370263e-14
          -0.8225873938609783 0.49682859484161057 -0.27660680904257307
          -0.697119422523978 0.4956882472322993 -0.5179938921412164
          -0.5003113890780444 0.49244562626372096 -0.7121697965601526
          -0.2463582438810094 0.4781177621909655 -0.8430367851697624
          0.16418853414561332 0.2763190699840423 0.9469371134443241
          -0.24643704275452896 -0.4781259429442935 0.843009114210536
          0.1638214605004491 -0.2764135462296293 0.9469731150039373
          -0.2463616609762906 -0.47816906172726453 -0.8430066906068245
          0.16414702238864018 0.2763106931179666 -0.9469467545272079
          0.16411113132154295 -0.27631849360903227 -0.9469506991739318
          -0.2778585103488893 0.6919752072014956 -0.6663069569238664
          -0.4844272547801426 0.7085624085435547 -0.5130979906656539
          -0.618633153014231 0.712148744442266 -0.33186923295324455
          -0.6922615703641479 0.7117615380352227 -0.11903541981569102
          -0.6922615703641428 0.7117615380352224 0.11903541981572188
          -0.6186331530142103 0.7121487444422648 0.33186923295328563
          -0.4838220685042029 0.709201376173287 0.5127861289682374
          -0.27784196811833967 -0.6922911933683411 0.6659855436394737
          -0.27746153702173904 -0.6904983528553585 -0.668002335458171
          -0.48266952628140336 -0.7095068438330797 -0.5134492837207072
          -0.6186331530142305 -0.7121487444422653 -0.3318692329532471
          -0.6922615703641476 -0.7117615380352237 -0.1190354198156875
          -0.6922615703641452 -0.7117615380352198 0.11903541981572452
          -0.48270116976648586 -0.7088680755112274 0.5143011104664996
          -0.622311545526689 -0.7082626557515757 0.33330519163659733
          -0.2766707469215062 0.6878306665466232 0.6710754592114985
          -0.011389005008272944 -0.48144954352494235 -0.876399810363139
          0.4058697770742223 -0.1376007424021149 -0.903513010281594
          0.40615039268534314 0.13676223442828536 -0.9035142222210584
          -0.011525237958598888 0.48109367919960366 -0.8765934295465523
          0.40586123039501004 -0.1377641333493624 0.9034919508356163
          -0.01172175233769471 -0.480735706779135 0.8767871923960222
          -0.01103144253184516 0.48141382038437347 0.8764240074407983
          0.4062073089870416 0.13667347363032994 0.9035020662573636
          0.6352298853892426 0.0 0.7723231141875593
          0.6352298853891842 -1.1283949515025146e-15 -0.7723231141876072
          -0.0087624975391265 0.7160120782936138 0.6980328949086401
          -0.40796120790746054 -0.8727478939552737 0.26810215672261883
          -0.4902785113161592 -0.871565731370491 -0.0003965378062056816
          -0.39110165553143195 -0.8859482229980857 -0.2492694149050521
          -0.009178628933600465 -0.7164906883315166 -0.6975362688098221
          -0.21597868226384603 -0.8611755929892458 -0.46014107276702976
          -0.2201604033074455 -0.8705269743015492 0.4401274631614034
          -0.010419914001453048 -0.7150154358070855 0.6990310092905789
          -0.21361618791923223 0.8585581050426673 0.46609666864760924
          -0.3930141709987451 0.8789783005640049 0.2700685256222627
          -0.4909734291282401 0.8711745454619666 -5.682598591999785e-05
          -0.39282384407744664 0.8837212147807451 -0.2544135257227135
          -0.2154395615554165 0.8604017128832375 -0.46183837842301556
          -0.008483986787613274 0.715771423522846 -0.698283102499456
          0.42839429869535495 0.3993955111275899 0.810531646844493
          0.2340831866765513 0.5437387928161709 0.8059486254732147
          0.23287352980015888 -0.5450657927825897 0.8054025084743042
          0.42718007194477203 -0.40029305942187937 0.8107297038544541
          0.23292801162457372 0.5447768756290403 -0.8055822100695145
          0.42676263442510226 0.3998848559718543 -0.8111508835123806
          0.428304471677952 -0.39955706369734606 -0.8104994956138005
          0.23401404514577914 -0.5438901149508957 -0.8058665953699846
          0.501353883353181 -0.6079959423060498 -0.6156177529815585
          0.4997833600729877 0.6083853715612048 -0.616509393816906
          0.5006157576693816 -0.6085157436150909 0.6157048423925895
          0.5014445249772707 0.6074247699322526 0.6161075695388503
          0.2790184565785594 0.7472040409563506 -0.6031872197477486
          0.05473078259881736 0.8882112657483027 -0.4561636645261422
          -0.1024469419349273 0.973600608324761 -0.20397666424823335
          -0.2297696206037594 0.9727342083386876 0.031529056048523435
          0.2814605804121322 -0.7480505761242325 0.6009993986970945
          0.06368761962004794 -0.8711553215613539 0.4868596233232594
          0.27638436776818714 -0.7460853391085378 -0.6057791247812006
          0.05473078259881801 -0.8882112657483001 -0.456163664526147
          -0.10621286593083998 -0.9762883302173452 -0.18862641223377247
          -0.2172069837318506 -0.9733061323149139 0.07413702864489724
          0.2765676598491167 0.7455887561040858 0.6063066355374522
          0.058764967438638925 0.8868016559147016 0.45839884562341426
          0.6231811588035254 -0.24228671474030702 -0.7436009623263302
          0.6229620441413722 0.242390031049051 -0.743750875231245
          0.6230085260525308 -0.2424067027749237 0.743706505898424
          0.6228521988924781 0.24382247929177675 0.743374560317217
          0.10115464363148616 -0.9937473049088192 0.047265548322696
          0.10467520976612861 0.9943875093708483 0.015381211514631277
          0.32423764166702895 0.8701218491552115 0.3711575397980198
          0.19395687148402535 -0.9630818057044668 -0.1866927088162605
          0.31699789675668016 -0.8751981328177851 -0.3654320207153492
          0.28802702558982685 -0.899641861695928 0.3281538560098938
          0.18371198602432506 0.9620112351856062 -0.20195120590791799
          0.3190519006707364 0.8733071258031914 -0.3681583201555536
          0.5169228264364565 0.7589231253768923 0.3960132337146254
          0.5090596961887208 -0.778453392957499 0.3672445244101056
          0.5275170758411831 0.7651072206138687 -0.36923796616882165
          0.514214867087011 -0.7598355390095093 -0.397785148195374
          0.8144124467582633 0.13899236138964502 0.563394613073775
          0.8146888828288632 -0.13626100108427103 0.5636621007115616
          0.8158451803114966 0.13468246334980163 -0.5623675629235125
          0.8165431816469423 -0.13428192452167012 -0.5614495500511554
          -0.07906519890548659 0.9698934479838119 0.23033756506507586
          -0.0032795665457972223 -0.9622760339540326 0.2720552865153867
          0.4438106125665915 0.889761128153222 -0.10657051656425465
          0.49923537530902834 -0.8552202190913485 -0.13914890189074158
          0.38507569108077805 -0.9193354421411813 0.08086443570408039
          0.9499318932568868 -1.6874180155512995e-15 -0.31245703412371206
          0.9363400429064864 0.0007689104623128242 0.3510936240186937
          0.5069989115099368 0.8515768141641906 0.13330053752969984
          0.22794019144082203 0.9533077631901495 0.19811001430345432
          0.7010670904887055 -0.43955407124524093 -0.5615132706227295
          0.6985481127333348 0.43278794152245925 -0.5698465862576068
          0.7032418618407207 -0.4310824236960219 0.5653484126935884
          0.7023018221267089 0.4387297008914857 0.5606143060903563
          0.7040831452570954 0.7081771918990869 -0.05245940753381856
          0.6737471878878958 -0.7358411226394059 0.06784223644552773
          0.7246371637322733 0.6198853787098861 0.3010699224428566
          0.7286839194273532 -0.5973583007944969 0.3349370180196596
          0.7278960308423429 0.5976961626063438 -0.3360456300707001
          0.7202757490966638 -0.6277080855166539 -0.29527174710807835
          0.9013748858128142 0.2986479342445137 0.3135804946061226
          0.9022174503527258 -0.2946318028194781 0.31495360459339194
          0.8833125460459349 0.3093048339871689 -0.35226334704311435
          0.8828914495835666 -0.3192345748195663 -0.3443718549649476
          0.8734425423151558 0.4704072520126784 -0.1257582702167831
          0.8651593253191369 -0.48916879420737447 -0.11051349504490005
          0.8761330170474995 -0.46816781873233754 0.11493402430373195
          0.8809526831587992 0.4609607859470993 0.10694635970590297
          0.9789067998420729 -0.19660950950183076 -0.05555337970277911
          0.9796571427278236 0.1926012580075371 -0.05636167240484252
          0.9908842103616613 -1.7601639441296536e-15 0.13471630063190826
          -0.5347636257743913 -0.03269176048120492 -0.5062836958798069
          -0.3153711286501335 -0.02009058616293835 -0.653062702589573
          -0.3940022021655847 -0.2504103293257023 -0.5651366939044009
          -0.604361395243163 0.16938684963786388 -0.4280520806522352
          -0.4205067843767787 0.12625183043059174 -0.5864207567718562
          -0.6509992364407298 -0.06425878705668131 -0.33330269741129914
          -0.6249588069916125 -0.25484901969314233 -0.4345112415599188
          -0.19380544960053925 0.1555286558425446 -0.7103256008998189
          -0.09371481002222737 -0.05456161925723757 -0.735027976706812
          -0.19081860068911105 -0.2471294885077553 -0.6674262244529956
          -0.45898328588459547 -0.45941719422170113 -0.4119015901587417
          -0.4568940714400993 0.2722313624521737 -0.3914609706808734
          -0.7308664480183866 0.1820731196867622 -0.24919557581812857
          -0.30861963483899935 0.30746964543371513 -0.6260948611148751
          -0.6509111890510391 -0.24517571335144117 -0.20836337195047028
          -0.7488364110476091 -0.029848031339134717 -0.12127254190058379
          -0.14463288859408818 -0.472451310700166 -0.5542460124794806
          -0.5641334644127189 0.4289443471377212 -0.3045386982326366
          -0.5337458753982367 -0.45676595797930863 -0.1712673177841264
          -0.08469896122046627 0.30469439402513965 -0.6686195478678849
          0.01770354427487897 -0.25777067614388915 -0.6946363791873087
          -0.3176840331949249 0.47955049010134276 -0.4774197073048101
          -0.6421917378745552 0.2907628826005304 -0.13542817082295544
          -0.7221988138513367 0.12724211455543166 1.4654943925052066e-14
          -0.678256661682735 -0.25271198337218737 0.0034017883694090756
          -0.7496516531545057 -0.031983366347392295 0.11728199566071762
          0.09268000285972855 0.10699760325840835 -0.6893739889296064
          0.19740252679448433 -0.10460296629376264 -0.7103924015952088
          -0.2722536408751024 -0.607534496383157 -0.31249622228941076
          -0.04239432732401749 -0.6162893217575212 -0.3978321565835876
          -0.3664971709169538 0.5929159850769858 -0.24836850396191545
          -0.40167099097489567 -0.6171860729383956 -0.08267488143662316
          0.1675177828552874 -0.4524778835308698 -0.5434545717789114
          -0.6445250281397152 0.3100779662047817 0.10211612625182198
          -0.5781029438177225 0.4946633146263517 0.006232056476023207
          -0.6869071468856176 0.1270894267044902 0.22557852343619889
          -0.10146499218116967 0.5588561853617193 -0.45226528367459773
          -0.5819042542305022 -0.4669483230507079 0.1241127849210022
          -0.6840730727960076 -0.22502240830253406 0.19812758324548918
          -0.7080282614390341 -0.02462621814510646 0.3493471791190248
          0.20490415675124396 0.305570163546272 -0.6483711647193644
          0.13123274539971153 0.4985301943928895 -0.5255094677792584
          0.3675357800367758 -0.00020756559609402814 -0.656216843182984
          -0.16761057423872394 -0.7299418131682822 -0.10426819059351544
          0.17112758822049257 -0.6372354533802538 -0.35744126666349096
          -0.17109870565994267 0.6767634863345737 -0.23013551989682313
          -0.312090815527974 0.6887270970149935 -0.030998673314281078
          0.4196574748194517 -0.2693158219266789 -0.5653778564862932
          0.08303256589219377 -0.7341233215119494 -0.09449977071991889
          -0.5986676522933454 0.11925948664943675 0.43192457794280514
          0.040613786210797365 0.7183796669937532 -0.21673618405136263
          0.20510666563881363 0.6429034308748003 -0.3772440797460037
          -0.4368420645314246 -0.6004787656090178 0.204317696447343
          -0.5559971833364736 -0.23736589423314447 0.37346117086049446
          -0.5157898049790477 -0.0638104458173574 0.5168731102428241
          -0.21877441691623467 -0.6675256918605705 0.19336022036344636
          0.44305804281447214 0.2635200543537537 -0.5418644750401942
          0.41530197748754416 -0.506820466307679 -0.3285081451358578
          0.3162588287974972 -0.7246484357626835 -0.14319097420679494
          -0.5878259684007894 0.43173135573500243 0.309409333635033
          0.4004812262981705 0.4298495380072884 -0.37422610196995754
          0.5514379092277544 0.002448667483171185 -0.4648692400387362
          0.5972295504136786 -0.23971128778572215 -0.397625597017329
          0.09603787123197138 -0.7234434283250017 0.16968198004293278
          -0.04867954300782884 0.7349186803896979 0.07098716254497228
          -0.4946202155681454 0.2726218380369869 0.40830074069685995
          -0.3797008007018574 0.5721622126278074 0.279887933423391
          -0.13289142282025734 0.7038660780686636 0.21224602937529324
          -0.4241481288655722 0.15848967041844597 0.5912799158513136
          -0.43541917900303906 -0.4469361761772088 0.4475705360712272
          -0.4398073746644231 -0.2671021551942747 0.6220773894784863
          -0.3213435268785032 -0.036074877592155996 0.6553498906059354
          -0.2544703418550589 -0.5328213019699062 0.43977919249044195
          0.5959003019812799 0.21708974644460888 -0.3720227909341278
          0.4902161647677121 -0.5675742488799358 -0.12893665245751773
          0.636607217967911 -0.359999070648664 -0.19495569132791157
          0.21066382099804448 0.6892597187534979 -0.045613804473829234
          0.4289907194884557 0.6184746847061544 -0.17003882365364875
          -0.03233691410979889 -0.6176281236690877 0.4006426843289379
          0.6114513814819627 0.37522432301561537 -0.16754130137590684
          0.681494426826315 -0.12555791831592256 -0.17975894244830348
          0.378998738846712 -0.6068601582177524 0.13252693193932785
          0.26384801554980264 -0.6051551056363134 0.3258530863521214
          -0.30364676233159305 0.31763267908047865 0.6196659688019404
          -0.31745789507186295 0.4793409413354479 0.4790055383364642
          -0.06795282888434162 0.5855576489586527 0.44262653244089956
          -0.20537593005020494 0.12526036273599894 0.6933003924052388
          -0.14452221087545247 -0.25862080466063553 0.6680249809122811
          -0.09413645955899108 -0.05434771691795781 0.7350097819324137
          0.7185644490236496 0.1653991323149011 -0.19395745869955006
          0.16100542772061122 0.6844950947973905 0.265706117071999
          0.46769242933751753 0.5430084544847786 0.09403464899017022
          -0.012819780457357322 -0.4327680117620418 0.6468926324789974
          0.1852602213998189 -0.5080984935222834 0.5170779314481622
          0.7112127187466224 -0.00048265589736118386 0.024038199931951
          0.5657519902129797 -0.43095913342463676 0.1298204147569222
          0.7123391128757035 -0.22922486933848818 0.08343383736341936
          -0.046269201602747945 0.3445210334464477 0.6413740080347514
          0.16107518409154364 0.4763787883759809 0.5191764305232502
          0.6723981175167437 0.24526683261189408 0.08318638411068546
          0.4560663201352506 -0.4578697803520333 0.3693468207066317
          0.10493846792451755 0.11532263366158624 0.7111627864297483
          0.42328281847272287 0.5269007661036476 0.3429935124562373
          0.19736824592777058 -0.10457213100894203 0.7102789729778816
          0.5638317423318027 0.3275880298844629 0.2910268910887539
          0.7035559678406216 0.01573503544040422 0.28093847139177486
          0.5926947442949131 -0.191528274520941 0.42689004270383313
          0.4416861545228805 -0.2609180931940758 0.5403341042930148
          0.20512912989963894 0.3052050777929929 0.6480790569851202
          0.398544169753809 0.3624395042207862 0.49892400762424227
          0.3749180942402113 0.054714665932837026 0.648147231534792
          0.5321628436571437 0.1670394308163905 0.4609882363169491
          -0.3992846661083669 0.302152744017969 0.21971170411359253
          -0.5043593379137223 0.06523469827002293 0.16543664542288994
          -0.16057338358739548 0.39410979410303604 0.21970258738838488
          -0.15157107107997625 0.26871677234178826 0.40795763246253225
          -0.34827561623184344 0.3200663452052419 -0.07781789973896602
          -0.3387282029091785 0.0517904679015202 0.3733185047172256
          -0.5044091063833465 -0.09145995754072 -0.011477880952313502
          -0.2097970677549612 0.32561413420387986 -0.2410087688128666
          -0.4902717721112544 0.07192112014241081 -0.18204726275270078
          -0.11781155639787988 0.45047061558595924 -0.0357113922144201
          0.07572976667004383 0.46282947198743773 0.09345376942263162
          -0.04233000703165546 0.028813152241125017 0.46502180119889625
          0.16132722455804194 0.19524714745845495 0.419393330161971
          -0.19396163524175636 -0.12325998889120449 0.3926348123172132
          -0.4032665356129863 -0.18091921515950826 -0.2867088946094114
          -0.3516600672015948 -0.2533266167687951 0.2056969190439375
          -0.1315298027823899 0.21344694986419954 -0.44379596714500247
          -0.3275034170658211 0.05531398954615696 -0.3377159719246836
          0.09492496092059799 0.4488273739877364 -0.2453065808670778
          0.2868780755967144 0.3054319111656443 0.1649630629332104
          0.3290468150057082 0.3482146429686326 -0.10751056988429708
          0.26224517075547293 -0.05965142068356233 0.44183205276805504
          -0.3467464355983676 -0.32955421841359556 -0.04934290632160154
          -0.05886910372734544 -0.35374065844377567 0.33878424744304514
          0.22968860168445104 -0.30312203779486735 0.6509077286089102
          -0.21236012802268966 -0.32864849929610784 -0.31493061724644544
          0.412115830779054 0.11720571136255753 0.1717851081633297
          0.20058013145470133 0.19789323081883703 -0.4316852190668712
          -0.05470819202442634 -0.040111477788912886 -0.47171650054800907
          0.41912309501233125 0.1251454537789316 -0.28261037800036437
          0.3976024299499352 0.05671626680281072 -0.04396139836506574
          0.004472134126767724 -0.4730014359004642 0.08054820779294536
          0.2037812873900653 -0.34497288571008067 0.27934381528277097
          -0.0052221117945245865 -0.2683202695185214 -0.39379402252985685
          -0.025444315392064265 -0.446981432336901 -0.13018277579638715
          0.3798817353727548 -0.17110843568221368 0.19192655274967407
          0.1419280938641081 -0.38402287386872347 -0.24698750508544975
          0.21029178750357458 -0.08738334295602757 -0.47791858480611227
          0.3840580878364519 -0.24213945003972093 -0.0541449128234186
          0.2178043490542838 -0.4115087664506203 -0.04260798671623034
          0.33680270906216414 -0.18731717631887568 -0.2872411142015401
          -0.1423522898646663 -0.07473285327072965 -0.09310531047879378
          -0.22591698849520414 0.11072967524373745 0.1074061971047855
          0.0893460310572376 0.08373743727866545 -0.17894056637059075
          0.036665211947126686 -0.20715703682675635 -0.0027984917980883317
          0.05940382318623483 -0.25239684314960975 0.4768204500009441
          0.07933385731738873 0.042732486596829045 0.20062789851956975
          0.062236728165713906 0.39668949186336455 0.33466708552517677
        </DataArray>
      </Points>
      <Cells>
        <DataArray type="Int64" Name="connectivity" format="ascii">
          169 24 4 3 175 25 4 24 256 50 13 22 76 50 256 261 237 32 41 21 
          193 36 27 26 206 66 67 36 255 33 32 29 252 33 41 32 183 37 26 25 
          183 37 36 26 175 38 25 24 175 38 37 25 256 50 76 13 266 77 33 29 
          266 77 29 49 253 70 41 33 186 57 46 45 186 56 46 57 209 100 73 53 
          235 59 60 90 277 96 49 95 277 96 77 49 305 98 51 97 261 97 51 76 
          215 110 91 90 209 99 100 53 278 151 95 122 216 148 101 119 217 116 115 123 
          280 135 151 122 280 158 151 135 259 147 125 146 259 147 118 125 245 141 147 146 
          275 159 136 150 230 138 137 144 268 167 165 158 248 165 258 162 256 10 22 13 
          257 10 13 1 257 10 1 29 255 10 29 32 195 11 53 73 177 15 0 2 
          177 11 15 195 195 15 53 11 170 16 2 3 176 16 15 2 176 16 48 15 
          169 17 3 4 173 17 16 3 186 18 45 46 172 18 46 17 172 18 17 4 
          239 9 31 22 240 9 22 10 237 9 32 21 240 9 10 32 171 23 24 3 
          170 23 3 2 183 5 25 26 174 5 4 25 174 5 18 4 193 6 26 27 
          184 6 5 26 207 7 27 28 194 7 6 27 223 8 9 21 223 8 31 9 
          223 8 28 31 208 8 7 28 270 14 49 29 257 14 1 13 257 14 13 51 
          194 20 6 7 202 20 43 44 178 12 23 2 177 12 2 0 177 12 0 11 
          171 39 38 24 171 39 24 23 179 64 65 38 179 64 38 39 179 64 39 63 
          19 45 181 18 191 19 44 45 181 19 18 5 192 19 20 44 184 19 5 6 
          192 19 6 20 190 47 46 56 180 47 17 46 190 47 56 55 173 47 16 17 
          190 47 55 48 182 47 48 16 218 30 8 21 208 30 7 8 204 30 20 7 
          20 43 204 202 261 88 76 50 261 97 88 262 247 88 87 112 234 30 21 42 
          228 42 60 43 234 42 21 41 228 42 43 30 185 52 63 39 185 52 85 63 
          171 52 39 23 178 52 23 12 187 66 36 37 187 66 37 65 206 35 36 67 
          207 35 28 27 207 35 27 36 222 34 31 28 222 34 28 35 239 40 50 22 
          239 40 22 31 239 40 31 34 270 78 49 14 277 78 95 49 78 278 122 279 
          222 35 238 34 206 69 35 67 221 69 67 82 253 33 254 70 267 81 77 96 
          266 81 33 77 209 74 99 53 188 74 15 48 188 74 53 15 190 48 205 188 
          188 94 74 48 210 94 99 74 203 58 45 44 186 58 57 45 238 68 34 69 
          238 68 40 34 221 68 69 82 241 68 82 87 205 93 94 55 205 93 108 94 
          190 93 55 56 201 71 102 85 185 71 85 52 178 71 52 12 279 75 78 14 
          272 75 14 51 272 75 51 98 228 59 43 60 235 59 90 91 203 59 44 43 
          215 58 59 91 203 59 58 44 235 61 90 60 228 61 60 42 253 61 41 70 
          253 61 42 41 215 58 92 199 215 92 91 110 199 92 57 58 199 92 56 57 
          199 92 93 56 241 62 68 87 247 62 87 88 238 62 40 68 261 62 88 50 
          238 62 50 40 197 86 64 63 198 86 63 85 200 84 66 65 197 84 65 64 
          212 84 86 115 197 84 64 86 200 83 66 84 221 83 82 67 200 83 67 66 
          216 72 119 101 211 72 11 73 177 54 12 11 211 80 119 72 211 80 72 73 
          280 79 136 135 279 79 78 75 280 79 135 122 279 79 122 78 275 121 150 136 
          276 121 98 150 276 79 75 121 276 121 75 98 242 120 149 137 225 120 100 149 
          225 120 73 100 230 120 137 80 211 120 80 73 253 89 61 70 254 89 70 81 
          254 89 81 118 235 89 90 61 212 116 84 115 212 116 83 84 224 116 82 83 
          224 116 87 82 198 114 86 85 198 114 115 86 201 113 85 102 213 113 114 85 
          259 117 125 118 254 117 118 81 267 117 81 96 236 139 110 90 259 139 118 147 
          236 139 90 89 236 139 89 118 219 109 129 108 219 109 108 93 215 109 92 110 
          214 109 93 92 278 106 96 95 278 106 95 151 267 106 117 96 251 111 128 132 
          251 111 112 128 262 111 88 112 262 111 97 88 210 107 99 94 220 107 94 108 
          251 105 111 132 276 105 150 98 262 105 97 111 305 97 105 98 216 103 101 148 
          201 103 102 101 201 103 113 102 229 104 156 149 210 104 99 107 225 104 149 100 
          209 104 100 99 229 133 156 104 220 133 104 107 259 131 146 125 259 131 117 271 
          271 131 117 106 245 124 147 141 245 124 141 129 219 124 129 109 233 124 139 147 
          233 124 109 110 233 124 110 139 226 134 113 103 227 127 134 142 213 127 114 113 
          213 127 113 134 232 140 116 123 232 140 123 128 224 140 87 116 232 140 128 112 
          247 140 112 87 227 126 127 142 213 126 114 127 217 126 123 115 217 126 115 114 
          273 154 151 158 273 154 158 165 271 154 106 151 271 154 131 106 271 146 154 260 
          274 145 135 136 274 145 158 135 275 155 159 150 250 155 132 153 269 155 150 105 
          269 155 105 132 220 130 133 107 246 130 141 133 245 141 130 129 220 130 107 108 
          219 130 108 129 250 143 142 153 250 143 153 132 227 143 126 142 250 143 132 128 
          217 143 123 126 232 143 128 123 230 138 80 137 230 138 119 80 231 138 148 119 
          258 160 144 137 258 160 167 144 242 160 137 149 258 160 162 167 248 160 149 156 
          248 160 156 162 226 157 103 148 243 157 163 153 226 157 134 103 243 157 153 142 
          243 157 142 134 249 161 138 144 244 161 163 157 231 161 148 138 244 161 157 148 
          260 152 154 165 248 165 152 260 248 152 162 156 246 152 156 133 260 152 146 154 
          246 152 133 141 246 152 141 146 274 168 158 145 268 168 167 158 264 164 153 163 
          264 164 159 155 264 164 155 153 244 166 161 249 249 166 161 144 265 166 164 163 
          189 54 71 12 196 54 11 72 189 54 102 71 196 54 72 101 189 54 101 102 
          263 166 144 167 265 166 159 164 263 166 167 168 265 166 168 159 184 174 183 5 
          187 183 36 193 184 183 26 5 183 193 26 36 174 175 25 4 171 175 169 24 
          175 183 25 37 175 169 24 4 174 175 4 169 29 257 14 1 255 252 32 33 
          254 33 253 266 172 173 169 17 270 277 266 49 277 266 49 77 267 266 77 81 
          267 254 266 81 284 255 266 252 78 277 278 279 308 188 209 195 293 266 277 267 
          284 253 252 266 267 254 117 259 254 81 33 266 306 185 179 171 316 275 280 302 
          159 168 274 145 279 275 280 79 275 280 79 136 274 280 136 135 260 245 259 146 
          274 273 280 158 257 256 13 10 76 256 51 261 14 257 29 270 255 257 29 10 
          270 255 29 266 240 237 9 32 255 266 252 33 255 266 33 29 240 256 10 22 
          211 195 209 73 195 209 73 53 188 209 53 74 188 182 48 176 188 176 15 195 
          173 169 17 3 182 173 47 16 180 172 46 17 170 176 2 16 284 237 255 252 
          298 172 173 169 170 173 3 169 186 181 18 172 172 169 4 17 174 183 5 25 
          183 174 295 175 186 172 46 180 174 175 183 25 285 203 191 202 223 208 28 8 
          237 255 252 32 240 239 256 22 240 255 32 10 240 10 257 255 223 240 286 237 
          240 286 237 255 223 239 9 31 234 237 252 41 240 237 32 255 237 252 41 32 
          171 169 3 24 309 177 176 195 318 201 196 216 170 173 176 16 287 184 183 193 
          170 173 16 3 174 172 4 18 181 174 18 172 174 172 169 4 170 298 173 169 
          289 174 181 172 194 184 193 6 181 184 19 5 184 193 6 26 184 183 193 26 
          287 207 194 193 289 174 172 169 289 295 174 169 218 208 8 30 194 193 27 6 
          207 194 193 27 192 184 6 19 287 194 184 193 204 218 30 208 223 240 237 9 
          240 294 256 239 223 218 21 237 223 237 21 9 207 194 27 7 223 286 218 237 
          204 194 7 20 222 207 28 208 192 282 204 194 270 266 29 49 270 277 49 78 
          272 257 51 14 270 255 257 29 240 292 257 256 204 208 7 194 204 208 30 7 
          192 194 20 6 192 194 6 184 196 177 11 54 15 11 177 0 170 178 23 2 
          177 176 195 15 177 176 15 2 178 185 171 52 178 171 23 52 179 171 38 175 
          171 175 24 38 170 171 3 23 170 171 169 3 295 179 183 175 289 287 183 295 
          179 183 37 187 179 171 39 38 38 37 179 175 185 171 52 39 186 181 191 45 
          204 282 192 202 181 184 5 174 192 202 44 20 186 203 58 45 181 174 5 18 
          203 191 202 44 181 45 19 191 19 181 192 184 186 45 18 181 289 186 181 191 
          298 180 173 172 289 192 191 181 204 192 194 20 287 192 184 194 192 191 44 202 
          192 181 19 191 192 191 19 44 186 190 46 56 182 173 16 176 180 173 17 47 
          182 176 16 48 180 172 17 173 186 46 172 18 289 186 285 180 297 188 182 190 
          186 190 180 46 186 199 56 57 190 180 46 47 210 188 94 74 182 190 47 180 
          182 180 47 173 182 190 48 47 188 182 190 48 210 205 94 188 297 180 190 182 
          282 208 204 194 223 218 208 8 223 218 282 208 204 228 43 30 223 218 8 21 
          204 43 20 30 43 228 204 202 204 192 20 202 228 204 281 234 238 239 40 50 
          51 256 76 13 256 13 51 257 272 256 51 257 296 238 206 221 241 238 221 68 
          262 247 88 261 241 238 68 62 247 261 62 88 203 228 59 43 30 204 234 218 
          253 234 252 41 21 30 234 218 234 204 30 228 234 228 30 42 234 218 237 21 
          253 228 42 61 284 253 234 252 203 228 281 235 234 237 41 21 281 204 228 202 
          286 234 218 237 170 309 171 178 197 179 63 64 185 179 171 39 185 179 39 63 
          170 178 171 23 178 185 52 71 178 177 12 2 189 177 54 12 201 189 102 71 
          170 2 177 178 206 187 36 193 197 179 64 65 187 183 37 36 37 179 65 38 
          37 183 179 175 65 179 37 187 303 187 193 183 295 187 183 179 207 208 282 194 
          207 206 35 36 206 187 66 36 200 206 66 67 207 206 36 193 207 193 36 27 
          238 35 222 206 303 193 296 287 207 208 7 28 207 208 194 7 223 239 31 222 
          304 241 261 256 282 208 207 222 238 69 35 206 222 207 206 35 222 207 35 28 
          239 256 22 50 241 256 50 261 239 222 34 31 240 239 22 9 238 239 222 34 
          223 240 9 239 241 247 261 62 221 206 67 69 224 241 82 87 200 206 187 66 
          294 222 238 239 35 69 238 34 188 195 53 209 188 195 15 53 188 176 48 15 
          205 48 190 55 205 94 48 55 238 239 34 40 304 224 247 241 296 222 207 206 
          69 206 238 221 238 221 68 69 62 50 241 238 238 239 50 256 229 209 104 225 
          48 94 205 188 205 190 93 55 297 188 176 182 199 205 93 214 297 180 173 298 
          201 189 101 102 196 216 101 72 189 178 71 185 189 178 12 71 189 178 177 12 
          196 177 195 11 170 309 177 176 305 262 97 261 292 272 257 256 51 256 272 261 
          75 79 276 279 305 261 97 51 279 270 14 78 279 270 78 277 293 279 277 270 
          272 270 257 14 186 199 57 58 186 203 45 191 235 228 60 59 203 191 44 45 
          203 228 43 202 203 202 43 44 235 228 61 60 253 235 228 61 215 59 235 91 
          235 203 228 59 281 228 203 202 235 59 215 203 253 266 33 252 253 252 33 41 
          253 235 61 89 228 281 253 234 254 235 89 236 253 234 41 42 253 234 42 228 
          215 235 90 91 214 199 92 93 214 219 93 109 59 58 215 203 236 215 235 90 
          186 285 288 199 186 199 58 203 186 199 190 56 199 190 56 93 92 58 215 91 
          199 215 58 203 186 285 203 191 186 203 285 199 241 247 62 87 241 221 82 68 
          241 50 62 261 50 256 241 238 296 238 222 206 294 238 256 239 303 200 221 206 
          200 197 84 65 197 187 179 65 198 197 63 86 197 185 63 179 306 178 185 171 
          303 200 187 197 295 179 175 171 170 298 169 171 314 189 185 178 295 171 175 169 
          200 221 67 83 200 197 65 187 224 221 83 82 200 187 65 66 200 221 206 67 
          212 200 197 84 303 206 193 187 201 196 216 101 211 196 72 216 211 195 73 11 
          308 211 195 209 196 189 54 101 309 177 196 189 196 189 177 54 211 216 72 119 
          230 211 80 119 225 209 100 73 211 196 11 72 211 196 195 11 279 280 122 79 
          302 279 275 280 279 272 75 14 293 278 279 280 122 278 78 95 278 277 78 95 
          279 272 14 270 276 272 98 75 302 276 279 272 51 98 305 272 276 275 121 150 
          269 275 150 155 326 272 256 261 276 279 272 75 276 279 79 275 121 275 79 136 
          79 275 121 276 225 209 104 100 230 211 120 80 225 211 73 120 225 211 209 73 
          318 211 196 195 318 211 216 196 254 253 70 89 254 259 118 117 236 259 139 118 
          33 81 254 70 283 254 235 253 236 235 89 90 290 233 215 236 284 234 237 252 
          212 197 86 84 198 212 197 86 212 200 84 83 224 241 221 82 224 200 83 221 
          315 212 200 197 223 240 239 294 315 198 212 197 224 212 116 83 224 241 87 247 
          224 247 87 140 224 212 83 200 217 232 116 123 232 212 312 217 296 221 241 238 
          241 294 256 304 223 294 239 222 201 198 185 85 198 212 86 115 198 197 185 63 
          306 198 197 185 198 185 85 63 201 216 103 101 201 196 101 189 201 189 71 185 
          213 198 85 114 201 185 71 85 319 244 243 226 278 267 96 106 271 267 117 259 
          267 254 81 117 267 277 96 77 267 277 77 266 292 270 266 255 284 267 254 266 
          236 215 90 110 236 254 259 118 290 235 236 215 283 236 235 254 236 254 118 89 
          89 235 254 253 291 259 236 254 233 215 110 109 233 245 219 124 214 219 205 93 
          299 214 219 205 220 219 130 108 219 205 93 108 299 220 205 219 233 214 215 109 
          93 205 199 190 214 199 215 92 214 215 109 92 288 214 205 199 290 214 199 215 
          297 182 176 173 282 192 202 191 289 181 184 192 271 267 106 117 273 278 280 151 
          278 267 277 96 278 277 95 96 278 280 151 122 278 279 280 122 302 279 270 272 
          262 251 111 112 304 262 261 247 232 247 140 112 232 224 140 247 269 262 105 276 
          316 269 275 276 305 276 272 98 262 251 105 111 276 105 305 262 88 97 261 76 
          262 251 112 247 262 247 112 88 210 209 99 104 220 210 94 107 210 209 74 99 
          210 188 74 209 297 188 195 176 229 225 104 149 248 258 160 162 104 209 229 210 
          220 210 107 104 242 229 149 225 246 220 133 229 233 245 124 147 245 219 124 129 
          245 259 146 147 245 130 219 129 233 236 259 139 233 236 110 215 290 233 219 214 
          299 220 229 210 328 254 259 291 300 278 267 293 233 236 139 110 233 219 109 124 
          233 214 109 219 236 259 291 233 233 259 147 139 233 245 147 259 217 198 115 212 
          217 143 250 232 226 201 216 103 217 198 114 115 226 201 103 113 213 201 113 85 
          213 201 85 198 320 250 217 227 232 224 212 116 232 224 116 140 312 232 247 224 
          250 232 143 128 232 251 112 128 232 251 247 112 227 213 127 126 217 232 123 143 
          227 213 134 127 217 227 126 213 315 217 198 213 317 213 198 201 243 213 134 227 
          217 232 212 116 250 143 217 227 217 212 115 116 217 227 143 126 312 212 232 224 
          312 250 251 232 217 213 126 114 217 213 114 198 273 280 158 151 273 268 165 158 
          260 273 165 154 274 273 158 268 271 278 151 106 300 273 278 280 271 259 131 146 
          291 260 245 259 277 266 293 270 170 297 176 173 271 273 151 278 117 131 259 125 
          271 278 106 267 260 271 273 154 271 273 154 151 274 280 135 158 159 274 136 145 
          274 275 136 280 274 268 158 168 269 276 150 275 269 276 105 150 264 269 155 275 
          250 269 251 132 305 302 272 276 269 262 251 105 269 251 132 105 313 262 247 251 
          321 226 201 216 299 220 210 205 220 219 108 205 220 210 205 94 246 220 245 130 
          219 130 245 220 220 229 104 133 220 229 210 104 220 205 108 94 250 227 142 143 
          250 269 132 155 250 251 128 132 243 250 227 142 250 232 128 251 264 250 155 269 
          313 250 269 251 315 217 212 198 242 258 137 160 242 230 120 137 230 225 120 211 
          248 310 242 258 308 211 230 318 231 230 138 119 230 211 119 216 308 229 225 209 
          258 230 137 144 258 167 165 268 165 167 258 162 249 258 144 230 263 268 168 167 
          242 258 230 137 263 274 168 268 300 260 273 268 321 231 216 230 318 201 189 196 
          242 225 149 120 242 230 225 120 310 242 258 230 248 229 156 149 310 242 230 225 
          242 310 248 229 258 165 248 268 260 248 165 268 248 242 160 258 246 229 133 156 
          246 260 248 152 248 242 229 149 248 242 149 160 243 227 134 142 243 250 142 153 
          226 216 148 103 231 244 148 161 320 243 213 226 226 213 113 134 226 213 201 113 
          244 243 157 163 249 265 244 166 243 226 157 134 313 264 269 250 320 217 213 227 
          134 213 243 226 249 263 166 144 244 243 226 157 264 244 163 243 244 226 148 157 
          231 226 216 148 264 275 316 269 163 244 264 265 231 230 119 216 231 216 119 148 
          249 230 144 138 231 244 226 148 310 249 230 258 321 231 244 226 249 231 161 244 
          321 249 244 231 246 245 146 141 260 271 146 259 154 146 271 131 300 259 260 291 
          152 165 248 162 300 260 271 273 311 248 268 258 260 273 268 165 246 248 229 156 
          246 220 130 133 246 248 156 152 301 260 268 248 246 260 152 146 246 260 146 245 
          299 245 220 219 130 141 245 246 220 245 299 246 301 246 245 260 249 263 144 258 
          275 159 265 274 263 258 268 167 263 258 167 144 307 274 268 273 136 274 159 275 
          265 319 249 244 264 275 155 159 264 319 244 243 264 265 164 163 265 244 166 163 
          265 263 168 166 274 265 168 159 316 265 274 275 264 250 153 155 264 243 153 250 
          264 265 159 164 316 275 264 265 264 243 163 153 264 265 275 159 320 264 250 243 
          244 319 264 265 249 231 138 161 249 265 166 263 249 231 230 138 161 166 244 163 
          321 230 249 231 311 249 258 263 282 234 204 218 204 208 282 218 223 282 218 286 
          292 270 255 257 253 281 228 235 285 215 203 235 290 233 214 215 292 272 270 257 
          316 319 263 265 285 199 203 215 241 296 304 224 313 269 276 262 284 254 253 266 
          315 200 312 303 307 274 273 280 241 221 296 224 304 241 247 261 293 278 277 279 
          293 278 267 277 300 271 278 273 313 269 262 251 302 276 275 279 300 271 259 267 
          303 200 206 187 249 319 265 263 291 233 259 245 299 245 290 291 311 263 258 268 
          186 288 190 199 289 186 172 181 289 181 174 184 301 246 260 248 288 199 205 190 
          297 210 188 205 301 246 248 229 306 197 187 179 309 189 178 177 196 177 309 195 
          209 188 308 210 314 201 198 185 321 231 226 216 308 229 209 210 306 197 179 185 
          310 242 225 229 308 225 211 209 317 226 213 201 320 243 250 227 320 243 227 213 
          307 263 268 274 312 250 217 320 314 201 185 189 318 230 216 211 312 232 251 247 
          316 319 265 264 313 320 264 250 316 265 263 274 299 246 229 220 311 319 249 263 
          300 311 268 307 244 249 321 319 303 224 221 200 283 281 253 235 236 235 290 283 
          323 285 281 283 325 311 316 319 284 283 281 253 282 285 191 202 285 283 235 281 
          285 281 235 203 289 186 191 285 285 281 203 202 282 285 202 281 289 180 288 298 
          297 190 205 188 296 193 303 206 289 323 285 282 289 287 192 184 234 286 282 281 
          282 281 202 204 289 282 191 192 282 286 234 218 289 282 285 191 289 298 295 169 
          308 310 225 229 297 308 195 188 310 230 308 225 324 318 308 310 301 308 229 310 
          318 309 195 196 324 301 310 308 186 190 288 180 297 299 210 205 297 308 188 210 
          290 288 199 214 289 298 172 180 284 293 267 266 302 293 279 280 323 286 281 282 
          300 259 328 267 280 316 307 274 303 315 200 197 174 169 295 175 289 183 174 295 
          289 174 183 184 306 309 178 171 170 298 171 309 301 310 229 248 290 245 299 219 
          311 310 248 258 299 301 308 229 289 323 282 287 263 319 316 311 311 310 258 249 
          307 316 263 274 311 301 268 248 311 301 248 310 289 322 295 298 267 278 300 271 
          300 293 280 278 300 301 260 268 291 301 245 260 327 324 291 300 307 300 293 280 
          328 327 284 283 320 319 243 226 315 320 312 217 217 250 312 232 317 319 226 321 
          320 319 264 243 320 316 264 319 313 312 250 251 302 313 316 276 304 313 247 312 
          313 312 251 247 313 316 276 269 313 320 250 312 327 307 302 316 313 316 269 264 
          313 320 316 264 325 313 312 320 299 288 214 205 324 291 300 301 324 300 311 301 
          290 288 285 199 291 236 290 283 290 285 215 199 290 285 235 215 290 285 283 235 
          323 290 285 283 317 320 213 226 315 213 320 217 318 309 196 189 308 309 324 297 
          315 312 212 217 312 200 315 212 314 315 198 317 325 304 312 313 325 317 319 320 
          315 317 213 198 320 213 315 317 325 313 320 316 325 320 319 316 324 314 309 318 
          321 318 216 201 314 318 189 309 230 211 308 225 308 230 310 318 249 230 321 310 
          249 310 321 311 314 318 201 189 318 308 211 195 318 308 195 309 325 303 315 312 
          325 327 294 304 296 282 207 222 294 296 241 238 304 312 247 224 327 307 316 311 
          304 313 262 247 326 304 262 261 302 293 270 279 305 313 276 262 327 307 300 293 
          302 316 275 276 292 302 293 270 326 256 304 261 326 304 313 262 280 275 316 274 
          307 316 280 302 314 309 189 178 325 321 311 319 325 321 319 317 314 317 198 201 
          306 315 197 198 321 314 201 317 306 295 309 171 306 295 171 179 299 308 210 229 
          299 301 229 246 297 299 308 210 299 290 219 214 299 290 214 288 299 245 301 246 
          288 290 324 299 324 311 310 301 287 282 194 207 323 282 296 286 256 294 241 238 
          286 296 222 282 303 296 224 312 322 287 295 303 296 304 224 312 322 306 303 295 
          200 224 312 303 325 296 312 304 306 187 295 179 303 296 206 221 312 224 200 212 
          303 296 221 224 287 303 193 183 303 295 187 183 306 303 197 315 306 314 315 198 
          306 314 198 185 295 187 306 303 306 303 187 197 322 309 295 298 306 314 185 178 
          306 314 178 309 289 287 282 192 287 303 183 295 193 207 296 287 289 183 287 184 
          287 282 192 194 287 296 282 207 296 207 193 206 322 287 303 296 325 294 296 304 
          204 234 282 281 238 222 294 296 223 282 222 208 296 282 323 287 327 302 313 316 
          326 327 313 304 284 286 234 281 223 222 282 286 289 298 169 172 306 325 314 322 
          190 180 297 288 298 295 169 171 170 297 309 176 298 295 171 309 324 290 288 323 
          289 295 322 287 323 290 288 285 322 306 309 314 297 308 309 195 297 309 176 195 
          205 190 297 288 173 180 297 182 297 298 288 180 297 299 205 288 322 297 309 298 
          322 297 298 288 170 297 298 309 324 309 308 318 321 310 324 311 170 297 173 298 
          324 299 301 308 292 302 270 272 292 293 266 270 240 292 286 255 284 292 255 286 
          326 305 272 261 240 294 286 292 284 292 293 266 323 284 283 281 307 311 263 316 
          327 300 311 324 307 311 268 263 323 294 292 286 307 300 273 268 268 311 300 301 
          327 292 302 293 307 300 280 273 307 302 280 293 290 233 245 219 245 233 290 291 
          260 259 300 271 291 300 301 260 259 254 328 267 328 327 283 291 328 300 267 293 
          301 245 299 291 291 283 254 236 290 236 291 233 321 318 230 216 321 317 201 226 
          321 314 318 201 321 319 226 244 226 319 317 320 321 318 310 230 321 311 319 249 
          324 310 321 318 325 314 317 315 284 281 234 253 284 292 266 255 284 292 323 327 
          284 283 253 254 284 286 237 234 284 286 255 237 328 284 293 267 328 284 267 254 
          241 296 294 304 294 286 296 222 240 294 292 256 304 256 326 294 223 240 294 286 
          326 327 292 302 223 294 222 286 305 105 276 98 105 97 305 262 305 302 276 313 
          305 272 261 51 326 292 272 302 326 305 313 302 323 294 286 296 325 321 317 314 
          295 309 322 306 306 303 325 322 325 315 317 320 325 315 320 312 325 303 312 296 
          324 321 314 318 324 290 327 291 289 323 288 285 324 297 288 299 323 284 281 286 
          323 282 281 285 327 307 293 302 327 284 292 293 324 297 299 308 324 291 301 299 
          324 322 297 309 324 322 288 297 324 322 309 314 325 324 314 322 323 324 322 288 
          311 300 327 307 326 327 294 292 292 294 323 327 323 327 322 324 325 327 324 322 
          328 327 300 293 290 283 327 291 314 325 306 315 325 327 313 316 325 327 304 313 
          322 294 296 325 325 322 303 296 325 327 311 324 325 303 306 315 325 327 316 311 
          311 321 325 324 325 324 321 314 323 327 283 284 323 292 284 286 327 283 290 323 
          289 288 323 322 289 323 287 322 290 291 324 299 327 290 324 323 323 322 296 287 
          296 294 322 323 322 327 294 325 294 327 322 323 326 305 261 262 326 327 304 294 
          326 294 256 292 326 327 302 313 326 305 302 272 326 305 262 313 326 292 256 272 
          328 291 283 254 328 259 300 291 328 284 254 283 328 327 293 284 328 327 291 300 
          168 265 274 263 186 288 285 180 170 2 176 177 170 309 178 177 289 186 180 172 
          240 10 256 257 240 292 255 257 223 222 28 208 223 222 31 28 289 180 285 288 
          289 298 288 322 1 10 13 11 0 15 15 2 16 16 3 17 17 4 18 11 
          15 53 9 22 10 3 2 23 4 3 24 5 4 25 6 5 26 7 6 27 
          8 7 28 1 14 29 43 44 20 9 8 31 2 0 12 8 9 21 0 11 
          12 39 63 64 1 13 14 13 22 50 6 7 20 0 2 15 5 6 19 2 
          3 16 17 46 47 3 4 17 18 45 46 4 5 18 7 8 30 76 50 88 
          18 5 19 21 41 42 19 6 20 9 10 32 20 7 30 13 10 22 2 12 
          23 12 52 23 3 23 24 4 24 25 5 25 26 36 66 67 6 26 27 31 
          8 28 26 36 27 27 35 28 7 27 28 10 1 29 42 43 30 21 9 32 
          8 21 30 29 14 49 22 9 31 28 34 31 29 33 32 10 29 32 21 32 
          41 22 31 40 26 25 37 49 14 78 34 28 35 25 24 38 35 27 36 36 
          26 37 24 23 39 37 25 38 12 11 54 38 24 39 14 13 51 34 35 69 
          31 34 40 33 77 81 32 33 41 18 19 45 41 33 70 30 21 42 20 30 
          43 74 48 94 19 20 44 19 44 45 15 16 48 45 57 46 17 18 46 45 
          44 58 16 17 47 16 47 48 47 46 56 33 29 77 22 40 50 40 34 68 
          13 50 76 55 56 93 11 53 73 39 23 52 15 48 74 39 52 63 52 12 
          71 36 37 66 48 47 55 73 53 100 55 47 56 75 51 98 44 43 59 56 
          46 57 43 42 60 42 41 61 57 45 58 91 92 58 58 44 59 59 43 60 
          58 59 91 60 42 61 91 59 90 50 40 62 63 85 86 37 38 65 52 71 
          85 38 39 64 64 63 86 38 64 65 65 84 66 37 65 66 62 68 87 66 
          83 67 35 36 67 34 69 68 62 40 68 35 67 69 69 67 82 61 41 70 
          60 61 90 54 72 101 12 54 71 54 11 72 63 52 85 72 11 73 53 15 
          74 55 93 94 14 51 75 72 73 80 51 13 76 62 87 88 49 78 95 29 
          49 77 14 75 78 70 33 81 75 79 78 95 78 122 75 98 121 101 72 119 
          73 100 120 77 49 96 61 70 89 80 120 137 68 69 82 65 64 84 83 84 
          116 67 83 82 84 83 66 71 54 102 114 115 86 85 113 114 84 64 86 68 
          82 87 82 116 87 50 62 88 51 76 97 56 57 92 70 81 89 81 117 118 
          61 89 90 89 139 90 59 60 90 91 90 110 92 57 58 56 92 93 92 109 
          93 48 55 94 53 74 99 81 77 96 95 106 96 49 95 96 76 88 97 88 
          87 112 51 97 98 97 88 111 74 94 99 94 93 108 53 99 100 99 94 107 
          122 151 95 85 71 102 105 150 98 101 103 102 54 101 102 85 102 113 119 148 
          101 100 99 104 104 149 100 148 103 101 98 97 105 104 107 133 81 96 117 104 
          99 107 89 118 139 107 94 108 125 131 146 109 92 110 108 93 109 124 129 109 
          92 91 110 105 97 111 134 142 127 111 88 112 105 111 132 82 83 116 102 103 
          113 103 134 113 86 85 114 140 116 123 114 126 115 84 86 115 112 87 140 84 
          115 116 96 106 117 109 110 124 89 81 118 117 106 131 72 80 119 80 73 120 
          79 121 136 154 131 106 79 75 121 135 145 158 132 155 105 78 79 122 149 120 
          100 114 113 127 111 112 128 116 115 123 118 117 125 110 139 124 107 108 130 139 
          147 124 128 123 143 123 115 126 126 114 127 112 140 128 147 125 146 108 109 129 
          108 129 130 129 141 130 125 117 131 122 79 135 128 143 132 111 128 132 141 133 
          130 119 80 138 107 130 133 142 126 127 127 113 134 151 106 95 132 153 155 137 
          149 160 150 121 98 135 79 136 145 135 136 133 156 104 80 137 138 157 134 103 
          137 144 138 139 110 90 124 147 141 87 116 140 123 128 140 147 146 141 123 126 
          143 148 138 161 142 153 143 126 142 143 136 150 159 142 134 157 146 131 154 156 
          133 152 160 149 156 153 157 163 145 159 168 147 118 125 139 118 147 141 129 124 
          119 138 148 161 157 148 137 120 149 141 146 152 136 121 150 155 159 150 122 135 
          151 158 165 154 156 149 104 151 154 106 132 143 153 148 157 103 152 146 154 151 
          158 154 155 150 105 133 141 152 153 142 157 159 155 164 151 135 158 145 136 159 
          157 161 163 144 137 160 145 168 158 156 152 162 138 144 161 164 166 159 152 154 
          165 160 156 162 144 160 167 163 164 153 161 144 166 163 166 164 164 155 153 162 
          152 165 167 162 165 144 167 166 163 161 166 166 168 159 160 162 167 168 167 158 
          167 165 158 166 167 168 
        </DataArray>
        <DataArray type="Int64" Name="offsets" format="ascii">
          4 8 12 16 20 24 28 32 36 40 44 48 52 56 60 64 68 72 76 80 
          84 88 92 96 100 104 108 112 116 120 124 128 132 136 140 144 148 152 156 160 
          164 168 172 176 180 184 188 192 196 200 204 208 212 216 220 224 228 232 236 240 
          244 248 252 256 260 264 268 272 276 280 284 288 292 296 300 304 308 312 316 320 
          324 328 332 336 340 344 348 352 356 360 364 368 372 376 380 384 388 392 396 400 
          404 408 412 416 420 424 428 432 436 440 444 448 452 456 460 464 468 472 476 480 
          484 488 492 496 500 504 508 512 516 520 524 528 532 536 540 544 548 552 556 560 
          564 568 572 576 580 584 588 592 596 600 604 608 612 616 620 624 628 632 636 640 
          644 648 652 656 660 664 668 672 676 680 684 688 692 696 700 704 708 712 716 720 
          724 728 732 736 740 744 748 752 756 760 764 768 772 776 780 784 788 792 796 800 
          804 808 812 816 820 824 828 832 836 840 844 848 852 856 860 864 868 872 876 880 
          884 888 892 896 900 904 908 912 916 920 924 928 932 936 940 944 948 952 956 960 
          964 968 972 976 980 984 988 992 996 1000 1004 1008 1012 1016 1020 1024 1028 1032 1036 1040 
          1044 1048 1052 1056 1060 1064 1068 1072 1076 1080 1084 1088 1092 1096 1100 1104 1108 1112 1116 1120 
          1124 1128 1132 1136 1140 1144 1148 1152 1156 1160 1164 1168 1172 1176 1180 1184 1188 1192 1196 1200 
          1204 1208 1212 1216 1220 1224 1228 1232 1236 1240 1244 1248 1252 1256 1260 1264 1268 1272 1276 1280 
          1284 1288 1292 1296 1300 1304 1308 1312 1316 1320 1324 1328 1332 1336 1340 1344 1348 1352 1356 1360 
          1364 1368 1372 1376 1380 1384 1388 1392 1396 1400 1404 1408 1412 1416 1420 1424 1428 1432 1436 1440 
          1444 1448 1452 1456 1460 1464 1468 1472 1476 1480 1484 1488 1492 1496 1500 1504 1508 1512 1516 1520 
          1524 1528 1532 1536 1540 1544 1548 1552 1556 1560 1564 1568 1572 1576 1580 1584 1588 1592 1596 1600 
          1604 1608 1612 1616 1620 1624 1628 1632 1636 1640 1644 1648 1652 1656 1660 1664 1668 1672 1676 1680 
          1684 1688 1692 1696 1700 1704 1708 1712 1716 1720 1724 1728 1732 1736 1740 1744 1748 1752 1756 1760 
          1764 1768 1772 1776 1780 1784 1788 1792 1796 1800 1804 1808 1812 1816 1820 1824 1828 1832 1836 1840 
          1844 1848 1852 1856 1860 1864 1868 1872 1876 1880 1884 1888 1892 1896 1900 1904 1908 1912 1916 1920 
          1924 1928 1932 1936 1940 1944 1948 1952 1956 1960 1964 1968 1972 1976 1980 1984 1988 1992 1996 2000 
          2004 2008 2012 2016 2020 2024 2028 2032 2036 2040 2044 2048 2052 2056 2060 2064 2068 2072 2076 2080 
          2084 2088 2092 2096 2100 2104 2108 2112 2116 2120 2124 2128 2132 2136 2140 2144 2148 2152 2156 2160 
          2164 2168 2172 2176 2180 2184 2188 2192 2196 2200 2204 2208 2212 2216 2220 2224 2228 2232 2236 2240 
          2244 2248 2252 2256 2260 2264 2268 2272 2276 2280 2284 2288 2292 2296 2300 2304 2308 2312 2316 2320 
          2324 2328 2332 2336 2340 2344 2348 2352 2356 2360 2364 2368 2372 2376 2380 2384 2388 2392 2396 2400 
          2404 2408 2412 2416 2420 2424 2428 2432 2436 2440 2444 2448 2452 2456 2460 2464 2468 2472 2476 2480 
          2484 2488 2492 2496 2500 2504 2508 2512 2516 2520 2524 2528 2532 2536 2540 2544 2548 2552 2556 2560 
          2564 2568 2572 2576 2580 2584 2588 2592 2596 2600 2604 2608 2612 2616 2620 2624 2628 2632 2636 2640 
          2644 2648 2652 2656 2660 2664 2668 2672 2676 2680 2684 2688 2692 2696 2700 2704 2708 2712 2716 2720 
          2724 2728 2732 2736 2740 2744 2748 2752 2756 2760 2764 2768 2772 2776 2780 2784 2788 2792 2796 2800 
          2804 2808 2812 2816 2820 2824 2828 2832 2836 2840 2844 2848 2852 2856 2860 2864 2868 2872 2876 2880 
          2884 2888 2892 2896 2900 2904 2908 2912 2916 2920 2924 2928 2932 2936 2940 2944 2948 2952 2956 2960 
          2964 2968 2972 2976 2980 2984 2988 2992 2996 3000 3004 3008 3012 3016 3020 3024 3028 3032 3036 3040 
          3044 3048 3052 3056 3060 3064 3068 3072 3076 3080 3084 3088 3092 3096 3100 3104 3108 3112 3116 3120 
          3124 3128 3132 3136 3140 3144 3148 3152 3156 3160 3164 3168 3172 3176 3180 3184 3188 3192 3196 3200 
          3204 3208 3212 3216 3220 3224 3228 3232 3236 3240 3244 3248 3252 3256 3260 3264 3268 3272 3276 3280 
          3284 3288 3292 3296 3300 3304 3308 3312 3316 3320 3324 3328 3332 3336 3340 3344 3348 3352 3356 3360 
          3364 3368 3372 3376 3380 3384 3388 3392 3396 3400 3404 3408 3412 3416 3420 3424 3428 3432 3436 3440 
          3444 3448 3452 3456 3460 3464 3468 3472 3476 3480 3484 3488 3492 3496 3500 3504 3508 3512 3516 3520 
          3524 3528 3532 3536 3540 3544 3548 3552 3556 3560 3564 3568 3572 3576 3580 3584 3588 3592 3596 3600 
          3604 3608 3612 3616 3620 3624 3628 3632 3636 3640 3644 3648 3652 3656 3660 3664 3668 3672 3676 3680 
          3684 3688 3692 3696 3700 3704 3708 3712 3716 3720 3724 3728 3732 3736 3740 3744 3748 3752 3756 3760 
          3764 3768 3772 3776 3780 3784 3788 3792 3796 3800 3804 3808 3812 3816 3820 3824 3828 3832 3836 3840 
          3844 3848 3852 3856 3860 3864 3868 3872 3876 3880 3884 3888 3892 3896 3900 3904 3908 3912 3916 3920 
          3924 3928 3932 3936 3940 3944 3948 3952 3956 3960 3964 3968 3972 3976 3980 3984 3988 3992 3996 4000 
          4004 4008 4012 4016 4020 4024 4028 4032 4036 4040 4044 4048 4052 4056 4060 4064 4068 4072 4076 4080 
          4084 4088 4092 4096 4100 4104 4108 4112 4116 4120 4124 4128 4132 4136 4140 4144 4148 4152 4156 4160 
          4164 4168 4172 4176 4180 4184 4188 4192 4196 4200 4204 4208 4212 4216 4220 4224 4228 4232 4236 4240 
          4244 4248 4252 4256 4260 4264 4268 4272 4276 4280 4284 4288 4292 4296 4300 4304 4308 4312 4316 4320 
          4324 4328 4332 4336 4340 4344 4348 4352 4356 4360 4364 4368 4372 4376 4380 4384 4388 4392 4396 4400 
          4404 4408 4412 4416 4420 4424 4428 4432 4436 4440 4444 4448 4452 4456 4460 4464 4468 4472 4476 4480 
          4484 4488 4492 4496 4500 4504 4508 4512 4516 4520 4524 4528 4532 4536 4540 4544 4548 4552 4556 4560 
          4564 4568 4572 4576 4580 4584 4588 4592 4596 4600 4604 4608 4612 4616 4620 4624 4628 4632 4636 4640 
          4644 4648 4652 4656 4660 4664 4668 4672 4676 4680 4684 4688 4692 4696 4700 4704 4708 4712 4716 4720 
          4724 4728 4732 4736 4740 4744 4748 4752 4756 4760 4764 4768 4772 4776 4780 4784 4788 4792 4796 4800 
          4804 4808 4812 4816 4820 4824 4828 4832 4836 4840 4844 4848 4852 4856 4860 4864 4868 4872 4876 4880 
          4884 4888 4892 4896 4900 4904 4908 4912 4916 4920 4924 4928 4932 4936 4940 4944 4948 4952 4956 4960 
          4964 4968 4972 4976 4980 4984 4988 4992 4996 5000 5004 5008 5012 5016 5020 5024 5028 5032 5036 5040 
          5044 5048 5052 5056 5060 5064 5068 5072 5076 5080 5084 5088 5092 5096 5100 5104 5108 5112 5116 5120 
          5124 5128 5132 5136 5140 5144 5148 5152 5156 5160 5164 5168 5172 5176 5180 5184 5188 5192 5196 5200 
          5204 5208 5212 5216 5220 5224 5228 5232 5236 5240 5244 5248 5252 5256 5260 5264 5268 5272 5276 5280 
          5284 5288 5292 5296 5300 5304 5308 5312 5316 5320 5324 5328 5332 5336 5340 5344 5348 5352 5356 5360 
          5364 5368 5372 5376 5380 5384 5388 5392 5396 5400 5404 5408 5412 5416 5420 5424 5428 5432 5436 5440 
          5444 5448 5452 5456 5460 5464 5468 5472 5476 5480 5484 5488 5492 5496 5500 5504 5508 5512 5516 5520 
          5524 5528 5532 5536 5540 5544 5547 5550 5553 5556 5559 5562 5565 5568 5571 5574 5577 5580 5583 5586 
          5589 5592 5595 5598 5601 5604 5607 5610 5613 5616 5619 5622 5625 5628 5631 5634 5637 5640 5643 5646 
          5649 5652 5655 5658 5661 5664 5667 5670 5673 5676 5679 5682 5685 5688 5691 5694 5697 5700 5703 5706 
          5709 5712 5715 5718 5721 5724 5727 5730 5733 5736 5739 5742 5745 5748 5751 5754 5757 5760 5763 5766 
          5769 5772 5775 5778 5781 5784 5787 5790 5793 5796 5799 5802 5805 5808 5811 5814 5817 5820 5823 5826 
          5829 5832 5835 5838 5841 5844 5847 5850 5853 5856 5859 5862 5865 5868 5871 5874 5877 5880 5883 5886 
          5889 5892 5895 5898 5901 5904 5907 5910 5913 5916 5919 5922 5925 5928 5931 5934 5937 5940 5943 5946 
          5949 5952 5955 5958 5961 5964 5967 5970 5973 5976 5979 5982 5985 5988 5991 5994 5997 6000 6003 6006 
          6009 6012 6015 6018 6021 6024 6027 6030 6033 6036 6039 6042 6045 6048 6051 6054 6057 6060 6063 6066 
          6069 6072 6075 6078 6081 6084 6087 6090 6093 6096 6099 6102 6105 6108 6111 6114 6117 6120 6123 6126 
          6129 6132 6135 6138 6141 6144 6147 6150 6153 6156 6159 6162 6165 6168 6171 6174 6177 6180 6183 6186 
          6189 6192 6195 6198 6201 6204 6207 6210 6213 6216 6219 6222 6225 6228 6231 6234 6237 6240 6243 6246 
          6249 6252 6255 6258 6261 6264 6267 6270 6273 6276 6279 6282 6285 6288 6291 6294 6297 6300 6303 6306 
          6309 6312 6315 6318 6321 6324 6327 6330 6333 6336 6339 6342 6345 6348 6351 6354 6357 6360 6363 6366 
          6369 6372 6375 6378 6381 6384 6387 6390 6393 6396 6399 6402 6405 6408 6411 6414 6417 6420 6423 6426 
          6429 6432 6435 6438 6441 6444 6447 6450 6453 6456 6459 6462 6465 6468 6471 6474 6477 6480 6483 6486 
          6489 6492 6495 6498 6501 6504 6507 6510 6513 6516 6519 6522 6525 6528 6531 6534 6537 6540 6543 6546 
          
        </DataArray>
        <DataArray type="UInt8" Name="types" format="ascii">
          10 10 10 10 10 10 10 10 10 10 10 10 10 10 10 10 10 10 10 10 
          10 10 10 10 10 10 10 10 10 10 10 10 10 10 10 10 10 10 10 10 
          10 10 10 10 10 10 10 10 10 10 10 10 10 10 10 10 10 10 10 10 
          10 10 10 10 10 10 10 10 10 10 10 10 10 10 10 10 10 10 10 10 
          10 10 10 10 10 10 10 10 10 10 10 10 10 10 10 10 10 10 10 10 
          10 10 10 10 10 10 10 10 10 10 10 10 10 10 10 10 10 10 10 10 
          10 10 10 10 10 10 10 10 10 10 10 10 10 10 10 10 10 10 10 10 
          10 10 10 10 10 10 10 10 10 10 10 10 10 10 10 10 10 10 10 10 
          10 10 10 10 10 10 10 10 10 10 10 10 10 10 10 10 10 10 10 10 
          10 10 10 10 10 10 10 10 10 10 10 10 10 10 10 10 10 10 10 10 
          10 10 10 10 10 10 10 10 10 10 10 10 10 10 10 10 10 10 10 10 
          10 10 10 10 10 10 10 10 10 10 10 10 10 10 10 10 10 10 10 10 
          10 10 10 10 10 10 10 10 10 10 10 10 10 10 10 10 10 10 10 10 
          10 10 10 10 10 10 10 10 10 10 10 10 10 10 10 10 10 10 10 10 
          10 10 10 10 10 10 10 10 10 10 10 10 10 10 10 10 10 10 10 10 
          10 10 10 10 10 10 10 10 10 10 10 10 10 10 10 10 10 10 10 10 
          10 10 10 10 10 10 10 10 10 10 10 10 10 10 10 10 10 10 10 10 
          10 10 10 10 10 10 10 10 10 10 10 10 10 10 10 10 10 10 10 10 
          10 10 10 10 10 10 10 10 10 10 10 10 10 10 10 10 10 10 10 10 
          10 10 10 10 10 10 10 10 10 10 10 10 10 10 10 10 10 10 10 10 
          10 10 10 10 10 10 10 10 10 10 10 10 10 10 10 10 10 10 10 10 
          10 10 10 10 10 10 10 10 10 10 10 10 10 10 10 10 10 10 10 10 
          10 10 10 10 10 10 10 10 10 10 10 10 10 10 10 10 10 10 10 10 
          10 10 10 10 10 10 10 10 10 10 10 10 10 10 10 10 10 10 10 10 
          10 10 10 10 10 10 10 10 10 10 10 10 10 10 10 10 10 10 10 10 
          10 10 10 10 10 10 10 10 10 10 10 10 10 10 10 10 10 10 10 10 
          10 10 10 10 10 10 10 10 10 10 10 10 10 10 10 10 10 10 10 10 
          10 10 10 10 10 10 10 10 10 10 10 10 10 10 10 10 10 10 10 10 
          10 10 10 10 10 10 10 10 10 10 10 10 10 10 10 10 10 10 10 10 
          10 10 10 10 10 10 10 10 10 10 10 10 10 10 10 10 10 10 10 10 
          10 10 10 10 10 10 10 10 10 10 10 10 10 10 10 10 10 10 10 10 
          10 10 10 10 10 10 10 10 10 10 10 10 10 10 10 10 10 10 10 10 
          10 10 10 10 10 10 10 10 10 10 10 10 10 10 10 10 10 10 10 10 
          10 10 10 10 10 10 10 10 10 10 10 10 10 10 10 10 10 10 10 10 
          10 10 10 10 10 10 10 10 10 10 10 10 10 10 10 10 10 10 10 10 
          10 10 10 10 10 10 10 10 10 10 10 10 10 10 10 10 10 10 10 10 
          10 10 10 10 10 10 10 10 10 10 10 10 10 10 10 10 10 10 10 10 
          10 10 10 10 10 10 10 10 10 10 10 10 10 10 10 10 10 10 10 10 
          10 10 10 10 10 10 10 10 10 10 10 10 10 10 10 10 10 10 10 10 
          10 10 10 10 10 10 10 10 10 10 10 10 10 10 10 10 10 10 10 10 
          10 10 10 10 10 10 10 10 10 10 10 10 10 10 10 10 10 10 10 10 
          10 10 10 10 10 10 10 10 10 10 10 10 10 10 10 10 10 10 10 10 
          10 10 10 10 10 10 10 10 10 10 10 10 10 10 10 10 10 10 10 10 
          10 10 10 10 10 10 10 10 10 10 10 10 10 10 10 10 10 10 10 10 
          10 10 10 10 10 10 10 10 10 10 10 10 10 10 10 10 10 10 10 10 
          10 10 10 10 10 10 10 10 10 10 10 10 10 10 10 10 10 10 10 10 
          10 10 10 10 10 10 10 10 10 10 10 10 10 10 10 10 10 10 10 10 
          10 10 10 10 10 10 10 10 10 10 10 10 10 10 10 10 10 10 10 10 
          10 10 10 10 10 10 10 10 10 10 10 10 10 10 10 10 10 10 10 10 
          10 10 10 10 10 10 10 10 10 10 10 10 10 10 10 10 10 10 10 10 
          10 10 10 10 10 10 10 10 10 10 10 10 10 10 10 10 10 10 10 10 
          10 10 10 10 10 10 10 10 10 10 10 10 10 10 10 10 10 10 10 10 
          10 10 10 10 10 10 10 10 10 10 10 10 10 10 10 10 10 10 10 10 
          10 10 10 10 10 10 10 10 10 10 10 10 10 10 10 10 10 10 10 10 
          10 10 10 10 10 10 10 10 10 10 10 10 10 10 10 10 10 10 10 10 
          10 10 10 10 10 10 10 10 10 10 10 10 10 10 10 10 10 10 10 10 
          10 10 10 10 10 10 10 10 10 10 10 10 10 10 10 10 10 10 10 10 
          10 10 10 10 10 10 10 10 10 10 10 10 10 10 10 10 10 10 10 10 
          10 10 10 10 10 10 10 10 10 10 10 10 10 10 10 10 10 10 10 10 
          10 10 10 10 10 10 10 10 10 10 10 10 10 10 10 10 10 10 10 10 
          10 10 10 10 10 10 10 10 10 10 10 10 10 10 10 10 10 10 10 10 
          10 10 10 10 10 10 10 10 10 10 10 10 10 10 10 10 10 10 10 10 
          10 10 10 10 10 10 10 10 10 10 10 10 10 10 10 10 10 10 10 10 
          10 10 10 10 10 10 10 10 10 10 10 10 10 10 10 10 10 10 10 10 
          10 10 10 10 10 10 10 10 10 10 10 10 10 10 10 10 10 10 10 10 
          10 10 10 10 10 10 10 10 10 10 10 10 10 10 10 10 10 10 10 10 
          10 10 10 10 10 10 10 10 10 10 10 10 10 10 10 10 10 10 10 10 
          10 10 10 10 10 10 10 10 10 10 10 10 10 10 10 10 10 10 10 10 
          10 10 10 10 10 10 10 10 10 10 10 10 10 10 10 10 10 10 10 10 
          10 10 10 10 10 10 5 5 5 5 5 5 5 5 5 5 5 5 5 5 
          5 5 5 5 5 5 5 5 5 5 5 5 5 5 5 5 5 5 5 5 
          5 5 5 5 5 5 5 5 5 5 5 5 5 5 5 5 5 5 5 5 
          5 5 5 5 5 5 5 5 5 5 5 5 5 5 5 5 5 5 5 5 
          5 5 5 5 5 5 5 5 5 5 5 5 5 5 5 5 5 5 5 5 
          5 5 5 5 5 5 5 5 5 5 5 5 5 5 5 5 5 5 5 5 
          5 5 5 5 5 5 5 5 5 5 5 5 5 5 5 5 5 5 5 5 
          5 5 5 5 5 5 5 5 5 5 5 5 5 5 5 5 5 5 5 5 
          5 5 5 5 5 5 5 5 5 5 5 5 5 5 5 5 5 5 5 5 
          5 5 5 5 5 5 5 5 5 5 5 5 5 5 5 5 5 5 5 5 
          5 5 5 5 5 5 5 5 5 5 5 5 5 5 5 5 5 5 5 5 
          5 5 5 5 5 5 5 5 5 5 5 5 5 5 5 5 5 5 5 5 
          5 5 5 5 5 5 5 5 5 5 5 5 5 5 5 5 5 5 5 5 
          5 5 5 5 5 5 5 5 5 5 5 5 5 5 5 5 5 5 5 5 
          5 5 5 5 5 5 5 5 5 5 5 5 5 5 5 5 5 5 5 5 
          5 5 5 5 5 5 5 5 5 5 5 5 5 5 5 5 5 5 5 5 
          5 5 5 5 5 5 5 5 5 5 5 5 5 5 5 5 5 5 5 5 
          
        </DataArray>
      </Cells>
      <CellData Scalars="BlockID">
        <DataArray type="Int32" Name="BlockID" format="ascii">
          1 1 1 1 1 1 1 1 1 1 1 1 1 1 1 1 1 1 1 1 
          1 1 1 1 1 1 1 1 1 1 1 1 1 1 1 1 1 1 1 1 
          1 1 1 1 1 1 1 1 1 1 1 1 1 1 1 1 1 1 1 1 
          1 1 1 1 1 1 1 1 1 1 1 1 1 1 1 1 1 1 1 1 
          1 1 1 1 1 1 1 1 1 1 1 1 1 1 1 1 1 1 1 1 
          1 1 1 1 1 1 1 1 1 1 1 1 1 1 1 1 1 1 1 1 
          1 1 1 1 1 1 1 1 1 1 1 1 1 1 1 1 1 1 1 1 
          1 1 1 1 1 1 1 1 1 1 1 1 1 1 1 1 1 1 1 1 
          1 1 1 1 1 1 1 1 1 1 1 1 1 1 1 1 1 1 1 1 
          1 1 1 1 1 1 1 1 1 1 1 1 1 1 1 1 1 1 1 1 
          1 1 1 1 1 1 1 1 1 1 1 1 1 1 1 1 1 1 1 1 
          1 1 1 1 1 1 1 1 1 1 1 1 1 1 1 1 1 1 1 1 
          1 1 1 1 1 1 1 1 1 1 1 1 1 1 1 1 1 1 1 1 
          1 1 1 1 1 1 1 1 1 1 1 1 1 1 1 1 1 1 1 1 
          1 1 1 1 1 1 1 1 1 1 1 1 1 1 1 1 1 1 1 1 
          1 1 1 1 1 1 1 1 1 1 1 1 1 1 1 1 1 1 1 1 
          1 1 1 1 1 1 1 1 1 1 1 1 1 1 1 1 1 1 1 1 
          1 1 1 1 1 1 1 1 1 1 1 1 1 1 1 1 1 1 1 1 
          1 1 1 1 1 1 1 1 1 1 1 1 1 1 1 1 1 1 1 1 
          1 1 1 1 1 1 1 1 1 1 1 1 1 1 1 1 1 1 1 1 
          1 1 1 1 1 1 1 1 1 1 1 1 1 1 1 1 1 1 1 1 
          1 1 1 1 1 1 1 1 1 1 1 1 1 1 1 1 1 1 1 1 
          1 1 1 1 1 1 1 1 1 1 1 1 1 1 1 1 1 1 1 1 
          1 1 1 1 1 1 1 1 1 1 1 1 1 1 1 1 1 1 1 1 
          1 1 1 1 1 1 1 1 1 1 1 1 1 1 1 1 1 1 1 1 
          1 1 1 1 1 1 1 1 1 1 1 1 1 1 1 1 1 1 1 1 
          1 1 1 1 1 1 1 1 1 1 1 1 1 1 1 1 1 1 1 1 
          1 1 1 1 1 1 1 1 1 1 1 1 1 1 1 1 1 1 1 1 
          1 1 1 1 1 1 1 1 1 1 1 1 1 1 1 1 1 1 1 1 
          1 1 1 1 1 1 1 1 1 1 1 1 1 1 1 1 1 1 1 1 
          1 1 1 1 1 1 1 1 1 1 1 1 1 1 1 1 1 1 1 1 
          1 1 1 1 1 1 1 1 1 1 1 1 1 1 1 1 1 1 1 1 
          1 1 1 1 1 1 1 1 1 1 1 1 1 1 1 1 1 1 1 1 
          1 1 1 1 1 1 1 1 1 1 1 1 1 1 1 1 1 1 1 1 
          1 1 1 1 1 1 1 1 1 1 1 1 1 1 1 1 1 1 1 1 
          1 1 1 1 1 1 1 1 1 1 1 1 1 1 1 1 1 1 1 1 
          1 1 1 1 1 1 1 1 1 1 1 1 1 1 1 1 1 1 1 1 
          1 1 1 1 1 1 1 1 1 1 1 1 1 1 1 1 1 1 1 1 
          1 1 1 1 1 1 1 1 1 1 1 1 1 1 1 1 1 1 1 1 
          1 1 1 1 1 1 1 1 1 1 1 1 1 1 1 1 1 1 1 1 
          1 1 1 1 1 1 1 1 1 1 1 1 1 1 1 1 1 1 1 1 
          1 1 1 1 1 1 1 1 1 1 1 1 1 1 1 1 1 1 1 1 
          1 1 1 1 1 1 1 1 1 1 1 1 1 1 1 1 1 1 1 1 
          1 1 1 1 1 1 1 1 1 1 1 1 1 1 1 1 1 1 1 1 
          1 1 1 1 1 1 1 1 1 1 1 1 1 1 1 1 1 1 1 1 
          1 1 1 1 1 1 1 1 1 1 1 1 1 1 1 1 1 1 1 1 
          1 1 1 1 1 1 1 1 1 1 1 1 1 1 1 1 1 1 1 1 
          1 1 1 1 1 1 1 1 1 1 1 1 1 1 1 1 1 1 1 1 
          1 1 1 1 1 1 1 1 1 1 1 1 1 1 1 1 1 1 1 1 
          1 1 1 1 1 1 1 1 1 1 1 1 1 1 1 1 1 1 1 1 
          1 1 1 1 1 1 1 1 1 1 1 1 1 1 1 1 1 1 1 1 
          1 1 1 1 1 1 1 1 1 1 1 1 1 1 1 1 1 1 1 1 
          1 1 1 1 1 1 1 1 1 1 1 1 1 1 1 1 1 1 1 1 
          1 1 1 1 1 1 1 1 1 1 1 1 1 1 1 1 1 1 1 1 
          1 1 1 1 1 1 1 1 1 1 1 1 1 1 1 1 1 1 1 1 
          1 1 1 1 1 1 1 1 1 1 1 1 1 1 1 1 1 1 1 1 
          1 1 1 1 1 1 1 1 1 1 1 1 1 1 1 1 1 1 1 1 
          1 1 1 1 1 1 1 1 1 1 1 1 1 1 1 1 1 1 1 1 
          1 1 1 1 1 1 1 1 1 1 1 1 1 1 1 1 1 1 1 1 
          1 1 1 1 1 1 1 1 1 1 1 1 1 1 1 1 1 1 1 1 
          1 1 1 1 1 1 1 1 1 1 1 1 1 1 1 1 1 1 1 1 
          1 1 1 1 1 1 1 1 1 1 1 1 1 1 1 1 1 1 1 1 
          1 1 1 1 1 1 1 1 1 1 1 1 1 1 1 1 1 1 1 1 
          1 1 1 1 1 1 1 1 1 1 1 1 1 1 1 1 1 1 1 1 
          1 1 1 1 1 1 1 1 1 1 1 1 1 1 1 1 1 1 1 1 
          1 1 1 1 1 1 1 1 1 1 1 1 1 1 1 1 1 1 1 1 
          1 1 1 1 1 1 1 1 1 1 1 1 1 1 1 1 1 1 1 1 
          1 1 1 1 1 1 1 1 1 1 1 1 1 1 1 1 1 1 1 1 
          1 1 1 1 1 1 1 1 1 1 1 1 1 1 1 1 1 1 1 1 
          1 1 1 1 1 1 2 2 2 2 2 2 2 2 2 2 2 2 2 2 
          2 2 2 2 2 2 2 2 2 2 2 2 2 2 2 2 2 2 2 2 
          2 2 2 2 2 2 2 2 2 2 2 2 2 2 2 2 2 2 2 2 
          2 2 2 2 2 2 2 2 2 2 2 2 2 2 2 2 2 2 2 2 
          2 2 2 2 2 2 2 2 2 2 2 2 2 2 2 2 2 2 2 2 
          2 2 2 2 2 2 2 2 2 2 2 2 2 2 2 2 2 2 2 2 
          2 2 2 2 2 2 2 2 2 2 2 2 2 2 2 2 2 2 2 2 
          2 2 2 2 2 2 2 2 2 2 2 2 2 2 2 2 2 2 2 2 
          2 2 2 2 2 2 2 2 2 2 2 2 2 2 2 2 2 2 2 2 
          2 2 2 2 2 2 2 2 2 2 2 2 2 2 2 2 2 2 2 2 
          2 2 2 2 2 2 2 2 2 2 2 2 2 2 2 2 2 2 2 2 
          2 2 2 2 2 2 2 2 2 2 2 2 2 2 2 2 2 2 2 2 
          2 2 2 2 2 2 2 2 2 2 2 2 2 2 2 2 2 2 2 2 
          2 2 2 2 2 2 2 2 2 2 2 2 2 2 2 2 2 2 2 2 
          2 2 2 2 2 2 2 2 2 2 2 2 2 2 2 2 2 2 2 2 
          2 2 2 2 2 2 2 2 2 2 2 2 2 2 2 2 2 2 2 2 
          2 2 2 2 2 2 2 2 2 2 2 2 2 2 2 2 2 2 2 2 
          
        </DataArray>
      </CellData>
      <PointData Scalars="NodeID">
        <DataArray type="Int32" Name="NodeID" format="ascii">
          1 2 3 4 5 6 7 8 9 10 11 12 13 14 15 16 17 18 19 20 
          21 22 23 24 25 26 27 28 29 30 31 32 33 34 35 36 37 38 39 40 
          41 42 43 44 45 46 47 48 49 50 51 52 53 54 55 56 57 58 59 60 
          61 62 63 64 65 66 67 68 69 70 71 72 73 74 75 76 77 78 79 80 
          81 82 83 84 85 86 87 88 89 90 91 92 93 94 95 96 97 98 99 100 
          101 102 103 104 105 106 107 108 109 110 111 112 113 114 115 116 117 118 119 120 
          121 122 123 124 125 126 127 128 129 130 131 132 133 134 135 136 137 138 139 140 
          141 142 143 144 145 146 147 148 149 150 151 152 153 154 155 156 157 158 159 160 
          161 162 163 164 165 166 167 168 169 170 171 172 173 174 175 176 177 178 179 180 
          181 182 183 184 185 186 187 188 189 190 191 192 193 194 195 196 197 198 199 200 
          201 202 203 204 205 206 207 208 209 210 211 212 213 214 215 216 217 218 219 220 
          221 222 223 224 225 226 227 228 229 230 231 232 233 234 235 236 237 238 239 240 
          241 242 243 244 245 246 247 248 249 250 251 252 253 254 255 256 257 258 259 260 
          261 262 263 264 265 266 267 268 269 270 271 272 273 274 275 276 277 278 279 280 
          281 282 283 284 285 286 287 288 289 290 291 292 293 294 295 296 297 298 299 300 
          301 302 303 304 305 306 307 308 309 310 311 312 313 314 315 316 317 318 319 320 
          321 322 323 324 325 326 327 328 329 
        </DataArray>
      </PointData>
    </Piece>
  </UnstructuredGrid>
</VTKFile>
