$$$$$$$$$$$$$$$$$$$$$$$$$$$$$$$$$$$$$$$$$$$$$$$$$$$$$$$$$$$$$$$$$$$$$$$$$$$$$$$$$$$$$$$$$$$$$$$$
$
$                         CUBIT NX Nastran Translator
$
$            File: cube_3d.bdf
$      Time Stamp: 01-Dec-25 at 15:11:37
$
$
$                        PLEASE CHECK YOUR MODEL FOR UNITS CONSISTENCY.
$
$       It should be noted that load ID's from CUBIT may NOT correspond to Nastran SID's
$ The SID's for the load and restraint sets start at one and increment by one:i.e.,1,2,3,4...
$
$$$$$$$$$$$$$$$$$$$$$$$$$$$$$$$$$$$$$$$$$$$$$$$$$$$$$$$$$$$$$$$$$$$$$$$$$$$$$$$$$$$$$$$$$$$$$$$$
$
$
$ -------------------------
$ Executive Control Section
$ -------------------------
$
SOL 101
CEND
$
$
$ --------------------
$ Case Control Section
$ --------------------
$
ECHO = SORT
$
$
$ Name: Initial
$
$
$ Name: Default Set
$
SUBCASE = 1
$
LABEL = Default Set
$
$ -----------------
$ Bulk Data Section
$ -----------------
$
BEGIN BULK
$
$ Params
$
$
$ Node cards
$
GRID*                  1               0         1.00000        -1.00000
*                1.00000
GRID*                  2               0         1.00000         1.00000
*                1.00000
GRID*                  3               0        -1.00000         1.00000
*                1.00000
GRID*                  4               0        -1.00000        -1.00000
*                1.00000
GRID*                  5               0         1.00000         1.00000
*               -1.00000
GRID*                  6               0         1.00000        -1.00000
*               -1.00000
GRID*                  7               0        -1.00000        -1.00000
*               -1.00000
GRID*                  8               0        -1.00000         1.00000
*               -1.00000
GRID*                  9               0         1.00000        -0.50000
*                1.00000
GRID*                 10               0         1.00000         0.00000
*                1.00000
GRID*                 11               0         1.00000         0.50000
*                1.00000
GRID*                 12               0         0.50000         1.00000
*                1.00000
GRID*                 13               0         0.00000         1.00000
*                1.00000
GRID*                 14               0        -0.50000         1.00000
*                1.00000
GRID*                 15               0        -1.00000         0.50000
*                1.00000
GRID*                 16               0        -1.00000         0.00000
*                1.00000
GRID*                 17               0        -1.00000        -0.50000
*                1.00000
GRID*                 18               0        -0.50000        -1.00000
*                1.00000
GRID*                 19               0         0.00000        -1.00000
*                1.00000
GRID*                 20               0         0.50000        -1.00000
*                1.00000
GRID*                 21               0        -0.27483         0.53341
*                1.00000
GRID*                 22               0         0.54457         0.19739
*                1.00000
GRID*                 23               0         0.55025        -0.30492
*                1.00000
GRID*                 24               0         0.27773         0.53063
*                1.00000
GRID*                 25               0        -0.54523         0.19649
*                1.00000
GRID*                 26               0        -0.54988        -0.30571
*                1.00000
GRID*                 27               0        -0.22884        -0.57057
*                1.00000
GRID*                 28               0         0.22966        -0.56939
*                1.00000
GRID*                 29               0         0.00002        -0.04273
*                1.00000
GRID*                 30               0         1.00000         0.50000
*               -1.00000
GRID*                 31               0         1.00000         0.00000
*               -1.00000
GRID*                 32               0         1.00000        -0.50000
*               -1.00000
GRID*                 33               0         0.50000        -1.00000
*               -1.00000
GRID*                 34               0         0.00000        -1.00000
*               -1.00000
GRID*                 35               0        -0.50000        -1.00000
*               -1.00000
GRID*                 36               0        -1.00000        -0.50000
*               -1.00000
GRID*                 37               0        -1.00000         0.00000
*               -1.00000
GRID*                 38               0        -1.00000         0.50000
*               -1.00000
GRID*                 39               0        -0.50000         1.00000
*               -1.00000
GRID*                 40               0         0.00000         1.00000
*               -1.00000
GRID*                 41               0         0.50000         1.00000
*               -1.00000
GRID*                 42               0         0.54122        -0.28689
*               -1.00000
GRID*                 43               0         0.55349         0.21568
*               -1.00000
GRID*                 44               0         0.22081        -0.53508
*               -1.00000
GRID*                 45               0        -0.22443        -0.53408
*               -1.00000
GRID*                 46               0        -0.54189        -0.28662
*               -1.00000
GRID*                 47               0        -0.55351         0.21578
*               -1.00000
GRID*                 48               0        -0.28854         0.56042
*               -1.00000
GRID*                 49               0         0.28726         0.56101
*               -1.00000
GRID*                 50               0        -0.00028         0.03636
*               -1.00000
GRID*                 51               0        -1.00000        -1.00000
*                0.50000
GRID*                 52               0        -1.00000        -1.00000
*                0.00000
GRID*                 53               0        -1.00000        -1.00000
*               -0.50000
GRID*                 54               0         1.00000        -1.00000
*               -0.50000
GRID*                 55               0         1.00000        -1.00000
*                0.00000
GRID*                 56               0         1.00000        -1.00000
*                0.50000
GRID*                 57               0         0.54395        -1.00000
*               -0.27125
GRID*                 58               0        -0.54570        -1.00000
*               -0.21249
GRID*                 59               0        -0.55950        -1.00000
*                0.23930
GRID*                 60               0        -0.29246        -1.00000
*               -0.53067
GRID*                 61               0         0.20016        -1.00000
*               -0.53190
GRID*                 62               0         0.55054        -1.00000
*                0.28869
GRID*                 63               0         0.21379        -1.00000
*                0.56768
GRID*                 64               0        -0.30177        -1.00000
*                0.56081
GRID*                 65               0        -0.00362        -1.00000
*                0.04016
GRID*                 66               0        -1.00000         1.00000
*                0.50000
GRID*                 67               0        -1.00000         1.00000
*                0.00000
GRID*                 68               0        -1.00000         1.00000
*               -0.50000
GRID*                 69               0        -1.00000        -0.29284
*               -0.52991
GRID*                 70               0        -1.00000         0.54401
*               -0.27131
GRID*                 71               0        -1.00000         0.55138
*                0.28787
GRID*                 72               0        -1.00000         0.20025
*               -0.53199
GRID*                 73               0        -1.00000        -0.54643
*               -0.19484
GRID*                 74               0        -1.00000        -0.54991
*                0.30587
GRID*                 75               0        -1.00000        -0.22860
*                0.57042
GRID*                 76               0        -1.00000         0.23386
*                0.56862
GRID*                 77               0        -1.00000        -0.00120
*                0.04083
GRID*                 78               0         1.00000         1.00000
*                0.50000
GRID*                 79               0         1.00000         1.00000
*                0.00000
GRID*                 80               0         1.00000         1.00000
*               -0.50000
GRID*                 81               0        -0.29230         1.00000
*               -0.53055
GRID*                 82               0         0.54394         1.00000
*               -0.27124
GRID*                 83               0         0.55035         1.00000
*                0.28889
GRID*                 84               0         0.20023         1.00000
*               -0.53192
GRID*                 85               0        -0.54714         1.00000
*               -0.21072
GRID*                 86               0        -0.55947         1.00000
*                0.23968
GRID*                 87               0        -0.30066         1.00000
*                0.56079
GRID*                 88               0         0.21164         1.00000
*                0.56755
GRID*                 89               0        -0.00377         1.00000
*                0.04002
GRID*                 90               0         1.00000         0.54441
*               -0.27091
GRID*                 91               0         1.00000        -0.54137
*               -0.28700
GRID*                 92               0         1.00000        -0.55415
*                0.21466
GRID*                 93               0         1.00000        -0.22103
*               -0.53512
GRID*                 94               0         1.00000         0.22334
*               -0.53506
GRID*                 95               0         1.00000         0.55062
*                0.28873
GRID*                 96               0         1.00000         0.21352
*                0.56742
GRID*                 97               0         1.00000        -0.30357
*                0.55891
GRID*                 98               0         1.00000        -0.00121
*                0.03694
GRID*                 99               0         0.60188         0.59182
*                0.62517
GRID*                100               0         0.26861         0.23025
*                0.55874
GRID*                101               0         0.70671        -0.03075
*                0.56814
GRID*                102               0         0.26220        -0.32089
*                0.54774
GRID*                103               0        -0.17467         0.22529
*                0.54482
GRID*                104               0         0.00153         0.70470
*                0.54585
GRID*                105               0        -0.57891         0.56528
*                0.57975
GRID*                106               0         0.59695        -0.61660
*                0.60780
GRID*                107               0        -0.22757        -0.31540
*                0.62625
GRID*                108               0         0.02124        -0.66894
*                0.51627
GRID*                109               0        -0.64813        -0.61710
*                0.63457
GRID*                110               0         0.40718        -0.62435
*                0.05458
GRID*                111               0        -0.50355        -0.57927
*                0.12892
GRID*                112               0        -0.02678        -0.54863
*               -0.35196
GRID*                113               0         0.55769        -0.57810
*               -0.57123
GRID*                114               0        -0.57670        -0.57355
*               -0.53197
GRID*                115               0         0.56170         0.54341
*               -0.53721
GRID*                116               0         0.38151        -0.00680
*               -0.55044
GRID*                117               0        -0.00379         0.43939
*               -0.56201
GRID*                118               0        -0.36181         0.01089
*               -0.55535
GRID*                119               0        -0.56869         0.57022
*               -0.56309
GRID*                120               0        -0.53507         0.37444
*                0.01917
GRID*                121               0        -0.56698         0.00135
*                0.42134
GRID*                122               0        -0.22440         0.60023
*                0.26011
GRID*                123               0         0.18172         0.52516
*                0.22402
GRID*                124               0        -0.19142         0.60470
*               -0.16455
GRID*                125               0         0.67636         0.46231
*                0.07855
GRID*                126               0         0.24122         0.53629
*               -0.26253
GRID*                127               0         0.54652        -0.25109
*               -0.27249
GRID*                128               0         0.56952        -0.21424
*                0.25460
GRID*                129               0         0.02287         0.05282
*                0.06988
GRID*                130               0         0.51233         0.16122
*               -0.03087
GRID*                131               0        -0.53681        -0.15904
*               -0.14874
GRID*                132               0        -0.11011        -0.40651
*                0.17578
GRID*                133               0        -0.00108        -0.26437
*               -0.73046
$
$ Element cards
$
$
$ Name: solid
$
CTETRA         1       1     109      18      17       4
CTETRA         2       1      99      24      11      12
CTETRA         3       1      24      88      13      12
CTETRA         4       1     103      29      21      25
CTETRA         5       1     104      24      13      21
CTETRA         6       1     102      29      28      23
CTETRA         7       1     106      28      20      23
CTETRA         8       1     108      19      27      64
CTETRA         9       1     100      21      29      24
CTETRA        10       1     102      29      23      22
CTETRA        11       1     107      64      27     109
CTETRA        12       1      10      96      22      11
CTETRA        13       1     116     115      94      43
CTETRA        14       1     105      15      25      21
CTETRA        15       1     115      94      43      30
CTETRA        16       1      14      87      13      21
CTETRA        17       1     113      33      42      32
CTETRA        18       1      45      60      35      34
CTETRA        19       1      61      45      60     112
CTETRA        20       1     114      36      46      35
CTETRA        21       1     118      47      46      37
CTETRA        22       1      47      72      38      37
CTETRA        23       1      39      81      48      40
CTETRA        24       1     117      49      48      40
CTETRA        25       1     119      39      48      38
CTETRA        26       1      31      93      42      32
CTETRA        27       1     112      61      65      60
CTETRA        28       1     111      59      58      65
CTETRA        29       1     106      63      20      28
CTETRA        30       1     107      27      28      29
CTETRA        31       1     111      59      52      58
CTETRA        32       1     119      70      68      38
CTETRA        33       1     112      65      58      60
CTETRA        34       1     114      53      35      60
CTETRA        35       1     118      69      37      46
CTETRA        36       1      59      51      74      52
CTETRA        37       1     109      18      26      17
CTETRA        38       1     109      75      74      17
CTETRA        39       1     105      14      21      87
CTETRA        40       1     122      89      86      87
CTETRA        41       1      49      84      41      40
CTETRA        42       1      85      70      67      68
CTETRA        43       1      90      82      79      80
CTETRA        44       1      91      55      57      54
CTETRA        45       1     113      93      32      42
CTETRA        46       1      31      94      30      43
CTETRA        47       1     117      81      40      48
CTETRA        48       1      86      71      66      67
CTETRA        49       1      99       2      12      11
CTETRA        50       1     104      87      21      13
CTETRA        51       1     105     104      87      21
CTETRA        52       1     110      57      62      65
CTETRA        53       1     115      49      41      30
CTETRA        54       1     115      82      80      41
CTETRA        55       1      99      24      12      88
CTETRA        56       1      95      83      78      79
CTETRA        57       1      16      15      25      76
CTETRA        58       1     105      71      15      66
CTETRA        59       1     105      71      76      15
CTETRA        60       1     105      66      14      87
CTETRA        61       1     101      10      22      23
CTETRA        62       1     106       9      23      20
CTETRA        63       1     106       1      20      56
CTETRA        64       1      97       9      10      23
CTETRA        65       1      83      89     104      88
CTETRA        66       1      99      96      11      22
CTETRA        67       1     109      27      18      64
CTETRA        68       1     111      59      65      64
CTETRA        69       1     121      16      25      76
CTETRA        70       1     109      51      64      18
CTETRA        71       1      19      27      64      18
CTETRA        72       1     108      63      64      65
CTETRA        73       1     113      57      33      54
CTETRA        74       1     116      31      42      43
CTETRA        75       1     116      31      94      93
CTETRA        76       1      36      69      46      37
CTETRA        77       1     114      53      69      36
CTETRA        78       1      73      53      58      52
CTETRA        79       1     114      45      35      46
CTETRA        80       1     119      39      81      48
CTETRA        81       1     119      47      38      48
CTETRA        82       1     116      50      49      43
CTETRA        83       1     114     118      46      69
CTETRA        84       1     113      33      44      42
CTETRA        85       1     113     127      91      93
CTETRA        86       1      61      33      34      44
CTETRA        87       1      55      92      62      56
CTETRA        88       1     114      53      60      58
CTETRA        89       1     109      51      17      74
CTETRA        90       1     109      59      51      74
CTETRA        91       1     113      61      44      33
CTETRA        92       1      61      45      44      34
CTETRA        93       1     133      44      45      50
CTETRA        94       1     110      55      92      62
CTETRA        95       1      63      19      20      28
CTETRA        96       1     108      19      28      27
CTETRA        97       1     110      63      65      62
CTETRA        98       1     114      73      53      58
CTETRA        99       1     111      59      74      52
CTETRA       100       1     131      72      69      77
CTETRA       101       1     120      86      67      71
CTETRA       102       1     119     117      48      81
CTETRA       103       1     119      47      72      38
CTETRA       104       1     119     118      72      47
CTETRA       105       1     120      71      67      70
CTETRA       106       1     120      77      71      70
CTETRA       107       1     105     103      21      25
CTETRA       108       1     121      77      76      71
CTETRA       109       1      75      26      16      17
CTETRA       110       1     121      26      25      16
CTETRA       111       1     107      26      29      25
CTETRA       112       1     121     105      76      25
CTETRA       113       1     121     109      26      75
CTETRA       114       1     109     111      59      74
CTETRA       115       1     114     111      73      58
CTETRA       116       1     124      89      84      81
CTETRA       117       1     119      85      81      68
CTETRA       118       1     120      77      70      72
CTETRA       119       1     124      89      85      86
CTETRA       120       1     125      95      79      83
CTETRA       121       1     115      49      84      41
CTETRA       122       1     115      90      30      80
CTETRA       123       1     115      90      94      30
CTETRA       124       1      99      95      11      96
CTETRA       125       1     125      83      79      82
CTETRA       126       1     126      89      83      82
CTETRA       127       1      99      95      78      11
CTETRA       128       1     100      24      29      22
CTETRA       129       1      99      83      12      78
CTETRA       130       1     105      86      66      87
CTETRA       131       1      29      21     100     103
CTETRA       132       1     127      98      93      94
CTETRA       133       1     126      89      82      84
CTETRA       134       1     115      90      80      82
CTETRA       135       1     110      91      55      57
CTETRA       136       1     110      61      57      65
CTETRA       137       1     113      91      54      32
CTETRA       138       1     101     102      23      22
CTETRA       139       1     123     122     104      89
CTETRA       140       1     126     125      82      83
CTETRA       141       1     125      98      94      90
CTETRA       142       1     106      92      56      62
CTETRA       143       1     106      97       9      56
CTETRA       144       1     101      10      96      22
CTETRA       145       1     106      62      56      20
CTETRA       146       1     125      95      98      90
CTETRA       147       1      99      95      83      78
CTETRA       148       1     125     115      82      90
CTETRA       149       1     125      95      96      98
CTETRA       150       1      99      83      88      12
CTETRA       151       1      99      24      22      11
CTETRA       152       1      99      78       2      11
CTETRA       153       1      99      78      12       2
CTETRA       154       1     121      77      75      76
CTETRA       155       1     100      99      24      22
CTETRA       156       1     104      99      88      24
CTETRA       157       1     104      89      87      88
CTETRA       158       1     132     108     102     107
CTETRA       159       1     121      77      74      75
CTETRA       160       1     101      99      22      96
CTETRA       161       1     107      27      29      26
CTETRA       162       1     124      89      81      85
CTETRA       163       1     128      97      92      98
CTETRA       164       1     108     107      27      28
CTETRA       165       1     122     105      87      86
CTETRA       166       1     104      88      87      13
CTETRA       167       1     104      89      83     123
CTETRA       168       1     104      24      88      13
CTETRA       169       1     106     110      92      62
CTETRA       170       1     106      63      62      20
CTETRA       171       1     100     102      22      29
CTETRA       172       1     107     102     103      29
CTETRA       173       1     127      98      92      91
CTETRA       174       1     101      97      98      96
CTETRA       175       1     127      98      91      93
CTETRA       176       1     100     101      22     102
CTETRA       177       1     116      50      42      44
CTETRA       178       1     108     107      28     102
CTETRA       179       1     107     102      29      28
CTETRA       180       1     107     103      25      29
CTETRA       181       1     121     107      25      26
CTETRA       182       1     129     107     102     103
CTETRA       183       1     111      77      73      74
CTETRA       184       1     131      69      73      77
CTETRA       185       1     118      50      45      46
CTETRA       186       1     105      15      76      25
CTETRA       187       1     121     105      25     103
CTETRA       188       1     105     104      21     103
CTETRA       189       1     105      14      15      21
CTETRA       190       1     122     105     103     104
CTETRA       191       1     105      86      71      66
CTETRA       192       1     120     119      85     124
CTETRA       193       1      14      66      15       3
CTETRA       194       1      15      66      14     105
CTETRA       195       1     115      49      30      43
CTETRA       196       1     117      50      48      49
CTETRA       197       1     116      50      43      42
CTETRA       198       1     115      82      41      84
CTETRA       199       1      41      80      30       5
CTETRA       200       1      30      80      41     115
CTETRA       201       1     112      61      45      44
CTETRA       202       1      60      45      61      34
CTETRA       203       1     114     112      60      45
CTETRA       204       1     129     100     103     102
CTETRA       205       1     118      50      46      47
CTETRA       206       1     111      73      52      74
CTETRA       207       1     111      73      58      52
CTETRA       208       1     111     112      65      58
CTETRA       209       1     108     111      65      64
CTETRA       210       1     109     111      64      59
CTETRA       211       1     132     111     112      65
CTETRA       212       1     132     129     110     112
CTETRA       213       1     121     109      75      74
CTETRA       214       1     114     112      58      60
CTETRA       215       1     131     114     112     111
CTETRA       216       1     113     116      42      44
CTETRA       217       1      45      44     133     112
CTETRA       218       1     116     115      43      49
CTETRA       219       1     116      31      93      42
CTETRA       220       1     133      45     118      50
CTETRA       221       1     113     110      91     127
CTETRA       222       1     125      94     130     115
CTETRA       223       1     116      31      43      94
CTETRA       224       1     117     115      84     126
CTETRA       225       1     126     117     115     116
CTETRA       226       1     118      50      47      48
CTETRA       227       1     118      47      37      72
CTETRA       228       1     118      72      37      69
CTETRA       229       1     114     118      45      46
CTETRA       230       1     118      45     133     112
CTETRA       231       1     119     118      47      48
CTETRA       232       1     117     116      50      49
CTETRA       233       1     121     120     105     103
CTETRA       234       1     111      73     131     114
CTETRA       235       1     109     107      26      27
CTETRA       236       1     109      27      26      18
CTETRA       237       1     109      59      64      51
CTETRA       238       1     109     111     107      64
CTETRA       239       1     109      75      17      26
CTETRA       240       1     121     109     111     107
CTETRA       241       1     109      51       4      17
CTETRA       242       1     109      51      18       4
CTETRA       243       1     120     105      86      71
CTETRA       244       1     122     104      89      87
CTETRA       245       1     122     105     104      87
CTETRA       246       1      86     105     120     122
CTETRA       247       1     126     115      84      82
CTETRA       248       1     117     116      49     115
CTETRA       249       1     118     116      50     117
CTETRA       250       1     124     123      89     122
CTETRA       251       1     117      84      40      81
CTETRA       252       1     119     117     118      48
CTETRA       253       1     129     124     117     118
CTETRA       254       1     118     116     112     133
CTETRA       255       1     117      49      40      84
CTETRA       256       1     117     118      48      50
CTETRA       257       1     124     119     117     118
CTETRA       258       1     110      55      62      57
CTETRA       259       1     110      91      92      55
CTETRA       260       1     128     106      92      97
CTETRA       261       1     110     112      61      65
CTETRA       262       1     113      61     110     112
CTETRA       263       1     106     110      62      63
CTETRA       264       1     108     110      63      65
CTETRA       265       1     129     127     112     116
CTETRA       266       1     132     108     107     111
CTETRA       267       1     101      97      96      10
CTETRA       268       1     106     101      23      97
CTETRA       269       1     101      97      10      23
CTETRA       270       1     125      99      96      95
CTETRA       271       1     100      99     104      24
CTETRA       272       1     128     106     102     110
CTETRA       273       1     123     122     103     104
CTETRA       274       1     106     101     102      23
CTETRA       275       1     106      97      23       9
CTETRA       276       1     106     102      28      23
CTETRA       277       1     106      97      56      92
CTETRA       278       1     108     106      28      63
CTETRA       279       1     108     106     110     102
CTETRA       280       1     128     106     110      92
CTETRA       281       1     106       1       9      20
CTETRA       282       1     106       1      56       9
CTETRA       283       1     129     123     122     103
CTETRA       284       1     100     125      99     101
CTETRA       285       1     100     101      99      22
CTETRA       286       1     126     125     115      82
CTETRA       287       1     100     102      29     103
CTETRA       288       1      99     104      83     123
CTETRA       289       1      83     104      99      88
CTETRA       290       1     125      99      95      83
CTETRA       291       1     127     116      94      93
CTETRA       292       1     130      94     116     115
CTETRA       293       1     127     110      91      92
CTETRA       294       1     128     127      98      92
CTETRA       295       1     113     116      93      42
CTETRA       296       1     129     110     102     132
CTETRA       297       1     128     100     102     101
CTETRA       298       1     113     116      44     112
CTETRA       299       1     110      61     113      57
CTETRA       300       1     113     112      44      61
CTETRA       301       1     119      70      38      72
CTETRA       302       1      69      72     131     118
CTETRA       303       1     119      39      68      81
CTETRA       304       1     119      85      68      70
CTETRA       305       1      68      39      38       8
CTETRA       306       1      38      39      68     119
CTETRA       307       1     114     111      58     112
CTETRA       308       1     114      45      60      35
CTETRA       309       1     114      36      69      46
CTETRA       310       1     114     118     112      45
CTETRA       311       1     114      73      69      53
CTETRA       312       1     131      73     111      77
CTETRA       313       1      36      53      35     114
CTETRA       314       1      35      53      36       7
CTETRA       315       1     113      61      33      57
CTETRA       316       1     113     127     116     112
CTETRA       317       1     113     127      93     116
CTETRA       318       1     113      91      57      54
CTETRA       319       1     113      91      32      93
CTETRA       320       1      91     110     113      57
CTETRA       321       1     113     127     112     110
CTETRA       322       1      54      33      32       6
CTETRA       323       1      32      33      54     113
CTETRA       324       1     108      63      19      64
CTETRA       325       1      27      64     107     108
CTETRA       326       1     108      63      28      19
CTETRA       327       1     108     111      64     107
CTETRA       328       1     132     108     111      65
CTETRA       329       1     108     106     102      28
CTETRA       330       1     108     106      63     110
CTETRA       331       1     120      72     118     131
CTETRA       332       1     120     122     105     103
CTETRA       333       1     120     119      72      70
CTETRA       334       1     131     121     120      77
CTETRA       335       1     129     107     121     132
CTETRA       336       1     131     132     111     112
CTETRA       337       1     124     119      85      81
CTETRA       338       1     124     119      81     117
CTETRA       339       1     121     105      71      76
CTETRA       340       1     120      85      70      67
CTETRA       341       1     124     120      86      85
CTETRA       342       1     120      86      85      67
CTETRA       343       1     121      77     111      74
CTETRA       344       1     121     109     107      26
CTETRA       345       1     121     107     103      25
CTETRA       346       1     121     109      74     111
CTETRA       347       1     121      75      26      16
CTETRA       348       1     121      75      16      76
CTETRA       349       1     121     120      77      71
CTETRA       350       1     121     120      71     105
CTETRA       351       1     125      95      90      79
CTETRA       352       1     125     123      99      83
CTETRA       353       1     125      90      82      79
CTETRA       354       1     125     101      96      99
CTETRA       355       1     125     115      90      94
CTETRA       356       1     130      94     125      98
CTETRA       357       1     125     101      98      96
CTETRA       358       1     104      99     100     123
CTETRA       359       1     100     123     103     104
CTETRA       360       1     100     125     123      99
CTETRA       361       1     100     104      21      24
CTETRA       362       1     100     104     103      21
CTETRA       363       1     129     127     110     112
CTETRA       364       1     130     125     101      98
CTETRA       365       1     130     128     127      98
CTETRA       366       1     129     100     123     103
CTETRA       367       1     124     117      81      84
CTETRA       368       1     126     124      89      84
CTETRA       369       1     124     122      89      86
CTETRA       370       1     124     120     122      86
CTETRA       371       1     126     124     123      89
CTETRA       372       1     129     120     103     122
CTETRA       373       1      85     119     120      70
CTETRA       374       1     124     120     119     118
CTETRA       375       1     126     125      83     123
CTETRA       376       1     126     123      83      89
CTETRA       377       1     130     126     115     116
CTETRA       378       1     126     124      84     117
CTETRA       379       1      84     115     117      49
CTETRA       380       1     129     124     122     123
CTETRA       381       1     129     117     116     118
CTETRA       382       1     129     120     118     131
CTETRA       383       1     128     127      92     110
CTETRA       384       1     128     101      97      98
CTETRA       385       1     128     106      97     101
CTETRA       386       1     128     106     101     102
CTETRA       387       1     130     100     101     125
CTETRA       388       1     130     100     125     123
CTETRA       389       1     132     129     107     102
CTETRA       390       1     130     129     116     127
CTETRA       391       1     132     121     111     107
CTETRA       392       1     129     121     103     120
CTETRA       393       1     129     124     120     122
CTETRA       394       1     129     128     100     102
CTETRA       395       1     129     126     124     123
CTETRA       396       1     129     126     117     124
CTETRA       397       1     129     126     116     117
CTETRA       398       1     130     126     123     125
CTETRA       399       1     130     129     128     100
CTETRA       400       1     128     129     127     110
CTETRA       401       1     127     129     128     130
CTETRA       402       1     130     128      98     101
CTETRA       403       1     130     129     123     126
CTETRA       404       1     130     128     101     100
CTETRA       405       1     130     129     100     123
CTETRA       406       1     130     127      94      98
CTETRA       407       1     116      94     130     127
CTETRA       408       1     130     126     125     115
CTETRA       409       1     116     126     129     130
CTETRA       410       1     132     108     110     102
CTETRA       411       1     132     108      65     110
CTETRA       412       1     121     107     129     103
CTETRA       413       1     131     129     120     121
CTETRA       414       1     132     110      65     112
CTETRA       415       1     131     129     112     118
CTETRA       416       1     102     110     129     128
CTETRA       417       1     133     116      44      50
CTETRA       418       1     133     116     112      44
CTETRA       419       1     112     116     118     129
CTETRA       420       1      50     116     118     133
CTETRA       421       1     131     120      72      77
CTETRA       422       1     131     114     118     112
CTETRA       423       1      73      69     131     114
CTETRA       424       1     131     114      69     118
CTETRA       425       1     111      77     121     131
CTETRA       426       1     118      72     120     119
CTETRA       427       1     111     121     132     131
CTETRA       428       1     131     132     129     121
CTETRA       429       1     131     132     112     129
CTETRA       430       1     118     120     129     124
$
$ Property cards
$
$
$ Name: solid
PSOLID    1       1      
$
ENDDATA
