$$$$$$$$$$$$$$$$$$$$$$$$$$$$$$$$$$$$$$$$$$$$$$$$$$$$$$$$$$$$$$$$$$$$$$$$$$$$$$$$$$$$$$$$$$$$$$$$
$
$                         CUBIT NX Nastran Translator
$
$            File: mixed_with_pyramid.bdf
$      Time Stamp: 01-Dec-25 at 15:11:37
$
$
$                        PLEASE CHECK YOUR MODEL FOR UNITS CONSISTENCY.
$
$       It should be noted that load ID's from CUBIT may NOT correspond to Nastran SID's
$ The SID's for the load and restraint sets start at one and increment by one:i.e.,1,2,3,4...
$
$$$$$$$$$$$$$$$$$$$$$$$$$$$$$$$$$$$$$$$$$$$$$$$$$$$$$$$$$$$$$$$$$$$$$$$$$$$$$$$$$$$$$$$$$$$$$$$$
$
$
$ -------------------------
$ Executive Control Section
$ -------------------------
$
SOL 101
CEND
$
$
$ --------------------
$ Case Control Section
$ --------------------
$
ECHO = SORT
$
$
$ Name: Initial
$
$
$ Name: Default Set
$
SUBCASE = 1
$
LABEL = Default Set
$
$ -----------------
$ Bulk Data Section
$ -----------------
$
BEGIN BULK
$
$ Params
$
$
$ Node cards
$
GRID*                  1               0         0.00000        -0.50000
*                0.50000
GRID*                  2               0         0.00000         0.50000
*                0.50000
GRID*                  3               0        -1.00000         0.50000
*                0.50000
GRID*                  4               0        -1.00000        -0.50000
*                0.50000
GRID*                  5               0         0.00000         0.50000
*               -0.50000
GRID*                  6               0         0.00000        -0.50000
*               -0.50000
GRID*                  7               0        -1.00000        -0.50000
*               -0.50000
GRID*                  8               0        -1.00000         0.50000
*               -0.50000
GRID*                  9               0         0.00000        -0.25000
*                0.50000
GRID*                 10               0         0.00000         0.00000
*                0.50000
GRID*                 11               0         0.00000         0.25000
*                0.50000
GRID*                 12               0        -0.25000         0.50000
*                0.50000
GRID*                 13               0        -0.50000         0.50000
*                0.50000
GRID*                 14               0        -0.75000         0.50000
*                0.50000
GRID*                 15               0        -1.00000         0.25000
*                0.50000
GRID*                 16               0        -1.00000         0.00000
*                0.50000
GRID*                 17               0        -1.00000        -0.25000
*                0.50000
GRID*                 18               0        -0.75000        -0.50000
*                0.50000
GRID*                 19               0        -0.50000        -0.50000
*                0.50000
GRID*                 20               0        -0.25000        -0.50000
*                0.50000
GRID*                 21               0        -0.63734         0.26678
*                0.50000
GRID*                 22               0        -0.22785         0.09857
*                0.50000
GRID*                 23               0        -0.22558        -0.15312
*                0.50000
GRID*                 24               0        -0.36116         0.26528
*                0.50000
GRID*                 25               0        -0.77322         0.10571
*                0.50000
GRID*                 26               0        -0.77974        -0.11972
*                0.50000
GRID*                 27               0        -0.65042        -0.28047
*                0.50000
GRID*                 28               0        -0.39499        -0.28439
*                0.50000
GRID*                 29               0        -0.50128        -0.02103
*                0.50000
GRID*                 30               0         0.00000         0.25000
*               -0.50000
GRID*                 31               0         0.00000         0.00000
*               -0.50000
GRID*                 32               0         0.00000        -0.25000
*               -0.50000
GRID*                 33               0        -0.25000        -0.50000
*               -0.50000
GRID*                 34               0        -0.50000        -0.50000
*               -0.50000
GRID*                 35               0        -0.75000        -0.50000
*               -0.50000
GRID*                 36               0        -1.00000        -0.25000
*               -0.50000
GRID*                 37               0        -1.00000         0.00000
*               -0.50000
GRID*                 38               0        -1.00000         0.25000
*               -0.50000
GRID*                 39               0        -0.75000         0.50000
*               -0.50000
GRID*                 40               0        -0.50000         0.50000
*               -0.50000
GRID*                 41               0        -0.25000         0.50000
*               -0.50000
GRID*                 42               0        -0.22990        -0.14375
*               -0.50000
GRID*                 43               0        -0.22334         0.10781
*               -0.50000
GRID*                 44               0        -0.39985        -0.26645
*               -0.50000
GRID*                 45               0        -0.64696        -0.26530
*               -0.50000
GRID*                 46               0        -0.77358        -0.10513
*               -0.50000
GRID*                 47               0        -0.78061         0.12168
*               -0.50000
GRID*                 48               0        -0.64236         0.28216
*               -0.50000
GRID*                 49               0        -0.35629         0.28057
*               -0.50000
GRID*                 50               0        -0.50137         0.01975
*               -0.50000
GRID*                 51               0        -1.00000        -0.50000
*                0.25000
GRID*                 52               0        -1.00000        -0.50000
*                0.00000
GRID*                 53               0        -1.00000        -0.50000
*               -0.25000
GRID*                 54               0         0.00000        -0.50000
*               -0.25000
GRID*                 55               0         0.00000        -0.50000
*                0.00000
GRID*                 56               0         0.00000        -0.50000
*                0.25000
GRID*                 57               0        -0.22780        -0.50000
*               -0.13545
GRID*                 58               0        -0.77068        -0.50000
*               -0.14350
GRID*                 59               0        -0.77708        -0.50000
*                0.10733
GRID*                 60               0        -0.61052        -0.50000
*               -0.26756
GRID*                 61               0        -0.38833        -0.50000
*               -0.26753
GRID*                 62               0        -0.22469        -0.50000
*                0.14437
GRID*                 63               0        -0.39324        -0.50000
*                0.28371
GRID*                 64               0        -0.65178        -0.50000
*                0.27945
GRID*                 65               0        -0.50061        -0.50000
*                0.01847
GRID*                 66               0        -1.00000         0.50000
*                0.25000
GRID*                 67               0        -1.00000         0.50000
*                0.00000
GRID*                 68               0        -1.00000         0.50000
*               -0.25000
GRID*                 69               0        -1.00000        -0.14642
*               -0.26496
GRID*                 70               0        -1.00000         0.27201
*               -0.13565
GRID*                 71               0        -1.00000         0.27569
*                0.14393
GRID*                 72               0        -1.00000         0.10013
*               -0.26599
GRID*                 73               0        -1.00000        -0.27322
*               -0.09742
GRID*                 74               0        -1.00000        -0.27495
*                0.15294
GRID*                 75               0        -1.00000        -0.11430
*                0.28521
GRID*                 76               0        -1.00000         0.11693
*                0.28431
GRID*                 77               0        -1.00000        -0.00060
*                0.02042
GRID*                 78               0         0.00000         0.50000
*                0.25000
GRID*                 79               0         0.00000         0.50000
*                0.00000
GRID*                 80               0         0.00000         0.50000
*               -0.25000
GRID*                 81               0        -0.64642         0.50000
*               -0.26496
GRID*                 82               0        -0.22799         0.50000
*               -0.13565
GRID*                 83               0        -0.22431         0.50000
*                0.14393
GRID*                 84               0        -0.39987         0.50000
*               -0.26599
GRID*                 85               0        -0.77322         0.50000
*               -0.09742
GRID*                 86               0        -0.77495         0.50000
*                0.15294
GRID*                 87               0        -0.61430         0.50000
*                0.28521
GRID*                 88               0        -0.38307         0.50000
*                0.28431
GRID*                 89               0        -0.50060         0.50000
*                0.02042
GRID*                 90               0         0.00000         0.27220
*               -0.13545
GRID*                 91               0         0.00000        -0.27068
*               -0.14350
GRID*                 92               0         0.00000        -0.27708
*                0.10733
GRID*                 93               0         0.00000        -0.11052
*               -0.26756
GRID*                 94               0         0.00000         0.11167
*               -0.26753
GRID*                 95               0         0.00000         0.27531
*                0.14437
GRID*                 96               0         0.00000         0.10676
*                0.28371
GRID*                 97               0         0.00000        -0.15178
*                0.27945
GRID*                 98               0         0.00000        -0.00061
*                0.01847
GRID*                 99               0         1.00000        -0.50000
*                0.50000
GRID*                100               0         1.00000         0.50000
*                0.50000
GRID*                101               0         1.00000        -0.25000
*                0.50000
GRID*                102               0         1.00000         0.00000
*                0.50000
GRID*                103               0         1.00000         0.25000
*                0.50000
GRID*                104               0         0.00000         0.50000
*                0.50000
GRID*                105               0         0.75000         0.50000
*                0.50000
GRID*                106               0         0.50000         0.50000
*                0.50000
GRID*                107               0         0.25000         0.50000
*                0.50000
GRID*                108               0         0.00000        -0.50000
*                0.50000
GRID*                109               0         0.00000         0.25000
*                0.50000
GRID*                110               0         0.00000         0.00000
*                0.50000
GRID*                111               0         0.00000        -0.25000
*                0.50000
GRID*                112               0         0.25000        -0.50000
*                0.50000
GRID*                113               0         0.50000        -0.50000
*                0.50000
GRID*                114               0         0.75000        -0.50000
*                0.50000
GRID*                115               0         0.75000        -0.25000
*                0.50000
GRID*                116               0         0.75000         0.00000
*                0.50000
GRID*                117               0         0.75000         0.25000
*                0.50000
GRID*                118               0         0.50000        -0.25000
*                0.50000
GRID*                119               0         0.50000         0.00000
*                0.50000
GRID*                120               0         0.50000         0.25000
*                0.50000
GRID*                121               0         0.25000        -0.25000
*                0.50000
GRID*                122               0         0.25000         0.00000
*                0.50000
GRID*                123               0         0.25000         0.25000
*                0.50000
GRID*                124               0         1.00000         0.50000
*               -0.50000
GRID*                125               0         1.00000        -0.50000
*               -0.50000
GRID*                126               0         1.00000         0.25000
*               -0.50000
GRID*                127               0         1.00000         0.00000
*               -0.50000
GRID*                128               0         1.00000        -0.25000
*               -0.50000
GRID*                129               0         0.00000        -0.50000
*               -0.50000
GRID*                130               0         0.75000        -0.50000
*               -0.50000
GRID*                131               0         0.50000        -0.50000
*               -0.50000
GRID*                132               0         0.25000        -0.50000
*               -0.50000
GRID*                133               0         0.00000         0.50000
*               -0.50000
GRID*                134               0         0.00000        -0.25000
*               -0.50000
GRID*                135               0         0.00000         0.00000
*               -0.50000
GRID*                136               0         0.00000         0.25000
*               -0.50000
GRID*                137               0         0.25000         0.50000
*               -0.50000
GRID*                138               0         0.50000         0.50000
*               -0.50000
GRID*                139               0         0.75000         0.50000
*               -0.50000
GRID*                140               0         0.75000         0.25000
*               -0.50000
GRID*                141               0         0.75000         0.00000
*               -0.50000
GRID*                142               0         0.75000        -0.25000
*               -0.50000
GRID*                143               0         0.50000         0.25000
*               -0.50000
GRID*                144               0         0.50000         0.00000
*               -0.50000
GRID*                145               0         0.50000        -0.25000
*               -0.50000
GRID*                146               0         0.25000         0.25000
*               -0.50000
GRID*                147               0         0.25000         0.00000
*               -0.50000
GRID*                148               0         0.25000        -0.25000
*               -0.50000
GRID*                149               0         0.00000        -0.50000
*                0.25000
GRID*                150               0         0.00000        -0.50000
*                0.00000
GRID*                151               0         0.00000        -0.50000
*               -0.25000
GRID*                152               0         1.00000        -0.50000
*                0.25000
GRID*                153               0         1.00000        -0.50000
*                0.00000
GRID*                154               0         1.00000        -0.50000
*               -0.25000
GRID*                155               0         0.25000        -0.50000
*                0.25000
GRID*                156               0         0.25000        -0.50000
*                0.00000
GRID*                157               0         0.25000        -0.50000
*               -0.25000
GRID*                158               0         0.50000        -0.50000
*                0.25000
GRID*                159               0         0.50000        -0.50000
*                0.00000
GRID*                160               0         0.50000        -0.50000
*               -0.25000
GRID*                161               0         0.75000        -0.50000
*                0.25000
GRID*                162               0         0.75000        -0.50000
*                0.00000
GRID*                163               0         0.75000        -0.50000
*               -0.25000
GRID*                164               0         0.00000         0.50000
*                0.25000
GRID*                165               0         0.00000         0.50000
*                0.00000
GRID*                166               0         0.00000         0.50000
*               -0.25000
GRID*                167               0         0.00000         0.25000
*                0.25000
GRID*                168               0         0.00000         0.25000
*                0.00000
GRID*                169               0         0.00000         0.25000
*               -0.25000
GRID*                170               0         0.00000         0.00000
*                0.25000
GRID*                171               0         0.00000         0.00000
*                0.00000
GRID*                172               0         0.00000         0.00000
*               -0.25000
GRID*                173               0         0.00000        -0.25000
*                0.25000
GRID*                174               0         0.00000        -0.25000
*                0.00000
GRID*                175               0         0.00000        -0.25000
*               -0.25000
GRID*                176               0         1.00000         0.50000
*                0.25000
GRID*                177               0         1.00000         0.50000
*                0.00000
GRID*                178               0         1.00000         0.50000
*               -0.25000
GRID*                179               0         0.75000         0.50000
*                0.25000
GRID*                180               0         0.75000         0.50000
*                0.00000
GRID*                181               0         0.75000         0.50000
*               -0.25000
GRID*                182               0         0.50000         0.50000
*                0.25000
GRID*                183               0         0.50000         0.50000
*                0.00000
GRID*                184               0         0.50000         0.50000
*               -0.25000
GRID*                185               0         0.25000         0.50000
*                0.25000
GRID*                186               0         0.25000         0.50000
*                0.00000
GRID*                187               0         0.25000         0.50000
*               -0.25000
GRID*                188               0         1.00000        -0.25000
*                0.25000
GRID*                189               0         1.00000        -0.25000
*                0.00000
GRID*                190               0         1.00000        -0.25000
*               -0.25000
GRID*                191               0         1.00000         0.00000
*                0.25000
GRID*                192               0         1.00000         0.00000
*                0.00000
GRID*                193               0         1.00000         0.00000
*               -0.25000
GRID*                194               0         1.00000         0.25000
*                0.25000
GRID*                195               0         1.00000         0.25000
*                0.00000
GRID*                196               0         1.00000         0.25000
*               -0.25000
GRID*                197               0         0.25000        -0.25000
*                0.25000
GRID*                198               0         0.25000        -0.25000
*                0.00000
GRID*                199               0         0.25000        -0.25000
*               -0.25000
GRID*                200               0         0.25000         0.00000
*                0.25000
GRID*                201               0         0.25000         0.00000
*                0.00000
GRID*                202               0         0.25000         0.00000
*               -0.25000
GRID*                203               0         0.25000         0.25000
*                0.25000
GRID*                204               0         0.25000         0.25000
*                0.00000
GRID*                205               0         0.25000         0.25000
*               -0.25000
GRID*                206               0         0.50000        -0.25000
*                0.25000
GRID*                207               0         0.50000        -0.25000
*                0.00000
GRID*                208               0         0.50000        -0.25000
*               -0.25000
GRID*                209               0         0.50000         0.00000
*                0.25000
GRID*                210               0         0.50000         0.00000
*                0.00000
GRID*                211               0         0.50000         0.00000
*               -0.25000
GRID*                212               0         0.50000         0.25000
*                0.25000
GRID*                213               0         0.50000         0.25000
*                0.00000
GRID*                214               0         0.50000         0.25000
*               -0.25000
GRID*                215               0         0.75000        -0.25000
*                0.25000
GRID*                216               0         0.75000        -0.25000
*                0.00000
GRID*                217               0         0.75000        -0.25000
*               -0.25000
GRID*                218               0         0.75000         0.00000
*                0.25000
GRID*                219               0         0.75000         0.00000
*                0.00000
GRID*                220               0         0.75000         0.00000
*               -0.25000
GRID*                221               0         0.75000         0.25000
*                0.25000
GRID*                222               0         0.75000         0.25000
*                0.00000
GRID*                223               0         0.75000         0.25000
*               -0.25000
GRID*                224               0        -0.19802         0.29841
*                0.31083
GRID*                225               0        -0.35921         0.11170
*                0.26847
GRID*                226               0        -0.37241        -0.15988
*                0.27208
GRID*                227               0        -0.16907         0.00579
*                0.26625
GRID*                228               0        -0.64321         0.11424
*                0.27104
GRID*                229               0        -0.49953         0.35328
*                0.27449
GRID*                230               0        -0.78628         0.28106
*                0.29637
GRID*                231               0        -0.18595        -0.30068
*                0.30444
GRID*                232               0        -0.63007        -0.13894
*                0.28979
GRID*                233               0        -0.53243        -0.33803
*                0.28396
GRID*                234               0        -0.82178        -0.03584
*                0.24670
GRID*                235               0        -0.80575        -0.30487
*                0.30433
GRID*                236               0        -0.21905         0.27183
*               -0.26805
GRID*                237               0        -0.29208         0.00932
*               -0.30863
GRID*                238               0        -0.50623         0.20922
*               -0.30847
GRID*                239               0        -0.26710        -0.29707
*               -0.26927
GRID*                240               0        -0.50670        -0.21215
*               -0.27725
GRID*                241               0        -0.69742         0.01161
*               -0.28359
GRID*                242               0        -0.79101         0.28468
*               -0.28429
GRID*                243               0        -0.78958        -0.27100
*               -0.27572
GRID*                244               0        -0.82541        -0.23100
*                0.03367
GRID*                245               0        -0.79730         0.18112
*                0.01458
GRID*                246               0        -0.64625        -0.25560
*               -0.11023
GRID*                247               0        -0.32963        -0.26722
*                0.02816
GRID*                248               0        -0.65011        -0.27138
*                0.13591
GRID*                249               0        -0.64409         0.27125
*               -0.11325
GRID*                250               0        -0.60746         0.31376
*                0.09677
GRID*                251               0        -0.37895         0.26818
*               -0.13117
GRID*                252               0        -0.39355         0.26188
*                0.12397
GRID*                253               0        -0.16100         0.23020
*                0.04397
GRID*                254               0        -0.20497        -0.11275
*               -0.11151
GRID*                255               0        -0.21490        -0.10365
*                0.13098
GRID*                256               0        -0.50662         0.03696
*                0.08823
GRID*                257               0        -0.73554        -0.01240
*                0.07241
GRID*                258               0        -0.29668         0.07494
*                0.01263
GRID*                259               0        -0.81206        -0.06787
*               -0.11976
GRID*                260               0        -0.52726        -0.03957
*               -0.08435
$
$ Element cards
$
$
$ Name: mixed
$
CTETRA         1       1     224      24      11      12
CTETRA         2       1      24      88      13      12
CTETRA         3       1     228      29      21      25
CTETRA         4       1     229      24      13      21
CTETRA         5       1     235      27      18      64
CTETRA         6       1     226      29      28      23
CTETRA         7       1     231      28      20      23
CTETRA         8       1     228      24      21      29
CTETRA         9       1     226      29      23      22
CTETRA        10       1     232      27      28      29
CTETRA        11       1      10      96      22      11
CTETRA        12       1     230      15      25      21
CTETRA        13       1     236      94      43      30
CTETRA        14       1      87      14      21      13
CTETRA        15       1     239      33      42      32
CTETRA        16       1      45      60      35      34
CTETRA        17       1     243      36      69      46
CTETRA        18       1     241      47      46      37
CTETRA        19       1     234     230      76      25
CTETRA        20       1     237      50      49      43
CTETRA        21       1     242      39      48      38
CTETRA        22       1     240      34      61      60
CTETRA        23       1      31      93      42      32
CTETRA        24       1      73      58      52      53
CTETRA        25       1     235      18      17       4
CTETRA        26       1     240      50      45      46
CTETRA        27       1      63      19      20      28
CTETRA        28       1     247      63      65      62
CTETRA        29       1     244     235      74      59
CTETRA        30       1      47      72      38      37
CTETRA        31       1     248      59      65      64
CTETRA        32       1     243      45      35      36
CTETRA        33       1     243      45      60      35
CTETRA        34       1     242      70      68      38
CTETRA        35       1      85      70      67      68
CTETRA        36       1      39      81      48      40
CTETRA        37       1     241      69      37      46
CTETRA        38       1      59      51      74      52
CTETRA        39       1     230      14      15      21
CTETRA        40       1     235      75      74      17
CTETRA        41       1     245      71      86      67
CTETRA        42       1      49      84      41      40
CTETRA        43       1      90      82      79      80
CTETRA        44       1      91      55      57      54
CTETRA        45       1     239      91      54      32
CTETRA        46       1      31      94      30      43
CTETRA        47       1     238      81      40      48
CTETRA        48       1     242     241      72      47
CTETRA        49       1      71      66      86      67
CTETRA        50       1     230     228      21      25
CTETRA        51       1      76      71     245      77
CTETRA        52       1     224       2      12      11
CTETRA        53       1     224      96      11      22
CTETRA        54       1     247      57      62      65
CTETRA        55       1     236      49      41      30
CTETRA        56       1     236      82      80      41
CTETRA        57       1     237     236      94      43
CTETRA        58       1      95      83      78      79
CTETRA        59       1      16      15      25      76
CTETRA        60       1     230      71      66      86
CTETRA        61       1     230      71      76      15
CTETRA        62       1     230      66      14      86
CTETRA        63       1     227      10      22      23
CTETRA        64       1     231       9      23      20
CTETRA        65       1     231       1      20      56
CTETRA        66       1      97       9      10      23
CTETRA        67       1      83      89     229      88
CTETRA        68       1     224      95      11      96
CTETRA        69       1     234      16      25      76
CTETRA        70       1     233      19      27      64
CTETRA        71       1     235      51      17      74
CTETRA        72       1     235      27      26      17
CTETRA        73       1     233      63      19      64
CTETRA        74       1      19      27      64      18
CTETRA        75       1     237      31      42      43
CTETRA        76       1     237      31      94      93
CTETRA        77       1      36      69      46      37
CTETRA        78       1      61      34     240      44
CTETRA        79       1     243      36      53      69
CTETRA        80       1     242      39      81      48
CTETRA        81       1     242      47      38      48
CTETRA        82       1     238     242      81      48
CTETRA        83       1     238      49      48      40
CTETRA        84       1     241     243      69      46
CTETRA        85       1     240     243      60     246
CTETRA        86       1     239      33      44      42
CTETRA        87       1     239     240      44      61
CTETRA        88       1      61      33      34      44
CTETRA        89       1      55      92      62      56
CTETRA        90       1     244      59      74      52
CTETRA        91       1     243      58      53      35
CTETRA        92       1     235      51      64      18
CTETRA        93       1     235      59      51      74
CTETRA        94       1     232      27      29      26
CTETRA        95       1     239      61      33      57
CTETRA        96       1     247      55      92      62
CTETRA        97       1     233      63      64      65
CTETRA        98       1     243      73      69      53
CTETRA        99       1     244      52      58      59
CTETRA       100       1      58      59      65     246
CTETRA       101       1     245      77      71      70
CTETRA       102       1     242      47      72      38
CTETRA       103       1      75      26      16      17
CTETRA       104       1     234      26      25      16
CTETRA       105       1     228      26      29      25
CTETRA       106       1     234     228      25      26
CTETRA       107       1     234     232     228      26
CTETRA       108       1      73     259      77     244
CTETRA       109       1     249      89      84      81
CTETRA       110       1     242      85      81      68
CTETRA       111       1     245      71      67      70
CTETRA       112       1     245     230      86      71
CTETRA       113       1     245      77      70      72
CTETRA       114       1     253      95      79      83
CTETRA       115       1     236      49      84      41
CTETRA       116       1     236      90      30      80
CTETRA       117       1     236      90      94      30
CTETRA       118       1     224      24      12      88
CTETRA       119       1     253      83      79      82
CTETRA       120       1     251      89      83      82
CTETRA       121       1     225      24      29      22
CTETRA       122       1     224      95      78      11
CTETRA       123       1     230      87      14      21
CTETRA       124       1     229      24      88      13
CTETRA       125       1     229     228      24      21
CTETRA       126       1     254      98      93      94
CTETRA       127       1     251      89      82      84
CTETRA       128       1     236      90      80      82
CTETRA       129       1     254      98      91      93
CTETRA       130       1     247      91      55      57
CTETRA       131       1     239      93      32      42
CTETRA       132       1     239      57      33      54
CTETRA       133       1     227     226      23      22
CTETRA       134       1     251     253      82      83
CTETRA       135       1     253      98      94      90
CTETRA       136       1     224      83      12      78
CTETRA       137       1     231      92      56      62
CTETRA       138       1     231      97       9      56
CTETRA       139       1     227      10      96      22
CTETRA       140       1     231      62      56      20
CTETRA       141       1     224      83      88      12
CTETRA       142       1     229      89      87      88
CTETRA       143       1     224      95      83      78
CTETRA       144       1     253      95      98      90
CTETRA       145       1     253     236      82      90
CTETRA       146       1      96     253      98     227
CTETRA       147       1     224      78       2      11
CTETRA       148       1     224      78      12       2
CTETRA       149       1     224      24      22      11
CTETRA       150       1     225     224      24      22
CTETRA       151       1     250      89      86      87
CTETRA       152       1     250      89      85      86
CTETRA       153       1     234      77      75      76
CTETRA       154       1     244      77      74      75
CTETRA       155       1     229     224      88      24
CTETRA       156       1     227     224      22      96
CTETRA       157       1     249      89      81      85
CTETRA       158       1     232     233      28      27
CTETRA       159       1     232     235      27      26
CTETRA       160       1     255      97      92      98
CTETRA       161       1     250     230      87      86
CTETRA       162       1     229      87      13      88
CTETRA       163       1     229     230      87     250
CTETRA       164       1     229      89      83     252
CTETRA       165       1     256     250     228     252
CTETRA       166       1     229      87      21      13
CTETRA       167       1     235      27      17      18
CTETRA       168       1     235      59      64      51
CTETRA       169       1     235      75      17      26
CTETRA       170       1     244      77      73      74
CTETRA       171       1     235      51       4      17
CTETRA       172       1     235      51      18       4
CTETRA       173       1     231      63      62      20
CTETRA       174       1     231     247      92      62
CTETRA       175       1     231      63      20      28
CTETRA       176       1     225     226      22      29
CTETRA       177       1     254      98      92      91
CTETRA       178       1     227      97      98      96
CTETRA       179       1     233     235      64      27
CTETRA       180       1     239     247      57      91
CTETRA       181       1     237      50      42      44
CTETRA       182       1     225     227      22     226
CTETRA       183       1     230      15      76      25
CTETRA       184       1     234     230      25     228
CTETRA       185       1     230      71      15      66
CTETRA       186       1     230      87      86      14
CTETRA       187       1     230     228     229      21
CTETRA       188       1     250     245     230      86
CTETRA       189       1     245     242      85     249
CTETRA       190       1      14      66      15       3
CTETRA       191       1      15      66      14     230
CTETRA       192       1     236      49      30      43
CTETRA       193       1     238      50      48      49
CTETRA       194       1     237      50      43      42
CTETRA       195       1     236      82      41      84
CTETRA       196       1      41      80      30       5
CTETRA       197       1      30      80      41     236
CTETRA       198       1     240      50      44      45
CTETRA       199       1     259      69      72     241
CTETRA       200       1     243      58      35      60
CTETRA       201       1     243      45      36      46
CTETRA       202       1     243      73      53      58
CTETRA       203       1     241      50      46      47
CTETRA       204       1      73     243     259     244
CTETRA       205       1      53      36      35       7
CTETRA       206       1      35      36      53     243
CTETRA       207       1     237     236      43      49
CTETRA       208       1     251     238     236     237
CTETRA       209       1     237      31      93      42
CTETRA       210       1     253      94     258     236
CTETRA       211       1     237      31      43      94
CTETRA       212       1     238     236      84     251
CTETRA       213       1     241      50      47      48
CTETRA       214       1     257     256     228     232
CTETRA       215       1     244     235      75      74
CTETRA       216       1     257     234      77     244
CTETRA       217       1     259     243      73      69
CTETRA       218       1     244     243      58      73
CTETRA       219       1     244      73      52      74
CTETRA       220       1      58      52     244      73
CTETRA       221       1     248     235      59      64
CTETRA       222       1     246     243      60      58
CTETRA       223       1     233     247      63      65
CTETRA       224       1     248     244      59     235
CTETRA       225       1     246     244      58      59
CTETRA       226       1     232     233     248     226
CTETRA       227       1     234     244     235      75
CTETRA       228       1     232     226     228      29
CTETRA       229       1     234     235      26      75
CTETRA       230       1     232     228      26      29
CTETRA       231       1     242     241      47      48
CTETRA       232       1     241      47      37      72
CTETRA       233       1      77     259      73      69
CTETRA       234       1     238     237      50      49
CTETRA       235       1     241      72      37      69
CTETRA       236       1     240     243      46      45
CTETRA       237       1     234     245     230     228
CTETRA       238       1     240     237      44      50
CTETRA       239       1     231     247      62      63
CTETRA       240       1     233     247     226      63
CTETRA       241       1     256     225     228     226
CTETRA       242       1     247      55      62      57
CTETRA       243       1     247      91      92      55
CTETRA       244       1     260     246     248     244
CTETRA       245       1     255     231      92      97
CTETRA       246       1     259     246     244     243
CTETRA       247       1     227      97      96      10
CTETRA       248       1     231     227      23      97
CTETRA       249       1     227      97      10      23
CTETRA       250       1     258     253     227      98
CTETRA       251       1     253     224      96      95
CTETRA       252       1     225     224     229      24
CTETRA       253       1     255     231     226     247
CTETRA       254       1     225     229     228      24
CTETRA       255       1     231     227     226      23
CTETRA       256       1     231      97      23       9
CTETRA       257       1     231     226      28      23
CTETRA       258       1     231      97      56      92
CTETRA       259       1     231     247      63     226
CTETRA       260       1     255     231     247      92
CTETRA       261       1     231       1       9      20
CTETRA       262       1     231       1      56       9
CTETRA       263       1     225     227     224      22
CTETRA       264       1      96     224     253     227
CTETRA       265       1     256     225     252     228
CTETRA       266       1     224     229      83     252
CTETRA       267       1      83     229     224      88
CTETRA       268       1     251     236      84      82
CTETRA       269       1     225     228      29      24
CTETRA       270       1     225     226      29     228
CTETRA       271       1     253     224      95      83
CTETRA       272       1     233      63      28      19
CTETRA       273       1      63     226      28     231
CTETRA       274       1      28     226      63     233
CTETRA       275       1     233      19      28      27
CTETRA       276       1     233     248      65      64
CTETRA       277       1     233     247     248     226
CTETRA       278       1     232     233      27     235
CTETRA       279       1     233     248      64     235
CTETRA       280       1     233     247      65     248
CTETRA       281       1     238     242      48     241
CTETRA       282       1     242      39      68      81
CTETRA       283       1     242      85      68      70
CTETRA       284       1     242      70      38      72
CTETRA       285       1     245      72     259      77
CTETRA       286       1      68      39      38       8
CTETRA       287       1      38      39      68     242
CTETRA       288       1     249     238     241     242
CTETRA       289       1     238     237      49     236
CTETRA       290       1     240     238     237      50
CTETRA       291       1     251     253     236      82
CTETRA       292       1     249     242      85      81
CTETRA       293       1     260     240     241     238
CTETRA       294       1     238      49      40      84
CTETRA       295       1     238     241      48      50
CTETRA       296       1     238      84      40      81
CTETRA       297       1     240      45      34      60
CTETRA       298       1     240      45      44      34
CTETRA       299       1     239     237      42      44
CTETRA       300       1     240     241      46     243
CTETRA       301       1      60      58      65     246
CTETRA       302       1      65     239      57      61
CTETRA       303       1     254     239     240     237
CTETRA       304       1     246     244     243      58
CTETRA       305       1     240     238      50     241
CTETRA       306       1     240     241      50      46
CTETRA       307       1     260     240     238     237
CTETRA       308       1     239      61      44      33
CTETRA       309       1     254     239      93      91
CTETRA       310       1     254     239      91     247
CTETRA       311       1     239     240     237      44
CTETRA       312       1     239      91      57      54
CTETRA       313       1     239      91      32      93
CTETRA       314       1      54      33      32       6
CTETRA       315       1      32      33      54     239
CTETRA       316       1     256     232     226     228
CTETRA       317       1     232     233     235     248
CTETRA       318       1     232     226      29      28
CTETRA       319       1     257     248     234     244
CTETRA       320       1     234     244      75      77
CTETRA       321       1     257     234     232     228
CTETRA       322       1     232     233     226      28
CTETRA       323       1     240      60      65     246
CTETRA       324       1     246     248     244      59
CTETRA       325       1      65     239     240     247
CTETRA       326       1      65     239      61     240
CTETRA       327       1     260     246     247     248
CTETRA       328       1      60     243     240      45
CTETRA       329       1     259     260     246     241
CTETRA       330       1     246     240     243     241
CTETRA       331       1     257     245     259      77
CTETRA       332       1     245     242     241      72
CTETRA       333       1     245     242      72      70
CTETRA       334       1     249     238     242      81
CTETRA       335       1     234     245      76     230
CTETRA       336       1      76     245     234      77
CTETRA       337       1     250     245     228     230
CTETRA       338       1     245      85      70      67
CTETRA       339       1     260     246     241     240
CTETRA       340       1     250     252      89     229
CTETRA       341       1     245      85      67      86
CTETRA       342       1     260     246     240     247
CTETRA       343       1     260     254     247     240
CTETRA       344       1     234      75      26      16
CTETRA       345       1     234      75      16      76
CTETRA       346       1     234     232      26     235
CTETRA       347       1     245      71      76     230
CTETRA       348       1     257     234     228     245
CTETRA       349       1     234     235     248     232
CTETRA       350       1     253      95      90      79
CTETRA       351       1     253     252     224      83
CTETRA       352       1     253      90      82      79
CTETRA       353       1     252     253     225     258
CTETRA       354       1     253     236      90      94
CTETRA       355       1     258      94     253      98
CTETRA       356       1      98     253      96      95
CTETRA       357       1     258     256     225     252
CTETRA       358       1     229     224     225     252
CTETRA       359       1     256     247     226     248
CTETRA       360       1     225     253     252     224
CTETRA       361       1     258     255     254      98
CTETRA       362       1     229     228     230     250
CTETRA       363       1      87     230     229      21
CTETRA       364       1     228     252     229     225
CTETRA       365       1     229     252     228     250
CTETRA       366       1     250     229      89      87
CTETRA       367       1     250     245      86      85
CTETRA       368       1     249     250      89      85
CTETRA       369       1     249     250      85     245
CTETRA       370       1     249     238      81      84
CTETRA       371       1     251     249      89      84
CTETRA       372       1     251     250     252      89
CTETRA       373       1     256     228     245     257
CTETRA       374       1      85     242     245      70
CTETRA       375       1     249     245     242     241
CTETRA       376       1     260     249     241     245
CTETRA       377       1     251     253      83     252
CTETRA       378       1     251     252      83      89
CTETRA       379       1     258     251     236     237
CTETRA       380       1     251     249      84     238
CTETRA       381       1     251     249     250      89
CTETRA       382       1      84     236     238      49
CTETRA       383       1     256     251     249     250
CTETRA       384       1     260     251     238     249
CTETRA       385       1     254     237      94      93
CTETRA       386       1     258      94     237     236
CTETRA       387       1     254     247      91      92
CTETRA       388       1     255     254      98      92
CTETRA       389       1     237     239      93     254
CTETRA       390       1      93     239     237      42
CTETRA       391       1     254     239     247     240
CTETRA       392       1     256     255     226     247
CTETRA       393       1     255     225     226     227
CTETRA       394       1     260     254     240     237
CTETRA       395       1     258     251     252     253
CTETRA       396       1     255     254      92     247
CTETRA       397       1     255     227      97      98
CTETRA       398       1     255     231      97     227
CTETRA       399       1     255     231     227     226
CTETRA       400       1     258     255     227     225
CTETRA       401       1     258     255     247     254
CTETRA       402       1     257     259     260     244
CTETRA       403       1     260     249     238     241
CTETRA       404       1     256     249     245     250
CTETRA       405       1     260     251     237     238
CTETRA       406       1     256     251     250     252
CTETRA       407       1     256     255     225     226
CTETRA       408       1     234     248     257     232
CTETRA       409       1     258     256     255     225
CTETRA       410       1     256     232     248     226
CTETRA       411       1     258     260     254     247
CTETRA       412       1     260     256     248     247
CTETRA       413       1     257     260     245     256
CTETRA       414       1     260     256     249     245
CTETRA       415       1     260     256     251     249
CTETRA       416       1     258     260     251     237
CTETRA       417       1     258     260     237     254
CTETRA       418       1     257     256     232     248
CTETRA       419       1     258     256     247     255
CTETRA       420       1     258     255      98     227
CTETRA       421       1     258     256     252     251
CTETRA       422       1     258     260     247     256
CTETRA       423       1     258     254      94      98
CTETRA       424       1     237      94     258     254
CTETRA       425       1     258     251     253     236
CTETRA       426       1     258     260     256     251
CTETRA       427       1     225     227     253     224
CTETRA       428       1     253     227     225     258
CTETRA       429       1      72      69     259      77
CTETRA       430       1     259     241     243      69
CTETRA       431       1     259     246     243     241
CTETRA       432       1     259     260     244     246
CTETRA       433       1     257     234     245      77
CTETRA       434       1     245     228     256     250
CTETRA       435       1     248     235     234     244
CTETRA       436       1     259      72     245     241
CTETRA       437       1     257     259     244      77
CTETRA       438       1     257     260     248     244
CTETRA       439       1     257     260     256     248
CTETRA       440       1     245     259     260     257
CTETRA       441       1      59     248      65     246
CTETRA       442       1      65     246     248     247
CTETRA       443       1      65     239     247      57
CTETRA       444       1      65      60     240      61
CTETRA       445       1      65     246     247     240
CTETRA       446       1     260     259     245     241
CHEXA        447       1     108     149     173     111     112     155+
+            197     121
CHEXA        448       1     149     150     174     173     155     156+
+            198     197
CHEXA        449       1     150     151     175     174     156     157+
+            199     198
CHEXA        450       1     151     129     134     175     157     132+
+            148     199
CHEXA        451       1     111     173     170     110     121     197+
+            200     122
CHEXA        452       1     173     174     171     170     197     198+
+            201     200
CHEXA        453       1     174     175     172     171     198     199+
+            202     201
CHEXA        454       1     175     134     135     172     199     148+
+            147     202
CHEXA        455       1     110     170     167     109     122     200+
+            203     123
CHEXA        456       1     170     171     168     167     200     201+
+            204     203
CHEXA        457       1     171     172     169     168     201     202+
+            205     204
CHEXA        458       1     172     135     136     169     202     147+
+            146     205
CHEXA        459       1     109     167     164     104     123     203+
+            185     107
CHEXA        460       1     167     168     165     164     203     204+
+            186     185
CHEXA        461       1     168     169     166     165     204     205+
+            187     186
CHEXA        462       1     169     136     133     166     205     146+
+            137     187
CHEXA        463       1     112     155     197     121     113     158+
+            206     118
CHEXA        464       1     155     156     198     197     158     159+
+            207     206
CHEXA        465       1     156     157     199     198     159     160+
+            208     207
CHEXA        466       1     157     132     148     199     160     131+
+            145     208
CHEXA        467       1     121     197     200     122     118     206+
+            209     119
CHEXA        468       1     197     198     201     200     206     207+
+            210     209
CHEXA        469       1     198     199     202     201     207     208+
+            211     210
CHEXA        470       1     199     148     147     202     208     145+
+            144     211
CHEXA        471       1     122     200     203     123     119     209+
+            212     120
CHEXA        472       1     200     201     204     203     209     210+
+            213     212
CHEXA        473       1     201     202     205     204     210     211+
+            214     213
CHEXA        474       1     202     147     146     205     211     144+
+            143     214
CHEXA        475       1     123     203     185     107     120     212+
+            182     106
CHEXA        476       1     203     204     186     185     212     213+
+            183     182
CHEXA        477       1     204     205     187     186     213     214+
+            184     183
CHEXA        478       1     205     146     137     187     214     143+
+            138     184
CHEXA        479       1     113     158     206     118     114     161+
+            215     115
CHEXA        480       1     158     159     207     206     161     162+
+            216     215
CHEXA        481       1     159     160     208     207     162     163+
+            217     216
CHEXA        482       1     160     131     145     208     163     130+
+            142     217
CHEXA        483       1     118     206     209     119     115     215+
+            218     116
CHEXA        484       1     206     207     210     209     215     216+
+            219     218
CHEXA        485       1     207     208     211     210     216     217+
+            220     219
CHEXA        486       1     208     145     144     211     217     142+
+            141     220
CHEXA        487       1     119     209     212     120     116     218+
+            221     117
CHEXA        488       1     209     210     213     212     218     219+
+            222     221
CHEXA        489       1     210     211     214     213     219     220+
+            223     222
CHEXA        490       1     211     144     143     214     220     141+
+            140     223
CHEXA        491       1     120     212     182     106     117     221+
+            179     105
CHEXA        492       1     212     213     183     182     221     222+
+            180     179
CHEXA        493       1     213     214     184     183     222     223+
+            181     180
CHEXA        494       1     214     143     138     184     223     140+
+            139     181
CHEXA        495       1     114     161     215     115      99     152+
+            188     101
CHEXA        496       1     161     162     216     215     152     153+
+            189     188
CHEXA        497       1     162     163     217     216     153     154+
+            190     189
CHEXA        498       1     163     130     142     217     154     125+
+            128     190
CHEXA        499       1     115     215     218     116     101     188+
+            191     102
CHEXA        500       1     215     216     219     218     188     189+
+            192     191
CHEXA        501       1     216     217     220     219     189     190+
+            193     192
CHEXA        502       1     217     142     141     220     190     128+
+            127     193
CHEXA        503       1     116     218     221     117     102     191+
+            194     103
CHEXA        504       1     218     219     222     221     191     192+
+            195     194
CHEXA        505       1     219     220     223     222     192     193+
+            196     195
CHEXA        506       1     220     141     140     223     193     127+
+            126     196
CHEXA        507       1     117     221     179     105     103     194+
+            176     100
CHEXA        508       1     221     222     180     179     194     195+
+            177     176
CHEXA        509       1     222     223     181     180     195     196+
+            178     177
CHEXA        510       1     223     140     139     181     196     126+
+            124     178
$
$ Property cards
$
$
$ Name: mixed
PSOLID    1       1      
$
ENDDATA
