$$$$$$$$$$$$$$$$$$$$$$$$$$$$$$$$$$$$$$$$$$$$$$$$$$$$$$$$$$$$$$$$$$$$$$$$$$$$$$$$$$$$$$$$$$$$$$$$
$
$                         CUBIT NX Nastran Translator
$
$            File: plate_2d.bdf
$      Time Stamp: 01-Dec-25 at 15:11:37
$
$
$                        PLEASE CHECK YOUR MODEL FOR UNITS CONSISTENCY.
$
$       It should be noted that load ID's from CUBIT may NOT correspond to Nastran SID's
$ The SID's for the load and restraint sets start at one and increment by one:i.e.,1,2,3,4...
$
$$$$$$$$$$$$$$$$$$$$$$$$$$$$$$$$$$$$$$$$$$$$$$$$$$$$$$$$$$$$$$$$$$$$$$$$$$$$$$$$$$$$$$$$$$$$$$$$
$
$
$ -------------------------
$ Executive Control Section
$ -------------------------
$
SOL 101
CEND
$
$
$ --------------------
$ Case Control Section
$ --------------------
$
ECHO = SORT
$
$
$ Name: Initial
$
$
$ Name: Default Set
$
SUBCASE = 1
$
LABEL = Default Set
$
$ -----------------
$ Bulk Data Section
$ -----------------
$
BEGIN BULK
$
$ Params
$
$
$ Node cards
$
GRID*                  1               0         1.00000         1.00000
*       0
GRID*                  2               0        -1.00000         1.00000
*       0
GRID*                  3               0        -1.00000        -1.00000
*       0
GRID*                  4               0         1.00000        -1.00000
*       0
GRID*                  5               0         0.71429         1.00000
*       0
GRID*                  6               0         0.42857         1.00000
*       0
GRID*                  7               0         0.14286         1.00000
*       0
GRID*                  8               0        -0.14286         1.00000
*       0
GRID*                  9               0        -0.42857         1.00000
*       0
GRID*                 10               0        -0.71429         1.00000
*       0
GRID*                 11               0        -1.00000         0.71429
*       0
GRID*                 12               0        -1.00000         0.42857
*       0
GRID*                 13               0        -1.00000         0.14286
*       0
GRID*                 14               0        -1.00000        -0.14286
*       0
GRID*                 15               0        -1.00000        -0.42857
*       0
GRID*                 16               0        -1.00000        -0.71429
*       0
GRID*                 17               0        -0.71429        -1.00000
*       0
GRID*                 18               0        -0.42857        -1.00000
*       0
GRID*                 19               0        -0.14286        -1.00000
*       0
GRID*                 20               0         0.14286        -1.00000
*       0
GRID*                 21               0         0.42857        -1.00000
*       0
GRID*                 22               0         0.71429        -1.00000
*       0
GRID*                 23               0         1.00000        -0.71429
*       0
GRID*                 24               0         1.00000        -0.42857
*       0
GRID*                 25               0         1.00000        -0.14286
*       0
GRID*                 26               0         1.00000         0.14286
*       0
GRID*                 27               0         1.00000         0.42857
*       0
GRID*                 28               0         1.00000         0.71429
*       0
GRID*                 29               0         0.28923         0.73111
*       0
GRID*                 30               0        -0.28984         0.73112
*       0
GRID*                 31               0        -0.59470         0.74202
*       0
GRID*                 32               0         0.00000         0.73712
*       0
GRID*                 33               0         0.56177         0.74376
*       0
GRID*                 34               0        -0.74816         0.56175
*       0
GRID*                 35               0        -0.73712         0.28571
*       0
GRID*                 36               0        -0.73712        -0.00000
*       0
GRID*                 37               0        -0.72944        -0.29161
*       0
GRID*                 38               0        -0.74110        -0.59170
*       0
GRID*                 39               0        -0.56190        -0.74813
*       0
GRID*                 40               0        -0.28571        -0.73712
*       0
GRID*                 41               0         0.28924        -0.73111
*       0
GRID*                 42               0         0.56176        -0.74374
*       0
GRID*                 43               0         0.74418        -0.59197
*       0
GRID*                 44               0         0.00000        -0.73712
*       0
GRID*                 45               0         0.73712        -0.28571
*       0
GRID*                 46               0         0.73712        -0.00000
*       0
GRID*                 47               0         0.73712         0.28571
*       0
GRID*                 48               0         0.74419         0.59197
*       0
GRID*                 49               0         0.46655         0.44752
*       0
GRID*                 50               0         0.48616         0.13972
*       0
GRID*                 51               0         0.48618        -0.13905
*       0
GRID*                 52               0         0.46666        -0.44739
*       0
GRID*                 53               0         0.14587        -0.47366
*       0
GRID*                 54               0        -0.13853        -0.48709
*       0
GRID*                 55               0        -0.44710        -0.46617
*       0
GRID*                 56               0        -0.47366        -0.14587
*       0
GRID*                 57               0        -0.48611         0.13807
*       0
GRID*                 58               0        -0.46594         0.44729
*       0
GRID*                 59               0        -0.14587         0.47366
*       0
GRID*                 60               0         0.14567         0.47366
*       0
GRID*                 61               0         0.26884         0.23705
*       0
GRID*                 62               0         0.00000         0.21136
*       0
GRID*                 63               0        -0.26835         0.23565
*       0
GRID*                 64               0        -0.19018        -0.00606
*       0
GRID*                 65               0        -0.23787        -0.26891
*       0
GRID*                 66               0         0.00593        -0.21090
*       0
GRID*                 67               0         0.27062        -0.23699
*       0
GRID*                 68               0         0.18952         0.00030
*       0
$
$ Element cards
$
$
$ Name: plate
$
CTRIA3  1       1       16      3       17      
CTRIA3  2       1       7       29      6       
CTRIA3  3       1       9       30      8       
CTRIA3  4       1       31      30      9       
CTRIA3  5       1       2       11      10      
CTRIA3  6       1       32      7       8       
CTRIA3  7       1       33      5       6       
CTRIA3  8       1       11      31      10      
CTRIA3  9       1       28      1       5       
CTRIA3  10      1       35      34      12      
CTRIA3  11      1       36      35      13      
CTRIA3  12      1       37      36      14      
CTRIA3  13      1       38      37      15      
CTRIA3  14      1       39      38      17      
CTRIA3  15      1       40      39      18      
CTRIA3  16      1       21      41      20      
CTRIA3  17      1       4       23      22      
CTRIA3  18      1       42      21      22      
CTRIA3  19      1       43      22      23      
CTRIA3  20      1       44      19      20      
CTRIA3  21      1       28      48      27      
CTRIA3  22      1       46      25      26      
CTRIA3  23      1       48      28      5       
CTRIA3  24      1       34      11      12      
CTRIA3  25      1       32      29      7       
CTRIA3  26      1       31      9       10      
CTRIA3  27      1       31      58      30      
CTRIA3  28      1       32      8       30      
CTRIA3  29      1       33      6       29      
CTRIA3  30      1       47      26      27      
CTRIA3  31      1       11      34      31      
CTRIA3  32      1       58      31      34      
CTRIA3  33      1       35      12      13      
CTRIA3  34      1       61      49      60      
CTRIA3  35      1       36      13      14      
CTRIA3  36      1       59      32      30      
CTRIA3  37      1       37      14      15      
CTRIA3  38      1       38      16      17      
CTRIA3  39      1       55      65      56      
CTRIA3  40      1       38      15      16      
CTRIA3  41      1       38      55      37      
CTRIA3  42      1       39      17      18      
CTRIA3  43      1       55      38      39      
CTRIA3  44      1       40      18      19      
CTRIA3  45      1       60      29      32      
CTRIA3  46      1       45      24      25      
CTRIA3  47      1       43      23      24      
CTRIA3  48      1       44      40      19      
CTRIA3  49      1       44      54      40      
CTRIA3  50      1       42      41      21      
CTRIA3  51      1       42      52      41      
CTRIA3  52      1       43      42      22      
CTRIA3  53      1       44      20      41      
CTRIA3  54      1       49      33      29      
CTRIA3  55      1       52      42      43      
CTRIA3  56      1       45      43      24      
CTRIA3  57      1       46      45      25      
CTRIA3  58      1       47      27      48      
CTRIA3  59      1       53      44      41      
CTRIA3  60      1       47      50      46      
CTRIA3  61      1       47      46      26      
CTRIA3  62      1       48      5       33      
CTRIA3  63      1       48      49      47      
CTRIA3  64      1       49      48      33      
CTRIA3  65      1       50      47      49      
CTRIA3  66      1       51      45      46      
CTRIA3  67      1       51      46      50      
CTRIA3  68      1       52      43      45      
CTRIA3  69      1       52      67      53      
CTRIA3  70      1       52      45      51      
CTRIA3  71      1       68      51      50      
CTRIA3  72      1       53      41      52      
CTRIA3  73      1       54      44      53      
CTRIA3  74      1       55      39      40      
CTRIA3  75      1       66      53      67      
CTRIA3  76      1       56      36      37      
CTRIA3  77      1       55      40      54      
CTRIA3  78      1       56      37      55      
CTRIA3  79      1       66      54      53      
CTRIA3  80      1       57      35      36      
CTRIA3  81      1       57      36      56      
CTRIA3  82      1       58      34      35      
CTRIA3  83      1       64      56      65      
CTRIA3  84      1       58      63      59      
CTRIA3  85      1       58      35      57      
CTRIA3  86      1       59      30      58      
CTRIA3  87      1       60      49      29      
CTRIA3  88      1       60      32      59      
CTRIA3  89      1       62      59      63      
CTRIA3  90      1       62      60      59      
CTRIA3  91      1       61      50      49      
CTRIA3  92      1       64      57      56      
CTRIA3  93      1       62      61      60      
CTRIA3  94      1       63      58      57      
CTRIA3  95      1       63      64      62      
CTRIA3  96      1       64      68      62      
CTRIA3  97      1       64      63      57      
CTRIA3  98      1       65      55      54      
CTRIA3  99      1       65      66      64      
CTRIA3  100     1       68      61      62      
CTRIA3  101     1       66      65      54      
CTRIA3  102     1       67      52      51      
CTRIA3  103     1       68      50      61      
CTRIA3  104     1       67      68      66      
CTRIA3  105     1       68      64      66      
CTRIA3  106     1       68      67      51      
$
$ Property cards
$
$
$ Name: plate
PSHELL    1       1      
$
ENDDATA
