$MeshFormat
2.2 0 8
$EndMeshFormat
$PhysicalNames
1
0 1 "conductor"
$EndPhysicalNames
$Nodes
36
1 50.0 0.0 0.0
2 49.240387650610394 8.682408883346518 0.0
3 46.98463103929541 17.101007166283438 0.0
4 43.30127018922193 25.0 0.0
5 38.3022221559489 32.13938048432696 0.0
6 32.13938048432696 38.3022221559489 0.0
7 24.999999999999993 43.30127018922193 0.0
8 17.101007166283427 46.98463103929542 0.0
9 8.68240888334651 49.24038765061041 0.0
10 3.0616169978683823e-15 50.0 0.0
11 -8.682408883346515 49.240387650610394 0.0
12 -17.101007166283445 46.98463103929541 0.0
13 -25.00000000000001 43.30127018922193 0.0
14 -32.13938048432696 38.3022221559489 0.0
15 -38.302222155948904 32.13938048432695 0.0
16 -43.30127018922193 24.999999999999993 0.0
17 -46.98463103929542 17.101007166283424 0.0
18 -49.24038765061041 8.68240888334649 0.0
19 -50.0 6.1232339957367645e-15 0.0
20 -49.240387650610394 -8.682408883346524 0.0
21 -46.98463103929542 -17.101007166283434 0.0
22 -43.30127018922193 -25.0 0.0
23 -38.30222215594888 -32.13938048432697 0.0
24 -32.13938048432697 -38.3022221559489 0.0
25 -24.99999999999998 -43.30127018922194 0.0
26 -17.101007166283427 -46.98463103929542 0.0
27 -8.682408883346515 -49.240387650610394 0.0
28 3.5224069991401107e-14 -50.0 0.0
29 8.68240888334654 -49.240387650610394 0.0
30 17.10100716628345 -46.98463103929541 0.0
31 25.0 -43.30127018922193 0.0
32 32.139380484327 -38.302222155948876 0.0
33 38.30222215594892 -32.13938048432694 0.0
34 43.30127018922194 -24.999999999999982 0.0
35 46.98463103929543 -17.101007166283388 0.0
36 49.240387650610394 -8.682408883346518 0.0
$EndNodes
$Elements
72
1 1 2 1 1 1 2
2 1 2 1 1 2 3
3 1 2 1 1 3 4
4 1 2 1 1 4 5
5 1 2 1 1 5 6
6 1 2 1 1 6 7
7 1 2 1 1 7 8
8 1 2 1 1 8 9
9 1 2 1 1 9 10
10 1 2 1 1 10 11
11 1 2 1 1 11 12
12 1 2 1 1 12 13
13 1 2 1 1 13 14
14 1 2 1 1 14 15
15 1 2 1 1 15 16
16 1 2 1 1 16 17
17 1 2 1 1 17 18
18 1 2 1 1 18 19
19 1 2 1 1 19 20
20 1 2 1 1 20 21
21 1 2 1 1 21 22
22 1 2 1 1 22 23
23 1 2 1 1 23 24
24 1 2 1 1 24 25
25 1 2 1 1 25 26
26 1 2 1 1 26 27
27 1 2 1 1 27 28
28 1 2 1 1 28 29
29 1 2 1 1 29 30
30 1 2 1 1 30 31
31 1 2 1 1 31 32
32 1 2 1 1 32 33
33 1 2 1 1 33 34
34 1 2 1 1 34 35
35 1 2 1 1 35 36
36 1 2 1 1 36 1
37 15 2 1 1 1
38 15 2 1 1 2
39 15 2 1 1 3
40 15 2 1 1 4
41 15 2 1 1 5
42 15 2 1 1 6
43 15 2 1 1 7
44 15 2 1 1 8
45 15 2 1 1 9
46 15 2 1 1 10
47 15 2 1 1 11
48 15 2 1 1 12
49 15 2 1 1 13
50 15 2 1 1 14
51 15 2 1 1 15
52 15 2 1 1 16
53 15 2 1 1 17
54 15 2 1 1 18
55 15 2 1 1 19
56 15 2 1 1 20
57 15 2 1 1 21
58 15 2 1 1 22
59 15 2 1 1 23
60 15 2 1 1 24
61 15 2 1 1 25
62 15 2 1 1 26
63 15 2 1 1 27
64 15 2 1 1 28
65 15 2 1 1 29
66 15 2 1 1 30
67 15 2 1 1 31
68 15 2 1 1 32
69 15 2 1 1 33
70 15 2 1 1 34
71 15 2 1 1 35
72 15 2 1 1 36
$EndElements
