$MeshFormat
2.2 0 8
$EndMeshFormat
$Nodes
63
1 0.02 0.005 0.005
2 0.02 0.005 -0.005
3 0.02 0.015 0.005
4 0.02 0.015 -0.005
5 0.08 0.005 0.005
6 0.08 0.005 -0.005
7 0.08 0.015 0.005
8 0.08 0.015 -0.005
9 0.02 0.005 -8.673617379884035e-19
10 0.02 0.009999999999999998 0.005
11 0.02 0.015 -8.673617379884035e-19
12 0.02 0.009999999999999998 -0.005
13 0.08 0.005 -8.673617379884035e-19
14 0.08 0.009999999999999998 0.005
15 0.08 0.015 -8.673617379884035e-19
16 0.08 0.009999999999999998 -0.005
17 0.03000000000000003 0.005 -0.005
18 0.04000000000000006 0.005 -0.005
19 0.0500000000000001 0.005 -0.005
20 0.06000000000000007 0.005 -0.005
21 0.07000000000000003 0.005 -0.005
22 0.03000000000000003 0.005 0.005
23 0.04000000000000006 0.005 0.005
24 0.0500000000000001 0.005 0.005
25 0.06000000000000007 0.005 0.005
26 0.07000000000000003 0.005 0.005
27 0.03000000000000003 0.015 -0.005
28 0.04000000000000006 0.015 -0.005
29 0.0500000000000001 0.015 -0.005
30 0.06000000000000007 0.015 -0.005
31 0.07000000000000003 0.015 -0.005
32 0.03000000000000003 0.015 0.005
33 0.04000000000000006 0.015 0.005
34 0.0500000000000001 0.015 0.005
35 0.06000000000000007 0.015 0.005
36 0.07000000000000003 0.015 0.005
37 0.02 0.009999999999999998 -8.673617379884035e-19
38 0.08 0.009999999999999998 -8.673617379884035e-19
39 0.03000000000000003 0.005 -8.673617379884035e-19
40 0.04000000000000006 0.005 -8.673617379884035e-19
41 0.0500000000000001 0.005 -8.673617379884035e-19
42 0.06000000000000007 0.005 -8.673617379884035e-19
43 0.07000000000000003 0.005 0
44 0.03000000000000003 0.015 -8.673617379884035e-19
45 0.04000000000000006 0.015 -8.673617379884035e-19
46 0.0500000000000001 0.015 -8.673617379884035e-19
47 0.06000000000000007 0.015 -8.673617379884035e-19
48 0.07000000000000003 0.015 0
49 0.03000000000000003 0.009999999999999998 -0.005
50 0.04000000000000006 0.009999999999999997 -0.005
51 0.0500000000000001 0.009999999999999998 -0.005
52 0.06000000000000007 0.009999999999999998 -0.005
53 0.07000000000000003 0.009999999999999998 -0.005
54 0.03000000000000003 0.009999999999999998 0.005
55 0.04000000000000006 0.009999999999999997 0.005
56 0.0500000000000001 0.009999999999999998 0.005
57 0.06000000000000007 0.009999999999999998 0.005
58 0.07000000000000003 0.009999999999999998 0.005
59 0.03000000000000003 0.01 -6.505213034913027e-19
60 0.04000000000000006 0.01 -9.215718466126788e-19
61 0.0500000000000001 0.01 -8.673617379884035e-19
62 0.06000000000000008 0.01 -1.301042606982605e-18
63 0.07000000000000006 0.009999999999999998 4.336808689942018e-19
$EndNodes
$Elements
128
1 15 2 0 1 1
2 15 2 0 2 2
3 15 2 0 3 3
4 15 2 0 4 4
5 15 2 0 5 5
6 15 2 0 6 6
7 15 2 0 7 7
8 15 2 0 8 8
9 1 2 0 1 2 9
10 1 2 0 1 9 1
11 1 2 0 2 1 10
12 1 2 0 2 10 3
13 1 2 0 3 4 11
14 1 2 0 3 11 3
15 1 2 0 4 2 12
16 1 2 0 4 12 4
17 1 2 0 5 6 13
18 1 2 0 5 13 5
19 1 2 0 6 5 14
20 1 2 0 6 14 7
21 1 2 0 7 8 15
22 1 2 0 7 15 7
23 1 2 0 8 6 16
24 1 2 0 8 16 8
25 1 2 0 9 2 17
26 1 2 0 9 17 18
27 1 2 0 9 18 19
28 1 2 0 9 19 20
29 1 2 0 9 20 21
30 1 2 0 9 21 6
31 1 2 0 10 1 22
32 1 2 0 10 22 23
33 1 2 0 10 23 24
34 1 2 0 10 24 25
35 1 2 0 10 25 26
36 1 2 0 10 26 5
37 1 2 0 11 4 27
38 1 2 0 11 27 28
39 1 2 0 11 28 29
40 1 2 0 11 29 30
41 1 2 0 11 30 31
42 1 2 0 11 31 8
43 1 2 0 12 3 32
44 1 2 0 12 32 33
45 1 2 0 12 33 34
46 1 2 0 12 34 35
47 1 2 0 12 35 36
48 1 2 0 12 36 7
49 3 2 0 1 2 9 37 12
50 3 2 0 1 12 37 11 4
51 3 2 0 1 9 1 10 37
52 3 2 0 1 37 10 3 11
53 3 2 0 2 6 16 38 13
54 3 2 0 2 16 8 15 38
55 3 2 0 2 13 38 14 5
56 3 2 0 2 38 15 7 14
57 3 2 0 3 2 17 39 9
58 3 2 0 3 9 39 22 1
59 3 2 0 3 17 18 40 39
60 3 2 0 3 39 40 23 22
61 3 2 0 3 18 19 41 40
62 3 2 0 3 40 41 24 23
63 3 2 0 3 19 20 42 41
64 3 2 0 3 41 42 25 24
65 3 2 0 3 20 21 43 42
66 3 2 0 3 42 43 26 25
67 3 2 0 3 21 6 13 43
68 3 2 0 3 43 13 5 26
69 3 2 0 4 4 11 44 27
70 3 2 0 4 11 3 32 44
71 3 2 0 4 27 44 45 28
72 3 2 0 4 44 32 33 45
73 3 2 0 4 28 45 46 29
74 3 2 0 4 45 33 34 46
75 3 2 0 4 29 46 47 30
76 3 2 0 4 46 34 35 47
77 3 2 0 4 30 47 48 31
78 3 2 0 4 47 35 36 48
79 3 2 0 4 31 48 15 8
80 3 2 0 4 48 36 7 15
81 3 2 0 5 2 12 49 17
82 3 2 0 5 17 49 50 18
83 3 2 0 5 18 50 51 19
84 3 2 0 5 19 51 52 20
85 3 2 0 5 20 52 53 21
86 3 2 0 5 21 53 16 6
87 3 2 0 5 12 4 27 49
88 3 2 0 5 49 27 28 50
89 3 2 0 5 50 28 29 51
90 3 2 0 5 51 29 30 52
91 3 2 0 5 52 30 31 53
92 3 2 0 5 53 31 8 16
93 3 2 0 6 1 22 54 10
94 3 2 0 6 22 23 55 54
95 3 2 0 6 23 24 56 55
96 3 2 0 6 24 25 57 56
97 3 2 0 6 25 26 58 57
98 3 2 0 6 26 5 14 58
99 3 2 0 6 10 54 32 3
100 3 2 0 6 54 55 33 32
101 3 2 0 6 55 56 34 33
102 3 2 0 6 56 57 35 34
103 3 2 0 6 57 58 36 35
104 3 2 0 6 58 14 7 36
105 5 2 0 1 37 9 2 12 59 39 17 49
106 5 2 0 1 59 39 17 49 60 40 18 50
107 5 2 0 1 60 40 18 50 61 41 19 51
108 5 2 0 1 61 41 19 51 62 42 20 52
109 5 2 0 1 62 42 20 52 63 43 21 53
110 5 2 0 1 63 43 21 53 38 13 6 16
111 5 2 0 1 11 37 12 4 44 59 49 27
112 5 2 0 1 44 59 49 27 45 60 50 28
113 5 2 0 1 45 60 50 28 46 61 51 29
114 5 2 0 1 46 61 51 29 47 62 52 30
115 5 2 0 1 47 62 52 30 48 63 53 31
116 5 2 0 1 48 63 53 31 15 38 16 8
117 5 2 0 1 10 1 9 37 54 22 39 59
118 5 2 0 1 54 22 39 59 55 23 40 60
119 5 2 0 1 55 23 40 60 56 24 41 61
120 5 2 0 1 56 24 41 61 57 25 42 62
121 5 2 0 1 57 25 42 62 58 26 43 63
122 5 2 0 1 58 26 43 63 14 5 13 38
123 5 2 0 1 3 10 37 11 32 54 59 44
124 5 2 0 1 32 54 59 44 33 55 60 45
125 5 2 0 1 33 55 60 45 34 56 61 46
126 5 2 0 1 34 56 61 46 35 57 62 47
127 5 2 0 1 35 57 62 47 36 58 63 48
128 5 2 0 1 36 58 63 48 7 14 38 15
$EndElements
