ISO-10303-21;
HEADER;
FILE_DESCRIPTION(('Open CASCADE Model'),'2;1');
FILE_NAME('tapered_helix_coil','2026-04-17T10:50:43',('Author'),(
    'Open CASCADE'),'Open CASCADE STEP processor 7.8','build123d',
  'Unknown');
FILE_SCHEMA(('AUTOMOTIVE_DESIGN { 1 0 10303 214 1 1 1 1 }'));
ENDSEC;
DATA;
#1 = APPLICATION_PROTOCOL_DEFINITION('international standard',
  'automotive_design',2000,#2);
#2 = APPLICATION_CONTEXT(
  'core data for automotive mechanical design processes');
#3 = SHAPE_DEFINITION_REPRESENTATION(#4,#10);
#4 = PRODUCT_DEFINITION_SHAPE('','',#5);
#5 = PRODUCT_DEFINITION('design','',#6,#9);
#6 = PRODUCT_DEFINITION_FORMATION('','',#7);
#7 = PRODUCT('tapered_helix_coil','tapered_helix_coil','',(#8));
#8 = PRODUCT_CONTEXT('',#2,'mechanical');
#9 = PRODUCT_DEFINITION_CONTEXT('part definition',#2,'design');
#10 = ADVANCED_BREP_SHAPE_REPRESENTATION('',(#11,#15),#817);
#11 = AXIS2_PLACEMENT_3D('',#12,#13,#14);
#12 = CARTESIAN_POINT('',(0.,0.,0.));
#13 = DIRECTION('',(0.,0.,1.));
#14 = DIRECTION('',(1.,0.,-0.));
#15 = MANIFOLD_SOLID_BREP('',#16);
#16 = CLOSED_SHELL('',(#17,#459,#653,#760,#803,#810));
#17 = ADVANCED_FACE('',(#18),#31,.T.);
#18 = FACE_BOUND('',#19,.T.);
#19 = EDGE_LOOP('',(#20,#135,#285,#311));
#20 = ORIENTED_EDGE('',*,*,#21,.T.);
#21 = EDGE_CURVE('',#22,#24,#26,.T.);
#22 = VERTEX_POINT('',#23);
#23 = CARTESIAN_POINT('',(48.,5.09130770303E-02,-1.999351859625));
#24 = VERTEX_POINT('',#25);
#25 = CARTESIAN_POINT('',(48.,-5.09130770303E-02,1.999351859625));
#26 = SURFACE_CURVE('',#27,(#30,#124),.PCURVE_S1.);
#27 = B_SPLINE_CURVE_WITH_KNOTS('',1,(#28,#29),.UNSPECIFIED.,.F.,.F.,(2,
    2),(0.,1.),.PIECEWISE_BEZIER_KNOTS.);
#28 = CARTESIAN_POINT('',(48.,5.09130770303E-02,-1.999351859625));
#29 = CARTESIAN_POINT('',(48.,-5.09130770303E-02,1.999351859625));
#30 = PCURVE('',#31,#118);
#31 = ( BOUNDED_SURFACE() B_SPLINE_SURFACE(1,3,(
    (#32,#33,#34,#35,#36,#37,#38,#39,#40,#41,#42,#43,#44,#45,#46,#47,#48
      ,#49,#50,#51,#52,#53,#54,#55,#56,#57,#58,#59,#60,#61,#62,#63,#64
      ,#65,#66,#67,#68,#69,#70,#71,#72,#73,#74)
    ,(#75,#76,#77,#78,#79,#80,#81,#82,#83,#84,#85,#86,#87,#88,#89,#90
      ,#91,#92,#93,#94,#95,#96,#97,#98,#99,#100,#101,#102,#103,#104,#105
      ,#106,#107,#108,#109,#110,#111,#112,#113,#114,#115,#116,#117
)),.UNSPECIFIED.,.F.,.F.,.F.) B_SPLINE_SURFACE_WITH_KNOTS((2,2),(4,1,1,1
    ,1,1,1,1,1,1,1,1,1,1,1,1,1,1,1,1,1,1,1,1,1,1,1,1,1,1,1,1,1,1,1,1,1,1
    ,1,1,4),(0.,1.),(0.,2.495889150782E-02,4.991981324718E-02,
    7.488277138203E-02,9.984777207476E-02,0.124814821486,0.149783925776,
    0.174755091102,0.19972832362,0.224703629485,0.249681014851,
    0.274660485869,0.29964204869,0.324625709462,0.349611474331,
    0.374599349445,0.399589340946,0.424581454978,0.449575697681,
    0.474572075194,0.499570593655,0.524571259201,0.549574077965,
    0.574579056081,0.599586199681,0.624595514893,0.649607007847,
    0.674620684669,0.699636551483,0.724654614414,0.749674879583,
    0.77469735311,0.799722041115,0.824748949712,0.849778085019,
    0.874809453149,0.899843060213,0.924878912322,0.949917015585,
0.974957376109,1.),.UNSPECIFIED.) GEOMETRIC_REPRESENTATION_ITEM() 
RATIONAL_B_SPLINE_SURFACE((
    (1.,1.000000000001,1.,1.,1.,1.,1.,1.,1.,1.,1.,1.,1.,1.,1.,1.,1.,1.
      ,1.,1.,1.,1.,1.,1.,1.,1.,1.,1.,1.,1.,1.,1.,1.,1.,1.,1.,1.
      ,1.000000000001,0.999999999998,1.000000000007,0.999999999974
      ,1.000000000056,1.)
    ,(1.,1.000000000001,1.,1.,1.,1.,1.,1.,1.,1.,1.,1.,1.,1.,1.,1.,1.,1.
      ,1.,1.,1.,1.,1.,1.,1.,1.,1.,1.,1.,1.,1.,1.,1.,1.,1.,1.,1.
      ,1.000000000001,0.999999999998,1.000000000007,0.999999999974
,1.000000000056,1.))) REPRESENTATION_ITEM('') SURFACE() );
#32 = CARTESIAN_POINT('',(48.,5.09130770303E-02,-1.999351859625));
#33 = CARTESIAN_POINT('',(47.849422170814,12.827304859511,
    -1.657674007602));
#34 = CARTESIAN_POINT('',(37.664888345792,37.557690415636,
    -0.974318283233));
#35 = CARTESIAN_POINT('',(-6.757849960155E-02,53.278187719205,
    5.067374847971E-02));
#36 = CARTESIAN_POINT('',(-37.70163844256,37.629565129908,1.075665767057
    ));
#37 = CARTESIAN_POINT('',(-53.30525664481,-4.594902791255E-02,
    2.100657789077));
#38 = CARTESIAN_POINT('',(-37.67732962759,-37.74525147425,3.125649810095
    ));
#39 = CARTESIAN_POINT('',(4.65855796783E-02,-53.35921353903,
    4.150641831304));
#40 = CARTESIAN_POINT('',(37.782897621404,-37.7178886258,5.175633852383)
  );
#41 = CARTESIAN_POINT('',(53.414769454638,4.529119901888E-02,
    6.200625873418));
#42 = CARTESIAN_POINT('',(37.758019107593,37.821061234895,7.225617894386
    ));
#43 = CARTESIAN_POINT('',(-4.388199605227E-02,53.470186701059,
    8.250609915293));
#44 = CARTESIAN_POINT('',(-37.85925562944,37.798186743313,9.275601936136
    ));
#45 = CARTESIAN_POINT('',(-53.52559570131,-4.248276213391E-02,
    10.300593956917));
#46 = CARTESIAN_POINT('',(-37.83835658194,-37.89744736308,
    11.325585977636));
#47 = CARTESIAN_POINT('',(4.108413090472E-02,-53.58100541726,
    12.350577998291));
#48 = CARTESIAN_POINT('',(37.935638945747,-37.87852622193,
    13.375570018882));
#49 = CARTESIAN_POINT('',(53.636415176264,3.968545868937E-02,
    14.400562039411));
#50 = CARTESIAN_POINT('',(37.918695843582,37.973830549845,
    15.425554059875));
#51 = CARTESIAN_POINT('',(-3.828679371066E-02,53.691824932093,
    16.450546080276));
#52 = CARTESIAN_POINT('',(-38.01202216237,37.95886545934,17.475538100614
    ));
#53 = CARTESIAN_POINT('',(-53.74723468822,-3.688813920621E-02,
    18.500530120887));
#54 = CARTESIAN_POINT('',(-37.99903506832,-38.05021378238,
    19.525522141096));
#55 = CARTESIAN_POINT('',(3.548949482747E-02,-53.80264444491,
    20.550514161241));
#56 = CARTESIAN_POINT('',(38.088405409948,-38.03920467047,
    21.575506181321));
#57 = CARTESIAN_POINT('',(53.858054201891,3.409086022156E-02,
    22.600498201337));
#58 = CARTESIAN_POINT('',(38.079374266751,38.126597045951,
    23.625490221287));
#59 = CARTESIAN_POINT('',(-3.269223868657E-02,53.913463955646,
    24.650482241173));
#60 = CARTESIAN_POINT('',(-38.16478867772,38.119543870344,
    25.675474260994));
#61 = CARTESIAN_POINT('',(-53.96887375325,-3.129367916715E-02,
    26.70046628075));
#62 = CARTESIAN_POINT('',(-38.15971330559,-38.2029801222,27.72545830044)
  );
#63 = CARTESIAN_POINT('',(2.989452571801E-02,-54.02428427774,
    28.750450320065));
#64 = CARTESIAN_POINT('',(38.241173827386,-38.19988002308,
    29.775442339624));
#65 = CARTESIAN_POINT('',(54.079686391717,2.848526218214E-02,
    30.800434359117));
#66 = CARTESIAN_POINT('',(38.240078128695,38.279405312405,
    31.825426378548));
#67 = CARTESIAN_POINT('',(-2.719319012176E-02,54.134947517951,
    32.850418397895));
#68 = CARTESIAN_POINT('',(-38.31719941745,38.280802473708,
    33.875410417243));
#69 = CARTESIAN_POINT('',(-54.19184121458,-2.786536762194E-02,
    34.900402436273));
#70 = CARTESIAN_POINT('',(-38.31543315902,-38.3476618986,35.925394456177
    ));
#71 = CARTESIAN_POINT('',(5.792663560689E-03,-54.27610062665,
    36.950386472493));
#72 = CARTESIAN_POINT('',(38.463020954186,-38.24791976881,37.97537850193
    ));
#73 = CARTESIAN_POINT('',(48.849522605841,-13.01547471672,
    38.658675553316));
#74 = CARTESIAN_POINT('',(49.,2.545653851509E-02,39.000324070187));
#75 = CARTESIAN_POINT('',(48.,-5.09130770303E-02,1.999351859625));
#76 = CARTESIAN_POINT('',(47.876467096131,12.726253941961,2.324367768878
    ));
#77 = CARTESIAN_POINT('',(37.743738872985,37.478993528721,2.974399607148
    ));
#78 = CARTESIAN_POINT('',(4.249903744138E-02,53.278603948812,
    3.949407835787));
#79 = CARTESIAN_POINT('',(-37.62511640651,37.706616157081,4.924416052026
    ));
#80 = CARTESIAN_POINT('',(-53.30562454202,6.125507870495E-02,
    5.899424271514));
#81 = CARTESIAN_POINT('',(-37.75239873407,-37.67071016341,6.874432490056
    ));
#82 = CARTESIAN_POINT('',(-5.779398175193E-02,-53.35958512472,
    7.849440708777));
#83 = CARTESIAN_POINT('',(37.710350135382,-37.79096186987,8.824448927376
    ));
#84 = CARTESIAN_POINT('',(53.415141217072,-5.626755315228E-02,
    9.799457145933));
#85 = CARTESIAN_POINT('',(37.829097429288,37.750508574087,
    10.774465364425));
#86 = CARTESIAN_POINT('',(5.485569474382E-02,53.470558370864,
    11.74947358286));
#87 = CARTESIAN_POINT('',(-37.79069772552,37.867270213767,
    12.724481801234));
#88 = CARTESIAN_POINT('',(-53.52596729552,5.34338480202E-02,
    13.699490019549));
#89 = CARTESIAN_POINT('',(-37.90544519554,-37.83088421013,
    14.674498237804));
#90 = CARTESIAN_POINT('',(-5.201139990817E-02,-53.58137693617,
    15.649506455999));
#91 = CARTESIAN_POINT('',(37.871070543344,-37.94361997754,
    16.624514674134));
#92 = CARTESIAN_POINT('',(53.636786618718,-5.058899288225E-02,
    17.599522892209));
#93 = CARTESIAN_POINT('',(37.981794740482,37.911256897262,
    18.574531110223));
#94 = CARTESIAN_POINT('',(4.916657861349E-02,53.692196297009,
    19.549539328176));
#95 = CARTESIAN_POINT('',(-37.95144325885,38.019969496767,
    20.524547546069));
#96 = CARTESIAN_POINT('',(-53.74760597453,4.774415387052E-02,
    21.499555763901));
#97 = CARTESIAN_POINT('',(-38.05814424552,-37.99162962716,
    22.474563981672));
#98 = CARTESIAN_POINT('',(-4.632171900242E-02,-53.80301565154,
    23.449572199381));
#99 = CARTESIAN_POINT('',(38.031816002277,-38.09631898669,24.42458041703
    ));
#100 = CARTESIAN_POINT('',(53.858425327776,-4.489927436192E-02,
    25.399588634617));
#101 = CARTESIAN_POINT('',(38.134493721231,38.072002385072,
    26.374596852142));
#102 = CARTESIAN_POINT('',(4.347681664601E-02,53.913834999722,
    27.349605069605));
#103 = CARTESIAN_POINT('',(-38.11218876286,38.172668462325,
    28.324613287007));
#104 = CARTESIAN_POINT('',(-53.96924471452,4.205429695098E-02,
    29.299621504347));
#105 = CARTESIAN_POINT('',(-38.21084303407,-38.15237495275,
    30.274629721624));
#106 = CARTESIAN_POINT('',(-4.063237215398E-02,-54.02465515465,
    31.249637938839));
#107 = CARTESIAN_POINT('',(38.192563406192,-38.24901488917,
    32.224646155992));
#108 = CARTESIAN_POINT('',(54.080057169714,-3.922055047082E-02,
    33.199654373081));
#109 = CARTESIAN_POINT('',(38.287218181959,38.232789612695,
    34.174662590112));
#110 = CARTESIAN_POINT('',(3.769134947944E-02,54.135318293133,
    35.14967080706));
#111 = CARTESIAN_POINT('',(-38.27257773738,38.325947350774,
    36.124679024023));
#112 = CARTESIAN_POINT('',(-54.19221460277,3.419925246854E-02,
    37.099687240631));
#113 = CARTESIAN_POINT('',(-38.3585730915,-38.30503928958,
    38.074695458266));
#114 = CARTESIAN_POINT('',(-5.348849531149E-02,-54.27645776933,
    39.049703671758));
#115 = CARTESIAN_POINT('',(38.422533498088,-38.28912514246,
    40.024711900455));
#116 = CARTESIAN_POINT('',(48.835914210181,-13.06669937165,
    40.674687921405));
#117 = CARTESIAN_POINT('',(49.,-2.545653851521E-02,40.999675929813));
#118 = DEFINITIONAL_REPRESENTATION('',(#119),#123);
#119 = LINE('',#120,#121);
#120 = CARTESIAN_POINT('',(0.,0.));
#121 = VECTOR('',#122,1.);
#122 = DIRECTION('',(1.,0.));
#123 = ( GEOMETRIC_REPRESENTATION_CONTEXT(2) 
PARAMETRIC_REPRESENTATION_CONTEXT() REPRESENTATION_CONTEXT('2D SPACE',''
  ) );
#124 = PCURVE('',#125,#130);
#125 = PLANE('',#126);
#126 = AXIS2_PLACEMENT_3D('',#127,#128,#129);
#127 = CARTESIAN_POINT('',(48.,5.09130770303E-02,-1.999351859625));
#128 = DIRECTION('',(0.,-0.999675929813,-2.545653851515E-02));
#129 = DIRECTION('',(0.707106781187,-1.80004910096E-02,0.70687762896));
#130 = DEFINITIONAL_REPRESENTATION('',(#131),#134);
#131 = B_SPLINE_CURVE_WITH_KNOTS('',1,(#132,#133),.UNSPECIFIED.,.F.,.F.,
  (2,2),(0.,1.),.PIECEWISE_BEZIER_KNOTS.);
#132 = CARTESIAN_POINT('',(0.,0.));
#133 = CARTESIAN_POINT('',(2.828427124746,2.828427124746));
#134 = ( GEOMETRIC_REPRESENTATION_CONTEXT(2) 
PARAMETRIC_REPRESENTATION_CONTEXT() REPRESENTATION_CONTEXT('2D SPACE',''
  ) );
#135 = ORIENTED_EDGE('',*,*,#136,.T.);
#136 = EDGE_CURVE('',#24,#137,#139,.T.);
#137 = VERTEX_POINT('',#138);
#138 = CARTESIAN_POINT('',(49.,-2.545653851521E-02,40.999675929813));
#139 = SURFACE_CURVE('',#140,(#184,#191),.PCURVE_S1.);
#140 = ( BOUNDED_CURVE() B_SPLINE_CURVE(3,(#141,#142,#143,#144,#145,#146
    ,#147,#148,#149,#150,#151,#152,#153,#154,#155,#156,#157,#158,#159,
    #160,#161,#162,#163,#164,#165,#166,#167,#168,#169,#170,#171,#172,
    #173,#174,#175,#176,#177,#178,#179,#180,#181,#182,#183),
.UNSPECIFIED.,.F.,.F.) B_SPLINE_CURVE_WITH_KNOTS((4,1,1,1,1,1,1,1,1,1,1,
    1,1,1,1,1,1,1,1,1,1,1,1,1,1,1,1,1,1,1,1,1,1,1,1,1,1,1,1,1,4),(0.,
    2.495889150782E-02,4.991981324718E-02,7.488277138203E-02,
    9.984777207476E-02,0.124814821486,0.149783925776,0.174755091102,
    0.19972832362,0.224703629485,0.249681014851,0.274660485869,
    0.29964204869,0.324625709462,0.349611474331,0.374599349445,
    0.399589340946,0.424581454978,0.449575697681,0.474572075194,
    0.499570593655,0.524571259201,0.549574077965,0.574579056081,
    0.599586199681,0.624595514893,0.649607007847,0.674620684669,
    0.699636551483,0.724654614414,0.749674879583,0.77469735311,
    0.799722041115,0.824748949712,0.849778085019,0.874809453149,
    0.899843060213,0.924878912322,0.949917015585,0.974957376109,1.),
.UNSPECIFIED.) CURVE() GEOMETRIC_REPRESENTATION_ITEM() 
RATIONAL_B_SPLINE_CURVE((1.,1.000000000001,1.,1.,1.,1.,1.,1.,1.,1.,1.,1.
    ,1.,1.,1.,1.,1.,1.,1.,1.,1.,1.,1.,1.,1.,1.,1.,1.,1.,1.,1.,1.,1.,1.,
    1.,1.,1.,1.000000000001,0.999999999998,1.000000000007,0.999999999974
,1.000000000056,1.)) REPRESENTATION_ITEM('') );
#141 = CARTESIAN_POINT('',(48.,-5.09130770303E-02,1.999351859625));
#142 = CARTESIAN_POINT('',(47.876467096131,12.726253941961,
    2.324367768878));
#143 = CARTESIAN_POINT('',(37.743738872985,37.478993528721,
    2.974399607148));
#144 = CARTESIAN_POINT('',(4.249903744138E-02,53.278603948812,
    3.949407835787));
#145 = CARTESIAN_POINT('',(-37.62511640651,37.706616157081,
    4.924416052026));
#146 = CARTESIAN_POINT('',(-53.30562454202,6.125507870495E-02,
    5.899424271514));
#147 = CARTESIAN_POINT('',(-37.75239873407,-37.67071016341,
    6.874432490056));
#148 = CARTESIAN_POINT('',(-5.779398175193E-02,-53.35958512472,
    7.849440708777));
#149 = CARTESIAN_POINT('',(37.710350135382,-37.79096186987,
    8.824448927376));
#150 = CARTESIAN_POINT('',(53.415141217072,-5.626755315228E-02,
    9.799457145933));
#151 = CARTESIAN_POINT('',(37.829097429288,37.750508574087,
    10.774465364425));
#152 = CARTESIAN_POINT('',(5.485569474382E-02,53.470558370864,
    11.74947358286));
#153 = CARTESIAN_POINT('',(-37.79069772552,37.867270213767,
    12.724481801234));
#154 = CARTESIAN_POINT('',(-53.52596729552,5.34338480202E-02,
    13.699490019549));
#155 = CARTESIAN_POINT('',(-37.90544519554,-37.83088421013,
    14.674498237804));
#156 = CARTESIAN_POINT('',(-5.201139990817E-02,-53.58137693617,
    15.649506455999));
#157 = CARTESIAN_POINT('',(37.871070543344,-37.94361997754,
    16.624514674134));
#158 = CARTESIAN_POINT('',(53.636786618718,-5.058899288225E-02,
    17.599522892209));
#159 = CARTESIAN_POINT('',(37.981794740482,37.911256897262,
    18.574531110223));
#160 = CARTESIAN_POINT('',(4.916657861349E-02,53.692196297009,
    19.549539328176));
#161 = CARTESIAN_POINT('',(-37.95144325885,38.019969496767,
    20.524547546069));
#162 = CARTESIAN_POINT('',(-53.74760597453,4.774415387052E-02,
    21.499555763901));
#163 = CARTESIAN_POINT('',(-38.05814424552,-37.99162962716,
    22.474563981672));
#164 = CARTESIAN_POINT('',(-4.632171900242E-02,-53.80301565154,
    23.449572199381));
#165 = CARTESIAN_POINT('',(38.031816002277,-38.09631898669,
    24.42458041703));
#166 = CARTESIAN_POINT('',(53.858425327776,-4.489927436192E-02,
    25.399588634617));
#167 = CARTESIAN_POINT('',(38.134493721231,38.072002385072,
    26.374596852142));
#168 = CARTESIAN_POINT('',(4.347681664601E-02,53.913834999722,
    27.349605069605));
#169 = CARTESIAN_POINT('',(-38.11218876286,38.172668462325,
    28.324613287007));
#170 = CARTESIAN_POINT('',(-53.96924471452,4.205429695098E-02,
    29.299621504347));
#171 = CARTESIAN_POINT('',(-38.21084303407,-38.15237495275,
    30.274629721624));
#172 = CARTESIAN_POINT('',(-4.063237215398E-02,-54.02465515465,
    31.249637938839));
#173 = CARTESIAN_POINT('',(38.192563406192,-38.24901488917,
    32.224646155992));
#174 = CARTESIAN_POINT('',(54.080057169714,-3.922055047082E-02,
    33.199654373081));
#175 = CARTESIAN_POINT('',(38.287218181959,38.232789612695,
    34.174662590112));
#176 = CARTESIAN_POINT('',(3.769134947944E-02,54.135318293133,
    35.14967080706));
#177 = CARTESIAN_POINT('',(-38.27257773738,38.325947350774,
    36.124679024023));
#178 = CARTESIAN_POINT('',(-54.19221460277,3.419925246854E-02,
    37.099687240631));
#179 = CARTESIAN_POINT('',(-38.3585730915,-38.30503928958,
    38.074695458266));
#180 = CARTESIAN_POINT('',(-5.348849531149E-02,-54.27645776933,
    39.049703671758));
#181 = CARTESIAN_POINT('',(38.422533498088,-38.28912514246,
    40.024711900455));
#182 = CARTESIAN_POINT('',(48.835914210181,-13.06669937165,
    40.674687921405));
#183 = CARTESIAN_POINT('',(49.,-2.545653851521E-02,40.999675929813));
#184 = PCURVE('',#31,#185);
#185 = DEFINITIONAL_REPRESENTATION('',(#186),#190);
#186 = LINE('',#187,#188);
#187 = CARTESIAN_POINT('',(1.,0.));
#188 = VECTOR('',#189,1.);
#189 = DIRECTION('',(0.,1.));
#190 = ( GEOMETRIC_REPRESENTATION_CONTEXT(2) 
PARAMETRIC_REPRESENTATION_CONTEXT() REPRESENTATION_CONTEXT('2D SPACE',''
  ) );
#191 = PCURVE('',#192,#279);
#192 = ( BOUNDED_SURFACE() B_SPLINE_SURFACE(1,3,(
    (#193,#194,#195,#196,#197,#198,#199,#200,#201,#202,#203,#204,#205
      ,#206,#207,#208,#209,#210,#211,#212,#213,#214,#215,#216,#217,#218
      ,#219,#220,#221,#222,#223,#224,#225,#226,#227,#228,#229,#230,#231
      ,#232,#233,#234,#235)
    ,(#236,#237,#238,#239,#240,#241,#242,#243,#244,#245,#246,#247,#248
      ,#249,#250,#251,#252,#253,#254,#255,#256,#257,#258,#259,#260,#261
      ,#262,#263,#264,#265,#266,#267,#268,#269,#270,#271,#272,#273,#274
      ,#275,#276,#277,#278
)),.UNSPECIFIED.,.F.,.F.,.F.) B_SPLINE_SURFACE_WITH_KNOTS((2,2),(4,1,1,1
    ,1,1,1,1,1,1,1,1,1,1,1,1,1,1,1,1,1,1,1,1,1,1,1,1,1,1,1,1,1,1,1,1,1,1
    ,1,1,4),(1.,2.),(0.,2.495889150782E-02,4.991981324718E-02,
    7.488277138203E-02,9.984777207476E-02,0.124814821486,0.149783925776,
    0.174755091102,0.19972832362,0.224703629485,0.249681014851,
    0.274660485869,0.29964204869,0.324625709462,0.349611474331,
    0.374599349445,0.399589340946,0.424581454978,0.449575697681,
    0.474572075194,0.499570593655,0.524571259201,0.549574077965,
    0.574579056081,0.599586199681,0.624595514893,0.649607007847,
    0.674620684669,0.699636551483,0.724654614414,0.749674879583,
    0.77469735311,0.799722041115,0.824748949712,0.849778085019,
    0.874809453149,0.899843060213,0.924878912322,0.949917015585,
0.974957376109,1.),.UNSPECIFIED.) GEOMETRIC_REPRESENTATION_ITEM() 
RATIONAL_B_SPLINE_SURFACE((
    (1.,1.000000000001,1.,1.,1.,1.,1.,1.,1.,1.,1.,1.,1.,1.,1.,1.,1.,1.
      ,1.,1.,1.,1.,1.,1.,1.,1.,1.,1.,1.,1.,1.,1.,1.,1.,1.,1.,1.
      ,1.000000000001,0.999999999998,1.000000000007,0.999999999974
      ,1.000000000056,1.)
    ,(1.,1.000000000001,1.,1.,1.,1.,1.,1.,1.,1.,1.,1.,1.,1.,1.,1.,1.,1.
      ,1.,1.,1.,1.,1.,1.,1.,1.,1.,1.,1.,1.,1.,1.,1.,1.,1.,1.,1.
      ,1.000000000001,0.999999999998,1.000000000007,0.999999999974
,1.000000000056,1.))) REPRESENTATION_ITEM('') SURFACE() );
#193 = CARTESIAN_POINT('',(48.,-5.09130770303E-02,1.999351859625));
#194 = CARTESIAN_POINT('',(47.876467096131,12.726253941961,
    2.324367768878));
#195 = CARTESIAN_POINT('',(37.743738872985,37.478993528721,
    2.974399607148));
#196 = CARTESIAN_POINT('',(4.249903744138E-02,53.278603948812,
    3.949407835787));
#197 = CARTESIAN_POINT('',(-37.62511640651,37.706616157081,
    4.924416052026));
#198 = CARTESIAN_POINT('',(-53.30562454202,6.125507870495E-02,
    5.899424271514));
#199 = CARTESIAN_POINT('',(-37.75239873407,-37.67071016341,
    6.874432490056));
#200 = CARTESIAN_POINT('',(-5.779398175193E-02,-53.35958512472,
    7.849440708777));
#201 = CARTESIAN_POINT('',(37.710350135382,-37.79096186987,
    8.824448927376));
#202 = CARTESIAN_POINT('',(53.415141217072,-5.626755315228E-02,
    9.799457145933));
#203 = CARTESIAN_POINT('',(37.829097429288,37.750508574087,
    10.774465364425));
#204 = CARTESIAN_POINT('',(5.485569474382E-02,53.470558370864,
    11.74947358286));
#205 = CARTESIAN_POINT('',(-37.79069772552,37.867270213767,
    12.724481801234));
#206 = CARTESIAN_POINT('',(-53.52596729552,5.34338480202E-02,
    13.699490019549));
#207 = CARTESIAN_POINT('',(-37.90544519554,-37.83088421013,
    14.674498237804));
#208 = CARTESIAN_POINT('',(-5.201139990817E-02,-53.58137693617,
    15.649506455999));
#209 = CARTESIAN_POINT('',(37.871070543344,-37.94361997754,
    16.624514674134));
#210 = CARTESIAN_POINT('',(53.636786618718,-5.058899288225E-02,
    17.599522892209));
#211 = CARTESIAN_POINT('',(37.981794740482,37.911256897262,
    18.574531110223));
#212 = CARTESIAN_POINT('',(4.916657861349E-02,53.692196297009,
    19.549539328176));
#213 = CARTESIAN_POINT('',(-37.95144325885,38.019969496767,
    20.524547546069));
#214 = CARTESIAN_POINT('',(-53.74760597453,4.774415387052E-02,
    21.499555763901));
#215 = CARTESIAN_POINT('',(-38.05814424552,-37.99162962716,
    22.474563981672));
#216 = CARTESIAN_POINT('',(-4.632171900242E-02,-53.80301565154,
    23.449572199381));
#217 = CARTESIAN_POINT('',(38.031816002277,-38.09631898669,
    24.42458041703));
#218 = CARTESIAN_POINT('',(53.858425327776,-4.489927436192E-02,
    25.399588634617));
#219 = CARTESIAN_POINT('',(38.134493721231,38.072002385072,
    26.374596852142));
#220 = CARTESIAN_POINT('',(4.347681664601E-02,53.913834999722,
    27.349605069605));
#221 = CARTESIAN_POINT('',(-38.11218876286,38.172668462325,
    28.324613287007));
#222 = CARTESIAN_POINT('',(-53.96924471452,4.205429695098E-02,
    29.299621504347));
#223 = CARTESIAN_POINT('',(-38.21084303407,-38.15237495275,
    30.274629721624));
#224 = CARTESIAN_POINT('',(-4.063237215398E-02,-54.02465515465,
    31.249637938839));
#225 = CARTESIAN_POINT('',(38.192563406192,-38.24901488917,
    32.224646155992));
#226 = CARTESIAN_POINT('',(54.080057169714,-3.922055047082E-02,
    33.199654373081));
#227 = CARTESIAN_POINT('',(38.287218181959,38.232789612695,
    34.174662590112));
#228 = CARTESIAN_POINT('',(3.769134947944E-02,54.135318293133,
    35.14967080706));
#229 = CARTESIAN_POINT('',(-38.27257773738,38.325947350774,
    36.124679024023));
#230 = CARTESIAN_POINT('',(-54.19221460277,3.419925246854E-02,
    37.099687240631));
#231 = CARTESIAN_POINT('',(-38.3585730915,-38.30503928958,
    38.074695458266));
#232 = CARTESIAN_POINT('',(-5.348849531149E-02,-54.27645776933,
    39.049703671758));
#233 = CARTESIAN_POINT('',(38.422533498088,-38.28912514246,
    40.024711900455));
#234 = CARTESIAN_POINT('',(48.835914210181,-13.06669937165,
    40.674687921405));
#235 = CARTESIAN_POINT('',(49.,-2.545653851521E-02,40.999675929813));
#236 = CARTESIAN_POINT('',(52.,-5.09130770303E-02,1.999351859625));
#237 = CARTESIAN_POINT('',(51.846013763422,13.788649898884,
    2.324367768878));
#238 = CARTESIAN_POINT('',(40.835160231562,40.576450315492,
    2.974399607148));
#239 = CARTESIAN_POINT('',(2.614844061862E-02,57.602740035239,
    3.949407835787));
#240 = CARTESIAN_POINT('',(-40.65188405323,40.712603638997,
    4.924416052026));
#241 = CARTESIAN_POINT('',(-57.51688470816,4.680310522452E-02,
    5.899424271514));
#242 = CARTESIAN_POINT('',(-40.68057810116,-40.61962273585,
    6.874432490056));
#243 = CARTESIAN_POINT('',(-4.319711538593E-02,-57.45988970341,
    7.849440708777));
#244 = CARTESIAN_POINT('',(40.580859966426,-40.6408185375,8.824448927376
    ));
#245 = CARTESIAN_POINT('',(57.404636965315,-4.166374385012E-02,
    9.799457145933));
#246 = CARTESIAN_POINT('',(40.600592099167,40.542652590544,
    10.774465364425));
#247 = CARTESIAN_POINT('',(4.02555241487E-02,57.349235384918,
    11.74947358286));
#248 = CARTESIAN_POINT('',(-40.50447872182,40.560405569881,
    12.724481801234));
#249 = CARTESIAN_POINT('',(-57.29382481853,3.883664719827E-02,
    13.699490019549));
#250 = CARTESIAN_POINT('',(-40.52022147063,-40.46630196579,
    14.674498237804));
#251 = CARTESIAN_POINT('',(-3.741715674508E-02,-57.23841501924,
    15.649506455999));
#252 = CARTESIAN_POINT('',(40.428125013971,-40.48003718777,
    16.624514674134));
#253 = CARTESIAN_POINT('',(57.183005265763,-3.599775322583E-02,
    17.599522892209));
#254 = CARTESIAN_POINT('',(40.439852914622,40.38994805405,
    18.574531110223));
#255 = CARTESIAN_POINT('',(3.457838486279E-02,57.127595507791,
    19.549539328176));
#256 = CARTESIAN_POINT('',(-40.35177107213,40.399668664669,
    20.524547546069));
#257 = CARTESIAN_POINT('',(-57.07218574905,3.315904806371E-02,
    21.499555763901));
#258 = CARTESIAN_POINT('',(-40.35948443693,-40.31359406722,
    22.474563981672));
#259 = CARTESIAN_POINT('',(-3.173974313378E-02,-57.01677598982,
    23.449572199381));
#260 = CARTESIAN_POINT('',(40.275417039462,-40.31930023127,
    24.42458041703));
#261 = CARTESIAN_POINT('',(56.961366229834,-3.032047037854E-02,
    25.399588634617));
#262 = CARTESIAN_POINT('',(40.279116048669,40.237239989823,
    26.374596852142));
#263 = CARTESIAN_POINT('',(2.890122631673E-02,56.905956465382,
    27.349605069605));
#264 = CARTESIAN_POINT('',(-40.19906290523,40.238931902949,
    28.324613287007));
#265 = CARTESIAN_POINT('',(-56.85054674521,2.748195935415E-02,
    29.299621504347));
#266 = CARTESIAN_POINT('',(-40.19874761216,-40.16088559302,
    30.274629721624));
#267 = CARTESIAN_POINT('',(-2.606334869383E-02,-56.79513778841,
    31.249637938839));
#268 = CARTESIAN_POINT('',(40.122710588285,-40.15856049235,
    32.224646155992));
#269 = CARTESIAN_POINT('',(56.739720132658,-2.465541243735E-02,
    33.199654373081));
#270 = CARTESIAN_POINT('',(40.118405862102,40.084575283967,
    34.174662590112));
#271 = CARTESIAN_POINT('',(2.312632233687E-02,56.684154206782,
    35.14967080706));
#272 = CARTESIAN_POINT('',(-40.04598762447,40.078804677899,
    36.124679024023));
#273 = CARTESIAN_POINT('',(-56.63027663351,1.9531581015E-02,
    37.099687240631));
#274 = CARTESIAN_POINT('',(-40.03290164876,-39.99968966878,
    38.074695458266));
#275 = CARTESIAN_POINT('',(-3.945893223358E-02,-56.60517807741,
    39.049703671758));
#276 = CARTESIAN_POINT('',(40.041189085559,-39.87957934078,
    40.024711900455));
#277 = CARTESIAN_POINT('',(50.848154264941,-13.60127285078,
    40.674687921405));
#278 = CARTESIAN_POINT('',(51.,-2.545653851521E-02,40.999675929813));
#279 = DEFINITIONAL_REPRESENTATION('',(#280),#284);
#280 = LINE('',#281,#282);
#281 = CARTESIAN_POINT('',(1.,0.));
#282 = VECTOR('',#283,1.);
#283 = DIRECTION('',(0.,1.));
#284 = ( GEOMETRIC_REPRESENTATION_CONTEXT(2) 
PARAMETRIC_REPRESENTATION_CONTEXT() REPRESENTATION_CONTEXT('2D SPACE',''
  ) );
#285 = ORIENTED_EDGE('',*,*,#286,.F.);
#286 = EDGE_CURVE('',#287,#137,#289,.T.);
#287 = VERTEX_POINT('',#288);
#288 = CARTESIAN_POINT('',(49.,2.545653851509E-02,39.000324070187));
#289 = SURFACE_CURVE('',#290,(#293,#300),.PCURVE_S1.);
#290 = B_SPLINE_CURVE_WITH_KNOTS('',1,(#291,#292),.UNSPECIFIED.,.F.,.F.,
  (2,2),(0.,1.),.PIECEWISE_BEZIER_KNOTS.);
#291 = CARTESIAN_POINT('',(49.,2.545653851509E-02,39.000324070187));
#292 = CARTESIAN_POINT('',(49.,-2.545653851521E-02,40.999675929813));
#293 = PCURVE('',#31,#294);
#294 = DEFINITIONAL_REPRESENTATION('',(#295),#299);
#295 = LINE('',#296,#297);
#296 = CARTESIAN_POINT('',(0.,1.));
#297 = VECTOR('',#298,1.);
#298 = DIRECTION('',(1.,0.));
#299 = ( GEOMETRIC_REPRESENTATION_CONTEXT(2) 
PARAMETRIC_REPRESENTATION_CONTEXT() REPRESENTATION_CONTEXT('2D SPACE',''
  ) );
#300 = PCURVE('',#301,#306);
#301 = PLANE('',#302);
#302 = AXIS2_PLACEMENT_3D('',#303,#304,#305);
#303 = CARTESIAN_POINT('',(49.,2.545653851509E-02,39.000324070187));
#304 = DIRECTION('',(-1.21682165548E-15,-0.999675929813,
    -2.545653851515E-02));
#305 = DIRECTION('',(0.707106781187,-1.80004910096E-02,0.70687762896));
#306 = DEFINITIONAL_REPRESENTATION('',(#307),#310);
#307 = B_SPLINE_CURVE_WITH_KNOTS('',1,(#308,#309),.UNSPECIFIED.,.F.,.F.,
  (2,2),(0.,1.),.PIECEWISE_BEZIER_KNOTS.);
#308 = CARTESIAN_POINT('',(0.,0.));
#309 = CARTESIAN_POINT('',(1.414213562373,1.414213562373));
#310 = ( GEOMETRIC_REPRESENTATION_CONTEXT(2) 
PARAMETRIC_REPRESENTATION_CONTEXT() REPRESENTATION_CONTEXT('2D SPACE',''
  ) );
#311 = ORIENTED_EDGE('',*,*,#312,.F.);
#312 = EDGE_CURVE('',#22,#287,#313,.T.);
#313 = SURFACE_CURVE('',#314,(#358,#365),.PCURVE_S1.);
#314 = ( BOUNDED_CURVE() B_SPLINE_CURVE(3,(#315,#316,#317,#318,#319,#320
    ,#321,#322,#323,#324,#325,#326,#327,#328,#329,#330,#331,#332,#333,
    #334,#335,#336,#337,#338,#339,#340,#341,#342,#343,#344,#345,#346,
    #347,#348,#349,#350,#351,#352,#353,#354,#355,#356,#357),
.UNSPECIFIED.,.F.,.F.) B_SPLINE_CURVE_WITH_KNOTS((4,1,1,1,1,1,1,1,1,1,1,
    1,1,1,1,1,1,1,1,1,1,1,1,1,1,1,1,1,1,1,1,1,1,1,1,1,1,1,1,1,4),(0.,
    2.495889150782E-02,4.991981324718E-02,7.488277138203E-02,
    9.984777207476E-02,0.124814821486,0.149783925776,0.174755091102,
    0.19972832362,0.224703629485,0.249681014851,0.274660485869,
    0.29964204869,0.324625709462,0.349611474331,0.374599349445,
    0.399589340946,0.424581454978,0.449575697681,0.474572075194,
    0.499570593655,0.524571259201,0.549574077965,0.574579056081,
    0.599586199681,0.624595514893,0.649607007847,0.674620684669,
    0.699636551483,0.724654614414,0.749674879583,0.77469735311,
    0.799722041115,0.824748949712,0.849778085019,0.874809453149,
    0.899843060213,0.924878912322,0.949917015585,0.974957376109,1.),
.UNSPECIFIED.) CURVE() GEOMETRIC_REPRESENTATION_ITEM() 
RATIONAL_B_SPLINE_CURVE((1.,1.000000000001,1.,1.,1.,1.,1.,1.,1.,1.,1.,1.
    ,1.,1.,1.,1.,1.,1.,1.,1.,1.,1.,1.,1.,1.,1.,1.,1.,1.,1.,1.,1.,1.,1.,
    1.,1.,1.,1.000000000001,0.999999999998,1.000000000007,0.999999999974
,1.000000000056,1.)) REPRESENTATION_ITEM('') );
#315 = CARTESIAN_POINT('',(48.,5.09130770303E-02,-1.999351859625));
#316 = CARTESIAN_POINT('',(47.849422170814,12.827304859511,
    -1.657674007602));
#317 = CARTESIAN_POINT('',(37.664888345792,37.557690415636,
    -0.974318283233));
#318 = CARTESIAN_POINT('',(-6.757849960155E-02,53.278187719205,
    5.067374847971E-02));
#319 = CARTESIAN_POINT('',(-37.70163844256,37.629565129908,
    1.075665767057));
#320 = CARTESIAN_POINT('',(-53.30525664481,-4.594902791255E-02,
    2.100657789077));
#321 = CARTESIAN_POINT('',(-37.67732962759,-37.74525147425,
    3.125649810095));
#322 = CARTESIAN_POINT('',(4.65855796783E-02,-53.35921353903,
    4.150641831304));
#323 = CARTESIAN_POINT('',(37.782897621404,-37.7178886258,5.175633852383
    ));
#324 = CARTESIAN_POINT('',(53.414769454638,4.529119901888E-02,
    6.200625873418));
#325 = CARTESIAN_POINT('',(37.758019107593,37.821061234895,
    7.225617894386));
#326 = CARTESIAN_POINT('',(-4.388199605227E-02,53.470186701059,
    8.250609915293));
#327 = CARTESIAN_POINT('',(-37.85925562944,37.798186743313,
    9.275601936136));
#328 = CARTESIAN_POINT('',(-53.52559570131,-4.248276213391E-02,
    10.300593956917));
#329 = CARTESIAN_POINT('',(-37.83835658194,-37.89744736308,
    11.325585977636));
#330 = CARTESIAN_POINT('',(4.108413090472E-02,-53.58100541726,
    12.350577998291));
#331 = CARTESIAN_POINT('',(37.935638945747,-37.87852622193,
    13.375570018882));
#332 = CARTESIAN_POINT('',(53.636415176264,3.968545868937E-02,
    14.400562039411));
#333 = CARTESIAN_POINT('',(37.918695843582,37.973830549845,
    15.425554059875));
#334 = CARTESIAN_POINT('',(-3.828679371066E-02,53.691824932093,
    16.450546080276));
#335 = CARTESIAN_POINT('',(-38.01202216237,37.95886545934,
    17.475538100614));
#336 = CARTESIAN_POINT('',(-53.74723468822,-3.688813920621E-02,
    18.500530120887));
#337 = CARTESIAN_POINT('',(-37.99903506832,-38.05021378238,
    19.525522141096));
#338 = CARTESIAN_POINT('',(3.548949482747E-02,-53.80264444491,
    20.550514161241));
#339 = CARTESIAN_POINT('',(38.088405409948,-38.03920467047,
    21.575506181321));
#340 = CARTESIAN_POINT('',(53.858054201891,3.409086022156E-02,
    22.600498201337));
#341 = CARTESIAN_POINT('',(38.079374266751,38.126597045951,
    23.625490221287));
#342 = CARTESIAN_POINT('',(-3.269223868657E-02,53.913463955646,
    24.650482241173));
#343 = CARTESIAN_POINT('',(-38.16478867772,38.119543870344,
    25.675474260994));
#344 = CARTESIAN_POINT('',(-53.96887375325,-3.129367916715E-02,
    26.70046628075));
#345 = CARTESIAN_POINT('',(-38.15971330559,-38.2029801222,27.72545830044
    ));
#346 = CARTESIAN_POINT('',(2.989452571801E-02,-54.02428427774,
    28.750450320065));
#347 = CARTESIAN_POINT('',(38.241173827386,-38.19988002308,
    29.775442339624));
#348 = CARTESIAN_POINT('',(54.079686391717,2.848526218214E-02,
    30.800434359117));
#349 = CARTESIAN_POINT('',(38.240078128695,38.279405312405,
    31.825426378548));
#350 = CARTESIAN_POINT('',(-2.719319012176E-02,54.134947517951,
    32.850418397895));
#351 = CARTESIAN_POINT('',(-38.31719941745,38.280802473708,
    33.875410417243));
#352 = CARTESIAN_POINT('',(-54.19184121458,-2.786536762194E-02,
    34.900402436273));
#353 = CARTESIAN_POINT('',(-38.31543315902,-38.3476618986,
    35.925394456177));
#354 = CARTESIAN_POINT('',(5.792663560689E-03,-54.27610062665,
    36.950386472493));
#355 = CARTESIAN_POINT('',(38.463020954186,-38.24791976881,
    37.97537850193));
#356 = CARTESIAN_POINT('',(48.849522605841,-13.01547471672,
    38.658675553316));
#357 = CARTESIAN_POINT('',(49.,2.545653851509E-02,39.000324070187));
#358 = PCURVE('',#31,#359);
#359 = DEFINITIONAL_REPRESENTATION('',(#360),#364);
#360 = LINE('',#361,#362);
#361 = CARTESIAN_POINT('',(0.,0.));
#362 = VECTOR('',#363,1.);
#363 = DIRECTION('',(0.,1.));
#364 = ( GEOMETRIC_REPRESENTATION_CONTEXT(2) 
PARAMETRIC_REPRESENTATION_CONTEXT() REPRESENTATION_CONTEXT('2D SPACE',''
  ) );
#365 = PCURVE('',#366,#453);
#366 = ( BOUNDED_SURFACE() B_SPLINE_SURFACE(1,3,(
    (#367,#368,#369,#370,#371,#372,#373,#374,#375,#376,#377,#378,#379
      ,#380,#381,#382,#383,#384,#385,#386,#387,#388,#389,#390,#391,#392
      ,#393,#394,#395,#396,#397,#398,#399,#400,#401,#402,#403,#404,#405
      ,#406,#407,#408,#409)
    ,(#410,#411,#412,#413,#414,#415,#416,#417,#418,#419,#420,#421,#422
      ,#423,#424,#425,#426,#427,#428,#429,#430,#431,#432,#433,#434,#435
      ,#436,#437,#438,#439,#440,#441,#442,#443,#444,#445,#446,#447,#448
      ,#449,#450,#451,#452
)),.UNSPECIFIED.,.F.,.F.,.F.) B_SPLINE_SURFACE_WITH_KNOTS((2,2),(4,1,1,1
    ,1,1,1,1,1,1,1,1,1,1,1,1,1,1,1,1,1,1,1,1,1,1,1,1,1,1,1,1,1,1,1,1,1,1
    ,1,1,4),(3.,4.),(0.,2.495889150782E-02,4.991981324718E-02,
    7.488277138203E-02,9.984777207476E-02,0.124814821486,0.149783925776,
    0.174755091102,0.19972832362,0.224703629485,0.249681014851,
    0.274660485869,0.29964204869,0.324625709462,0.349611474331,
    0.374599349445,0.399589340946,0.424581454978,0.449575697681,
    0.474572075194,0.499570593655,0.524571259201,0.549574077965,
    0.574579056081,0.599586199681,0.624595514893,0.649607007847,
    0.674620684669,0.699636551483,0.724654614414,0.749674879583,
    0.77469735311,0.799722041115,0.824748949712,0.849778085019,
    0.874809453149,0.899843060213,0.924878912322,0.949917015585,
0.974957376109,1.),.UNSPECIFIED.) GEOMETRIC_REPRESENTATION_ITEM() 
RATIONAL_B_SPLINE_SURFACE((
    (1.,1.000000000001,1.,1.,1.,1.,1.,1.,1.,1.,1.,1.,1.,1.,1.,1.,1.,1.
      ,1.,1.,1.,1.,1.,1.,1.,1.,1.,1.,1.,1.,1.,1.,1.,1.,1.,1.,1.
      ,1.000000000001,0.999999999998,1.000000000007,0.999999999974
      ,1.000000000056,1.)
    ,(1.,1.000000000001,1.,1.,1.,1.,1.,1.,1.,1.,1.,1.,1.,1.,1.,1.,1.,1.
      ,1.,1.,1.,1.,1.,1.,1.,1.,1.,1.,1.,1.,1.,1.,1.,1.,1.,1.,1.
      ,1.000000000001,0.999999999998,1.000000000007,0.999999999974
,1.000000000056,1.))) REPRESENTATION_ITEM('') SURFACE() );
#367 = CARTESIAN_POINT('',(52.,5.09130770303E-02,-1.999351859625));
#368 = CARTESIAN_POINT('',(51.818968838228,13.889700819204,
    -1.657674007602));
#369 = CARTESIAN_POINT('',(40.756309704312,40.655147201122,
    -0.974318283233));
#370 = CARTESIAN_POINT('',(-8.392909640902E-02,57.602323805977,
    5.067374847971E-02));
#371 = CARTESIAN_POINT('',(-40.72840608928,40.635552611732,
    1.075665767057));
#372 = CARTESIAN_POINT('',(-57.51651681096,-6.040100136823E-02,
    2.100657789077));
#373 = CARTESIAN_POINT('',(-40.60550899468,-40.69416404669,
    3.125649810095));
#374 = CARTESIAN_POINT('',(6.118244604438E-02,-57.45951811772,
    4.150641831304));
#375 = CARTESIAN_POINT('',(40.653407452449,-40.56774529343,
    5.175633852383));
#376 = CARTESIAN_POINT('',(57.404265202881,5.989500832115E-02,
    6.200625873418));
#377 = CARTESIAN_POINT('',(40.529513777473,40.613205251353,
    7.225617894386));
#378 = CARTESIAN_POINT('',(-5.848216664738E-02,57.348863715113,
    8.250609915293));
#379 = CARTESIAN_POINT('',(-40.57303662574,40.491322099427,
    9.275601936136));
#380 = CARTESIAN_POINT('',(-57.29345322432,-5.707996295585E-02,
    10.300593956917));
#381 = CARTESIAN_POINT('',(-40.45313285702,-40.53286511874,
    11.325585977636));
#382 = CARTESIAN_POINT('',(5.567837406785E-02,-57.23804350033,
    12.350577998291));
#383 = CARTESIAN_POINT('',(40.492693416374,-40.41494343215,
    13.375570018882));
#384 = CARTESIAN_POINT('',(57.182633823308,5.427669834575E-02,
    14.400562039411));
#385 = CARTESIAN_POINT('',(40.376754017722,40.452521706632,
    15.425554059875));
#386 = CARTESIAN_POINT('',(-5.287498746138E-02,57.127224142875,
    16.450546080276));
#387 = CARTESIAN_POINT('',(-40.41234997565,40.338564627242,
    17.475538100614));
#388 = CARTESIAN_POINT('',(-57.07181446274,-5.147324501304E-02,
    18.500530120887));
#389 = CARTESIAN_POINT('',(-40.30037525973,-40.37217822244,
    19.525522141096));
#390 = CARTESIAN_POINT('',(5.007147069612E-02,-57.01640478319,
    20.550514161241));
#391 = CARTESIAN_POINT('',(40.332006447134,-40.26218591506,
    21.575506181321));
#392 = CARTESIAN_POINT('',(56.960995103948,4.866966420492E-02,
    22.600498201337));
#393 = CARTESIAN_POINT('',(40.223996594189,40.291834650702,
    23.625490221287));
#394 = CARTESIAN_POINT('',(-4.726782901583E-02,56.905585421305,
    24.650482241173));
#395 = CARTESIAN_POINT('',(-40.25166282009,40.185807310967,
    25.675474260994));
#396 = CARTESIAN_POINT('',(-56.85017578394,-4.5866016764E-02,
    26.70046628075));
#397 = CARTESIAN_POINT('',(-40.14761788369,-40.21149076248,
    27.72545830044));
#398 = CARTESIAN_POINT('',(4.446354917813E-02,-56.79476691151,
    28.750450320065));
#399 = CARTESIAN_POINT('',(40.171321009479,-40.10942562627,
    29.775442339624));
#400 = CARTESIAN_POINT('',(56.73934935466,4.30504002161E-02,
    30.800434359117));
#401 = CARTESIAN_POINT('',(40.07126580884,40.131190983675,
    31.825426378548));
#402 = CARTESIAN_POINT('',(-4.175821727088E-02,56.683783431607,
    32.850418397895));
#403 = CARTESIAN_POINT('',(-40.09060930452,40.033659800806,
    33.875410417243));
#404 = CARTESIAN_POINT('',(-56.62990324541,-4.253303897778E-02,
    34.900402436273));
#405 = CARTESIAN_POINT('',(-39.98976171595,-40.04231227817,
    35.925394456177));
#406 = CARTESIAN_POINT('',(1.982222537052E-02,-56.60482093336,
    36.950386472493));
#407 = CARTESIAN_POINT('',(40.08167654639,-39.83837397221,37.97537850193
    ));
#408 = CARTESIAN_POINT('',(50.8617626504,-13.5500481849,38.658675553316)
  );
#409 = CARTESIAN_POINT('',(51.,2.545653851509E-02,39.000324070187));
#410 = CARTESIAN_POINT('',(48.,5.09130770303E-02,-1.999351859625));
#411 = CARTESIAN_POINT('',(47.849422170814,12.827304859511,
    -1.657674007602));
#412 = CARTESIAN_POINT('',(37.664888345792,37.557690415636,
    -0.974318283233));
#413 = CARTESIAN_POINT('',(-6.757849960155E-02,53.278187719205,
    5.067374847971E-02));
#414 = CARTESIAN_POINT('',(-37.70163844256,37.629565129908,
    1.075665767057));
#415 = CARTESIAN_POINT('',(-53.30525664481,-4.594902791255E-02,
    2.100657789077));
#416 = CARTESIAN_POINT('',(-37.67732962759,-37.74525147425,
    3.125649810095));
#417 = CARTESIAN_POINT('',(4.65855796783E-02,-53.35921353903,
    4.150641831304));
#418 = CARTESIAN_POINT('',(37.782897621404,-37.7178886258,5.175633852383
    ));
#419 = CARTESIAN_POINT('',(53.414769454638,4.529119901888E-02,
    6.200625873418));
#420 = CARTESIAN_POINT('',(37.758019107593,37.821061234895,
    7.225617894386));
#421 = CARTESIAN_POINT('',(-4.388199605227E-02,53.470186701059,
    8.250609915293));
#422 = CARTESIAN_POINT('',(-37.85925562944,37.798186743313,
    9.275601936136));
#423 = CARTESIAN_POINT('',(-53.52559570131,-4.248276213391E-02,
    10.300593956917));
#424 = CARTESIAN_POINT('',(-37.83835658194,-37.89744736308,
    11.325585977636));
#425 = CARTESIAN_POINT('',(4.108413090472E-02,-53.58100541726,
    12.350577998291));
#426 = CARTESIAN_POINT('',(37.935638945747,-37.87852622193,
    13.375570018882));
#427 = CARTESIAN_POINT('',(53.636415176264,3.968545868937E-02,
    14.400562039411));
#428 = CARTESIAN_POINT('',(37.918695843582,37.973830549845,
    15.425554059875));
#429 = CARTESIAN_POINT('',(-3.828679371066E-02,53.691824932093,
    16.450546080276));
#430 = CARTESIAN_POINT('',(-38.01202216237,37.95886545934,
    17.475538100614));
#431 = CARTESIAN_POINT('',(-53.74723468822,-3.688813920621E-02,
    18.500530120887));
#432 = CARTESIAN_POINT('',(-37.99903506832,-38.05021378238,
    19.525522141096));
#433 = CARTESIAN_POINT('',(3.548949482747E-02,-53.80264444491,
    20.550514161241));
#434 = CARTESIAN_POINT('',(38.088405409948,-38.03920467047,
    21.575506181321));
#435 = CARTESIAN_POINT('',(53.858054201891,3.409086022156E-02,
    22.600498201337));
#436 = CARTESIAN_POINT('',(38.079374266751,38.126597045951,
    23.625490221287));
#437 = CARTESIAN_POINT('',(-3.269223868657E-02,53.913463955646,
    24.650482241173));
#438 = CARTESIAN_POINT('',(-38.16478867772,38.119543870344,
    25.675474260994));
#439 = CARTESIAN_POINT('',(-53.96887375325,-3.129367916715E-02,
    26.70046628075));
#440 = CARTESIAN_POINT('',(-38.15971330559,-38.2029801222,27.72545830044
    ));
#441 = CARTESIAN_POINT('',(2.989452571801E-02,-54.02428427774,
    28.750450320065));
#442 = CARTESIAN_POINT('',(38.241173827386,-38.19988002308,
    29.775442339624));
#443 = CARTESIAN_POINT('',(54.079686391717,2.848526218214E-02,
    30.800434359117));
#444 = CARTESIAN_POINT('',(38.240078128695,38.279405312405,
    31.825426378548));
#445 = CARTESIAN_POINT('',(-2.719319012176E-02,54.134947517951,
    32.850418397895));
#446 = CARTESIAN_POINT('',(-38.31719941745,38.280802473708,
    33.875410417243));
#447 = CARTESIAN_POINT('',(-54.19184121458,-2.786536762194E-02,
    34.900402436273));
#448 = CARTESIAN_POINT('',(-38.31543315902,-38.3476618986,
    35.925394456177));
#449 = CARTESIAN_POINT('',(5.792663560689E-03,-54.27610062665,
    36.950386472493));
#450 = CARTESIAN_POINT('',(38.463020954186,-38.24791976881,
    37.97537850193));
#451 = CARTESIAN_POINT('',(48.849522605841,-13.01547471672,
    38.658675553316));
#452 = CARTESIAN_POINT('',(49.,2.545653851509E-02,39.000324070187));
#453 = DEFINITIONAL_REPRESENTATION('',(#454),#458);
#454 = LINE('',#455,#456);
#455 = CARTESIAN_POINT('',(4.,0.));
#456 = VECTOR('',#457,1.);
#457 = DIRECTION('',(0.,1.));
#458 = ( GEOMETRIC_REPRESENTATION_CONTEXT(2) 
PARAMETRIC_REPRESENTATION_CONTEXT() REPRESENTATION_CONTEXT('2D SPACE',''
  ) );
#459 = ADVANCED_FACE('',(#460),#192,.T.);
#460 = FACE_BOUND('',#461,.T.);
#461 = EDGE_LOOP('',(#462,#483,#633,#652));
#462 = ORIENTED_EDGE('',*,*,#463,.T.);
#463 = EDGE_CURVE('',#24,#464,#466,.T.);
#464 = VERTEX_POINT('',#465);
#465 = CARTESIAN_POINT('',(52.,-5.09130770303E-02,1.999351859625));
#466 = SURFACE_CURVE('',#467,(#470,#477),.PCURVE_S1.);
#467 = B_SPLINE_CURVE_WITH_KNOTS('',1,(#468,#469),.UNSPECIFIED.,.F.,.F.,
  (2,2),(1.,2.),.PIECEWISE_BEZIER_KNOTS.);
#468 = CARTESIAN_POINT('',(48.,-5.09130770303E-02,1.999351859625));
#469 = CARTESIAN_POINT('',(52.,-5.09130770303E-02,1.999351859625));
#470 = PCURVE('',#192,#471);
#471 = DEFINITIONAL_REPRESENTATION('',(#472),#476);
#472 = LINE('',#473,#474);
#473 = CARTESIAN_POINT('',(0.,0.));
#474 = VECTOR('',#475,1.);
#475 = DIRECTION('',(1.,0.));
#476 = ( GEOMETRIC_REPRESENTATION_CONTEXT(2) 
PARAMETRIC_REPRESENTATION_CONTEXT() REPRESENTATION_CONTEXT('2D SPACE',''
  ) );
#477 = PCURVE('',#125,#478);
#478 = DEFINITIONAL_REPRESENTATION('',(#479),#482);
#479 = B_SPLINE_CURVE_WITH_KNOTS('',1,(#480,#481),.UNSPECIFIED.,.F.,.F.,
  (2,2),(1.,2.),.PIECEWISE_BEZIER_KNOTS.);
#480 = CARTESIAN_POINT('',(2.828427124746,2.828427124746));
#481 = CARTESIAN_POINT('',(5.656854249492,-7.105427357601E-15));
#482 = ( GEOMETRIC_REPRESENTATION_CONTEXT(2) 
PARAMETRIC_REPRESENTATION_CONTEXT() REPRESENTATION_CONTEXT('2D SPACE',''
  ) );
#483 = ORIENTED_EDGE('',*,*,#484,.T.);
#484 = EDGE_CURVE('',#464,#485,#487,.T.);
#485 = VERTEX_POINT('',#486);
#486 = CARTESIAN_POINT('',(51.,-2.545653851521E-02,40.999675929813));
#487 = SURFACE_CURVE('',#488,(#532,#539),.PCURVE_S1.);
#488 = ( BOUNDED_CURVE() B_SPLINE_CURVE(3,(#489,#490,#491,#492,#493,#494
    ,#495,#496,#497,#498,#499,#500,#501,#502,#503,#504,#505,#506,#507,
    #508,#509,#510,#511,#512,#513,#514,#515,#516,#517,#518,#519,#520,
    #521,#522,#523,#524,#525,#526,#527,#528,#529,#530,#531),
.UNSPECIFIED.,.F.,.F.) B_SPLINE_CURVE_WITH_KNOTS((4,1,1,1,1,1,1,1,1,1,1,
    1,1,1,1,1,1,1,1,1,1,1,1,1,1,1,1,1,1,1,1,1,1,1,1,1,1,1,1,1,4),(0.,
    2.495889150782E-02,4.991981324718E-02,7.488277138203E-02,
    9.984777207476E-02,0.124814821486,0.149783925776,0.174755091102,
    0.19972832362,0.224703629485,0.249681014851,0.274660485869,
    0.29964204869,0.324625709462,0.349611474331,0.374599349445,
    0.399589340946,0.424581454978,0.449575697681,0.474572075194,
    0.499570593655,0.524571259201,0.549574077965,0.574579056081,
    0.599586199681,0.624595514893,0.649607007847,0.674620684669,
    0.699636551483,0.724654614414,0.749674879583,0.77469735311,
    0.799722041115,0.824748949712,0.849778085019,0.874809453149,
    0.899843060213,0.924878912322,0.949917015585,0.974957376109,1.),
.UNSPECIFIED.) CURVE() GEOMETRIC_REPRESENTATION_ITEM() 
RATIONAL_B_SPLINE_CURVE((1.,1.000000000001,1.,1.,1.,1.,1.,1.,1.,1.,1.,1.
    ,1.,1.,1.,1.,1.,1.,1.,1.,1.,1.,1.,1.,1.,1.,1.,1.,1.,1.,1.,1.,1.,1.,
    1.,1.,1.,1.000000000001,0.999999999998,1.000000000007,0.999999999974
,1.000000000056,1.)) REPRESENTATION_ITEM('') );
#489 = CARTESIAN_POINT('',(52.,-5.09130770303E-02,1.999351859625));
#490 = CARTESIAN_POINT('',(51.846013763422,13.788649898884,
    2.324367768878));
#491 = CARTESIAN_POINT('',(40.835160231562,40.576450315492,
    2.974399607148));
#492 = CARTESIAN_POINT('',(2.614844061862E-02,57.602740035239,
    3.949407835787));
#493 = CARTESIAN_POINT('',(-40.65188405323,40.712603638997,
    4.924416052026));
#494 = CARTESIAN_POINT('',(-57.51688470816,4.680310522452E-02,
    5.899424271514));
#495 = CARTESIAN_POINT('',(-40.68057810116,-40.61962273585,
    6.874432490056));
#496 = CARTESIAN_POINT('',(-4.319711538593E-02,-57.45988970341,
    7.849440708777));
#497 = CARTESIAN_POINT('',(40.580859966426,-40.6408185375,8.824448927376
    ));
#498 = CARTESIAN_POINT('',(57.404636965315,-4.166374385012E-02,
    9.799457145933));
#499 = CARTESIAN_POINT('',(40.600592099167,40.542652590544,
    10.774465364425));
#500 = CARTESIAN_POINT('',(4.02555241487E-02,57.349235384918,
    11.74947358286));
#501 = CARTESIAN_POINT('',(-40.50447872182,40.560405569881,
    12.724481801234));
#502 = CARTESIAN_POINT('',(-57.29382481853,3.883664719827E-02,
    13.699490019549));
#503 = CARTESIAN_POINT('',(-40.52022147063,-40.46630196579,
    14.674498237804));
#504 = CARTESIAN_POINT('',(-3.741715674508E-02,-57.23841501924,
    15.649506455999));
#505 = CARTESIAN_POINT('',(40.428125013971,-40.48003718777,
    16.624514674134));
#506 = CARTESIAN_POINT('',(57.183005265763,-3.599775322583E-02,
    17.599522892209));
#507 = CARTESIAN_POINT('',(40.439852914622,40.38994805405,
    18.574531110223));
#508 = CARTESIAN_POINT('',(3.457838486279E-02,57.127595507791,
    19.549539328176));
#509 = CARTESIAN_POINT('',(-40.35177107213,40.399668664669,
    20.524547546069));
#510 = CARTESIAN_POINT('',(-57.07218574905,3.315904806371E-02,
    21.499555763901));
#511 = CARTESIAN_POINT('',(-40.35948443693,-40.31359406722,
    22.474563981672));
#512 = CARTESIAN_POINT('',(-3.173974313378E-02,-57.01677598982,
    23.449572199381));
#513 = CARTESIAN_POINT('',(40.275417039462,-40.31930023127,
    24.42458041703));
#514 = CARTESIAN_POINT('',(56.961366229834,-3.032047037854E-02,
    25.399588634617));
#515 = CARTESIAN_POINT('',(40.279116048669,40.237239989823,
    26.374596852142));
#516 = CARTESIAN_POINT('',(2.890122631673E-02,56.905956465382,
    27.349605069605));
#517 = CARTESIAN_POINT('',(-40.19906290523,40.238931902949,
    28.324613287007));
#518 = CARTESIAN_POINT('',(-56.85054674521,2.748195935415E-02,
    29.299621504347));
#519 = CARTESIAN_POINT('',(-40.19874761216,-40.16088559302,
    30.274629721624));
#520 = CARTESIAN_POINT('',(-2.606334869383E-02,-56.79513778841,
    31.249637938839));
#521 = CARTESIAN_POINT('',(40.122710588285,-40.15856049235,
    32.224646155992));
#522 = CARTESIAN_POINT('',(56.739720132658,-2.465541243735E-02,
    33.199654373081));
#523 = CARTESIAN_POINT('',(40.118405862102,40.084575283967,
    34.174662590112));
#524 = CARTESIAN_POINT('',(2.312632233687E-02,56.684154206782,
    35.14967080706));
#525 = CARTESIAN_POINT('',(-40.04598762447,40.078804677899,
    36.124679024023));
#526 = CARTESIAN_POINT('',(-56.63027663351,1.9531581015E-02,
    37.099687240631));
#527 = CARTESIAN_POINT('',(-40.03290164876,-39.99968966878,
    38.074695458266));
#528 = CARTESIAN_POINT('',(-3.945893223358E-02,-56.60517807741,
    39.049703671758));
#529 = CARTESIAN_POINT('',(40.041189085559,-39.87957934078,
    40.024711900455));
#530 = CARTESIAN_POINT('',(50.848154264941,-13.60127285078,
    40.674687921405));
#531 = CARTESIAN_POINT('',(51.,-2.545653851521E-02,40.999675929813));
#532 = PCURVE('',#192,#533);
#533 = DEFINITIONAL_REPRESENTATION('',(#534),#538);
#534 = LINE('',#535,#536);
#535 = CARTESIAN_POINT('',(2.,0.));
#536 = VECTOR('',#537,1.);
#537 = DIRECTION('',(0.,1.));
#538 = ( GEOMETRIC_REPRESENTATION_CONTEXT(2) 
PARAMETRIC_REPRESENTATION_CONTEXT() REPRESENTATION_CONTEXT('2D SPACE',''
  ) );
#539 = PCURVE('',#540,#627);
#540 = ( BOUNDED_SURFACE() B_SPLINE_SURFACE(1,3,(
    (#541,#542,#543,#544,#545,#546,#547,#548,#549,#550,#551,#552,#553
      ,#554,#555,#556,#557,#558,#559,#560,#561,#562,#563,#564,#565,#566
      ,#567,#568,#569,#570,#571,#572,#573,#574,#575,#576,#577,#578,#579
      ,#580,#581,#582,#583)
    ,(#584,#585,#586,#587,#588,#589,#590,#591,#592,#593,#594,#595,#596
      ,#597,#598,#599,#600,#601,#602,#603,#604,#605,#606,#607,#608,#609
      ,#610,#611,#612,#613,#614,#615,#616,#617,#618,#619,#620,#621,#622
      ,#623,#624,#625,#626
)),.UNSPECIFIED.,.F.,.F.,.F.) B_SPLINE_SURFACE_WITH_KNOTS((2,2),(4,1,1,1
    ,1,1,1,1,1,1,1,1,1,1,1,1,1,1,1,1,1,1,1,1,1,1,1,1,1,1,1,1,1,1,1,1,1,1
    ,1,1,4),(2.,3.),(0.,2.495889150782E-02,4.991981324718E-02,
    7.488277138203E-02,9.984777207476E-02,0.124814821486,0.149783925776,
    0.174755091102,0.19972832362,0.224703629485,0.249681014851,
    0.274660485869,0.29964204869,0.324625709462,0.349611474331,
    0.374599349445,0.399589340946,0.424581454978,0.449575697681,
    0.474572075194,0.499570593655,0.524571259201,0.549574077965,
    0.574579056081,0.599586199681,0.624595514893,0.649607007847,
    0.674620684669,0.699636551483,0.724654614414,0.749674879583,
    0.77469735311,0.799722041115,0.824748949712,0.849778085019,
    0.874809453149,0.899843060213,0.924878912322,0.949917015585,
0.974957376109,1.),.UNSPECIFIED.) GEOMETRIC_REPRESENTATION_ITEM() 
RATIONAL_B_SPLINE_SURFACE((
    (1.,1.000000000001,1.,1.,1.,1.,1.,1.,1.,1.,1.,1.,1.,1.,1.,1.,1.,1.
      ,1.,1.,1.,1.,1.,1.,1.,1.,1.,1.,1.,1.,1.,1.,1.,1.,1.,1.,1.
      ,1.000000000001,0.999999999998,1.000000000007,0.999999999974
      ,1.000000000056,1.)
    ,(1.,1.000000000001,1.,1.,1.,1.,1.,1.,1.,1.,1.,1.,1.,1.,1.,1.,1.,1.
      ,1.,1.,1.,1.,1.,1.,1.,1.,1.,1.,1.,1.,1.,1.,1.,1.,1.,1.,1.
      ,1.000000000001,0.999999999998,1.000000000007,0.999999999974
,1.000000000056,1.))) REPRESENTATION_ITEM('') SURFACE() );
#541 = CARTESIAN_POINT('',(52.,-5.09130770303E-02,1.999351859625));
#542 = CARTESIAN_POINT('',(51.846013763422,13.788649898884,
    2.324367768878));
#543 = CARTESIAN_POINT('',(40.835160231562,40.576450315492,
    2.974399607148));
#544 = CARTESIAN_POINT('',(2.614844061862E-02,57.602740035239,
    3.949407835787));
#545 = CARTESIAN_POINT('',(-40.65188405323,40.712603638997,
    4.924416052026));
#546 = CARTESIAN_POINT('',(-57.51688470816,4.680310522452E-02,
    5.899424271514));
#547 = CARTESIAN_POINT('',(-40.68057810116,-40.61962273585,
    6.874432490056));
#548 = CARTESIAN_POINT('',(-4.319711538593E-02,-57.45988970341,
    7.849440708777));
#549 = CARTESIAN_POINT('',(40.580859966426,-40.6408185375,8.824448927376
    ));
#550 = CARTESIAN_POINT('',(57.404636965315,-4.166374385012E-02,
    9.799457145933));
#551 = CARTESIAN_POINT('',(40.600592099167,40.542652590544,
    10.774465364425));
#552 = CARTESIAN_POINT('',(4.02555241487E-02,57.349235384918,
    11.74947358286));
#553 = CARTESIAN_POINT('',(-40.50447872182,40.560405569881,
    12.724481801234));
#554 = CARTESIAN_POINT('',(-57.29382481853,3.883664719827E-02,
    13.699490019549));
#555 = CARTESIAN_POINT('',(-40.52022147063,-40.46630196579,
    14.674498237804));
#556 = CARTESIAN_POINT('',(-3.741715674508E-02,-57.23841501924,
    15.649506455999));
#557 = CARTESIAN_POINT('',(40.428125013971,-40.48003718777,
    16.624514674134));
#558 = CARTESIAN_POINT('',(57.183005265763,-3.599775322583E-02,
    17.599522892209));
#559 = CARTESIAN_POINT('',(40.439852914622,40.38994805405,
    18.574531110223));
#560 = CARTESIAN_POINT('',(3.457838486279E-02,57.127595507791,
    19.549539328176));
#561 = CARTESIAN_POINT('',(-40.35177107213,40.399668664669,
    20.524547546069));
#562 = CARTESIAN_POINT('',(-57.07218574905,3.315904806371E-02,
    21.499555763901));
#563 = CARTESIAN_POINT('',(-40.35948443693,-40.31359406722,
    22.474563981672));
#564 = CARTESIAN_POINT('',(-3.173974313378E-02,-57.01677598982,
    23.449572199381));
#565 = CARTESIAN_POINT('',(40.275417039462,-40.31930023127,
    24.42458041703));
#566 = CARTESIAN_POINT('',(56.961366229834,-3.032047037854E-02,
    25.399588634617));
#567 = CARTESIAN_POINT('',(40.279116048669,40.237239989823,
    26.374596852142));
#568 = CARTESIAN_POINT('',(2.890122631673E-02,56.905956465382,
    27.349605069605));
#569 = CARTESIAN_POINT('',(-40.19906290523,40.238931902949,
    28.324613287007));
#570 = CARTESIAN_POINT('',(-56.85054674521,2.748195935415E-02,
    29.299621504347));
#571 = CARTESIAN_POINT('',(-40.19874761216,-40.16088559302,
    30.274629721624));
#572 = CARTESIAN_POINT('',(-2.606334869383E-02,-56.79513778841,
    31.249637938839));
#573 = CARTESIAN_POINT('',(40.122710588285,-40.15856049235,
    32.224646155992));
#574 = CARTESIAN_POINT('',(56.739720132658,-2.465541243735E-02,
    33.199654373081));
#575 = CARTESIAN_POINT('',(40.118405862102,40.084575283967,
    34.174662590112));
#576 = CARTESIAN_POINT('',(2.312632233687E-02,56.684154206782,
    35.14967080706));
#577 = CARTESIAN_POINT('',(-40.04598762447,40.078804677899,
    36.124679024023));
#578 = CARTESIAN_POINT('',(-56.63027663351,1.9531581015E-02,
    37.099687240631));
#579 = CARTESIAN_POINT('',(-40.03290164876,-39.99968966878,
    38.074695458266));
#580 = CARTESIAN_POINT('',(-3.945893223358E-02,-56.60517807741,
    39.049703671758));
#581 = CARTESIAN_POINT('',(40.041189085559,-39.87957934078,
    40.024711900455));
#582 = CARTESIAN_POINT('',(50.848154264941,-13.60127285078,
    40.674687921405));
#583 = CARTESIAN_POINT('',(51.,-2.545653851521E-02,40.999675929813));
#584 = CARTESIAN_POINT('',(52.,5.09130770303E-02,-1.999351859625));
#585 = CARTESIAN_POINT('',(51.818968838228,13.889700819204,
    -1.657674007602));
#586 = CARTESIAN_POINT('',(40.756309704312,40.655147201122,
    -0.974318283233));
#587 = CARTESIAN_POINT('',(-8.392909640902E-02,57.602323805977,
    5.067374847971E-02));
#588 = CARTESIAN_POINT('',(-40.72840608928,40.635552611732,
    1.075665767057));
#589 = CARTESIAN_POINT('',(-57.51651681096,-6.040100136823E-02,
    2.100657789077));
#590 = CARTESIAN_POINT('',(-40.60550899468,-40.69416404669,
    3.125649810095));
#591 = CARTESIAN_POINT('',(6.118244604438E-02,-57.45951811772,
    4.150641831304));
#592 = CARTESIAN_POINT('',(40.653407452449,-40.56774529343,
    5.175633852383));
#593 = CARTESIAN_POINT('',(57.404265202881,5.989500832115E-02,
    6.200625873418));
#594 = CARTESIAN_POINT('',(40.529513777473,40.613205251353,
    7.225617894386));
#595 = CARTESIAN_POINT('',(-5.848216664738E-02,57.348863715113,
    8.250609915293));
#596 = CARTESIAN_POINT('',(-40.57303662574,40.491322099427,
    9.275601936136));
#597 = CARTESIAN_POINT('',(-57.29345322432,-5.707996295585E-02,
    10.300593956917));
#598 = CARTESIAN_POINT('',(-40.45313285702,-40.53286511874,
    11.325585977636));
#599 = CARTESIAN_POINT('',(5.567837406785E-02,-57.23804350033,
    12.350577998291));
#600 = CARTESIAN_POINT('',(40.492693416374,-40.41494343215,
    13.375570018882));
#601 = CARTESIAN_POINT('',(57.182633823308,5.427669834575E-02,
    14.400562039411));
#602 = CARTESIAN_POINT('',(40.376754017722,40.452521706632,
    15.425554059875));
#603 = CARTESIAN_POINT('',(-5.287498746138E-02,57.127224142875,
    16.450546080276));
#604 = CARTESIAN_POINT('',(-40.41234997565,40.338564627242,
    17.475538100614));
#605 = CARTESIAN_POINT('',(-57.07181446274,-5.147324501304E-02,
    18.500530120887));
#606 = CARTESIAN_POINT('',(-40.30037525973,-40.37217822244,
    19.525522141096));
#607 = CARTESIAN_POINT('',(5.007147069612E-02,-57.01640478319,
    20.550514161241));
#608 = CARTESIAN_POINT('',(40.332006447134,-40.26218591506,
    21.575506181321));
#609 = CARTESIAN_POINT('',(56.960995103948,4.866966420492E-02,
    22.600498201337));
#610 = CARTESIAN_POINT('',(40.223996594189,40.291834650702,
    23.625490221287));
#611 = CARTESIAN_POINT('',(-4.726782901583E-02,56.905585421305,
    24.650482241173));
#612 = CARTESIAN_POINT('',(-40.25166282009,40.185807310967,
    25.675474260994));
#613 = CARTESIAN_POINT('',(-56.85017578394,-4.5866016764E-02,
    26.70046628075));
#614 = CARTESIAN_POINT('',(-40.14761788369,-40.21149076248,
    27.72545830044));
#615 = CARTESIAN_POINT('',(4.446354917813E-02,-56.79476691151,
    28.750450320065));
#616 = CARTESIAN_POINT('',(40.171321009479,-40.10942562627,
    29.775442339624));
#617 = CARTESIAN_POINT('',(56.73934935466,4.30504002161E-02,
    30.800434359117));
#618 = CARTESIAN_POINT('',(40.07126580884,40.131190983675,
    31.825426378548));
#619 = CARTESIAN_POINT('',(-4.175821727088E-02,56.683783431607,
    32.850418397895));
#620 = CARTESIAN_POINT('',(-40.09060930452,40.033659800806,
    33.875410417243));
#621 = CARTESIAN_POINT('',(-56.62990324541,-4.253303897778E-02,
    34.900402436273));
#622 = CARTESIAN_POINT('',(-39.98976171595,-40.04231227817,
    35.925394456177));
#623 = CARTESIAN_POINT('',(1.982222537052E-02,-56.60482093336,
    36.950386472493));
#624 = CARTESIAN_POINT('',(40.08167654639,-39.83837397221,37.97537850193
    ));
#625 = CARTESIAN_POINT('',(50.8617626504,-13.5500481849,38.658675553316)
  );
#626 = CARTESIAN_POINT('',(51.,2.545653851509E-02,39.000324070187));
#627 = DEFINITIONAL_REPRESENTATION('',(#628),#632);
#628 = LINE('',#629,#630);
#629 = CARTESIAN_POINT('',(2.,0.));
#630 = VECTOR('',#631,1.);
#631 = DIRECTION('',(0.,1.));
#632 = ( GEOMETRIC_REPRESENTATION_CONTEXT(2) 
PARAMETRIC_REPRESENTATION_CONTEXT() REPRESENTATION_CONTEXT('2D SPACE',''
  ) );
#633 = ORIENTED_EDGE('',*,*,#634,.F.);
#634 = EDGE_CURVE('',#137,#485,#635,.T.);
#635 = SURFACE_CURVE('',#636,(#639,#646),.PCURVE_S1.);
#636 = B_SPLINE_CURVE_WITH_KNOTS('',1,(#637,#638),.UNSPECIFIED.,.F.,.F.,
  (2,2),(1.,2.),.PIECEWISE_BEZIER_KNOTS.);
#637 = CARTESIAN_POINT('',(49.,-2.545653851521E-02,40.999675929813));
#638 = CARTESIAN_POINT('',(51.,-2.545653851521E-02,40.999675929813));
#639 = PCURVE('',#192,#640);
#640 = DEFINITIONAL_REPRESENTATION('',(#641),#645);
#641 = LINE('',#642,#643);
#642 = CARTESIAN_POINT('',(0.,1.));
#643 = VECTOR('',#644,1.);
#644 = DIRECTION('',(1.,0.));
#645 = ( GEOMETRIC_REPRESENTATION_CONTEXT(2) 
PARAMETRIC_REPRESENTATION_CONTEXT() REPRESENTATION_CONTEXT('2D SPACE',''
  ) );
#646 = PCURVE('',#301,#647);
#647 = DEFINITIONAL_REPRESENTATION('',(#648),#651);
#648 = B_SPLINE_CURVE_WITH_KNOTS('',1,(#649,#650),.UNSPECIFIED.,.F.,.F.,
  (2,2),(1.,2.),.PIECEWISE_BEZIER_KNOTS.);
#649 = CARTESIAN_POINT('',(1.414213562373,1.414213562373));
#650 = CARTESIAN_POINT('',(2.828427124746,0.));
#651 = ( GEOMETRIC_REPRESENTATION_CONTEXT(2) 
PARAMETRIC_REPRESENTATION_CONTEXT() REPRESENTATION_CONTEXT('2D SPACE',''
  ) );
#652 = ORIENTED_EDGE('',*,*,#136,.F.);
#653 = ADVANCED_FACE('',(#654),#540,.T.);
#654 = FACE_BOUND('',#655,.T.);
#655 = EDGE_LOOP('',(#656,#677,#740,#759));
#656 = ORIENTED_EDGE('',*,*,#657,.T.);
#657 = EDGE_CURVE('',#464,#658,#660,.T.);
#658 = VERTEX_POINT('',#659);
#659 = CARTESIAN_POINT('',(52.,5.09130770303E-02,-1.999351859625));
#660 = SURFACE_CURVE('',#661,(#664,#671),.PCURVE_S1.);
#661 = B_SPLINE_CURVE_WITH_KNOTS('',1,(#662,#663),.UNSPECIFIED.,.F.,.F.,
  (2,2),(2.,3.),.PIECEWISE_BEZIER_KNOTS.);
#662 = CARTESIAN_POINT('',(52.,-5.09130770303E-02,1.999351859625));
#663 = CARTESIAN_POINT('',(52.,5.09130770303E-02,-1.999351859625));
#664 = PCURVE('',#540,#665);
#665 = DEFINITIONAL_REPRESENTATION('',(#666),#670);
#666 = LINE('',#667,#668);
#667 = CARTESIAN_POINT('',(0.,0.));
#668 = VECTOR('',#669,1.);
#669 = DIRECTION('',(1.,0.));
#670 = ( GEOMETRIC_REPRESENTATION_CONTEXT(2) 
PARAMETRIC_REPRESENTATION_CONTEXT() REPRESENTATION_CONTEXT('2D SPACE',''
  ) );
#671 = PCURVE('',#125,#672);
#672 = DEFINITIONAL_REPRESENTATION('',(#673),#676);
#673 = B_SPLINE_CURVE_WITH_KNOTS('',1,(#674,#675),.UNSPECIFIED.,.F.,.F.,
  (2,2),(2.,3.),.PIECEWISE_BEZIER_KNOTS.);
#674 = CARTESIAN_POINT('',(5.656854249492,-7.105427357601E-15));
#675 = CARTESIAN_POINT('',(2.828427124746,-2.828427124746));
#676 = ( GEOMETRIC_REPRESENTATION_CONTEXT(2) 
PARAMETRIC_REPRESENTATION_CONTEXT() REPRESENTATION_CONTEXT('2D SPACE',''
  ) );
#677 = ORIENTED_EDGE('',*,*,#678,.T.);
#678 = EDGE_CURVE('',#658,#679,#681,.T.);
#679 = VERTEX_POINT('',#680);
#680 = CARTESIAN_POINT('',(51.,2.545653851509E-02,39.000324070187));
#681 = SURFACE_CURVE('',#682,(#726,#733),.PCURVE_S1.);
#682 = ( BOUNDED_CURVE() B_SPLINE_CURVE(3,(#683,#684,#685,#686,#687,#688
    ,#689,#690,#691,#692,#693,#694,#695,#696,#697,#698,#699,#700,#701,
    #702,#703,#704,#705,#706,#707,#708,#709,#710,#711,#712,#713,#714,
    #715,#716,#717,#718,#719,#720,#721,#722,#723,#724,#725),
.UNSPECIFIED.,.F.,.F.) B_SPLINE_CURVE_WITH_KNOTS((4,1,1,1,1,1,1,1,1,1,1,
    1,1,1,1,1,1,1,1,1,1,1,1,1,1,1,1,1,1,1,1,1,1,1,1,1,1,1,1,1,4),(0.,
    2.495889150782E-02,4.991981324718E-02,7.488277138203E-02,
    9.984777207476E-02,0.124814821486,0.149783925776,0.174755091102,
    0.19972832362,0.224703629485,0.249681014851,0.274660485869,
    0.29964204869,0.324625709462,0.349611474331,0.374599349445,
    0.399589340946,0.424581454978,0.449575697681,0.474572075194,
    0.499570593655,0.524571259201,0.549574077965,0.574579056081,
    0.599586199681,0.624595514893,0.649607007847,0.674620684669,
    0.699636551483,0.724654614414,0.749674879583,0.77469735311,
    0.799722041115,0.824748949712,0.849778085019,0.874809453149,
    0.899843060213,0.924878912322,0.949917015585,0.974957376109,1.),
.UNSPECIFIED.) CURVE() GEOMETRIC_REPRESENTATION_ITEM() 
RATIONAL_B_SPLINE_CURVE((1.,1.000000000001,1.,1.,1.,1.,1.,1.,1.,1.,1.,1.
    ,1.,1.,1.,1.,1.,1.,1.,1.,1.,1.,1.,1.,1.,1.,1.,1.,1.,1.,1.,1.,1.,1.,
    1.,1.,1.,1.000000000001,0.999999999998,1.000000000007,0.999999999974
,1.000000000056,1.)) REPRESENTATION_ITEM('') );
#683 = CARTESIAN_POINT('',(52.,5.09130770303E-02,-1.999351859625));
#684 = CARTESIAN_POINT('',(51.818968838228,13.889700819204,
    -1.657674007602));
#685 = CARTESIAN_POINT('',(40.756309704312,40.655147201122,
    -0.974318283233));
#686 = CARTESIAN_POINT('',(-8.392909640902E-02,57.602323805977,
    5.067374847971E-02));
#687 = CARTESIAN_POINT('',(-40.72840608928,40.635552611732,
    1.075665767057));
#688 = CARTESIAN_POINT('',(-57.51651681096,-6.040100136823E-02,
    2.100657789077));
#689 = CARTESIAN_POINT('',(-40.60550899468,-40.69416404669,
    3.125649810095));
#690 = CARTESIAN_POINT('',(6.118244604438E-02,-57.45951811772,
    4.150641831304));
#691 = CARTESIAN_POINT('',(40.653407452449,-40.56774529343,
    5.175633852383));
#692 = CARTESIAN_POINT('',(57.404265202881,5.989500832115E-02,
    6.200625873418));
#693 = CARTESIAN_POINT('',(40.529513777473,40.613205251353,
    7.225617894386));
#694 = CARTESIAN_POINT('',(-5.848216664738E-02,57.348863715113,
    8.250609915293));
#695 = CARTESIAN_POINT('',(-40.57303662574,40.491322099427,
    9.275601936136));
#696 = CARTESIAN_POINT('',(-57.29345322432,-5.707996295585E-02,
    10.300593956917));
#697 = CARTESIAN_POINT('',(-40.45313285702,-40.53286511874,
    11.325585977636));
#698 = CARTESIAN_POINT('',(5.567837406785E-02,-57.23804350033,
    12.350577998291));
#699 = CARTESIAN_POINT('',(40.492693416374,-40.41494343215,
    13.375570018882));
#700 = CARTESIAN_POINT('',(57.182633823308,5.427669834575E-02,
    14.400562039411));
#701 = CARTESIAN_POINT('',(40.376754017722,40.452521706632,
    15.425554059875));
#702 = CARTESIAN_POINT('',(-5.287498746138E-02,57.127224142875,
    16.450546080276));
#703 = CARTESIAN_POINT('',(-40.41234997565,40.338564627242,
    17.475538100614));
#704 = CARTESIAN_POINT('',(-57.07181446274,-5.147324501304E-02,
    18.500530120887));
#705 = CARTESIAN_POINT('',(-40.30037525973,-40.37217822244,
    19.525522141096));
#706 = CARTESIAN_POINT('',(5.007147069612E-02,-57.01640478319,
    20.550514161241));
#707 = CARTESIAN_POINT('',(40.332006447134,-40.26218591506,
    21.575506181321));
#708 = CARTESIAN_POINT('',(56.960995103948,4.866966420492E-02,
    22.600498201337));
#709 = CARTESIAN_POINT('',(40.223996594189,40.291834650702,
    23.625490221287));
#710 = CARTESIAN_POINT('',(-4.726782901583E-02,56.905585421305,
    24.650482241173));
#711 = CARTESIAN_POINT('',(-40.25166282009,40.185807310967,
    25.675474260994));
#712 = CARTESIAN_POINT('',(-56.85017578394,-4.5866016764E-02,
    26.70046628075));
#713 = CARTESIAN_POINT('',(-40.14761788369,-40.21149076248,
    27.72545830044));
#714 = CARTESIAN_POINT('',(4.446354917813E-02,-56.79476691151,
    28.750450320065));
#715 = CARTESIAN_POINT('',(40.171321009479,-40.10942562627,
    29.775442339624));
#716 = CARTESIAN_POINT('',(56.73934935466,4.30504002161E-02,
    30.800434359117));
#717 = CARTESIAN_POINT('',(40.07126580884,40.131190983675,
    31.825426378548));
#718 = CARTESIAN_POINT('',(-4.175821727088E-02,56.683783431607,
    32.850418397895));
#719 = CARTESIAN_POINT('',(-40.09060930452,40.033659800806,
    33.875410417243));
#720 = CARTESIAN_POINT('',(-56.62990324541,-4.253303897778E-02,
    34.900402436273));
#721 = CARTESIAN_POINT('',(-39.98976171595,-40.04231227817,
    35.925394456177));
#722 = CARTESIAN_POINT('',(1.982222537052E-02,-56.60482093336,
    36.950386472493));
#723 = CARTESIAN_POINT('',(40.08167654639,-39.83837397221,37.97537850193
    ));
#724 = CARTESIAN_POINT('',(50.8617626504,-13.5500481849,38.658675553316)
  );
#725 = CARTESIAN_POINT('',(51.,2.545653851509E-02,39.000324070187));
#726 = PCURVE('',#540,#727);
#727 = DEFINITIONAL_REPRESENTATION('',(#728),#732);
#728 = LINE('',#729,#730);
#729 = CARTESIAN_POINT('',(3.,0.));
#730 = VECTOR('',#731,1.);
#731 = DIRECTION('',(0.,1.));
#732 = ( GEOMETRIC_REPRESENTATION_CONTEXT(2) 
PARAMETRIC_REPRESENTATION_CONTEXT() REPRESENTATION_CONTEXT('2D SPACE',''
  ) );
#733 = PCURVE('',#366,#734);
#734 = DEFINITIONAL_REPRESENTATION('',(#735),#739);
#735 = LINE('',#736,#737);
#736 = CARTESIAN_POINT('',(3.,0.));
#737 = VECTOR('',#738,1.);
#738 = DIRECTION('',(0.,1.));
#739 = ( GEOMETRIC_REPRESENTATION_CONTEXT(2) 
PARAMETRIC_REPRESENTATION_CONTEXT() REPRESENTATION_CONTEXT('2D SPACE',''
  ) );
#740 = ORIENTED_EDGE('',*,*,#741,.F.);
#741 = EDGE_CURVE('',#485,#679,#742,.T.);
#742 = SURFACE_CURVE('',#743,(#746,#753),.PCURVE_S1.);
#743 = B_SPLINE_CURVE_WITH_KNOTS('',1,(#744,#745),.UNSPECIFIED.,.F.,.F.,
  (2,2),(2.,3.),.PIECEWISE_BEZIER_KNOTS.);
#744 = CARTESIAN_POINT('',(51.,-2.545653851521E-02,40.999675929813));
#745 = CARTESIAN_POINT('',(51.,2.545653851509E-02,39.000324070187));
#746 = PCURVE('',#540,#747);
#747 = DEFINITIONAL_REPRESENTATION('',(#748),#752);
#748 = LINE('',#749,#750);
#749 = CARTESIAN_POINT('',(0.,1.));
#750 = VECTOR('',#751,1.);
#751 = DIRECTION('',(1.,0.));
#752 = ( GEOMETRIC_REPRESENTATION_CONTEXT(2) 
PARAMETRIC_REPRESENTATION_CONTEXT() REPRESENTATION_CONTEXT('2D SPACE',''
  ) );
#753 = PCURVE('',#301,#754);
#754 = DEFINITIONAL_REPRESENTATION('',(#755),#758);
#755 = B_SPLINE_CURVE_WITH_KNOTS('',1,(#756,#757),.UNSPECIFIED.,.F.,.F.,
  (2,2),(2.,3.),.PIECEWISE_BEZIER_KNOTS.);
#756 = CARTESIAN_POINT('',(2.828427124746,0.));
#757 = CARTESIAN_POINT('',(1.414213562373,-1.414213562373));
#758 = ( GEOMETRIC_REPRESENTATION_CONTEXT(2) 
PARAMETRIC_REPRESENTATION_CONTEXT() REPRESENTATION_CONTEXT('2D SPACE',''
  ) );
#759 = ORIENTED_EDGE('',*,*,#484,.F.);
#760 = ADVANCED_FACE('',(#761),#366,.T.);
#761 = FACE_BOUND('',#762,.T.);
#762 = EDGE_LOOP('',(#763,#782,#783,#802));
#763 = ORIENTED_EDGE('',*,*,#764,.T.);
#764 = EDGE_CURVE('',#658,#22,#765,.T.);
#765 = SURFACE_CURVE('',#766,(#769,#776),.PCURVE_S1.);
#766 = B_SPLINE_CURVE_WITH_KNOTS('',1,(#767,#768),.UNSPECIFIED.,.F.,.F.,
  (2,2),(3.,4.),.PIECEWISE_BEZIER_KNOTS.);
#767 = CARTESIAN_POINT('',(52.,5.09130770303E-02,-1.999351859625));
#768 = CARTESIAN_POINT('',(48.,5.09130770303E-02,-1.999351859625));
#769 = PCURVE('',#366,#770);
#770 = DEFINITIONAL_REPRESENTATION('',(#771),#775);
#771 = LINE('',#772,#773);
#772 = CARTESIAN_POINT('',(0.,0.));
#773 = VECTOR('',#774,1.);
#774 = DIRECTION('',(1.,0.));
#775 = ( GEOMETRIC_REPRESENTATION_CONTEXT(2) 
PARAMETRIC_REPRESENTATION_CONTEXT() REPRESENTATION_CONTEXT('2D SPACE',''
  ) );
#776 = PCURVE('',#125,#777);
#777 = DEFINITIONAL_REPRESENTATION('',(#778),#781);
#778 = B_SPLINE_CURVE_WITH_KNOTS('',1,(#779,#780),.UNSPECIFIED.,.F.,.F.,
  (2,2),(3.,4.),.PIECEWISE_BEZIER_KNOTS.);
#779 = CARTESIAN_POINT('',(2.828427124746,-2.828427124746));
#780 = CARTESIAN_POINT('',(0.,0.));
#781 = ( GEOMETRIC_REPRESENTATION_CONTEXT(2) 
PARAMETRIC_REPRESENTATION_CONTEXT() REPRESENTATION_CONTEXT('2D SPACE',''
  ) );
#782 = ORIENTED_EDGE('',*,*,#312,.T.);
#783 = ORIENTED_EDGE('',*,*,#784,.F.);
#784 = EDGE_CURVE('',#679,#287,#785,.T.);
#785 = SURFACE_CURVE('',#786,(#789,#796),.PCURVE_S1.);
#786 = B_SPLINE_CURVE_WITH_KNOTS('',1,(#787,#788),.UNSPECIFIED.,.F.,.F.,
  (2,2),(3.,4.),.PIECEWISE_BEZIER_KNOTS.);
#787 = CARTESIAN_POINT('',(51.,2.545653851509E-02,39.000324070187));
#788 = CARTESIAN_POINT('',(49.,2.545653851509E-02,39.000324070187));
#789 = PCURVE('',#366,#790);
#790 = DEFINITIONAL_REPRESENTATION('',(#791),#795);
#791 = LINE('',#792,#793);
#792 = CARTESIAN_POINT('',(0.,1.));
#793 = VECTOR('',#794,1.);
#794 = DIRECTION('',(1.,0.));
#795 = ( GEOMETRIC_REPRESENTATION_CONTEXT(2) 
PARAMETRIC_REPRESENTATION_CONTEXT() REPRESENTATION_CONTEXT('2D SPACE',''
  ) );
#796 = PCURVE('',#301,#797);
#797 = DEFINITIONAL_REPRESENTATION('',(#798),#801);
#798 = B_SPLINE_CURVE_WITH_KNOTS('',1,(#799,#800),.UNSPECIFIED.,.F.,.F.,
  (2,2),(3.,4.),.PIECEWISE_BEZIER_KNOTS.);
#799 = CARTESIAN_POINT('',(1.414213562373,-1.414213562373));
#800 = CARTESIAN_POINT('',(0.,0.));
#801 = ( GEOMETRIC_REPRESENTATION_CONTEXT(2) 
PARAMETRIC_REPRESENTATION_CONTEXT() REPRESENTATION_CONTEXT('2D SPACE',''
  ) );
#802 = ORIENTED_EDGE('',*,*,#678,.F.);
#803 = ADVANCED_FACE('',(#804),#125,.T.);
#804 = FACE_BOUND('',#805,.T.);
#805 = EDGE_LOOP('',(#806,#807,#808,#809));
#806 = ORIENTED_EDGE('',*,*,#21,.F.);
#807 = ORIENTED_EDGE('',*,*,#764,.F.);
#808 = ORIENTED_EDGE('',*,*,#657,.F.);
#809 = ORIENTED_EDGE('',*,*,#463,.F.);
#810 = ADVANCED_FACE('',(#811),#301,.F.);
#811 = FACE_BOUND('',#812,.T.);
#812 = EDGE_LOOP('',(#813,#814,#815,#816));
#813 = ORIENTED_EDGE('',*,*,#286,.T.);
#814 = ORIENTED_EDGE('',*,*,#634,.T.);
#815 = ORIENTED_EDGE('',*,*,#741,.T.);
#816 = ORIENTED_EDGE('',*,*,#784,.T.);
#817 = ( GEOMETRIC_REPRESENTATION_CONTEXT(3) 
GLOBAL_UNCERTAINTY_ASSIGNED_CONTEXT((#821)) GLOBAL_UNIT_ASSIGNED_CONTEXT
((#818,#819,#820)) REPRESENTATION_CONTEXT('Context #1',
  '3D Context with UNIT and UNCERTAINTY') );
#818 = ( LENGTH_UNIT() NAMED_UNIT(*) SI_UNIT(.MILLI.,.METRE.) );
#819 = ( NAMED_UNIT(*) PLANE_ANGLE_UNIT() SI_UNIT($,.RADIAN.) );
#820 = ( NAMED_UNIT(*) SI_UNIT($,.STERADIAN.) SOLID_ANGLE_UNIT() );
#821 = UNCERTAINTY_MEASURE_WITH_UNIT(LENGTH_MEASURE(1.E-07),#818,
  'distance_accuracy_value','confusion accuracy');
#822 = PRODUCT_RELATED_PRODUCT_CATEGORY('part',$,(#7));
ENDSEC;
END-ISO-10303-21;
